<?xml version="1.0" encoding="utf-8"?>
<!-- Generator: Adobe Illustrator 27.2.0, SVG Export Plug-In . SVG Version: 6.00 Build 0)  -->
<svg version="1.1" id="Capa_1" xmlns="http://www.w3.org/2000/svg" xmlns:xlink="http://www.w3.org/1999/xlink" x="0px" y="0px"
	 viewBox="0 0 345 554" style="enable-background:new 0 0 345 554;" xml:space="preserve">
<style type="text/css">
	.st0{fill:#FC441E;}
</style>
<g>
	<path class="st0" d="M294.5,47.7c16-5.8,28.7-12.7,37.4-20.3c8.7-7.6,13.1-15.7,13.1-23.9H0c0,8.2,4.5,16.3,13.1,23.9
		c8.7,7.6,21.4,14.5,37.4,20.3c14,5.1,30.3,9.2,48.2,12.3H0v36h0c0.1,10.5,4.6,21,13.1,30.7c8.7,9.9,21.4,18.9,37.4,26.4
		s35,13.6,56,17.7c20.9,4.1,43.4,6.2,66,6.2c22.6,0,45.1-2.1,66-6.2c20.9-4.1,39.9-10.1,56-17.7c16-7.6,28.7-16.5,37.4-26.4
		c8.5-9.7,13-20.2,13.1-30.7h0V60h-98.7C264.2,56.9,280.5,52.8,294.5,47.7z"/>
	<path class="st0" d="M0,232L0,232c0.1,13.7,4.6,27.2,13.1,39.9c8.7,12.8,21.4,24.4,37.4,34.2s35,17.6,56,22.9s43.4,8,66,8
		c22.6,0,45.1-2.7,66-8s39.9-13.1,56-22.9c16-9.8,28.7-21.4,37.4-34.2c8.6-12.6,13-26.2,13.1-39.9h0v-55H172.5H0V232z"/>
	<path class="st0" d="M0,426L0,426c0.7,16,5.1,31.7,13.1,46.5c8.7,16,21.4,30.6,37.4,42.8c16,12.2,35,22,56,28.6
		c20.9,6.6,43.4,10,66,10c22.6,0,45.1-3.4,66-10s39.9-16.3,56-28.6c16-12.2,28.7-26.8,37.4-42.8c8-14.8,12.4-30.5,13-46.5h0.1v-89
		H172.5H0V426z"/>
</g>
</svg>
