<?xml version="1.0" encoding="UTF-8"?>
<svg id="Capa_1" data-name="Capa 1" xmlns="http://www.w3.org/2000/svg" viewBox="0 0 470 330">
  <defs>
    <style>
      .cls-1 {
        fill: #fc441e;
      }
    </style>
  </defs>
  <path class="cls-1" d="M2.5,0c5.84,0,11.63,4.27,17.03,12.56,5.4,8.29,10.3,20.45,14.44,35.77,4.13,15.32,7.41,33.51,9.65,53.53,2.24,20.02,3.39,41.47,3.39,63.14s-1.15,43.12-3.39,63.14c-2.24,20.02-5.51,38.21-9.65,53.53-4.13,15.32-9.04,27.48-14.44,35.77s-11.19,12.56-17.03,12.56V0Z"/>
  <ellipse class="cls-1" cx="392" cy="164.5" rx="78" ry="164.5"/>
  <ellipse class="cls-1" cx="258" cy="165.5" rx="56" ry="164.5"/>
  <ellipse class="cls-1" cx="153.5" cy="164.5" rx="48.5" ry="164.5"/>
  <ellipse class="cls-1" cx="76" cy="165.5" rx="29" ry="164.5"/>
</svg>