<?xml version="1.0" encoding="utf-8"?>
<!-- Generator: Adobe Illustrator 27.2.0, SVG Export Plug-In . SVG Version: 6.00 Build 0)  -->
<svg version="1.1" id="Capa_1" xmlns="http://www.w3.org/2000/svg" xmlns:xlink="http://www.w3.org/1999/xlink" x="0px" y="0px"
	 viewBox="0 0 285 549" style="enable-background:new 0 0 285 549;" xml:space="preserve">
<style type="text/css">
	.st0{fill:#FC441E;}
</style>
<path class="st0" d="M118.5,0L118.5,0h-0.1v0C103,0,87.8,1.5,73.6,4.5c-14.2,3-27.2,7.4-38.1,12.9C24.6,22.9,15.9,29.5,10,36.7
	c-5.9,7.2-8.9,14.9-8.9,22.7c0,7.8,3,15.5,8.9,22.7c5.9,7.2,14.6,13.8,25.5,19.3c10.9,5.5,23.8,9.9,38.1,12.9
	c14.2,3,29.4,4.5,44.8,4.5v0c-15.4,0-30.6,1.5-44.8,4.5c-14.2,3-27.2,7.4-38.1,12.9c-10.9,5.5-19.5,12.1-25.4,19.3
	c-5.9,7.2-8.9,14.9-8.9,22.7s3,15.5,8.9,22.7c5.9,7.2,14.5,13.8,25.4,19.3c10.9,5.5,23.8,9.9,38.1,12.9c14.2,3,29.4,4.5,44.8,4.5
	v0.4H160V0H118.5z"/>
<rect x="181" class="st0" width="101" height="549"/>
<path class="st0" d="M159.5,549c-20.9,0-41.7-3.8-61-11.1c-19.3-7.3-36.9-18-51.8-31.5c-14.8-13.5-26.6-29.5-34.6-47.2
	C4.1,441.5,0,422.6,0,403.5s4.1-38,12.1-55.7c8-17.6,19.8-33.7,34.6-47.2c14.8-13.5,32.4-24.2,51.8-31.5c19.3-7.3,40.1-11.1,61-11.1
	v98.3c-6.8,0-13.5,1.2-19.8,3.6s-12,5.9-16.8,10.2c-4.8,4.4-8.6,9.6-11.2,15.3c-2.6,5.7-3.9,11.9-3.9,18.1s1.3,12.3,3.9,18.1
	c2.6,5.7,6.4,10.9,11.2,15.3c4.8,4.4,10.5,7.9,16.8,10.2s13,3.6,19.8,3.6L159.5,549L159.5,549z"/>
</svg>
