<?xml version="1.0" encoding="UTF-8"?>
<svg id="Capa_1" data-name="Capa 1" xmlns="http://www.w3.org/2000/svg" viewBox="0 0 226.99 162.13">
  <defs>
    <style>
      .cls-1 {
        fill: #fc441e;
      }

      .cls-2 {
        fill: #f5f4f2;
      }
    </style>
  </defs>
  <path class="cls-1" d="M1.72,81.07C1.72,37.44,37.09,2.07,80.72,2.07H225.72V81.07c0,43.63-35.37,79-79,79H1.72V81.07Z"/>
  <ellipse class="cls-2" cx="113.72" cy="80.86" rx="121.18" ry="59.58" transform="translate(-24.49 61.63) rotate(-27.49)"/>
  <path class="cls-1" d="M134.72,54.07h-42c-2.39,0-4.68,.95-6.36,2.64-1.69,1.69-2.64,3.98-2.64,6.36v24c0,2.39,.95,4.68,2.64,6.36,1.69,1.69,3.98,2.64,6.36,2.64h18v6h-12c-.8,0-1.56,.32-2.12,.88-.56,.56-.88,1.32-.88,2.12s.32,1.56,.88,2.12c.56,.56,1.33,.88,2.12,.88h30c.8,0,1.56-.32,2.12-.88,.56-.56,.88-1.32,.88-2.12s-.32-1.56-.88-2.12c-.56-.56-1.32-.88-2.12-.88h-12v-6h18c2.39,0,4.68-.95,6.36-2.64,1.69-1.69,2.64-3.98,2.64-6.36v-24c0-2.39-.95-4.68-2.64-6.36-1.69-1.69-3.98-2.64-6.36-2.64Zm3,33c0,.8-.32,1.56-.88,2.12-.56,.56-1.32,.88-2.12,.88h-42c-.8,0-1.56-.32-2.12-.88-.56-.56-.88-1.33-.88-2.12v-24c0-.8,.32-1.56,.88-2.12,.56-.56,1.33-.88,2.12-.88h42c.8,0,1.56,.32,2.12,.88,.56,.56,.88,1.33,.88,2.12v24Z"/>
</svg>