<?xml version="1.0" encoding="UTF-8"?>
<svg id="Capa_1" data-name="Capa 1" xmlns="http://www.w3.org/2000/svg" viewBox="0 0 226.99 160.36">
  <defs>
    <style>
      .cls-1 {
        fill: #fc441e;
      }

      .cls-2 {
        fill: #f5f4f2;
      }
    </style>
  </defs>
  <path class="cls-1" d="M1.72,80.18C1.72,36.55,37.09,1.18,80.72,1.18H225.72V80.18c0,43.63-35.37,79-79,79H1.72V80.18Z"/>
  <ellipse class="cls-2" cx="113.72" cy="79.97" rx="121.18" ry="59.58" transform="translate(-24.08 61.53) rotate(-27.49)"/>
  <path class="cls-1" d="M113.22,53.18c-4.91,0-9.61,1.95-13.08,5.43-3.47,3.48-5.42,8.2-5.42,13.12v15.9c0,4.92,1.95,9.64,5.42,13.12,3.47,3.48,8.17,5.43,13.08,5.43s9.61-1.95,13.08-5.43c3.47-3.48,5.42-8.2,5.42-13.12v-15.9c0-4.92-1.95-9.64-5.42-13.12-3.47-3.48-8.17-5.43-13.08-5.43Zm-13.21,18.55c0-3.05,1.05-6.02,2.98-8.38,1.93-2.37,4.61-3.99,7.59-4.6v15.63h-10.57v-2.65Zm26.43,15.9c0,3.51-1.39,6.88-3.87,9.37-2.48,2.49-5.84,3.88-9.34,3.88s-6.87-1.4-9.34-3.88c-2.48-2.49-3.87-5.86-3.87-9.37v-7.95h26.43v7.95Zm0-13.25h-10.57v-15.63c2.99,.61,5.67,2.24,7.59,4.6,1.93,2.37,2.98,5.33,2.98,8.38v2.65Z"/>
</svg>