<svg width="102" height="102" viewBox="0 0 102 102" fill="none" xmlns="http://www.w3.org/2000/svg">
<circle cx="51" cy="51" r="51" fill="#FC441E"/>
<path d="M28 43.2857C28 37.5852 28 34.7349 29.1094 32.5576C30.0853 30.6424 31.6424 29.0853 33.5576 28.1094C35.7349 27 38.5852 27 44.2857 27H56.7143C62.4148 27 65.2651 27 67.4424 28.1094C69.3576 29.0853 70.9148 30.6424 71.8906 32.5576C73 34.7349 73 37.5852 73 43.2857V55.7143C73 61.4148 73 64.2651 71.8906 66.4424C70.9148 68.3576 69.3576 69.9148 67.4424 70.8906C65.2651 72 62.4148 72 56.7143 72H44.2857C38.5852 72 35.7349 72 33.5576 70.8906C31.6424 69.9148 30.0853 68.3576 29.1094 66.4424C28 64.2651 28 61.4148 28 55.7143V43.2857Z" fill="#F5F4F2"/>
<path d="M37.6429 59.9725V40.1841C37.6429 40.0494 37.6991 39.9725 37.8304 39.9725C39.768 39.9725 41.7047 39.8571 43.6429 39.8571C46.7878 39.8571 50.193 40.9325 51.3866 44.2225C51.6679 45.0302 51.8179 45.8571 51.8179 46.7225C51.8179 48.3764 51.4429 49.7418 50.6929 50.8187C48.5978 53.827 44.9666 53.7802 41.7116 53.7802V59.9533C41.7371 60.1361 41.5813 60.2225 41.4304 60.2225H37.8679C37.7179 60.2225 37.6429 60.1456 37.6429 59.9725ZM41.7304 43.6841V50.1456C43.021 50.2402 44.3715 50.2504 45.6116 49.8379C46.9806 49.443 47.7304 48.2579 47.7304 46.8379C47.7684 45.6279 47.1091 44.4669 45.9866 44.0302C44.7615 43.5208 43.0528 43.4903 41.7304 43.6841Z" fill="#FC441E"/>
<path d="M63.5125 48.869C62.9452 48.57 62.3409 48.3513 61.7163 48.2188C60.9137 48.0299 57.7479 47.3685 57.7467 49.0238C57.7748 49.948 59.2417 50.4007 59.8899 50.6647C62.1654 51.446 64.7404 52.8424 64.6898 55.6496C64.7593 59.1442 61.3735 60.5412 58.4711 60.5415C56.9602 60.5571 55.3862 60.3231 54.0034 59.6746C53.8714 59.6047 53.7864 59.4552 53.7921 59.303V55.9592C53.7772 55.8251 53.9211 55.7079 54.0336 55.8044C55.3884 56.6237 56.9944 57.0215 58.5617 57.0428C59.2536 57.0428 60.6249 56.9757 60.6145 55.9592C60.6145 54.9836 58.9741 54.5351 58.3202 54.2872C57.3723 53.9489 56.4736 53.4802 55.6486 52.894C54.4957 52.0716 53.7724 50.753 53.7921 49.3024C53.7853 46.012 56.902 44.5351 59.7089 44.5344C61.021 44.5235 62.4301 44.6207 63.6515 45.1536C63.8272 45.2053 63.8636 45.3903 63.8628 45.5561V48.6832C63.874 48.8773 63.6584 48.9434 63.5125 48.869Z" fill="#FC441E"/>
</svg>
