<svg width="102" height="102" viewBox="0 0 102 102" fill="none" xmlns="http://www.w3.org/2000/svg">
<circle cx="51" cy="51" r="51" fill="#FC441E"/>
<path d="M29 44.9238C29 39.35 29 36.563 30.0847 34.4341C31.0389 32.5614 32.5614 31.0389 34.4341 30.0847C36.563 29 39.35 29 44.9238 29H57.0762C62.65 29 65.437 29 67.5659 30.0847C69.4386 31.0389 70.9611 32.5614 71.9153 34.4341C73 36.563 73 39.35 73 44.9238V57.0762C73 62.65 73 65.437 71.9153 67.5659C70.9611 69.4386 69.4386 70.9611 67.5659 71.9153C65.437 73 62.65 73 57.0762 73H44.9238C39.35 73 36.563 73 34.4341 71.9153C32.5614 70.9611 31.0389 69.4386 30.0847 67.5659C29 65.437 29 62.65 29 57.0762V44.9238Z" fill="#F5F4F2"/>
<path d="M44.0733 41.8786V61.1628C44.0733 61.3648 43.9847 61.4657 43.8077 61.4656H40.2361C40.0784 61.4656 39.9997 61.3647 40 61.1628V41.8786C40 41.7173 40.0885 41.6366 40.2656 41.6364H43.8371C43.9726 41.6167 44.0925 41.7397 44.0733 41.8786Z" fill="#FC441E"/>
<path d="M54.6403 61.7682C53.2817 61.7894 51.9356 61.4999 50.6998 60.9206C48.0762 59.6752 46.9361 56.9188 46.9364 54.0788C46.9138 51.2457 48.4143 48.5463 50.8622 47.2067C52.5519 46.2467 54.5396 46.0028 56.4408 46.1774V40.2135C56.4408 40.0725 56.4999 40.0016 56.6179 40.0016H60.337C60.4386 39.9867 60.5286 40.0789 60.5141 40.1832V58.0749C60.5141 58.8131 60.5873 59.5487 60.6322 60.2848C60.6394 60.4106 60.5667 60.5349 60.455 60.5876C59.4956 60.998 58.4962 61.3024 57.4739 61.4957C56.5391 61.6727 55.5908 61.7639 54.6403 61.7682ZM56.4408 58.0143V49.7497C53.7571 49.004 51.1274 51.053 51.1278 53.8971C51.0629 56.8757 53.7187 58.8308 56.4408 58.0143Z" fill="#FC441E"/>
</svg>
