<svg width="102" height="102" viewBox="0 0 102 102" fill="none" xmlns="http://www.w3.org/2000/svg">
<circle cx="51" cy="51" r="51" fill="#FC441E"/>
<path d="M28 44.2857C28 38.5852 28 35.7349 29.1094 33.5576C30.0853 31.6424 31.6424 30.0853 33.5576 29.1094C35.7349 28 38.5852 28 44.2857 28H56.7143C62.4148 28 65.2651 28 67.4424 29.1094C69.3576 30.0853 70.9148 31.6424 71.8906 33.5576C73 35.7349 73 38.5852 73 44.2857V56.7143C73 62.4148 73 65.2651 71.8906 67.4424C70.9148 69.3576 69.3576 70.9148 67.4424 71.8906C65.2651 73 62.4148 73 56.7143 73H44.2857C38.5852 73 35.7349 73 33.5576 71.8906C31.6424 70.9148 30.0853 69.3576 29.1094 67.4424C28 65.2651 28 62.4148 28 56.7143V44.2857Z" fill="#F5F4F2"/>
<path d="M51.539 41.2329L45.9241 50.7381L51.9314 60.8316C52.0563 61.0604 51.9314 61.111 51.7503 61.111H47.4637C47.1618 61.111 46.9505 61.1001 46.8297 60.8935C46.4269 60.0885 46.0244 59.2887 45.6222 58.494C45.2194 57.6996 44.7917 56.8894 44.3393 56.0635C43.8865 55.2382 43.4387 54.4022 42.9959 53.5556C42.5931 54.3814 42.1453 55.207 41.7129 56.0325C41.28 56.8583 40.8523 57.6788 40.43 58.494C40.0074 59.3096 39.5747 60.1198 39.1319 60.9245C39.0513 61.1102 38.9102 61.1294 38.7093 61.1294H34.5736C34.4111 61.1294 34.3915 61.0072 34.4831 60.8625L40.3092 51.0477L34.634 41.2019C34.5309 41.0615 34.6196 40.9117 34.7849 40.9233H39.0413C39.2256 40.9128 39.3885 40.9824 39.4941 41.14C39.8564 41.9658 40.2589 42.7914 40.7016 43.6169C41.1441 44.4427 41.5919 45.2581 42.045 46.0629C42.4978 46.8679 42.9456 47.6832 43.328 48.5089C43.7303 47.6627 44.1378 46.8371 44.5506 46.032C44.9628 45.227 45.3855 44.4168 45.8184 43.6014C46.251 42.7863 46.6686 41.9761 47.0712 41.171C47.1247 40.9944 47.2526 40.9049 47.4335 40.9233H51.388C51.539 40.9233 51.6014 41.1294 51.539 41.2329Z" fill="#FC441E"/>
<path d="M60.2025 61.513C57.5403 61.5545 54.7517 60.4584 53.35 58.0298C52.6656 56.8639 52.3234 55.4035 52.3236 53.6487C52.3122 52.2277 52.6663 50.8287 53.35 49.5928C55.1141 46.4393 58.6681 45.2577 62.0439 45.5678V39.4684C62.0439 39.3242 62.1044 39.2516 62.2251 39.2516H66.0287C66.1326 39.2364 66.2247 39.3307 66.2099 39.4374V57.7356C66.2099 58.4906 66.2847 59.2429 66.3306 59.9958C66.338 60.1245 66.2636 60.2516 66.1494 60.3055C64.2701 61.1094 62.2367 61.5037 60.2025 61.513ZM62.0439 57.6737V49.2212C59.2868 48.4552 56.6099 50.5553 56.6102 53.4629C56.5447 56.4691 59.1361 58.546 62.0439 57.6737Z" fill="#FC441E"/>
</svg>
