<svg width="102" height="102" viewBox="0 0 102 102" fill="none" xmlns="http://www.w3.org/2000/svg">
<circle cx="51" cy="51" r="51" fill="#FC441E"/>
<path d="M50.9999 27C45.3011 27.0002 39.7883 29.0362 35.4479 32.7437C31.1076 36.4512 28.2229 41.5882 27.31 47.2356C26.3971 52.883 27.5156 58.6722 30.4654 63.5674C33.4152 68.4626 38.0037 72.1444 43.41 73.9539C44.61 74.1647 45.06 73.4419 45.06 72.8094C45.06 72.2372 45.03 70.3397 45.03 68.3218C39 69.4362 37.44 66.8461 36.96 65.4908C36.4274 64.1727 35.5831 63.0046 34.5 62.0874C33.66 61.6357 32.46 60.5213 34.47 60.4912C35.2375 60.5748 35.9736 60.8429 36.6159 61.2728C37.2583 61.7027 37.7879 62.2817 38.16 62.9608C38.4882 63.5528 38.9296 64.074 39.4588 64.4944C39.9881 64.9149 40.5947 65.2263 41.244 65.411C41.8934 65.5957 42.5726 65.6499 43.2429 65.5705C43.9131 65.4912 44.5612 65.2798 45.1499 64.9486C45.2538 63.7237 45.7975 62.5784 46.6799 61.7261C41.34 61.1237 35.76 59.0455 35.76 49.8295C35.7263 47.4349 36.6064 45.118 38.22 43.3541C37.4863 41.2729 37.5721 38.9889 38.46 36.9691C38.46 36.9691 40.4699 36.3366 45.0599 39.4388C48.987 38.3545 53.1328 38.3545 57.0599 39.4388C61.6498 36.3065 63.6598 36.9691 63.6598 36.9691C64.5478 38.9889 64.6336 41.2729 63.8998 43.3541C65.5182 45.115 66.3991 47.4339 66.3598 49.8295C66.3598 59.0756 60.7498 61.1237 55.4099 61.7261C55.9826 62.3089 56.4237 63.0086 56.7033 63.7777C56.9828 64.5469 57.0942 65.3674 57.0299 66.1835C57.0299 69.4062 56.9998 71.9963 56.9998 72.8095C56.9998 73.442 57.4498 74.1949 58.6498 73.954C64.0466 72.1297 68.6219 68.4393 71.5591 63.5416C74.4964 58.6439 75.6042 52.8577 74.685 47.2157C73.7658 41.5738 70.8794 36.4435 66.5409 32.7405C62.2024 29.0375 56.6944 27.003 50.9999 27Z" fill="#F5F4F2"/>
</svg>
