<svg width="102" height="102" viewBox="0 0 102 102" fill="none" xmlns="http://www.w3.org/2000/svg">
<circle cx="51" cy="51" r="51" fill="#FC441E"/>
<path d="M59.5026 31.6752C59.5026 30.3567 58.0265 30.3567 57.3704 30.5215C58.2889 29.7964 59.366 29.9722 59.7487 30.1919L68.6187 34.5412C69.4639 34.9556 70 35.8179 70 36.7629V65.3747C70 66.3323 69.4496 67.2037 68.5873 67.6115L60.2407 71.558C59.6667 71.8052 58.4201 72.415 57.3704 71.558C58.6825 71.8052 59.3933 70.8713 59.5026 70.2396V31.6752Z" fill="#F5F4F2"/>
<path d="M57.4768 30.4977C58.1732 30.3601 59.5026 30.424 59.5026 31.6752L59.5026 41.5236L32.6104 61.8678C32.1403 62.2234 31.4788 62.1644 31.0784 61.7312L28.3068 58.7321C27.8726 58.2622 27.903 57.5268 28.3744 57.0947L57.3704 30.5215L57.4768 30.4977Z" fill="#F5F4F2"/>
<path d="M59.5026 60.5559L32.6104 40.2117C32.1403 39.8561 31.4788 39.9151 31.0784 40.3483L28.3068 43.3474C27.8726 43.8173 27.903 44.5527 28.3744 44.9848L57.3704 71.558C58.6825 71.8052 59.3933 70.8713 59.5026 70.2396L59.5026 60.5559Z" fill="#F5F4F2"/>
</svg>
