<svg width="102" height="102" viewBox="0 0 102 102" fill="none" xmlns="http://www.w3.org/2000/svg">
<circle cx="51" cy="51" r="51" fill="#FC441E"/>
<path d="M29 44.9238C29 39.35 29 36.563 30.0847 34.4341C31.0389 32.5614 32.5614 31.0389 34.4341 30.0847C36.563 29 39.35 29 44.9238 29H57.0762C62.65 29 65.437 29 67.5659 30.0847C69.4386 31.0389 70.9611 32.5614 71.9153 34.4341C73 36.563 73 39.35 73 44.9238V57.0762C73 62.65 73 65.437 71.9153 67.5659C70.9611 69.4386 69.4386 70.9611 67.5659 71.9153C65.437 73 62.65 73 57.0762 73H44.9238C39.35 73 36.563 73 34.4341 71.9153C32.5614 70.9611 31.0389 69.4386 30.0847 67.5659C29 65.437 29 62.65 29 57.0762V44.9238Z" fill="#F5F4F2"/>
<path d="M47.5261 56.6003H40.7078L39.3205 61.0287C39.282 61.1929 39.1308 61.3092 38.9663 61.3012H35.5129C35.3159 61.3012 35.247 61.1902 35.3062 60.9682L41.2095 43.6027C41.2686 43.4211 41.3276 43.2435 41.3867 43.0113C41.4639 42.6073 41.5034 42.1968 41.5047 41.7852C41.4878 41.6636 41.5928 41.5559 41.7114 41.5733H46.4044C46.5419 41.5733 46.6207 41.6237 46.6406 41.7247L53.3409 60.9984C53.3999 61.2004 53.3409 61.3013 53.1638 61.3012H49.3266C49.192 61.3165 49.0635 61.2242 49.0314 61.0893L47.5261 56.6003ZM41.7703 52.8664H46.434C45.6678 50.2481 44.803 47.6643 44.1022 45.0256C43.308 47.7627 42.5747 50.3012 41.7703 52.8664Z" fill="#FC441E"/>
<path d="M58.3241 54.8904C58.5955 57.139 60.4837 58.211 62.5746 58.1653C63.7535 58.1421 65.0136 57.9591 66.1152 57.5133C66.2134 57.4329 66.2628 57.483 66.2628 57.6647V60.5406C66.2721 60.6903 66.2096 60.8239 66.0856 60.9039C64.7164 61.526 63.1446 61.7135 61.6595 61.6897C57.2315 61.6897 54.1906 58.5697 54.1918 54.0305C54.1803 49.7288 56.9709 46.0998 61.3053 46.0998C64.9794 46.0045 67.5231 48.9462 67.5333 52.6076C67.5333 53.2745 67.4961 53.9437 67.4153 54.6057C67.3996 54.7421 67.2835 54.8479 67.1496 54.8479C64.2152 54.8479 61.2665 54.8904 58.3241 54.8904ZM58.3241 52.1325C59.9595 52.1325 61.6043 52.1903 63.2386 52.1174C63.4843 52.0922 63.6667 52.0457 63.6667 51.7902C63.6326 50.4328 62.487 49.3164 61.1578 49.3684C59.5516 49.2688 58.5238 50.6245 58.3241 52.1325Z" fill="#FC441E"/>
</svg>
