<svg width="102" height="102" viewBox="0 0 102 102" fill="none" xmlns="http://www.w3.org/2000/svg">
<circle cx="51" cy="51" r="51" fill="#FC441E"/>
<path d="M29 29H73V73H29V29Z" fill="#F5F4F2"/>
<path d="M55.7143 65.5949L58.9538 63.4513C59.2077 64.2489 60.8154 66.1432 62.8462 66.1432C64.8769 66.1432 65.8198 65.0341 65.8198 64.2988C65.8198 62.2949 63.7461 61.5883 62.7502 61.249C62.5878 61.1937 62.4541 61.1481 62.3626 61.1083C62.3158 61.0879 62.2449 61.0608 62.1538 61.026C61.0461 60.6028 56.9593 59.0414 56.9593 54.5155C56.9593 49.5304 61.7703 48.9571 62.8582 48.9571C63.57 48.9571 66.9923 49.0444 68.6967 52.2473L65.5538 54.4407C64.8648 53.0449 63.7201 52.5838 63.0154 52.5838C61.2747 52.5838 60.9121 53.8599 60.9121 54.4407C60.9121 56.0706 62.8033 56.8012 64.4001 57.418C64.8179 57.5794 65.2155 57.733 65.5538 57.8929C67.2945 58.7155 69.8571 60.0614 69.8571 64.2988C69.8571 66.4211 68.077 69.8571 63.5956 69.8571C57.5758 69.8571 55.9802 66.2429 55.7143 65.5949Z" fill="#FC441E"/>
<path d="M40 66.0206L43.3765 63.878C43.6411 64.6753 44.6691 66.1451 46.1608 66.1451C47.6525 66.1451 48.416 64.613 48.416 63.878V49.4286H52.5686V63.878C52.6358 65.8711 51.5305 69.8571 46.6522 69.8571C42.167 69.8571 40.3024 67.1915 40 66.0206Z" fill="#FC441E"/>
</svg>
