<svg width="102" height="102" viewBox="0 0 102 102" fill="none" xmlns="http://www.w3.org/2000/svg">
<circle cx="51" cy="51" r="51" fill="#FC441E"/>
<path fill-rule="evenodd" clip-rule="evenodd" d="M50.5 50.5C50.5 46.1738 53.9698 42.6667 58.25 42.6667C62.5302 42.6667 66 46.1738 66 50.5C66 54.8262 62.5302 58.3333 58.25 58.3333C53.9698 58.3333 50.5 54.8262 50.5 50.5Z" fill="#F5F4F2"/>
<path fill-rule="evenodd" clip-rule="evenodd" d="M35 66.1667C35 61.8404 38.4698 58.3333 42.75 58.3333H50.5V66.1667C50.5 70.4929 47.0302 74 42.75 74C38.4698 74 35 70.4929 35 66.1667Z" fill="#F5F4F2"/>
<path fill-rule="evenodd" clip-rule="evenodd" d="M50.5 27V42.6667H58.25C62.5302 42.6667 66 39.1596 66 34.8333C66 30.5071 62.5302 27 58.25 27H50.5Z" fill="#F5F4F2"/>
<path fill-rule="evenodd" clip-rule="evenodd" d="M35 34.8333C35 39.1596 38.4698 42.6667 42.75 42.6667H50.5V27H42.75C38.4698 27 35 30.5071 35 34.8333Z" fill="#F5F4F2"/>
<path fill-rule="evenodd" clip-rule="evenodd" d="M35 50.5C35 54.8262 38.4698 58.3333 42.75 58.3333H50.5V42.6667H42.75C38.4698 42.6667 35 46.1738 35 50.5Z" fill="#F5F4F2"/>
<path d="M50.375 27.125V42.5417H42.75C38.5401 42.5417 35.125 39.0918 35.125 34.8333C35.125 30.5749 38.5401 27.125 42.75 27.125H50.375ZM42.75 42.7917H50.375V50.5V58.2083H42.75C38.5401 58.2083 35.125 54.7585 35.125 50.5C35.125 46.2415 38.5401 42.7917 42.75 42.7917ZM50.625 50.5C50.625 46.2415 54.0401 42.7917 58.25 42.7917C62.4599 42.7917 65.875 46.2415 65.875 50.5C65.875 54.7585 62.4599 58.2083 58.25 58.2083C54.0401 58.2083 50.625 54.7585 50.625 50.5ZM42.75 58.4583H50.375V66.1667C50.375 70.4251 46.9599 73.875 42.75 73.875C38.5401 73.875 35.125 70.4251 35.125 66.1667C35.125 61.9082 38.5401 58.4583 42.75 58.4583ZM50.625 42.5417V27.125H58.25C62.4599 27.125 65.875 30.5749 65.875 34.8333C65.875 39.0918 62.4599 42.5417 58.25 42.5417H50.625Z" stroke="#FC441E" stroke-width="0.25"/>
</svg>
