<svg width="102" height="102" viewBox="0 0 102 102" fill="none" xmlns="http://www.w3.org/2000/svg">
<circle cx="51" cy="51" r="51" fill="#FC441E"/>
<path d="M24.1916 54.3768C22.6028 52.788 22.6028 50.212 24.1916 48.6232L48.6232 24.1916C50.212 22.6028 52.788 22.6028 54.3768 24.1916L78.8084 48.6232C80.3972 50.212 80.3972 52.788 78.8084 54.3768L54.3768 78.8084C52.788 80.3972 50.212 80.3972 48.6232 78.8084L24.1916 54.3768Z" fill="#F5F4F2"/>
<path d="M43.6611 29.2326L41.187 31.7067L47.5769 38.0966C47.3184 38.6512 47.1741 39.2697 47.1741 39.9219C47.1741 41.7735 48.3375 43.3535 49.9732 43.9706V59.6019C48.3375 60.2191 47.1741 61.799 47.1741 63.6507C47.1741 66.0398 49.1109 67.9766 51.5 67.9766C53.8891 67.9766 55.8259 66.0398 55.8259 63.6507C55.8259 61.9719 54.8696 60.5165 53.4721 59.7994V43.9918L59.5803 50.1C59.3344 50.6434 59.1975 51.2465 59.1975 51.8817C59.1975 54.2708 61.1343 56.2076 63.5234 56.2076C65.9126 56.2076 67.8493 54.2708 67.8493 51.8817C67.8493 49.4926 65.9126 47.5558 63.5234 47.5558C63.0592 47.5558 62.612 47.6289 62.1928 47.7643L55.6327 41.2042C55.7583 40.799 55.8259 40.3684 55.8259 39.9219C55.8259 37.5328 53.8891 35.596 51.5 35.596C51.0535 35.596 50.6228 35.6636 50.2177 35.7892L43.6611 29.2326Z" fill="#FC441E"/>
</svg>
