<svg width="102" height="102" viewBox="0 0 102 102" fill="none" xmlns="http://www.w3.org/2000/svg">
<circle cx="51" cy="51" r="51" fill="#FC441E"/>
<path d="M28 43.2857C28 37.5852 28 34.7349 29.1094 32.5576C30.0853 30.6424 31.6424 29.0853 33.5576 28.1094C35.7349 27 38.5852 27 44.2857 27H56.7143C62.4148 27 65.2651 27 67.4424 28.1094C69.3576 29.0853 70.9148 30.6424 71.8906 32.5576C73 34.7349 73 37.5852 73 43.2857V55.7143C73 61.4148 73 64.2651 71.8906 66.4424C70.9148 68.3576 69.3576 69.9148 67.4424 70.8906C65.2651 72 62.4148 72 56.7143 72H44.2857C38.5852 72 35.7349 72 33.5576 70.8906C31.6424 69.9148 30.0853 68.3576 29.1094 66.4424C28 64.2651 28 61.4148 28 55.7143V43.2857Z" fill="#F5F4F2"/>
<path d="M49.8064 55.2797H42.8331L41.4143 59.8001C41.3749 59.968 41.2202 60.087 41.052 60.0788H37.5201C37.3186 60.0788 37.2482 59.9652 37.3088 59.7382L43.3462 41.9043C43.4066 41.7186 43.467 41.507 43.5274 41.2696C43.6064 40.8565 43.6468 40.4367 43.6481 40.0157C43.6308 39.8913 43.7401 39.7815 43.8595 39.7989H48.6592C48.7998 39.7989 48.8803 39.8506 48.9007 39.9538L55.7534 59.7691C55.8137 59.9757 55.7533 60.0789 55.5722 60.0788H51.6478C51.5101 60.0944 51.3787 60 51.3459 59.862L49.8064 55.2797ZM43.9198 51.3786H48.6894C47.9058 48.7008 47.0214 46.0582 46.3047 43.3595C45.5313 46.0627 44.6876 48.7551 43.9198 51.3786Z" fill="#FC441E"/>
<path d="M59.8283 43.0808C59.5204 43.0935 59.2133 43.0394 58.9272 42.922C58.6411 42.8046 58.3824 42.6266 58.1679 42.3996C57.9541 42.1628 57.788 41.885 57.6792 41.5821C57.5704 41.2793 57.521 40.9573 57.5339 40.6348C57.523 40.3155 57.5778 39.9974 57.6948 39.7013C57.8119 39.4052 57.9885 39.1378 58.2132 38.9165C58.4357 38.6974 58.6983 38.5258 58.9859 38.4115C59.2735 38.2973 59.5803 38.2426 59.8886 38.2508C60.6131 38.2508 61.1817 38.4727 61.5942 38.9165C61.8025 39.1471 61.9643 39.4176 62.0705 39.7124C62.1767 40.0073 62.2251 40.3207 62.213 40.6348C62.2256 40.9586 62.1747 41.2816 62.0632 41.5848C61.9517 41.888 61.7819 42.1651 61.564 42.3996C61.3362 42.6299 61.0644 42.8094 60.7657 42.9266C60.4669 43.0438 60.1478 43.0963 59.8283 43.0808ZM57.7453 59.769V44.9694C57.7453 44.7837 57.8255 44.6908 57.9868 44.6908H61.6999C61.8607 44.6908 61.9412 44.7836 61.9414 44.9694V59.769C61.9414 59.9756 61.8609 60.0788 61.6999 60.0787H58.017C57.8359 60.0787 57.7453 59.9754 57.7453 59.769Z" fill="#FC441E"/>
</svg>
