<?xml version="1.0" encoding="UTF-8"?>
<svg id="Capa_1" data-name="Capa 1" xmlns="http://www.w3.org/2000/svg" viewBox="0 0 227.43 161.62">
  <defs>
    <style>
      .cls-1 {
        fill: #fc441e;
      }

      .cls-2 {
        fill: #f5f4f2;
      }
    </style>
  </defs>
  <path class="cls-1" d="M1.72,81C1.72,37.37,37.09,2,80.72,2H225.72V81c0,43.63-35.37,79-79,79H1.72V81Z"/>
  <ellipse class="cls-2" cx="113.72" cy="80.79" rx="121.18" ry="59.58" transform="translate(-24.45 61.62) rotate(-27.49)"/>
  <path class="cls-1" d="M115.54,91.87l-.39-.32c-.14-.1-.3-.18-.46-.24l-.46-.21c-.42-.09-.85-.07-1.26,.05-.41,.12-.78,.35-1.08,.66-.23,.26-.41,.55-.54,.87-.19,.48-.25,1.01-.15,1.53,.1,.51,.34,.99,.7,1.36,.36,.37,.81,.62,1.31,.73,.5,.1,1.01,.06,1.48-.14,.31-.15,.59-.35,.85-.58,.36-.37,.6-.85,.69-1.36,.1-.51,.04-1.05-.15-1.53-.13-.31-.31-.58-.54-.82Zm8.46-37.87h-20.57c-2.05,0-4.01,.84-5.45,2.33-1.45,1.49-2.26,3.51-2.26,5.62v37.1c0,2.11,.81,4.13,2.26,5.62,1.45,1.49,3.41,2.33,5.45,2.33h20.57c2.05,0,4.01-.84,5.46-2.33,1.45-1.49,2.26-3.51,2.26-5.62V61.95c0-2.11-.81-4.13-2.26-5.62-1.45-1.49-3.41-2.33-5.46-2.33Zm2.57,45.05c0,.7-.27,1.38-.75,1.87-.48,.5-1.14,.78-1.82,.78h-20.57c-.68,0-1.34-.28-1.82-.78-.48-.5-.75-1.17-.75-1.87V61.95c0-.7,.27-1.38,.75-1.87,.48-.5,1.14-.78,1.82-.78h20.57c.68,0,1.34,.28,1.82,.78,.48,.5,.75,1.17,.75,1.87v37.1Z"/>
</svg>