<svg width="16" height="15" viewBox="0 0 16 15" fill="none" xmlns="http://www.w3.org/2000/svg">
<path d="M0 5.42857C0 3.52839 0 2.5783 0.394453 1.85253C0.741423 1.21413 1.29507 0.695084 1.97603 0.369799C2.75019 0 3.76362 0 5.79048 0H10.2095C12.2364 0 13.2498 0 14.024 0.369799C14.7049 0.695084 15.2586 1.21413 15.6055 1.85253C16 2.5783 16 3.52839 16 5.42857V9.57143C16 11.4716 16 12.4217 15.6055 13.1475C15.2586 13.7859 14.7049 14.3049 14.024 14.6302C13.2498 15 12.2364 15 10.2095 15H5.79048C3.76362 15 2.75019 15 1.97603 14.6302C1.29507 14.3049 0.741423 13.7859 0.394453 13.1475C0 12.4217 0 11.4716 0 9.57143V5.42857Z" fill="#FC441E"/>
<path d="M8.36942 4.41097L6.373 7.57937L8.50894 10.9439C8.55334 11.0201 8.50894 11.037 8.44455 11.037H6.92043C6.81307 11.037 6.73794 11.0334 6.69501 10.9645C6.55178 10.6962 6.40867 10.4296 6.26568 10.1647C6.12245 9.89987 5.9704 9.62981 5.80952 9.35449C5.64852 9.0794 5.48931 8.80074 5.33189 8.51853C5.18866 8.7938 5.02943 9.06901 4.8757 9.34418C4.72176 9.61945 4.56971 9.89294 4.41955 10.1647C4.26929 10.4365 4.11545 10.7066 3.95803 10.9748C3.92935 11.0367 3.87919 11.0431 3.80773 11.0431H2.33729C2.27952 11.0431 2.27254 11.0024 2.3051 10.9542L4.37661 7.68256L2.35874 4.40064C2.32209 4.35382 2.35364 4.30391 2.41242 4.30776H3.9258C3.99133 4.30428 4.04924 4.32747 4.0868 4.38001C4.21561 4.65527 4.35872 4.93048 4.51613 5.20565C4.67346 5.48092 4.83267 5.75269 4.99377 6.02097C5.15477 6.2893 5.31399 6.56107 5.44995 6.83629C5.59299 6.55424 5.73789 6.27903 5.88465 6.01065C6.03124 5.74232 6.1815 5.47226 6.33543 5.20048C6.48924 4.92877 6.63772 4.65871 6.78088 4.39033C6.7999 4.33146 6.84536 4.30162 6.90968 4.30776H8.31574C8.36942 4.30776 8.39162 4.37646 8.36942 4.41097Z" fill="#F5F4F2"/>
<path d="M11.4498 11.171C10.5032 11.1848 9.51172 10.8195 9.01333 10.0099C8.76997 9.62129 8.64833 9.13451 8.64839 8.54958C8.64435 8.07591 8.77023 7.60958 9.01333 7.19759C9.64058 6.14642 10.9042 5.75258 12.1045 5.85592V3.82278C12.1045 3.77472 12.126 3.75054 12.1689 3.75054H13.5213C13.5583 3.74546 13.591 3.77691 13.5857 3.81245V9.91188C13.5857 10.1635 13.6123 10.4143 13.6287 10.6653C13.6313 10.7082 13.6048 10.7505 13.5642 10.7685C12.896 11.0365 12.173 11.1679 11.4498 11.171ZM12.1045 9.89124V7.07375C11.1242 6.81839 10.1724 7.51843 10.1725 8.48765C10.1492 9.4897 11.0706 10.182 12.1045 9.89124Z" fill="#F5F4F2"/>
</svg>
