<svg width="16" height="15" viewBox="0 0 16 15" fill="none" xmlns="http://www.w3.org/2000/svg">
<path d="M0 5.42857C0 3.52839 0 2.5783 0.394453 1.85253C0.741423 1.21413 1.29507 0.695084 1.97603 0.369799C2.75019 0 3.76362 0 5.79048 0H10.2095C12.2364 0 13.2498 0 14.024 0.369799C14.7049 0.695084 15.2586 1.21413 15.6055 1.85253C16 2.5783 16 3.52839 16 5.42857V9.57143C16 11.4716 16 12.4217 15.6055 13.1475C15.2586 13.7859 14.7049 14.3049 14.024 14.6302C13.2498 15 12.2364 15 10.2095 15H5.79048C3.76362 15 2.75019 15 1.97603 14.6302C1.29507 14.3049 0.741423 13.7859 0.394453 13.1475C0 12.4217 0 11.4716 0 9.57143V5.42857Z" fill="#FC441E"/>
<path d="M6.73676 9.4092H4.25737L3.75291 10.9189C3.7389 10.9749 3.68392 11.0145 3.6241 11.0118H2.36831C2.2967 11.0118 2.27165 10.9739 2.29318 10.8982L4.43982 4.97819C4.46131 4.91628 4.48276 4.85575 4.50424 4.77656C4.53232 4.63887 4.5467 4.49891 4.54718 4.3586C4.54103 4.31714 4.57919 4.28043 4.62231 4.28634H6.32889C6.37889 4.28634 6.40751 4.30355 6.41476 4.33796L8.85125 10.9086C8.8727 10.9774 8.85123 11.0118 8.78683 11.0118H7.39148C7.34254 11.017 7.29581 10.9855 7.28416 10.9395L6.73676 9.4092ZM4.64376 8.13628H6.33963C6.06101 7.24368 5.74656 6.36281 5.49171 5.46327C5.20291 6.39639 4.93624 7.26177 4.64376 8.13628Z" fill="#F5F4F2"/>
<path d="M10.6633 8.82626C10.762 9.59283 11.4486 9.95829 12.2089 9.94272C12.6376 9.93481 13.0958 9.87243 13.4964 9.72044C13.5321 9.69303 13.5501 9.71012 13.5501 9.77205V10.7525C13.5535 10.8035 13.5308 10.8491 13.4857 10.8763C12.9878 11.0884 12.4162 11.1523 11.8762 11.1442C10.266 11.1442 9.1602 10.0806 9.16066 8.53312C9.15646 7.06665 10.1712 5.82947 11.7474 5.82947C13.0834 5.797 14.0084 6.79984 14.0121 8.04806C14.0121 8.27542 13.9986 8.50354 13.9692 8.72921C13.9635 8.77571 13.9213 8.8118 13.8726 8.81178C12.8055 8.81178 11.7333 8.82626 10.6633 8.82626ZM10.6633 7.88609C11.258 7.88609 11.8561 7.9058 12.4504 7.88093C12.5397 7.87235 12.6061 7.85649 12.6061 7.7694C12.5937 7.30664 12.1771 6.92606 11.6937 6.94376C11.1097 6.90982 10.7359 7.37201 10.6633 7.88609Z" fill="#F5F4F2"/>
</svg>
