<svg width="9" height="15" viewBox="0 0 9 15" fill="none" xmlns="http://www.w3.org/2000/svg">
<path d="M2.25 10.125H4.375V12.5C4.375 13.8244 3.41154 14.875 2.25 14.875C1.08846 14.875 0.125 13.8244 0.125 12.5C0.125 11.1756 1.08846 10.125 2.25 10.125ZM4.375 9.875H2.25C1.08846 9.875 0.125 8.82439 0.125 7.5C0.125 6.17561 1.08846 5.125 2.25 5.125H4.375V7.5V9.875ZM2.25 0.125H4.375V4.875H2.25C1.08846 4.875 0.125 3.82439 0.125 2.5C0.125 1.17561 1.08846 0.125 2.25 0.125ZM4.625 4.875V0.125H6.75C7.91154 0.125 8.875 1.17561 8.875 2.5C8.875 3.82439 7.91154 4.875 6.75 4.875H4.625ZM4.625 7.5C4.625 6.17561 5.58846 5.125 6.75 5.125C7.91154 5.125 8.875 6.17561 8.875 7.5C8.875 8.82439 7.91154 9.875 6.75 9.875C5.58846 9.875 4.625 8.82439 4.625 7.5Z" fill="#FC441E" stroke="#F5F4F2" stroke-width="0.25"/>
</svg>
