<svg width="17" height="16" viewBox="0 0 17 16" fill="none" xmlns="http://www.w3.org/2000/svg">
<path d="M8.49996 0C6.48163 8.07646e-05 4.52918 0.693191 2.99197 1.95531C1.45476 3.21743 0.433096 4.9662 0.109786 6.88872C-0.213525 8.81123 0.182617 10.782 1.22733 12.4485C2.27204 14.1149 3.89715 15.3683 5.81187 15.9843C6.23687 16.0561 6.39624 15.81 6.39624 15.5947C6.39624 15.3999 6.38561 14.7539 6.38561 14.067C4.24999 14.4464 3.6975 13.5646 3.5275 13.1033C3.33886 12.6545 3.03984 12.2569 2.65625 11.9447C2.35876 11.7909 1.93376 11.4115 2.64562 11.4013C2.91744 11.4297 3.17814 11.521 3.40564 11.6673C3.63313 11.8137 3.82072 12.0108 3.9525 12.242C4.06875 12.4435 4.22507 12.6209 4.4125 12.7641C4.59994 12.9072 4.81479 13.0132 5.04477 13.0761C5.27474 13.1389 5.5153 13.1574 5.75268 13.1304C5.99005 13.1034 6.21957 13.0314 6.42809 12.9187C6.46488 12.5017 6.65747 12.1118 6.96997 11.8216C5.07874 11.6166 3.1025 10.9091 3.1025 7.77174C3.09056 6.95655 3.40228 6.16784 3.97375 5.56736C3.71389 4.85886 3.74429 4.08133 4.05874 3.39374C4.05874 3.39374 4.77059 3.17842 6.39623 4.23448C7.78706 3.86535 9.25536 3.86535 10.6462 4.23448C12.2718 3.16818 12.9837 3.39374 12.9837 3.39374C13.2982 4.08132 13.3286 4.85887 13.0687 5.56736C13.6419 6.16681 13.9539 6.95621 13.9399 7.77174C13.9399 10.9194 11.953 11.6166 10.0618 11.8216C10.2647 12.02 10.4209 12.2582 10.5199 12.5201C10.6189 12.7819 10.6584 13.0612 10.6356 13.3391C10.6356 14.4362 10.6249 15.3179 10.6249 15.5947C10.6249 15.81 10.7843 16.0664 11.2093 15.9843C13.1207 15.3633 14.7411 14.107 15.7814 12.4397C16.8216 10.7724 17.214 8.80261 16.8885 6.88196C16.5629 4.9613 15.5406 3.2148 14.0041 1.95422C12.4675 0.693631 10.5168 0.00101291 8.49996 0V0Z" fill="#FC441E"/>
</svg>
