<svg width="16" height="15" viewBox="0 0 16 15" fill="none" xmlns="http://www.w3.org/2000/svg">
<path d="M0 5.42857C0 3.52839 0 2.5783 0.394453 1.85253C0.741423 1.21413 1.29507 0.695084 1.97603 0.369799C2.75019 0 3.76362 0 5.79048 0H10.2095C12.2364 0 13.2498 0 14.024 0.369799C14.7049 0.695084 15.2586 1.21413 15.6055 1.85253C16 2.5783 16 3.52839 16 5.42857V9.57143C16 11.4716 16 12.4217 15.6055 13.1475C15.2586 13.7859 14.7049 14.3049 14.024 14.6302C13.2498 15 12.2364 15 10.2095 15H5.79048C3.76362 15 2.75019 15 1.97603 14.6302C1.29507 14.3049 0.741423 13.7859 0.394453 13.1475C0 12.4217 0 11.4716 0 9.57143V5.42857Z" fill="#FC441E"/>
<path d="M7.75337 9.42657H5.27398L4.76951 10.9334C4.75551 10.9893 4.70052 11.029 4.64071 11.0263H3.38491C3.3133 11.0263 3.28825 10.9884 3.30978 10.9127L5.45643 4.96811C5.47791 4.9062 5.49939 4.83567 5.52085 4.75654C5.54893 4.61884 5.5633 4.47889 5.56378 4.33857C5.55763 4.29712 5.59649 4.2605 5.63892 4.26631H7.34549C7.39549 4.26631 7.42412 4.28352 7.43136 4.31793L9.86786 10.923C9.88931 10.9919 9.86784 11.0263 9.80344 11.0263H8.40809C8.35915 11.0315 8.31242 11 8.30077 10.954L7.75337 9.42657ZM5.66037 8.12619H7.35624C7.07761 7.2336 6.76317 6.35273 6.50832 5.45318C6.23335 6.35425 5.93335 7.25168 5.66037 8.12619Z" fill="#F5F4F2"/>
<path d="M11.3167 5.36026C11.2072 5.36449 11.0981 5.34645 10.9963 5.30732C10.8946 5.2682 10.8026 5.20887 10.7264 5.13321C10.6503 5.05427 10.5913 4.96167 10.5526 4.86071C10.5139 4.75975 10.4964 4.65244 10.501 4.54494C10.4971 4.43851 10.5166 4.33248 10.5582 4.23378C10.5998 4.13508 10.6626 4.04593 10.7425 3.97215C10.8216 3.89914 10.915 3.84193 11.0172 3.80385C11.1195 3.76576 11.2285 3.74755 11.3382 3.75026C11.5958 3.75026 11.7979 3.82423 11.9446 3.97215C12.0186 4.04903 12.0762 4.13919 12.1139 4.23748C12.1517 4.33576 12.1689 4.44025 12.1646 4.54494C12.1691 4.65286 12.151 4.76055 12.1114 4.8616C12.0717 4.96266 12.0114 5.05502 11.9339 5.13321C11.8529 5.20998 11.7562 5.26978 11.65 5.30886C11.5438 5.34794 11.4303 5.36544 11.3167 5.36026ZM10.5761 10.923V5.9898C10.5761 5.92789 10.6046 5.89692 10.662 5.89692H11.9822C12.0394 5.89692 12.068 5.92788 12.068 5.9898V10.923C12.068 10.9919 12.0394 11.0263 11.9822 11.0262H10.6727C10.6083 11.0262 10.5761 10.9918 10.5761 10.923Z" fill="#F5F4F2"/>
</svg>
