<svg width="16" height="15" viewBox="0 0 16 15" fill="none" xmlns="http://www.w3.org/2000/svg">
<path d="M0 5.42857C0 3.52839 0 2.5783 0.394453 1.85253C0.741423 1.21413 1.29507 0.695084 1.97603 0.369799C2.75019 0 3.76362 0 5.79048 0H10.2095C12.2364 0 13.2498 0 14.024 0.369799C14.7049 0.695084 15.2586 1.21413 15.6055 1.85253C16 2.5783 16 3.52839 16 5.42857V9.57143C16 11.4716 16 12.4217 15.6055 13.1475C15.2586 13.7859 14.7049 14.3049 14.024 14.6302C13.2498 15 12.2364 15 10.2095 15H5.79048C3.76362 15 2.75019 15 1.97603 14.6302C1.29507 14.3049 0.741423 13.7859 0.394453 13.1475C0 12.4217 0 11.4716 0 9.57143V5.42857Z" fill="#FC441E"/>
<path d="M5.48119 4.39045V10.9646C5.48119 11.0335 5.44899 11.0679 5.38461 11.0678H4.08584C4.02852 11.0678 3.9999 11.0334 4 10.9646V4.39045C4 4.33545 4.03219 4.30793 4.09658 4.30788H5.39532C5.44459 4.30115 5.48819 4.34307 5.48119 4.39045Z" fill="#F5F4F2"/>
<path d="M9.32374 11.171C8.82971 11.1782 8.34021 11.0795 7.89083 10.882C6.93679 10.4574 6.52223 9.51778 6.52234 8.54958C6.51411 7.58376 7.05974 6.6635 7.94988 6.20682C8.56434 5.87954 9.28712 5.7964 9.97846 5.85593V3.82278C9.97846 3.77472 9.99995 3.75054 10.0429 3.75054H11.3953C11.4322 3.74546 11.4649 3.77691 11.4597 3.81245V9.91188C11.4597 10.1635 11.4863 10.4143 11.5026 10.6653C11.5052 10.7082 11.4788 10.7505 11.4382 10.7685C11.0893 10.9084 10.7259 11.0122 10.3541 11.0781C10.0142 11.1384 9.6694 11.1695 9.32374 11.171ZM9.97846 9.89124V7.07375C9.00257 6.81955 8.04634 7.51806 8.04647 8.48765C8.02287 9.50309 8.98862 10.1696 9.97846 9.89124Z" fill="#F5F4F2"/>
</svg>
