<svg width="16" height="15" viewBox="0 0 16 15" fill="none" xmlns="http://www.w3.org/2000/svg">
<path d="M0 0H16V15H0V0Z" fill="#FC441E"/>
<path d="M9.71429 12.4755L10.8923 11.7448C10.9846 12.0167 11.5692 12.6625 12.3077 12.6625C13.0462 12.6625 13.389 12.2843 13.389 12.0337C13.389 11.3505 12.635 11.1097 12.2728 10.994C12.2137 10.9751 12.1651 10.9596 12.1319 10.946C12.1148 10.939 12.089 10.9298 12.0559 10.918C11.6531 10.7737 10.167 10.2414 10.167 8.69847C10.167 6.999 11.9165 6.80357 12.3121 6.80357C12.5709 6.80357 13.8154 6.83331 14.4352 7.92521L13.2923 8.67298C13.0418 8.19713 12.6255 8.03993 12.3692 8.03993C11.7363 8.03993 11.6044 8.47497 11.6044 8.67298C11.6044 9.22863 12.2921 9.47768 12.8728 9.68797C13.0247 9.74298 13.1693 9.79534 13.2923 9.84985C13.9253 10.1303 14.8571 10.5891 14.8571 12.0337C14.8571 12.7572 14.2098 13.9286 12.5802 13.9286C10.3912 13.9286 9.81099 12.6965 9.71429 12.4755Z" fill="#F5F4F2"/>
<path d="M4 12.6206L5.22781 11.8902C5.32402 12.162 5.69787 12.6631 6.2403 12.6631C6.78274 12.6631 7.06037 12.1408 7.06037 11.8902V6.96429H8.5704V11.8902C8.59483 12.5697 8.19289 13.9286 6.41898 13.9286C4.788 13.9286 4.10995 13.0198 4 12.6206Z" fill="#F5F4F2"/>
</svg>
