<svg width="16" height="15" viewBox="0 0 16 15" fill="none" xmlns="http://www.w3.org/2000/svg">
<path d="M0 5.42857C0 3.52839 0 2.5783 0.394453 1.85253C0.741423 1.21413 1.29507 0.695084 1.97603 0.369799C2.75019 0 3.76362 0 5.79048 0H10.2095C12.2364 0 13.2498 0 14.024 0.369799C14.7049 0.695084 15.2586 1.21413 15.6055 1.85253C16 2.5783 16 3.52839 16 5.42857V9.57143C16 11.4716 16 12.4217 15.6055 13.1475C15.2586 13.7859 14.7049 14.3049 14.024 14.6302C13.2498 15 12.2364 15 10.2095 15H5.79048C3.76362 15 2.75019 15 1.97603 14.6302C1.29507 14.3049 0.741423 13.7859 0.394453 13.1475C0 12.4217 0 11.4716 0 9.57143V5.42857Z" fill="#FC441E"/>
<path d="M3.42857 10.9908V4.39469C3.42857 4.34982 3.44857 4.32418 3.49524 4.32418C4.18417 4.32418 4.87279 4.28571 5.5619 4.28571C6.68009 4.28571 7.89085 4.64416 8.31524 5.74084C8.41524 6.01007 8.46857 6.28571 8.46857 6.57418C8.46857 7.12546 8.33524 7.58059 8.06857 7.93956C7.32366 8.94232 6.03257 8.92674 4.87524 8.92674V10.9844C4.88429 11.0454 4.82891 11.0742 4.77524 11.0742H3.50857C3.45524 11.0742 3.42857 11.0485 3.42857 10.9908ZM4.8819 5.56136V7.7152C5.34079 7.74672 5.82099 7.75014 6.2619 7.61264C6.74866 7.481 7.01524 7.08598 7.01524 6.61264C7.02877 6.2093 6.79433 5.8223 6.39524 5.67674C5.95964 5.50694 5.35212 5.49677 4.8819 5.56136Z" fill="#F5F4F2"/>
<path d="M12.6267 7.28967C12.4249 7.19001 12.2101 7.1171 11.988 7.07293C11.7026 7.00997 10.577 6.78948 10.5766 7.34126C10.5866 7.64932 11.1082 7.80024 11.3386 7.88825C12.1477 8.14865 13.0632 8.61413 13.0453 9.54986C13.07 10.7147 11.8661 11.1804 10.8342 11.1805C10.297 11.1857 9.7373 11.1077 9.24564 10.8915C9.19871 10.8682 9.1685 10.8184 9.17051 10.7677V9.65305C9.16522 9.60837 9.21638 9.56931 9.25638 9.60146C9.73811 9.87458 10.3091 10.0072 10.8664 10.0143C11.1124 10.0143 11.6 9.99191 11.5963 9.65305C11.5963 9.32787 11.013 9.17836 10.7805 9.09574C10.4435 8.98295 10.1239 8.82672 9.83061 8.63133C9.42068 8.3572 9.16351 7.91768 9.17051 7.43415C9.16811 6.33733 10.2763 5.84502 11.2743 5.84479C11.7408 5.84118 12.2418 5.87357 12.6761 6.0512C12.7386 6.06844 12.7515 6.1301 12.7512 6.18536V7.22774C12.7552 7.29244 12.6785 7.31447 12.6267 7.28967Z" fill="#F5F4F2"/>
</svg>
