<?xml version="1.0" encoding="utf-8"?>
<!-- Generator: Adobe Illustrator 27.2.0, SVG Export Plug-In . SVG Version: 6.00 Build 0)  -->
<svg version="1.1" id="Capa_1" xmlns="http://www.w3.org/2000/svg" xmlns:xlink="http://www.w3.org/1999/xlink" x="0px" y="0px"
	 viewBox="0 0 265.4 74" style="enable-background:new 0 0 265.4 74;" xml:space="preserve">
<style type="text/css">
	.st0{fill:#FC441E;}
</style>
<g>
	<path class="st0" d="M121.3,10.8c-2.5-3.4-5.6-6.2-8.9-8c-3.2-1.8-6.6-2.7-10-2.8v0h-0.5h0H85.4v37v37h17v0c3.4-0.1,6.8-1,10-2.8
		c3.3-1.9,6.4-4.6,8.9-8c2.6-3.4,4.6-7.5,6-12c1.4-4.5,2.1-9.3,2.1-14.2s-0.7-9.7-2.1-14.2C125.9,18.3,123.9,14.3,121.3,10.8z"/>
	<path class="st0" d="M78.6,10.8c-2.1-3.4-4.7-6.2-7.5-8C68.4,1,65.4,0,62.4,0h-15v37v37h15c3,0,6-1,8.8-2.8c2.8-1.9,5.3-4.6,7.5-8
		c2.1-3.4,3.8-7.5,5-12c1.2-4.5,1.8-9.3,1.8-14.2s-0.6-9.7-1.8-14.2C82.5,18.3,80.8,14.3,78.6,10.8z"/>
	<path class="st0" d="M40.6,10.8c-2.1-3.4-4.7-6.2-7.5-8C30.4,1,27.4,0,24.4,0h-10v36.4c0-4.7-0.4-9.3-1-13.6
		c-0.7-4.5-1.7-8.6-2.9-12S7.7,4.7,6,2.8C4.4,1,2.6,0,0.9,0v74c1.8,0,3.5-1,5.2-2.8c1.6-1.9,3.1-4.6,4.4-8c1.3-3.4,2.2-7.5,2.9-12
		c0.7-4.3,1-8.9,1-13.6V74h10c3,0,6-1,8.8-2.8c2.8-1.9,5.3-4.6,7.5-8c2.1-3.4,3.8-7.5,5-12c1.2-4.5,1.8-9.3,1.8-14.2
		s-0.6-9.7-1.8-14.2C44.5,18.3,42.8,14.3,40.6,10.8z"/>
	<path class="st0" d="M261.9,22.8c-2.3-4.5-5.6-8.6-9.8-12c-4.2-3.4-9.1-6.2-14.6-8c-4.8-1.6-10-2.6-15.2-2.8v0h-31v37
		c0-4.9-1-9.7-2.8-14.2c-1.9-4.5-4.7-8.6-8.1-12c-3.5-3.4-7.6-6.2-12.2-8c-4.4-1.8-9.1-2.7-13.9-2.8v0h-25v74h25v0
		c4.8-0.1,9.5-1,13.9-2.8c4.5-1.9,8.7-4.6,12.2-8c3.5-3.4,6.2-7.5,8.1-12c1.9-4.5,2.8-9.3,2.8-14.2v37h31v0
		c5.2-0.2,10.4-1.1,15.2-2.8c5.5-1.9,10.4-4.6,14.6-8c4.2-3.4,7.5-7.5,9.8-12c2.3-4.5,3.4-9.3,3.4-14.2S264.2,27.3,261.9,22.8z"/>
</g>
</svg>
