<?xml version="1.0" encoding="UTF-8"?>
<svg id="Capa_1" data-name="Capa 1" xmlns="http://www.w3.org/2000/svg" viewBox="0 0 103.22 74.57">
  <defs>
    <style>
      .cls-1 {
        fill: #fc441e;
      }

      .cls-2 {
        fill: #f5f4f2;
      }
    </style>
  </defs>
  <path class="cls-1" d="M.52,37.2C.52,17.04,16.87,.7,37.02,.7H102.52V37.2c0,20.16-16.34,36.5-36.5,36.5H.52V37.2Z"/>
  <ellipse class="cls-2" cx="51.72" cy="37.21" rx="54.47" ry="29.2" transform="translate(-11.33 28.08) rotate(-27.49)"/>
  <path class="cls-1" d="M62.47,25.7h-18.9c-1.07,0-2.1,.42-2.86,1.17-.76,.75-1.19,1.77-1.19,2.83v10.67c0,1.06,.43,2.08,1.19,2.83s1.79,1.17,2.86,1.17h8.1v2.67h-5.4c-.36,0-.7,.14-.95,.39s-.4,.59-.4,.94,.14,.69,.4,.94c.25,.25,.6,.39,.95,.39h13.5c.36,0,.7-.14,.95-.39s.4-.59,.4-.94-.14-.69-.4-.94c-.25-.25-.6-.39-.95-.39h-5.4v-2.67h8.1c1.07,0,2.1-.42,2.86-1.17s1.19-1.77,1.19-2.83v-10.67c0-1.06-.43-2.08-1.19-2.83s-1.79-1.17-2.86-1.17Zm1.35,14.67c0,.35-.14,.69-.4,.94-.25,.25-.6,.39-.95,.39h-18.9c-.36,0-.7-.14-.95-.39s-.4-.59-.4-.94v-10.67c0-.35,.14-.69,.4-.94,.25-.25,.6-.39,.95-.39h18.9c.36,0,.7,.14,.95,.39s.4,.59,.4,.94c0,0,0,10.67,0,10.67Z"/>
</svg>