<?xml version="1.0" encoding="UTF-8"?>
<svg id="Capa_1" data-name="Capa 1" xmlns="http://www.w3.org/2000/svg" viewBox="0 0 103.22 74.57">
  <defs>
    <style>
      .cls-1 {
        fill: #fc441e;
      }

      .cls-2 {
        fill: #f5f4f2;
      }
    </style>
  </defs>
  <path class="cls-1" d="M.52,37.2C.52,17.04,16.87,.7,37.02,.7H102.52V37.2c0,20.16-16.34,36.5-36.5,36.5H.52V37.2Z"/>
  <ellipse class="cls-2" cx="51.72" cy="37.21" rx="54.47" ry="29.2" transform="translate(-11.33 28.08) rotate(-27.49)"/>
  <path class="cls-1" d="M51.61,24.79c-2.12,0-4.16,.92-5.66,2.56s-2.34,3.87-2.34,6.19v7.5c0,2.32,.84,4.55,2.34,6.19s3.54,2.56,5.66,2.56,4.16-.92,5.66-2.56c1.5-1.64,2.34-3.87,2.34-6.19v-7.5c0-2.32-.84-4.55-2.34-6.19-1.5-1.64-3.54-2.56-5.66-2.56Zm-5.71,8.75c0-1.44,.45-2.84,1.29-3.95,.83-1.12,1.99-1.88,3.28-2.17v7.38h-4.57v-1.25h0Zm11.43,7.49c0,1.66-.6,3.25-1.67,4.42s-2.53,1.83-4.04,1.83-2.97-.66-4.04-1.83c-1.07-1.17-1.67-2.76-1.67-4.42v-3.75h11.43v3.75h-.01Zm0-6.25h-4.57v-7.38c1.29,.29,2.45,1.06,3.28,2.17,.83,1.12,1.29,2.51,1.29,3.95v1.25h0Z"/>
</svg>