<svg width="44" height="44" viewBox="0 0 44 44" fill="none" xmlns="http://www.w3.org/2000/svg">
<circle cx="22" cy="22" r="22" fill="#FC441E"/>
<path d="M26.2512 13.7179C26.2512 13.1529 25.5834 13.1529 25.2866 13.2235C25.7021 12.9127 26.1894 12.9881 26.3625 13.0823L30.3751 14.9462C30.7575 15.1238 31 15.4934 31 15.8984V28.1606C31 28.571 30.751 28.9445 30.3609 29.1192L26.5851 30.8106C26.3254 30.9165 25.7615 31.1779 25.2866 30.8106C25.8802 30.9165 26.2017 30.5163 26.2512 30.2455V13.7179Z" fill="#F5F4F2"/>
<path d="M25.3348 13.2133C25.6498 13.1543 26.2512 13.1817 26.2512 13.7179L26.2512 17.9387L14.0856 26.6576C13.873 26.81 13.5737 26.7847 13.3926 26.5991L12.1388 25.3137C11.9424 25.1124 11.9561 24.7972 12.1694 24.612L25.2866 13.2235L25.3348 13.2133Z" fill="#F5F4F2"/>
<path d="M26.2512 26.0954L14.0856 17.3764C13.873 17.224 13.5737 17.2493 13.3926 17.435L12.1388 18.7203C11.9424 18.9217 11.9561 19.2369 12.1694 19.422L25.2866 30.8106C25.8802 30.9165 26.2017 30.5163 26.2512 30.2455L26.2512 26.0954Z" fill="#F5F4F2"/>
</svg>
