<svg width="44" height="44" viewBox="0 0 44 44" fill="none" xmlns="http://www.w3.org/2000/svg">
<circle cx="22" cy="22" r="22" fill="#FC441E"/>
<path d="M11 18.8762C11 16.4693 11 15.2659 11.5177 14.3465C11.9731 13.5379 12.6998 12.8804 13.5935 12.4684C14.6096 12 15.9398 12 18.6 12H24.4C27.0602 12 28.3904 12 29.4065 12.4684C30.3002 12.8804 31.0269 13.5379 31.4823 14.3465C32 15.2659 32 16.4693 32 18.8762V24.1238C32 26.5307 32 27.7341 31.4823 28.6535C31.0269 29.4621 30.3002 30.1196 29.4065 30.5316C28.3904 31 27.0602 31 24.4 31H18.6C15.9397 31 14.6096 31 13.5935 30.5316C12.6998 30.1196 11.9731 29.4621 11.5177 28.6535C11 27.7341 11 26.5307 11 24.1238V18.8762Z" fill="#F5F4F2"/>
<path d="M21.1763 23.9403H17.9221L17.26 25.8489C17.2416 25.9198 17.1694 25.9701 17.0909 25.9666H15.4427C15.3487 25.9666 15.3158 25.9187 15.3441 25.8228L18.1616 18.2929C18.1898 18.2145 18.2179 18.1252 18.2461 18.0249C18.283 17.8505 18.3018 17.6733 18.3025 17.4955C18.2944 17.443 18.3454 17.3966 18.4011 17.404H20.641C20.7066 17.404 20.7442 17.4258 20.7537 17.4694L23.9516 25.8359C23.9797 25.9231 23.9515 25.9667 23.867 25.9666H22.0356C21.9714 25.9732 21.9101 25.9333 21.8948 25.8751L21.1763 23.9403ZM18.4292 22.2932H20.6551C20.2894 21.1626 19.8767 20.0468 19.5422 18.9074C19.1813 20.0487 18.7875 21.1855 18.4292 22.2932Z" fill="#FC441E"/>
<path d="M25.8532 18.7897C25.7095 18.795 25.5662 18.7722 25.4327 18.7226C25.2992 18.6731 25.1784 18.5979 25.0784 18.5021C24.9786 18.4021 24.9011 18.2848 24.8503 18.1569C24.7995 18.029 24.7765 17.8931 24.7825 17.7569C24.7774 17.6221 24.803 17.4878 24.8576 17.3628C24.9122 17.2378 24.9946 17.1248 25.0995 17.0314C25.2033 16.9389 25.3259 16.8665 25.4601 16.8182C25.5943 16.77 25.7375 16.7469 25.8813 16.7503C26.2195 16.7503 26.4848 16.844 26.6773 17.0314C26.7745 17.1288 26.85 17.243 26.8996 17.3675C26.9491 17.492 26.9717 17.6243 26.9661 17.7569C26.972 17.8936 26.9482 18.03 26.8962 18.158C26.8441 18.286 26.7649 18.403 26.6632 18.5021C26.5569 18.5993 26.43 18.6751 26.2906 18.7246C26.1512 18.7741 26.0023 18.7962 25.8532 18.7897ZM24.8811 25.8358V19.5871C24.8811 19.5087 24.9185 19.4694 24.9938 19.4694H26.7266C26.8017 19.4694 26.8392 19.5086 26.8393 19.5871V25.8358C26.8393 25.923 26.8017 25.9666 26.7266 25.9665H25.0079C24.9234 25.9665 24.8811 25.923 24.8811 25.8358Z" fill="#FC441E"/>
</svg>
