<svg width="45" height="44" viewBox="0 0 45 44" fill="none" xmlns="http://www.w3.org/2000/svg">
<ellipse cx="22.5" cy="22" rx="22.5" ry="22" fill="#FC441E"/>
<path d="M14 18.8762C14 16.4693 14 15.2659 14.4191 14.3465C14.7878 13.5379 15.376 12.8804 16.0995 12.4684C16.9221 12 17.9988 12 20.1524 12H24.8476C27.0012 12 28.0779 12 28.9005 12.4684C29.624 12.8804 30.2122 13.5379 30.5809 14.3465C31 15.2659 31 16.4693 31 18.8762V24.1238C31 26.5307 31 27.7341 30.5809 28.6535C30.2122 29.4621 29.624 30.1196 28.9005 30.5316C28.0779 31 27.0012 31 24.8476 31H20.1524C17.9988 31 16.9221 31 16.0995 30.5316C15.376 30.1196 14.7878 29.4621 14.4191 28.6535C14 27.7341 14 26.5307 14 24.1238V18.8762Z" fill="#F5F4F2"/>
<path d="M19.8238 17.5612V25.8885C19.8238 25.9757 19.7896 26.0193 19.7211 26.0192H18.3412C18.2803 26.0192 18.2499 25.9757 18.25 25.8885V17.5612C18.25 17.4916 18.2842 17.4567 18.3526 17.4566H19.7325C19.7849 17.4481 19.8312 17.5012 19.8238 17.5612Z" fill="#FC441E"/>
<path d="M23.9065 26.1499C23.3816 26.1591 22.8615 26.034 22.384 25.7839C21.3703 25.2461 20.9299 24.0559 20.93 22.8295C20.9212 21.6061 21.501 20.4404 22.4468 19.862C23.0996 19.4474 23.8676 19.3421 24.6021 19.4175V16.8422C24.6021 16.7813 24.6249 16.7507 24.6706 16.7507H26.1075C26.1467 16.7443 26.1815 16.7841 26.1759 16.8291V24.5551C26.1759 24.8738 26.2042 25.1915 26.2215 25.5093C26.2243 25.5637 26.1962 25.6174 26.1531 25.6401C25.7824 25.8173 25.3963 25.9488 25.0013 26.0322C24.6401 26.1087 24.2737 26.148 23.9065 26.1499ZM24.6021 24.5289V20.9601C23.5652 20.6381 22.5492 21.5229 22.5494 22.751C22.5243 24.0372 23.5504 24.8815 24.6021 24.5289Z" fill="#FC441E"/>
</svg>
