<svg width="42" height="44" viewBox="0 0 42 44" fill="none" xmlns="http://www.w3.org/2000/svg">
<ellipse cx="21" cy="22" rx="21" ry="22" fill="#FC441E"/>
<path d="M11 18.8762C11 16.4693 11 15.2659 11.4931 14.3465C11.9268 13.5379 12.6188 12.8804 13.47 12.4684C14.4377 12 15.7045 12 18.2381 12H23.7619C26.2955 12 27.5623 12 28.53 12.4684C29.3812 12.8804 30.0732 13.5379 30.5069 14.3465C31 15.2659 31 16.4693 31 18.8762V24.1238C31 26.5307 31 27.7341 30.5069 28.6535C30.0732 29.4621 29.3812 30.1196 28.53 30.5316C27.5623 31 26.2955 31 23.7619 31H18.2381C15.7045 31 14.4377 31 13.47 30.5316C12.6188 30.1196 11.9268 29.4621 11.4931 28.6535C11 27.7341 11 26.5307 11 24.1238V18.8762Z" fill="#F5F4F2"/>
<path d="M21.4618 17.5872L18.9663 21.6005L21.6362 25.8622C21.6917 25.9589 21.6362 25.9802 21.5557 25.9802H19.6505C19.5163 25.9802 19.4224 25.9756 19.3688 25.8884C19.1897 25.5485 19.0108 25.2108 18.8321 24.8752C18.6531 24.5398 18.463 24.1978 18.2619 23.849C18.0607 23.5006 17.8616 23.1476 17.6649 22.7901C17.4858 23.1388 17.2868 23.4874 17.0946 23.836C16.9022 24.1846 16.7121 24.5311 16.5244 24.8752C16.3366 25.2196 16.1443 25.5617 15.9475 25.9014C15.9117 25.9799 15.849 25.988 15.7597 25.988H13.9216C13.8494 25.988 13.8407 25.9364 13.8814 25.8753L16.4708 21.7312L13.9484 17.5741C13.9026 17.5148 13.942 17.4516 14.0155 17.4565H15.9073C15.9892 17.4521 16.0616 17.4815 16.1085 17.548C16.2695 17.8967 16.4484 18.2453 16.6452 18.5938C16.8418 18.9425 17.0408 19.2867 17.2422 19.6266C17.4435 19.9664 17.6425 20.3107 17.8124 20.6593C17.9912 20.302 18.1724 19.9534 18.3558 19.6135C18.539 19.2736 18.7269 18.9315 18.9193 18.5873C19.1116 18.2431 19.2972 17.901 19.4761 17.5611C19.4999 17.4865 19.5567 17.4487 19.6371 17.4565H21.3947C21.4618 17.4565 21.4895 17.5435 21.4618 17.5872Z" fill="#FC441E"/>
<path d="M25.3122 26.1499C24.129 26.1675 22.8896 25.7047 22.2667 24.6792C21.9625 24.187 21.8104 23.5704 21.8105 22.8295C21.8054 22.2295 21.9628 21.6388 22.2667 21.1169C23.0507 19.7855 24.6303 19.2866 26.1306 19.4175V16.8422C26.1306 16.7813 26.1575 16.7507 26.2112 16.7507H27.9016C27.9478 16.7443 27.9887 16.7841 27.9822 16.8291V24.555C27.9822 24.8738 28.0154 25.1915 28.0358 25.5093C28.0391 25.5637 28.006 25.6174 27.9553 25.6401C27.12 25.9795 26.2163 26.146 25.3122 26.1499ZM26.1306 24.5289V20.9601C24.9052 20.6366 23.7155 21.5233 23.7156 22.751C23.6865 24.0203 24.8383 24.8972 26.1306 24.5289Z" fill="#FC441E"/>
</svg>
