<svg width="44" height="44" viewBox="0 0 44 44" fill="none" xmlns="http://www.w3.org/2000/svg">
<circle cx="22" cy="22" r="22" fill="#FC441E"/>
<path d="M10.5226 23.7618C9.82578 23.0649 9.82579 21.9351 10.5226 21.2382L21.2382 10.5226C21.9351 9.82578 23.0649 9.82579 23.7618 10.5226L34.4774 21.2382C35.1742 21.9351 35.1742 23.0649 34.4774 23.7618L23.7618 34.4774C23.0649 35.1742 21.9351 35.1742 21.2382 34.4774L10.5226 23.7618Z" fill="#F5F4F2"/>
<path d="M19.0619 12.7336L17.9767 13.8187L20.7793 16.6213C20.666 16.8646 20.6027 17.1358 20.6027 17.4219C20.6027 18.234 21.1129 18.927 21.8304 19.1976V26.0535C21.1129 26.3241 20.6027 27.0171 20.6027 27.8292C20.6027 28.8771 21.4521 29.7266 22.5 29.7266C23.5479 29.7266 24.3973 28.8771 24.3973 27.8292C24.3973 27.0929 23.9779 26.4546 23.365 26.1401V19.2069L26.044 21.886C25.9362 22.1243 25.8761 22.3888 25.8761 22.6674C25.8761 23.7153 26.7256 24.5647 27.7734 24.5647C28.8213 24.5647 29.6708 23.7153 29.6708 22.6674C29.6708 21.6195 28.8213 20.7701 27.7734 20.7701C27.5698 20.7701 27.3737 20.8022 27.1898 20.8615L24.3126 17.9843C24.3677 17.8066 24.3973 17.6177 24.3973 17.4219C24.3973 16.374 23.5479 15.5246 22.5 15.5246C22.3042 15.5246 22.1153 15.5542 21.9376 15.6093L19.0619 12.7336Z" fill="#FC441E"/>
</svg>
