<svg width="44" height="44" viewBox="0 0 44 44" fill="none" xmlns="http://www.w3.org/2000/svg">
<circle cx="22" cy="22" r="22" fill="#FC441E"/>
<path d="M21.5 12C19.0067 12.0001 16.5949 12.8665 14.696 14.4441C12.7971 16.0218 11.535 18.2078 11.1356 20.6109C10.7362 23.014 11.2256 25.4775 12.5161 27.5606C13.8066 29.6437 15.8141 31.2104 18.1794 31.9804C18.7044 32.0701 18.9012 31.7625 18.9012 31.4934C18.9012 31.2499 18.8881 30.4424 18.8881 29.5838C16.25 30.0579 15.5675 28.9558 15.3575 28.3791C15.1245 27.8182 14.7551 27.3211 14.2813 26.9308C13.9138 26.7386 13.3888 26.2644 14.2681 26.2516C14.6039 26.2872 14.9259 26.4013 15.207 26.5842C15.488 26.7671 15.7197 27.0135 15.8825 27.3025C16.0261 27.5544 16.2192 27.7762 16.4507 27.9551C16.6823 28.134 16.9477 28.2665 17.2318 28.3451C17.5159 28.4237 17.813 28.4468 18.1063 28.413C18.3995 28.3792 18.683 28.2893 18.9406 28.1483C18.986 27.6271 19.2239 27.1398 19.61 26.7771C17.2737 26.5207 14.8325 25.6364 14.8325 21.7147C14.8177 20.6957 15.2028 19.7098 15.9087 18.9592C15.5877 18.0736 15.6253 17.1017 16.0137 16.2422C16.0137 16.2422 16.8931 15.973 18.9012 17.2931C20.6193 16.8317 22.4331 16.8317 24.1512 17.2931C26.1593 15.9602 27.0387 16.2422 27.0387 16.2422C27.4272 17.1017 27.4647 18.0736 27.1437 18.9592C27.8517 19.7085 28.2371 20.6953 28.2199 21.7147C28.2199 25.6492 25.7655 26.5207 23.4293 26.7771C23.6799 27.0251 23.8729 27.3228 23.9952 27.6501C24.1175 27.9774 24.1662 28.3265 24.1381 28.6738C24.1381 30.0452 24.1249 31.1473 24.1249 31.4934C24.1249 31.7625 24.3218 32.0829 24.8468 31.9804C27.2079 31.2041 29.2096 29.6338 30.4946 27.5496C31.7797 25.4655 32.2644 23.0033 31.8622 20.6024C31.4601 18.2016 30.1972 16.0185 28.2991 14.4428C26.4011 12.867 23.9913 12.0013 21.5 12Z" fill="#F5F4F2"/>
</svg>
