<svg width="44" height="44" viewBox="0 0 44 44" fill="none" xmlns="http://www.w3.org/2000/svg">
<circle cx="22" cy="22" r="22" fill="#FC441E"/>
<path d="M11 12H32V32H11V12Z" fill="#F5F4F2"/>
<path d="M23.75 28.634L25.2962 27.6597C25.4173 28.0222 26.1846 28.8833 27.1538 28.8833C28.1231 28.8833 28.5731 28.3791 28.5731 28.0449C28.5731 27.134 27.5834 26.8129 27.108 26.6586C27.0305 26.6335 26.9667 26.6128 26.9231 26.5947C26.9007 26.5854 26.8669 26.5731 26.8234 26.5573C26.2947 26.3649 24.3442 25.6552 24.3442 23.598C24.3442 21.332 26.6404 21.0714 27.1596 21.0714C27.4993 21.0714 29.1327 21.1111 29.9462 22.567L28.4462 23.564C28.1173 22.9295 27.5709 22.7199 27.2346 22.7199C26.4038 22.7199 26.2308 23.3 26.2308 23.564C26.2308 24.3048 27.1334 24.6369 27.8955 24.9173C28.0949 24.9906 28.2847 25.0605 28.4462 25.1331C29.2769 25.507 30.5 26.1188 30.5 28.0449C30.5 29.0096 29.6504 30.5714 27.5115 30.5714C24.6385 30.5714 23.8769 28.9286 23.75 28.634Z" fill="#FC441E"/>
<path d="M16.25 28.8275L17.8615 27.8537C17.9878 28.216 18.4784 28.8841 19.1904 28.8841C19.9023 28.8841 20.2667 28.1877 20.2667 27.8537V21.2857H22.2486V27.8537C22.2807 28.7596 21.7532 30.5714 19.4249 30.5714C17.2843 30.5714 16.3943 29.3598 16.25 28.8275Z" fill="#FC441E"/>
</svg>
