<svg width="44" height="44" viewBox="0 0 44 44" fill="none" xmlns="http://www.w3.org/2000/svg">
<circle cx="22" cy="22" r="22" fill="#FC441E"/>
<path d="M12 18.8762C12 16.4693 12 15.2659 12.5177 14.3465C12.9731 13.5379 13.6998 12.8804 14.5935 12.4684C15.6096 12 16.9398 12 19.6 12H25.4C28.0602 12 29.3904 12 30.4065 12.4684C31.3002 12.8804 32.0269 13.5379 32.4823 14.3465C33 15.2659 33 16.4693 33 18.8762V24.1238C33 26.5307 33 27.7341 32.4823 28.6535C32.0269 29.4621 31.3002 30.1196 30.4065 30.5316C29.3904 31 28.0602 31 25.4 31H19.6C16.9397 31 15.6096 31 14.5935 30.5316C13.6998 30.1196 12.9731 29.4621 12.5177 28.6535C12 27.7341 12 26.5307 12 24.1238V18.8762Z" fill="#F5F4F2"/>
<path d="M20.842 23.9183H17.5878L16.9257 25.8306C16.9073 25.9015 16.8351 25.9517 16.7566 25.9482H15.1084C15.0144 25.9482 14.9815 25.9003 15.0098 25.8044L17.8273 18.3057C17.8555 18.2273 17.8836 18.1506 17.9118 18.0503C17.9487 17.8759 17.9675 17.6986 17.9682 17.5209C17.9601 17.4684 18.0102 17.4219 18.0668 17.4294H20.3067C20.3723 17.4294 20.4099 17.4512 20.4194 17.4947L23.6173 25.8175C23.6454 25.9047 23.6172 25.9483 23.5327 25.9482H21.7013C21.6371 25.9548 21.5758 25.915 21.5605 25.8567L20.842 23.9183ZM18.0949 22.3059H20.3208C19.9551 21.1753 19.5424 20.0596 19.2079 18.9201C18.8288 20.1021 18.4788 21.1982 18.0949 22.3059Z" fill="#FC441E"/>
<path d="M25.9956 23.1799C26.1251 24.1509 27.0263 24.6138 28.0242 24.5941C28.5869 24.5841 29.1883 24.5051 29.7141 24.3126C29.7609 24.2778 29.7845 24.2995 29.7845 24.3779V25.6198C29.789 25.6844 29.7591 25.7422 29.7 25.7767C29.0465 26.0453 28.2963 26.1263 27.5875 26.116C25.4741 26.116 24.0228 24.7687 24.0234 22.8086C24.0178 20.9511 25.3498 19.384 27.4184 19.384C29.172 19.3429 30.386 20.6131 30.3909 22.1942C30.3909 22.4822 30.3731 22.7711 30.3346 23.057C30.3271 23.1159 30.2716 23.1616 30.2077 23.1616C28.8073 23.1616 27.3999 23.1799 25.9956 23.1799ZM25.9956 21.9891C26.7761 21.9891 27.5611 22.014 28.3412 21.9825C28.4584 21.9716 28.5455 21.9516 28.5455 21.8412C28.5292 21.2551 27.9825 20.773 27.348 20.7954C26.5815 20.7524 26.0909 21.3379 25.9956 21.9891Z" fill="#FC441E"/>
</svg>
