<svg width="44" height="44" viewBox="0 0 44 44" fill="none" xmlns="http://www.w3.org/2000/svg">
<circle cx="22" cy="22" r="22" fill="#FC441E"/>
<path d="M13 18.8762C13 16.4693 13 15.2659 13.4684 14.3465C13.8804 13.5379 14.5379 12.8804 15.3465 12.4684C16.2659 12 17.4693 12 19.8762 12H25.1238C27.5307 12 28.7341 12 29.6535 12.4684C30.4621 12.8804 31.1196 13.5379 31.5316 14.3465C32 15.2659 32 16.4693 32 18.8762V24.1238C32 26.5307 32 27.7341 31.5316 28.6535C31.1196 29.4621 30.4621 30.1196 29.6535 30.5316C28.7341 31 27.5307 31 25.1238 31H19.8762C17.4693 31 16.2659 31 15.3465 30.5316C14.5379 30.1196 13.8804 29.4621 13.4684 28.6535C13 27.7341 13 26.5307 13 24.1238V18.8762Z" fill="#F5F4F2"/>
<path d="M17.0714 25.9217V17.5666C17.0714 17.5098 17.0952 17.4773 17.1506 17.4773C17.9687 17.4773 18.7864 17.4286 19.6048 17.4286C20.9326 17.4286 22.3704 17.8826 22.8743 19.2717C22.9931 19.6128 23.0564 19.9619 23.0564 20.3273C23.0564 21.0256 22.8981 21.6021 22.5814 22.0568C21.6969 23.3269 20.1637 23.3072 18.7893 23.3072V25.9136C18.8001 25.9908 18.7343 26.0273 18.6706 26.0273H17.1664C17.1031 26.0273 17.0714 25.9948 17.0714 25.9217ZM18.7973 19.0444V21.7726C19.3422 21.8125 19.9124 21.8168 20.436 21.6427C21.014 21.4759 21.3306 20.9756 21.3306 20.376C21.3467 19.8651 21.0683 19.3749 20.5943 19.1905C20.0771 18.9755 19.3556 18.9626 18.7973 19.0444Z" fill="#FC441E"/>
<path d="M27.9942 21.2336C27.7546 21.1073 27.4995 21.015 27.2358 20.959C26.8969 20.8793 25.5602 20.6 25.5597 21.2989C25.5716 21.6891 26.191 21.8803 26.4646 21.9918C27.4254 22.3216 28.5126 22.9112 28.4912 24.0965C28.5206 25.572 27.091 26.1618 25.8656 26.162C25.2276 26.1686 24.563 26.0698 23.9792 25.7959C23.9235 25.7664 23.8876 25.7033 23.89 25.639V24.2272C23.8837 24.1706 23.9444 24.1211 23.992 24.1618C24.564 24.5078 25.2421 24.6758 25.9038 24.6847C26.196 24.6847 26.7749 24.6564 26.7706 24.2272C26.7706 23.8153 26.0779 23.6259 25.8019 23.5213C25.4016 23.3784 25.0222 23.1805 24.6738 22.933C24.1871 22.5858 23.8817 22.0291 23.89 21.4166C23.8871 20.0273 25.2031 19.4037 26.3882 19.4034C26.9422 19.3988 27.5371 19.4399 28.0529 19.6648C28.127 19.6867 28.1424 19.7648 28.1421 19.8348V21.1551C28.1468 21.2371 28.0558 21.265 27.9942 21.2336Z" fill="#FC441E"/>
</svg>
