<svg width="44" height="44" viewBox="0 0 44 44" fill="none" xmlns="http://www.w3.org/2000/svg">
<circle cx="22" cy="22" r="22" fill="#FC441E"/>
<path fill-rule="evenodd" clip-rule="evenodd" d="M21.5 22C21.5 20.159 22.9551 18.6667 24.75 18.6667C26.5449 18.6667 28 20.159 28 22C28 23.8409 26.5449 25.3333 24.75 25.3333C22.9551 25.3333 21.5 23.8409 21.5 22Z" fill="#F5F4F2"/>
<path fill-rule="evenodd" clip-rule="evenodd" d="M15 28.6667C15 26.8257 16.4551 25.3333 18.25 25.3333H21.5V28.6667C21.5 30.5076 20.0449 32 18.25 32C16.4551 32 15 30.5076 15 28.6667Z" fill="#F5F4F2"/>
<path fill-rule="evenodd" clip-rule="evenodd" d="M21.5 12V18.6667H24.75C26.5449 18.6667 28 17.1743 28 15.3333C28 13.4924 26.5449 12 24.75 12H21.5Z" fill="#F5F4F2"/>
<path fill-rule="evenodd" clip-rule="evenodd" d="M15 15.3333C15 17.1743 16.4551 18.6667 18.25 18.6667H21.5V12H18.25C16.4551 12 15 13.4924 15 15.3333Z" fill="#F5F4F2"/>
<path fill-rule="evenodd" clip-rule="evenodd" d="M15 22C15 23.8409 16.4551 25.3333 18.25 25.3333H21.5V18.6667H18.25C16.4551 18.6667 15 20.159 15 22Z" fill="#F5F4F2"/>
<path d="M21.375 12.125V18.5417H18.25C16.5271 18.5417 15.125 17.1082 15.125 15.3333C15.125 13.5584 16.5271 12.125 18.25 12.125H21.375ZM18.25 18.7917H21.375V22V25.2083H18.25C16.5271 25.2083 15.125 23.7749 15.125 22C15.125 20.2251 16.5271 18.7917 18.25 18.7917ZM21.625 22C21.625 20.2251 23.0271 18.7917 24.75 18.7917C26.4729 18.7917 27.875 20.2251 27.875 22C27.875 23.7749 26.4729 25.2083 24.75 25.2083C23.0271 25.2083 21.625 23.7749 21.625 22ZM18.25 25.4583H21.375V28.6667C21.375 30.4416 19.9729 31.875 18.25 31.875C16.5271 31.875 15.125 30.4416 15.125 28.6667C15.125 26.8918 16.5271 25.4583 18.25 25.4583ZM21.625 18.5417V12.125H24.75C26.4729 12.125 27.875 13.5584 27.875 15.3333C27.875 17.1082 26.4729 18.5417 24.75 18.5417H21.625Z" stroke="#FC441E" stroke-width="0.25"/>
</svg>
