<?xml version="1.0" encoding="UTF-8"?>
<svg id="Capa_1" data-name="Capa 1" xmlns="http://www.w3.org/2000/svg" viewBox="0 0 130.34 116">
  <defs>
    <style>
      .cls-1 {
        fill: #fc441e;
      }
    </style>
  </defs>
  <path class="cls-1" d="M.34,0c5.65,0,11.24,1.5,16.46,4.41,5.22,2.91,9.96,7.19,13.95,12.57,3.99,5.39,7.16,11.78,9.32,18.82,2.16,7.04,3.27,14.58,3.27,22.2s-1.11,15.16-3.27,22.2c-2.16,7.04-5.33,13.43-9.32,18.82-3.99,5.39-8.73,9.66-13.95,12.57-5.22,2.92-10.81,4.42-16.46,4.42V0Z"/>
  <path class="cls-1" d="M43.84,1c5.71,0,11.37,1.49,16.65,4.38,5.28,2.89,10.07,7.13,14.11,12.46,4.04,5.34,7.24,11.68,9.43,18.65,2.19,6.98,3.31,14.45,3.31,22s-1.12,15.03-3.31,22c-2.19,6.98-5.39,13.31-9.43,18.65-4.04,5.34-8.83,9.57-14.11,12.46-5.28,2.89-10.93,4.38-16.65,4.38V1Z"/>
  <path class="cls-1" d="M86.84,0c5.71,0,11.37,1.5,16.65,4.41,5.28,2.91,10.07,7.19,14.11,12.57,4.04,5.39,7.24,11.78,9.43,18.82,2.19,7.04,3.31,14.58,3.31,22.2s-1.12,15.16-3.31,22.2c-2.19,7.04-5.39,13.43-9.43,18.82-4.04,5.39-8.84,9.66-14.11,12.57-5.28,2.92-10.94,4.42-16.65,4.42V0Z"/>
</svg>