<?xml version="1.0" encoding="UTF-8"?>
<svg id="Capa_1" data-name="Capa 1" xmlns="http://www.w3.org/2000/svg" viewBox="0 0 103.22 74.57">
  <defs>
    <style>
      .cls-1 {
        fill: #fc441e;
      }

      .cls-2 {
        fill: #f5f4f2;
      }
    </style>
  </defs>
  <path class="cls-1" d="M.52,37.2C.52,17.04,16.87,.7,37.02,.7H102.52V37.2c0,20.16-16.34,36.5-36.5,36.5H.52V37.2Z"/>
  <ellipse class="cls-2" cx="51.72" cy="37.21" rx="54.47" ry="29.2" transform="translate(-11.33 28.08) rotate(-27.49)"/>
  <path class="cls-1" d="M52.42,42.44l-.17-.14c-.06-.05-.13-.08-.21-.11l-.21-.1c-.19-.04-.38-.03-.56,.02-.18,.06-.35,.16-.48,.3-.1,.12-.18,.25-.24,.4-.09,.22-.11,.46-.07,.69s.15,.45,.31,.61c.16,.17,.36,.28,.58,.33,.22,.05,.45,.03,.66-.06,.14-.07,.26-.16,.38-.26,.16-.17,.27-.38,.31-.62,.04-.23,.02-.47-.07-.69-.06-.14-.14-.26-.24-.37h0Zm3.76-17.15h-9.14c-.91,0-1.78,.38-2.42,1.05-.64,.68-1,1.59-1,2.55v16.8c0,.95,.36,1.87,1,2.55s1.52,1.05,2.42,1.05h9.14c.91,0,1.78-.38,2.42-1.05,.64-.68,1-1.59,1-2.55V28.89c0-.95-.36-1.87-1-2.55-.64-.68-1.52-1.05-2.42-1.05Zm1.14,20.4c0,.32-.12,.62-.33,.85-.21,.23-.51,.35-.81,.35h-9.14c-.3,0-.59-.13-.81-.35-.21-.23-.33-.53-.33-.85V28.89c0-.32,.12-.62,.33-.85,.21-.23,.51-.35,.81-.35h9.14c.3,0,.59,.13,.81,.35,.21,.23,.33,.53,.33,.85v16.8Z"/>
</svg>