<?xml version="1.0" encoding="utf-8"?>
<!-- Generator: Adobe Illustrator 27.2.0, SVG Export Plug-In . SVG Version: 6.00 Build 0)  -->
<svg version="1.1" id="Capa_1" xmlns="http://www.w3.org/2000/svg" xmlns:xlink="http://www.w3.org/1999/xlink" x="0px" y="0px"
	 viewBox="0 0 321 187" style="enable-background:new 0 0 321 187;" xml:space="preserve">
<style type="text/css">
	.st0{fill:#FC441E;}
	.st1{fill:#F5F4F2;}
</style>
<path class="st0" d="M221,187H0v-87C0,44.8,44.8,0,100,0h221v87C321,142.2,276.2,187,221,187z"/>
<path class="st1" d="M76.8,91.9h3.6v6.9c-0.9,0.7-2,1.2-3.2,1.6s-2.4,0.6-3.6,0.6c-1.8,0-3.3-0.4-4.7-1.1c-1.4-0.8-2.5-1.8-3.3-3.1
	c-0.8-1.3-1.2-2.8-1.2-4.5s0.4-3.2,1.2-4.5c0.8-1.3,1.9-2.4,3.3-3.1c1.4-0.8,3-1.1,4.8-1.1c1.5,0,2.8,0.2,4,0.7s2.2,1.2,3,2.2
	l-2.5,2.3c-1.2-1.3-2.7-1.9-4.4-1.9c-1.1,0-2,0.2-2.9,0.7c-0.8,0.5-1.5,1.1-2,1.9s-0.7,1.8-0.7,2.8s0.2,2,0.7,2.8s1.1,1.5,1.9,1.9
	c0.8,0.5,1.8,0.7,2.8,0.7c1.1,0,2.1-0.2,3-0.7v-5.1H76.8z M87.3,89.3c0.5-0.6,1.1-1.1,1.8-1.4c0.8-0.3,1.7-0.5,2.7-0.5v3.5
	c-0.4,0-0.7,0-0.8,0c-1.1,0-1.9,0.3-2.5,0.9s-0.9,1.5-0.9,2.7v6.1h-3.8v-13h3.6L87.3,89.3L87.3,89.3z M99.2,87.4
	c2,0,3.6,0.5,4.6,1.4c1.1,0.9,1.6,2.4,1.6,4.3v7.4h-3.5v-1.6c-0.7,1.2-2,1.8-4,1.8c-1,0-1.9-0.2-2.6-0.5s-1.3-0.8-1.7-1.4
	c-0.4-0.6-0.6-1.3-0.6-2c0-1.2,0.5-2.2,1.4-2.8c0.9-0.7,2.3-1,4.2-1h3c0-0.8-0.2-1.4-0.7-1.9s-1.2-0.7-2.2-0.7
	c-0.7,0-1.4,0.1-2.1,0.3c-0.7,0.2-1.2,0.5-1.7,0.9L93.5,89c0.7-0.5,1.6-0.9,2.5-1.2C97.1,87.5,98.1,87.4,99.2,87.4z M98.9,98.2
	c0.6,0,1.2-0.1,1.7-0.4s0.9-0.7,1.1-1.3v-1.3h-2.6c-1.5,0-2.3,0.5-2.3,1.5c0,0.5,0.2,0.9,0.6,1.2C97.7,98.1,98.2,98.2,98.9,98.2z
	 M116.5,87.4c1.2,0,2.3,0.3,3.3,0.8s1.8,1.3,2.3,2.3c0.6,1,0.8,2.2,0.8,3.5s-0.3,2.5-0.8,3.5c-0.6,1-1.3,1.8-2.3,2.3
	s-2.1,0.8-3.3,0.8c-1.7,0-3-0.5-3.9-1.6v6.1h-3.8V87.6h3.6v1.5C113.4,88,114.7,87.4,116.5,87.4z M115.9,97.7c1,0,1.8-0.3,2.4-1
	s0.9-1.5,0.9-2.6s-0.3-2-0.9-2.6c-0.6-0.7-1.4-1-2.4-1s-1.8,0.3-2.4,1c-0.6,0.6-0.9,1.5-0.9,2.6s0.3,2,0.9,2.6
	S114.9,97.7,115.9,97.7z M133.4,87.4c1.6,0,2.9,0.5,3.9,1.4c1,1,1.5,2.4,1.5,4.3v7.4H135v-6.9c0-1-0.2-1.8-0.7-2.3s-1.1-0.8-2-0.8
	s-1.7,0.3-2.3,0.9s-0.8,1.4-0.8,2.6v6.4h-3.8V82.7h3.8V89c0.5-0.5,1.1-0.9,1.8-1.1C131.8,87.5,132.6,87.4,133.4,87.4z M142.2,87.6
	h3.8v13h-3.8V87.6z M144.1,85.8c-0.7,0-1.3-0.2-1.7-0.6s-0.7-0.9-0.7-1.5s0.2-1.1,0.7-1.5c0.4-0.4,1-0.6,1.7-0.6s1.3,0.2,1.7,0.6
	s0.7,0.9,0.7,1.4c0,0.6-0.2,1.2-0.7,1.6S144.8,85.8,144.1,85.8z M155.7,100.8c-1.4,0-2.6-0.3-3.7-0.8c-1.1-0.6-2-1.4-2.6-2.4
	s-0.9-2.2-0.9-3.5s0.3-2.4,0.9-3.5c0.6-1,1.5-1.8,2.6-2.4s2.4-0.9,3.7-0.9c1.4,0,2.6,0.3,3.6,0.9s1.8,1.4,2.2,2.4l-2.9,1.6
	c-0.7-1.2-1.6-1.8-2.9-1.8c-1,0-1.8,0.3-2.4,1c-0.6,0.6-1,1.5-1,2.6s0.3,2,1,2.6c0.6,0.6,1.5,1,2.4,1c1.3,0,2.3-0.6,2.9-1.8l2.9,1.6
	c-0.5,1-1.2,1.8-2.2,2.4C158.3,100.5,157.1,100.8,155.7,100.8z M170.8,83.7h7.7c1.8,0,3.5,0.4,4.9,1.1s2.5,1.7,3.3,2.9
	c0.8,1.3,1.2,2.8,1.2,4.4s-0.4,3.2-1.2,4.4c-0.8,1.3-1.9,2.3-3.3,3c-1.4,0.7-3,1-4.9,1h-7.7V83.7z M178.3,97.4c1.7,0,3-0.5,4-1.4
	s1.5-2.2,1.5-3.8s-0.5-2.9-1.5-3.8s-2.3-1.4-4-1.4h-3.6v10.5L178.3,97.4L178.3,97.4z M203.2,94.1c0,0,0,0.4-0.1,1h-9.8
	c0.2,0.8,0.6,1.4,1.3,1.9s1.5,0.7,2.5,0.7c0.7,0,1.3-0.1,1.8-0.3c0.5-0.2,1-0.5,1.5-1l2,2.2c-1.2,1.4-3,2.1-5.4,2.1
	c-1.5,0-2.8-0.3-3.9-0.8c-1.1-0.6-2-1.4-2.6-2.4s-0.9-2.2-0.9-3.5s0.3-2.4,0.9-3.4c0.6-1,1.4-1.8,2.5-2.4s2.2-0.9,3.5-0.9
	s2.4,0.3,3.5,0.8c1,0.5,1.8,1.3,2.4,2.4C202.9,91.6,203.2,92.8,203.2,94.1z M196.5,90.2c-0.9,0-1.6,0.2-2.1,0.7
	c-0.6,0.5-0.9,1.1-1.1,2h6.4c-0.1-0.8-0.5-1.5-1.1-2C198,90.5,197.3,90.2,196.5,90.2z M210.1,100.8c-1.1,0-2.1-0.1-3.2-0.4
	c-1-0.3-1.8-0.6-2.5-1l1.3-2.7c0.6,0.4,1.3,0.7,2.1,0.9c0.8,0.2,1.6,0.3,2.4,0.3c1.6,0,2.4-0.4,2.4-1.2c0-0.4-0.2-0.6-0.7-0.8
	c-0.4-0.2-1.1-0.3-2-0.4c-1.1-0.2-1.9-0.3-2.6-0.6c-0.7-0.2-1.3-0.6-1.8-1.1s-0.7-1.3-0.7-2.3c0-0.8,0.2-1.5,0.7-2.2
	c0.5-0.6,1.2-1.1,2.1-1.5c0.9-0.4,2-0.5,3.2-0.5c0.9,0,1.8,0.1,2.7,0.3c0.9,0.2,1.7,0.5,2.3,0.8l-1.3,2.7c-1.1-0.6-2.4-1-3.7-1
	c-0.8,0-1.4,0.1-1.8,0.3c-0.4,0.2-0.6,0.5-0.6,0.9s0.2,0.7,0.7,0.8s1.1,0.3,2.1,0.5c1.1,0.2,1.9,0.4,2.6,0.6
	c0.7,0.2,1.3,0.6,1.8,1.1s0.7,1.3,0.7,2.2c0,0.8-0.2,1.5-0.7,2.1s-1.2,1.1-2.1,1.5C212.4,100.6,211.4,100.8,210.1,100.8z
	 M218.5,87.6h3.8v13h-3.8V87.6z M220.4,85.8c-0.7,0-1.3-0.2-1.7-0.6s-0.7-0.9-0.7-1.5s0.2-1.1,0.7-1.5c0.4-0.4,1-0.6,1.7-0.6
	s1.3,0.2,1.7,0.6s0.7,0.9,0.7,1.4c0,0.6-0.2,1.2-0.7,1.6C221.7,85.6,221.1,85.8,220.4,85.8z M239.2,87.6v10.8c0,2.4-0.6,4.2-1.9,5.3
	c-1.2,1.2-3,1.7-5.4,1.7c-1.3,0-2.4-0.2-3.6-0.5c-1.1-0.3-2.1-0.7-2.8-1.3l1.5-2.7c0.5,0.5,1.2,0.8,2.1,1.1c0.8,0.3,1.7,0.4,2.5,0.4
	c1.3,0,2.3-0.3,2.9-0.9c0.6-0.6,0.9-1.5,0.9-2.7v-0.5c-1,1.1-2.3,1.6-4.1,1.6c-1.2,0-2.3-0.3-3.3-0.8s-1.8-1.3-2.3-2.2
	c-0.6-0.9-0.9-2-0.9-3.3s0.3-2.3,0.9-3.3s1.4-1.7,2.3-2.2c1-0.5,2.1-0.8,3.3-0.8c1.9,0,3.3,0.6,4.3,1.9v-1.7h3.6V87.6z M232.1,96.9
	c1,0,1.8-0.3,2.4-0.9c0.6-0.6,1-1.4,1-2.3s-0.3-1.7-1-2.3c-0.6-0.6-1.4-0.9-2.4-0.9s-1.8,0.3-2.5,0.9c-0.6,0.6-1,1.3-1,2.3
	s0.3,1.7,1,2.3C230.2,96.6,231.1,96.9,232.1,96.9z M250.6,87.4c1.6,0,2.9,0.5,3.9,1.4c1,1,1.5,2.4,1.5,4.3v7.4h-3.8v-6.9
	c0-1-0.2-1.8-0.7-2.3s-1.1-0.8-2-0.8s-1.7,0.3-2.3,0.9s-0.8,1.4-0.8,2.6v6.4h-3.8v-13h3.6v1.5c0.5-0.5,1.1-1,1.9-1.3
	C248.9,87.5,249.7,87.4,250.6,87.4z"/>
</svg>
