<?xml version="1.0" encoding="utf-8"?>
<!-- Generator: Adobe Illustrator 27.2.0, SVG Export Plug-In . SVG Version: 6.00 Build 0)  -->
<svg version="1.1" id="Capa_1" xmlns="http://www.w3.org/2000/svg" xmlns:xlink="http://www.w3.org/1999/xlink" x="0px" y="0px"
	 viewBox="0 0 266 167" style="enable-background:new 0 0 266 167;" xml:space="preserve">
<style type="text/css">
	.st0{fill:#FC441E;}
	.st1{fill:#F5F4F2;}
</style>
<rect class="st0" width="266" height="167"/>
<ellipse transform="matrix(0.9237 -0.3831 0.3831 0.9237 -21.3751 57.3694)" class="st1" cx="133.3" cy="82.3" rx="140.4" ry="63.3"/>
<path class="st0" d="M82.9,79.6v3.7h6.5v2.6h-6.5V91h-3.2V77h10.6v2.6H82.9z M95,81.7c0.4-0.5,0.9-0.9,1.5-1.2
	c0.6-0.3,1.4-0.4,2.2-0.4V83c-0.3,0-0.6,0-0.7,0c-0.9,0-1.6,0.3-2.1,0.8c-0.5,0.5-0.8,1.2-0.8,2.2V91H92V80.2h3V81.7z M105.6,91.2
	c-1.1,0-2.2-0.2-3.1-0.7c-0.9-0.5-1.6-1.1-2.1-2c-0.5-0.8-0.8-1.8-0.8-2.9c0-1.1,0.3-2,0.8-2.9c0.5-0.8,1.2-1.5,2.1-2
	c0.9-0.5,1.9-0.7,3.1-0.7c1.1,0,2.1,0.2,3,0.7c0.9,0.5,1.6,1.1,2.1,2c0.5,0.8,0.8,1.8,0.8,2.9c0,1.1-0.3,2-0.8,2.9
	c-0.5,0.8-1.2,1.5-2.1,2C107.7,90.9,106.7,91.2,105.6,91.2z M105.6,88.6c0.8,0,1.5-0.3,2-0.8c0.5-0.5,0.8-1.3,0.8-2.2
	c0-0.9-0.3-1.6-0.8-2.2c-0.5-0.5-1.2-0.8-2-0.8s-1.5,0.3-2,0.8c-0.5,0.5-0.8,1.3-0.8,2.2c0,0.9,0.3,1.6,0.8,2.2
	C104.1,88.3,104.8,88.6,105.6,88.6z M120.1,80.1c1.3,0,2.4,0.4,3.2,1.2c0.8,0.8,1.2,2,1.2,3.6V91h-3.1v-5.7c0-0.9-0.2-1.5-0.6-1.9
	c-0.4-0.4-0.9-0.6-1.6-0.6c-0.8,0-1.4,0.2-1.9,0.7c-0.5,0.5-0.7,1.2-0.7,2.2V91h-3.1V80.2h3v1.3c0.4-0.5,0.9-0.8,1.5-1
	C118.7,80.2,119.4,80.1,120.1,80.1z M134.3,90.5c-0.3,0.2-0.7,0.4-1.1,0.5c-0.4,0.1-0.9,0.2-1.4,0.2c-1.3,0-2.3-0.3-3-1
	c-0.7-0.7-1-1.6-1-2.9v-4.4h-1.7v-2.4h1.7v-2.6h3.1v2.6h2.7v2.4h-2.7v4.4c0,0.5,0.1,0.8,0.3,1.1c0.2,0.2,0.6,0.4,1,0.4
	c0.5,0,0.9-0.1,1.3-0.4L134.3,90.5z M135.5,84.1h5.7v2.5h-5.7V84.1z M154.3,85.7c0,0,0,0.3-0.1,0.8h-8.1c0.1,0.7,0.5,1.2,1,1.6
	c0.5,0.4,1.2,0.6,2,0.6c0.6,0,1.1-0.1,1.5-0.2c0.4-0.2,0.8-0.4,1.2-0.8l1.7,1.8c-1,1.2-2.5,1.7-4.4,1.7c-1.2,0-2.3-0.2-3.2-0.7
	c-0.9-0.5-1.7-1.1-2.2-2c-0.5-0.8-0.8-1.8-0.8-2.9c0-1.1,0.2-2,0.7-2.8c0.5-0.9,1.2-1.5,2.1-2c0.9-0.5,1.9-0.7,2.9-0.7
	c1.1,0,2,0.2,2.9,0.7c0.9,0.5,1.5,1.1,2,2C154.1,83.6,154.3,84.5,154.3,85.7z M148.8,82.4c-0.7,0-1.3,0.2-1.8,0.6
	c-0.5,0.4-0.8,0.9-0.9,1.6h5.3c-0.1-0.7-0.4-1.2-0.9-1.6C150,82.6,149.4,82.4,148.8,82.4z M163,80.1c1.3,0,2.4,0.4,3.2,1.2
	c0.8,0.8,1.2,2,1.2,3.6V91h-3.1v-5.7c0-0.9-0.2-1.5-0.6-1.9c-0.4-0.4-0.9-0.6-1.6-0.6c-0.8,0-1.4,0.2-1.9,0.7
	c-0.5,0.5-0.7,1.2-0.7,2.2V91h-3.1V80.2h3v1.3c0.4-0.5,0.9-0.8,1.5-1C161.5,80.2,162.2,80.1,163,80.1z M181.3,76.2V91h-3v-1.2
	c-0.8,0.9-1.9,1.4-3.4,1.4c-1,0-1.9-0.2-2.8-0.7c-0.8-0.5-1.5-1.1-1.9-1.9c-0.5-0.8-0.7-1.8-0.7-2.9c0-1.1,0.2-2.1,0.7-2.9
	c0.5-0.8,1.1-1.5,1.9-1.9c0.8-0.5,1.7-0.7,2.8-0.7c1.4,0,2.4,0.4,3.2,1.3v-5.2H181.3z M175.5,88.6c0.8,0,1.4-0.3,2-0.8
	c0.5-0.5,0.8-1.3,0.8-2.2c0-0.9-0.3-1.6-0.8-2.2c-0.5-0.5-1.2-0.8-2-0.8c-0.8,0-1.5,0.3-2,0.8c-0.5,0.5-0.8,1.3-0.8,2.2
	c0,0.9,0.3,1.6,0.8,2.2C174.1,88.3,174.7,88.6,175.5,88.6z"/>
</svg>
