<?xml version="1.0" encoding="utf-8"?>
<!-- Generator: Adobe Illustrator 27.2.0, SVG Export Plug-In . SVG Version: 6.00 Build 0)  -->
<svg version="1.1" id="Capa_1" xmlns="http://www.w3.org/2000/svg" xmlns:xlink="http://www.w3.org/1999/xlink" x="0px" y="0px"
	 viewBox="0 0 266 160" style="enable-background:new 0 0 266 160;" xml:space="preserve">
<style type="text/css">
	.st0{fill:#FC441E;}
	.st1{fill:#F5F4F2;}
</style>
<rect class="st0" width="266" height="160"/>
<path class="st1" d="M0,160.5c0-11.6,3.4-23.1,10.1-33.9c6.7-10.7,16.5-20.5,28.8-28.7c12.4-8.2,27-14.7,43.1-19.2
	C98.2,74.3,115.5,72,133,72s34.8,2.3,50.9,6.7c16.1,4.4,30.8,11,43.1,19.2c12.4,8.2,22.1,18,28.8,28.7c6.7,10.7,10.1,22.2,10.1,33.9
	H133H0z"/>
<path class="st1" d="M83.4,32.6H79V30h12.2v2.6h-4.5V44h-3.2V32.6z M102.1,38.7c0,0,0,0.3-0.1,0.8h-8.1c0.1,0.7,0.5,1.2,1,1.6
	c0.5,0.4,1.2,0.6,2,0.6c0.6,0,1.1-0.1,1.5-0.2c0.4-0.2,0.8-0.4,1.2-0.8l1.7,1.8c-1,1.2-2.5,1.7-4.4,1.7c-1.2,0-2.3-0.2-3.2-0.7
	c-0.9-0.5-1.7-1.1-2.2-2c-0.5-0.8-0.8-1.8-0.8-2.9c0-1.1,0.2-2,0.7-2.8c0.5-0.9,1.2-1.5,2.1-2c0.9-0.5,1.9-0.7,2.9-0.7
	c1.1,0,2,0.2,2.9,0.7c0.9,0.5,1.5,1.1,2,2C101.9,36.6,102.1,37.5,102.1,38.7z M96.6,35.4c-0.7,0-1.3,0.2-1.8,0.6
	c-0.5,0.4-0.8,0.9-0.9,1.6h5.3c-0.1-0.7-0.4-1.2-0.9-1.6C97.8,35.6,97.2,35.4,96.6,35.4z M104.2,29.2h3.1V44h-3.1V29.2z M120.8,38.7
	c0,0,0,0.3-0.1,0.8h-8.1c0.1,0.7,0.5,1.2,1,1.6c0.5,0.4,1.2,0.6,2,0.6c0.6,0,1.1-0.1,1.5-0.2c0.4-0.2,0.8-0.4,1.2-0.8l1.7,1.8
	c-1,1.2-2.5,1.7-4.4,1.7c-1.2,0-2.3-0.2-3.2-0.7c-0.9-0.5-1.7-1.1-2.2-2c-0.5-0.8-0.8-1.8-0.8-2.9c0-1.1,0.2-2,0.7-2.8
	c0.5-0.9,1.2-1.5,2.1-2c0.9-0.5,1.9-0.7,2.9-0.7c1.1,0,2,0.2,2.9,0.7c0.9,0.5,1.5,1.1,2,2C120.5,36.6,120.8,37.5,120.8,38.7z
	 M115.2,35.4c-0.7,0-1.3,0.2-1.8,0.6c-0.5,0.4-0.8,0.9-0.9,1.6h5.3c-0.1-0.7-0.4-1.2-0.9-1.6C116.5,35.6,115.9,35.4,115.2,35.4z
	 M126.3,33.5h2.8v2.4h-2.7V44h-3.1v-8.1h-1.7v-2.4h1.7V33c0-1.2,0.4-2.2,1.1-2.9c0.7-0.7,1.8-1.1,3.1-1.1c0.5,0,0.9,0.1,1.3,0.2
	c0.4,0.1,0.8,0.2,1.1,0.4l-0.8,2.3c-0.4-0.3-0.8-0.4-1.3-0.4c-0.9,0-1.4,0.5-1.4,1.6V33.5z M135.6,44.2c-1.1,0-2.2-0.2-3.1-0.7
	c-0.9-0.5-1.6-1.1-2.1-2c-0.5-0.8-0.8-1.8-0.8-2.9s0.3-2,0.8-2.9c0.5-0.8,1.2-1.5,2.1-2c0.9-0.5,1.9-0.7,3.1-0.7
	c1.1,0,2.1,0.2,3,0.7c0.9,0.5,1.6,1.1,2.1,2c0.5,0.8,0.8,1.8,0.8,2.9s-0.3,2-0.8,2.9c-0.5,0.8-1.2,1.5-2.1,2
	C137.7,43.9,136.7,44.2,135.6,44.2z M135.6,41.6c0.8,0,1.5-0.3,2-0.8c0.5-0.5,0.8-1.3,0.8-2.2s-0.3-1.6-0.8-2.2
	c-0.5-0.5-1.2-0.8-2-0.8c-0.8,0-1.5,0.3-2,0.8c-0.5,0.5-0.8,1.3-0.8,2.2s0.3,1.6,0.8,2.2C134.1,41.3,134.8,41.6,135.6,41.6z
	 M136.4,29h3.4l-3.6,2.9h-2.4L136.4,29z M150.1,33.1c1.3,0,2.4,0.4,3.2,1.2c0.8,0.8,1.2,2,1.2,3.6V44h-3.1v-5.7
	c0-0.9-0.2-1.5-0.6-1.9c-0.4-0.4-0.9-0.6-1.6-0.6c-0.8,0-1.4,0.2-1.9,0.7c-0.5,0.5-0.7,1.2-0.7,2.2V44h-3.1V33.2h3v1.3
	c0.4-0.5,0.9-0.8,1.5-1C148.7,33.2,149.4,33.1,150.1,33.1z M157.4,33.2h3.1V44h-3.1V33.2z M158.9,31.7c-0.6,0-1-0.2-1.4-0.5
	S157,30.5,157,30s0.2-0.9,0.5-1.2s0.8-0.5,1.4-0.5c0.6,0,1,0.2,1.4,0.5s0.5,0.7,0.5,1.2c0,0.5-0.2,1-0.5,1.3
	C160,31.6,159.5,31.7,158.9,31.7z M168.6,44.2c-1.1,0-2.2-0.2-3.1-0.7c-0.9-0.5-1.6-1.1-2.1-2c-0.5-0.8-0.8-1.8-0.8-2.9
	s0.3-2,0.8-2.9c0.5-0.8,1.2-1.5,2.1-2c0.9-0.5,2-0.7,3.1-0.7c1.1,0,2.1,0.2,3,0.7c0.9,0.5,1.5,1.1,1.9,2l-2.4,1.3
	c-0.6-1-1.4-1.5-2.4-1.5c-0.8,0-1.5,0.3-2,0.8c-0.5,0.5-0.8,1.3-0.8,2.2c0,0.9,0.3,1.6,0.8,2.2c0.5,0.5,1.2,0.8,2,0.8
	c1.1,0,1.9-0.5,2.4-1.5l2.4,1.3c-0.4,0.9-1,1.5-1.9,2C170.7,43.9,169.7,44.2,168.6,44.2z M179.6,33.1c1.7,0,2.9,0.4,3.8,1.2
	c0.9,0.8,1.3,2,1.3,3.6V44h-2.9v-1.3c-0.6,1-1.7,1.5-3.3,1.5c-0.8,0-1.5-0.1-2.2-0.4c-0.6-0.3-1.1-0.7-1.4-1.2
	c-0.3-0.5-0.5-1.1-0.5-1.7c0-1,0.4-1.8,1.1-2.4c0.8-0.6,1.9-0.9,3.5-0.9h2.5c0-0.7-0.2-1.2-0.6-1.6c-0.4-0.4-1-0.6-1.9-0.6
	c-0.6,0-1.1,0.1-1.7,0.3c-0.5,0.2-1,0.4-1.4,0.7l-1.1-2.2c0.6-0.4,1.3-0.7,2.1-1C177.8,33.2,178.7,33.1,179.6,33.1z M179.3,42.1
	c0.5,0,1-0.1,1.4-0.4c0.4-0.3,0.7-0.6,0.9-1.1v-1.1h-2.1c-1.3,0-1.9,0.4-1.9,1.3c0,0.4,0.2,0.7,0.5,1
	C178.3,41.9,178.8,42.1,179.3,42.1z"/>
</svg>
