<?xml version="1.0" encoding="utf-8"?>
<!-- Generator: Adobe Illustrator 27.2.0, SVG Export Plug-In . SVG Version: 6.00 Build 0)  -->
<svg version="1.1" id="Capa_1" xmlns="http://www.w3.org/2000/svg" xmlns:xlink="http://www.w3.org/1999/xlink" x="0px" y="0px"
	 viewBox="0 0 266 121.5" style="enable-background:new 0 0 266 121.5;" xml:space="preserve">
<style type="text/css">
	.st0{fill:#FC441E;}
	.st1{fill:#F5F4F2;}
</style>
<path class="st0" d="M266,0c0,16-3.4,31.8-10.1,46.5c-6.7,14.7-16.5,28.1-28.8,39.4c-12.3,11.3-27,20.2-43.1,26.3
	c-16.1,6.1-33.4,9.2-50.9,9.2s-34.8-3.1-50.9-9.2C66,106.1,51.3,97.2,39,85.9C26.6,74.6,16.8,61.2,10.1,46.5C3.4,31.8,0,16,0,0h133
	H266z"/>
<path class="st1" d="M110.7,62.7c-2,0-3.6-0.6-4.7-1.7c-1.1-1.1-1.7-2.7-1.7-4.7v-7.8h3.2v7.7c0,2.5,1,3.8,3.1,3.8
	c1,0,1.8-0.3,2.3-0.9c0.5-0.6,0.8-1.6,0.8-2.9v-7.7h3.2v7.8c0,2.1-0.6,3.6-1.7,4.7C114.3,62.2,112.7,62.7,110.7,62.7z M128.9,62.5
	l-3.4-4.9l-3.3,4.9h-3.7l5.2-7.1l-4.9-6.9h3.7l3.2,4.5l3.2-4.5h3.5l-4.9,6.8l5.2,7.2H128.9z M138.9,45.7h2.8l-6.6,18.8h-2.8
	L138.9,45.7z M148.7,62.7c-2,0-3.6-0.6-4.7-1.7c-1.1-1.1-1.7-2.7-1.7-4.7v-7.8h3.2v7.7c0,2.5,1,3.8,3.1,3.8c1,0,1.8-0.3,2.3-0.9
	c0.5-0.6,0.8-1.6,0.8-2.9v-7.7h3.2v7.8c0,2.1-0.6,3.6-1.7,4.7C152.2,62.2,150.7,62.7,148.7,62.7z M158.2,48.5h3.2v14h-3.2V48.5z"/>
</svg>
