<svg width="53" height="44" viewBox="0 0 53 44" fill="none" xmlns="http://www.w3.org/2000/svg">
<path d="M0 6.80974H12.3887V10.4757H0V6.80974ZM0 0H12.3887V3.66593H0V0ZM22.2313 13.5661H0V17.2321H21.3987C23.7396 17.2321 29.2074 17.2854 31.2369 20.587V18.5429C30.2475 15.2947 27.3325 13.5661 22.2313 13.5661ZM22.2821 20.3759H0V24.0418H21.3987C26.6038 24.0418 29.8832 24.2529 31.2369 24.9861V23.3619C30.1967 20.7958 25.8242 20.3759 22.2821 20.3759ZM22.2313 37.6613H0V33.9976H21.3987C23.7396 33.9976 29.2074 33.9443 31.2369 30.6449V32.689C30.2475 35.935 27.3325 37.6657 22.2313 37.6657V37.6613ZM22.2821 30.8515H0V27.1856H21.3987C26.6038 27.1856 29.8832 26.9768 31.2369 26.2436V27.8655C30.1967 30.4339 25.8242 30.8515 22.2821 30.8515ZM36.6517 44H53V41.7471H37.1221C35.7154 41.7471 32.383 41.696 31.1861 39.7564V41.0139C31.7602 42.9513 33.5269 44 36.6517 44ZM36.6009 39.8608H52.9492V37.6102H37.1221C33.9443 37.6102 31.9678 37.5058 31.1861 37.0325V38.0279C31.811 39.6009 34.4655 39.8608 36.6009 39.8608Z" fill="#FC441E"/>
</svg>
