<svg width="16" height="16" viewBox="0 0 16 16" fill="none" xmlns="http://www.w3.org/2000/svg">
<path d="M0.334491 8.80753C-0.111498 8.36155 -0.111497 7.63845 0.334492 7.19247L7.19247 0.334491C7.63846 -0.111498 8.36155 -0.111497 8.80753 0.334492L15.6655 7.19247C16.1115 7.63846 16.1115 8.36155 15.6655 8.80753L8.80753 15.6655C8.36155 16.1115 7.63845 16.1115 7.19247 15.6655L0.334491 8.80753Z" fill="#FC441E"/>
<path d="M5.7996 1.74951L5.10512 2.44399L6.89878 4.23765C6.82623 4.39332 6.78571 4.56693 6.78571 4.75C6.78571 5.26977 7.11228 5.71326 7.57143 5.88649V10.2742C7.11228 10.4475 6.78571 10.8909 6.78571 11.4107C6.78571 12.0813 7.32937 12.625 8 12.625C8.67063 12.625 9.21429 12.0813 9.21429 11.4107C9.21429 10.9395 8.94586 10.5309 8.55357 10.3297V5.89244L10.2682 7.60703C10.1991 7.75954 10.1607 7.92885 10.1607 8.10714C10.1607 8.77777 10.7044 9.32143 11.375 9.32143C12.0456 9.32143 12.5893 8.77777 12.5893 8.10714C12.5893 7.43651 12.0456 6.89286 11.375 6.89286C11.2447 6.89286 11.1192 6.91339 11.0015 6.95139L9.16005 5.10996C9.1953 4.99622 9.21429 4.87533 9.21429 4.75C9.21429 4.07937 8.67063 3.53571 8 3.53571C7.87467 3.53571 7.75378 3.5547 7.64004 3.58995L5.7996 1.74951Z" fill="#F5F4F2"/>
</svg>
