<?xml version="1.0" encoding="utf-8"?>
<!-- Generator: Adobe Illustrator 27.2.0, SVG Export Plug-In . SVG Version: 6.00 Build 0)  -->
<svg version="1.1" id="Capa_1" xmlns="http://www.w3.org/2000/svg" xmlns:xlink="http://www.w3.org/1999/xlink" x="0px" y="0px"
	 viewBox="0 0 44 44" style="enable-background:new 0 0 44 44;" xml:space="preserve">
<style type="text/css">
	.st0{fill:#F5F4F2;}
</style>
<g>
	<path class="st0" d="M1,43C1,29,1,15,1,1c14,0,28,0,42,0c0,14,0,28,0,42c0,0,0,0-0.1,0c-0.1-0.1-0.1,0-0.2,0C28.8,43,14.9,43,1,43z
		 M29.1,15.7L29.1,15.7c-0.1,0-0.1,0-0.1,0l0,0c0,0-0.1,0-0.1,0c-0.2,0-0.4,0.1-0.6,0.2c-0.5,0.2-1.1,0.4-1.6,0.7
		C26,17,25.4,17.4,24.9,18c-0.3,0.3-0.6,0.7-0.9,1.1c0,0,0,0,0,0.1c0,0,0,0-0.1,0c0,0-0.1,0-0.1-0.1c0,0,0-0.1,0-0.1
		c0-0.8,0-1.7,0-2.5c0-0.1,0-0.1,0-0.2c0-0.2-0.1-0.2-0.3-0.3c-0.1,0-0.2,0-0.3,0c-1.2,0-2.3,0-3.5,0c-0.8,0-1.6,0-2.3,0
		c-0.1,0-0.1,0-0.2,0c-0.2,0-0.3,0.1-0.3,0.3c0,0.1,0,0.3,0,0.4c0,1.3,0,2.6,0,3.9c0,0.5,0,1,0,1.5c0,3.7,0,7.3,0,11
		c0,1.8,0,3.6,0,5.4c0,0.1,0,0.2,0,0.2c0,0.2,0.1,0.2,0.3,0.3c0.1,0,0.1,0,0.2,0c0.4,0,0.7,0,1.1,0c0.1,0,0.1,0,0.2,0
		c1.1,0,2.2,0,3.3,0c0.2,0,0.4,0,0.5,0c0.2,0,0.5,0,0.7,0c0.2,0,0.3,0,0.5,0c0.2,0,0.3-0.1,0.3-0.3c0-0.1,0-0.2,0-0.3
		c0-0.5,0-1,0-1.6c0-0.6,0-1.2,0-1.8c0-2.7,0-5.3,0-8c0-0.7,0.1-1.3,0.2-1.9c0.1-0.6,0.3-1.1,0.6-1.6c0.1-0.2,0.2-0.3,0.3-0.5
		c0.1-0.1,0.2-0.2,0.3-0.3c0.1-0.1,0.2-0.2,0.3-0.3c0.2-0.2,0.4-0.3,0.7-0.4c0.4-0.2,0.7-0.3,1.1-0.3c0,0,0.1,0,0.1,0
		c0,0,0.1,0,0.1,0c0.1,0,0.1,0,0.1,0c0.3,0,0.6,0,0.8,0c0,0,0.1,0,0.1,0c0,0,0.1,0,0.1,0c0,0,0.1,0,0.1,0c0.2,0,0.4,0.1,0.6,0.1
		c0.3,0.1,0.6,0.2,0.8,0.4c0.4,0.4,0.8,0.8,1,1.3c0.3,0.7,0.4,1.5,0.5,2.3c0,0.6,0,1.1,0,1.7c0,2.6,0,5.3,0,7.9c0,0.6,0,1.3,0,1.9
		c0,0.4,0,0.7,0,1.1c0,0.2,0.1,0.4,0.4,0.4c0,0,0,0,0.1,0c0.4,0,0.8,0,1.2,0c0,0,0.1,0,0.1,0c1.2,0,2.5,0,3.7,0c0,0,0.1,0,0.1,0
		c0.3,0,0.7,0,1,0c0.1,0,0.2,0,0.3,0c0.3,0,0.4-0.1,0.4-0.4c0-0.1,0-0.1,0-0.2c0-0.3,0-0.7,0-1c0-1.5,0-3,0-4.5c0-1.6,0-3.2,0-4.8
		c0-1,0-1.9,0-2.9c0-0.5,0-1.1-0.1-1.6c0,0,0,0,0-0.1c0-0.2,0-0.4-0.1-0.5c-0.1-0.5-0.1-0.9-0.2-1.4c0-0.1,0-0.2,0-0.3
		c-0.1-0.2-0.1-0.4-0.1-0.5c0-0.1-0.1-0.3-0.1-0.4c-0.1-0.2-0.2-0.5-0.3-0.7c-0.1-0.2-0.1-0.3-0.2-0.5c-0.1-0.2-0.2-0.4-0.3-0.6
		c-0.3-0.4-0.5-0.8-0.9-1.1c-0.2-0.2-0.3-0.3-0.5-0.5c-0.3-0.3-0.7-0.5-1.1-0.7c-0.2-0.1-0.3-0.2-0.4-0.2c-0.3-0.1-0.6-0.3-1-0.3
		c0,0-0.1,0-0.1,0c-0.1,0-0.2,0-0.3-0.1c-0.2-0.1-0.5-0.1-0.7-0.2c0,0-0.1,0-0.1,0c-0.4-0.1-0.8-0.1-1.2-0.1c-0.1,0-0.2,0-0.3,0
		c-0.3,0-0.6,0-0.9,0c-0.1,0-0.1,0-0.2,0c-0.2,0-0.3,0-0.4,0c0,0,0,0,0,0c-0.1,0-0.1,0-0.2,0l0,0c-0.1,0-0.1,0-0.2,0c0,0,0,0-0.1,0
		C29.2,15.7,29.1,15.7,29.1,15.7z M8.5,12.9c0.3,0,0.5,0,0.8,0c0.1,0,0.2,0,0.3,0c1-0.2,1.8-0.7,2.5-1.5c0.8-1,1.1-2.1,0.9-3.3
		c-0.2-1.3-1-2.3-2.2-3c-0.5-0.3-1-0.4-1.6-0.5c-0.3,0-0.5,0-0.8,0C8.1,4.7,7.7,4.8,7.2,5C5.5,5.8,4.5,7.5,4.8,9.4
		c0.2,1.2,0.8,2.2,1.8,2.9C7.2,12.7,7.8,12.9,8.5,12.9z M7,39.1c0.1,0,0.1,0,0.2,0c1.1,0,2.2,0,3.3,0c0.1,0,0.2,0,0.3,0
		c0.4,0,0.9,0,1.3,0c0,0,0.1,0,0.1,0c0.2,0,0.3-0.1,0.3-0.3c0-0.1,0-0.2,0-0.2c0-0.6,0-1.1,0-1.7c0-1.2,0-2.4,0-3.6
		c0-4.7,0-9.5,0-14.2c0-0.9,0-1.8,0-2.7c0-0.4-0.1-0.4-0.4-0.4c-0.5,0-0.9,0-1.4,0c-1.5,0-3,0-4.4,0c-0.2,0-0.4,0-0.5,0
		c-0.2,0-0.3,0.1-0.3,0.3c0,0.1,0,0.2,0,0.3c0,0.9,0,1.8,0,2.6c0,5.6,0,11.2,0,16.7c0,0.9,0,1.8,0,2.6c0,0.1,0,0.2,0,0.2
		c0,0.1,0.1,0.2,0.2,0.2c0,0,0.1,0,0.1,0C6.2,39.1,6.6,39.1,7,39.1z"/>
</g>
</svg>
