<?xml version="1.0" encoding="utf-8"?>
<!-- Generator: Adobe Illustrator 27.2.0, SVG Export Plug-In . SVG Version: 6.00 Build 0)  -->
<svg version="1.1" id="Capa_1" xmlns="http://www.w3.org/2000/svg" xmlns:xlink="http://www.w3.org/1999/xlink" x="0px" y="0px"
	 viewBox="0 0 44 44" style="enable-background:new 0 0 44 44;" xml:space="preserve">
<style type="text/css">
	.st0{fill:#F5F4F2;}
</style>
<path class="st0" d="M22,1c-5,0-9.8,1.8-13.6,5.1c-3.8,3.3-6.3,7.9-7.1,13S1.5,29.3,4,33.7s6.6,7.7,11.3,9.3c1,0.2,1.4-0.5,1.4-1
	c0-0.5,0-2.2,0-4c-5.3,1-6.6-1.3-7.1-2.5c-0.5-1.2-1.2-2.2-2.2-3c-0.7-0.4-1.8-1.4,0-1.4c0.7,0.1,1.3,0.3,1.9,0.7
	c0.6,0.4,1,0.9,1.4,1.5c0.3,0.5,0.7,1,1.1,1.4c0.5,0.4,1,0.7,1.6,0.8c0.6,0.2,1.2,0.2,1.7,0.1c0.6-0.1,1.2-0.3,1.7-0.6
	c0.1-1.1,0.6-2.1,1.3-2.9c-4.7-0.5-9.6-2.4-9.6-10.6c0-2.1,0.7-4.2,2.2-5.8c-0.6-1.9-0.6-3.9,0.2-5.7c0,0,1.8-0.6,5.8,2.2
	c3.4-1,7.1-1,10.5,0c4-2.8,5.8-2.2,5.8-2.2c0.8,1.8,0.9,3.8,0.2,5.7c1.4,1.6,2.2,3.6,2.2,5.8c0,8.3-4.9,10.1-9.6,10.6
	c0.5,0.5,0.9,1.1,1.1,1.8c0.2,0.7,0.3,1.4,0.3,2.1c0,2.9,0,5.2,0,5.9c0,0.6,0.4,1.2,1.4,1c4.7-1.6,8.7-4.9,11.3-9.3
	c2.6-4.4,3.5-9.5,2.7-14.6c-0.8-5-3.3-9.6-7.1-12.9C31.8,2.8,27,1,22,1z"/>
</svg>
