<svg width="59" height="44" viewBox="0 0 59 44" fill="none" xmlns="http://www.w3.org/2000/svg">
<path d="M50.7978 25.3154C48.9452 25.3178 47.1174 25.7395 45.4526 26.5485C44.9313 25.6875 44.5288 24.7606 44.2558 23.7928C44.099 23.0341 44.0627 22.2557 44.1484 21.4858C44.3285 20.6387 44.5621 19.8037 44.8479 18.9859C44.8373 18.8789 44.7193 18.3735 43.5331 18.3567C42.3469 18.34 41.3251 18.5811 41.2155 18.8936C41.0095 19.4644 40.8441 20.0489 40.7204 20.6427C39.7387 23.0535 38.5302 25.3666 37.1112 27.551C36.3162 26.2537 35.9892 24.7253 36.1842 23.2181C36.3643 22.371 36.5979 21.536 36.8837 20.7182C36.8731 20.6113 36.7552 20.1058 35.569 20.089C34.3828 20.0723 33.3609 20.3135 33.2513 20.6259C33.1418 20.9384 33.0027 21.6746 32.7562 22.375C32.5097 23.0755 29.6316 29.4763 28.8774 31.1268C28.4897 31.9657 28.1547 32.6494 27.9187 33.1108C27.9075 33.1407 27.8934 33.1695 27.8766 33.1968C27.6659 33.5931 27.5542 33.8092 27.5542 33.8092V33.8196C27.392 34.1091 27.2192 34.3775 27.1328 34.3775C26.9821 33.7783 26.9894 33.1506 27.1539 32.555C27.5753 30.334 28.6077 26.882 28.5971 26.7624C28.5971 26.6974 28.791 26.0976 27.9292 25.7872C27.7294 25.6926 27.5049 25.6619 27.2869 25.6995C27.0688 25.737 26.8677 25.841 26.7114 25.997C26.6356 25.997 26.5829 26.1794 26.5829 26.1794C26.5829 26.1794 27.5205 22.2974 24.7941 22.2974C23.7324 22.51 22.7242 22.9318 21.8286 23.5379C20.9331 24.1441 20.1684 24.9224 19.5795 25.8271C18.8463 26.2235 17.285 27.0707 15.6142 27.983C14.9822 28.3375 14.3206 28.6919 13.7075 29.0317C13.6653 28.9897 13.6211 28.9352 13.579 28.8932C10.2605 25.3741 4.16098 22.891 4.42435 18.1827C4.52127 16.4671 5.11332 11.9623 16.1368 6.49057C25.2092 2.04024 32.4296 3.27341 33.679 6.00821C35.4678 9.91326 29.8107 17.1634 20.437 18.2141C19.4 18.4235 18.3289 18.3983 17.3031 18.1402C16.2772 17.8821 15.3227 17.3977 14.5102 16.723C14.0151 16.1861 13.9392 16.1546 13.7559 16.2616C13.4546 16.4231 13.6485 16.9054 13.7559 17.1844C14.1135 17.8285 14.5972 18.3948 15.1784 18.8498C15.7596 19.3047 16.4265 19.6391 17.1397 19.8332C20.8273 20.6264 24.672 20.2471 28.1315 18.7489C33.8202 16.5615 38.2448 10.4795 36.9469 5.38533C35.6427 0.215645 27.0233 -1.48941 18.8652 1.40058C13.7554 3.11208 9.03395 5.80793 4.97005 9.33442C0.475969 13.5184 -0.234066 17.1529 0.0566901 18.6776C1.11015 24.0843 8.59185 27.6013 11.5858 30.2124C11.4341 30.2984 11.295 30.3739 11.1771 30.4368C9.67903 31.1771 3.96925 34.1489 2.53865 37.2906C0.922637 40.8559 2.7978 43.404 4.03668 43.748C5.90343 44.1928 7.86312 44.0462 9.64218 43.3289C11.4212 42.6115 12.9309 41.3591 13.9603 39.7464C14.8369 38.4088 15.3758 36.8802 15.5309 35.2906C15.6861 33.7011 15.453 32.0977 14.8515 30.6172C14.8414 30.5932 14.8271 30.5712 14.8094 30.5522L15.983 29.8664C16.7478 29.4155 17.5021 28.9981 18.1489 28.6542C17.7103 29.9134 17.4528 31.2281 17.3841 32.5592C17.2351 34.5993 17.8624 36.6206 19.1412 38.2217C19.3358 38.3885 19.5617 38.5151 19.8059 38.5943C20.05 38.6735 20.3075 38.7037 20.5634 38.6831C21.8276 38.6831 22.407 37.6345 23.0412 36.3888C23.8165 34.8662 24.516 33.0961 24.516 33.0961C24.516 33.0961 23.6437 37.8799 26.014 37.8799C26.8758 37.8799 27.748 36.7642 28.1378 36.2021V36.2126C28.1378 36.2126 28.1589 36.1811 28.2031 36.1056L28.3422 35.8812V35.8603C28.6877 35.2604 29.4631 33.8972 30.6156 31.6343C32.1031 28.7171 33.5358 25.07 33.5358 25.07C33.674 25.8715 33.8647 26.6631 34.1067 27.4399C34.4538 28.3814 34.8641 29.2986 35.3351 30.1851C34.9896 30.6675 34.7746 30.936 34.7746 30.936L34.7852 30.9464C34.505 31.3114 34.2037 31.7077 33.8687 32.0936C32.872 33.1844 31.9472 34.3382 31.1002 35.5478C30.9743 35.7509 30.931 35.9942 30.9792 36.2281C31.0274 36.4619 31.1633 36.6686 31.3593 36.8061C31.8028 37.0358 32.3084 37.1189 32.8026 37.0431C33.5472 37.0012 34.2795 36.8346 34.9685 36.5503C35.6343 36.317 36.2624 35.9885 36.8331 35.575C37.4214 35.1693 37.895 34.6198 38.2083 33.9792C38.5215 33.3387 38.664 32.6286 38.6219 31.9175C38.5556 31.0216 38.3257 30.1453 37.9435 29.3316C38.0509 29.1806 38.1542 29.0317 38.2553 28.8807C39.4531 27.1009 40.5328 25.2451 41.4873 23.3251C41.6255 24.1266 41.8162 24.9182 42.0583 25.695C42.3445 26.5086 42.6968 27.2977 43.1118 28.0543C41.7337 29.1097 40.6483 30.4969 39.9577 32.0852C39.2793 34.0378 39.806 34.9165 40.8005 35.1199C41.3446 35.1573 41.8887 35.0463 42.3743 34.7991C43.0883 34.5655 43.7609 34.2215 44.3675 33.7798C45.0071 33.4041 45.5427 32.876 45.9263 32.243C46.3099 31.61 46.5294 30.8921 46.565 30.1537C46.5172 29.4166 46.35 28.6921 46.0699 28.0082C47.8884 27.301 49.8601 27.0756 51.7923 27.3539C56.9206 27.9537 57.934 31.1394 57.7402 32.4816C57.6492 32.9574 57.4571 33.4084 57.1765 33.8041C56.8959 34.1999 56.5335 34.5313 56.1136 34.776C55.7575 35.0004 55.6395 35.0759 55.6712 35.2374C55.7133 35.4744 55.8818 35.4618 56.1873 35.4198C56.9603 35.1807 57.6422 34.714 58.1432 34.0813C58.6442 33.4485 58.9408 32.6794 58.9938 31.8755C59.156 28.7297 56.1389 25.2797 50.8042 25.3112L50.7978 25.3154ZM11.2297 38.5867C9.52733 40.4322 7.15704 41.1285 6.13307 40.5392C5.03325 39.91 5.46517 37.1836 7.55525 35.229C8.79507 34.1181 10.1351 33.1233 11.5584 32.2572C11.807 32.1062 12.1736 31.8923 12.6119 31.628L12.7299 31.563L12.989 31.4015C13.3624 32.6469 13.3963 33.9687 13.0871 35.2313C12.7779 36.494 12.1369 37.652 11.2297 38.5867ZM23.6206 30.1977C23.0285 31.6343 21.7896 35.315 21.0354 35.1094C20.3885 34.9375 19.9819 32.1482 20.9068 29.3924C21.3738 28.0658 22.0541 26.8234 22.9211 25.7138C23.8481 24.6841 24.8721 24.3401 25.1186 24.7596C24.8937 26.6364 24.3888 28.4692 23.6206 30.1977ZM33.8455 35.0675C33.5969 35.1954 33.3609 35.2772 33.2534 35.2185C33.1776 35.1766 33.3609 35.0088 33.3609 35.0088C33.3609 35.0088 34.644 33.6351 35.1497 33.0143C35.4404 32.6494 35.7818 32.2216 36.1526 31.7371V31.8755C36.1526 33.5156 34.5576 34.6208 33.8476 35.0717L33.8455 35.0675ZM41.7338 33.2765C41.5505 33.1485 41.5821 32.7186 42.1973 31.3785C42.6251 30.5178 43.2227 29.7517 43.9545 29.126C44.0667 29.4435 44.1251 29.7773 44.1273 30.1138C44.1356 30.8301 43.9055 31.529 43.4729 32.1015C43.0404 32.674 42.4296 33.0878 41.7359 33.2786L41.7338 33.2765Z" fill="#FC441E"/>
</svg>
