<svg width="14" height="14" viewBox="0 0 14 14" fill="none" xmlns="http://www.w3.org/2000/svg">
<path d="M10.5009 0.558396C10.5009 0.118916 10.0088 0.11891 9.79013 0.173845C10.0963 -0.0678691 10.4553 -0.00926612 10.5829 0.0639808L13.5396 1.51373C13.8213 1.65187 14 1.9393 14 2.25428V11.7916C14 12.1108 13.8165 12.4012 13.5291 12.5372L10.7469 13.8527C10.5556 13.9351 10.14 14.1383 9.79013 13.8527C10.2275 13.9351 10.4644 13.6238 10.5009 13.4132V0.558396Z" fill="#FC441E"/>
<path d="M9.82561 0.165897C10.0577 0.120029 10.5009 0.141325 10.5009 0.558396L10.5009 3.84121L1.53679 10.6226C1.38011 10.7411 1.1596 10.7215 1.02614 10.5771L0.102266 9.57736C-0.0424679 9.42074 -0.0323412 9.1756 0.124812 9.03158L9.79013 0.173845L9.82561 0.165897Z" fill="#FC441E"/>
<path d="M10.5009 10.1853L1.53679 3.4039C1.38011 3.28537 1.1596 3.30503 1.02614 3.44944L0.102266 4.44915C-0.0424679 4.60576 -0.0323412 4.8509 0.124812 4.99493L9.79013 13.8527C10.2275 13.9351 10.4644 13.6238 10.5009 13.4132L10.5009 10.1853Z" fill="#FC441E"/>
</svg>
