<svg width="172" height="467" viewBox="0 0 172 467" fill="none" xmlns="http://www.w3.org/2000/svg">
<rect x="20" y="20" width="98" height="43" rx="21.5" fill="#EE7839"/>
<path d="M46.0347 47L43.9207 43.99C43.6594 44.0087 43.454 44.018 43.3047 44.018H40.8827V47H39.4827V37.2H43.3047C44.574 37.2 45.5727 37.5033 46.3007 38.11C47.0287 38.7167 47.3927 39.552 47.3927 40.616C47.3927 41.372 47.206 42.016 46.8327 42.548C46.4594 43.08 45.9274 43.4673 45.2367 43.71L47.5607 47H46.0347ZM43.2627 42.828C44.1494 42.828 44.826 42.6367 45.2927 42.254C45.7594 41.8713 45.9927 41.3253 45.9927 40.616C45.9927 39.9067 45.7594 39.3653 45.2927 38.992C44.826 38.6093 44.1494 38.418 43.2627 38.418H40.8827V42.828H43.2627ZM56.1646 43.332C56.1646 43.4347 56.1552 43.57 56.1366 43.738H50.1166C50.2006 44.3913 50.4852 44.9187 50.9706 45.32C51.4652 45.712 52.0766 45.908 52.8046 45.908C53.6912 45.908 54.4052 45.6093 54.9466 45.012L55.6886 45.88C55.3526 46.272 54.9326 46.5707 54.4286 46.776C53.9339 46.9813 53.3786 47.084 52.7626 47.084C51.9786 47.084 51.2832 46.9253 50.6766 46.608C50.0699 46.2813 49.5986 45.8287 49.2626 45.25C48.9359 44.6713 48.7726 44.018 48.7726 43.29C48.7726 42.5713 48.9312 41.9227 49.2486 41.344C49.5752 40.7653 50.0186 40.3173 50.5786 40C51.1479 39.6733 51.7872 39.51 52.4966 39.51C53.2059 39.51 53.8359 39.6733 54.3866 40C54.9466 40.3173 55.3806 40.7653 55.6886 41.344C56.0059 41.9227 56.1646 42.5853 56.1646 43.332ZM52.4966 40.644C51.8526 40.644 51.3112 40.84 50.8726 41.232C50.4432 41.624 50.1912 42.1373 50.1166 42.772H54.8766C54.8019 42.1467 54.5452 41.638 54.1066 41.246C53.6772 40.8447 53.1406 40.644 52.4966 40.644ZM60.1588 47.084C59.5522 47.084 58.9688 47.0047 58.4088 46.846C57.8488 46.678 57.4102 46.468 57.0928 46.216L57.6528 45.152C57.9795 45.3853 58.3762 45.572 58.8428 45.712C59.3095 45.852 59.7808 45.922 60.2568 45.922C61.4328 45.922 62.0208 45.586 62.0208 44.914C62.0208 44.69 61.9415 44.5127 61.7828 44.382C61.6242 44.2513 61.4235 44.158 61.1808 44.102C60.9475 44.0367 60.6115 43.9667 60.1728 43.892C59.5755 43.7987 59.0855 43.6913 58.7028 43.57C58.3295 43.4487 58.0075 43.2433 57.7368 42.954C57.4662 42.6647 57.3308 42.2587 57.3308 41.736C57.3308 41.064 57.6108 40.5273 58.1708 40.126C58.7308 39.7153 59.4822 39.51 60.4248 39.51C60.9195 39.51 61.4142 39.5707 61.9088 39.692C62.4035 39.8133 62.8095 39.9767 63.1268 40.182L62.5528 41.246C61.9462 40.854 61.2322 40.658 60.4108 40.658C59.8415 40.658 59.4075 40.7513 59.1088 40.938C58.8102 41.1247 58.6608 41.372 58.6608 41.68C58.6608 41.9227 58.7448 42.114 58.9128 42.254C59.0808 42.394 59.2862 42.4967 59.5288 42.562C59.7808 42.6273 60.1308 42.702 60.5788 42.786C61.1762 42.8887 61.6568 43.0007 62.0208 43.122C62.3942 43.234 62.7115 43.43 62.9728 43.71C63.2342 43.99 63.3648 44.382 63.3648 44.886C63.3648 45.558 63.0755 46.0947 62.4968 46.496C61.9275 46.888 61.1482 47.084 60.1588 47.084ZM71.7505 43.332C71.7505 43.4347 71.7412 43.57 71.7225 43.738H65.7025C65.7865 44.3913 66.0712 44.9187 66.5565 45.32C67.0512 45.712 67.6625 45.908 68.3905 45.908C69.2772 45.908 69.9912 45.6093 70.5325 45.012L71.2745 45.88C70.9385 46.272 70.5185 46.5707 70.0145 46.776C69.5198 46.9813 68.9645 47.084 68.3485 47.084C67.5645 47.084 66.8692 46.9253 66.2625 46.608C65.6558 46.2813 65.1845 45.8287 64.8485 45.25C64.5218 44.6713 64.3585 44.018 64.3585 43.29C64.3585 42.5713 64.5172 41.9227 64.8345 41.344C65.1612 40.7653 65.6045 40.3173 66.1645 40C66.7338 39.6733 67.3732 39.51 68.0825 39.51C68.7918 39.51 69.4218 39.6733 69.9725 40C70.5325 40.3173 70.9665 40.7653 71.2745 41.344C71.5918 41.9227 71.7505 42.5853 71.7505 43.332ZM68.0825 40.644C67.4385 40.644 66.8972 40.84 66.4585 41.232C66.0292 41.624 65.7772 42.1373 65.7025 42.772H70.4625C70.3878 42.1467 70.1312 41.638 69.6925 41.246C69.2632 40.8447 68.7265 40.644 68.0825 40.644ZM74.9048 40.826C75.1381 40.3967 75.4834 40.07 75.9408 39.846C76.3981 39.622 76.9534 39.51 77.6068 39.51V40.812C77.5321 40.8027 77.4294 40.798 77.2988 40.798C76.5708 40.798 75.9968 41.0173 75.5768 41.456C75.1661 41.8853 74.9608 42.5013 74.9608 43.304V47H73.6168V39.58H74.9048V40.826ZM86.13 39.58L82.882 47H81.51L78.262 39.58H79.662L82.21 45.53L84.814 39.58H86.13ZM89.8539 39.51C90.8806 39.51 91.6646 39.762 92.2059 40.266C92.7566 40.77 93.0319 41.5213 93.0319 42.52V47H91.7579V46.02C91.5339 46.3653 91.2119 46.6313 90.7919 46.818C90.3813 46.9953 89.8913 47.084 89.3219 47.084C88.4913 47.084 87.8239 46.8833 87.3199 46.482C86.8253 46.0807 86.5779 45.5533 86.5779 44.9C86.5779 44.2467 86.8159 43.724 87.2919 43.332C87.7679 42.9307 88.5239 42.73 89.5599 42.73H91.6879V42.464C91.6879 41.8853 91.5199 41.442 91.1839 41.134C90.8479 40.826 90.3533 40.672 89.6999 40.672C89.2613 40.672 88.8319 40.7467 88.4119 40.896C87.9919 41.036 87.6373 41.2273 87.3479 41.47L86.7879 40.462C87.1706 40.154 87.6279 39.9207 88.1599 39.762C88.6919 39.594 89.2566 39.51 89.8539 39.51ZM89.5459 46.048C90.0593 46.048 90.5026 45.936 90.8759 45.712C91.2493 45.4787 91.5199 45.152 91.6879 44.732V43.696H89.6159C88.4773 43.696 87.9079 44.0787 87.9079 44.844C87.9079 45.2173 88.0526 45.5113 88.3419 45.726C88.6313 45.9407 89.0326 46.048 89.5459 46.048ZM96.8071 40.826C97.0405 40.3967 97.3858 40.07 97.8431 39.846C98.3005 39.622 98.8558 39.51 99.5091 39.51V40.812C99.4345 40.8027 99.3318 40.798 99.2011 40.798C98.4731 40.798 97.8991 41.0173 97.4791 41.456C97.0685 41.8853 96.8631 42.5013 96.8631 43.304V47H95.5191V39.58H96.8071V40.826Z" fill="#FDFDFD"/>
<rect x="20" y="398" width="98" height="43" rx="21.5" fill="#E3655D"/>
<path d="M40.0913 425.112C39.1113 425.112 38.2246 424.897 37.4313 424.468C36.6473 424.029 36.0313 423.432 35.5833 422.676C35.1353 421.911 34.9113 421.052 34.9113 420.1C34.9113 419.148 35.1353 418.294 35.5833 417.538C36.0313 416.773 36.6519 416.175 37.4453 415.746C38.2386 415.307 39.1253 415.088 40.1053 415.088C40.8706 415.088 41.5706 415.219 42.2053 415.48C42.8399 415.732 43.3813 416.11 43.8293 416.614L42.9193 417.496C42.1819 416.721 41.2626 416.334 40.1613 416.334C39.4333 416.334 38.7753 416.497 38.1873 416.824C37.5993 417.151 37.1373 417.603 36.8013 418.182C36.4746 418.751 36.3113 419.391 36.3113 420.1C36.3113 420.809 36.4746 421.453 36.8013 422.032C37.1373 422.601 37.5993 423.049 38.1873 423.376C38.7753 423.703 39.4333 423.866 40.1613 423.866C41.2533 423.866 42.1726 423.474 42.9193 422.69L43.8293 423.572C43.3813 424.076 42.8353 424.459 42.1913 424.72C41.5566 424.981 40.8566 425.112 40.0913 425.112ZM48.2367 417.51C49.2634 417.51 50.0474 417.762 50.5887 418.266C51.1394 418.77 51.4147 419.521 51.4147 420.52V425H50.1407V424.02C49.9167 424.365 49.5947 424.631 49.1747 424.818C48.7641 424.995 48.2741 425.084 47.7047 425.084C46.8741 425.084 46.2067 424.883 45.7027 424.482C45.2081 424.081 44.9607 423.553 44.9607 422.9C44.9607 422.247 45.1987 421.724 45.6747 421.332C46.1507 420.931 46.9067 420.73 47.9427 420.73H50.0707V420.464C50.0707 419.885 49.9027 419.442 49.5667 419.134C49.2307 418.826 48.7361 418.672 48.0827 418.672C47.6441 418.672 47.2147 418.747 46.7947 418.896C46.3747 419.036 46.0201 419.227 45.7307 419.47L45.1707 418.462C45.5534 418.154 46.0107 417.921 46.5427 417.762C47.0747 417.594 47.6394 417.51 48.2367 417.51ZM47.9287 424.048C48.4421 424.048 48.8854 423.936 49.2587 423.712C49.6321 423.479 49.9027 423.152 50.0707 422.732V421.696H47.9987C46.8601 421.696 46.2907 422.079 46.2907 422.844C46.2907 423.217 46.4354 423.511 46.7247 423.726C47.0141 423.941 47.4154 424.048 47.9287 424.048ZM57.8639 417.51C58.8066 417.51 59.5533 417.785 60.1039 418.336C60.6639 418.877 60.9439 419.675 60.9439 420.73V425H59.5999V420.884C59.5999 420.165 59.4273 419.624 59.0819 419.26C58.7366 418.896 58.2419 418.714 57.5979 418.714C56.8699 418.714 56.2959 418.929 55.8759 419.358C55.4559 419.778 55.2459 420.385 55.2459 421.178V425H53.9019V417.58H55.1899V418.7C55.4606 418.317 55.8246 418.023 56.2819 417.818C56.7486 417.613 57.2759 417.51 57.8639 417.51ZM66.7062 425.084C65.9502 425.084 65.2736 424.921 64.6762 424.594C64.0882 424.267 63.6262 423.819 63.2902 423.25C62.9542 422.671 62.7862 422.018 62.7862 421.29C62.7862 420.562 62.9542 419.913 63.2902 419.344C63.6262 418.765 64.0882 418.317 64.6762 418C65.2736 417.673 65.9502 417.51 66.7062 417.51C67.3782 417.51 67.9756 417.645 68.4982 417.916C69.0302 418.187 69.4409 418.579 69.7302 419.092L68.7082 419.75C68.4749 419.395 68.1856 419.129 67.8402 418.952C67.4949 418.775 67.1122 418.686 66.6922 418.686C66.2069 418.686 65.7682 418.793 65.3762 419.008C64.9936 419.223 64.6902 419.531 64.4662 419.932C64.2516 420.324 64.1442 420.777 64.1442 421.29C64.1442 421.813 64.2516 422.275 64.4662 422.676C64.6902 423.068 64.9936 423.371 65.3762 423.586C65.7682 423.801 66.2069 423.908 66.6922 423.908C67.1122 423.908 67.4949 423.819 67.8402 423.642C68.1856 423.465 68.4749 423.199 68.7082 422.844L69.7302 423.488C69.4409 424.001 69.0302 424.398 68.4982 424.678C67.9756 424.949 67.3782 425.084 66.7062 425.084ZM78.0669 421.332C78.0669 421.435 78.0576 421.57 78.0389 421.738H72.0189C72.1029 422.391 72.3876 422.919 72.8729 423.32C73.3676 423.712 73.9789 423.908 74.7069 423.908C75.5936 423.908 76.3076 423.609 76.8489 423.012L77.5909 423.88C77.2549 424.272 76.8349 424.571 76.3309 424.776C75.8362 424.981 75.2809 425.084 74.6649 425.084C73.8809 425.084 73.1856 424.925 72.5789 424.608C71.9722 424.281 71.5009 423.829 71.1649 423.25C70.8382 422.671 70.6749 422.018 70.6749 421.29C70.6749 420.571 70.8336 419.923 71.1509 419.344C71.4776 418.765 71.9209 418.317 72.4809 418C73.0502 417.673 73.6896 417.51 74.3989 417.51C75.1082 417.51 75.7382 417.673 76.2889 418C76.8489 418.317 77.2829 418.765 77.5909 419.344C77.9082 419.923 78.0669 420.585 78.0669 421.332ZM74.3989 418.644C73.7549 418.644 73.2136 418.84 72.7749 419.232C72.3456 419.624 72.0936 420.137 72.0189 420.772H76.7789C76.7042 420.147 76.4476 419.638 76.0089 419.246C75.5796 418.845 75.0429 418.644 74.3989 418.644ZM79.9332 414.612H81.2772V425H79.9332V414.612ZM84.1653 425.084C83.904 425.084 83.68 424.995 83.4933 424.818C83.3067 424.631 83.2133 424.398 83.2133 424.118C83.2133 423.847 83.3067 423.623 83.4933 423.446C83.68 423.259 83.904 423.166 84.1653 423.166C84.4267 423.166 84.646 423.255 84.8233 423.432C85.0007 423.609 85.0893 423.838 85.0893 424.118C85.0893 424.398 84.996 424.631 84.8093 424.818C84.632 424.995 84.4173 425.084 84.1653 425.084ZM87.0152 414.612H88.3592V425H87.0152V414.612ZM93.6274 417.51C94.654 417.51 95.438 417.762 95.9794 418.266C96.53 418.77 96.8054 419.521 96.8054 420.52V425H95.5314V424.02C95.3074 424.365 94.9854 424.631 94.5654 424.818C94.1547 424.995 93.6647 425.084 93.0954 425.084C92.2647 425.084 91.5974 424.883 91.0934 424.482C90.5987 424.081 90.3514 423.553 90.3514 422.9C90.3514 422.247 90.5894 421.724 91.0654 421.332C91.5414 420.931 92.2974 420.73 93.3334 420.73H95.4614V420.464C95.4614 419.885 95.2934 419.442 94.9574 419.134C94.6214 418.826 94.1267 418.672 93.4734 418.672C93.0347 418.672 92.6054 418.747 92.1854 418.896C91.7654 419.036 91.4107 419.227 91.1214 419.47L90.5614 418.462C90.944 418.154 91.4014 417.921 91.9334 417.762C92.4654 417.594 93.03 417.51 93.6274 417.51ZM93.3194 424.048C93.8327 424.048 94.276 423.936 94.6494 423.712C95.0227 423.479 95.2934 423.152 95.4614 422.732V421.696H93.3894C92.2507 421.696 91.6814 422.079 91.6814 422.844C91.6814 423.217 91.826 423.511 92.1154 423.726C92.4047 423.941 92.806 424.048 93.3194 424.048ZM100.581 418.826C100.814 418.397 101.159 418.07 101.617 417.846C102.074 417.622 102.629 417.51 103.283 417.51V418.812C103.208 418.803 103.105 418.798 102.975 418.798C102.247 418.798 101.673 419.017 101.253 419.456C100.842 419.885 100.637 420.501 100.637 421.304V425H99.2926V417.58H100.581V418.826Z" fill="#FDFDFD"/>
<rect x="20" y="146" width="98" height="43" rx="21.5" fill="#35B549"/>
<path d="M44.7218 170.55H39.5138L38.4358 173H36.9938L41.4318 163.2H42.8178L47.2698 173H45.7998L44.7218 170.55ZM44.2318 169.43L42.1178 164.628L40.0038 169.43H44.2318ZM51.7014 173.084C50.9454 173.084 50.2687 172.921 49.6714 172.594C49.0834 172.267 48.6214 171.819 48.2854 171.25C47.9494 170.671 47.7814 170.018 47.7814 169.29C47.7814 168.562 47.9494 167.913 48.2854 167.344C48.6214 166.765 49.0834 166.317 49.6714 166C50.2687 165.673 50.9454 165.51 51.7014 165.51C52.3734 165.51 52.9707 165.645 53.4934 165.916C54.0254 166.187 54.436 166.579 54.7254 167.092L53.7034 167.75C53.47 167.395 53.1807 167.129 52.8354 166.952C52.49 166.775 52.1074 166.686 51.6874 166.686C51.202 166.686 50.7634 166.793 50.3714 167.008C49.9887 167.223 49.6854 167.531 49.4614 167.932C49.2467 168.324 49.1394 168.777 49.1394 169.29C49.1394 169.813 49.2467 170.275 49.4614 170.676C49.6854 171.068 49.9887 171.371 50.3714 171.586C50.7634 171.801 51.202 171.908 51.6874 171.908C52.1074 171.908 52.49 171.819 52.8354 171.642C53.1807 171.465 53.47 171.199 53.7034 170.844L54.7254 171.488C54.436 172.001 54.0254 172.398 53.4934 172.678C52.9707 172.949 52.3734 173.084 51.7014 173.084ZM59.59 173.084C58.834 173.084 58.1574 172.921 57.56 172.594C56.972 172.267 56.51 171.819 56.174 171.25C55.838 170.671 55.67 170.018 55.67 169.29C55.67 168.562 55.838 167.913 56.174 167.344C56.51 166.765 56.972 166.317 57.56 166C58.1574 165.673 58.834 165.51 59.59 165.51C60.262 165.51 60.8594 165.645 61.382 165.916C61.914 166.187 62.3247 166.579 62.614 167.092L61.592 167.75C61.3587 167.395 61.0694 167.129 60.724 166.952C60.3787 166.775 59.996 166.686 59.576 166.686C59.0907 166.686 58.652 166.793 58.26 167.008C57.8774 167.223 57.574 167.531 57.35 167.932C57.1354 168.324 57.028 168.777 57.028 169.29C57.028 169.813 57.1354 170.275 57.35 170.676C57.574 171.068 57.8774 171.371 58.26 171.586C58.652 171.801 59.0907 171.908 59.576 171.908C59.996 171.908 60.3787 171.819 60.724 171.642C61.0694 171.465 61.3587 171.199 61.592 170.844L62.614 171.488C62.3247 172.001 61.914 172.398 61.382 172.678C60.8594 172.949 60.262 173.084 59.59 173.084ZM70.9507 169.332C70.9507 169.435 70.9414 169.57 70.9227 169.738H64.9027C64.9867 170.391 65.2714 170.919 65.7567 171.32C66.2514 171.712 66.8627 171.908 67.5907 171.908C68.4774 171.908 69.1914 171.609 69.7327 171.012L70.4747 171.88C70.1387 172.272 69.7187 172.571 69.2147 172.776C68.72 172.981 68.1647 173.084 67.5487 173.084C66.7647 173.084 66.0694 172.925 65.4627 172.608C64.856 172.281 64.3847 171.829 64.0487 171.25C63.722 170.671 63.5587 170.018 63.5587 169.29C63.5587 168.571 63.7174 167.923 64.0347 167.344C64.3614 166.765 64.8047 166.317 65.3647 166C65.934 165.673 66.5734 165.51 67.2827 165.51C67.992 165.51 68.622 165.673 69.1727 166C69.7327 166.317 70.1667 166.765 70.4747 167.344C70.792 167.923 70.9507 168.585 70.9507 169.332ZM67.2827 166.644C66.6387 166.644 66.0974 166.84 65.6587 167.232C65.2294 167.624 64.9774 168.137 64.9027 168.772H69.6627C69.588 168.147 69.3314 167.638 68.8927 167.246C68.4634 166.845 67.9267 166.644 67.2827 166.644ZM76.751 165.51C77.4696 165.51 78.1136 165.669 78.683 165.986C79.2523 166.303 79.6956 166.747 80.013 167.316C80.3396 167.885 80.503 168.543 80.503 169.29C80.503 170.037 80.3396 170.699 80.013 171.278C79.6956 171.847 79.2523 172.291 78.683 172.608C78.1136 172.925 77.4696 173.084 76.751 173.084C76.219 173.084 75.729 172.981 75.281 172.776C74.8423 172.571 74.469 172.272 74.161 171.88V175.716H72.817V165.58H74.105V166.756C74.4036 166.345 74.7816 166.037 75.239 165.832C75.6963 165.617 76.2003 165.51 76.751 165.51ZM76.639 171.908C77.115 171.908 77.5396 171.801 77.913 171.586C78.2956 171.362 78.5943 171.054 78.809 170.662C79.033 170.261 79.145 169.803 79.145 169.29C79.145 168.777 79.033 168.324 78.809 167.932C78.5943 167.531 78.2956 167.223 77.913 167.008C77.5396 166.793 77.115 166.686 76.639 166.686C76.1723 166.686 75.7476 166.798 75.365 167.022C74.9916 167.237 74.693 167.54 74.469 167.932C74.2543 168.324 74.147 168.777 74.147 169.29C74.147 169.803 74.2543 170.261 74.469 170.662C74.6836 171.054 74.9823 171.362 75.365 171.586C75.7476 171.801 76.1723 171.908 76.639 171.908ZM86.5319 172.566C86.3359 172.734 86.0933 172.865 85.8039 172.958C85.5146 173.042 85.2159 173.084 84.9079 173.084C84.1613 173.084 83.5826 172.883 83.1719 172.482C82.7613 172.081 82.5559 171.507 82.5559 170.76V166.686H81.2959V165.58H82.5559V163.956H83.8999V165.58H86.0279V166.686H83.8999V170.704C83.8999 171.105 83.9979 171.413 84.1939 171.628C84.3993 171.843 84.6886 171.95 85.0619 171.95C85.4726 171.95 85.8226 171.833 86.1119 171.6L86.5319 172.566ZM90.8588 165.51C91.8855 165.51 92.6695 165.762 93.2108 166.266C93.7615 166.77 94.0368 167.521 94.0368 168.52V173H92.7628V172.02C92.5388 172.365 92.2168 172.631 91.7968 172.818C91.3861 172.995 90.8961 173.084 90.3268 173.084C89.4961 173.084 88.8288 172.883 88.3248 172.482C87.8301 172.081 87.5828 171.553 87.5828 170.9C87.5828 170.247 87.8208 169.724 88.2968 169.332C88.7728 168.931 89.5288 168.73 90.5648 168.73H92.6928V168.464C92.6928 167.885 92.5248 167.442 92.1888 167.134C91.8528 166.826 91.3581 166.672 90.7048 166.672C90.2661 166.672 89.8368 166.747 89.4168 166.896C88.9968 167.036 88.6421 167.227 88.3528 167.47L87.7928 166.462C88.1755 166.154 88.6328 165.921 89.1648 165.762C89.6968 165.594 90.2615 165.51 90.8588 165.51ZM90.5508 172.048C91.0641 172.048 91.5075 171.936 91.8808 171.712C92.2541 171.479 92.5248 171.152 92.6928 170.732V169.696H90.6208C89.4821 169.696 88.9128 170.079 88.9128 170.844C88.9128 171.217 89.0575 171.511 89.3468 171.726C89.6361 171.941 90.0375 172.048 90.5508 172.048ZM97.812 166.826C98.0453 166.397 98.3907 166.07 98.848 165.846C99.3053 165.622 99.8607 165.51 100.514 165.51V166.812C100.439 166.803 100.337 166.798 100.206 166.798C99.478 166.798 98.904 167.017 98.484 167.456C98.0733 167.885 97.868 168.501 97.868 169.304V173H96.524V165.58H97.812V166.826Z" fill="#FDFDFD"/>
<rect x="20" y="335" width="59" height="43" rx="21.5" fill="#35B549"/>
<path d="M47.5229 362.112C46.7856 362.112 46.0716 362 45.3809 361.776C44.6996 361.543 44.1629 361.244 43.7709 360.88L44.2889 359.788C44.6622 360.124 45.1382 360.399 45.7169 360.614C46.3049 360.819 46.9069 360.922 47.5229 360.922C48.3349 360.922 48.9416 360.787 49.3429 360.516C49.7442 360.236 49.9449 359.867 49.9449 359.41C49.9449 359.074 49.8329 358.803 49.6089 358.598C49.3942 358.383 49.1236 358.22 48.7969 358.108C48.4796 357.996 48.0269 357.87 47.4389 357.73C46.7016 357.553 46.1042 357.375 45.6469 357.198C45.1989 357.021 44.8116 356.75 44.4849 356.386C44.1676 356.013 44.0089 355.513 44.0089 354.888C44.0089 354.365 44.1442 353.894 44.4149 353.474C44.6949 353.054 45.1149 352.718 45.6749 352.466C46.2349 352.214 46.9302 352.088 47.7609 352.088C48.3396 352.088 48.9089 352.163 49.4689 352.312C50.0289 352.461 50.5096 352.676 50.9109 352.956L50.4489 354.076C50.0382 353.815 49.5996 353.619 49.1329 353.488C48.6662 353.348 48.2089 353.278 47.7609 353.278C46.9676 353.278 46.3702 353.423 45.9689 353.712C45.5769 354.001 45.3809 354.375 45.3809 354.832C45.3809 355.168 45.4929 355.443 45.7169 355.658C45.9409 355.863 46.2162 356.027 46.5429 356.148C46.8789 356.26 47.3316 356.381 47.9009 356.512C48.6382 356.689 49.2309 356.867 49.6789 357.044C50.1269 357.221 50.5096 357.492 50.8269 357.856C51.1536 358.22 51.3169 358.71 51.3169 359.326C51.3169 359.839 51.1769 360.311 50.8969 360.74C50.6169 361.16 50.1922 361.496 49.6229 361.748C49.0536 361.991 48.3536 362.112 47.5229 362.112ZM53.1662 354.58H54.5102V362H53.1662V354.58ZM53.8382 353.152C53.5769 353.152 53.3576 353.068 53.1802 352.9C53.0122 352.732 52.9282 352.527 52.9282 352.284C52.9282 352.041 53.0122 351.836 53.1802 351.668C53.3576 351.491 53.5769 351.402 53.8382 351.402C54.0996 351.402 54.3142 351.486 54.4822 351.654C54.6596 351.813 54.7482 352.013 54.7482 352.256C54.7482 352.508 54.6596 352.723 54.4822 352.9C54.3142 353.068 54.0996 353.152 53.8382 353.152Z" fill="#FDFDFD"/>
<rect x="93" y="335" width="59" height="43" rx="21.5" fill="#E3655D"/>
<path d="M122.274 352.2V362H121.126L115.246 354.692V362H113.846V352.2H114.994L120.874 359.508V352.2H122.274ZM128.189 362.084C127.452 362.084 126.789 361.921 126.201 361.594C125.613 361.267 125.151 360.819 124.815 360.25C124.488 359.671 124.325 359.018 124.325 358.29C124.325 357.562 124.488 356.913 124.815 356.344C125.151 355.765 125.613 355.317 126.201 355C126.789 354.673 127.452 354.51 128.189 354.51C128.926 354.51 129.584 354.673 130.163 355C130.751 355.317 131.208 355.765 131.535 356.344C131.871 356.913 132.039 357.562 132.039 358.29C132.039 359.018 131.871 359.671 131.535 360.25C131.208 360.819 130.751 361.267 130.163 361.594C129.584 361.921 128.926 362.084 128.189 362.084ZM128.189 360.908C128.665 360.908 129.09 360.801 129.463 360.586C129.846 360.362 130.144 360.054 130.359 359.662C130.574 359.261 130.681 358.803 130.681 358.29C130.681 357.777 130.574 357.324 130.359 356.932C130.144 356.531 129.846 356.223 129.463 356.008C129.09 355.793 128.665 355.686 128.189 355.686C127.713 355.686 127.284 355.793 126.901 356.008C126.528 356.223 126.229 356.531 126.005 356.932C125.79 357.324 125.683 357.777 125.683 358.29C125.683 358.803 125.79 359.261 126.005 359.662C126.229 360.054 126.528 360.362 126.901 360.586C127.284 360.801 127.713 360.908 128.189 360.908Z" fill="#FDFDFD"/>
<rect x="20" y="209" width="98" height="43" rx="21.5" fill="#35B549"/>
<path d="M55.2286 233.55H50.0206L48.9426 236H47.5006L51.9386 226.2H53.3246L57.7766 236H56.3066L55.2286 233.55ZM54.7386 232.43L52.6246 227.628L50.5106 232.43H54.7386ZM61.7586 226.634C60.9559 226.634 60.5546 227.068 60.5546 227.936V228.58H62.7106V229.686H60.5826V236H59.2386V229.686H57.9786V228.58H59.2386V227.922C59.2386 227.185 59.4532 226.601 59.8826 226.172C60.3119 225.743 60.9139 225.528 61.6886 225.528C61.9872 225.528 62.2672 225.565 62.5286 225.64C62.7899 225.715 63.0139 225.822 63.2006 225.962L62.7946 226.984C62.4866 226.751 62.1412 226.634 61.7586 226.634ZM70.5747 232.332C70.5747 232.435 70.5654 232.57 70.5467 232.738H64.5267C64.6107 233.391 64.8954 233.919 65.3807 234.32C65.8754 234.712 66.4867 234.908 67.2147 234.908C68.1014 234.908 68.8154 234.609 69.3567 234.012L70.0987 234.88C69.7627 235.272 69.3427 235.571 68.8387 235.776C68.3441 235.981 67.7887 236.084 67.1727 236.084C66.3887 236.084 65.6934 235.925 65.0867 235.608C64.4801 235.281 64.0087 234.829 63.6727 234.25C63.3461 233.671 63.1827 233.018 63.1827 232.29C63.1827 231.571 63.3414 230.923 63.6587 230.344C63.9854 229.765 64.4287 229.317 64.9887 229C65.5581 228.673 66.1974 228.51 66.9067 228.51C67.6161 228.51 68.2461 228.673 68.7967 229C69.3567 229.317 69.7907 229.765 70.0987 230.344C70.4161 230.923 70.5747 231.585 70.5747 232.332ZM66.9067 229.644C66.2627 229.644 65.7214 229.84 65.2827 230.232C64.8534 230.624 64.6014 231.137 64.5267 231.772H69.2867C69.2121 231.147 68.9554 230.638 68.5167 230.246C68.0874 229.845 67.5507 229.644 66.9067 229.644ZM79.539 228.58V234.992C79.539 236.289 79.217 237.246 78.573 237.862C77.929 238.487 76.9677 238.8 75.689 238.8C74.989 238.8 74.3217 238.702 73.687 238.506C73.0523 238.319 72.539 238.049 72.147 237.694L72.791 236.658C73.1363 236.957 73.561 237.19 74.065 237.358C74.5783 237.535 75.1057 237.624 75.647 237.624C76.515 237.624 77.1543 237.419 77.565 237.008C77.985 236.597 78.195 235.972 78.195 235.132V234.544C77.8777 234.927 77.4857 235.216 77.019 235.412C76.5617 235.599 76.0623 235.692 75.521 235.692C74.8117 235.692 74.1677 235.543 73.589 235.244C73.0197 234.936 72.5717 234.511 72.245 233.97C71.9183 233.419 71.755 232.794 71.755 232.094C71.755 231.394 71.9183 230.773 72.245 230.232C72.5717 229.681 73.0197 229.257 73.589 228.958C74.1677 228.659 74.8117 228.51 75.521 228.51C76.081 228.51 76.599 228.613 77.075 228.818C77.5603 229.023 77.957 229.327 78.265 229.728V228.58H79.539ZM75.675 234.516C76.1603 234.516 76.5943 234.413 76.977 234.208C77.369 234.003 77.6723 233.718 77.887 233.354C78.111 232.981 78.223 232.561 78.223 232.094C78.223 231.375 77.985 230.797 77.509 230.358C77.033 229.91 76.4217 229.686 75.675 229.686C74.919 229.686 74.303 229.91 73.827 230.358C73.351 230.797 73.113 231.375 73.113 232.094C73.113 232.561 73.2203 232.981 73.435 233.354C73.659 233.718 73.9623 234.003 74.345 234.208C74.737 234.413 75.1803 234.516 75.675 234.516ZM82.107 228.58H83.451V236H82.107V228.58ZM82.779 227.152C82.5177 227.152 82.2983 227.068 82.121 226.9C81.953 226.732 81.869 226.527 81.869 226.284C81.869 226.041 81.953 225.836 82.121 225.668C82.2983 225.491 82.5177 225.402 82.779 225.402C83.0403 225.402 83.255 225.486 83.423 225.654C83.6003 225.813 83.689 226.013 83.689 226.256C83.689 226.508 83.6003 226.723 83.423 226.9C83.255 227.068 83.0403 227.152 82.779 227.152ZM87.3052 229.826C87.5385 229.397 87.8838 229.07 88.3412 228.846C88.7985 228.622 89.3538 228.51 90.0072 228.51V229.812C89.9325 229.803 89.8298 229.798 89.6992 229.798C88.9712 229.798 88.3972 230.017 87.9772 230.456C87.5665 230.885 87.3612 231.501 87.3612 232.304V236H86.0172V228.58H87.3052V229.826Z" fill="#FDFDFD"/>
<rect x="20" y="272" width="98" height="43" rx="21.5" fill="#35B549"/>
<path d="M44.7676 289.2C46.0369 289.2 47.0356 289.503 47.7636 290.11C48.4916 290.717 48.8556 291.552 48.8556 292.616C48.8556 293.68 48.4916 294.515 47.7636 295.122C47.0356 295.729 46.0369 296.032 44.7676 296.032H42.3456V299H40.9456V289.2H44.7676ZM44.7256 294.814C45.6123 294.814 46.2889 294.627 46.7556 294.254C47.2223 293.871 47.4556 293.325 47.4556 292.616C47.4556 291.907 47.2223 291.365 46.7556 290.992C46.2889 290.609 45.6123 290.418 44.7256 290.418H42.3456V294.814H44.7256ZM57.7691 291.58V299H56.4951V297.88C56.2244 298.263 55.8651 298.561 55.4171 298.776C54.9784 298.981 54.4978 299.084 53.9751 299.084C52.9858 299.084 52.2064 298.813 51.6371 298.272C51.0678 297.721 50.7831 296.914 50.7831 295.85V291.58H52.1271V295.696C52.1271 296.415 52.2998 296.961 52.6451 297.334C52.9904 297.698 53.4851 297.88 54.1291 297.88C54.8384 297.88 55.3984 297.665 55.8091 297.236C56.2198 296.807 56.4251 296.2 56.4251 295.416V291.58H57.7691ZM64.2617 291.51C64.9804 291.51 65.6244 291.669 66.1937 291.986C66.763 292.303 67.2064 292.747 67.5237 293.316C67.8504 293.885 68.0137 294.543 68.0137 295.29C68.0137 296.037 67.8504 296.699 67.5237 297.278C67.2064 297.847 66.763 298.291 66.1937 298.608C65.6244 298.925 64.9804 299.084 64.2617 299.084C63.711 299.084 63.207 298.977 62.7497 298.762C62.2924 298.547 61.9144 298.235 61.6157 297.824V299H60.3277V288.612H61.6717V292.7C61.9704 292.308 62.3437 292.014 62.7917 291.818C63.2397 291.613 63.7297 291.51 64.2617 291.51ZM64.1497 297.908C64.6257 297.908 65.0504 297.801 65.4237 297.586C65.8064 297.362 66.105 297.054 66.3197 296.662C66.5437 296.261 66.6557 295.803 66.6557 295.29C66.6557 294.777 66.5437 294.324 66.3197 293.932C66.105 293.531 65.8064 293.223 65.4237 293.008C65.0504 292.793 64.6257 292.686 64.1497 292.686C63.683 292.686 63.2584 292.793 62.8757 293.008C62.493 293.223 62.1944 293.531 61.9797 293.932C61.765 294.324 61.6577 294.777 61.6577 295.29C61.6577 295.803 61.765 296.261 61.9797 296.662C62.1944 297.054 62.493 297.362 62.8757 297.586C63.2584 297.801 63.683 297.908 64.1497 297.908ZM69.8707 288.612H71.2147V299H69.8707V288.612ZM73.7808 291.58H75.1248V299H73.7808V291.58ZM74.4528 290.152C74.1915 290.152 73.9722 290.068 73.7948 289.9C73.6268 289.732 73.5428 289.527 73.5428 289.284C73.5428 289.041 73.6268 288.836 73.7948 288.668C73.9722 288.491 74.1915 288.402 74.4528 288.402C74.7142 288.402 74.9288 288.486 75.0968 288.654C75.2742 288.813 75.3628 289.013 75.3628 289.256C75.3628 289.508 75.2742 289.723 75.0968 289.9C74.9288 290.068 74.7142 290.152 74.4528 290.152ZM80.925 299.084C80.169 299.084 79.4923 298.921 78.895 298.594C78.307 298.267 77.845 297.819 77.509 297.25C77.173 296.671 77.005 296.018 77.005 295.29C77.005 294.562 77.173 293.913 77.509 293.344C77.845 292.765 78.307 292.317 78.895 292C79.4923 291.673 80.169 291.51 80.925 291.51C81.597 291.51 82.1943 291.645 82.717 291.916C83.249 292.187 83.6597 292.579 83.949 293.092L82.927 293.75C82.6937 293.395 82.4043 293.129 82.059 292.952C81.7137 292.775 81.331 292.686 80.911 292.686C80.4257 292.686 79.987 292.793 79.595 293.008C79.2123 293.223 78.909 293.531 78.685 293.932C78.4703 294.324 78.363 294.777 78.363 295.29C78.363 295.813 78.4703 296.275 78.685 296.676C78.909 297.068 79.2123 297.371 79.595 297.586C79.987 297.801 80.4257 297.908 80.911 297.908C81.331 297.908 81.7137 297.819 82.059 297.642C82.4043 297.465 82.6937 297.199 82.927 296.844L83.949 297.488C83.6597 298.001 83.249 298.398 82.717 298.678C82.1943 298.949 81.597 299.084 80.925 299.084ZM88.391 291.51C89.4177 291.51 90.2017 291.762 90.743 292.266C91.2937 292.77 91.569 293.521 91.569 294.52V299H90.295V298.02C90.071 298.365 89.749 298.631 89.329 298.818C88.9184 298.995 88.4284 299.084 87.859 299.084C87.0284 299.084 86.361 298.883 85.857 298.482C85.3624 298.081 85.115 297.553 85.115 296.9C85.115 296.247 85.353 295.724 85.829 295.332C86.305 294.931 87.061 294.73 88.097 294.73H90.225V294.464C90.225 293.885 90.057 293.442 89.721 293.134C89.385 292.826 88.8904 292.672 88.237 292.672C87.7984 292.672 87.369 292.747 86.949 292.896C86.529 293.036 86.1744 293.227 85.885 293.47L85.325 292.462C85.7077 292.154 86.165 291.921 86.697 291.762C87.229 291.594 87.7937 291.51 88.391 291.51ZM88.083 298.048C88.5964 298.048 89.0397 297.936 89.413 297.712C89.7864 297.479 90.057 297.152 90.225 296.732V295.696H88.153C87.0144 295.696 86.445 296.079 86.445 296.844C86.445 297.217 86.5897 297.511 86.879 297.726C87.1684 297.941 87.5697 298.048 88.083 298.048ZM95.3442 292.826C95.5776 292.397 95.9229 292.07 96.3802 291.846C96.8376 291.622 97.3929 291.51 98.0462 291.51V292.812C97.9716 292.803 97.8689 292.798 97.7382 292.798C97.0102 292.798 96.4362 293.017 96.0162 293.456C95.6056 293.885 95.4002 294.501 95.4002 295.304V299H94.0562V291.58H95.3442V292.826Z" fill="#FDFDFD"/>
<rect x="20" y="83" width="98" height="43" rx="21.5" fill="#EE7839"/>
<path d="M43.1727 110.112C42.4353 110.112 41.7213 110 41.0307 109.776C40.3493 109.543 39.8127 109.244 39.4207 108.88L39.9387 107.788C40.312 108.124 40.788 108.399 41.3667 108.614C41.9547 108.819 42.5567 108.922 43.1727 108.922C43.9847 108.922 44.5913 108.787 44.9927 108.516C45.394 108.236 45.5947 107.867 45.5947 107.41C45.5947 107.074 45.4827 106.803 45.2587 106.598C45.044 106.383 44.7733 106.22 44.4467 106.108C44.1293 105.996 43.6767 105.87 43.0887 105.73C42.3513 105.553 41.754 105.375 41.2967 105.198C40.8487 105.021 40.4613 104.75 40.1347 104.386C39.8173 104.013 39.6587 103.513 39.6587 102.888C39.6587 102.365 39.794 101.894 40.0647 101.474C40.3447 101.054 40.7647 100.718 41.3247 100.466C41.8847 100.214 42.58 100.088 43.4107 100.088C43.9893 100.088 44.5587 100.163 45.1187 100.312C45.6787 100.461 46.1593 100.676 46.5607 100.956L46.0987 102.076C45.688 101.815 45.2493 101.619 44.7827 101.488C44.316 101.348 43.8587 101.278 43.4107 101.278C42.6173 101.278 42.02 101.423 41.6187 101.712C41.2267 102.001 41.0307 102.375 41.0307 102.832C41.0307 103.168 41.1427 103.443 41.3667 103.658C41.5907 103.863 41.866 104.027 42.1927 104.148C42.5287 104.26 42.9813 104.381 43.5507 104.512C44.288 104.689 44.8807 104.867 45.3287 105.044C45.7767 105.221 46.1593 105.492 46.4767 105.856C46.8033 106.22 46.9667 106.71 46.9667 107.326C46.9667 107.839 46.8267 108.311 46.5467 108.74C46.2667 109.16 45.842 109.496 45.2727 109.748C44.7033 109.991 44.0033 110.112 43.1727 110.112ZM55.522 106.332C55.522 106.435 55.5127 106.57 55.494 106.738H49.474C49.558 107.391 49.8427 107.919 50.328 108.32C50.8227 108.712 51.434 108.908 52.162 108.908C53.0487 108.908 53.7627 108.609 54.304 108.012L55.046 108.88C54.71 109.272 54.29 109.571 53.786 109.776C53.2913 109.981 52.736 110.084 52.12 110.084C51.336 110.084 50.6407 109.925 50.034 109.608C49.4273 109.281 48.956 108.829 48.62 108.25C48.2933 107.671 48.13 107.018 48.13 106.29C48.13 105.571 48.2887 104.923 48.606 104.344C48.9327 103.765 49.376 103.317 49.936 103C50.5053 102.673 51.1447 102.51 51.854 102.51C52.5633 102.51 53.1933 102.673 53.744 103C54.304 103.317 54.738 103.765 55.046 104.344C55.3633 104.923 55.522 105.585 55.522 106.332ZM51.854 103.644C51.21 103.644 50.6687 103.84 50.23 104.232C49.8007 104.624 49.5487 105.137 49.474 105.772H54.234C54.1593 105.147 53.9027 104.638 53.464 104.246C53.0347 103.845 52.498 103.644 51.854 103.644ZM64.4863 102.58V108.992C64.4863 110.289 64.1643 111.246 63.5203 111.862C62.8763 112.487 61.9149 112.8 60.6363 112.8C59.9363 112.8 59.2689 112.702 58.6343 112.506C57.9996 112.319 57.4863 112.049 57.0943 111.694L57.7383 110.658C58.0836 110.957 58.5083 111.19 59.0123 111.358C59.5256 111.535 60.0529 111.624 60.5943 111.624C61.4623 111.624 62.1016 111.419 62.5123 111.008C62.9323 110.597 63.1423 109.972 63.1423 109.132V108.544C62.8249 108.927 62.4329 109.216 61.9663 109.412C61.5089 109.599 61.0096 109.692 60.4683 109.692C59.7589 109.692 59.1149 109.543 58.5363 109.244C57.9669 108.936 57.5189 108.511 57.1923 107.97C56.8656 107.419 56.7023 106.794 56.7023 106.094C56.7023 105.394 56.8656 104.773 57.1923 104.232C57.5189 103.681 57.9669 103.257 58.5363 102.958C59.1149 102.659 59.7589 102.51 60.4683 102.51C61.0283 102.51 61.5463 102.613 62.0223 102.818C62.5076 103.023 62.9043 103.327 63.2123 103.728V102.58H64.4863ZM60.6223 108.516C61.1076 108.516 61.5416 108.413 61.9243 108.208C62.3163 108.003 62.6196 107.718 62.8343 107.354C63.0583 106.981 63.1703 106.561 63.1703 106.094C63.1703 105.375 62.9323 104.797 62.4563 104.358C61.9803 103.91 61.3689 103.686 60.6223 103.686C59.8663 103.686 59.2503 103.91 58.7743 104.358C58.2983 104.797 58.0603 105.375 58.0603 106.094C58.0603 106.561 58.1676 106.981 58.3823 107.354C58.6063 107.718 58.9096 108.003 59.2923 108.208C59.6843 108.413 60.1276 108.516 60.6223 108.516ZM73.9703 102.58V110H72.6963V108.88C72.4256 109.263 72.0663 109.561 71.6183 109.776C71.1796 109.981 70.6989 110.084 70.1763 110.084C69.1869 110.084 68.4076 109.813 67.8383 109.272C67.2689 108.721 66.9843 107.914 66.9843 106.85V102.58H68.3283V106.696C68.3283 107.415 68.5009 107.961 68.8463 108.334C69.1916 108.698 69.6863 108.88 70.3303 108.88C71.0396 108.88 71.5996 108.665 72.0103 108.236C72.4209 107.807 72.6263 107.2 72.6263 106.416V102.58H73.9703ZM69.1823 101.264C68.9863 101.264 68.8183 101.199 68.6783 101.068C68.5383 100.928 68.4683 100.755 68.4683 100.55C68.4683 100.345 68.5383 100.172 68.6783 100.032C68.8183 99.892 68.9863 99.822 69.1823 99.822C69.3783 99.822 69.5463 99.892 69.6863 100.032C69.8263 100.172 69.8963 100.345 69.8963 100.55C69.8963 100.755 69.8263 100.928 69.6863 101.068C69.5463 101.199 69.3783 101.264 69.1823 101.264ZM71.7863 101.264C71.5903 101.264 71.4223 101.199 71.2823 101.068C71.1423 100.928 71.0723 100.755 71.0723 100.55C71.0723 100.345 71.1423 100.172 71.2823 100.032C71.4223 99.892 71.5903 99.822 71.7863 99.822C71.9823 99.822 72.1503 99.892 72.2903 100.032C72.4303 100.172 72.5003 100.345 72.5003 100.55C72.5003 100.755 72.4303 100.928 72.2903 101.068C72.1503 101.199 71.9823 101.264 71.7863 101.264ZM83.2349 106.332C83.2349 106.435 83.2256 106.57 83.2069 106.738H77.1869C77.2709 107.391 77.5555 107.919 78.0409 108.32C78.5355 108.712 79.1469 108.908 79.8749 108.908C80.7615 108.908 81.4755 108.609 82.0169 108.012L82.7589 108.88C82.4229 109.272 82.0029 109.571 81.4989 109.776C81.0042 109.981 80.4489 110.084 79.8329 110.084C79.0489 110.084 78.3535 109.925 77.7469 109.608C77.1402 109.281 76.6689 108.829 76.3329 108.25C76.0062 107.671 75.8429 107.018 75.8429 106.29C75.8429 105.571 76.0015 104.923 76.3189 104.344C76.6455 103.765 77.0889 103.317 77.6489 103C78.2182 102.673 78.8575 102.51 79.5669 102.51C80.2762 102.51 80.9062 102.673 81.4569 103C82.0169 103.317 82.4509 103.765 82.7589 104.344C83.0762 104.923 83.2349 105.585 83.2349 106.332ZM79.5669 103.644C78.9229 103.644 78.3815 103.84 77.9429 104.232C77.5135 104.624 77.2615 105.137 77.1869 105.772H81.9469C81.8722 105.147 81.6155 104.638 81.1769 104.246C80.7475 103.845 80.2109 103.644 79.5669 103.644ZM89.0631 102.51C90.0058 102.51 90.7525 102.785 91.3031 103.336C91.8631 103.877 92.1431 104.675 92.1431 105.73V110H90.7991V105.884C90.7991 105.165 90.6265 104.624 90.2811 104.26C89.9358 103.896 89.4411 103.714 88.7971 103.714C88.0691 103.714 87.4951 103.929 87.0751 104.358C86.6551 104.778 86.4451 105.385 86.4451 106.178V110H85.1011V102.58H86.3891V103.7C86.6598 103.317 87.0238 103.023 87.4811 102.818C87.9478 102.613 88.4751 102.51 89.0631 102.51ZM98.8024 109.566C98.6064 109.734 98.3638 109.865 98.0744 109.958C97.7851 110.042 97.4864 110.084 97.1784 110.084C96.4318 110.084 95.8531 109.883 95.4424 109.482C95.0318 109.081 94.8264 108.507 94.8264 107.76V103.686H93.5664V102.58H94.8264V100.956H96.1704V102.58H98.2984V103.686H96.1704V107.704C96.1704 108.105 96.2684 108.413 96.4644 108.628C96.6698 108.843 96.9591 108.95 97.3324 108.95C97.7431 108.95 98.0931 108.833 98.3824 108.6L98.8024 109.566Z" fill="#FDFDFD"/>
<rect x="0.5" y="0.5" width="171" height="466" rx="4.5" stroke="#9747FF" stroke-dasharray="10 5"/>
</svg>
