<svg width="83" height="209" viewBox="0 0 83 209" fill="none" xmlns="http://www.w3.org/2000/svg">
<path d="M48.2895 20H34.7105C26.6084 20 20 26.6084 20 34.7105V48.2895C20 56.3916 26.6084 63 34.7105 63H48.2895C56.3916 63 63 56.3916 63 48.2895V34.7105C63 26.6084 56.3916 20 48.2895 20ZM50.5526 43.7632H43.7632V50.5526C43.7632 51.7974 42.7447 52.8158 41.5 52.8158C40.2553 52.8158 39.2368 51.7974 39.2368 50.5526V43.7632H32.4474C31.2026 43.7632 30.1842 42.7447 30.1842 41.5C30.1842 40.2553 31.2026 39.2368 32.4474 39.2368H39.2368V32.4474C39.2368 31.2026 40.2553 30.1842 41.5 30.1842C42.7447 30.1842 43.7632 31.2026 43.7632 32.4474V39.2368H50.5526C51.7974 39.2368 52.8158 40.2553 52.8158 41.5C52.8158 42.7447 51.7974 43.7632 50.5526 43.7632Z" fill="#2A2A2A"/>
<path d="M48.2895 83H34.7105C26.6084 83 20 89.6084 20 97.7105V111.289C20 119.392 26.6084 126 34.7105 126H48.2895C56.3916 126 63 119.392 63 111.289V97.7105C63 89.6084 56.3916 83 48.2895 83ZM50.5526 106.763H43.7632V113.553C43.7632 114.797 42.7447 115.816 41.5 115.816C40.2553 115.816 39.2368 114.797 39.2368 113.553V106.763H32.4474C31.2026 106.763 30.1842 105.745 30.1842 104.5C30.1842 103.255 31.2026 102.237 32.4474 102.237H39.2368V95.4474C39.2368 94.2026 40.2553 93.1842 41.5 93.1842C42.7447 93.1842 43.7632 94.2026 43.7632 95.4474V102.237H50.5526C51.7974 102.237 52.8158 103.255 52.8158 104.5C52.8158 105.745 51.7974 106.763 50.5526 106.763Z" fill="#EE7839"/>
<path d="M48.2895 146H34.7105C26.6084 146 20 152.608 20 160.711V174.289C20 182.392 26.6084 189 34.7105 189H48.2895C56.3916 189 63 182.392 63 174.289V160.711C63 152.608 56.3916 146 48.2895 146ZM50.5526 169.763H43.7632V176.553C43.7632 177.797 42.7447 178.816 41.5 178.816C40.2553 178.816 39.2368 177.797 39.2368 176.553V169.763H32.4474C31.2026 169.763 30.1842 168.745 30.1842 167.5C30.1842 166.255 31.2026 165.237 32.4474 165.237H39.2368V158.447C39.2368 157.203 40.2553 156.184 41.5 156.184C42.7447 156.184 43.7632 157.203 43.7632 158.447V165.237H50.5526C51.7974 165.237 52.8158 166.255 52.8158 167.5C52.8158 168.745 51.7974 169.763 50.5526 169.763Z" fill="#5FA9AE"/>
<rect x="0.5" y="0.5" width="82" height="208" rx="4.5" stroke="#9747FF" stroke-dasharray="10 5"/>
</svg>
