<svg width="398" height="540" viewBox="0 0 398 540" fill="none" xmlns="http://www.w3.org/2000/svg">
<rect x="20" y="20" width="358" height="32" rx="10" fill="#CDE4E6"/>
<path d="M41.456 29.8V41H40.32V32.04L35.92 39.576H35.36L30.96 32.088V41H29.824V29.8H30.8L35.664 38.104L40.48 29.8H41.456ZM47.8093 32.52C48.9079 32.52 49.7506 32.7973 50.3373 33.352C50.9239 33.896 51.2173 34.7067 51.2173 35.784V41H50.1293V39.688C49.8733 40.1253 49.4946 40.4667 48.9933 40.712C48.5026 40.9573 47.9159 41.08 47.2333 41.08C46.2946 41.08 45.5479 40.856 44.9933 40.408C44.4386 39.96 44.1613 39.368 44.1613 38.632C44.1613 37.9173 44.4173 37.3413 44.9293 36.904C45.4519 36.4667 46.2786 36.248 47.4093 36.248H50.0813V35.736C50.0813 35.0107 49.8786 34.4613 49.4733 34.088C49.0679 33.704 48.4759 33.512 47.6973 33.512C47.1639 33.512 46.6519 33.6027 46.1613 33.784C45.6706 33.9547 45.2493 34.1947 44.8973 34.504L44.3853 33.656C44.8119 33.2933 45.3239 33.016 45.9213 32.824C46.5186 32.6213 47.1479 32.52 47.8093 32.52ZM47.4093 40.184C48.0493 40.184 48.5986 40.04 49.0573 39.752C49.5159 39.4533 49.8573 39.0267 50.0813 38.472V37.096H47.4413C46.0013 37.096 45.2812 37.5973 45.2812 38.6C45.2812 39.0907 45.4679 39.48 45.8413 39.768C46.2146 40.0453 46.7373 40.184 47.4093 40.184ZM55.3908 34.232C55.6574 33.6667 56.0521 33.24 56.5748 32.952C57.1081 32.664 57.7641 32.52 58.5428 32.52V33.624L58.2708 33.608C57.3854 33.608 56.6921 33.88 56.1908 34.424C55.6894 34.968 55.4388 35.7307 55.4388 36.712V41H54.3028V32.584H55.3908V34.232ZM60.5996 32.584H61.7356V41H60.5996V32.584ZM61.1756 30.744C60.941 30.744 60.7436 30.664 60.5836 30.504C60.4236 30.344 60.3436 30.152 60.3436 29.928C60.3436 29.7147 60.4236 29.528 60.5836 29.368C60.7436 29.208 60.941 29.128 61.1756 29.128C61.4103 29.128 61.6076 29.208 61.7676 29.368C61.9276 29.5173 62.0076 29.6987 62.0076 29.912C62.0076 30.1467 61.9276 30.344 61.7676 30.504C61.6076 30.664 61.4103 30.744 61.1756 30.744ZM67.8405 32.52C68.9392 32.52 69.7818 32.7973 70.3685 33.352C70.9552 33.896 71.2485 34.7067 71.2485 35.784V41H70.1605V39.688C69.9045 40.1253 69.5258 40.4667 69.0245 40.712C68.5338 40.9573 67.9472 41.08 67.2645 41.08C66.3258 41.08 65.5792 40.856 65.0245 40.408C64.4698 39.96 64.1925 39.368 64.1925 38.632C64.1925 37.9173 64.4485 37.3413 64.9605 36.904C65.4832 36.4667 66.3098 36.248 67.4405 36.248H70.1125V35.736C70.1125 35.0107 69.9098 34.4613 69.5045 34.088C69.0992 33.704 68.5072 33.512 67.7285 33.512C67.1952 33.512 66.6832 33.6027 66.1925 33.784C65.7018 33.9547 65.2805 34.1947 64.9285 34.504L64.4165 33.656C64.8432 33.2933 65.3552 33.016 65.9525 32.824C66.5498 32.6213 67.1792 32.52 67.8405 32.52ZM67.4405 40.184C68.0805 40.184 68.6298 40.04 69.0885 39.752C69.5472 39.4533 69.8885 39.0267 70.1125 38.472V37.096H67.4725C66.0325 37.096 65.3125 37.5973 65.3125 38.6C65.3125 39.0907 65.4992 39.48 65.8725 39.768C66.2458 40.0453 66.7685 40.184 67.4405 40.184ZM86.6495 35.4H87.7855V39.672C87.2628 40.1307 86.6442 40.4827 85.9295 40.728C85.2148 40.9733 84.4628 41.096 83.6735 41.096C82.5535 41.096 81.5455 40.8507 80.6495 40.36C79.7535 39.8693 79.0495 39.192 78.5375 38.328C78.0255 37.4533 77.7695 36.4773 77.7695 35.4C77.7695 34.3227 78.0255 33.352 78.5375 32.488C79.0495 31.6133 79.7535 30.9307 80.6495 30.44C81.5455 29.9493 82.5588 29.704 83.6895 29.704C84.5428 29.704 85.3268 29.8427 86.0415 30.12C86.7562 30.3867 87.3588 30.7867 87.8495 31.32L87.1135 32.072C86.2282 31.1973 85.1028 30.76 83.7375 30.76C82.8308 30.76 82.0095 30.9627 81.2735 31.368C80.5482 31.7627 79.9775 32.3173 79.5615 33.032C79.1455 33.736 78.9375 34.5253 78.9375 35.4C78.9375 36.2747 79.1455 37.064 79.5615 37.768C79.9775 38.472 80.5482 39.0267 81.2735 39.432C81.9988 39.8373 82.8148 40.04 83.7215 40.04C84.8735 40.04 85.8495 39.752 86.6495 39.176V35.4ZM94.3365 41.08C93.5258 41.08 92.7952 40.8987 92.1445 40.536C91.4938 40.1627 90.9818 39.6507 90.6085 39C90.2352 38.3493 90.0485 37.6133 90.0485 36.792C90.0485 35.9707 90.2352 35.2347 90.6085 34.584C90.9818 33.9333 91.4938 33.4267 92.1445 33.064C92.7952 32.7013 93.5258 32.52 94.3365 32.52C95.1472 32.52 95.8778 32.7013 96.5285 33.064C97.1792 33.4267 97.6858 33.9333 98.0485 34.584C98.4218 35.2347 98.6085 35.9707 98.6085 36.792C98.6085 37.6133 98.4218 38.3493 98.0485 39C97.6858 39.6507 97.1792 40.1627 96.5285 40.536C95.8778 40.8987 95.1472 41.08 94.3365 41.08ZM94.3365 40.072C94.9338 40.072 95.4672 39.9387 95.9365 39.672C96.4165 39.3947 96.7898 39.0053 97.0565 38.504C97.3232 38.0027 97.4565 37.432 97.4565 36.792C97.4565 36.152 97.3232 35.5813 97.0565 35.08C96.7898 34.5787 96.4165 34.1947 95.9365 33.928C95.4672 33.6507 94.9338 33.512 94.3365 33.512C93.7392 33.512 93.2005 33.6507 92.7205 33.928C92.2512 34.1947 91.8778 34.5787 91.6005 35.08C91.3338 35.5813 91.2005 36.152 91.2005 36.792C91.2005 37.432 91.3338 38.0027 91.6005 38.504C91.8778 39.0053 92.2512 39.3947 92.7205 39.672C93.2005 39.9387 93.7392 40.072 94.3365 40.072ZM105.216 32.52C106.272 32.52 107.109 32.8293 107.728 33.448C108.357 34.056 108.672 34.9467 108.672 36.12V41H107.536V36.232C107.536 35.3573 107.317 34.6907 106.88 34.232C106.442 33.7733 105.818 33.544 105.008 33.544C104.101 33.544 103.381 33.816 102.848 34.36C102.325 34.8933 102.064 35.6347 102.064 36.584V41H100.928V32.584H102.016V34.136C102.325 33.624 102.752 33.2293 103.296 32.952C103.85 32.664 104.49 32.52 105.216 32.52ZM117.692 40.056V41H110.844V40.248L116.14 33.544H110.94V32.584H117.596V33.336L112.3 40.056H117.692ZM122.872 32.52C123.97 32.52 124.813 32.7973 125.4 33.352C125.986 33.896 126.28 34.7067 126.28 35.784V41H125.192V39.688C124.936 40.1253 124.557 40.4667 124.056 40.712C123.565 40.9573 122.978 41.08 122.296 41.08C121.357 41.08 120.61 40.856 120.056 40.408C119.501 39.96 119.224 39.368 119.224 38.632C119.224 37.9173 119.48 37.3413 119.992 36.904C120.514 36.4667 121.341 36.248 122.472 36.248H125.144V35.736C125.144 35.0107 124.941 34.4613 124.536 34.088C124.13 33.704 123.538 33.512 122.76 33.512C122.226 33.512 121.714 33.6027 121.224 33.784C120.733 33.9547 120.312 34.1947 119.96 34.504L119.448 33.656C119.874 33.2933 120.386 33.016 120.984 32.824C121.581 32.6213 122.21 32.52 122.872 32.52ZM122.472 40.184C123.112 40.184 123.661 40.04 124.12 39.752C124.578 39.4533 124.92 39.0267 125.144 38.472V37.096H122.504C121.064 37.096 120.344 37.5973 120.344 38.6C120.344 39.0907 120.53 39.48 120.904 39.768C121.277 40.0453 121.8 40.184 122.472 40.184ZM129.365 29.128H130.501V41H129.365V29.128ZM140.99 37.144H133.95C134.014 38.0187 134.35 38.728 134.958 39.272C135.566 39.8053 136.334 40.072 137.262 40.072C137.785 40.072 138.265 39.9813 138.702 39.8C139.139 39.608 139.518 39.3307 139.838 38.968L140.478 39.704C140.105 40.152 139.635 40.4933 139.07 40.728C138.515 40.9627 137.902 41.08 137.23 41.08C136.366 41.08 135.598 40.8987 134.926 40.536C134.265 40.1627 133.747 39.6507 133.374 39C133.001 38.3493 132.814 37.6133 132.814 36.792C132.814 35.9707 132.99 35.2347 133.342 34.584C133.705 33.9333 134.195 33.4267 134.814 33.064C135.443 32.7013 136.147 32.52 136.926 32.52C137.705 32.52 138.403 32.7013 139.022 33.064C139.641 33.4267 140.126 33.9333 140.478 34.584C140.83 35.224 141.006 35.96 141.006 36.792L140.99 37.144ZM136.926 33.496C136.115 33.496 135.433 33.7573 134.878 34.28C134.334 34.792 134.025 35.464 133.95 36.296H139.918C139.843 35.464 139.529 34.792 138.974 34.28C138.43 33.7573 137.747 33.496 136.926 33.496ZM149.176 40.056V41H142.328V40.248L147.624 33.544H142.424V32.584H149.08V33.336L143.784 40.056H149.176ZM162.864 38.008H156.624L155.28 41H154.048L159.168 29.8H160.336L165.456 41H164.208L162.864 38.008ZM162.432 37.048L159.744 31.032L157.056 37.048H162.432ZM168.156 34.232C168.423 33.6667 168.818 33.24 169.34 32.952C169.874 32.664 170.53 32.52 171.308 32.52V33.624L171.036 33.608C170.151 33.608 169.458 33.88 168.956 34.424C168.455 34.968 168.204 35.7307 168.204 36.712V41H167.068V32.584H168.156V34.232ZM177.653 32.52C178.709 32.52 179.547 32.8293 180.165 33.448C180.795 34.056 181.109 34.9467 181.109 36.12V41H179.973V36.232C179.973 35.3573 179.755 34.6907 179.317 34.232C178.88 33.7733 178.256 33.544 177.445 33.544C176.539 33.544 175.819 33.816 175.285 34.36C174.763 34.8933 174.501 35.6347 174.501 36.584V41H173.365V32.584H174.453V34.136C174.763 33.624 175.189 33.2293 175.733 32.952C176.288 32.664 176.928 32.52 177.653 32.52ZM187.137 32.52C188.236 32.52 189.079 32.7973 189.665 33.352C190.252 33.896 190.545 34.7067 190.545 35.784V41H189.457V39.688C189.201 40.1253 188.823 40.4667 188.321 40.712C187.831 40.9573 187.244 41.08 186.561 41.08C185.623 41.08 184.876 40.856 184.321 40.408C183.767 39.96 183.489 39.368 183.489 38.632C183.489 37.9173 183.745 37.3413 184.257 36.904C184.78 36.4667 185.607 36.248 186.737 36.248H189.409V35.736C189.409 35.0107 189.207 34.4613 188.801 34.088C188.396 33.704 187.804 33.512 187.025 33.512C186.492 33.512 185.98 33.6027 185.489 33.784C184.999 33.9547 184.577 34.1947 184.225 34.504L183.713 33.656C184.14 33.2933 184.652 33.016 185.249 32.824C185.847 32.6213 186.476 32.52 187.137 32.52ZM186.737 40.184C187.377 40.184 187.927 40.04 188.385 39.752C188.844 39.4533 189.185 39.0267 189.409 38.472V37.096H186.769C185.329 37.096 184.609 37.5973 184.609 38.6C184.609 39.0907 184.796 39.48 185.169 39.768C185.543 40.0453 186.065 40.184 186.737 40.184ZM201.215 32.584V41H200.127V39.464C199.828 39.976 199.418 40.376 198.895 40.664C198.372 40.9413 197.775 41.08 197.103 41.08C196.004 41.08 195.135 40.776 194.495 40.168C193.866 39.5493 193.551 38.648 193.551 37.464V32.584H194.687V37.352C194.687 38.2373 194.906 38.9093 195.343 39.368C195.78 39.8267 196.404 40.056 197.215 40.056C198.1 40.056 198.799 39.7893 199.311 39.256C199.823 38.712 200.079 37.96 200.079 37V32.584H201.215Z" fill="black"/>
<path d="M353.146 44.6462C352.951 44.8412 352.951 45.1583 353.146 45.3533C353.244 45.4513 353.372 45.4992 353.5 45.4992C353.628 45.4992 353.756 45.4503 353.854 45.3533L362.854 36.3533C363.049 36.1583 363.049 35.8412 362.854 35.6462L353.854 26.6462C353.659 26.4513 353.342 26.4513 353.147 26.6462C352.952 26.8413 352.952 27.1583 353.147 27.3533L361.793 36.0003L353.146 44.6462Z" fill="#2A2A2A"/>
<rect x="20" y="72" width="358" height="32" rx="10" fill="#CDE4E6"/>
<path d="M36.48 91.976V93H28.624V92.184L33.28 87.624C33.8667 87.048 34.2613 86.552 34.464 86.136C34.6773 85.7093 34.784 85.2827 34.784 84.856C34.784 84.1947 34.5547 83.6827 34.096 83.32C33.648 82.9467 33.0027 82.76 32.16 82.76C30.848 82.76 29.8293 83.176 29.104 84.008L28.288 83.304C28.7253 82.792 29.28 82.3973 29.952 82.12C30.6347 81.8427 31.4027 81.704 32.256 81.704C33.3973 81.704 34.2987 81.976 34.96 82.52C35.632 83.0533 35.968 83.7893 35.968 84.728C35.968 85.304 35.84 85.8587 35.584 86.392C35.328 86.9253 34.8427 87.5387 34.128 88.232L30.32 91.976H36.48ZM45.7673 81.8V82.616L41.0793 93H39.8313L44.4393 82.824H38.6793V84.92H37.5433V81.8H45.7673ZM50.6456 79.528H51.6856L46.4056 94.6H45.3656L50.6456 79.528ZM56.1085 93.096C55.2445 93.096 54.4712 92.8667 53.7885 92.408C53.1165 91.9493 52.5885 91.2933 52.2045 90.44C51.8312 89.576 51.6445 88.5627 51.6445 87.4C51.6445 86.2373 51.8312 85.2293 52.2045 84.376C52.5885 83.512 53.1165 82.8507 53.7885 82.392C54.4712 81.9333 55.2445 81.704 56.1085 81.704C56.9725 81.704 57.7405 81.9333 58.4125 82.392C59.0952 82.8507 59.6285 83.512 60.0125 84.376C60.3965 85.2293 60.5885 86.2373 60.5885 87.4C60.5885 88.5627 60.3965 89.576 60.0125 90.44C59.6285 91.2933 59.0952 91.9493 58.4125 92.408C57.7405 92.8667 56.9725 93.096 56.1085 93.096ZM56.1085 92.04C56.7592 92.04 57.3298 91.8587 57.8205 91.496C58.3218 91.1333 58.7112 90.6053 58.9885 89.912C59.2658 89.2187 59.4045 88.3813 59.4045 87.4C59.4045 86.4187 59.2658 85.5813 58.9885 84.888C58.7112 84.1947 58.3218 83.6667 57.8205 83.304C57.3298 82.9413 56.7592 82.76 56.1085 82.76C55.4578 82.76 54.8818 82.9413 54.3805 83.304C53.8898 83.6667 53.5058 84.1947 53.2285 84.888C52.9512 85.5813 52.8125 86.4187 52.8125 87.4C52.8125 88.3813 52.9512 89.2187 53.2285 89.912C53.5058 90.6053 53.8898 91.1333 54.3805 91.496C54.8818 91.8587 55.4578 92.04 56.1085 92.04ZM65.1823 86.392C66.8036 86.392 67.9823 86.6853 68.7183 87.272C69.4649 87.848 69.8383 88.6587 69.8383 89.704C69.8383 90.3547 69.6836 90.936 69.3743 91.448C69.0756 91.96 68.6223 92.3653 68.0143 92.664C67.4063 92.952 66.6596 93.096 65.7743 93.096C64.9743 93.096 64.2116 92.968 63.4863 92.712C62.7716 92.4453 62.1956 92.0933 61.7583 91.656L62.3183 90.744C62.6916 91.128 63.1823 91.4427 63.7903 91.688C64.3983 91.9227 65.0543 92.04 65.7583 92.04C66.6863 92.04 67.4009 91.832 67.9023 91.416C68.4143 91 68.6703 90.4453 68.6703 89.752C68.6703 88.984 68.3823 88.4027 67.8063 88.008C67.2409 87.6133 66.2809 87.416 64.9263 87.416H62.5423L63.1183 81.8H69.2463V82.824H64.1263L63.7423 86.392H65.1823ZM75.3488 79.528H76.3888L71.1088 94.6H70.0687L75.3488 79.528ZM80.2485 81.8V93H79.0965V82.824H76.4565V81.8H80.2485ZM86.4138 81.704C87.8964 81.704 89.0324 82.1947 89.8218 83.176C90.6111 84.1467 91.0058 85.5227 91.0058 87.304C91.0058 88.552 90.7924 89.608 90.3658 90.472C89.9391 91.336 89.3418 91.992 88.5738 92.44C87.8058 92.8773 86.9098 93.096 85.8858 93.096C84.7764 93.096 83.8911 92.8933 83.2298 92.488L83.6938 91.56C84.2271 91.912 84.9524 92.088 85.8698 92.088C87.1071 92.088 88.0778 91.6987 88.7818 90.92C89.4858 90.1307 89.8378 88.9893 89.8378 87.496C89.8378 87.2187 89.8218 86.9147 89.7898 86.584C89.5124 87.192 89.0698 87.6667 88.4618 88.008C87.8538 88.3387 87.1551 88.504 86.3658 88.504C85.6298 88.504 84.9738 88.3653 84.3978 88.088C83.8324 87.8107 83.3898 87.4213 83.0698 86.92C82.7498 86.408 82.5898 85.816 82.5898 85.144C82.5898 84.4613 82.7551 83.8587 83.0858 83.336C83.4164 82.8133 83.8698 82.4133 84.4457 82.136C85.0324 81.848 85.6884 81.704 86.4138 81.704ZM86.5418 87.528C87.1071 87.528 87.6031 87.4213 88.0298 87.208C88.4671 86.9947 88.8084 86.7013 89.0538 86.328C89.2991 85.9547 89.4218 85.5387 89.4218 85.08C89.4218 84.6533 89.3044 84.2587 89.0698 83.896C88.8458 83.5333 88.5098 83.24 88.0618 83.016C87.6138 82.792 87.0804 82.68 86.4618 82.68C85.6511 82.68 84.9898 82.904 84.4778 83.352C83.9764 83.7893 83.7258 84.376 83.7258 85.112C83.7258 85.848 83.9764 86.4347 84.4778 86.872C84.9898 87.3093 85.6778 87.528 86.5418 87.528ZM96.1638 81.704C97.6464 81.704 98.7824 82.1947 99.5718 83.176C100.361 84.1467 100.756 85.5227 100.756 87.304C100.756 88.552 100.542 89.608 100.116 90.472C99.6891 91.336 99.0918 91.992 98.3238 92.44C97.5558 92.8773 96.6598 93.096 95.6358 93.096C94.5264 93.096 93.6411 92.8933 92.9798 92.488L93.4438 91.56C93.9771 91.912 94.7024 92.088 95.6198 92.088C96.8571 92.088 97.8278 91.6987 98.5318 90.92C99.2358 90.1307 99.5878 88.9893 99.5878 87.496C99.5878 87.2187 99.5718 86.9147 99.5398 86.584C99.2624 87.192 98.8198 87.6667 98.2118 88.008C97.6038 88.3387 96.9051 88.504 96.1158 88.504C95.3798 88.504 94.7238 88.3653 94.1478 88.088C93.5824 87.8107 93.1398 87.4213 92.8198 86.92C92.4998 86.408 92.3398 85.816 92.3398 85.144C92.3398 84.4613 92.5051 83.8587 92.8358 83.336C93.1664 82.8133 93.6198 82.4133 94.1957 82.136C94.7824 81.848 95.4384 81.704 96.1638 81.704ZM96.2918 87.528C96.8571 87.528 97.3531 87.4213 97.7798 87.208C98.2171 86.9947 98.5584 86.7013 98.8038 86.328C99.0491 85.9547 99.1718 85.5387 99.1718 85.08C99.1718 84.6533 99.0544 84.2587 98.8198 83.896C98.5958 83.5333 98.2598 83.24 97.8118 83.016C97.3638 82.792 96.8304 82.68 96.2118 82.68C95.4011 82.68 94.7398 82.904 94.2278 83.352C93.7264 83.7893 93.4758 84.376 93.4758 85.112C93.4758 85.848 93.7264 86.4347 94.2278 86.872C94.7398 87.3093 95.4278 87.528 96.2918 87.528ZM110.205 81.8V82.616L105.517 93H104.269L108.877 82.824H103.117V84.92H101.981V81.8H110.205Z" fill="black"/>
<path d="M353.146 96.6462C352.951 96.8412 352.951 97.1583 353.146 97.3533C353.244 97.4513 353.372 97.4992 353.5 97.4992C353.628 97.4992 353.756 97.4503 353.854 97.3533L362.854 88.3533C363.049 88.1583 363.049 87.8412 362.854 87.6462L353.854 78.6462C353.659 78.4513 353.342 78.4513 353.147 78.6462C352.952 78.8413 352.952 79.1583 353.147 79.3533L361.793 88.0003L353.146 96.6462Z" fill="#2A2A2A"/>
<rect x="20" y="124" width="358" height="32" rx="10" fill="#CDE4E6"/>
<path d="M40.08 136.52C41.136 136.52 41.9627 136.824 42.56 137.432C43.168 138.04 43.472 138.936 43.472 140.12V145H42.336V140.232C42.336 139.357 42.1227 138.691 41.696 138.232C41.28 137.773 40.688 137.544 39.92 137.544C39.0453 137.544 38.3573 137.816 37.856 138.36C37.3547 138.893 37.104 139.635 37.104 140.584V145H35.968V140.232C35.968 139.357 35.7547 138.691 35.328 138.232C34.912 137.773 34.3147 137.544 33.536 137.544C32.672 137.544 31.984 137.816 31.472 138.36C30.9707 138.893 30.72 139.635 30.72 140.584V145H29.584V136.584H30.672V138.12C30.9707 137.608 31.3867 137.213 31.92 136.936C32.4533 136.659 33.0667 136.52 33.76 136.52C34.464 136.52 35.072 136.669 35.584 136.968C36.1067 137.267 36.496 137.709 36.752 138.296C37.0613 137.741 37.504 137.309 38.08 137C38.6667 136.68 39.3333 136.52 40.08 136.52ZM46.6648 145.08C46.4301 145.08 46.2274 144.995 46.0568 144.824C45.8968 144.653 45.8168 144.445 45.8168 144.2C45.8168 143.955 45.8968 143.752 46.0568 143.592C46.2274 143.421 46.4301 143.336 46.6648 143.336C46.8994 143.336 47.1021 143.421 47.2728 143.592C47.4434 143.752 47.5288 143.955 47.5288 144.2C47.5288 144.445 47.4434 144.653 47.2728 144.824C47.1021 144.995 46.8994 145.08 46.6648 145.08ZM57.501 136.584V143.976C57.501 145.405 57.149 146.461 56.445 147.144C55.7517 147.837 54.701 148.184 53.293 148.184C52.5143 148.184 51.773 148.067 51.069 147.832C50.3757 147.608 49.8103 147.293 49.373 146.888L49.949 146.024C50.3543 146.387 50.845 146.669 51.421 146.872C52.0077 147.075 52.621 147.176 53.261 147.176C54.3277 147.176 55.1117 146.925 55.613 146.424C56.1143 145.933 56.365 145.165 56.365 144.12V143.048C56.013 143.581 55.549 143.987 54.973 144.264C54.4077 144.541 53.7783 144.68 53.085 144.68C52.2957 144.68 51.5757 144.509 50.925 144.168C50.285 143.816 49.7783 143.331 49.405 142.712C49.0423 142.083 48.861 141.373 48.861 140.584C48.861 139.795 49.0423 139.091 49.405 138.472C49.7783 137.853 50.285 137.373 50.925 137.032C51.565 136.691 52.285 136.52 53.085 136.52C53.7997 136.52 54.445 136.664 55.021 136.952C55.597 137.24 56.061 137.656 56.413 138.2V136.584H57.501ZM53.197 143.672C53.805 143.672 54.3543 143.544 54.845 143.288C55.3357 143.021 55.7143 142.653 55.981 142.184C56.2583 141.715 56.397 141.181 56.397 140.584C56.397 139.987 56.2583 139.459 55.981 139C55.7143 138.531 55.3357 138.168 54.845 137.912C54.365 137.645 53.8157 137.512 53.197 137.512C52.589 137.512 52.0397 137.64 51.549 137.896C51.069 138.152 50.6903 138.515 50.413 138.984C50.1463 139.453 50.013 139.987 50.013 140.584C50.013 141.181 50.1463 141.715 50.413 142.184C50.6903 142.653 51.069 143.021 51.549 143.288C52.0397 143.544 52.589 143.672 53.197 143.672ZM64.1178 145.08C63.3071 145.08 62.5764 144.899 61.9258 144.536C61.2751 144.163 60.7631 143.651 60.3898 143C60.0164 142.349 59.8298 141.613 59.8298 140.792C59.8298 139.971 60.0164 139.235 60.3898 138.584C60.7631 137.933 61.2751 137.427 61.9258 137.064C62.5764 136.701 63.3071 136.52 64.1178 136.52C64.9284 136.52 65.6591 136.701 66.3098 137.064C66.9604 137.427 67.4671 137.933 67.8298 138.584C68.2031 139.235 68.3898 139.971 68.3898 140.792C68.3898 141.613 68.2031 142.349 67.8298 143C67.4671 143.651 66.9604 144.163 66.3098 144.536C65.6591 144.899 64.9284 145.08 64.1178 145.08ZM64.1178 144.072C64.7151 144.072 65.2484 143.939 65.7178 143.672C66.1978 143.395 66.5711 143.005 66.8378 142.504C67.1044 142.003 67.2378 141.432 67.2378 140.792C67.2378 140.152 67.1044 139.581 66.8378 139.08C66.5711 138.579 66.1978 138.195 65.7178 137.928C65.2484 137.651 64.7151 137.512 64.1178 137.512C63.5204 137.512 62.9818 137.651 62.5018 137.928C62.0324 138.195 61.6591 138.579 61.3818 139.08C61.1151 139.581 60.9818 140.152 60.9818 140.792C60.9818 141.432 61.1151 142.003 61.3818 142.504C61.6591 143.005 62.0324 143.395 62.5018 143.672C62.9818 143.939 63.5204 144.072 64.1178 144.072ZM74.997 136.52C76.053 136.52 76.8903 136.829 77.509 137.448C78.1383 138.056 78.453 138.947 78.453 140.12V145H77.317V140.232C77.317 139.357 77.0983 138.691 76.661 138.232C76.2237 137.773 75.5997 137.544 74.789 137.544C73.8823 137.544 73.1623 137.816 72.629 138.36C72.1063 138.893 71.845 139.635 71.845 140.584V145H70.709V136.584H71.797V138.136C72.1063 137.624 72.533 137.229 73.077 136.952C73.6317 136.664 74.2717 136.52 74.997 136.52ZM87.4731 144.056V145H80.6251V144.248L85.9211 137.544H80.7211V136.584H87.3771V137.336L82.0811 144.056H87.4731ZM92.653 136.52C93.7517 136.52 94.5943 136.797 95.181 137.352C95.7677 137.896 96.061 138.707 96.061 139.784V145H94.973V143.688C94.717 144.125 94.3383 144.467 93.837 144.712C93.3463 144.957 92.7597 145.08 92.077 145.08C91.1383 145.08 90.3917 144.856 89.837 144.408C89.2823 143.96 89.005 143.368 89.005 142.632C89.005 141.917 89.261 141.341 89.773 140.904C90.2957 140.467 91.1223 140.248 92.253 140.248H94.925V139.736C94.925 139.011 94.7223 138.461 94.317 138.088C93.9117 137.704 93.3197 137.512 92.541 137.512C92.0077 137.512 91.4957 137.603 91.005 137.784C90.5143 137.955 90.093 138.195 89.741 138.504L89.229 137.656C89.6557 137.293 90.1677 137.016 90.765 136.824C91.3623 136.621 91.9917 136.52 92.653 136.52ZM92.253 144.184C92.893 144.184 93.4423 144.04 93.901 143.752C94.3597 143.453 94.701 143.027 94.925 142.472V141.096H92.285C90.845 141.096 90.125 141.597 90.125 142.6C90.125 143.091 90.3117 143.48 90.685 143.768C91.0583 144.045 91.581 144.184 92.253 144.184ZM99.1465 133.128H100.283V145H99.1465V133.128ZM110.771 141.144H103.731C103.795 142.019 104.131 142.728 104.739 143.272C105.347 143.805 106.115 144.072 107.043 144.072C107.566 144.072 108.046 143.981 108.483 143.8C108.921 143.608 109.299 143.331 109.619 142.968L110.259 143.704C109.886 144.152 109.417 144.493 108.851 144.728C108.297 144.963 107.683 145.08 107.011 145.08C106.147 145.08 105.379 144.899 104.707 144.536C104.046 144.163 103.529 143.651 103.155 143C102.782 142.349 102.595 141.613 102.595 140.792C102.595 139.971 102.771 139.235 103.123 138.584C103.486 137.933 103.977 137.427 104.595 137.064C105.225 136.701 105.929 136.52 106.707 136.52C107.486 136.52 108.185 136.701 108.803 137.064C109.422 137.427 109.907 137.933 110.259 138.584C110.611 139.224 110.787 139.96 110.787 140.792L110.771 141.144ZM106.707 137.496C105.897 137.496 105.214 137.757 104.659 138.28C104.115 138.792 103.806 139.464 103.731 140.296H109.699C109.625 139.464 109.31 138.792 108.755 138.28C108.211 137.757 107.529 137.496 106.707 137.496ZM118.958 144.056V145H112.11V144.248L117.406 137.544H112.206V136.584H118.862V137.336L113.566 144.056H118.958ZM127.913 133.704C129.343 133.704 130.617 134.003 131.737 134.6C132.868 135.187 133.748 136.019 134.377 137.096C135.007 138.163 135.321 139.384 135.321 140.76C135.321 142.115 135.087 143.176 134.617 143.944C134.148 144.701 133.497 145.08 132.665 145.08C132.143 145.08 131.716 144.925 131.385 144.616C131.065 144.307 130.889 143.88 130.857 143.336C130.537 143.891 130.1 144.323 129.545 144.632C128.991 144.931 128.361 145.08 127.657 145.08C126.911 145.08 126.233 144.904 125.625 144.552C125.028 144.189 124.553 143.693 124.201 143.064C123.86 142.435 123.689 141.725 123.689 140.936C123.689 140.147 123.86 139.443 124.201 138.824C124.553 138.195 125.028 137.704 125.625 137.352C126.233 137 126.911 136.824 127.657 136.824C128.34 136.824 128.953 136.973 129.497 137.272C130.052 137.56 130.495 137.971 130.825 138.504V136.888H131.865V142.952C131.865 143.379 131.956 143.688 132.137 143.88C132.319 144.072 132.559 144.168 132.857 144.168C133.359 144.168 133.753 143.869 134.041 143.272C134.34 142.675 134.489 141.843 134.489 140.776C134.489 139.539 134.212 138.451 133.657 137.512C133.103 136.563 132.324 135.827 131.321 135.304C130.329 134.781 129.193 134.52 127.913 134.52C126.623 134.52 125.476 134.792 124.473 135.336C123.481 135.869 122.708 136.627 122.153 137.608C121.599 138.579 121.321 139.688 121.321 140.936C121.321 142.184 121.593 143.299 122.137 144.28C122.692 145.261 123.46 146.024 124.441 146.568C125.433 147.112 126.569 147.384 127.849 147.384C128.351 147.384 128.873 147.325 129.417 147.208C129.972 147.091 130.473 146.915 130.921 146.68L131.193 147.464C130.735 147.699 130.201 147.88 129.593 148.008C128.996 148.136 128.415 148.2 127.849 148.2C126.399 148.2 125.113 147.891 123.993 147.272C122.873 146.653 121.999 145.795 121.369 144.696C120.751 143.587 120.441 142.333 120.441 140.936C120.441 139.528 120.756 138.28 121.385 137.192C122.015 136.093 122.895 135.24 124.025 134.632C125.167 134.013 126.463 133.704 127.913 133.704ZM127.801 144.152C128.377 144.152 128.895 144.019 129.353 143.752C129.812 143.485 130.175 143.112 130.441 142.632C130.708 142.141 130.841 141.576 130.841 140.936C130.841 140.307 130.708 139.752 130.441 139.272C130.175 138.781 129.812 138.408 129.353 138.152C128.895 137.885 128.377 137.752 127.801 137.752C127.215 137.752 126.687 137.885 126.217 138.152C125.759 138.419 125.396 138.792 125.129 139.272C124.873 139.752 124.745 140.307 124.745 140.936C124.745 141.565 124.873 142.125 125.129 142.616C125.396 143.096 125.759 143.475 126.217 143.752C126.687 144.019 127.215 144.152 127.801 144.152ZM145.517 136.584V143.976C145.517 145.405 145.165 146.461 144.461 147.144C143.767 147.837 142.717 148.184 141.309 148.184C140.53 148.184 139.789 148.067 139.085 147.832C138.391 147.608 137.826 147.293 137.389 146.888L137.965 146.024C138.37 146.387 138.861 146.669 139.437 146.872C140.023 147.075 140.637 147.176 141.277 147.176C142.343 147.176 143.127 146.925 143.629 146.424C144.13 145.933 144.381 145.165 144.381 144.12V143.048C144.029 143.581 143.565 143.987 142.989 144.264C142.423 144.541 141.794 144.68 141.101 144.68C140.311 144.68 139.591 144.509 138.941 144.168C138.301 143.816 137.794 143.331 137.421 142.712C137.058 142.083 136.877 141.373 136.877 140.584C136.877 139.795 137.058 139.091 137.421 138.472C137.794 137.853 138.301 137.373 138.941 137.032C139.581 136.691 140.301 136.52 141.101 136.52C141.815 136.52 142.461 136.664 143.037 136.952C143.613 137.24 144.077 137.656 144.429 138.2V136.584H145.517ZM141.213 143.672C141.821 143.672 142.37 143.544 142.861 143.288C143.351 143.021 143.73 142.653 143.997 142.184C144.274 141.715 144.413 141.181 144.413 140.584C144.413 139.987 144.274 139.459 143.997 139C143.73 138.531 143.351 138.168 142.861 137.912C142.381 137.645 141.831 137.512 141.213 137.512C140.605 137.512 140.055 137.64 139.565 137.896C139.085 138.152 138.706 138.515 138.429 138.984C138.162 139.453 138.029 139.987 138.029 140.584C138.029 141.181 138.162 141.715 138.429 142.184C138.706 142.653 139.085 143.021 139.565 143.288C140.055 143.544 140.605 143.672 141.213 143.672ZM159.189 136.52C160.245 136.52 161.072 136.824 161.669 137.432C162.277 138.04 162.581 138.936 162.581 140.12V145H161.445V140.232C161.445 139.357 161.232 138.691 160.805 138.232C160.389 137.773 159.797 137.544 159.029 137.544C158.155 137.544 157.467 137.816 156.965 138.36C156.464 138.893 156.213 139.635 156.213 140.584V145H155.077V140.232C155.077 139.357 154.864 138.691 154.437 138.232C154.021 137.773 153.424 137.544 152.645 137.544C151.781 137.544 151.093 137.816 150.581 138.36C150.08 138.893 149.829 139.635 149.829 140.584V145H148.693V136.584H149.781V138.12C150.08 137.608 150.496 137.213 151.029 136.936C151.563 136.659 152.176 136.52 152.869 136.52C153.573 136.52 154.181 136.669 154.693 136.968C155.216 137.267 155.605 137.709 155.861 138.296C156.171 137.741 156.613 137.309 157.189 137C157.776 136.68 158.443 136.52 159.189 136.52ZM168.606 136.52C169.705 136.52 170.547 136.797 171.134 137.352C171.721 137.896 172.014 138.707 172.014 139.784V145H170.926V143.688C170.67 144.125 170.291 144.467 169.79 144.712C169.299 144.957 168.713 145.08 168.03 145.08C167.091 145.08 166.345 144.856 165.79 144.408C165.235 143.96 164.958 143.368 164.958 142.632C164.958 141.917 165.214 141.341 165.726 140.904C166.249 140.467 167.075 140.248 168.206 140.248H170.878V139.736C170.878 139.011 170.675 138.461 170.27 138.088C169.865 137.704 169.273 137.512 168.494 137.512C167.961 137.512 167.449 137.603 166.958 137.784C166.467 137.955 166.046 138.195 165.694 138.504L165.182 137.656C165.609 137.293 166.121 137.016 166.718 136.824C167.315 136.621 167.945 136.52 168.606 136.52ZM168.206 144.184C168.846 144.184 169.395 144.04 169.854 143.752C170.313 143.453 170.654 143.027 170.878 142.472V141.096H168.238C166.798 141.096 166.078 141.597 166.078 142.6C166.078 143.091 166.265 143.48 166.638 143.768C167.011 144.045 167.534 144.184 168.206 144.184ZM175.1 136.584H176.236V145H175.1V136.584ZM175.676 134.744C175.441 134.744 175.244 134.664 175.084 134.504C174.924 134.344 174.844 134.152 174.844 133.928C174.844 133.715 174.924 133.528 175.084 133.368C175.244 133.208 175.441 133.128 175.676 133.128C175.91 133.128 176.108 133.208 176.268 133.368C176.428 133.517 176.508 133.699 176.508 133.912C176.508 134.147 176.428 134.344 176.268 134.504C176.108 134.664 175.91 134.744 175.676 134.744ZM179.397 133.128H180.533V145H179.397V133.128ZM183.805 145.08C183.571 145.08 183.368 144.995 183.197 144.824C183.037 144.653 182.957 144.445 182.957 144.2C182.957 143.955 183.037 143.752 183.197 143.592C183.368 143.421 183.571 143.336 183.805 143.336C184.04 143.336 184.243 143.421 184.413 143.592C184.584 143.752 184.669 143.955 184.669 144.2C184.669 144.445 184.584 144.653 184.413 144.824C184.243 144.995 184.04 145.08 183.805 145.08ZM190.338 145.08C189.506 145.08 188.759 144.899 188.098 144.536C187.447 144.173 186.935 143.667 186.562 143.016C186.188 142.355 186.002 141.613 186.002 140.792C186.002 139.971 186.188 139.235 186.562 138.584C186.935 137.933 187.447 137.427 188.098 137.064C188.759 136.701 189.506 136.52 190.338 136.52C191.063 136.52 191.708 136.664 192.274 136.952C192.85 137.229 193.303 137.64 193.634 138.184L192.786 138.76C192.508 138.344 192.156 138.035 191.73 137.832C191.303 137.619 190.839 137.512 190.338 137.512C189.73 137.512 189.18 137.651 188.69 137.928C188.21 138.195 187.831 138.579 187.554 139.08C187.287 139.581 187.154 140.152 187.154 140.792C187.154 141.443 187.287 142.019 187.554 142.52C187.831 143.011 188.21 143.395 188.69 143.672C189.18 143.939 189.73 144.072 190.338 144.072C190.839 144.072 191.303 143.971 191.73 143.768C192.156 143.565 192.508 143.256 192.786 142.84L193.634 143.416C193.303 143.96 192.85 144.376 192.274 144.664C191.698 144.941 191.052 145.08 190.338 145.08ZM199.165 145.08C198.354 145.08 197.623 144.899 196.973 144.536C196.322 144.163 195.81 143.651 195.437 143C195.063 142.349 194.877 141.613 194.877 140.792C194.877 139.971 195.063 139.235 195.437 138.584C195.81 137.933 196.322 137.427 196.973 137.064C197.623 136.701 198.354 136.52 199.165 136.52C199.975 136.52 200.706 136.701 201.357 137.064C202.007 137.427 202.514 137.933 202.877 138.584C203.25 139.235 203.437 139.971 203.437 140.792C203.437 141.613 203.25 142.349 202.877 143C202.514 143.651 202.007 144.163 201.357 144.536C200.706 144.899 199.975 145.08 199.165 145.08ZM199.165 144.072C199.762 144.072 200.295 143.939 200.765 143.672C201.245 143.395 201.618 143.005 201.885 142.504C202.151 142.003 202.285 141.432 202.285 140.792C202.285 140.152 202.151 139.581 201.885 139.08C201.618 138.579 201.245 138.195 200.765 137.928C200.295 137.651 199.762 137.512 199.165 137.512C198.567 137.512 198.029 137.651 197.549 137.928C197.079 138.195 196.706 138.579 196.429 139.08C196.162 139.581 196.029 140.152 196.029 140.792C196.029 141.432 196.162 142.003 196.429 142.504C196.706 143.005 197.079 143.395 197.549 143.672C198.029 143.939 198.567 144.072 199.165 144.072ZM216.252 136.52C217.308 136.52 218.135 136.824 218.732 137.432C219.34 138.04 219.644 138.936 219.644 140.12V145H218.508V140.232C218.508 139.357 218.295 138.691 217.868 138.232C217.452 137.773 216.86 137.544 216.092 137.544C215.217 137.544 214.529 137.816 214.028 138.36C213.527 138.893 213.276 139.635 213.276 140.584V145H212.14V140.232C212.14 139.357 211.927 138.691 211.5 138.232C211.084 137.773 210.487 137.544 209.708 137.544C208.844 137.544 208.156 137.816 207.644 138.36C207.143 138.893 206.892 139.635 206.892 140.584V145H205.756V136.584H206.844V138.12C207.143 137.608 207.559 137.213 208.092 136.936C208.625 136.659 209.239 136.52 209.932 136.52C210.636 136.52 211.244 136.669 211.756 136.968C212.279 137.267 212.668 137.709 212.924 138.296C213.233 137.741 213.676 137.309 214.252 137C214.839 136.68 215.505 136.52 216.252 136.52Z" fill="black"/>
<path d="M353.146 148.646C352.951 148.841 352.951 149.158 353.146 149.353C353.244 149.451 353.372 149.499 353.5 149.499C353.628 149.499 353.756 149.45 353.854 149.353L362.854 140.353C363.049 140.158 363.049 139.841 362.854 139.646L353.854 130.646C353.659 130.451 353.342 130.451 353.147 130.646C352.952 130.841 352.952 131.158 353.147 131.353L361.793 140L353.146 148.646Z" fill="#2A2A2A"/>
<rect x="20" y="176" width="358" height="32" rx="10" fill="#CDE4E6"/>
<path d="M31.84 188.024L33.824 189.144L33.456 189.816L31.456 188.648V190.92H30.72L30.736 188.648L28.736 189.816L28.352 189.144L30.352 188.024L28.352 186.904L28.736 186.216L30.736 187.4L30.72 185.128H31.456V187.4L33.456 186.216L33.824 186.904L31.84 188.024ZM38.3244 188.024L40.3084 189.144L39.9404 189.816L37.9404 188.648V190.92H37.2044L37.2204 188.648L35.2204 189.816L34.8364 189.144L36.8364 188.024L34.8364 186.904L35.2204 186.216L37.2204 187.4L37.2044 185.128H37.9404V187.4L39.9404 186.216L40.3084 186.904L38.3244 188.024ZM44.8088 188.024L46.7928 189.144L46.4248 189.816L44.4248 188.648V190.92H43.6888L43.7048 188.648L41.7048 189.816L41.3208 189.144L43.3207 188.024L41.3208 186.904L41.7048 186.216L43.7048 187.4L43.6888 185.128H44.4248V187.4L46.4248 186.216L46.7928 186.904L44.8088 188.024ZM51.2931 188.024L53.2771 189.144L52.9091 189.816L50.9091 188.648V190.92H50.1731L50.1891 188.648L48.1891 189.816L47.8051 189.144L49.8051 188.024L47.8051 186.904L48.1891 186.216L50.1891 187.4L50.1731 185.128H50.9091V187.4L52.9091 186.216L53.2771 186.904L51.2931 188.024ZM57.7775 188.024L59.7615 189.144L59.3935 189.816L57.3935 188.648V190.92H56.6575L56.6735 188.648L54.6735 189.816L54.2895 189.144L56.2895 188.024L54.2895 186.904L54.6735 186.216L56.6735 187.4L56.6575 185.128H57.3935V187.4L59.3935 186.216L59.7615 186.904L57.7775 188.024ZM64.2619 188.024L66.2459 189.144L65.8779 189.816L63.8779 188.648V190.92H63.1419L63.1579 188.648L61.1579 189.816L60.7739 189.144L62.7739 188.024L60.7739 186.904L61.1579 186.216L63.1579 187.4L63.1419 185.128H63.8779V187.4L65.8779 186.216L66.2459 186.904L64.2619 188.024ZM70.7463 188.024L72.7303 189.144L72.3623 189.816L70.3623 188.648V190.92H69.6263L69.6423 188.648L67.6423 189.816L67.2583 189.144L69.2582 188.024L67.2583 186.904L67.6423 186.216L69.6423 187.4L69.6263 185.128H70.3623V187.4L72.3623 186.216L72.7303 186.904L70.7463 188.024ZM77.2306 188.024L79.2146 189.144L78.8466 189.816L76.8466 188.648V190.92H76.1106L76.1266 188.648L74.1266 189.816L73.7426 189.144L75.7426 188.024L73.7426 186.904L74.1266 186.216L76.1266 187.4L76.1106 185.128H76.8466V187.4L78.8466 186.216L79.2146 186.904L77.2306 188.024Z" fill="black"/>
<path d="M353.146 200.646C352.951 200.841 352.951 201.158 353.146 201.353C353.244 201.451 353.372 201.499 353.5 201.499C353.628 201.499 353.756 201.45 353.854 201.353L362.854 192.353C363.049 192.158 363.049 191.841 362.854 191.646L353.854 182.646C353.659 182.451 353.342 182.451 353.147 182.646C352.952 182.841 352.952 183.158 353.147 183.353L361.793 192L353.146 200.646Z" fill="#2A2A2A"/>
<rect x="20" y="228" width="358" height="32" rx="10" fill="#CDE4E6"/>
<path d="M34.016 237.8C35.4453 237.8 36.5653 238.141 37.376 238.824C38.1867 239.507 38.592 240.445 38.592 241.64C38.592 242.835 38.1867 243.773 37.376 244.456C36.5653 245.128 35.4453 245.464 34.016 245.464H31.008V249H29.824V237.8H34.016ZM33.984 244.424C35.0933 244.424 35.9413 244.184 36.528 243.704C37.1147 243.213 37.408 242.525 37.408 241.64C37.408 240.733 37.1147 240.04 36.528 239.56C35.9413 239.069 35.0933 238.824 33.984 238.824H31.008V244.424H33.984ZM41.7814 242.232C42.048 241.667 42.4427 241.24 42.9654 240.952C43.4987 240.664 44.1547 240.52 44.9334 240.52V241.624L44.6614 241.608C43.776 241.608 43.0827 241.88 42.5814 242.424C42.08 242.968 41.8294 243.731 41.8294 244.712V249H40.6934V240.584H41.7814V242.232ZM46.9903 240.584H48.1263V249H46.9903V240.584ZM47.5663 238.744C47.3316 238.744 47.1343 238.664 46.9743 238.504C46.8143 238.344 46.7343 238.152 46.7343 237.928C46.7343 237.715 46.8143 237.528 46.9743 237.368C47.1343 237.208 47.3316 237.128 47.5663 237.128C47.8009 237.128 47.9983 237.208 48.1583 237.368C48.3183 237.517 48.3983 237.699 48.3983 237.912C48.3983 238.147 48.3183 238.344 48.1583 238.504C47.9983 238.664 47.8009 238.744 47.5663 238.744ZM58.3591 240.584L54.6151 249H53.4471L49.7191 240.584H50.9031L54.0551 247.752L57.2391 240.584H58.3591ZM62.653 240.52C63.7517 240.52 64.5943 240.797 65.181 241.352C65.7677 241.896 66.061 242.707 66.061 243.784V249H64.973V247.688C64.717 248.125 64.3383 248.467 63.837 248.712C63.3463 248.957 62.7597 249.08 62.077 249.08C61.1383 249.08 60.3917 248.856 59.837 248.408C59.2823 247.96 59.005 247.368 59.005 246.632C59.005 245.917 59.261 245.341 59.773 244.904C60.2957 244.467 61.1223 244.248 62.253 244.248H64.925V243.736C64.925 243.011 64.7223 242.461 64.317 242.088C63.9117 241.704 63.3197 241.512 62.541 241.512C62.0077 241.512 61.4957 241.603 61.005 241.784C60.5143 241.955 60.093 242.195 59.741 242.504L59.229 241.656C59.6557 241.293 60.1677 241.016 60.765 240.824C61.3623 240.621 61.9917 240.52 62.653 240.52ZM62.253 248.184C62.893 248.184 63.4423 248.04 63.901 247.752C64.3597 247.453 64.701 247.027 64.925 246.472V245.096H62.285C60.845 245.096 60.125 245.597 60.125 246.6C60.125 247.091 60.3117 247.48 60.685 247.768C61.0583 248.045 61.581 248.184 62.253 248.184ZM72.6658 249.08C71.8338 249.08 71.0871 248.899 70.4258 248.536C69.7751 248.173 69.2631 247.667 68.8898 247.016C68.5164 246.355 68.3298 245.613 68.3298 244.792C68.3298 243.971 68.5164 243.235 68.8898 242.584C69.2631 241.933 69.7751 241.427 70.4258 241.064C71.0871 240.701 71.8338 240.52 72.6658 240.52C73.3911 240.52 74.0364 240.664 74.6018 240.952C75.1778 241.229 75.6311 241.64 75.9618 242.184L75.1138 242.76C74.8364 242.344 74.4844 242.035 74.0578 241.832C73.6311 241.619 73.1671 241.512 72.6658 241.512C72.0578 241.512 71.5084 241.651 71.0178 241.928C70.5378 242.195 70.1591 242.579 69.8818 243.08C69.6151 243.581 69.4818 244.152 69.4818 244.792C69.4818 245.443 69.6151 246.019 69.8818 246.52C70.1591 247.011 70.5378 247.395 71.0178 247.672C71.5084 247.939 72.0578 248.072 72.6658 248.072C73.1671 248.072 73.6311 247.971 74.0578 247.768C74.4844 247.565 74.8364 247.256 75.1138 246.84L75.9618 247.416C75.6311 247.96 75.1778 248.376 74.6018 248.664C74.0258 248.941 73.3804 249.08 72.6658 249.08ZM78.1934 240.584H79.3294V249H78.1934V240.584ZM78.7694 238.744C78.5347 238.744 78.3374 238.664 78.1774 238.504C78.0174 238.344 77.9374 238.152 77.9374 237.928C77.9374 237.715 78.0174 237.528 78.1774 237.368C78.3374 237.208 78.5347 237.128 78.7694 237.128C79.004 237.128 79.2014 237.208 79.3614 237.368C79.5214 237.517 79.6014 237.699 79.6014 237.912C79.6014 238.147 79.5214 238.344 79.3614 238.504C79.2014 238.664 79.004 238.744 78.7694 238.744ZM86.9223 248.488C86.7089 248.68 86.4423 248.829 86.1223 248.936C85.8129 249.032 85.4876 249.08 85.1463 249.08C84.3569 249.08 83.7489 248.867 83.3223 248.44C82.8956 248.013 82.6823 247.411 82.6823 246.632V241.544H81.1783V240.584H82.6823V238.744H83.8183V240.584H86.3783V241.544H83.8183V246.568C83.8183 247.069 83.9409 247.453 84.1863 247.72C84.4423 247.976 84.8049 248.104 85.2743 248.104C85.5089 248.104 85.7329 248.067 85.9463 247.992C86.1703 247.917 86.3623 247.811 86.5223 247.672L86.9223 248.488ZM91.9343 240.52C93.0329 240.52 93.8756 240.797 94.4623 241.352C95.0489 241.896 95.3423 242.707 95.3423 243.784V249H94.2543V247.688C93.9983 248.125 93.6196 248.467 93.1183 248.712C92.6276 248.957 92.0409 249.08 91.3583 249.08C90.4196 249.08 89.6729 248.856 89.1183 248.408C88.5636 247.96 88.2863 247.368 88.2863 246.632C88.2863 245.917 88.5423 245.341 89.0543 244.904C89.5769 244.467 90.4036 244.248 91.5343 244.248H94.2063V243.736C94.2063 243.011 94.0036 242.461 93.5983 242.088C93.1929 241.704 92.6009 241.512 91.8223 241.512C91.2889 241.512 90.7769 241.603 90.2863 241.784C89.7956 241.955 89.3743 242.195 89.0223 242.504L88.5103 241.656C88.9369 241.293 89.4489 241.016 90.0463 240.824C90.6436 240.621 91.2729 240.52 91.9343 240.52ZM91.5343 248.184C92.1743 248.184 92.7236 248.04 93.1823 247.752C93.6409 247.453 93.9823 247.027 94.2063 246.472V245.096H91.5663C90.1263 245.096 89.4062 245.597 89.4062 246.6C89.4062 247.091 89.5929 247.48 89.9663 247.768C90.3396 248.045 90.8623 248.184 91.5343 248.184ZM102.86 248.488C102.646 248.68 102.38 248.829 102.06 248.936C101.75 249.032 101.425 249.08 101.084 249.08C100.294 249.08 99.6864 248.867 99.2598 248.44C98.8331 248.013 98.6198 247.411 98.6198 246.632V241.544H97.1158V240.584H98.6198V238.744H99.7558V240.584H102.316V241.544H99.7558V246.568C99.7558 247.069 99.8784 247.453 100.124 247.72C100.38 247.976 100.742 248.104 101.212 248.104C101.446 248.104 101.67 248.067 101.884 247.992C102.108 247.917 102.3 247.811 102.46 247.672L102.86 248.488Z" fill="black"/>
<path d="M353.146 252.646C352.951 252.841 352.951 253.158 353.146 253.353C353.244 253.451 353.372 253.499 353.5 253.499C353.628 253.499 353.756 253.45 353.854 253.353L362.854 244.353C363.049 244.158 363.049 243.841 362.854 243.646L353.854 234.646C353.659 234.451 353.342 234.451 353.147 234.646C352.952 234.841 352.952 235.158 353.147 235.353L361.793 244L353.146 252.646Z" fill="#2A2A2A"/>
<rect x="20" y="280" width="358" height="32" rx="10" fill="#CDE4E6"/>
<path d="M39.184 289.8V301H38.208L31.008 291.912V301H29.824V289.8H30.8L38.016 298.888V289.8H39.184ZM46.0396 301.08C45.229 301.08 44.4983 300.899 43.8476 300.536C43.197 300.163 42.685 299.651 42.3116 299C41.9383 298.349 41.7516 297.613 41.7516 296.792C41.7516 295.971 41.9383 295.235 42.3116 294.584C42.685 293.933 43.197 293.427 43.8476 293.064C44.4983 292.701 45.229 292.52 46.0396 292.52C46.8503 292.52 47.581 292.701 48.2316 293.064C48.8823 293.427 49.389 293.933 49.7516 294.584C50.125 295.235 50.3116 295.971 50.3116 296.792C50.3116 297.613 50.125 298.349 49.7516 299C49.389 299.651 48.8823 300.163 48.2316 300.536C47.581 300.899 46.8503 301.08 46.0396 301.08ZM46.0396 300.072C46.637 300.072 47.1703 299.939 47.6396 299.672C48.1196 299.395 48.493 299.005 48.7596 298.504C49.0263 298.003 49.1596 297.432 49.1596 296.792C49.1596 296.152 49.0263 295.581 48.7596 295.08C48.493 294.579 48.1196 294.195 47.6396 293.928C47.1703 293.651 46.637 293.512 46.0396 293.512C45.4423 293.512 44.9036 293.651 44.4236 293.928C43.9543 294.195 43.581 294.579 43.3036 295.08C43.037 295.581 42.9036 296.152 42.9036 296.792C42.9036 297.432 43.037 298.003 43.3036 298.504C43.581 299.005 43.9543 299.395 44.4236 299.672C44.9036 299.939 45.4423 300.072 46.0396 300.072ZM57.0629 300.488C56.8495 300.68 56.5829 300.829 56.2629 300.936C55.9535 301.032 55.6282 301.08 55.2869 301.08C54.4975 301.08 53.8895 300.867 53.4629 300.44C53.0362 300.013 52.8229 299.411 52.8229 298.632V293.544H51.3189V292.584H52.8229V290.744H53.9589V292.584H56.5189V293.544H53.9589V298.568C53.9589 299.069 54.0815 299.453 54.3269 299.72C54.5829 299.976 54.9455 300.104 55.4149 300.104C55.6495 300.104 55.8735 300.067 56.0869 299.992C56.3109 299.917 56.5029 299.811 56.6629 299.672L57.0629 300.488ZM59.1309 292.584H60.2669V301H59.1309V292.584ZM59.7069 290.744C59.4722 290.744 59.2749 290.664 59.1149 290.504C58.9549 290.344 58.8749 290.152 58.8749 289.928C58.8749 289.715 58.9549 289.528 59.1149 289.368C59.2749 289.208 59.4722 289.128 59.7069 289.128C59.9415 289.128 60.1389 289.208 60.2989 289.368C60.4589 289.517 60.5389 289.699 60.5389 289.912C60.5389 290.147 60.4589 290.344 60.2989 290.504C60.1389 290.664 59.9415 290.744 59.7069 290.744ZM66.2118 290.008C65.7211 290.008 65.3478 290.141 65.0918 290.408C64.8464 290.675 64.7238 291.069 64.7238 291.592V292.584H67.3158V293.544H64.7558V301H63.6198V293.544H62.1158V292.584H63.6198V291.544C63.6198 290.776 63.8384 290.168 64.2758 289.72C64.7238 289.272 65.3531 289.048 66.1638 289.048C66.4838 289.048 66.7931 289.096 67.0918 289.192C67.3904 289.277 67.6411 289.405 67.8438 289.576L67.4598 290.424C67.1291 290.147 66.7131 290.008 66.2118 290.008ZM70.1318 292.584H71.2678V301H70.1318V292.584ZM70.7078 290.744C70.4731 290.744 70.2758 290.664 70.1158 290.504C69.9558 290.344 69.8758 290.152 69.8758 289.928C69.8758 289.715 69.9558 289.528 70.1158 289.368C70.2758 289.208 70.4731 289.128 70.7078 289.128C70.9424 289.128 71.1398 289.208 71.2998 289.368C71.4598 289.517 71.5398 289.699 71.5398 289.912C71.5398 290.147 71.4598 290.344 71.2998 290.504C71.1398 290.664 70.9424 290.744 70.7078 290.744ZM77.9314 301.08C77.0994 301.08 76.3527 300.899 75.6914 300.536C75.0407 300.173 74.5287 299.667 74.1554 299.016C73.782 298.355 73.5954 297.613 73.5954 296.792C73.5954 295.971 73.782 295.235 74.1554 294.584C74.5287 293.933 75.0407 293.427 75.6914 293.064C76.3527 292.701 77.0994 292.52 77.9314 292.52C78.6567 292.52 79.302 292.664 79.8674 292.952C80.4434 293.229 80.8967 293.64 81.2274 294.184L80.3794 294.76C80.102 294.344 79.75 294.035 79.3234 293.832C78.8967 293.619 78.4327 293.512 77.9314 293.512C77.3234 293.512 76.774 293.651 76.2834 293.928C75.8034 294.195 75.4247 294.579 75.1474 295.08C74.8807 295.581 74.7474 296.152 74.7474 296.792C74.7474 297.443 74.8807 298.019 75.1474 298.52C75.4247 299.011 75.8034 299.395 76.2834 299.672C76.774 299.939 77.3234 300.072 77.9314 300.072C78.4327 300.072 78.8967 299.971 79.3234 299.768C79.75 299.565 80.102 299.256 80.3794 298.84L81.2274 299.416C80.8967 299.96 80.4434 300.376 79.8674 300.664C79.2914 300.941 78.646 301.08 77.9314 301.08ZM86.403 292.52C87.5017 292.52 88.3443 292.797 88.931 293.352C89.5177 293.896 89.811 294.707 89.811 295.784V301H88.723V299.688C88.467 300.125 88.0883 300.467 87.587 300.712C87.0963 300.957 86.5097 301.08 85.827 301.08C84.8883 301.08 84.1417 300.856 83.587 300.408C83.0323 299.96 82.755 299.368 82.755 298.632C82.755 297.917 83.011 297.341 83.523 296.904C84.0457 296.467 84.8723 296.248 86.003 296.248H88.675V295.736C88.675 295.011 88.4723 294.461 88.067 294.088C87.6617 293.704 87.0697 293.512 86.291 293.512C85.7577 293.512 85.2457 293.603 84.755 293.784C84.2643 293.955 83.843 294.195 83.491 294.504L82.979 293.656C83.4057 293.293 83.9177 293.016 84.515 292.824C85.1123 292.621 85.7417 292.52 86.403 292.52ZM86.003 300.184C86.643 300.184 87.1923 300.04 87.651 299.752C88.1097 299.453 88.451 299.027 88.675 298.472V297.096H86.035C84.595 297.096 83.875 297.597 83.875 298.6C83.875 299.091 84.0617 299.48 84.435 299.768C84.8083 300.045 85.331 300.184 86.003 300.184ZM96.4158 301.08C95.5838 301.08 94.8371 300.899 94.1758 300.536C93.5251 300.173 93.0131 299.667 92.6398 299.016C92.2664 298.355 92.0798 297.613 92.0798 296.792C92.0798 295.971 92.2664 295.235 92.6398 294.584C93.0131 293.933 93.5251 293.427 94.1758 293.064C94.8371 292.701 95.5838 292.52 96.4158 292.52C97.1411 292.52 97.7864 292.664 98.3518 292.952C98.9278 293.229 99.3811 293.64 99.7118 294.184L98.8638 294.76C98.5864 294.344 98.2344 294.035 97.8078 293.832C97.3811 293.619 96.9171 293.512 96.4158 293.512C95.8078 293.512 95.2584 293.651 94.7678 293.928C94.2878 294.195 93.9091 294.579 93.6318 295.08C93.3651 295.581 93.2318 296.152 93.2318 296.792C93.2318 297.443 93.3651 298.019 93.6318 298.52C93.9091 299.011 94.2878 299.395 94.7678 299.672C95.2584 299.939 95.8078 300.072 96.4158 300.072C96.9171 300.072 97.3811 299.971 97.8078 299.768C98.2344 299.565 98.5864 299.256 98.8638 298.84L99.7118 299.416C99.3811 299.96 98.9278 300.376 98.3518 300.664C97.7758 300.941 97.1304 301.08 96.4158 301.08ZM101.943 292.584H103.079V301H101.943V292.584ZM102.519 290.744C102.285 290.744 102.087 290.664 101.927 290.504C101.767 290.344 101.687 290.152 101.687 289.928C101.687 289.715 101.767 289.528 101.927 289.368C102.087 289.208 102.285 289.128 102.519 289.128C102.754 289.128 102.951 289.208 103.111 289.368C103.271 289.517 103.351 289.699 103.351 289.912C103.351 290.147 103.271 290.344 103.111 290.504C102.951 290.664 102.754 290.744 102.519 290.744ZM109.68 301.08C108.87 301.08 108.139 300.899 107.488 300.536C106.838 300.163 106.326 299.651 105.952 299C105.579 298.349 105.392 297.613 105.392 296.792C105.392 295.971 105.579 295.235 105.952 294.584C106.326 293.933 106.838 293.427 107.488 293.064C108.139 292.701 108.87 292.52 109.68 292.52C110.491 292.52 111.222 292.701 111.872 293.064C112.523 293.427 113.03 293.933 113.392 294.584C113.766 295.235 113.952 295.971 113.952 296.792C113.952 297.613 113.766 298.349 113.392 299C113.03 299.651 112.523 300.163 111.872 300.536C111.222 300.899 110.491 301.08 109.68 301.08ZM109.68 300.072C110.278 300.072 110.811 299.939 111.28 299.672C111.76 299.395 112.134 299.005 112.4 298.504C112.667 298.003 112.8 297.432 112.8 296.792C112.8 296.152 112.667 295.581 112.4 295.08C112.134 294.579 111.76 294.195 111.28 293.928C110.811 293.651 110.278 293.512 109.68 293.512C109.083 293.512 108.544 293.651 108.064 293.928C107.595 294.195 107.222 294.579 106.944 295.08C106.678 295.581 106.544 296.152 106.544 296.792C106.544 297.432 106.678 298.003 106.944 298.504C107.222 299.005 107.595 299.395 108.064 299.672C108.544 299.939 109.083 300.072 109.68 300.072ZM120.56 292.52C121.616 292.52 122.453 292.829 123.072 293.448C123.701 294.056 124.016 294.947 124.016 296.12V301H122.88V296.232C122.88 295.357 122.661 294.691 122.224 294.232C121.786 293.773 121.162 293.544 120.352 293.544C119.445 293.544 118.725 293.816 118.192 294.36C117.669 294.893 117.408 295.635 117.408 296.584V301H116.272V292.584H117.36V294.136C117.669 293.624 118.096 293.229 118.64 292.952C119.194 292.664 119.834 292.52 120.56 292.52ZM129.356 301.08C128.673 301.08 128.017 300.984 127.388 300.792C126.769 300.589 126.284 300.339 125.932 300.04L126.444 299.144C126.796 299.421 127.238 299.651 127.772 299.832C128.305 300.003 128.86 300.088 129.436 300.088C130.204 300.088 130.769 299.971 131.132 299.736C131.505 299.491 131.692 299.149 131.692 298.712C131.692 298.403 131.59 298.163 131.388 297.992C131.185 297.811 130.929 297.677 130.62 297.592C130.31 297.496 129.9 297.405 129.388 297.32C128.705 297.192 128.156 297.064 127.74 296.936C127.324 296.797 126.966 296.568 126.668 296.248C126.38 295.928 126.236 295.485 126.236 294.92C126.236 294.216 126.529 293.64 127.116 293.192C127.702 292.744 128.518 292.52 129.564 292.52C130.108 292.52 130.652 292.595 131.196 292.744C131.74 292.883 132.188 293.069 132.54 293.304L132.044 294.216C131.35 293.736 130.524 293.496 129.564 293.496C128.838 293.496 128.289 293.624 127.916 293.88C127.553 294.136 127.372 294.472 127.372 294.888C127.372 295.208 127.473 295.464 127.676 295.656C127.889 295.848 128.15 295.992 128.46 296.088C128.769 296.173 129.196 296.264 129.74 296.36C130.412 296.488 130.95 296.616 131.356 296.744C131.761 296.872 132.108 297.091 132.396 297.4C132.684 297.709 132.828 298.136 132.828 298.68C132.828 299.416 132.518 300.003 131.9 300.44C131.292 300.867 130.444 301.08 129.356 301.08Z" fill="black"/>
<path d="M353.146 304.646C352.951 304.841 352.951 305.158 353.146 305.353C353.244 305.451 353.372 305.499 353.5 305.499C353.628 305.499 353.756 305.45 353.854 305.353L362.854 296.353C363.049 296.158 363.049 295.841 362.854 295.646L353.854 286.646C353.659 286.451 353.342 286.451 353.147 286.646C352.952 286.841 352.952 287.158 353.147 287.353L361.793 296L353.146 304.646Z" fill="#2A2A2A"/>
<rect x="20" y="332" width="358" height="32" rx="10" fill="#CDE4E6"/>
<path d="M37.472 353L34.912 349.4C34.624 349.432 34.3253 349.448 34.016 349.448H31.008V353H29.824V341.8H34.016C35.4453 341.8 36.5653 342.141 37.376 342.824C38.1867 343.507 38.592 344.445 38.592 345.64C38.592 346.515 38.368 347.256 37.92 347.864C37.4827 348.461 36.8533 348.893 36.032 349.16L38.768 353H37.472ZM33.984 348.44C35.0933 348.44 35.9413 348.195 36.528 347.704C37.1147 347.213 37.408 346.525 37.408 345.64C37.408 344.733 37.1147 344.04 36.528 343.56C35.9413 343.069 35.0933 342.824 33.984 342.824H31.008V348.44H33.984ZM48.4745 349.144H41.4345C41.4985 350.019 41.8345 350.728 42.4425 351.272C43.0505 351.805 43.8185 352.072 44.7465 352.072C45.2692 352.072 45.7492 351.981 46.1865 351.8C46.6238 351.608 47.0025 351.331 47.3225 350.968L47.9625 351.704C47.5892 352.152 47.1198 352.493 46.5545 352.728C45.9998 352.963 45.3865 353.08 44.7145 353.08C43.8505 353.08 43.0825 352.899 42.4105 352.536C41.7492 352.163 41.2318 351.651 40.8585 351C40.4852 350.349 40.2985 349.613 40.2985 348.792C40.2985 347.971 40.4745 347.235 40.8265 346.584C41.1892 345.933 41.6798 345.427 42.2985 345.064C42.9278 344.701 43.6318 344.52 44.4105 344.52C45.1892 344.52 45.8878 344.701 46.5065 345.064C47.1252 345.427 47.6105 345.933 47.9625 346.584C48.3145 347.224 48.4905 347.96 48.4905 348.792L48.4745 349.144ZM44.4105 345.496C43.5998 345.496 42.9172 345.757 42.3625 346.28C41.8185 346.792 41.5092 347.464 41.4345 348.296H47.4025C47.3278 347.464 47.0132 346.792 46.4585 346.28C45.9145 345.757 45.2318 345.496 44.4105 345.496ZM54.2908 353.08C53.4588 353.08 52.7121 352.899 52.0508 352.536C51.4001 352.173 50.8881 351.667 50.5148 351.016C50.1414 350.355 49.9548 349.613 49.9548 348.792C49.9548 347.971 50.1414 347.235 50.5148 346.584C50.8881 345.933 51.4001 345.427 52.0508 345.064C52.7121 344.701 53.4588 344.52 54.2908 344.52C55.0161 344.52 55.6614 344.664 56.2268 344.952C56.8028 345.229 57.2561 345.64 57.5868 346.184L56.7388 346.76C56.4614 346.344 56.1094 346.035 55.6828 345.832C55.2561 345.619 54.7921 345.512 54.2908 345.512C53.6828 345.512 53.1334 345.651 52.6428 345.928C52.1628 346.195 51.7841 346.579 51.5068 347.08C51.2401 347.581 51.1068 348.152 51.1068 348.792C51.1068 349.443 51.2401 350.019 51.5068 350.52C51.7841 351.011 52.1628 351.395 52.6428 351.672C53.1334 351.939 53.6828 352.072 54.2908 352.072C54.7921 352.072 55.2561 351.971 55.6828 351.768C56.1094 351.565 56.4614 351.256 56.7388 350.84L57.5868 351.416C57.2561 351.96 56.8028 352.376 56.2268 352.664C55.6508 352.941 55.0054 353.08 54.2908 353.08ZM63.1178 353.08C62.3071 353.08 61.5764 352.899 60.9258 352.536C60.2751 352.163 59.7631 351.651 59.3898 351C59.0164 350.349 58.8298 349.613 58.8298 348.792C58.8298 347.971 59.0164 347.235 59.3898 346.584C59.7631 345.933 60.2751 345.427 60.9258 345.064C61.5764 344.701 62.3071 344.52 63.1178 344.52C63.9284 344.52 64.6591 344.701 65.3098 345.064C65.9604 345.427 66.4671 345.933 66.8298 346.584C67.2031 347.235 67.3898 347.971 67.3898 348.792C67.3898 349.613 67.2031 350.349 66.8298 351C66.4671 351.651 65.9604 352.163 65.3098 352.536C64.6591 352.899 63.9284 353.08 63.1178 353.08ZM63.1178 352.072C63.7151 352.072 64.2484 351.939 64.7178 351.672C65.1978 351.395 65.5711 351.005 65.8378 350.504C66.1044 350.003 66.2378 349.432 66.2378 348.792C66.2378 348.152 66.1044 347.581 65.8378 347.08C65.5711 346.579 65.1978 346.195 64.7178 345.928C64.2484 345.651 63.7151 345.512 63.1178 345.512C62.5204 345.512 61.9818 345.651 61.5018 345.928C61.0324 346.195 60.6591 346.579 60.3818 347.08C60.1151 347.581 59.9818 348.152 59.9818 348.792C59.9818 349.432 60.1151 350.003 60.3818 350.504C60.6591 351.005 61.0324 351.395 61.5018 351.672C61.9818 351.939 62.5204 352.072 63.1178 352.072ZM70.797 346.232C71.0637 345.667 71.4583 345.24 71.981 344.952C72.5143 344.664 73.1703 344.52 73.949 344.52V345.624L73.677 345.608C72.7917 345.608 72.0983 345.88 71.597 346.424C71.0957 346.968 70.845 347.731 70.845 348.712V353H69.709V344.584H70.797V346.232ZM83.6078 341.128V353H82.5198V351.336C82.1784 351.901 81.7251 352.333 81.1598 352.632C80.6051 352.931 79.9758 353.08 79.2718 353.08C78.4824 353.08 77.7678 352.899 77.1278 352.536C76.4878 352.173 75.9864 351.667 75.6238 351.016C75.2611 350.365 75.0798 349.624 75.0798 348.792C75.0798 347.96 75.2611 347.219 75.6238 346.568C75.9864 345.917 76.4878 345.416 77.1278 345.064C77.7678 344.701 78.4824 344.52 79.2718 344.52C79.9544 344.52 80.5678 344.664 81.1118 344.952C81.6664 345.229 82.1198 345.64 82.4718 346.184V341.128H83.6078ZM79.3678 352.072C79.9544 352.072 80.4824 351.939 80.9518 351.672C81.4318 351.395 81.8051 351.005 82.0718 350.504C82.3491 350.003 82.4878 349.432 82.4878 348.792C82.4878 348.152 82.3491 347.581 82.0718 347.08C81.8051 346.579 81.4318 346.195 80.9518 345.928C80.4824 345.651 79.9544 345.512 79.3678 345.512C78.7704 345.512 78.2318 345.651 77.7518 345.928C77.2824 346.195 76.9091 346.579 76.6318 347.08C76.3651 347.581 76.2318 348.152 76.2318 348.792C76.2318 349.432 76.3651 350.003 76.6318 350.504C76.9091 351.005 77.2824 351.395 77.7518 351.672C78.2318 351.939 78.7704 352.072 79.3678 352.072ZM89.7155 344.52C90.8142 344.52 91.6568 344.797 92.2435 345.352C92.8302 345.896 93.1235 346.707 93.1235 347.784V353H92.0355V351.688C91.7795 352.125 91.4008 352.467 90.8995 352.712C90.4088 352.957 89.8222 353.08 89.1395 353.08C88.2008 353.08 87.4542 352.856 86.8995 352.408C86.3448 351.96 86.0675 351.368 86.0675 350.632C86.0675 349.917 86.3235 349.341 86.8355 348.904C87.3582 348.467 88.1848 348.248 89.3155 348.248H91.9875V347.736C91.9875 347.011 91.7848 346.461 91.3795 346.088C90.9742 345.704 90.3822 345.512 89.6035 345.512C89.0702 345.512 88.5582 345.603 88.0675 345.784C87.5768 345.955 87.1555 346.195 86.8035 346.504L86.2915 345.656C86.7182 345.293 87.2302 345.016 87.8275 344.824C88.4248 344.621 89.0542 344.52 89.7155 344.52ZM89.3155 352.184C89.9555 352.184 90.5048 352.04 90.9635 351.752C91.4222 351.453 91.7635 351.027 91.9875 350.472V349.096H89.3475C87.9075 349.096 87.1875 349.597 87.1875 350.6C87.1875 351.091 87.3742 351.48 87.7475 351.768C88.1208 352.045 88.6435 352.184 89.3155 352.184ZM100.641 352.488C100.428 352.68 100.161 352.829 99.841 352.936C99.5317 353.032 99.2063 353.08 98.865 353.08C98.0757 353.08 97.4677 352.867 97.041 352.44C96.6143 352.013 96.401 351.411 96.401 350.632V345.544H94.897V344.584H96.401V342.744H97.537V344.584H100.097V345.544H97.537V350.568C97.537 351.069 97.6597 351.453 97.905 351.72C98.161 351.976 98.5237 352.104 98.993 352.104C99.2277 352.104 99.4517 352.067 99.665 351.992C99.889 351.917 100.081 351.811 100.241 351.672L100.641 352.488ZM105.852 353.08C105.041 353.08 104.311 352.899 103.66 352.536C103.009 352.163 102.497 351.651 102.124 351C101.751 350.349 101.564 349.613 101.564 348.792C101.564 347.971 101.751 347.235 102.124 346.584C102.497 345.933 103.009 345.427 103.66 345.064C104.311 344.701 105.041 344.52 105.852 344.52C106.663 344.52 107.393 344.701 108.044 345.064C108.695 345.427 109.201 345.933 109.564 346.584C109.937 347.235 110.124 347.971 110.124 348.792C110.124 349.613 109.937 350.349 109.564 351C109.201 351.651 108.695 352.163 108.044 352.536C107.393 352.899 106.663 353.08 105.852 353.08ZM105.852 352.072C106.449 352.072 106.983 351.939 107.452 351.672C107.932 351.395 108.305 351.005 108.572 350.504C108.839 350.003 108.972 349.432 108.972 348.792C108.972 348.152 108.839 347.581 108.572 347.08C108.305 346.579 107.932 346.195 107.452 345.928C106.983 345.651 106.449 345.512 105.852 345.512C105.255 345.512 104.716 345.651 104.236 345.928C103.767 346.195 103.393 346.579 103.116 347.08C102.849 347.581 102.716 348.152 102.716 348.792C102.716 349.432 102.849 350.003 103.116 350.504C103.393 351.005 103.767 351.395 104.236 351.672C104.716 351.939 105.255 352.072 105.852 352.072ZM113.531 346.232C113.798 345.667 114.193 345.24 114.715 344.952C115.249 344.664 115.905 344.52 116.683 344.52V345.624L116.411 345.608C115.526 345.608 114.833 345.88 114.331 346.424C113.83 346.968 113.579 347.731 113.579 348.712V353H112.443V344.584H113.531V346.232ZM118.74 344.584H119.876V353H118.74V344.584ZM119.316 342.744C119.082 342.744 118.884 342.664 118.724 342.504C118.564 342.344 118.484 342.152 118.484 341.928C118.484 341.715 118.564 341.528 118.724 341.368C118.884 341.208 119.082 341.128 119.316 341.128C119.551 341.128 119.748 341.208 119.908 341.368C120.068 341.517 120.148 341.699 120.148 341.912C120.148 342.147 120.068 342.344 119.908 342.504C119.748 342.664 119.551 342.744 119.316 342.744ZM125.293 353.08C124.61 353.08 123.954 352.984 123.325 352.792C122.706 352.589 122.221 352.339 121.869 352.04L122.381 351.144C122.733 351.421 123.176 351.651 123.709 351.832C124.242 352.003 124.797 352.088 125.373 352.088C126.141 352.088 126.706 351.971 127.069 351.736C127.442 351.491 127.629 351.149 127.629 350.712C127.629 350.403 127.528 350.163 127.325 349.992C127.122 349.811 126.866 349.677 126.557 349.592C126.248 349.496 125.837 349.405 125.325 349.32C124.642 349.192 124.093 349.064 123.677 348.936C123.261 348.797 122.904 348.568 122.605 348.248C122.317 347.928 122.173 347.485 122.173 346.92C122.173 346.216 122.466 345.64 123.053 345.192C123.64 344.744 124.456 344.52 125.501 344.52C126.045 344.52 126.589 344.595 127.133 344.744C127.677 344.883 128.125 345.069 128.477 345.304L127.981 346.216C127.288 345.736 126.461 345.496 125.501 345.496C124.776 345.496 124.226 345.624 123.853 345.88C123.49 346.136 123.309 346.472 123.309 346.888C123.309 347.208 123.41 347.464 123.613 347.656C123.826 347.848 124.088 347.992 124.397 348.088C124.706 348.173 125.133 348.264 125.677 348.36C126.349 348.488 126.888 348.616 127.293 348.744C127.698 348.872 128.045 349.091 128.333 349.4C128.621 349.709 128.765 350.136 128.765 350.68C128.765 351.416 128.456 352.003 127.837 352.44C127.229 352.867 126.381 353.08 125.293 353.08ZM142.733 341.128V353H141.645V351.336C141.303 351.901 140.85 352.333 140.285 352.632C139.73 352.931 139.101 353.08 138.397 353.08C137.607 353.08 136.893 352.899 136.253 352.536C135.613 352.173 135.111 351.667 134.749 351.016C134.386 350.365 134.205 349.624 134.205 348.792C134.205 347.96 134.386 347.219 134.749 346.568C135.111 345.917 135.613 345.416 136.253 345.064C136.893 344.701 137.607 344.52 138.397 344.52C139.079 344.52 139.693 344.664 140.237 344.952C140.791 345.229 141.245 345.64 141.597 346.184V341.128H142.733ZM138.493 352.072C139.079 352.072 139.607 351.939 140.077 351.672C140.557 351.395 140.93 351.005 141.197 350.504C141.474 350.003 141.613 349.432 141.613 348.792C141.613 348.152 141.474 347.581 141.197 347.08C140.93 346.579 140.557 346.195 140.077 345.928C139.607 345.651 139.079 345.512 138.493 345.512C137.895 345.512 137.357 345.651 136.877 345.928C136.407 346.195 136.034 346.579 135.757 347.08C135.49 347.581 135.357 348.152 135.357 348.792C135.357 349.432 135.49 350.003 135.757 350.504C136.034 351.005 136.407 351.395 136.877 351.672C137.357 351.939 137.895 352.072 138.493 352.072ZM145.897 344.584H147.033V353H145.897V344.584ZM146.473 342.744C146.238 342.744 146.041 342.664 145.881 342.504C145.721 342.344 145.641 342.152 145.641 341.928C145.641 341.715 145.721 341.528 145.881 341.368C146.041 341.208 146.238 341.128 146.473 341.128C146.707 341.128 146.905 341.208 147.065 341.368C147.225 341.517 147.305 341.699 147.305 341.912C147.305 342.147 147.225 342.344 147.065 342.504C146.905 342.664 146.707 342.744 146.473 342.744ZM153.137 344.52C154.236 344.52 155.079 344.797 155.665 345.352C156.252 345.896 156.545 346.707 156.545 347.784V353H155.457V351.688C155.201 352.125 154.823 352.467 154.321 352.712C153.831 352.957 153.244 353.08 152.561 353.08C151.623 353.08 150.876 352.856 150.321 352.408C149.767 351.96 149.489 351.368 149.489 350.632C149.489 349.917 149.745 349.341 150.257 348.904C150.78 348.467 151.607 348.248 152.737 348.248H155.409V347.736C155.409 347.011 155.207 346.461 154.801 346.088C154.396 345.704 153.804 345.512 153.025 345.512C152.492 345.512 151.98 345.603 151.489 345.784C150.999 345.955 150.577 346.195 150.225 346.504L149.713 345.656C150.14 345.293 150.652 345.016 151.249 344.824C151.847 344.621 152.476 344.52 153.137 344.52ZM152.737 352.184C153.377 352.184 153.927 352.04 154.385 351.752C154.844 351.453 155.185 351.027 155.409 350.472V349.096H152.769C151.329 349.096 150.609 349.597 150.609 350.6C150.609 351.091 150.796 351.48 151.169 351.768C151.543 352.045 152.065 352.184 152.737 352.184ZM160.719 346.232C160.986 345.667 161.38 345.24 161.903 344.952C162.436 344.664 163.092 344.52 163.871 344.52V345.624L163.599 345.608C162.714 345.608 162.02 345.88 161.519 346.424C161.018 346.968 160.767 347.731 160.767 348.712V353H159.631V344.584H160.719V346.232ZM165.928 344.584H167.064V353H165.928V344.584ZM166.504 342.744C166.269 342.744 166.072 342.664 165.912 342.504C165.752 342.344 165.672 342.152 165.672 341.928C165.672 341.715 165.752 341.528 165.912 341.368C166.072 341.208 166.269 341.128 166.504 341.128C166.738 341.128 166.936 341.208 167.096 341.368C167.256 341.517 167.336 341.699 167.336 341.912C167.336 342.147 167.256 342.344 167.096 342.504C166.936 342.664 166.738 342.744 166.504 342.744ZM172.481 353.08C171.798 353.08 171.142 352.984 170.513 352.792C169.894 352.589 169.409 352.339 169.057 352.04L169.569 351.144C169.921 351.421 170.363 351.651 170.897 351.832C171.43 352.003 171.985 352.088 172.561 352.088C173.329 352.088 173.894 351.971 174.257 351.736C174.63 351.491 174.817 351.149 174.817 350.712C174.817 350.403 174.715 350.163 174.513 349.992C174.31 349.811 174.054 349.677 173.745 349.592C173.435 349.496 173.025 349.405 172.513 349.32C171.83 349.192 171.281 349.064 170.865 348.936C170.449 348.797 170.091 348.568 169.793 348.248C169.505 347.928 169.361 347.485 169.361 346.92C169.361 346.216 169.654 345.64 170.241 345.192C170.827 344.744 171.643 344.52 172.689 344.52C173.233 344.52 173.777 344.595 174.321 344.744C174.865 344.883 175.313 345.069 175.665 345.304L175.169 346.216C174.475 345.736 173.649 345.496 172.689 345.496C171.963 345.496 171.414 345.624 171.041 345.88C170.678 346.136 170.497 346.472 170.497 346.888C170.497 347.208 170.598 347.464 170.801 347.656C171.014 347.848 171.275 347.992 171.585 348.088C171.894 348.173 172.321 348.264 172.865 348.36C173.537 348.488 174.075 348.616 174.481 348.744C174.886 348.872 175.233 349.091 175.521 349.4C175.809 349.709 175.953 350.136 175.953 350.68C175.953 351.416 175.643 352.003 175.025 352.44C174.417 352.867 173.569 353.08 172.481 353.08Z" fill="black"/>
<path d="M353.146 356.646C352.951 356.841 352.951 357.158 353.146 357.353C353.244 357.451 353.372 357.499 353.5 357.499C353.628 357.499 353.756 357.45 353.854 357.353L362.854 348.353C363.049 348.158 363.049 347.841 362.854 347.646L353.854 338.646C353.659 338.451 353.342 338.451 353.147 338.646C352.952 338.841 352.952 339.158 353.147 339.353L361.793 348L353.146 356.646Z" fill="#2A2A2A"/>
<rect x="20" y="384" width="358" height="32" rx="10" fill="#CDE4E6"/>
<path d="M29.824 393.8H31.008V403.976H37.28V405H29.824V393.8ZM46.2089 401.144H39.1689C39.2329 402.019 39.5689 402.728 40.1769 403.272C40.7849 403.805 41.5529 404.072 42.4809 404.072C43.0035 404.072 43.4835 403.981 43.9209 403.8C44.3582 403.608 44.7369 403.331 45.0569 402.968L45.6969 403.704C45.3235 404.152 44.8542 404.493 44.2889 404.728C43.7342 404.963 43.1209 405.08 42.4489 405.08C41.5849 405.08 40.8169 404.899 40.1449 404.536C39.4835 404.163 38.9662 403.651 38.5929 403C38.2195 402.349 38.0329 401.613 38.0329 400.792C38.0329 399.971 38.2089 399.235 38.5609 398.584C38.9235 397.933 39.4142 397.427 40.0329 397.064C40.6622 396.701 41.3662 396.52 42.1449 396.52C42.9235 396.52 43.6222 396.701 44.2409 397.064C44.8595 397.427 45.3449 397.933 45.6969 398.584C46.0489 399.224 46.2249 399.96 46.2249 400.792L46.2089 401.144ZM42.1449 397.496C41.3342 397.496 40.6515 397.757 40.0969 398.28C39.5529 398.792 39.2435 399.464 39.1689 400.296H45.1369C45.0622 399.464 44.7475 398.792 44.1929 398.28C43.6489 397.757 42.9662 397.496 42.1449 397.496ZM56.3291 396.584V403.976C56.3291 405.405 55.9771 406.461 55.2731 407.144C54.5798 407.837 53.5291 408.184 52.1211 408.184C51.3425 408.184 50.6011 408.067 49.8971 407.832C49.2038 407.608 48.6385 407.293 48.2011 406.888L48.7771 406.024C49.1825 406.387 49.6731 406.669 50.2491 406.872C50.8358 407.075 51.4491 407.176 52.0891 407.176C53.1558 407.176 53.9398 406.925 54.4411 406.424C54.9425 405.933 55.1931 405.165 55.1931 404.12V403.048C54.8411 403.581 54.3771 403.987 53.8011 404.264C53.2358 404.541 52.6065 404.68 51.9131 404.68C51.1238 404.68 50.4038 404.509 49.7531 404.168C49.1131 403.816 48.6065 403.331 48.2331 402.712C47.8705 402.083 47.6891 401.373 47.6891 400.584C47.6891 399.795 47.8705 399.091 48.2331 398.472C48.6065 397.853 49.1131 397.373 49.7531 397.032C50.3931 396.691 51.1131 396.52 51.9131 396.52C52.6278 396.52 53.2731 396.664 53.8491 396.952C54.4251 397.24 54.8891 397.656 55.2411 398.2V396.584H56.3291ZM52.0251 403.672C52.6331 403.672 53.1825 403.544 53.6731 403.288C54.1638 403.021 54.5425 402.653 54.8091 402.184C55.0865 401.715 55.2251 401.181 55.2251 400.584C55.2251 399.987 55.0865 399.459 54.8091 399C54.5425 398.531 54.1638 398.168 53.6731 397.912C53.1931 397.645 52.6438 397.512 52.0251 397.512C51.4171 397.512 50.8678 397.64 50.3771 397.896C49.8971 398.152 49.5185 398.515 49.2411 398.984C48.9745 399.453 48.8411 399.987 48.8411 400.584C48.8411 401.181 48.9745 401.715 49.2411 402.184C49.5185 402.653 49.8971 403.021 50.3771 403.288C50.8678 403.544 51.4171 403.672 52.0251 403.672ZM62.4499 396.52C63.5485 396.52 64.3912 396.797 64.9779 397.352C65.5645 397.896 65.8579 398.707 65.8579 399.784V405H64.7699V403.688C64.5139 404.125 64.1352 404.467 63.6339 404.712C63.1432 404.957 62.5565 405.08 61.8739 405.08C60.9352 405.08 60.1885 404.856 59.6339 404.408C59.0792 403.96 58.8019 403.368 58.8019 402.632C58.8019 401.917 59.0579 401.341 59.5699 400.904C60.0925 400.467 60.9192 400.248 62.0499 400.248H64.7219V399.736C64.7219 399.011 64.5192 398.461 64.1139 398.088C63.7085 397.704 63.1165 397.512 62.3379 397.512C61.8045 397.512 61.2925 397.603 60.8019 397.784C60.3112 397.955 59.8899 398.195 59.5379 398.504L59.0259 397.656C59.4525 397.293 59.9645 397.016 60.5619 396.824C61.1592 396.621 61.7885 396.52 62.4499 396.52ZM62.0499 404.184C62.6899 404.184 63.2392 404.04 63.6979 403.752C64.1565 403.453 64.4979 403.027 64.7219 402.472V401.096H62.0819C60.6419 401.096 59.9219 401.597 59.9219 402.6C59.9219 403.091 60.1085 403.48 60.4819 403.768C60.8552 404.045 61.3779 404.184 62.0499 404.184ZM68.9434 393.128H70.0794V405H68.9434V393.128ZM77.4278 396.584H78.5638V405H77.4278V396.584ZM78.0038 394.744C77.7691 394.744 77.5718 394.664 77.4118 394.504C77.2518 394.344 77.1718 394.152 77.1718 393.928C77.1718 393.715 77.2518 393.528 77.4118 393.368C77.5718 393.208 77.7691 393.128 78.0038 393.128C78.2384 393.128 78.4358 393.208 78.5958 393.368C78.7558 393.517 78.8358 393.699 78.8358 393.912C78.8358 394.147 78.7558 394.344 78.5958 394.504C78.4358 394.664 78.2384 394.744 78.0038 394.744ZM89.4001 405.08C88.5681 405.08 87.8215 404.899 87.1601 404.536C86.5095 404.173 85.9975 403.667 85.6241 403.016C85.2508 402.355 85.0641 401.613 85.0641 400.792C85.0641 399.971 85.2508 399.235 85.6241 398.584C85.9975 397.933 86.5095 397.427 87.1601 397.064C87.8215 396.701 88.5681 396.52 89.4001 396.52C90.1255 396.52 90.7708 396.664 91.3361 396.952C91.9121 397.229 92.3655 397.64 92.6961 398.184L91.8481 398.76C91.5708 398.344 91.2188 398.035 90.7921 397.832C90.3655 397.619 89.9015 397.512 89.4001 397.512C88.7921 397.512 88.2428 397.651 87.7521 397.928C87.2721 398.195 86.8935 398.579 86.6161 399.08C86.3495 399.581 86.2161 400.152 86.2161 400.792C86.2161 401.443 86.3495 402.019 86.6161 402.52C86.8935 403.011 87.2721 403.395 87.7521 403.672C88.2428 403.939 88.7921 404.072 89.4001 404.072C89.9015 404.072 90.3655 403.971 90.7921 403.768C91.2188 403.565 91.5708 403.256 91.8481 402.84L92.6961 403.416C92.3655 403.96 91.9121 404.376 91.3361 404.664C90.7601 404.941 90.1148 405.08 89.4001 405.08ZM98.2271 405.08C97.4165 405.08 96.6858 404.899 96.0351 404.536C95.3845 404.163 94.8725 403.651 94.4991 403C94.1258 402.349 93.9391 401.613 93.9391 400.792C93.9391 399.971 94.1258 399.235 94.4991 398.584C94.8725 397.933 95.3845 397.427 96.0351 397.064C96.6858 396.701 97.4165 396.52 98.2271 396.52C99.0378 396.52 99.7685 396.701 100.419 397.064C101.07 397.427 101.576 397.933 101.939 398.584C102.312 399.235 102.499 399.971 102.499 400.792C102.499 401.613 102.312 402.349 101.939 403C101.576 403.651 101.07 404.163 100.419 404.536C99.7685 404.899 99.0378 405.08 98.2271 405.08ZM98.2271 404.072C98.8245 404.072 99.3578 403.939 99.8271 403.672C100.307 403.395 100.68 403.005 100.947 402.504C101.214 402.003 101.347 401.432 101.347 400.792C101.347 400.152 101.214 399.581 100.947 399.08C100.68 398.579 100.307 398.195 99.8271 397.928C99.3578 397.651 98.8245 397.512 98.2271 397.512C97.6298 397.512 97.0911 397.651 96.6111 397.928C96.1418 398.195 95.7685 398.579 95.4911 399.08C95.2245 399.581 95.0911 400.152 95.0911 400.792C95.0911 401.432 95.2245 402.003 95.4911 402.504C95.7685 403.005 96.1418 403.395 96.6111 403.672C97.0911 403.939 97.6298 404.072 98.2271 404.072ZM109.106 396.52C110.162 396.52 111 396.829 111.618 397.448C112.248 398.056 112.562 398.947 112.562 400.12V405H111.426V400.232C111.426 399.357 111.208 398.691 110.77 398.232C110.333 397.773 109.709 397.544 108.898 397.544C107.992 397.544 107.272 397.816 106.738 398.36C106.216 398.893 105.954 399.635 105.954 400.584V405H104.818V396.584H105.906V398.136C106.216 397.624 106.642 397.229 107.186 396.952C107.741 396.664 108.381 396.52 109.106 396.52ZM123.358 393.128V405H122.27V403.336C121.928 403.901 121.475 404.333 120.91 404.632C120.355 404.931 119.726 405.08 119.022 405.08C118.232 405.08 117.518 404.899 116.878 404.536C116.238 404.173 115.736 403.667 115.374 403.016C115.011 402.365 114.83 401.624 114.83 400.792C114.83 399.96 115.011 399.219 115.374 398.568C115.736 397.917 116.238 397.416 116.878 397.064C117.518 396.701 118.232 396.52 119.022 396.52C119.704 396.52 120.318 396.664 120.862 396.952C121.416 397.229 121.87 397.64 122.222 398.184V393.128H123.358ZM119.118 404.072C119.704 404.072 120.232 403.939 120.702 403.672C121.182 403.395 121.555 403.005 121.822 402.504C122.099 402.003 122.238 401.432 122.238 400.792C122.238 400.152 122.099 399.581 121.822 399.08C121.555 398.579 121.182 398.195 120.702 397.928C120.232 397.651 119.704 397.512 119.118 397.512C118.52 397.512 117.982 397.651 117.502 397.928C117.032 398.195 116.659 398.579 116.382 399.08C116.115 399.581 115.982 400.152 115.982 400.792C115.982 401.432 116.115 402.003 116.382 402.504C116.659 403.005 117.032 403.395 117.502 403.672C117.982 403.939 118.52 404.072 119.118 404.072ZM126.522 396.584H127.658V405H126.522V396.584ZM127.098 394.744C126.863 394.744 126.666 394.664 126.506 394.504C126.346 394.344 126.266 394.152 126.266 393.928C126.266 393.715 126.346 393.528 126.506 393.368C126.666 393.208 126.863 393.128 127.098 393.128C127.332 393.128 127.53 393.208 127.69 393.368C127.85 393.517 127.93 393.699 127.93 393.912C127.93 394.147 127.85 394.344 127.69 394.504C127.53 394.664 127.332 394.744 127.098 394.744ZM134.306 405.08C133.474 405.08 132.728 404.899 132.066 404.536C131.416 404.173 130.904 403.667 130.53 403.016C130.157 402.355 129.97 401.613 129.97 400.792C129.97 399.971 130.157 399.235 130.53 398.584C130.904 397.933 131.416 397.427 132.066 397.064C132.728 396.701 133.474 396.52 134.306 396.52C135.032 396.52 135.677 396.664 136.242 396.952C136.818 397.229 137.272 397.64 137.602 398.184L136.754 398.76C136.477 398.344 136.125 398.035 135.698 397.832C135.272 397.619 134.808 397.512 134.306 397.512C133.698 397.512 133.149 397.651 132.658 397.928C132.178 398.195 131.8 398.579 131.522 399.08C131.256 399.581 131.122 400.152 131.122 400.792C131.122 401.443 131.256 402.019 131.522 402.52C131.8 403.011 132.178 403.395 132.658 403.672C133.149 403.939 133.698 404.072 134.306 404.072C134.808 404.072 135.272 403.971 135.698 403.768C136.125 403.565 136.477 403.256 136.754 402.84L137.602 403.416C137.272 403.96 136.818 404.376 136.242 404.664C135.666 404.941 135.021 405.08 134.306 405.08ZM139.834 396.584H140.97V405H139.834V396.584ZM140.41 394.744C140.175 394.744 139.978 394.664 139.818 394.504C139.658 394.344 139.578 394.152 139.578 393.928C139.578 393.715 139.658 393.528 139.818 393.368C139.978 393.208 140.175 393.128 140.41 393.128C140.645 393.128 140.842 393.208 141.002 393.368C141.162 393.517 141.242 393.699 141.242 393.912C141.242 394.147 141.162 394.344 141.002 394.504C140.842 394.664 140.645 394.744 140.41 394.744ZM147.571 405.08C146.76 405.08 146.03 404.899 145.379 404.536C144.728 404.163 144.216 403.651 143.843 403C143.47 402.349 143.283 401.613 143.283 400.792C143.283 399.971 143.47 399.235 143.843 398.584C144.216 397.933 144.728 397.427 145.379 397.064C146.03 396.701 146.76 396.52 147.571 396.52C148.382 396.52 149.112 396.701 149.763 397.064C150.414 397.427 150.92 397.933 151.283 398.584C151.656 399.235 151.843 399.971 151.843 400.792C151.843 401.613 151.656 402.349 151.283 403C150.92 403.651 150.414 404.163 149.763 404.536C149.112 404.899 148.382 405.08 147.571 405.08ZM147.571 404.072C148.168 404.072 148.702 403.939 149.171 403.672C149.651 403.395 150.024 403.005 150.291 402.504C150.558 402.003 150.691 401.432 150.691 400.792C150.691 400.152 150.558 399.581 150.291 399.08C150.024 398.579 149.651 398.195 149.171 397.928C148.702 397.651 148.168 397.512 147.571 397.512C146.974 397.512 146.435 397.651 145.955 397.928C145.486 398.195 145.112 398.579 144.835 399.08C144.568 399.581 144.435 400.152 144.435 400.792C144.435 401.432 144.568 402.003 144.835 402.504C145.112 403.005 145.486 403.395 145.955 403.672C146.435 403.939 146.974 404.072 147.571 404.072ZM158.45 396.52C159.506 396.52 160.343 396.829 160.962 397.448C161.591 398.056 161.906 398.947 161.906 400.12V405H160.77V400.232C160.77 399.357 160.551 398.691 160.114 398.232C159.677 397.773 159.053 397.544 158.242 397.544C157.335 397.544 156.615 397.816 156.082 398.36C155.559 398.893 155.298 399.635 155.298 400.584V405H154.162V396.584H155.25V398.136C155.559 397.624 155.986 397.229 156.53 396.952C157.085 396.664 157.725 396.52 158.45 396.52ZM167.246 405.08C166.564 405.08 165.908 404.984 165.278 404.792C164.66 404.589 164.174 404.339 163.822 404.04L164.334 403.144C164.686 403.421 165.129 403.651 165.662 403.832C166.196 404.003 166.75 404.088 167.326 404.088C168.094 404.088 168.66 403.971 169.022 403.736C169.396 403.491 169.582 403.149 169.582 402.712C169.582 402.403 169.481 402.163 169.278 401.992C169.076 401.811 168.82 401.677 168.51 401.592C168.201 401.496 167.79 401.405 167.278 401.32C166.596 401.192 166.046 401.064 165.63 400.936C165.214 400.797 164.857 400.568 164.558 400.248C164.27 399.928 164.126 399.485 164.126 398.92C164.126 398.216 164.42 397.64 165.006 397.192C165.593 396.744 166.409 396.52 167.454 396.52C167.998 396.52 168.542 396.595 169.086 396.744C169.63 396.883 170.078 397.069 170.43 397.304L169.934 398.216C169.241 397.736 168.414 397.496 167.454 397.496C166.729 397.496 166.18 397.624 165.806 397.88C165.444 398.136 165.262 398.472 165.262 398.888C165.262 399.208 165.364 399.464 165.566 399.656C165.78 399.848 166.041 399.992 166.35 400.088C166.66 400.173 167.086 400.264 167.63 400.36C168.302 400.488 168.841 400.616 169.246 400.744C169.652 400.872 169.998 401.091 170.286 401.4C170.574 401.709 170.718 402.136 170.718 402.68C170.718 403.416 170.409 404.003 169.79 404.44C169.182 404.867 168.334 405.08 167.246 405.08ZM184.686 393.128V405H183.598V403.336C183.257 403.901 182.803 404.333 182.238 404.632C181.683 404.931 181.054 405.08 180.35 405.08C179.561 405.08 178.846 404.899 178.206 404.536C177.566 404.173 177.065 403.667 176.702 403.016C176.339 402.365 176.158 401.624 176.158 400.792C176.158 399.96 176.339 399.219 176.702 398.568C177.065 397.917 177.566 397.416 178.206 397.064C178.846 396.701 179.561 396.52 180.35 396.52C181.033 396.52 181.646 396.664 182.19 396.952C182.745 397.229 183.198 397.64 183.55 398.184V393.128H184.686ZM180.446 404.072C181.033 404.072 181.561 403.939 182.03 403.672C182.51 403.395 182.883 403.005 183.15 402.504C183.427 402.003 183.566 401.432 183.566 400.792C183.566 400.152 183.427 399.581 183.15 399.08C182.883 398.579 182.51 398.195 182.03 397.928C181.561 397.651 181.033 397.512 180.446 397.512C179.849 397.512 179.31 397.651 178.83 397.928C178.361 398.195 177.987 398.579 177.71 399.08C177.443 399.581 177.31 400.152 177.31 400.792C177.31 401.432 177.443 402.003 177.71 402.504C177.987 403.005 178.361 403.395 178.83 403.672C179.31 403.939 179.849 404.072 180.446 404.072ZM187.978 393.048C188.223 393.048 188.426 393.133 188.586 393.304C188.746 393.464 188.826 393.667 188.826 393.912C188.826 394.04 188.804 394.179 188.762 394.328C188.73 394.467 188.682 394.632 188.618 394.824L187.93 397.032H187.162L187.722 394.728C187.54 394.675 187.396 394.579 187.29 394.44C187.183 394.291 187.13 394.115 187.13 393.912C187.13 393.656 187.21 393.448 187.37 393.288C187.53 393.128 187.732 393.048 187.978 393.048ZM198.824 396.584V405H197.736V403.464C197.438 403.976 197.027 404.376 196.504 404.664C195.982 404.941 195.384 405.08 194.712 405.08C193.614 405.08 192.744 404.776 192.104 404.168C191.475 403.549 191.16 402.648 191.16 401.464V396.584H192.296V401.352C192.296 402.237 192.515 402.909 192.952 403.368C193.39 403.827 194.014 404.056 194.824 404.056C195.71 404.056 196.408 403.789 196.92 403.256C197.432 402.712 197.688 401.96 197.688 401V396.584H198.824ZM196.152 393.288H197.672L195.08 395.272H193.96L196.152 393.288ZM204.262 405.08C203.579 405.08 202.923 404.984 202.294 404.792C201.675 404.589 201.19 404.339 200.838 404.04L201.35 403.144C201.702 403.421 202.145 403.651 202.678 403.832C203.211 404.003 203.766 404.088 204.342 404.088C205.11 404.088 205.675 403.971 206.038 403.736C206.411 403.491 206.598 403.149 206.598 402.712C206.598 402.403 206.497 402.163 206.294 401.992C206.091 401.811 205.835 401.677 205.526 401.592C205.217 401.496 204.806 401.405 204.294 401.32C203.611 401.192 203.062 401.064 202.646 400.936C202.23 400.797 201.873 400.568 201.574 400.248C201.286 399.928 201.142 399.485 201.142 398.92C201.142 398.216 201.435 397.64 202.022 397.192C202.609 396.744 203.425 396.52 204.47 396.52C205.014 396.52 205.558 396.595 206.102 396.744C206.646 396.883 207.094 397.069 207.446 397.304L206.95 398.216C206.257 397.736 205.43 397.496 204.47 397.496C203.745 397.496 203.195 397.624 202.822 397.88C202.459 398.136 202.278 398.472 202.278 398.888C202.278 399.208 202.379 399.464 202.582 399.656C202.795 399.848 203.057 399.992 203.366 400.088C203.675 400.173 204.102 400.264 204.646 400.36C205.318 400.488 205.857 400.616 206.262 400.744C206.667 400.872 207.014 401.091 207.302 401.4C207.59 401.709 207.734 402.136 207.734 402.68C207.734 403.416 207.425 404.003 206.806 404.44C206.198 404.867 205.35 405.08 204.262 405.08Z" fill="black"/>
<path d="M353.146 408.646C352.951 408.841 352.951 409.158 353.146 409.353C353.244 409.451 353.372 409.499 353.5 409.499C353.628 409.499 353.756 409.45 353.854 409.353L362.854 400.353C363.049 400.158 363.049 399.841 362.854 399.646L353.854 390.646C353.659 390.451 353.342 390.451 353.147 390.646C352.952 390.841 352.952 391.158 353.147 391.353L361.793 400L353.146 408.646Z" fill="#2A2A2A"/>
<rect x="20" y="436" width="358" height="32" rx="10" fill="#CDE4E6"/>
<path d="M36.848 454.008H30.608L29.264 457H28.032L33.152 445.8H34.32L39.44 457H38.192L36.848 454.008ZM36.416 453.048L33.728 447.032L31.04 453.048H36.416ZM39.8048 460.184C39.4528 460.184 39.1221 460.136 38.8127 460.04C38.4927 459.955 38.2314 459.821 38.0287 459.64L38.4287 458.776C38.7594 459.064 39.1967 459.208 39.7408 459.208C40.1888 459.208 40.5301 459.075 40.7648 458.808C41.0101 458.541 41.1328 458.147 41.1328 457.624V448.584H42.2688V457.624C42.2688 458.413 42.0554 459.037 41.6288 459.496C41.2021 459.955 40.5941 460.184 39.8048 460.184ZM41.7088 446.728C41.4741 446.728 41.2768 446.648 41.1168 446.488C40.9568 446.328 40.8768 446.136 40.8768 445.912C40.8768 445.699 40.9568 445.512 41.1168 445.352C41.2768 445.192 41.4741 445.112 41.7088 445.112C41.9434 445.112 42.1408 445.192 42.3008 445.352C42.4608 445.501 42.5408 445.683 42.5408 445.896C42.5408 446.131 42.4608 446.328 42.3008 446.488C42.1408 446.648 41.9434 446.728 41.7088 446.728ZM53.0274 448.584V457H51.9394V455.464C51.6407 455.976 51.23 456.376 50.7074 456.664C50.1847 456.941 49.5874 457.08 48.9154 457.08C47.8167 457.08 46.9474 456.776 46.3074 456.168C45.678 455.549 45.3634 454.648 45.3634 453.464V448.584H46.4994V453.352C46.4994 454.237 46.718 454.909 47.1554 455.368C47.5927 455.827 48.2167 456.056 49.0274 456.056C49.9127 456.056 50.6114 455.789 51.1234 455.256C51.6354 454.712 51.8914 453.96 51.8914 453V448.584H53.0274ZM63.889 445.128V457H62.801V455.336C62.4597 455.901 62.0063 456.333 61.441 456.632C60.8863 456.931 60.257 457.08 59.553 457.08C58.7637 457.08 58.049 456.899 57.409 456.536C56.769 456.173 56.2677 455.667 55.905 455.016C55.5423 454.365 55.361 453.624 55.361 452.792C55.361 451.96 55.5423 451.219 55.905 450.568C56.2677 449.917 56.769 449.416 57.409 449.064C58.049 448.701 58.7637 448.52 59.553 448.52C60.2357 448.52 60.849 448.664 61.393 448.952C61.9477 449.229 62.401 449.64 62.753 450.184V445.128H63.889ZM59.649 456.072C60.2357 456.072 60.7637 455.939 61.233 455.672C61.713 455.395 62.0863 455.005 62.353 454.504C62.6303 454.003 62.769 453.432 62.769 452.792C62.769 452.152 62.6303 451.581 62.353 451.08C62.0863 450.579 61.713 450.195 61.233 449.928C60.7637 449.651 60.2357 449.512 59.649 449.512C59.0517 449.512 58.513 449.651 58.033 449.928C57.5637 450.195 57.1903 450.579 56.913 451.08C56.6463 451.581 56.513 452.152 56.513 452.792C56.513 453.432 56.6463 454.003 56.913 454.504C57.1903 455.005 57.5637 455.395 58.033 455.672C58.513 455.939 59.0517 456.072 59.649 456.072ZM69.9968 448.52C71.0954 448.52 71.9381 448.797 72.5248 449.352C73.1114 449.896 73.4048 450.707 73.4048 451.784V457H72.3168V455.688C72.0608 456.125 71.6821 456.467 71.1808 456.712C70.6901 456.957 70.1034 457.08 69.4208 457.08C68.4821 457.08 67.7354 456.856 67.1808 456.408C66.6261 455.96 66.3488 455.368 66.3488 454.632C66.3488 453.917 66.6048 453.341 67.1168 452.904C67.6394 452.467 68.4661 452.248 69.5968 452.248H72.2688V451.736C72.2688 451.011 72.0661 450.461 71.6608 450.088C71.2554 449.704 70.6634 449.512 69.8848 449.512C69.3514 449.512 68.8394 449.603 68.3488 449.784C67.8581 449.955 67.4368 450.195 67.0848 450.504L66.5728 449.656C66.9994 449.293 67.5114 449.016 68.1088 448.824C68.7061 448.621 69.3354 448.52 69.9968 448.52ZM69.5968 456.184C70.2368 456.184 70.7861 456.04 71.2448 455.752C71.7034 455.453 72.0448 455.027 72.2688 454.472V453.096H69.6288C68.1888 453.096 67.4688 453.597 67.4688 454.6C67.4688 455.091 67.6554 455.48 68.0288 455.768C68.4021 456.045 68.9248 456.184 69.5968 456.184Z" fill="black"/>
<path d="M353.146 460.646C352.951 460.841 352.951 461.158 353.146 461.353C353.244 461.451 353.372 461.499 353.5 461.499C353.628 461.499 353.756 461.45 353.854 461.353L362.854 452.353C363.049 452.158 363.049 451.841 362.854 451.646L353.854 442.646C353.659 442.451 353.342 442.451 353.147 442.646C352.952 442.841 352.952 443.158 353.147 443.353L361.793 452L353.146 460.646Z" fill="#2A2A2A"/>
<rect x="20" y="488" width="358" height="32" rx="10" fill="#CDE4E6"/>
<path d="M32 498.824H28.064V497.8H37.12V498.824H33.184V509H32V498.824ZM41.2468 500.52C42.3454 500.52 43.1881 500.797 43.7748 501.352C44.3614 501.896 44.6548 502.707 44.6548 503.784V509H43.5668V507.688C43.3108 508.125 42.9321 508.467 42.4308 508.712C41.9401 508.957 41.3534 509.08 40.6708 509.08C39.7321 509.08 38.9854 508.856 38.4308 508.408C37.8761 507.96 37.5988 507.368 37.5988 506.632C37.5988 505.917 37.8548 505.341 38.3668 504.904C38.8894 504.467 39.7161 504.248 40.8468 504.248H43.5188V503.736C43.5188 503.011 43.3161 502.461 42.9108 502.088C42.5054 501.704 41.9134 501.512 41.1348 501.512C40.6014 501.512 40.0894 501.603 39.5988 501.784C39.1081 501.955 38.6868 502.195 38.3348 502.504L37.8228 501.656C38.2494 501.293 38.7614 501.016 39.3588 500.824C39.9561 500.621 40.5854 500.52 41.2468 500.52ZM40.8468 508.184C41.4868 508.184 42.0361 508.04 42.4948 507.752C42.9534 507.453 43.2948 507.027 43.5188 506.472V505.096H40.8788C39.4388 505.096 38.7188 505.597 38.7188 506.6C38.7188 507.091 38.9054 507.48 39.2788 507.768C39.6521 508.045 40.1748 508.184 40.8468 508.184ZM52.0283 500.52C53.0843 500.52 53.9216 500.829 54.5403 501.448C55.1696 502.056 55.4843 502.947 55.4843 504.12V509H54.3483V504.232C54.3483 503.357 54.1296 502.691 53.6923 502.232C53.2549 501.773 52.6309 501.544 51.8203 501.544C50.9136 501.544 50.1936 501.816 49.6603 502.36C49.1376 502.893 48.8763 503.635 48.8763 504.584V509H47.7403V500.584H48.8283V502.136C49.1376 501.624 49.5643 501.229 50.1083 500.952C50.6629 500.664 51.3029 500.52 52.0283 500.52ZM62.0876 509.08C61.2556 509.08 60.509 508.899 59.8476 508.536C59.197 508.173 58.685 507.667 58.3116 507.016C57.9383 506.355 57.7516 505.613 57.7516 504.792C57.7516 503.971 57.9383 503.235 58.3116 502.584C58.685 501.933 59.197 501.427 59.8476 501.064C60.509 500.701 61.2556 500.52 62.0876 500.52C62.813 500.52 63.4583 500.664 64.0236 500.952C64.5996 501.229 65.053 501.64 65.3836 502.184L64.5356 502.76C64.2583 502.344 63.9063 502.035 63.4796 501.832C63.053 501.619 62.589 501.512 62.0876 501.512C61.4796 501.512 60.9303 501.651 60.4396 501.928C59.9596 502.195 59.581 502.579 59.3036 503.08C59.037 503.581 58.9036 504.152 58.9036 504.792C58.9036 505.443 59.037 506.019 59.3036 506.52C59.581 507.011 59.9596 507.395 60.4396 507.672C60.9303 507.939 61.4796 508.072 62.0876 508.072C62.589 508.072 63.053 507.971 63.4796 507.768C63.9063 507.565 64.2583 507.256 64.5356 506.84L65.3836 507.416C65.053 507.96 64.5996 508.376 64.0236 508.664C63.4476 508.941 62.8023 509.08 62.0876 509.08ZM70.5593 500.52C71.6579 500.52 72.5006 500.797 73.0873 501.352C73.6739 501.896 73.9673 502.707 73.9673 503.784V509H72.8793V507.688C72.6233 508.125 72.2446 508.467 71.7433 508.712C71.2526 508.957 70.6659 509.08 69.9833 509.08C69.0446 509.08 68.2979 508.856 67.7433 508.408C67.1886 507.96 66.9113 507.368 66.9113 506.632C66.9113 505.917 67.1673 505.341 67.6793 504.904C68.2019 504.467 69.0286 504.248 70.1593 504.248H72.8313V503.736C72.8313 503.011 72.6286 502.461 72.2233 502.088C71.8179 501.704 71.2259 501.512 70.4473 501.512C69.9139 501.512 69.4019 501.603 68.9113 501.784C68.4206 501.955 67.9993 502.195 67.6473 502.504L67.1353 501.656C67.5619 501.293 68.0739 501.016 68.6713 500.824C69.2686 500.621 69.8979 500.52 70.5593 500.52ZM70.1593 508.184C70.7993 508.184 71.3486 508.04 71.8073 507.752C72.2659 507.453 72.6073 507.027 72.8313 506.472V505.096H70.1913C68.7513 505.096 68.0312 505.597 68.0312 506.6C68.0312 507.091 68.2179 507.48 68.5913 507.768C68.9646 508.045 69.4873 508.184 70.1593 508.184ZM78.1408 502.232C78.4074 501.667 78.8021 501.24 79.3248 500.952C79.8581 500.664 80.5141 500.52 81.2928 500.52V501.624L81.0208 501.608C80.1354 501.608 79.4421 501.88 78.9408 502.424C78.4394 502.968 78.1888 503.731 78.1888 504.712V509H77.0528V500.584H78.1408V502.232ZM89.9181 509.08C89.2355 509.08 88.5795 508.984 87.9501 508.792C87.3315 508.589 86.8461 508.339 86.4941 508.04L87.0061 507.144C87.3581 507.421 87.8008 507.651 88.3341 507.832C88.8675 508.003 89.4221 508.088 89.9981 508.088C90.7661 508.088 91.3315 507.971 91.6941 507.736C92.0675 507.491 92.2541 507.149 92.2541 506.712C92.2541 506.403 92.1528 506.163 91.9501 505.992C91.7475 505.811 91.4915 505.677 91.1821 505.592C90.8728 505.496 90.4621 505.405 89.9501 505.32C89.2675 505.192 88.7181 505.064 88.3021 504.936C87.8861 504.797 87.5288 504.568 87.2301 504.248C86.9421 503.928 86.7981 503.485 86.7981 502.92C86.7981 502.216 87.0915 501.64 87.6781 501.192C88.2648 500.744 89.0808 500.52 90.1261 500.52C90.6701 500.52 91.2141 500.595 91.7581 500.744C92.3021 500.883 92.7501 501.069 93.1021 501.304L92.6061 502.216C91.9128 501.736 91.0861 501.496 90.1261 501.496C89.4008 501.496 88.8515 501.624 88.4781 501.88C88.1155 502.136 87.9341 502.472 87.9341 502.888C87.9341 503.208 88.0355 503.464 88.2381 503.656C88.4515 503.848 88.7128 503.992 89.0221 504.088C89.3315 504.173 89.7581 504.264 90.3021 504.36C90.9741 504.488 91.5128 504.616 91.9181 504.744C92.3235 504.872 92.6701 505.091 92.9581 505.4C93.2461 505.709 93.3901 506.136 93.3901 506.68C93.3901 507.416 93.0808 508.003 92.4621 508.44C91.8541 508.867 91.0061 509.08 89.9181 509.08ZM102.818 505.144H95.7783C95.8423 506.019 96.1783 506.728 96.7863 507.272C97.3943 507.805 98.1623 508.072 99.0903 508.072C99.6129 508.072 100.093 507.981 100.53 507.8C100.968 507.608 101.346 507.331 101.666 506.968L102.306 507.704C101.933 508.152 101.464 508.493 100.898 508.728C100.344 508.963 99.7303 509.08 99.0583 509.08C98.1943 509.08 97.4263 508.899 96.7543 508.536C96.0929 508.163 95.5756 507.651 95.2023 507C94.8289 506.349 94.6423 505.613 94.6423 504.792C94.6423 503.971 94.8183 503.235 95.1703 502.584C95.5329 501.933 96.0236 501.427 96.6423 501.064C97.2716 500.701 97.9756 500.52 98.7543 500.52C99.5329 500.52 100.232 500.701 100.85 501.064C101.469 501.427 101.954 501.933 102.306 502.584C102.658 503.224 102.834 503.96 102.834 504.792L102.818 505.144ZM98.7543 501.496C97.9436 501.496 97.2609 501.757 96.7063 502.28C96.1623 502.792 95.8529 503.464 95.7783 504.296H101.746C101.672 503.464 101.357 502.792 100.802 502.28C100.258 501.757 99.5756 501.496 98.7543 501.496ZM107.403 509.08C106.72 509.08 106.064 508.984 105.435 508.792C104.816 508.589 104.331 508.339 103.979 508.04L104.491 507.144C104.843 507.421 105.285 507.651 105.819 507.832C106.352 508.003 106.907 508.088 107.483 508.088C108.251 508.088 108.816 507.971 109.179 507.736C109.552 507.491 109.739 507.149 109.739 506.712C109.739 506.403 109.637 506.163 109.435 505.992C109.232 505.811 108.976 505.677 108.667 505.592C108.357 505.496 107.947 505.405 107.435 505.32C106.752 505.192 106.203 505.064 105.787 504.936C105.371 504.797 105.013 504.568 104.715 504.248C104.427 503.928 104.283 503.485 104.283 502.92C104.283 502.216 104.576 501.64 105.163 501.192C105.749 500.744 106.565 500.52 107.611 500.52C108.155 500.52 108.699 500.595 109.243 500.744C109.787 500.883 110.235 501.069 110.587 501.304L110.091 502.216C109.397 501.736 108.571 501.496 107.611 501.496C106.885 501.496 106.336 501.624 105.963 501.88C105.6 502.136 105.419 502.472 105.419 502.888C105.419 503.208 105.52 503.464 105.723 503.656C105.936 503.848 106.197 503.992 106.507 504.088C106.816 504.173 107.243 504.264 107.786 504.36C108.459 504.488 108.997 504.616 109.403 504.744C109.808 504.872 110.155 505.091 110.443 505.4C110.731 505.709 110.875 506.136 110.875 506.68C110.875 507.416 110.565 508.003 109.947 508.44C109.339 508.867 108.491 509.08 107.403 509.08ZM115.231 509.08C114.548 509.08 113.892 508.984 113.263 508.792C112.644 508.589 112.159 508.339 111.807 508.04L112.319 507.144C112.671 507.421 113.113 507.651 113.647 507.832C114.18 508.003 114.735 508.088 115.311 508.088C116.079 508.088 116.644 507.971 117.007 507.736C117.38 507.491 117.567 507.149 117.567 506.712C117.567 506.403 117.465 506.163 117.263 505.992C117.06 505.811 116.804 505.677 116.495 505.592C116.185 505.496 115.775 505.405 115.263 505.32C114.58 505.192 114.031 505.064 113.615 504.936C113.199 504.797 112.841 504.568 112.543 504.248C112.255 503.928 112.111 503.485 112.111 502.92C112.111 502.216 112.404 501.64 112.991 501.192C113.577 500.744 114.393 500.52 115.439 500.52C115.983 500.52 116.527 500.595 117.071 500.744C117.615 500.883 118.063 501.069 118.415 501.304L117.919 502.216C117.225 501.736 116.399 501.496 115.439 501.496C114.713 501.496 114.164 501.624 113.791 501.88C113.428 502.136 113.247 502.472 113.247 502.888C113.247 503.208 113.348 503.464 113.551 503.656C113.764 503.848 114.025 503.992 114.335 504.088C114.644 504.173 115.071 504.264 115.615 504.36C116.287 504.488 116.825 504.616 117.231 504.744C117.636 504.872 117.983 505.091 118.271 505.4C118.559 505.709 118.703 506.136 118.703 506.68C118.703 507.416 118.393 508.003 117.775 508.44C117.167 508.867 116.319 509.08 115.231 509.08ZM120.803 500.584H121.939V509H120.803V500.584ZM121.379 498.744C121.144 498.744 120.947 498.664 120.787 498.504C120.627 498.344 120.547 498.152 120.547 497.928C120.547 497.715 120.627 497.528 120.787 497.368C120.947 497.208 121.144 497.128 121.379 497.128C121.613 497.128 121.811 497.208 121.971 497.368C122.131 497.517 122.211 497.699 122.211 497.912C122.211 498.147 122.131 498.344 121.971 498.504C121.811 498.664 121.613 498.744 121.379 498.744ZM128.54 509.08C127.729 509.08 126.998 508.899 126.348 508.536C125.697 508.163 125.185 507.651 124.812 507C124.438 506.349 124.252 505.613 124.252 504.792C124.252 503.971 124.438 503.235 124.812 502.584C125.185 501.933 125.697 501.427 126.348 501.064C126.998 500.701 127.729 500.52 128.54 500.52C129.35 500.52 130.081 500.701 130.732 501.064C131.382 501.427 131.889 501.933 132.252 502.584C132.625 503.235 132.812 503.971 132.812 504.792C132.812 505.613 132.625 506.349 132.252 507C131.889 507.651 131.382 508.163 130.732 508.536C130.081 508.899 129.35 509.08 128.54 509.08ZM128.54 508.072C129.137 508.072 129.67 507.939 130.14 507.672C130.62 507.395 130.993 507.005 131.26 506.504C131.526 506.003 131.66 505.432 131.66 504.792C131.66 504.152 131.526 503.581 131.26 503.08C130.993 502.579 130.62 502.195 130.14 501.928C129.67 501.651 129.137 501.512 128.54 501.512C127.942 501.512 127.404 501.651 126.924 501.928C126.454 502.195 126.081 502.579 125.804 503.08C125.537 503.581 125.404 504.152 125.404 504.792C125.404 505.432 125.537 506.003 125.804 506.504C126.081 507.005 126.454 507.395 126.924 507.672C127.404 507.939 127.942 508.072 128.54 508.072ZM129.676 497.288H131.196L128.604 499.272H127.484L129.676 497.288Z" fill="black"/>
<path d="M353.146 512.646C352.951 512.841 352.951 513.158 353.146 513.353C353.244 513.451 353.372 513.499 353.5 513.499C353.628 513.499 353.756 513.45 353.854 513.353L362.854 504.353C363.049 504.158 363.049 503.841 362.854 503.646L353.854 494.646C353.659 494.451 353.342 494.451 353.147 494.646C352.952 494.841 352.952 495.158 353.147 495.353L361.793 504L353.146 512.646Z" fill="#2A2A2A"/>
<rect x="0.5" y="0.5" width="397" height="539" rx="4.5" stroke="#9747FF" stroke-dasharray="10 5"/>
</svg>
