<svg width="398" height="577" viewBox="0 0 398 577" fill="none" xmlns="http://www.w3.org/2000/svg">
<g filter="url(#filter0_d_325_16134)">
<path d="M4 31.5C4 16.3122 16.3122 4 31.5 4H366.5C381.688 4 394 16.3122 394 31.5V573H4V31.5Z" fill="#F7F7F7"/>
</g>
<path d="M65.296 115.096C64.432 115.096 63.6587 114.867 62.976 114.408C62.304 113.949 61.776 113.293 61.392 112.44C61.0187 111.576 60.832 110.563 60.832 109.4C60.832 108.237 61.0187 107.229 61.392 106.376C61.776 105.512 62.304 104.851 62.976 104.392C63.6587 103.933 64.432 103.704 65.296 103.704C66.16 103.704 66.928 103.933 67.6 104.392C68.2827 104.851 68.816 105.512 69.2 106.376C69.584 107.229 69.776 108.237 69.776 109.4C69.776 110.563 69.584 111.576 69.2 112.44C68.816 113.293 68.2827 113.949 67.6 114.408C66.928 114.867 66.16 115.096 65.296 115.096ZM65.296 114.04C65.9467 114.04 66.5173 113.859 67.008 113.496C67.5093 113.133 67.8987 112.605 68.176 111.912C68.4533 111.219 68.592 110.381 68.592 109.4C68.592 108.419 68.4533 107.581 68.176 106.888C67.8987 106.195 67.5093 105.667 67.008 105.304C66.5173 104.941 65.9467 104.76 65.296 104.76C64.6453 104.76 64.0693 104.941 63.568 105.304C63.0773 105.667 62.6933 106.195 62.416 106.888C62.1387 107.581 62 108.419 62 109.4C62 110.381 62.1387 111.219 62.416 111.912C62.6933 112.605 63.0773 113.133 63.568 113.496C64.0693 113.859 64.6453 114.04 65.296 114.04ZM74.9138 103.704C76.3964 103.704 77.5324 104.195 78.3218 105.176C79.1111 106.147 79.5058 107.523 79.5058 109.304C79.5058 110.552 79.2924 111.608 78.8658 112.472C78.4391 113.336 77.8418 113.992 77.0738 114.44C76.3058 114.877 75.4098 115.096 74.3858 115.096C73.2764 115.096 72.3911 114.893 71.7298 114.488L72.1938 113.56C72.7271 113.912 73.4524 114.088 74.3698 114.088C75.6071 114.088 76.5778 113.699 77.2818 112.92C77.9858 112.131 78.3378 110.989 78.3378 109.496C78.3378 109.219 78.3218 108.915 78.2898 108.584C78.0124 109.192 77.5698 109.667 76.9618 110.008C76.3538 110.339 75.6551 110.504 74.8658 110.504C74.1298 110.504 73.4738 110.365 72.8978 110.088C72.3324 109.811 71.8898 109.421 71.5698 108.92C71.2498 108.408 71.0898 107.816 71.0898 107.144C71.0898 106.461 71.2551 105.859 71.5858 105.336C71.9164 104.813 72.3698 104.413 72.9457 104.136C73.5324 103.848 74.1884 103.704 74.9138 103.704ZM75.0418 109.528C75.6071 109.528 76.1031 109.421 76.5298 109.208C76.9671 108.995 77.3084 108.701 77.5538 108.328C77.7991 107.955 77.9218 107.539 77.9218 107.08C77.9218 106.653 77.8044 106.259 77.5698 105.896C77.3458 105.533 77.0098 105.24 76.5618 105.016C76.1138 104.792 75.5804 104.68 74.9618 104.68C74.1511 104.68 73.4898 104.904 72.9778 105.352C72.4764 105.789 72.2258 106.376 72.2258 107.112C72.2258 107.848 72.4764 108.435 72.9778 108.872C73.4898 109.309 74.1778 109.528 75.0418 109.528ZM82.0398 108.264C81.8051 108.264 81.6024 108.179 81.4318 108.008C81.2718 107.837 81.1918 107.629 81.1918 107.384C81.1918 107.139 81.2718 106.936 81.4318 106.776C81.6024 106.605 81.8051 106.52 82.0398 106.52C82.2744 106.52 82.4771 106.605 82.6478 106.776C82.8184 106.936 82.9038 107.139 82.9038 107.384C82.9038 107.629 82.8184 107.837 82.6478 108.008C82.4771 108.179 82.2744 108.264 82.0398 108.264ZM82.0398 115.08C81.8051 115.08 81.6024 114.995 81.4318 114.824C81.2718 114.653 81.1918 114.445 81.1918 114.2C81.1918 113.955 81.2718 113.752 81.4318 113.592C81.6024 113.421 81.8051 113.336 82.0398 113.336C82.2744 113.336 82.4771 113.421 82.6478 113.592C82.8184 113.752 82.9038 113.955 82.9038 114.2C82.9038 114.445 82.8184 114.653 82.6478 114.824C82.4771 114.995 82.2744 115.08 82.0398 115.08ZM89.0304 115.096C88.1664 115.096 87.393 114.867 86.7104 114.408C86.0384 113.949 85.5104 113.293 85.1264 112.44C84.753 111.576 84.5664 110.563 84.5664 109.4C84.5664 108.237 84.753 107.229 85.1264 106.376C85.5104 105.512 86.0384 104.851 86.7104 104.392C87.393 103.933 88.1664 103.704 89.0304 103.704C89.8944 103.704 90.6624 103.933 91.3344 104.392C92.017 104.851 92.5504 105.512 92.9344 106.376C93.3184 107.229 93.5104 108.237 93.5104 109.4C93.5104 110.563 93.3184 111.576 92.9344 112.44C92.5504 113.293 92.017 113.949 91.3344 114.408C90.6624 114.867 89.8944 115.096 89.0304 115.096ZM89.0304 114.04C89.681 114.04 90.2517 113.859 90.7424 113.496C91.2437 113.133 91.633 112.605 91.9104 111.912C92.1877 111.219 92.3264 110.381 92.3264 109.4C92.3264 108.419 92.1877 107.581 91.9104 106.888C91.633 106.195 91.2437 105.667 90.7424 105.304C90.2517 104.941 89.681 104.76 89.0304 104.76C88.3797 104.76 87.8037 104.941 87.3024 105.304C86.8117 105.667 86.4277 106.195 86.1504 106.888C85.873 107.581 85.7344 108.419 85.7344 109.4C85.7344 110.381 85.873 111.219 86.1504 111.912C86.4277 112.605 86.8117 113.133 87.3024 113.496C87.8037 113.859 88.3797 114.04 89.0304 114.04ZM99.6241 115.096C98.7601 115.096 97.9868 114.867 97.3041 114.408C96.6321 113.949 96.1041 113.293 95.7201 112.44C95.3468 111.576 95.1601 110.563 95.1601 109.4C95.1601 108.237 95.3468 107.229 95.7201 106.376C96.1041 105.512 96.6321 104.851 97.3041 104.392C97.9868 103.933 98.7601 103.704 99.6241 103.704C100.488 103.704 101.256 103.933 101.928 104.392C102.611 104.851 103.144 105.512 103.528 106.376C103.912 107.229 104.104 108.237 104.104 109.4C104.104 110.563 103.912 111.576 103.528 112.44C103.144 113.293 102.611 113.949 101.928 114.408C101.256 114.867 100.488 115.096 99.6241 115.096ZM99.6241 114.04C100.275 114.04 100.845 113.859 101.336 113.496C101.837 113.133 102.227 112.605 102.504 111.912C102.781 111.219 102.92 110.381 102.92 109.4C102.92 108.419 102.781 107.581 102.504 106.888C102.227 106.195 101.837 105.667 101.336 105.304C100.845 104.941 100.275 104.76 99.6241 104.76C98.9735 104.76 98.3975 104.941 97.8961 105.304C97.4055 105.667 97.0215 106.195 96.7441 106.888C96.4668 107.581 96.3281 108.419 96.3281 109.4C96.3281 110.381 96.4668 111.219 96.7441 111.912C97.0215 112.605 97.4055 113.133 97.8961 113.496C98.3975 113.859 98.9735 114.04 99.6241 114.04ZM114.981 106.52C116.037 106.52 116.875 106.829 117.493 107.448C118.123 108.056 118.437 108.947 118.437 110.12V115H117.301V110.232C117.301 109.357 117.083 108.691 116.645 108.232C116.208 107.773 115.584 107.544 114.773 107.544C113.867 107.544 113.147 107.816 112.613 108.36C112.091 108.893 111.829 109.635 111.829 110.584V115H110.693V103.128H111.829V108.056C112.139 107.565 112.565 107.187 113.109 106.92C113.653 106.653 114.277 106.52 114.981 106.52ZM124.993 115.08C124.182 115.08 123.451 114.899 122.801 114.536C122.15 114.163 121.638 113.651 121.265 113C120.891 112.349 120.705 111.613 120.705 110.792C120.705 109.971 120.891 109.235 121.265 108.584C121.638 107.933 122.15 107.427 122.801 107.064C123.451 106.701 124.182 106.52 124.993 106.52C125.803 106.52 126.534 106.701 127.185 107.064C127.835 107.427 128.342 107.933 128.705 108.584C129.078 109.235 129.265 109.971 129.265 110.792C129.265 111.613 129.078 112.349 128.705 113C128.342 113.651 127.835 114.163 127.185 114.536C126.534 114.899 125.803 115.08 124.993 115.08ZM124.993 114.072C125.59 114.072 126.123 113.939 126.593 113.672C127.073 113.395 127.446 113.005 127.713 112.504C127.979 112.003 128.113 111.432 128.113 110.792C128.113 110.152 127.979 109.581 127.713 109.08C127.446 108.579 127.073 108.195 126.593 107.928C126.123 107.651 125.59 107.512 124.993 107.512C124.395 107.512 123.857 107.651 123.377 107.928C122.907 108.195 122.534 108.579 122.257 109.08C121.99 109.581 121.857 110.152 121.857 110.792C121.857 111.432 121.99 112.003 122.257 112.504C122.534 113.005 122.907 113.395 123.377 113.672C123.857 113.939 124.395 114.072 124.993 114.072ZM132.672 108.232C132.939 107.667 133.333 107.24 133.856 106.952C134.389 106.664 135.045 106.52 135.824 106.52V107.624L135.552 107.608C134.667 107.608 133.973 107.88 133.472 108.424C132.971 108.968 132.72 109.731 132.72 110.712V115H131.584V106.584H132.672V108.232ZM145.131 111.144H138.091C138.155 112.019 138.491 112.728 139.099 113.272C139.707 113.805 140.475 114.072 141.403 114.072C141.925 114.072 142.405 113.981 142.843 113.8C143.28 113.608 143.659 113.331 143.979 112.968L144.619 113.704C144.245 114.152 143.776 114.493 143.211 114.728C142.656 114.963 142.043 115.08 141.371 115.08C140.507 115.08 139.739 114.899 139.067 114.536C138.405 114.163 137.888 113.651 137.515 113C137.141 112.349 136.955 111.613 136.955 110.792C136.955 109.971 137.131 109.235 137.483 108.584C137.845 107.933 138.336 107.427 138.955 107.064C139.584 106.701 140.288 106.52 141.067 106.52C141.845 106.52 142.544 106.701 143.163 107.064C143.781 107.427 144.267 107.933 144.619 108.584C144.971 109.224 145.147 109.96 145.147 110.792L145.131 111.144ZM141.067 107.496C140.256 107.496 139.573 107.757 139.019 108.28C138.475 108.792 138.165 109.464 138.091 110.296H144.059C143.984 109.464 143.669 108.792 143.115 108.28C142.571 107.757 141.888 107.496 141.067 107.496ZM149.715 115.08C149.032 115.08 148.376 114.984 147.747 114.792C147.128 114.589 146.643 114.339 146.291 114.04L146.803 113.144C147.155 113.421 147.598 113.651 148.131 113.832C148.664 114.003 149.219 114.088 149.795 114.088C150.563 114.088 151.128 113.971 151.491 113.736C151.864 113.491 152.051 113.149 152.051 112.712C152.051 112.403 151.95 112.163 151.747 111.992C151.544 111.811 151.288 111.677 150.979 111.592C150.67 111.496 150.259 111.405 149.747 111.32C149.064 111.192 148.515 111.064 148.099 110.936C147.683 110.797 147.326 110.568 147.027 110.248C146.739 109.928 146.595 109.485 146.595 108.92C146.595 108.216 146.888 107.64 147.475 107.192C148.062 106.744 148.878 106.52 149.923 106.52C150.467 106.52 151.011 106.595 151.555 106.744C152.099 106.883 152.547 107.069 152.899 107.304L152.403 108.216C151.71 107.736 150.883 107.496 149.923 107.496C149.198 107.496 148.648 107.624 148.275 107.88C147.912 108.136 147.731 108.472 147.731 108.888C147.731 109.208 147.832 109.464 148.035 109.656C148.248 109.848 148.51 109.992 148.819 110.088C149.128 110.173 149.555 110.264 150.099 110.36C150.771 110.488 151.31 110.616 151.715 110.744C152.12 110.872 152.467 111.091 152.755 111.4C153.043 111.709 153.187 112.136 153.187 112.68C153.187 113.416 152.878 114.003 152.259 114.44C151.651 114.867 150.803 115.08 149.715 115.08Z" fill="#111111"/>
<path fill-rule="evenodd" clip-rule="evenodd" d="M32 121C25.3726 121 20 115.627 20 109C20 102.373 25.3726 97 32 97C38.6274 97 44 102.373 44 109C44 115.627 38.6274 121 32 121ZM32 119C37.5228 119 42 114.523 42 109C42 103.477 37.5228 99 32 99C26.4772 99 22 103.477 22 109C22 114.523 26.4772 119 32 119Z" fill="#C2D1D9"/>
<mask id="mask0_325_16134" style="mask-type:luminance" maskUnits="userSpaceOnUse" x="20" y="97" width="24" height="24">
<path fill-rule="evenodd" clip-rule="evenodd" d="M32 121C25.3726 121 20 115.627 20 109C20 102.373 25.3726 97 32 97C38.6274 97 44 102.373 44 109C44 115.627 38.6274 121 32 121ZM32 119C37.5228 119 42 114.523 42 109C42 103.477 37.5228 99 32 99C26.4772 99 22 103.477 22 109C22 114.523 26.4772 119 32 119Z" fill="white"/>
</mask>
<g mask="url(#mask0_325_16134)">
<rect x="20" y="97" width="24" height="24" fill="black"/>
</g>
<path d="M63.936 159.8V171H62.784V160.824H60.144V159.8H63.936ZM71.0773 171.096C70.2133 171.096 69.4399 170.867 68.7573 170.408C68.0853 169.949 67.5573 169.293 67.1733 168.44C66.7999 167.576 66.6133 166.563 66.6133 165.4C66.6133 164.237 66.7999 163.229 67.1733 162.376C67.5573 161.512 68.0853 160.851 68.7573 160.392C69.4399 159.933 70.2133 159.704 71.0773 159.704C71.9413 159.704 72.7093 159.933 73.3813 160.392C74.0639 160.851 74.5973 161.512 74.9813 162.376C75.3653 163.229 75.5573 164.237 75.5573 165.4C75.5573 166.563 75.3653 167.576 74.9813 168.44C74.5973 169.293 74.0639 169.949 73.3813 170.408C72.7093 170.867 71.9413 171.096 71.0773 171.096ZM71.0773 170.04C71.7279 170.04 72.2986 169.859 72.7893 169.496C73.2906 169.133 73.6799 168.605 73.9573 167.912C74.2346 167.219 74.3733 166.381 74.3733 165.4C74.3733 164.419 74.2346 163.581 73.9573 162.888C73.6799 162.195 73.2906 161.667 72.7893 161.304C72.2986 160.941 71.7279 160.76 71.0773 160.76C70.4266 160.76 69.8506 160.941 69.3493 161.304C68.8586 161.667 68.4746 162.195 68.1973 162.888C67.9199 163.581 67.7812 164.419 67.7812 165.4C67.7812 166.381 67.9199 167.219 68.1973 167.912C68.4746 168.605 68.8586 169.133 69.3493 169.496C69.8506 169.859 70.4266 170.04 71.0773 170.04ZM78.071 164.264C77.8363 164.264 77.6337 164.179 77.463 164.008C77.303 163.837 77.223 163.629 77.223 163.384C77.223 163.139 77.303 162.936 77.463 162.776C77.6337 162.605 77.8363 162.52 78.071 162.52C78.3057 162.52 78.5083 162.605 78.679 162.776C78.8497 162.936 78.935 163.139 78.935 163.384C78.935 163.629 78.8497 163.837 78.679 164.008C78.5083 164.179 78.3057 164.264 78.071 164.264ZM78.071 171.08C77.8363 171.08 77.6337 170.995 77.463 170.824C77.303 170.653 77.223 170.445 77.223 170.2C77.223 169.955 77.303 169.752 77.463 169.592C77.6337 169.421 77.8363 169.336 78.071 169.336C78.3057 169.336 78.5083 169.421 78.679 169.592C78.8497 169.752 78.935 169.955 78.935 170.2C78.935 170.445 78.8497 170.653 78.679 170.824C78.5083 170.995 78.3057 171.08 78.071 171.08ZM85.0616 171.096C84.1976 171.096 83.4243 170.867 82.7416 170.408C82.0696 169.949 81.5416 169.293 81.1576 168.44C80.7843 167.576 80.5976 166.563 80.5976 165.4C80.5976 164.237 80.7843 163.229 81.1576 162.376C81.5416 161.512 82.0696 160.851 82.7416 160.392C83.4243 159.933 84.1976 159.704 85.0616 159.704C85.9256 159.704 86.6936 159.933 87.3656 160.392C88.0483 160.851 88.5816 161.512 88.9656 162.376C89.3496 163.229 89.5416 164.237 89.5416 165.4C89.5416 166.563 89.3496 167.576 88.9656 168.44C88.5816 169.293 88.0483 169.949 87.3656 170.408C86.6936 170.867 85.9256 171.096 85.0616 171.096ZM85.0616 170.04C85.7123 170.04 86.283 169.859 86.7736 169.496C87.275 169.133 87.6643 168.605 87.9416 167.912C88.219 167.219 88.3576 166.381 88.3576 165.4C88.3576 164.419 88.219 163.581 87.9416 162.888C87.6643 162.195 87.275 161.667 86.7736 161.304C86.283 160.941 85.7123 160.76 85.0616 160.76C84.411 160.76 83.835 160.941 83.3336 161.304C82.843 161.667 82.459 162.195 82.1816 162.888C81.9043 163.581 81.7656 164.419 81.7656 165.4C81.7656 166.381 81.9043 167.219 82.1816 167.912C82.459 168.605 82.843 169.133 83.3336 169.496C83.835 169.859 84.411 170.04 85.0616 170.04ZM95.6554 171.096C94.7914 171.096 94.018 170.867 93.3354 170.408C92.6634 169.949 92.1354 169.293 91.7514 168.44C91.378 167.576 91.1914 166.563 91.1914 165.4C91.1914 164.237 91.378 163.229 91.7514 162.376C92.1354 161.512 92.6634 160.851 93.3354 160.392C94.018 159.933 94.7914 159.704 95.6554 159.704C96.5194 159.704 97.2874 159.933 97.9594 160.392C98.642 160.851 99.1754 161.512 99.5594 162.376C99.9434 163.229 100.135 164.237 100.135 165.4C100.135 166.563 99.9434 167.576 99.5594 168.44C99.1754 169.293 98.642 169.949 97.9594 170.408C97.2874 170.867 96.5194 171.096 95.6554 171.096ZM95.6554 170.04C96.306 170.04 96.8767 169.859 97.3674 169.496C97.8687 169.133 98.258 168.605 98.5354 167.912C98.8127 167.219 98.9514 166.381 98.9514 165.4C98.9514 164.419 98.8127 163.581 98.5354 162.888C98.258 162.195 97.8687 161.667 97.3674 161.304C96.8767 160.941 96.306 160.76 95.6554 160.76C95.0047 160.76 94.4287 160.941 93.9274 161.304C93.4367 161.667 93.0527 162.195 92.7754 162.888C92.498 163.581 92.3594 164.419 92.3594 165.4C92.3594 166.381 92.498 167.219 92.7754 167.912C93.0527 168.605 93.4367 169.133 93.9274 169.496C94.4287 169.859 95.0047 170.04 95.6554 170.04ZM111.013 162.52C112.069 162.52 112.906 162.829 113.525 163.448C114.154 164.056 114.469 164.947 114.469 166.12V171H113.333V166.232C113.333 165.357 113.114 164.691 112.677 164.232C112.239 163.773 111.615 163.544 110.805 163.544C109.898 163.544 109.178 163.816 108.645 164.36C108.122 164.893 107.861 165.635 107.861 166.584V171H106.725V159.128H107.861V164.056C108.17 163.565 108.597 163.187 109.141 162.92C109.685 162.653 110.309 162.52 111.013 162.52ZM121.024 171.08C120.213 171.08 119.483 170.899 118.832 170.536C118.181 170.163 117.669 169.651 117.296 169C116.923 168.349 116.736 167.613 116.736 166.792C116.736 165.971 116.923 165.235 117.296 164.584C117.669 163.933 118.181 163.427 118.832 163.064C119.483 162.701 120.213 162.52 121.024 162.52C121.835 162.52 122.565 162.701 123.216 163.064C123.867 163.427 124.373 163.933 124.736 164.584C125.109 165.235 125.296 165.971 125.296 166.792C125.296 167.613 125.109 168.349 124.736 169C124.373 169.651 123.867 170.163 123.216 170.536C122.565 170.899 121.835 171.08 121.024 171.08ZM121.024 170.072C121.621 170.072 122.155 169.939 122.624 169.672C123.104 169.395 123.477 169.005 123.744 168.504C124.011 168.003 124.144 167.432 124.144 166.792C124.144 166.152 124.011 165.581 123.744 165.08C123.477 164.579 123.104 164.195 122.624 163.928C122.155 163.651 121.621 163.512 121.024 163.512C120.427 163.512 119.888 163.651 119.408 163.928C118.939 164.195 118.565 164.579 118.288 165.08C118.021 165.581 117.888 166.152 117.888 166.792C117.888 167.432 118.021 168.003 118.288 168.504C118.565 169.005 118.939 169.395 119.408 169.672C119.888 169.939 120.427 170.072 121.024 170.072ZM128.703 164.232C128.97 163.667 129.365 163.24 129.887 162.952C130.421 162.664 131.077 162.52 131.855 162.52V163.624L131.583 163.608C130.698 163.608 130.005 163.88 129.503 164.424C129.002 164.968 128.751 165.731 128.751 166.712V171H127.615V162.584H128.703V164.232ZM141.162 167.144H134.122C134.186 168.019 134.522 168.728 135.13 169.272C135.738 169.805 136.506 170.072 137.434 170.072C137.957 170.072 138.437 169.981 138.874 169.8C139.311 169.608 139.69 169.331 140.01 168.968L140.65 169.704C140.277 170.152 139.807 170.493 139.242 170.728C138.687 170.963 138.074 171.08 137.402 171.08C136.538 171.08 135.77 170.899 135.098 170.536C134.437 170.163 133.919 169.651 133.546 169C133.173 168.349 132.986 167.613 132.986 166.792C132.986 165.971 133.162 165.235 133.514 164.584C133.877 163.933 134.367 163.427 134.986 163.064C135.615 162.701 136.319 162.52 137.098 162.52C137.877 162.52 138.575 162.701 139.194 163.064C139.813 163.427 140.298 163.933 140.65 164.584C141.002 165.224 141.178 165.96 141.178 166.792L141.162 167.144ZM137.098 163.496C136.287 163.496 135.605 163.757 135.05 164.28C134.506 164.792 134.197 165.464 134.122 166.296H140.09C140.015 165.464 139.701 164.792 139.146 164.28C138.602 163.757 137.919 163.496 137.098 163.496ZM145.746 171.08C145.064 171.08 144.408 170.984 143.778 170.792C143.16 170.589 142.674 170.339 142.322 170.04L142.834 169.144C143.186 169.421 143.629 169.651 144.162 169.832C144.696 170.003 145.25 170.088 145.826 170.088C146.594 170.088 147.16 169.971 147.522 169.736C147.896 169.491 148.082 169.149 148.082 168.712C148.082 168.403 147.981 168.163 147.778 167.992C147.576 167.811 147.32 167.677 147.01 167.592C146.701 167.496 146.29 167.405 145.778 167.32C145.096 167.192 144.546 167.064 144.13 166.936C143.714 166.797 143.357 166.568 143.058 166.248C142.77 165.928 142.626 165.485 142.626 164.92C142.626 164.216 142.92 163.64 143.506 163.192C144.093 162.744 144.909 162.52 145.954 162.52C146.498 162.52 147.042 162.595 147.586 162.744C148.13 162.883 148.578 163.069 148.93 163.304L148.434 164.216C147.741 163.736 146.914 163.496 145.954 163.496C145.229 163.496 144.68 163.624 144.306 163.88C143.944 164.136 143.762 164.472 143.762 164.888C143.762 165.208 143.864 165.464 144.066 165.656C144.28 165.848 144.541 165.992 144.85 166.088C145.16 166.173 145.586 166.264 146.13 166.36C146.802 166.488 147.341 166.616 147.746 166.744C148.152 166.872 148.498 167.091 148.786 167.4C149.074 167.709 149.218 168.136 149.218 168.68C149.218 169.416 148.909 170.003 148.29 170.44C147.682 170.867 146.834 171.08 145.746 171.08Z" fill="#111111"/>
<path fill-rule="evenodd" clip-rule="evenodd" d="M32 177C25.3726 177 20 171.627 20 165C20 158.373 25.3726 153 32 153C38.6274 153 44 158.373 44 165C44 171.627 38.6274 177 32 177ZM32 175C37.5228 175 42 170.523 42 165C42 159.477 37.5228 155 32 155C26.4772 155 22 159.477 22 165C22 170.523 26.4772 175 32 175Z" fill="#C2D1D9"/>
<mask id="mask1_325_16134" style="mask-type:luminance" maskUnits="userSpaceOnUse" x="20" y="153" width="24" height="24">
<path fill-rule="evenodd" clip-rule="evenodd" d="M32 177C25.3726 177 20 171.627 20 165C20 158.373 25.3726 153 32 153C38.6274 153 44 158.373 44 165C44 171.627 38.6274 177 32 177ZM32 175C37.5228 175 42 170.523 42 165C42 159.477 37.5228 155 32 155C26.4772 155 22 159.477 22 165C22 170.523 26.4772 175 32 175Z" fill="white"/>
</mask>
<g mask="url(#mask1_325_16134)">
<rect x="20" y="153" width="24" height="24" fill="black"/>
</g>
<circle cx="32" cy="165" r="7" fill="black"/>
<path d="M63.936 215.8V227H62.784V216.824H60.144V215.8H63.936ZM69.7173 215.8V227H68.5653V216.824H65.9253V215.8H69.7173ZM73.2585 220.264C73.0238 220.264 72.8212 220.179 72.6505 220.008C72.4905 219.837 72.4105 219.629 72.4105 219.384C72.4105 219.139 72.4905 218.936 72.6505 218.776C72.8212 218.605 73.0238 218.52 73.2585 218.52C73.4932 218.52 73.6958 218.605 73.8665 218.776C74.0372 218.936 74.1225 219.139 74.1225 219.384C74.1225 219.629 74.0372 219.837 73.8665 220.008C73.6958 220.179 73.4932 220.264 73.2585 220.264ZM73.2585 227.08C73.0238 227.08 72.8212 226.995 72.6505 226.824C72.4905 226.653 72.4105 226.445 72.4105 226.2C72.4105 225.955 72.4905 225.752 72.6505 225.592C72.8212 225.421 73.0238 225.336 73.2585 225.336C73.4932 225.336 73.6958 225.421 73.8665 225.592C74.0372 225.752 74.1225 225.955 74.1225 226.2C74.1225 226.445 74.0372 226.653 73.8665 226.824C73.6958 226.995 73.4932 227.08 73.2585 227.08ZM80.2491 227.096C79.3851 227.096 78.6118 226.867 77.9291 226.408C77.2571 225.949 76.7291 225.293 76.3451 224.44C75.9718 223.576 75.7851 222.563 75.7851 221.4C75.7851 220.237 75.9718 219.229 76.3451 218.376C76.7291 217.512 77.2571 216.851 77.9291 216.392C78.6118 215.933 79.3851 215.704 80.2491 215.704C81.1131 215.704 81.8811 215.933 82.5531 216.392C83.2358 216.851 83.7691 217.512 84.1531 218.376C84.5371 219.229 84.7291 220.237 84.7291 221.4C84.7291 222.563 84.5371 223.576 84.1531 224.44C83.7691 225.293 83.2358 225.949 82.5531 226.408C81.8811 226.867 81.1131 227.096 80.2491 227.096ZM80.2491 226.04C80.8998 226.04 81.4705 225.859 81.9611 225.496C82.4625 225.133 82.8518 224.605 83.1291 223.912C83.4065 223.219 83.5451 222.381 83.5451 221.4C83.5451 220.419 83.4065 219.581 83.1291 218.888C82.8518 218.195 82.4625 217.667 81.9611 217.304C81.4705 216.941 80.8998 216.76 80.2491 216.76C79.5985 216.76 79.0225 216.941 78.5211 217.304C78.0305 217.667 77.6465 218.195 77.3691 218.888C77.0918 219.581 76.9531 220.419 76.9531 221.4C76.9531 222.381 77.0918 223.219 77.3691 223.912C77.6465 224.605 78.0305 225.133 78.5211 225.496C79.0225 225.859 79.5985 226.04 80.2491 226.04ZM90.8429 227.096C89.9789 227.096 89.2055 226.867 88.5229 226.408C87.8509 225.949 87.3229 225.293 86.9389 224.44C86.5655 223.576 86.3789 222.563 86.3789 221.4C86.3789 220.237 86.5655 219.229 86.9389 218.376C87.3229 217.512 87.8509 216.851 88.5229 216.392C89.2055 215.933 89.9789 215.704 90.8429 215.704C91.7069 215.704 92.4749 215.933 93.1469 216.392C93.8295 216.851 94.3629 217.512 94.7469 218.376C95.1309 219.229 95.3229 220.237 95.3229 221.4C95.3229 222.563 95.1309 223.576 94.7469 224.44C94.3629 225.293 93.8295 225.949 93.1469 226.408C92.4749 226.867 91.7069 227.096 90.8429 227.096ZM90.8429 226.04C91.4935 226.04 92.0642 225.859 92.5549 225.496C93.0562 225.133 93.4455 224.605 93.7229 223.912C94.0002 223.219 94.1389 222.381 94.1389 221.4C94.1389 220.419 94.0002 219.581 93.7229 218.888C93.4455 218.195 93.0562 217.667 92.5549 217.304C92.0642 216.941 91.4935 216.76 90.8429 216.76C90.1922 216.76 89.6162 216.941 89.1149 217.304C88.6242 217.667 88.2402 218.195 87.9629 218.888C87.6855 219.581 87.5469 220.419 87.5469 221.4C87.5469 222.381 87.6855 223.219 87.9629 223.912C88.2402 224.605 88.6242 225.133 89.1149 225.496C89.6162 225.859 90.1922 226.04 90.8429 226.04ZM106.2 218.52C107.256 218.52 108.093 218.829 108.712 219.448C109.341 220.056 109.656 220.947 109.656 222.12V227H108.52V222.232C108.52 221.357 108.301 220.691 107.864 220.232C107.427 219.773 106.803 219.544 105.992 219.544C105.085 219.544 104.365 219.816 103.832 220.36C103.309 220.893 103.048 221.635 103.048 222.584V227H101.912V215.128H103.048V220.056C103.357 219.565 103.784 219.187 104.328 218.92C104.872 218.653 105.496 218.52 106.2 218.52ZM116.212 227.08C115.401 227.08 114.67 226.899 114.02 226.536C113.369 226.163 112.857 225.651 112.484 225C112.11 224.349 111.924 223.613 111.924 222.792C111.924 221.971 112.11 221.235 112.484 220.584C112.857 219.933 113.369 219.427 114.02 219.064C114.67 218.701 115.401 218.52 116.212 218.52C117.022 218.52 117.753 218.701 118.404 219.064C119.054 219.427 119.561 219.933 119.924 220.584C120.297 221.235 120.484 221.971 120.484 222.792C120.484 223.613 120.297 224.349 119.924 225C119.561 225.651 119.054 226.163 118.404 226.536C117.753 226.899 117.022 227.08 116.212 227.08ZM116.212 226.072C116.809 226.072 117.342 225.939 117.812 225.672C118.292 225.395 118.665 225.005 118.932 224.504C119.198 224.003 119.332 223.432 119.332 222.792C119.332 222.152 119.198 221.581 118.932 221.08C118.665 220.579 118.292 220.195 117.812 219.928C117.342 219.651 116.809 219.512 116.212 219.512C115.614 219.512 115.076 219.651 114.596 219.928C114.126 220.195 113.753 220.579 113.476 221.08C113.209 221.581 113.076 222.152 113.076 222.792C113.076 223.432 113.209 224.003 113.476 224.504C113.753 225.005 114.126 225.395 114.596 225.672C115.076 225.939 115.614 226.072 116.212 226.072ZM123.891 220.232C124.157 219.667 124.552 219.24 125.075 218.952C125.608 218.664 126.264 218.52 127.043 218.52V219.624L126.771 219.608C125.885 219.608 125.192 219.88 124.691 220.424C124.189 220.968 123.939 221.731 123.939 222.712V227H122.803V218.584H123.891V220.232ZM136.35 223.144H129.31C129.374 224.019 129.71 224.728 130.318 225.272C130.926 225.805 131.694 226.072 132.622 226.072C133.144 226.072 133.624 225.981 134.062 225.8C134.499 225.608 134.878 225.331 135.198 224.968L135.838 225.704C135.464 226.152 134.995 226.493 134.43 226.728C133.875 226.963 133.262 227.08 132.59 227.08C131.726 227.08 130.958 226.899 130.286 226.536C129.624 226.163 129.107 225.651 128.734 225C128.36 224.349 128.174 223.613 128.174 222.792C128.174 221.971 128.35 221.235 128.702 220.584C129.064 219.933 129.555 219.427 130.174 219.064C130.803 218.701 131.507 218.52 132.286 218.52C133.064 218.52 133.763 218.701 134.382 219.064C135 219.427 135.486 219.933 135.838 220.584C136.19 221.224 136.366 221.96 136.366 222.792L136.35 223.144ZM132.286 219.496C131.475 219.496 130.792 219.757 130.238 220.28C129.694 220.792 129.384 221.464 129.31 222.296H135.278C135.203 221.464 134.888 220.792 134.334 220.28C133.79 219.757 133.107 219.496 132.286 219.496ZM140.934 227.08C140.251 227.08 139.595 226.984 138.966 226.792C138.347 226.589 137.862 226.339 137.51 226.04L138.022 225.144C138.374 225.421 138.816 225.651 139.35 225.832C139.883 226.003 140.438 226.088 141.014 226.088C141.782 226.088 142.347 225.971 142.71 225.736C143.083 225.491 143.27 225.149 143.27 224.712C143.27 224.403 143.168 224.163 142.966 223.992C142.763 223.811 142.507 223.677 142.198 223.592C141.888 223.496 141.478 223.405 140.966 223.32C140.283 223.192 139.734 223.064 139.318 222.936C138.902 222.797 138.544 222.568 138.246 222.248C137.958 221.928 137.814 221.485 137.814 220.92C137.814 220.216 138.107 219.64 138.694 219.192C139.28 218.744 140.096 218.52 141.142 218.52C141.686 218.52 142.23 218.595 142.774 218.744C143.318 218.883 143.766 219.069 144.118 219.304L143.622 220.216C142.928 219.736 142.102 219.496 141.142 219.496C140.416 219.496 139.867 219.624 139.494 219.88C139.131 220.136 138.95 220.472 138.95 220.888C138.95 221.208 139.051 221.464 139.254 221.656C139.467 221.848 139.728 221.992 140.038 222.088C140.347 222.173 140.774 222.264 141.318 222.36C141.99 222.488 142.528 222.616 142.934 222.744C143.339 222.872 143.686 223.091 143.974 223.4C144.262 223.709 144.406 224.136 144.406 224.68C144.406 225.416 144.096 226.003 143.478 226.44C142.87 226.867 142.022 227.08 140.934 227.08Z" fill="#111111"/>
<path fill-rule="evenodd" clip-rule="evenodd" d="M32 233C25.3726 233 20 227.627 20 221C20 214.373 25.3726 209 32 209C38.6274 209 44 214.373 44 221C44 227.627 38.6274 233 32 233ZM32 231C37.5228 231 42 226.523 42 221C42 215.477 37.5228 211 32 211C26.4772 211 22 215.477 22 221C22 226.523 26.4772 231 32 231Z" fill="#C2D1D9"/>
<mask id="mask2_325_16134" style="mask-type:luminance" maskUnits="userSpaceOnUse" x="20" y="209" width="24" height="24">
<path fill-rule="evenodd" clip-rule="evenodd" d="M32 233C25.3726 233 20 227.627 20 221C20 214.373 25.3726 209 32 209C38.6274 209 44 214.373 44 221C44 227.627 38.6274 233 32 233ZM32 231C37.5228 231 42 226.523 42 221C42 215.477 37.5228 211 32 211C26.4772 211 22 215.477 22 221C22 226.523 26.4772 231 32 231Z" fill="white"/>
</mask>
<g mask="url(#mask2_325_16134)">
<rect x="20" y="209" width="24" height="24" fill="black"/>
</g>
<path d="M63.936 271.8V283H62.784V272.824H60.144V271.8H63.936ZM74.2613 281.976V283H66.4053V282.184L71.0613 277.624C71.6479 277.048 72.0426 276.552 72.2453 276.136C72.4586 275.709 72.5653 275.283 72.5653 274.856C72.5653 274.195 72.3359 273.683 71.8773 273.32C71.4293 272.947 70.7839 272.76 69.9413 272.76C68.6293 272.76 67.6106 273.176 66.8853 274.008L66.0693 273.304C66.5066 272.792 67.0613 272.397 67.7333 272.12C68.4159 271.843 69.1839 271.704 70.0373 271.704C71.1786 271.704 72.0799 271.976 72.7413 272.52C73.4133 273.053 73.7493 273.789 73.7493 274.728C73.7493 275.304 73.6213 275.859 73.3653 276.392C73.1093 276.925 72.6239 277.539 71.9093 278.232L68.1013 281.976H74.2613ZM76.571 276.264C76.3363 276.264 76.1337 276.179 75.963 276.008C75.803 275.837 75.723 275.629 75.723 275.384C75.723 275.139 75.803 274.936 75.963 274.776C76.1337 274.605 76.3363 274.52 76.571 274.52C76.8057 274.52 77.0083 274.605 77.179 274.776C77.3497 274.936 77.435 275.139 77.435 275.384C77.435 275.629 77.3497 275.837 77.179 276.008C77.0083 276.179 76.8057 276.264 76.571 276.264ZM76.571 283.08C76.3363 283.08 76.1337 282.995 75.963 282.824C75.803 282.653 75.723 282.445 75.723 282.2C75.723 281.955 75.803 281.752 75.963 281.592C76.1337 281.421 76.3363 281.336 76.571 281.336C76.8057 281.336 77.0083 281.421 77.179 281.592C77.3497 281.752 77.435 281.955 77.435 282.2C77.435 282.445 77.3497 282.653 77.179 282.824C77.0083 282.995 76.8057 283.08 76.571 283.08ZM83.5616 283.096C82.6976 283.096 81.9243 282.867 81.2416 282.408C80.5696 281.949 80.0416 281.293 79.6576 280.44C79.2843 279.576 79.0976 278.563 79.0976 277.4C79.0976 276.237 79.2843 275.229 79.6576 274.376C80.0416 273.512 80.5696 272.851 81.2416 272.392C81.9243 271.933 82.6976 271.704 83.5616 271.704C84.4256 271.704 85.1936 271.933 85.8656 272.392C86.5483 272.851 87.0816 273.512 87.4656 274.376C87.8496 275.229 88.0416 276.237 88.0416 277.4C88.0416 278.563 87.8496 279.576 87.4656 280.44C87.0816 281.293 86.5483 281.949 85.8656 282.408C85.1936 282.867 84.4256 283.096 83.5616 283.096ZM83.5616 282.04C84.2123 282.04 84.783 281.859 85.2736 281.496C85.775 281.133 86.1643 280.605 86.4416 279.912C86.719 279.219 86.8576 278.381 86.8576 277.4C86.8576 276.419 86.719 275.581 86.4416 274.888C86.1643 274.195 85.775 273.667 85.2736 273.304C84.783 272.941 84.2123 272.76 83.5616 272.76C82.911 272.76 82.335 272.941 81.8336 273.304C81.343 273.667 80.959 274.195 80.6816 274.888C80.4043 275.581 80.2656 276.419 80.2656 277.4C80.2656 278.381 80.4043 279.219 80.6816 279.912C80.959 280.605 81.343 281.133 81.8336 281.496C82.335 281.859 82.911 282.04 83.5616 282.04ZM94.1554 283.096C93.2914 283.096 92.518 282.867 91.8354 282.408C91.1634 281.949 90.6354 281.293 90.2514 280.44C89.878 279.576 89.6914 278.563 89.6914 277.4C89.6914 276.237 89.878 275.229 90.2514 274.376C90.6354 273.512 91.1634 272.851 91.8354 272.392C92.518 271.933 93.2914 271.704 94.1554 271.704C95.0194 271.704 95.7874 271.933 96.4594 272.392C97.142 272.851 97.6754 273.512 98.0594 274.376C98.4434 275.229 98.6354 276.237 98.6354 277.4C98.6354 278.563 98.4434 279.576 98.0594 280.44C97.6754 281.293 97.142 281.949 96.4594 282.408C95.7874 282.867 95.0194 283.096 94.1554 283.096ZM94.1554 282.04C94.806 282.04 95.3767 281.859 95.8674 281.496C96.3687 281.133 96.758 280.605 97.0354 279.912C97.3127 279.219 97.4514 278.381 97.4514 277.4C97.4514 276.419 97.3127 275.581 97.0354 274.888C96.758 274.195 96.3687 273.667 95.8674 273.304C95.3767 272.941 94.806 272.76 94.1554 272.76C93.5047 272.76 92.9287 272.941 92.4274 273.304C91.9367 273.667 91.5527 274.195 91.2754 274.888C90.998 275.581 90.8594 276.419 90.8594 277.4C90.8594 278.381 90.998 279.219 91.2754 279.912C91.5527 280.605 91.9367 281.133 92.4274 281.496C92.9287 281.859 93.5047 282.04 94.1554 282.04ZM109.513 274.52C110.569 274.52 111.406 274.829 112.025 275.448C112.654 276.056 112.969 276.947 112.969 278.12V283H111.833V278.232C111.833 277.357 111.614 276.691 111.177 276.232C110.739 275.773 110.115 275.544 109.305 275.544C108.398 275.544 107.678 275.816 107.145 276.36C106.622 276.893 106.361 277.635 106.361 278.584V283H105.225V271.128H106.361V276.056C106.67 275.565 107.097 275.187 107.641 274.92C108.185 274.653 108.809 274.52 109.513 274.52ZM119.524 283.08C118.713 283.08 117.983 282.899 117.332 282.536C116.681 282.163 116.169 281.651 115.796 281C115.423 280.349 115.236 279.613 115.236 278.792C115.236 277.971 115.423 277.235 115.796 276.584C116.169 275.933 116.681 275.427 117.332 275.064C117.983 274.701 118.713 274.52 119.524 274.52C120.335 274.52 121.065 274.701 121.716 275.064C122.367 275.427 122.873 275.933 123.236 276.584C123.609 277.235 123.796 277.971 123.796 278.792C123.796 279.613 123.609 280.349 123.236 281C122.873 281.651 122.367 282.163 121.716 282.536C121.065 282.899 120.335 283.08 119.524 283.08ZM119.524 282.072C120.121 282.072 120.655 281.939 121.124 281.672C121.604 281.395 121.977 281.005 122.244 280.504C122.511 280.003 122.644 279.432 122.644 278.792C122.644 278.152 122.511 277.581 122.244 277.08C121.977 276.579 121.604 276.195 121.124 275.928C120.655 275.651 120.121 275.512 119.524 275.512C118.927 275.512 118.388 275.651 117.908 275.928C117.439 276.195 117.065 276.579 116.788 277.08C116.521 277.581 116.388 278.152 116.388 278.792C116.388 279.432 116.521 280.003 116.788 280.504C117.065 281.005 117.439 281.395 117.908 281.672C118.388 281.939 118.927 282.072 119.524 282.072ZM127.203 276.232C127.47 275.667 127.865 275.24 128.387 274.952C128.921 274.664 129.577 274.52 130.355 274.52V275.624L130.083 275.608C129.198 275.608 128.505 275.88 128.003 276.424C127.502 276.968 127.251 277.731 127.251 278.712V283H126.115V274.584H127.203V276.232ZM139.662 279.144H132.622C132.686 280.019 133.022 280.728 133.63 281.272C134.238 281.805 135.006 282.072 135.934 282.072C136.457 282.072 136.937 281.981 137.374 281.8C137.811 281.608 138.19 281.331 138.51 280.968L139.15 281.704C138.777 282.152 138.307 282.493 137.742 282.728C137.187 282.963 136.574 283.08 135.902 283.08C135.038 283.08 134.27 282.899 133.598 282.536C132.937 282.163 132.419 281.651 132.046 281C131.673 280.349 131.486 279.613 131.486 278.792C131.486 277.971 131.662 277.235 132.014 276.584C132.377 275.933 132.867 275.427 133.486 275.064C134.115 274.701 134.819 274.52 135.598 274.52C136.377 274.52 137.075 274.701 137.694 275.064C138.313 275.427 138.798 275.933 139.15 276.584C139.502 277.224 139.678 277.96 139.678 278.792L139.662 279.144ZM135.598 275.496C134.787 275.496 134.105 275.757 133.55 276.28C133.006 276.792 132.697 277.464 132.622 278.296H138.59C138.515 277.464 138.201 276.792 137.646 276.28C137.102 275.757 136.419 275.496 135.598 275.496ZM144.246 283.08C143.564 283.08 142.908 282.984 142.278 282.792C141.66 282.589 141.174 282.339 140.822 282.04L141.334 281.144C141.686 281.421 142.129 281.651 142.662 281.832C143.196 282.003 143.75 282.088 144.326 282.088C145.094 282.088 145.66 281.971 146.022 281.736C146.396 281.491 146.582 281.149 146.582 280.712C146.582 280.403 146.481 280.163 146.278 279.992C146.076 279.811 145.82 279.677 145.51 279.592C145.201 279.496 144.79 279.405 144.278 279.32C143.596 279.192 143.046 279.064 142.63 278.936C142.214 278.797 141.857 278.568 141.558 278.248C141.27 277.928 141.126 277.485 141.126 276.92C141.126 276.216 141.42 275.64 142.006 275.192C142.593 274.744 143.409 274.52 144.454 274.52C144.998 274.52 145.542 274.595 146.086 274.744C146.63 274.883 147.078 275.069 147.43 275.304L146.934 276.216C146.241 275.736 145.414 275.496 144.454 275.496C143.729 275.496 143.18 275.624 142.806 275.88C142.444 276.136 142.262 276.472 142.262 276.888C142.262 277.208 142.364 277.464 142.566 277.656C142.78 277.848 143.041 277.992 143.35 278.088C143.66 278.173 144.086 278.264 144.63 278.36C145.302 278.488 145.841 278.616 146.246 278.744C146.652 278.872 146.998 279.091 147.286 279.4C147.574 279.709 147.718 280.136 147.718 280.68C147.718 281.416 147.409 282.003 146.79 282.44C146.182 282.867 145.334 283.08 144.246 283.08Z" fill="#111111"/>
<path fill-rule="evenodd" clip-rule="evenodd" d="M32 289C25.3726 289 20 283.627 20 277C20 270.373 25.3726 265 32 265C38.6274 265 44 270.373 44 277C44 283.627 38.6274 289 32 289ZM32 287C37.5228 287 42 282.523 42 277C42 271.477 37.5228 267 32 267C26.4772 267 22 271.477 22 277C22 282.523 26.4772 287 32 287Z" fill="#C2D1D9"/>
<mask id="mask3_325_16134" style="mask-type:luminance" maskUnits="userSpaceOnUse" x="20" y="265" width="24" height="24">
<path fill-rule="evenodd" clip-rule="evenodd" d="M32 289C25.3726 289 20 283.627 20 277C20 270.373 25.3726 265 32 265C38.6274 265 44 270.373 44 277C44 283.627 38.6274 289 32 289ZM32 287C37.5228 287 42 282.523 42 277C42 271.477 37.5228 267 32 267C26.4772 267 22 271.477 22 277C22 282.523 26.4772 287 32 287Z" fill="white"/>
</mask>
<g mask="url(#mask3_325_16134)">
<rect x="20" y="265" width="24" height="24" fill="black"/>
</g>
<path d="M151.722 28.424C152.757 28.552 153.546 28.904 154.09 29.48C154.634 30.056 154.906 30.776 154.906 31.64C154.906 32.2907 154.741 32.8827 154.41 33.416C154.079 33.9493 153.578 34.376 152.906 34.696C152.245 35.0053 151.434 35.16 150.474 35.16C149.674 35.16 148.901 35.048 148.154 34.824C147.418 34.5893 146.789 34.2693 146.266 33.864L147.162 32.248C147.567 32.5893 148.058 32.8613 148.634 33.064C149.221 33.256 149.823 33.352 150.442 33.352C151.178 33.352 151.754 33.2027 152.17 32.904C152.597 32.5947 152.81 32.1787 152.81 31.656C152.81 31.1333 152.607 30.728 152.202 30.44C151.807 30.1413 151.199 29.992 150.378 29.992H149.354V28.568L151.898 25.544H146.81V23.8H154.442V25.192L151.722 28.424ZM169.776 26.456V33.704C169.776 36.712 168.24 38.216 165.168 38.216C164.347 38.216 163.568 38.1093 162.832 37.896C162.096 37.6933 161.488 37.3947 161.008 37L161.904 35.496C162.278 35.8053 162.747 36.0507 163.312 36.232C163.888 36.424 164.47 36.52 165.056 36.52C165.995 36.52 166.683 36.3067 167.12 35.88C167.558 35.4533 167.776 34.8027 167.776 33.928V33.48C167.435 33.8533 167.019 34.136 166.528 34.328C166.038 34.52 165.499 34.616 164.912 34.616C164.102 34.616 163.366 34.4453 162.704 34.104C162.054 33.752 161.536 33.2613 161.152 32.632C160.779 32.0027 160.592 31.2827 160.592 30.472C160.592 29.6613 160.779 28.9467 161.152 28.328C161.536 27.6987 162.054 27.2133 162.704 26.872C163.366 26.5307 164.102 26.36 164.912 26.36C165.531 26.36 166.091 26.4613 166.592 26.664C167.104 26.8667 167.531 27.176 167.872 27.592V26.456H169.776ZM165.216 32.92C165.974 32.92 166.592 32.696 167.072 32.248C167.563 31.7893 167.808 31.1973 167.808 30.472C167.808 29.7573 167.563 29.176 167.072 28.728C166.592 28.28 165.974 28.056 165.216 28.056C164.448 28.056 163.819 28.28 163.328 28.728C162.848 29.176 162.608 29.7573 162.608 30.472C162.608 31.1973 162.848 31.7893 163.328 32.248C163.819 32.696 164.448 32.92 165.216 32.92ZM180.438 30.776C180.438 30.9147 180.427 31.112 180.406 31.368H173.702C173.819 31.9973 174.123 32.4987 174.614 32.872C175.115 33.2347 175.734 33.416 176.47 33.416C177.408 33.416 178.182 33.1067 178.79 32.488L179.862 33.72C179.478 34.1787 178.992 34.5253 178.406 34.76C177.819 34.9947 177.158 35.112 176.422 35.112C175.483 35.112 174.656 34.9253 173.942 34.552C173.227 34.1787 172.672 33.6613 172.278 33C171.894 32.328 171.702 31.5707 171.702 30.728C171.702 29.896 171.888 29.1493 172.262 28.488C172.646 27.816 173.174 27.2933 173.846 26.92C174.518 26.5467 175.275 26.36 176.118 26.36C176.95 26.36 177.691 26.5467 178.342 26.92C179.003 27.2827 179.515 27.8 179.878 28.472C180.251 29.1333 180.438 29.9013 180.438 30.776ZM176.118 27.96C175.478 27.96 174.934 28.152 174.486 28.536C174.048 28.9093 173.782 29.4107 173.686 30.04H178.534C178.448 29.4213 178.187 28.92 177.75 28.536C177.312 28.152 176.768 27.96 176.118 27.96ZM187.207 26.36C188.284 26.36 189.148 26.6747 189.799 27.304C190.45 27.9333 190.775 28.8667 190.775 30.104V35H188.775V30.36C188.775 29.6133 188.599 29.0533 188.247 28.68C187.895 28.296 187.394 28.104 186.743 28.104C186.007 28.104 185.426 28.328 184.999 28.776C184.572 29.2133 184.359 29.848 184.359 30.68V35H182.359V26.456H184.263V27.56C184.594 27.1653 185.01 26.8667 185.511 26.664C186.012 26.4613 186.578 26.36 187.207 26.36ZM201.422 30.776C201.422 30.9147 201.411 31.112 201.39 31.368H194.686C194.803 31.9973 195.107 32.4987 195.598 32.872C196.099 33.2347 196.718 33.416 197.454 33.416C198.393 33.416 199.166 33.1067 199.774 32.488L200.846 33.72C200.462 34.1787 199.977 34.5253 199.39 34.76C198.803 34.9947 198.142 35.112 197.406 35.112C196.467 35.112 195.641 34.9253 194.926 34.552C194.211 34.1787 193.657 33.6613 193.262 33C192.878 32.328 192.686 31.5707 192.686 30.728C192.686 29.896 192.873 29.1493 193.246 28.488C193.63 27.816 194.158 27.2933 194.83 26.92C195.502 26.5467 196.259 26.36 197.102 26.36C197.934 26.36 198.675 26.5467 199.326 26.92C199.987 27.2827 200.499 27.8 200.862 28.472C201.235 29.1333 201.422 29.9013 201.422 30.776ZM197.102 27.96C196.462 27.96 195.918 28.152 195.47 28.536C195.033 28.9093 194.766 29.4107 194.67 30.04H199.518C199.433 29.4213 199.171 28.92 198.734 28.536C198.297 28.152 197.753 27.96 197.102 27.96ZM205.247 27.704C205.823 26.808 206.837 26.36 208.287 26.36V28.264C208.117 28.232 207.962 28.216 207.823 28.216C207.045 28.216 206.437 28.4453 205.999 28.904C205.562 29.352 205.343 30.0027 205.343 30.856V35H203.343V26.456H205.247V27.704ZM221.988 33.24V35H213.732V33.608L218.18 29.384C218.681 28.904 219.017 28.488 219.188 28.136C219.369 27.7733 219.46 27.416 219.46 27.064C219.46 26.5413 219.284 26.1413 218.932 25.864C218.58 25.5867 218.063 25.448 217.38 25.448C216.239 25.448 215.364 25.8373 214.756 26.616L213.3 25.496C213.737 24.9093 214.324 24.456 215.06 24.136C215.807 23.8053 216.639 23.64 217.556 23.64C218.772 23.64 219.743 23.928 220.468 24.504C221.193 25.08 221.556 25.864 221.556 26.856C221.556 27.464 221.428 28.0347 221.172 28.568C220.916 29.1013 220.425 29.7093 219.7 30.392L216.708 33.24H221.988ZM227.814 35.16C226.918 35.16 226.118 34.936 225.414 34.488C224.71 34.0293 224.155 33.368 223.75 32.504C223.344 31.6293 223.142 30.5947 223.142 29.4C223.142 28.2053 223.344 27.176 223.75 26.312C224.155 25.4373 224.71 24.776 225.414 24.328C226.118 23.8693 226.918 23.64 227.814 23.64C228.71 23.64 229.51 23.8693 230.214 24.328C230.928 24.776 231.488 25.4373 231.894 26.312C232.299 27.176 232.502 28.2053 232.502 29.4C232.502 30.5947 232.299 31.6293 231.894 32.504C231.488 33.368 230.928 34.0293 230.214 34.488C229.51 34.936 228.71 35.16 227.814 35.16ZM227.814 33.352C228.614 33.352 229.243 33.0213 229.702 32.36C230.171 31.6987 230.406 30.712 230.406 29.4C230.406 28.088 230.171 27.1013 229.702 26.44C229.243 25.7787 228.614 25.448 227.814 25.448C227.024 25.448 226.395 25.7787 225.926 26.44C225.467 27.1013 225.238 28.088 225.238 29.4C225.238 30.712 225.467 31.6987 225.926 32.36C226.395 33.0213 227.024 33.352 227.814 33.352ZM241.941 33.24V35H233.685V33.608L238.133 29.384C238.634 28.904 238.97 28.488 239.141 28.136C239.322 27.7733 239.413 27.416 239.413 27.064C239.413 26.5413 239.237 26.1413 238.885 25.864C238.533 25.5867 238.016 25.448 237.333 25.448C236.192 25.448 235.317 25.8373 234.709 26.616L233.253 25.496C233.69 24.9093 234.277 24.456 235.013 24.136C235.76 23.8053 236.592 23.64 237.509 23.64C238.725 23.64 239.696 23.928 240.421 24.504C241.146 25.08 241.509 25.864 241.509 26.856C241.509 27.464 241.381 28.0347 241.125 28.568C240.869 29.1013 240.378 29.7093 239.653 30.392L236.661 33.24H241.941ZM247.91 28.424C248.944 28.552 249.734 28.904 250.278 29.48C250.822 30.056 251.094 30.776 251.094 31.64C251.094 32.2907 250.928 32.8827 250.598 33.416C250.267 33.9493 249.766 34.376 249.094 34.696C248.432 35.0053 247.622 35.16 246.661 35.16C245.862 35.16 245.088 35.048 244.342 34.824C243.606 34.5893 242.976 34.2693 242.454 33.864L243.35 32.248C243.755 32.5893 244.246 32.8613 244.822 33.064C245.408 33.256 246.011 33.352 246.63 33.352C247.366 33.352 247.942 33.2027 248.358 32.904C248.784 32.5947 248.998 32.1787 248.998 31.656C248.998 31.1333 248.795 30.728 248.39 30.44C247.995 30.1413 247.387 29.992 246.566 29.992H245.542V28.568L248.086 25.544H242.998V23.8H250.63V25.192L247.91 28.424Z" fill="black"/>
<rect x="150" y="417" width="98" height="43" rx="21.5" fill="#EE7839"/>
<path d="M176.035 444L173.921 440.99C173.659 441.009 173.454 441.018 173.305 441.018H170.883V444H169.483V434.2H173.305C174.574 434.2 175.573 434.503 176.301 435.11C177.029 435.717 177.393 436.552 177.393 437.616C177.393 438.372 177.206 439.016 176.833 439.548C176.459 440.08 175.927 440.467 175.237 440.71L177.561 444H176.035ZM173.263 439.828C174.149 439.828 174.826 439.637 175.293 439.254C175.759 438.871 175.993 438.325 175.993 437.616C175.993 436.907 175.759 436.365 175.293 435.992C174.826 435.609 174.149 435.418 173.263 435.418H170.883V439.828H173.263ZM186.165 440.332C186.165 440.435 186.155 440.57 186.137 440.738H180.117C180.201 441.391 180.485 441.919 180.971 442.32C181.465 442.712 182.077 442.908 182.805 442.908C183.691 442.908 184.405 442.609 184.947 442.012L185.689 442.88C185.353 443.272 184.933 443.571 184.429 443.776C183.934 443.981 183.379 444.084 182.763 444.084C181.979 444.084 181.283 443.925 180.677 443.608C180.07 443.281 179.599 442.829 179.263 442.25C178.936 441.671 178.773 441.018 178.773 440.29C178.773 439.571 178.931 438.923 179.249 438.344C179.575 437.765 180.019 437.317 180.579 437C181.148 436.673 181.787 436.51 182.497 436.51C183.206 436.51 183.836 436.673 184.387 437C184.947 437.317 185.381 437.765 185.689 438.344C186.006 438.923 186.165 439.585 186.165 440.332ZM182.497 437.644C181.853 437.644 181.311 437.84 180.873 438.232C180.443 438.624 180.191 439.137 180.117 439.772H184.877C184.802 439.147 184.545 438.638 184.107 438.246C183.677 437.845 183.141 437.644 182.497 437.644ZM190.159 444.084C189.552 444.084 188.969 444.005 188.409 443.846C187.849 443.678 187.41 443.468 187.093 443.216L187.653 442.152C187.98 442.385 188.376 442.572 188.843 442.712C189.31 442.852 189.781 442.922 190.257 442.922C191.433 442.922 192.021 442.586 192.021 441.914C192.021 441.69 191.942 441.513 191.783 441.382C191.624 441.251 191.424 441.158 191.181 441.102C190.948 441.037 190.612 440.967 190.173 440.892C189.576 440.799 189.086 440.691 188.703 440.57C188.33 440.449 188.008 440.243 187.737 439.954C187.466 439.665 187.331 439.259 187.331 438.736C187.331 438.064 187.611 437.527 188.171 437.126C188.731 436.715 189.482 436.51 190.425 436.51C190.92 436.51 191.414 436.571 191.909 436.692C192.404 436.813 192.81 436.977 193.127 437.182L192.553 438.246C191.946 437.854 191.232 437.658 190.411 437.658C189.842 437.658 189.408 437.751 189.109 437.938C188.81 438.125 188.661 438.372 188.661 438.68C188.661 438.923 188.745 439.114 188.913 439.254C189.081 439.394 189.286 439.497 189.529 439.562C189.781 439.627 190.131 439.702 190.579 439.786C191.176 439.889 191.657 440.001 192.021 440.122C192.394 440.234 192.712 440.43 192.973 440.71C193.234 440.99 193.365 441.382 193.365 441.886C193.365 442.558 193.076 443.095 192.497 443.496C191.928 443.888 191.148 444.084 190.159 444.084ZM201.751 440.332C201.751 440.435 201.741 440.57 201.723 440.738H195.703C195.787 441.391 196.071 441.919 196.557 442.32C197.051 442.712 197.663 442.908 198.391 442.908C199.277 442.908 199.991 442.609 200.533 442.012L201.275 442.88C200.939 443.272 200.519 443.571 200.015 443.776C199.52 443.981 198.965 444.084 198.349 444.084C197.565 444.084 196.869 443.925 196.263 443.608C195.656 443.281 195.185 442.829 194.849 442.25C194.522 441.671 194.359 441.018 194.359 440.29C194.359 439.571 194.517 438.923 194.835 438.344C195.161 437.765 195.605 437.317 196.165 437C196.734 436.673 197.373 436.51 198.083 436.51C198.792 436.51 199.422 436.673 199.973 437C200.533 437.317 200.967 437.765 201.275 438.344C201.592 438.923 201.751 439.585 201.751 440.332ZM198.083 437.644C197.439 437.644 196.897 437.84 196.459 438.232C196.029 438.624 195.777 439.137 195.703 439.772H200.463C200.388 439.147 200.131 438.638 199.693 438.246C199.263 437.845 198.727 437.644 198.083 437.644ZM204.905 437.826C205.138 437.397 205.483 437.07 205.941 436.846C206.398 436.622 206.953 436.51 207.607 436.51V437.812C207.532 437.803 207.429 437.798 207.299 437.798C206.571 437.798 205.997 438.017 205.577 438.456C205.166 438.885 204.961 439.501 204.961 440.304V444H203.617V436.58H204.905V437.826ZM216.13 436.58L212.882 444H211.51L208.262 436.58H209.662L212.21 442.53L214.814 436.58H216.13ZM219.854 436.51C220.881 436.51 221.665 436.762 222.206 437.266C222.757 437.77 223.032 438.521 223.032 439.52V444H221.758V443.02C221.534 443.365 221.212 443.631 220.792 443.818C220.381 443.995 219.891 444.084 219.322 444.084C218.491 444.084 217.824 443.883 217.32 443.482C216.825 443.081 216.578 442.553 216.578 441.9C216.578 441.247 216.816 440.724 217.292 440.332C217.768 439.931 218.524 439.73 219.56 439.73H221.688V439.464C221.688 438.885 221.52 438.442 221.184 438.134C220.848 437.826 220.353 437.672 219.7 437.672C219.261 437.672 218.832 437.747 218.412 437.896C217.992 438.036 217.637 438.227 217.348 438.47L216.788 437.462C217.171 437.154 217.628 436.921 218.16 436.762C218.692 436.594 219.257 436.51 219.854 436.51ZM219.546 443.048C220.059 443.048 220.503 442.936 220.876 442.712C221.249 442.479 221.52 442.152 221.688 441.732V440.696H219.616C218.477 440.696 217.908 441.079 217.908 441.844C217.908 442.217 218.053 442.511 218.342 442.726C218.631 442.941 219.033 443.048 219.546 443.048ZM226.807 437.826C227.04 437.397 227.386 437.07 227.843 436.846C228.3 436.622 228.856 436.51 229.509 436.51V437.812C229.434 437.803 229.332 437.798 229.201 437.798C228.473 437.798 227.899 438.017 227.479 438.456C227.068 438.885 226.863 439.501 226.863 440.304V444H225.519V436.58H226.807V437.826Z" fill="#FDFDFD"/>
<defs>
<filter id="filter0_d_325_16134" x="0" y="0" width="398" height="577" filterUnits="userSpaceOnUse" color-interpolation-filters="sRGB">
<feFlood flood-opacity="0" result="BackgroundImageFix"/>
<feColorMatrix in="SourceAlpha" type="matrix" values="0 0 0 0 0 0 0 0 0 0 0 0 0 0 0 0 0 0 127 0" result="hardAlpha"/>
<feOffset/>
<feGaussianBlur stdDeviation="2"/>
<feComposite in2="hardAlpha" operator="out"/>
<feColorMatrix type="matrix" values="0 0 0 0 0 0 0 0 0 0 0 0 0 0 0 0 0 0 0.15 0"/>
<feBlend mode="normal" in2="BackgroundImageFix" result="effect1_dropShadow_325_16134"/>
<feBlend mode="normal" in="SourceGraphic" in2="effect1_dropShadow_325_16134" result="shape"/>
</filter>
</defs>
</svg>
