<svg width="398" height="577" viewBox="0 0 398 577" fill="none" xmlns="http://www.w3.org/2000/svg">
<g filter="url(#filter0_d_325_16136)">
<path d="M4 31.5C4 16.3122 16.3122 4 31.5 4H366.5C381.688 4 394 16.3122 394 31.5V573H4V31.5Z" fill="#F7F7F7"/>
</g>
<path d="M159.281 36.12C158.908 36.5573 158.47 36.888 157.969 37.112C157.478 37.336 156.94 37.448 156.353 37.448C155.585 37.448 154.881 37.272 154.241 36.92C153.601 36.5787 152.87 35.9813 152.049 35.128C151.014 35.0427 150.086 34.744 149.265 34.232C148.444 33.7093 147.804 33.032 147.345 32.2C146.886 31.3573 146.657 30.424 146.657 29.4C146.657 28.312 146.918 27.3307 147.441 26.456C147.964 25.5707 148.684 24.8827 149.601 24.392C150.518 23.8907 151.548 23.64 152.689 23.64C153.83 23.64 154.86 23.8907 155.777 24.392C156.694 24.8827 157.414 25.5653 157.937 26.44C158.46 27.3147 158.721 28.3013 158.721 29.4C158.721 30.2853 158.545 31.1067 158.193 31.864C157.841 32.6107 157.35 33.2507 156.721 33.784C156.092 34.3067 155.361 34.6853 154.529 34.92C154.838 35.2507 155.142 35.4907 155.441 35.64C155.74 35.7893 156.06 35.864 156.401 35.864C157.137 35.864 157.777 35.5653 158.321 34.968L159.281 36.12ZM148.753 29.4C148.753 30.1467 148.924 30.824 149.265 31.432C149.606 32.0293 150.076 32.4987 150.673 32.84C151.27 33.1707 151.942 33.336 152.689 33.336C153.436 33.336 154.108 33.1707 154.705 32.84C155.302 32.4987 155.772 32.0293 156.113 31.432C156.454 30.824 156.625 30.1467 156.625 29.4C156.625 28.6533 156.454 27.9813 156.113 27.384C155.772 26.776 155.302 26.3067 154.705 25.976C154.108 25.6347 153.436 25.464 152.689 25.464C151.942 25.464 151.27 25.6347 150.673 25.976C150.076 26.3067 149.606 26.776 149.265 27.384C148.924 27.9813 148.753 28.6533 148.753 29.4ZM169.006 26.456V35H167.102V33.912C166.782 34.296 166.382 34.5947 165.902 34.808C165.422 35.0107 164.905 35.112 164.35 35.112C163.209 35.112 162.307 34.7973 161.646 34.168C160.995 33.528 160.67 32.584 160.67 31.336V26.456H162.67V31.064C162.67 31.832 162.841 32.408 163.182 32.792C163.534 33.1653 164.03 33.352 164.67 33.352C165.385 33.352 165.95 33.1333 166.366 32.696C166.793 32.248 167.006 31.608 167.006 30.776V26.456H169.006ZM179.657 30.776C179.657 30.9147 179.646 31.112 179.625 31.368H172.921C173.038 31.9973 173.342 32.4987 173.833 32.872C174.334 33.2347 174.953 33.416 175.689 33.416C176.627 33.416 177.401 33.1067 178.009 32.488L179.081 33.72C178.697 34.1787 178.211 34.5253 177.625 34.76C177.038 34.9947 176.377 35.112 175.641 35.112C174.702 35.112 173.875 34.9253 173.161 34.552C172.446 34.1787 171.891 33.6613 171.497 33C171.113 32.328 170.921 31.5707 170.921 30.728C170.921 29.896 171.107 29.1493 171.481 28.488C171.865 27.816 172.393 27.2933 173.065 26.92C173.737 26.5467 174.494 26.36 175.337 26.36C176.169 26.36 176.91 26.5467 177.561 26.92C178.222 27.2827 178.734 27.8 179.097 28.472C179.47 29.1333 179.657 29.9013 179.657 30.776ZM175.337 27.96C174.697 27.96 174.153 28.152 173.705 28.536C173.267 28.9093 173.001 29.4107 172.905 30.04H177.753C177.667 29.4213 177.406 28.92 176.969 28.536C176.531 28.152 175.987 27.96 175.337 27.96ZM172.121 23.096H174.473L176.633 25.288H174.905L172.121 23.096ZM190.736 26.36C191.568 26.36 192.309 26.5413 192.96 26.904C193.621 27.2667 194.138 27.7787 194.512 28.44C194.885 29.1013 195.072 29.864 195.072 30.728C195.072 31.592 194.885 32.36 194.512 33.032C194.138 33.6933 193.621 34.2053 192.96 34.568C192.309 34.9307 191.568 35.112 190.736 35.112C189.584 35.112 188.672 34.728 188 33.96V38.104H186V26.456H187.904V27.576C188.234 27.1707 188.64 26.8667 189.12 26.664C189.61 26.4613 190.149 26.36 190.736 26.36ZM190.512 33.4C191.248 33.4 191.85 33.1547 192.32 32.664C192.8 32.1733 193.04 31.528 193.04 30.728C193.04 29.928 192.8 29.2827 192.32 28.792C191.85 28.3013 191.248 28.056 190.512 28.056C190.032 28.056 189.6 28.168 189.216 28.392C188.832 28.6053 188.528 28.9147 188.304 29.32C188.08 29.7253 187.968 30.1947 187.968 30.728C187.968 31.2613 188.08 31.7307 188.304 32.136C188.528 32.5413 188.832 32.856 189.216 33.08C189.6 33.2933 190.032 33.4 190.512 33.4ZM205 30.776C205 30.9147 204.99 31.112 204.968 31.368H198.264C198.382 31.9973 198.686 32.4987 199.176 32.872C199.678 33.2347 200.296 33.416 201.032 33.416C201.971 33.416 202.744 33.1067 203.352 32.488L204.424 33.72C204.04 34.1787 203.555 34.5253 202.968 34.76C202.382 34.9947 201.72 35.112 200.984 35.112C200.046 35.112 199.219 34.9253 198.504 34.552C197.79 34.1787 197.235 33.6613 196.84 33C196.456 32.328 196.264 31.5707 196.264 30.728C196.264 29.896 196.451 29.1493 196.824 28.488C197.208 27.816 197.736 27.2933 198.408 26.92C199.08 26.5467 199.838 26.36 200.68 26.36C201.512 26.36 202.254 26.5467 202.904 26.92C203.566 27.2827 204.078 27.8 204.44 28.472C204.814 29.1333 205 29.9013 205 30.776ZM200.68 27.96C200.04 27.96 199.496 28.152 199.048 28.536C198.611 28.9093 198.344 29.4107 198.248 30.04H203.096C203.011 29.4213 202.75 28.92 202.312 28.536C201.875 28.152 201.331 27.96 200.68 27.96ZM211.769 26.36C212.847 26.36 213.711 26.6747 214.361 27.304C215.012 27.9333 215.337 28.8667 215.337 30.104V35H213.337V30.36C213.337 29.6133 213.161 29.0533 212.809 28.68C212.457 28.296 211.956 28.104 211.305 28.104C210.569 28.104 209.988 28.328 209.561 28.776C209.135 29.2133 208.921 29.848 208.921 30.68V35H206.921V26.456H208.825V27.56C209.156 27.1653 209.572 26.8667 210.073 26.664C210.575 26.4613 211.14 26.36 211.769 26.36ZM220.515 35.112C219.821 35.112 219.144 35.0213 218.483 34.84C217.821 34.6587 217.293 34.4293 216.899 34.152L217.667 32.632C218.051 32.888 218.509 33.096 219.043 33.256C219.587 33.4053 220.12 33.48 220.643 33.48C221.837 33.48 222.435 33.1653 222.435 32.536C222.435 32.2373 222.28 32.0293 221.971 31.912C221.672 31.7947 221.187 31.6827 220.515 31.576C219.811 31.4693 219.235 31.3467 218.787 31.208C218.349 31.0693 217.965 30.8293 217.635 30.488C217.315 30.136 217.155 29.6507 217.155 29.032C217.155 28.2213 217.491 27.576 218.163 27.096C218.845 26.6053 219.763 26.36 220.915 26.36C221.501 26.36 222.088 26.4293 222.675 26.568C223.261 26.696 223.741 26.872 224.115 27.096L223.347 28.616C222.621 28.1893 221.805 27.976 220.899 27.976C220.312 27.976 219.864 28.0667 219.555 28.248C219.256 28.4187 219.107 28.648 219.107 28.936C219.107 29.256 219.267 29.4853 219.587 29.624C219.917 29.752 220.424 29.8747 221.107 29.992C221.789 30.0987 222.349 30.2213 222.787 30.36C223.224 30.4987 223.597 30.7333 223.907 31.064C224.227 31.3947 224.387 31.864 224.387 32.472C224.387 33.272 224.04 33.912 223.347 34.392C222.653 34.872 221.709 35.112 220.515 35.112ZM234.141 30.776C234.141 30.9147 234.13 31.112 234.109 31.368H227.405C227.522 31.9973 227.826 32.4987 228.317 32.872C228.818 33.2347 229.437 33.416 230.173 33.416C231.112 33.416 231.885 33.1067 232.493 32.488L233.565 33.72C233.181 34.1787 232.696 34.5253 232.109 34.76C231.522 34.9947 230.861 35.112 230.125 35.112C229.186 35.112 228.36 34.9253 227.645 34.552C226.93 34.1787 226.376 33.6613 225.981 33C225.597 32.328 225.405 31.5707 225.405 30.728C225.405 29.896 225.592 29.1493 225.965 28.488C226.349 27.816 226.877 27.2933 227.549 26.92C228.221 26.5467 228.978 26.36 229.821 26.36C230.653 26.36 231.394 26.5467 232.045 26.92C232.706 27.2827 233.218 27.8 233.581 28.472C233.954 29.1333 234.141 29.9013 234.141 30.776ZM229.821 27.96C229.181 27.96 228.637 28.152 228.189 28.536C227.752 28.9093 227.485 29.4107 227.389 30.04H232.237C232.152 29.4213 231.89 28.92 231.453 28.536C231.016 28.152 230.472 27.96 229.821 27.96ZM238.702 35.112C238.009 35.112 237.331 35.0213 236.67 34.84C236.009 34.6587 235.481 34.4293 235.086 34.152L235.854 32.632C236.238 32.888 236.697 33.096 237.23 33.256C237.774 33.4053 238.307 33.48 238.83 33.48C240.025 33.48 240.622 33.1653 240.622 32.536C240.622 32.2373 240.467 32.0293 240.158 31.912C239.859 31.7947 239.374 31.6827 238.702 31.576C237.998 31.4693 237.422 31.3467 236.974 31.208C236.537 31.0693 236.153 30.8293 235.822 30.488C235.502 30.136 235.342 29.6507 235.342 29.032C235.342 28.2213 235.678 27.576 236.35 27.096C237.033 26.6053 237.95 26.36 239.102 26.36C239.689 26.36 240.275 26.4293 240.862 26.568C241.449 26.696 241.929 26.872 242.302 27.096L241.534 28.616C240.809 28.1893 239.993 27.976 239.086 27.976C238.499 27.976 238.051 28.0667 237.742 28.248C237.443 28.4187 237.294 28.648 237.294 28.936C237.294 29.256 237.454 29.4853 237.774 29.624C238.105 29.752 238.611 29.8747 239.294 29.992C239.977 30.0987 240.537 30.2213 240.974 30.36C241.411 30.4987 241.785 30.7333 242.094 31.064C242.414 31.3947 242.574 31.864 242.574 32.472C242.574 33.272 242.227 33.912 241.534 34.392C240.841 34.872 239.897 35.112 238.702 35.112ZM246.302 31.288C246.302 30.712 246.43 30.2373 246.686 29.864C246.953 29.48 247.337 29.064 247.838 28.616C248.222 28.2747 248.505 27.9813 248.686 27.736C248.878 27.48 248.974 27.192 248.974 26.872C248.974 26.424 248.793 26.0613 248.43 25.784C248.067 25.5067 247.582 25.368 246.974 25.368C245.822 25.368 244.953 25.7787 244.366 26.6L242.814 25.592C243.273 24.9627 243.865 24.4827 244.59 24.152C245.315 23.8107 246.169 23.64 247.15 23.64C248.345 23.64 249.294 23.9013 249.998 24.424C250.713 24.936 251.07 25.6453 251.07 26.552C251.07 26.9893 250.995 27.3733 250.846 27.704C250.707 28.0347 250.537 28.3173 250.334 28.552C250.131 28.776 249.865 29.0373 249.534 29.336C249.129 29.6987 248.825 30.0187 248.622 30.296C248.43 30.5733 248.334 30.904 248.334 31.288H246.302ZM247.326 35.112C246.953 35.112 246.643 34.9947 246.398 34.76C246.163 34.5147 246.046 34.216 246.046 33.864C246.046 33.512 246.163 33.2187 246.398 32.984C246.643 32.7493 246.953 32.632 247.326 32.632C247.689 32.632 247.987 32.7493 248.222 32.984C248.467 33.2187 248.59 33.512 248.59 33.864C248.59 34.216 248.467 34.5147 248.222 34.76C247.987 34.9947 247.689 35.112 247.326 35.112Z" fill="black"/>
<rect x="57" y="226" width="98" height="43" rx="21.5" fill="#E3655D"/>
<path d="M77.0913 253.112C76.1113 253.112 75.2246 252.897 74.4313 252.468C73.6473 252.029 73.0313 251.432 72.5833 250.676C72.1353 249.911 71.9113 249.052 71.9113 248.1C71.9113 247.148 72.1353 246.294 72.5833 245.538C73.0313 244.773 73.6519 244.175 74.4453 243.746C75.2386 243.307 76.1253 243.088 77.1053 243.088C77.8706 243.088 78.5706 243.219 79.2053 243.48C79.8399 243.732 80.3813 244.11 80.8293 244.614L79.9193 245.496C79.1819 244.721 78.2626 244.334 77.1613 244.334C76.4333 244.334 75.7753 244.497 75.1873 244.824C74.5993 245.151 74.1373 245.603 73.8013 246.182C73.4746 246.751 73.3113 247.391 73.3113 248.1C73.3113 248.809 73.4746 249.453 73.8013 250.032C74.1373 250.601 74.5993 251.049 75.1873 251.376C75.7753 251.703 76.4333 251.866 77.1613 251.866C78.2533 251.866 79.1726 251.474 79.9193 250.69L80.8293 251.572C80.3813 252.076 79.8353 252.459 79.1913 252.72C78.5566 252.981 77.8566 253.112 77.0913 253.112ZM85.2367 245.51C86.2634 245.51 87.0474 245.762 87.5887 246.266C88.1394 246.77 88.4147 247.521 88.4147 248.52V253H87.1407V252.02C86.9167 252.365 86.5947 252.631 86.1747 252.818C85.7641 252.995 85.2741 253.084 84.7047 253.084C83.8741 253.084 83.2067 252.883 82.7027 252.482C82.2081 252.081 81.9607 251.553 81.9607 250.9C81.9607 250.247 82.1987 249.724 82.6747 249.332C83.1507 248.931 83.9067 248.73 84.9427 248.73H87.0707V248.464C87.0707 247.885 86.9027 247.442 86.5667 247.134C86.2307 246.826 85.7361 246.672 85.0827 246.672C84.6441 246.672 84.2147 246.747 83.7947 246.896C83.3747 247.036 83.0201 247.227 82.7307 247.47L82.1707 246.462C82.5534 246.154 83.0107 245.921 83.5427 245.762C84.0747 245.594 84.6394 245.51 85.2367 245.51ZM84.9287 252.048C85.4421 252.048 85.8854 251.936 86.2587 251.712C86.6321 251.479 86.9027 251.152 87.0707 250.732V249.696H84.9987C83.8601 249.696 83.2907 250.079 83.2907 250.844C83.2907 251.217 83.4354 251.511 83.7247 251.726C84.0141 251.941 84.4154 252.048 84.9287 252.048ZM94.8639 245.51C95.8066 245.51 96.5533 245.785 97.1039 246.336C97.6639 246.877 97.9439 247.675 97.9439 248.73V253H96.5999V248.884C96.5999 248.165 96.4273 247.624 96.0819 247.26C95.7366 246.896 95.2419 246.714 94.5979 246.714C93.8699 246.714 93.2959 246.929 92.8759 247.358C92.4559 247.778 92.2459 248.385 92.2459 249.178V253H90.9019V245.58H92.1899V246.7C92.4606 246.317 92.8246 246.023 93.2819 245.818C93.7486 245.613 94.2759 245.51 94.8639 245.51ZM103.706 253.084C102.95 253.084 102.274 252.921 101.676 252.594C101.088 252.267 100.626 251.819 100.29 251.25C99.9542 250.671 99.7862 250.018 99.7862 249.29C99.7862 248.562 99.9542 247.913 100.29 247.344C100.626 246.765 101.088 246.317 101.676 246C102.274 245.673 102.95 245.51 103.706 245.51C104.378 245.51 104.976 245.645 105.498 245.916C106.03 246.187 106.441 246.579 106.73 247.092L105.708 247.75C105.475 247.395 105.186 247.129 104.84 246.952C104.495 246.775 104.112 246.686 103.692 246.686C103.207 246.686 102.768 246.793 102.376 247.008C101.994 247.223 101.69 247.531 101.466 247.932C101.252 248.324 101.144 248.777 101.144 249.29C101.144 249.813 101.252 250.275 101.466 250.676C101.69 251.068 101.994 251.371 102.376 251.586C102.768 251.801 103.207 251.908 103.692 251.908C104.112 251.908 104.495 251.819 104.84 251.642C105.186 251.465 105.475 251.199 105.708 250.844L106.73 251.488C106.441 252.001 106.03 252.398 105.498 252.678C104.976 252.949 104.378 253.084 103.706 253.084ZM115.067 249.332C115.067 249.435 115.058 249.57 115.039 249.738H109.019C109.103 250.391 109.388 250.919 109.873 251.32C110.368 251.712 110.979 251.908 111.707 251.908C112.594 251.908 113.308 251.609 113.849 251.012L114.591 251.88C114.255 252.272 113.835 252.571 113.331 252.776C112.836 252.981 112.281 253.084 111.665 253.084C110.881 253.084 110.186 252.925 109.579 252.608C108.972 252.281 108.501 251.829 108.165 251.25C107.838 250.671 107.675 250.018 107.675 249.29C107.675 248.571 107.834 247.923 108.151 247.344C108.478 246.765 108.921 246.317 109.481 246C110.05 245.673 110.69 245.51 111.399 245.51C112.108 245.51 112.738 245.673 113.289 246C113.849 246.317 114.283 246.765 114.591 247.344C114.908 247.923 115.067 248.585 115.067 249.332ZM111.399 246.644C110.755 246.644 110.214 246.84 109.775 247.232C109.346 247.624 109.094 248.137 109.019 248.772H113.779C113.704 248.147 113.448 247.638 113.009 247.246C112.58 246.845 112.043 246.644 111.399 246.644ZM116.933 242.612H118.277V253H116.933V242.612ZM121.165 253.084C120.904 253.084 120.68 252.995 120.493 252.818C120.307 252.631 120.213 252.398 120.213 252.118C120.213 251.847 120.307 251.623 120.493 251.446C120.68 251.259 120.904 251.166 121.165 251.166C121.427 251.166 121.646 251.255 121.823 251.432C122.001 251.609 122.089 251.838 122.089 252.118C122.089 252.398 121.996 252.631 121.809 252.818C121.632 252.995 121.417 253.084 121.165 253.084ZM124.015 242.612H125.359V253H124.015V242.612ZM130.627 245.51C131.654 245.51 132.438 245.762 132.979 246.266C133.53 246.77 133.805 247.521 133.805 248.52V253H132.531V252.02C132.307 252.365 131.985 252.631 131.565 252.818C131.155 252.995 130.665 253.084 130.095 253.084C129.265 253.084 128.597 252.883 128.093 252.482C127.599 252.081 127.351 251.553 127.351 250.9C127.351 250.247 127.589 249.724 128.065 249.332C128.541 248.931 129.297 248.73 130.333 248.73H132.461V248.464C132.461 247.885 132.293 247.442 131.957 247.134C131.621 246.826 131.127 246.672 130.473 246.672C130.035 246.672 129.605 246.747 129.185 246.896C128.765 247.036 128.411 247.227 128.121 247.47L127.561 246.462C127.944 246.154 128.401 245.921 128.933 245.762C129.465 245.594 130.03 245.51 130.627 245.51ZM130.319 252.048C130.833 252.048 131.276 251.936 131.649 251.712C132.023 251.479 132.293 251.152 132.461 250.732V249.696H130.389C129.251 249.696 128.681 250.079 128.681 250.844C128.681 251.217 128.826 251.511 129.115 251.726C129.405 251.941 129.806 252.048 130.319 252.048ZM137.581 246.826C137.814 246.397 138.159 246.07 138.617 245.846C139.074 245.622 139.629 245.51 140.283 245.51V246.812C140.208 246.803 140.105 246.798 139.975 246.798C139.247 246.798 138.673 247.017 138.253 247.456C137.842 247.885 137.637 248.501 137.637 249.304V253H136.293V245.58H137.581V246.826Z" fill="#FDFDFD"/>
<rect x="242" y="226" width="98" height="43" rx="21.5" fill="#35B549"/>
<path d="M266.768 243.2C268.037 243.2 269.036 243.503 269.764 244.11C270.492 244.717 270.856 245.552 270.856 246.616C270.856 247.68 270.492 248.515 269.764 249.122C269.036 249.729 268.037 250.032 266.768 250.032H264.346V253H262.946V243.2H266.768ZM266.726 248.814C267.612 248.814 268.289 248.627 268.756 248.254C269.222 247.871 269.456 247.325 269.456 246.616C269.456 245.907 269.222 245.365 268.756 244.992C268.289 244.609 267.612 244.418 266.726 244.418H264.346V248.814H266.726ZM279.769 245.58V253H278.495V251.88C278.224 252.263 277.865 252.561 277.417 252.776C276.978 252.981 276.498 253.084 275.975 253.084C274.986 253.084 274.206 252.813 273.637 252.272C273.068 251.721 272.783 250.914 272.783 249.85V245.58H274.127V249.696C274.127 250.415 274.3 250.961 274.645 251.334C274.99 251.698 275.485 251.88 276.129 251.88C276.838 251.88 277.398 251.665 277.809 251.236C278.22 250.807 278.425 250.2 278.425 249.416V245.58H279.769ZM286.262 245.51C286.98 245.51 287.624 245.669 288.194 245.986C288.763 246.303 289.206 246.747 289.524 247.316C289.85 247.885 290.014 248.543 290.014 249.29C290.014 250.037 289.85 250.699 289.524 251.278C289.206 251.847 288.763 252.291 288.194 252.608C287.624 252.925 286.98 253.084 286.262 253.084C285.711 253.084 285.207 252.977 284.75 252.762C284.292 252.547 283.914 252.235 283.616 251.824V253H282.328V242.612H283.672V246.7C283.97 246.308 284.344 246.014 284.792 245.818C285.24 245.613 285.73 245.51 286.262 245.51ZM286.15 251.908C286.626 251.908 287.05 251.801 287.424 251.586C287.806 251.362 288.105 251.054 288.32 250.662C288.544 250.261 288.656 249.803 288.656 249.29C288.656 248.777 288.544 248.324 288.32 247.932C288.105 247.531 287.806 247.223 287.424 247.008C287.05 246.793 286.626 246.686 286.15 246.686C285.683 246.686 285.258 246.793 284.876 247.008C284.493 247.223 284.194 247.531 283.98 247.932C283.765 248.324 283.658 248.777 283.658 249.29C283.658 249.803 283.765 250.261 283.98 250.662C284.194 251.054 284.493 251.362 284.876 251.586C285.258 251.801 285.683 251.908 286.15 251.908ZM291.871 242.612H293.215V253H291.871V242.612ZM295.781 245.58H297.125V253H295.781V245.58ZM296.453 244.152C296.192 244.152 295.972 244.068 295.795 243.9C295.627 243.732 295.543 243.527 295.543 243.284C295.543 243.041 295.627 242.836 295.795 242.668C295.972 242.491 296.192 242.402 296.453 242.402C296.714 242.402 296.929 242.486 297.097 242.654C297.274 242.813 297.363 243.013 297.363 243.256C297.363 243.508 297.274 243.723 297.097 243.9C296.929 244.068 296.714 244.152 296.453 244.152ZM302.925 253.084C302.169 253.084 301.492 252.921 300.895 252.594C300.307 252.267 299.845 251.819 299.509 251.25C299.173 250.671 299.005 250.018 299.005 249.29C299.005 248.562 299.173 247.913 299.509 247.344C299.845 246.765 300.307 246.317 300.895 246C301.492 245.673 302.169 245.51 302.925 245.51C303.597 245.51 304.194 245.645 304.717 245.916C305.249 246.187 305.66 246.579 305.949 247.092L304.927 247.75C304.694 247.395 304.404 247.129 304.059 246.952C303.714 246.775 303.331 246.686 302.911 246.686C302.426 246.686 301.987 246.793 301.595 247.008C301.212 247.223 300.909 247.531 300.685 247.932C300.47 248.324 300.363 248.777 300.363 249.29C300.363 249.813 300.47 250.275 300.685 250.676C300.909 251.068 301.212 251.371 301.595 251.586C301.987 251.801 302.426 251.908 302.911 251.908C303.331 251.908 303.714 251.819 304.059 251.642C304.404 251.465 304.694 251.199 304.927 250.844L305.949 251.488C305.66 252.001 305.249 252.398 304.717 252.678C304.194 252.949 303.597 253.084 302.925 253.084ZM310.391 245.51C311.418 245.51 312.202 245.762 312.743 246.266C313.294 246.77 313.569 247.521 313.569 248.52V253H312.295V252.02C312.071 252.365 311.749 252.631 311.329 252.818C310.918 252.995 310.428 253.084 309.859 253.084C309.028 253.084 308.361 252.883 307.857 252.482C307.362 252.081 307.115 251.553 307.115 250.9C307.115 250.247 307.353 249.724 307.829 249.332C308.305 248.931 309.061 248.73 310.097 248.73H312.225V248.464C312.225 247.885 312.057 247.442 311.721 247.134C311.385 246.826 310.89 246.672 310.237 246.672C309.798 246.672 309.369 246.747 308.949 246.896C308.529 247.036 308.174 247.227 307.885 247.47L307.325 246.462C307.708 246.154 308.165 245.921 308.697 245.762C309.229 245.594 309.794 245.51 310.391 245.51ZM310.083 252.048C310.596 252.048 311.04 251.936 311.413 251.712C311.786 251.479 312.057 251.152 312.225 250.732V249.696H310.153C309.014 249.696 308.445 250.079 308.445 250.844C308.445 251.217 308.59 251.511 308.879 251.726C309.168 251.941 309.57 252.048 310.083 252.048ZM317.344 246.826C317.578 246.397 317.923 246.07 318.38 245.846C318.838 245.622 319.393 245.51 320.046 245.51V246.812C319.972 246.803 319.869 246.798 319.738 246.798C319.01 246.798 318.436 247.017 318.016 247.456C317.606 247.885 317.4 248.501 317.4 249.304V253H316.056V245.58H317.344V246.826Z" fill="#FDFDFD"/>
<g clip-path="url(#clip0_325_16136)" filter="url(#filter1_b_325_16136)">
<rect width="390" height="218" transform="translate(4 298)" fill="#CED2D9" fill-opacity="0.9"/>
<g filter="url(#filter2_b_325_16136)">
<g filter="url(#filter3_d_325_16136)">
<rect x="62" y="414" width="34" height="43" rx="5" fill="white"/>
<path d="M73.1953 443H82.793V441.699H75.0586V441.559L82.7695 431.562V430.379H73.207V431.68H80.9297V431.82L73.1953 441.828V443Z" fill="black"/>
</g>
<g filter="url(#filter4_d_325_16136)">
<rect x="102" y="414" width="35" height="43" rx="5" fill="white"/>
<path d="M112.703 443H114.461L117.906 437.844H118.047L121.48 443H123.32L118.844 436.59L123.273 430.379H121.504L118.105 435.418H117.953L114.52 430.379H112.68L117.156 436.648L112.703 443Z" fill="black"/>
</g>
<g filter="url(#filter5_d_325_16136)">
<rect x="143" y="414" width="34" height="43" rx="5" fill="white"/>
<path d="M159.328 443.211C162.211 443.211 163.969 441.676 164.461 439.449L164.484 439.355L162.938 439.367L162.914 439.426C162.469 440.949 161.18 441.828 159.316 441.828C156.82 441.828 155.215 439.801 155.215 436.66V436.637C155.215 433.531 156.809 431.551 159.316 431.551C161.25 431.551 162.562 432.617 162.938 434.07L162.949 434.105L164.484 434.094V434.047C164.098 431.832 162.211 430.168 159.316 430.168C155.836 430.168 153.633 432.699 153.633 436.637V436.66C153.633 440.656 155.848 443.211 159.328 443.211Z" fill="black"/>
</g>
<g filter="url(#filter6_d_325_16136)">
<rect x="183" y="414" width="33" height="43" rx="5" fill="white"/>
<path d="M198.18 443H199.82L204.531 430.379H202.879L199.07 441.324H198.93L195.109 430.379H193.469L198.18 443Z" fill="black"/>
</g>
<g filter="url(#filter7_d_325_16136)">
<rect x="222" y="414" width="34" height="43" rx="5" fill="white"/>
<path d="M238.691 443.211C241.879 443.211 244 440.598 244 436.695V436.672C244 432.746 241.891 430.168 238.691 430.168C236.781 430.168 235.152 431.199 234.461 432.828H234.309V425.352H232.762V443H234.309V440.48H234.461C235.188 442.18 236.758 443.211 238.691 443.211ZM238.375 441.828C235.891 441.828 234.285 439.801 234.285 436.695V436.672C234.285 433.566 235.891 431.551 238.375 431.551C240.859 431.551 242.418 433.531 242.418 436.66V436.684C242.418 439.824 240.859 441.828 238.375 441.828Z" fill="black"/>
</g>
<g filter="url(#filter8_d_325_16136)">
<rect x="262" y="414" width="35" height="43" rx="5" fill="white"/>
<path d="M272.996 443H274.543V435.5C274.543 433.121 276.055 431.551 278.281 431.551C280.473 431.551 281.562 432.781 281.562 435.184V443H283.109V434.797C283.109 431.855 281.504 430.168 278.691 430.168C276.723 430.168 275.363 431.07 274.695 432.594H274.543V430.379H272.996V443Z" fill="black"/>
</g>
<g filter="url(#filter9_d_325_16136)">
<rect x="303" y="414" width="34" height="43" rx="5" fill="white"/>
<path d="M310.598 443H312.145V435.254C312.145 433.191 313.551 431.551 315.379 431.551C317.125 431.551 318.273 432.734 318.273 434.551V443H319.82V434.996C319.82 433.039 321.121 431.551 323.066 431.551C324.965 431.551 325.961 432.652 325.961 434.715V443H327.52V434.363C327.52 431.691 326.055 430.168 323.523 430.168C321.707 430.168 320.23 431.141 319.586 432.652H319.434C318.895 431.141 317.629 430.168 315.859 430.168C314.137 430.168 312.836 431.094 312.297 432.605H312.145V430.379H310.598V443Z" fill="black"/>
</g>
<g filter="url(#filter10_d_325_16136)">
<rect x="9" y="360" width="33" height="43" rx="5" fill="white"/>
<path d="M23.3633 389.211C25.2266 389.211 26.7383 388.332 27.4883 386.832H27.6289V389H29.1875V380.375C29.1875 377.715 27.4648 376.168 24.5117 376.168C21.8984 376.168 19.9883 377.457 19.6602 379.473L19.6484 379.52H21.207L21.2188 379.496C21.5469 378.242 22.7539 377.551 24.4648 377.551C26.5039 377.551 27.6289 378.535 27.6289 380.387V381.57L23.6914 381.828C20.7734 382.027 19.1445 383.305 19.1445 385.496V385.52C19.1445 387.77 20.9258 389.211 23.3633 389.211ZM20.7266 385.496V385.473C20.7266 384.043 21.7578 383.234 23.9023 383.094L27.6289 382.836V384.301C27.6289 386.305 25.918 387.852 23.6562 387.852C21.957 387.852 20.7266 386.938 20.7266 385.496Z" fill="black"/>
</g>
<g filter="url(#filter11_d_325_16136)">
<rect x="48" y="360" width="32" height="43" rx="5" fill="white"/>
<path d="M63.5234 389.211C66.2773 389.211 68.3984 387.688 68.3984 385.52V385.496C68.3984 383.68 67.2148 382.695 64.7773 382.109L63.0312 381.699C61.3555 381.301 60.582 380.703 60.582 379.672V379.648C60.582 378.395 61.8828 377.469 63.5352 377.469C65.2109 377.469 66.3828 378.266 66.6641 379.438H68.1875C67.8945 377.445 66.0898 376.168 63.5469 376.168C61.0039 376.168 59 377.68 59 379.719V379.73C59 381.5 60.0898 382.473 62.4336 383.023L64.1914 383.445C66.0312 383.879 66.8164 384.523 66.8164 385.613V385.637C66.8164 386.949 65.4219 387.898 63.5703 387.898C61.7422 387.898 60.5352 387.09 60.1953 385.836H58.6016C58.8594 387.898 60.7695 389.211 63.5234 389.211Z" fill="black"/>
</g>
<g filter="url(#filter12_d_325_16136)">
<rect x="86" y="360" width="33" height="43" rx="5" fill="white"/>
<path d="M100.82 389.211C102.766 389.211 104.324 388.18 105.062 386.48H105.203V389H106.762V371.352H105.203V378.84H105.062C104.359 377.211 102.73 376.168 100.82 376.168C97.6211 376.168 95.4883 378.77 95.4883 382.684V382.707C95.4883 386.598 97.6328 389.211 100.82 389.211ZM101.148 387.828C98.6523 387.828 97.0703 385.824 97.0703 382.695V382.672C97.0703 379.555 98.6523 377.551 101.148 377.551C103.633 377.551 105.238 379.566 105.238 382.672V382.695C105.238 385.812 103.633 387.828 101.148 387.828Z" fill="black"/>
</g>
<g filter="url(#filter13_d_325_16136)">
<rect x="125" y="360" width="33" height="43" rx="5" fill="white"/>
<path d="M139.117 389H140.676V377.68H143.629V376.379H140.676V374.797C140.676 373.332 141.344 372.535 142.797 372.535C143.16 372.535 143.512 372.559 143.746 372.594V371.34C143.359 371.27 142.973 371.234 142.516 371.234C140.312 371.234 139.117 372.418 139.117 374.762V376.379H137.02V377.68H139.117V389Z" fill="black"/>
</g>
<g filter="url(#filter14_d_325_16136)">
<rect x="164" y="360" width="32" height="43" rx="5" fill="white"/>
<path d="M179.324 393.406C182.641 393.406 184.809 391.602 184.809 388.848V376.379H183.25V378.934H183.145C182.418 377.246 180.859 376.168 178.914 376.168C175.656 376.168 173.57 378.746 173.57 382.355V382.379C173.57 386 175.645 388.543 178.891 388.543C180.824 388.543 182.371 387.582 183.121 385.918H183.273V388.742C183.273 390.781 181.762 392.023 179.324 392.023C177.402 392.023 176.09 391.262 175.809 390.16L175.797 390.148H174.191L174.18 390.16C174.508 392.117 176.43 393.406 179.324 393.406ZM179.195 387.16C176.676 387.16 175.152 385.203 175.152 382.379V382.355C175.152 379.531 176.676 377.551 179.195 377.551C181.691 377.551 183.297 379.555 183.297 382.379V382.402C183.297 385.227 181.727 387.16 179.195 387.16Z" fill="black"/>
</g>
<g filter="url(#filter15_d_325_16136)">
<rect x="202" y="360" width="33" height="43" rx="5" fill="white"/>
<path d="M212.555 389H214.102V381.5C214.102 379.121 215.613 377.551 217.84 377.551C220.02 377.551 221.121 378.781 221.121 381.184V389H222.668V380.797C222.668 377.855 221.062 376.168 218.25 376.168C216.281 376.168 214.922 377.059 214.254 378.594H214.102V371.352H212.555V389Z" fill="black"/>
</g>
<g filter="url(#filter16_d_325_16136)">
<rect x="239" y="360" width="35" height="43" rx="5" fill="white"/>
<path d="M254.488 373.754C255.121 373.754 255.637 373.25 255.637 372.617C255.637 371.984 255.121 371.48 254.488 371.48C253.867 371.48 253.352 371.984 253.352 372.617C253.352 373.25 253.867 373.754 254.488 373.754ZM251.711 393.301C254.09 393.301 255.262 392.27 255.262 389.797V376.379H253.715V389.832C253.715 391.344 253.117 391.918 251.676 391.918H251.43V393.301H251.711Z" fill="black"/>
</g>
<g filter="url(#filter17_d_325_16136)">
<rect x="278" y="360" width="34" height="43" rx="5" fill="white"/>
<path d="M289.199 389H290.746V384.102L292.164 382.766L297.25 389H299.219L293.277 381.723L298.961 376.379H297.039L290.898 382.285H290.746V371.352H289.199V389Z" fill="black"/>
</g>
<g filter="url(#filter18_d_325_16136)">
<rect x="317" y="360" width="34" height="43" rx="5" fill="white"/>
<path d="M331.727 389H333.273V371.352H331.727V389Z" fill="black"/>
</g>
<g filter="url(#filter19_d_325_16136)">
<rect x="355" y="360" width="33" height="43" rx="5" fill="white"/>
<path d="M372.305 374.422C373.652 374.422 374.426 373.25 374.426 371.41V371.27H373.148V371.363C373.148 372.535 372.785 373.215 372.176 373.215C371.801 373.215 371.508 373.039 371.027 372.535L370.863 372.359C370.219 371.703 369.645 371.305 368.824 371.305C367.477 371.305 366.691 372.477 366.691 374.316V374.457H367.969V374.363C367.969 373.191 368.344 372.512 368.953 372.512C369.328 372.512 369.609 372.688 370.102 373.191L370.266 373.367C370.898 374.023 371.484 374.422 372.305 374.422ZM365.496 389H367.043V381.5C367.043 379.121 368.555 377.551 370.781 377.551C372.973 377.551 374.062 378.781 374.062 381.184V389H375.609V380.797C375.609 377.855 374.004 376.168 371.191 376.168C369.223 376.168 367.863 377.07 367.195 378.594H367.043V376.379H365.496V389Z" fill="black"/>
</g>
<g filter="url(#filter20_d_325_16136)">
<rect x="9" y="306" width="33" height="43" rx="5" fill="white"/>
<path d="M28.2734 339.184H29.8203V322.379H28.2734V324.957H28.1562C27.3828 323.246 25.7773 322.168 23.8789 322.168C20.6797 322.168 18.5703 324.758 18.5703 328.672V328.695C18.5703 332.609 20.6914 335.211 23.8789 335.211C25.8359 335.211 27.4297 334.227 28.1211 332.598H28.2734V339.184ZM24.207 333.828C21.7227 333.828 20.1523 331.836 20.1523 328.707V328.684C20.1523 325.543 21.7227 323.551 24.1953 323.551C26.6797 323.551 28.3086 325.578 28.3086 328.684V328.695C28.3086 331.789 26.6797 333.828 24.207 333.828Z" fill="black"/>
</g>
<g filter="url(#filter21_d_325_16136)">
<rect x="48" y="306" width="32" height="43" rx="5" fill="white"/>
<path d="M58.6836 335H60.3008L63.4062 324.523H63.5586L66.6641 335H68.293L71.8906 322.379H70.3438L67.5195 333.09H67.3789L64.2617 322.379H62.7266L59.6094 333.09H59.4688L56.668 322.379H55.1094L58.6836 335Z" fill="black"/>
</g>
<g filter="url(#filter22_d_325_16136)">
<rect x="86" y="306" width="33" height="43" rx="5" fill="white"/>
<path d="M101.688 335.211C104.477 335.211 106.316 333.688 106.809 331.977L106.844 331.883H105.285L105.238 331.965C104.828 332.949 103.562 333.816 101.723 333.816C99.2148 333.816 97.5977 332.047 97.5508 329.094H107.031V328.438C107.031 324.699 104.945 322.168 101.559 322.168C98.1719 322.168 95.9688 324.77 95.9688 328.707V328.73C95.9688 332.691 98.1484 335.211 101.688 335.211ZM101.559 323.551C103.727 323.551 105.285 325.027 105.461 327.828H97.5625C97.7617 325.098 99.3789 323.551 101.559 323.551Z" fill="black"/>
</g>
<g filter="url(#filter23_d_325_16136)">
<rect x="125" y="306" width="32" height="43" rx="5" fill="white"/>
<path d="M138.004 335H139.551V327.125C139.551 325.086 141.004 323.645 142.973 323.645C143.453 323.645 143.863 323.691 144.32 323.809V322.285C144.016 322.215 143.594 322.168 143.137 322.168C141.426 322.168 140.195 323.012 139.703 324.453H139.551V322.379H138.004V335Z" fill="black"/>
</g>
<g filter="url(#filter24_d_325_16136)">
<rect x="163" y="306" width="33" height="43" rx="5" fill="white"/>
<path d="M180.41 335.082C180.785 335.082 181.137 335.047 181.488 334.988V333.652C181.172 333.688 180.938 333.699 180.586 333.699C179.156 333.699 178.605 333.055 178.605 331.508V323.68H181.488V322.379H178.605V319.098H177V322.379H174.973V323.68H177V331.859C177 334.156 177.996 335.082 180.41 335.082Z" fill="black"/>
</g>
<g filter="url(#filter25_d_325_16136)">
<rect x="202" y="306" width="32" height="43" rx="5" fill="white"/>
<path d="M214.02 339.359C216.047 339.359 217.008 338.574 217.934 336.102L223.031 322.379H221.391L217.594 333.324H217.43L213.621 322.379H211.957L216.691 335.082L216.375 336.031C215.859 337.543 215.145 338.059 213.973 338.059C213.762 338.059 213.516 338.059 213.328 338.023V339.312C213.551 339.348 213.809 339.359 214.02 339.359Z" fill="black"/>
</g>
<g filter="url(#filter26_d_325_16136)">
<rect x="240" y="306" width="32" height="43" rx="5" fill="white"/>
<path d="M254.82 335.211C256.777 335.211 258.195 334.32 258.816 332.797H258.957V335H260.504V322.379H258.957V329.879C258.957 332.27 257.551 333.828 255.195 333.828C253.027 333.828 251.938 332.551 251.938 330.195V322.379H250.391V330.582C250.391 333.477 251.984 335.211 254.82 335.211Z" fill="black"/>
</g>
<g filter="url(#filter27_d_325_16136)">
<rect x="278" y="306" width="33" height="43" rx="5" fill="white"/>
<path d="M293.512 319.754C294.133 319.754 294.648 319.25 294.648 318.617C294.648 317.984 294.133 317.48 293.512 317.48C292.879 317.48 292.363 317.984 292.363 318.617C292.363 319.25 292.879 319.754 293.512 319.754ZM292.727 335H294.273V322.379H292.727V335Z" fill="black"/>
</g>
<g filter="url(#filter28_d_325_16136)">
<rect x="317" y="306" width="32" height="43" rx="5" fill="white"/>
<path d="M332.5 335.211C336.027 335.211 338.242 332.715 338.242 328.695V328.672C338.242 324.652 336.027 322.168 332.5 322.168C328.973 322.168 326.77 324.652 326.77 328.672V328.695C326.77 332.715 328.973 335.211 332.5 335.211ZM332.5 333.828C329.898 333.828 328.352 331.883 328.352 328.695V328.672C328.352 325.484 329.898 323.551 332.5 323.551C335.102 323.551 336.648 325.484 336.648 328.672V328.695C336.648 331.883 335.102 333.828 332.5 333.828Z" fill="black"/>
</g>
<g filter="url(#filter29_d_325_16136)">
<rect x="355" y="306" width="33" height="43" rx="5" fill="white"/>
<path d="M365.191 339.184H366.738V332.539H366.891C367.582 334.168 369.211 335.211 371.121 335.211C374.32 335.211 376.465 332.609 376.465 328.695V328.672C376.465 324.781 374.32 322.168 371.121 322.168C369.188 322.168 367.629 323.199 366.891 324.887H366.738V322.379H365.191V339.184ZM370.805 333.828C368.32 333.828 366.715 331.812 366.715 328.695V328.672C366.715 325.566 368.32 323.551 370.805 323.551C373.301 323.551 374.883 325.555 374.883 328.672V328.695C374.883 331.824 373.301 333.828 370.805 333.828Z" fill="black"/>
</g>
<g filter="url(#filter30_d_325_16136)">
<rect x="7" y="414" width="42" height="43" rx="5" fill="#AEB3BE"/>
<path fill-rule="evenodd" clip-rule="evenodd" d="M25.0362 436.242V442.249H30.9631V436.242H34.8741L27.9999 429.144L21.1259 436.242H25.0362ZM27.6411 427.502C27.8375 427.299 28.1625 427.299 28.3588 427.502L37.358 436.795C37.6654 437.112 37.4408 437.643 36.9992 437.643H32.3624V443.15C32.3624 443.426 32.1387 443.65 31.8627 443.65H24.1366C23.8606 443.65 23.6368 443.426 23.6368 443.15V437.643H19.0007C18.5592 437.643 18.3346 437.112 18.642 436.795L27.6411 427.502Z" fill="black"/>
</g>
<g filter="url(#filter31_d_325_16136)">
<rect x="349" y="414" width="42" height="42" rx="5" fill="#AEB3BE"/>
<path d="M369.214 432.525C368.922 432.232 368.922 431.757 369.214 431.464C369.507 431.172 369.982 431.172 370.275 431.464L372.75 433.939L375.225 431.464C375.518 431.172 375.993 431.172 376.286 431.464C376.578 431.757 376.578 432.232 376.286 432.525L373.811 435L376.286 437.475C376.578 437.768 376.578 438.243 376.286 438.536C375.993 438.828 375.518 438.828 375.225 438.536L372.75 436.061L370.275 438.536C369.982 438.828 369.507 438.828 369.214 438.536C368.922 438.243 368.922 437.768 369.214 437.475L371.689 435L369.214 432.525Z" fill="black"/>
<path fill-rule="evenodd" clip-rule="evenodd" d="M366.121 427.379L358.5 435L366.121 442.621C366.684 443.184 367.447 443.5 368.243 443.5H378.5C380.157 443.5 381.5 442.157 381.5 440.5V429.5C381.5 427.843 380.157 426.5 378.5 426.5H368.243C367.447 426.5 366.684 426.816 366.121 427.379ZM378.5 442.2H368.243C367.792 442.2 367.359 442.021 367.041 441.702L360.339 435L367.041 428.298C367.359 427.979 367.792 427.8 368.243 427.8H378.5C379.439 427.8 380.2 428.561 380.2 429.5V440.5C380.2 441.439 379.439 442.2 378.5 442.2Z" fill="black"/>
</g>
</g>
<g filter="url(#filter32_d_325_16136)">
<rect x="7" y="470" width="40" height="43" rx="5" fill="#AEB3BE"/>
<path d="M17.9409 497H19.3472V485.727H17.9487L14.9487 487.883V489.367L17.8159 487.289H17.9409V497ZM22.285 497H29.5819V495.734H24.2381V495.609L26.8006 492.961C28.8397 490.859 29.3944 489.922 29.3944 488.633V488.617C29.3944 486.797 27.8866 485.461 25.9178 485.461C23.7616 485.461 22.2147 486.898 22.2069 488.898L22.2225 488.906L23.5662 488.914L23.5741 488.898C23.5741 487.57 24.4725 486.688 25.8241 486.688C27.1522 486.688 27.9569 487.578 27.9569 488.766V488.781C27.9569 489.766 27.535 490.352 26.0975 491.906L22.285 496.031V497ZM35.4572 497.188C37.715 497.188 39.3713 495.797 39.3713 493.914V493.898C39.3713 492.297 38.2541 491.273 36.6134 491.133V491.102C38.0197 490.805 39.0041 489.852 39.0041 488.461V488.445C39.0041 486.734 37.59 485.539 35.4416 485.539C33.3322 485.539 31.8791 486.766 31.6994 488.602L31.6916 488.68H33.0431L33.0509 488.602C33.1681 487.461 34.1134 486.758 35.4416 486.758C36.8166 486.758 37.59 487.438 37.59 488.617V488.633C37.59 489.758 36.6525 490.586 35.3088 490.586H33.9572V491.773H35.3713C36.9494 491.773 37.9416 492.547 37.9416 493.93V493.945C37.9416 495.141 36.9338 495.969 35.4572 495.969C33.9572 495.969 32.9338 495.203 32.8244 494.094L32.8166 494.016H31.465L31.4728 494.109C31.6213 495.891 33.1291 497.188 35.4572 497.188Z" fill="black"/>
</g>
<g filter="url(#filter33_d_325_16136)">
<rect x="101" y="470" width="31" height="42" rx="5" fill="#AEB3BE"/>
<path fill-rule="evenodd" clip-rule="evenodd" d="M116.998 481C115.23 481 113.79 482.436 113.79 484.207V491.633C113.79 493.404 115.226 494.839 116.998 494.839C118.767 494.839 120.207 493.404 120.207 491.633V484.207C120.207 482.435 118.77 481 116.998 481ZM115.165 484.202V491.637C115.165 492.638 115.986 493.464 116.998 493.464C118.018 493.464 118.832 492.646 118.832 491.637V484.202C118.832 483.201 118.011 482.376 116.998 482.376C115.979 482.376 115.165 483.193 115.165 484.202Z" fill="black"/>
<path d="M117.75 498.624V496.707C121.25 496.507 122.75 493.636 122.75 490.831V489.537C122.751 489.527 122.75 489.517 122.75 489.507L122.75 489.491C122.75 489.111 122.44 488.803 122.06 488.803C121.68 488.803 121.38 489.111 121.38 489.491V490.83C121.38 493.636 120.25 495.556 117.05 495.556C114.25 495.556 112.625 493.636 112.625 490.83V489.537C112.625 489.157 112.317 488.849 111.938 488.849C111.558 488.849 111.25 489.157 111.25 489.537V490.831C111.25 493.639 113.25 496.507 116.35 496.707V498.624H113.773C113.398 498.624 113.083 498.932 113.083 499.312C113.083 499.695 113.392 500 113.773 500H120.25C120.625 500 120.95 499.692 120.95 499.312C120.95 498.93 120.631 498.624 120.25 498.624H117.75Z" fill="black"/>
</g>
<g filter="url(#filter34_d_325_16136)">
<rect x="54" y="470" width="40" height="43" rx="5" fill="#AEB3BE"/>
<path fill-rule="evenodd" clip-rule="evenodd" d="M74 502C68.4772 502 64 497.523 64 492C64 486.477 68.4772 482 74 482C79.5228 482 84 486.477 84 492C84 497.523 79.5228 502 74 502ZM74 501C78.9706 501 83 496.971 83 492C83 487.029 78.9706 483 74 483C69.0294 483 65 487.029 65 492C65 496.971 69.0294 501 74 501ZM73.9882 499C70.4242 499 67.0417 495.582 67.0417 493.111C67.0417 491.694 70.1222 493.4 73.9882 493.4C77.8542 493.4 80.9686 491.696 80.9583 493.111C80.9408 495.505 77.5521 499 73.9882 499ZM73.9882 495.85C77.3019 495.85 79.5942 494.569 79.5942 493.645C79.5942 492.721 77.3019 494.196 73.9882 494.196C70.6745 494.196 68.4202 492.898 68.4202 493.645C68.4202 494.392 70.6745 495.85 73.9882 495.85ZM70.9875 490.225C70.3317 490.225 69.8 489.693 69.8 489.037C69.8 488.382 70.3317 487.85 70.9875 487.85C71.6433 487.85 72.175 488.382 72.175 489.037C72.175 489.693 71.6433 490.225 70.9875 490.225ZM76.9875 490.225C76.3317 490.225 75.8 489.693 75.8 489.037C75.8 488.382 76.3317 487.85 76.9875 487.85C77.6433 487.85 78.175 488.382 78.175 489.037C78.175 489.693 77.6433 490.225 76.9875 490.225Z" fill="black"/>
</g>
<g filter="url(#filter35_d_325_16136)">
<rect x="139" y="470" width="158" height="43" rx="5" fill="white"/>
<path d="M187.089 497.148C189.073 497.148 190.276 496.023 190.565 494.883L190.581 494.82H189.222L189.19 494.891C188.964 495.398 188.261 495.938 187.12 495.938C185.62 495.938 184.659 494.922 184.62 493.18H190.683V492.648C190.683 490.133 189.292 488.43 187.003 488.43C184.714 488.43 183.229 490.211 183.229 492.812V492.82C183.229 495.461 184.683 497.148 187.089 497.148ZM186.995 489.641C188.237 489.641 189.159 490.43 189.3 492.094H184.643C184.792 490.492 185.745 489.641 186.995 489.641ZM195.363 497.148C197.277 497.148 198.738 496.109 198.738 494.609V494.594C198.738 493.391 197.972 492.703 196.386 492.32L195.089 492.008C194.097 491.766 193.675 491.406 193.675 490.836V490.82C193.675 490.078 194.409 489.562 195.409 489.562C196.425 489.562 197.081 490.023 197.261 490.688H198.597C198.409 489.312 197.183 488.43 195.417 488.43C193.628 488.43 192.284 489.484 192.284 490.883V490.891C192.284 492.102 192.995 492.789 194.573 493.164L195.878 493.477C196.917 493.727 197.347 494.125 197.347 494.695V494.711C197.347 495.477 196.542 496.016 195.409 496.016C194.331 496.016 193.659 495.555 193.433 494.852H192.042C192.198 496.242 193.488 497.148 195.363 497.148ZM200.527 499.812H201.886V495.672H202.011C202.472 496.57 203.48 497.148 204.636 497.148C206.777 497.148 208.168 495.438 208.168 492.797V492.781C208.168 490.156 206.769 488.43 204.636 488.43C203.464 488.43 202.527 488.984 202.011 489.922H201.886V488.578H200.527V499.812ZM204.324 495.945C202.793 495.945 201.855 494.742 201.855 492.797V492.781C201.855 490.836 202.793 489.633 204.324 489.633C205.863 489.633 206.777 490.82 206.777 492.781V492.797C206.777 494.758 205.863 495.945 204.324 495.945ZM212.285 497.148C213.418 497.148 214.301 496.656 214.832 495.758H214.957V497H216.316V491.234C216.316 489.484 215.168 488.43 213.113 488.43C211.316 488.43 210.035 489.32 209.816 490.641L209.808 490.688H211.168L211.176 490.664C211.394 490.008 212.058 489.633 213.066 489.633C214.324 489.633 214.957 490.195 214.957 491.234V492L212.543 492.148C210.582 492.266 209.473 493.133 209.473 494.633V494.648C209.473 496.18 210.683 497.148 212.285 497.148ZM210.863 494.617V494.602C210.863 493.766 211.426 493.312 212.707 493.234L214.957 493.094V493.859C214.957 495.062 213.949 495.969 212.566 495.969C211.59 495.969 210.863 495.469 210.863 494.617ZM221.926 497.148C223.949 497.148 225.082 496.062 225.426 494.539L225.442 494.453L224.098 494.461L224.082 494.508C223.77 495.445 223.051 495.945 221.918 495.945C220.418 495.945 219.449 494.703 219.449 492.766V492.75C219.449 490.852 220.403 489.633 221.918 489.633C223.129 489.633 223.879 490.305 224.09 491.133L224.098 491.156H225.449L225.442 491.109C225.192 489.609 223.965 488.43 221.918 488.43C219.559 488.43 218.059 490.133 218.059 492.75V492.766C218.059 495.438 219.567 497.148 221.926 497.148ZM227.833 486.953C228.348 486.953 228.77 486.531 228.77 486.016C228.77 485.5 228.348 485.078 227.833 485.078C227.317 485.078 226.895 485.5 226.895 486.016C226.895 486.531 227.317 486.953 227.833 486.953ZM227.145 497H228.504V488.578H227.145V497ZM234.208 497.148C236.606 497.148 238.091 495.492 238.091 492.797V492.781C238.091 490.078 236.606 488.43 234.208 488.43C231.809 488.43 230.325 490.078 230.325 492.781V492.797C230.325 495.492 231.809 497.148 234.208 497.148ZM234.208 495.945C232.614 495.945 231.716 494.781 231.716 492.797V492.781C231.716 490.789 232.614 489.633 234.208 489.633C235.802 489.633 236.7 490.789 236.7 492.781V492.797C236.7 494.781 235.802 495.945 234.208 495.945Z" fill="black"/>
</g>
<g filter="url(#filter36_d_325_16136)">
<rect x="304" y="470" width="87" height="43" rx="5" fill="#0F77F0"/>
<path d="M333.073 486.953C333.589 486.953 334.011 486.531 334.011 486.016C334.011 485.5 333.589 485.078 333.073 485.078C332.558 485.078 332.136 485.5 332.136 486.016C332.136 486.531 332.558 486.953 333.073 486.953ZM332.386 497H333.745V488.578H332.386V497ZM335.988 497H337.347V492.016C337.347 490.539 338.199 489.633 339.542 489.633C340.886 489.633 341.511 490.359 341.511 491.875V497H342.871V491.547C342.871 489.547 341.816 488.43 339.925 488.43C338.683 488.43 337.894 488.953 337.472 489.844H337.347V488.578H335.988V497ZM348.004 497.062C348.269 497.062 348.527 497.031 348.793 496.984V495.828C348.543 495.852 348.41 495.859 348.168 495.859C347.293 495.859 346.949 495.461 346.949 494.469V489.703H348.793V488.578H346.949V486.398H345.543V488.578H344.215V489.703H345.543V494.812C345.543 496.422 346.269 497.062 348.004 497.062ZM350.504 497H351.863V491.781C351.863 490.547 352.785 489.727 354.082 489.727C354.379 489.727 354.637 489.758 354.918 489.805V488.484C354.785 488.461 354.496 488.43 354.238 488.43C353.098 488.43 352.309 488.945 351.988 489.828H351.863V488.578H350.504V497ZM359.504 497.148C361.903 497.148 363.387 495.492 363.387 492.797V492.781C363.387 490.078 361.903 488.43 359.504 488.43C357.106 488.43 355.622 490.078 355.622 492.781V492.797C355.622 495.492 357.106 497.148 359.504 497.148ZM359.504 495.945C357.911 495.945 357.012 494.781 357.012 492.797V492.781C357.012 490.789 357.911 489.633 359.504 489.633C361.098 489.633 361.997 490.789 361.997 492.781V492.797C361.997 494.781 361.098 495.945 359.504 495.945Z" fill="white"/>
</g>
</g>
<rect x="20.75" y="73.75" width="356.5" height="84.5" rx="9.25" fill="white" stroke="#5FA9AE" stroke-width="1.5"/>
<path d="M42.3788 95.976V97H34.4588V85.8H42.1388V86.824H35.6428V90.808H41.4348V91.816H35.6428V95.976H42.3788ZM47.0529 97.08C46.3702 97.08 45.7142 96.984 45.0849 96.792C44.4662 96.5893 43.9809 96.3387 43.6289 96.04L44.1409 95.144C44.4929 95.4213 44.9356 95.6507 45.4689 95.832C46.0022 96.0027 46.5569 96.088 47.1329 96.088C47.9009 96.088 48.4662 95.9707 48.8289 95.736C49.2022 95.4907 49.3889 95.1493 49.3889 94.712C49.3889 94.4027 49.2876 94.1627 49.0849 93.992C48.8822 93.8107 48.6262 93.6773 48.3169 93.592C48.0076 93.496 47.5969 93.4053 47.0849 93.32C46.4022 93.192 45.8529 93.064 45.4369 92.936C45.0209 92.7973 44.6636 92.568 44.3649 92.248C44.0769 91.928 43.9329 91.4853 43.9329 90.92C43.9329 90.216 44.2262 89.64 44.8129 89.192C45.3996 88.744 46.2156 88.52 47.2609 88.52C47.8049 88.52 48.3489 88.5947 48.8929 88.744C49.4369 88.8827 49.8849 89.0693 50.2369 89.304L49.7409 90.216C49.0476 89.736 48.2209 89.496 47.2609 89.496C46.5356 89.496 45.9862 89.624 45.6129 89.88C45.2502 90.136 45.0689 90.472 45.0689 90.888C45.0689 91.208 45.1702 91.464 45.3729 91.656C45.5862 91.848 45.8476 91.992 46.1569 92.088C46.4662 92.1733 46.8929 92.264 47.4369 92.36C48.1089 92.488 48.6476 92.616 49.0529 92.744C49.4582 92.872 49.8049 93.0907 50.0929 93.4C50.3809 93.7093 50.5249 94.136 50.5249 94.68C50.5249 95.416 50.2156 96.0027 49.5969 96.44C48.9889 96.8667 48.1409 97.08 47.0529 97.08ZM56.113 97.08C55.281 97.08 54.5343 96.8987 53.873 96.536C53.2223 96.1733 52.7103 95.6667 52.337 95.016C51.9637 94.3547 51.777 93.6133 51.777 92.792C51.777 91.9707 51.9637 91.2347 52.337 90.584C52.7103 89.9333 53.2223 89.4267 53.873 89.064C54.5343 88.7013 55.281 88.52 56.113 88.52C56.8383 88.52 57.4837 88.664 58.049 88.952C58.625 89.2293 59.0783 89.64 59.409 90.184L58.561 90.76C58.2837 90.344 57.9317 90.0347 57.505 89.832C57.0783 89.6187 56.6143 89.512 56.113 89.512C55.505 89.512 54.9557 89.6507 54.465 89.928C53.985 90.1947 53.6063 90.5787 53.329 91.08C53.0623 91.5813 52.929 92.152 52.929 92.792C52.929 93.4427 53.0623 94.0187 53.329 94.52C53.6063 95.0107 53.985 95.3947 54.465 95.672C54.9557 95.9387 55.505 96.072 56.113 96.072C56.6143 96.072 57.0783 95.9707 57.505 95.768C57.9317 95.5653 58.2837 95.256 58.561 94.84L59.409 95.416C59.0783 95.96 58.625 96.376 58.049 96.664C57.473 96.9413 56.8277 97.08 56.113 97.08ZM62.7286 90.232C62.9953 89.6667 63.39 89.24 63.9126 88.952C64.446 88.664 65.102 88.52 65.8806 88.52V89.624L65.6086 89.608C64.7233 89.608 64.03 89.88 63.5286 90.424C63.0273 90.968 62.7766 91.7307 62.7766 92.712V97H61.6406V88.584H62.7286V90.232ZM67.9375 88.584H69.0735V97H67.9375V88.584ZM68.5135 86.744C68.2788 86.744 68.0815 86.664 67.9215 86.504C67.7615 86.344 67.6815 86.152 67.6815 85.928C67.6815 85.7147 67.7615 85.528 67.9215 85.368C68.0815 85.208 68.2788 85.128 68.5135 85.128C68.7482 85.128 68.9455 85.208 69.1055 85.368C69.2655 85.5173 69.3455 85.6987 69.3455 85.912C69.3455 86.1467 69.2655 86.344 69.1055 86.504C68.9455 86.664 68.7482 86.744 68.5135 86.744ZM79.8184 88.584V97H78.7304V95.464C78.4317 95.976 78.0211 96.376 77.4984 96.664C76.9757 96.9413 76.3784 97.08 75.7064 97.08C74.6077 97.08 73.7384 96.776 73.0984 96.168C72.4691 95.5493 72.1544 94.648 72.1544 93.464V88.584H73.2904V93.352C73.2904 94.2373 73.5091 94.9093 73.9464 95.368C74.3837 95.8267 75.0077 96.056 75.8184 96.056C76.7037 96.056 77.4024 95.7893 77.9144 95.256C78.4264 94.712 78.6824 93.96 78.6824 93V88.584H79.8184ZM90.1315 88.52C91.2302 88.52 92.0728 88.7973 92.6595 89.352C93.2462 89.896 93.5395 90.7067 93.5395 91.784V97H92.4515V95.688C92.1955 96.1253 91.8168 96.4667 91.3155 96.712C90.8248 96.9573 90.2382 97.08 89.5555 97.08C88.6168 97.08 87.8702 96.856 87.3155 96.408C86.7608 95.96 86.4835 95.368 86.4835 94.632C86.4835 93.9173 86.7395 93.3413 87.2515 92.904C87.7742 92.4667 88.6008 92.248 89.7315 92.248H92.4035V91.736C92.4035 91.0107 92.2008 90.4613 91.7955 90.088C91.3902 89.704 90.7982 89.512 90.0195 89.512C89.4862 89.512 88.9742 89.6027 88.4835 89.784C87.9928 89.9547 87.5715 90.1947 87.2195 90.504L86.7075 89.656C87.1342 89.2933 87.6462 89.016 88.2435 88.824C88.8408 88.6213 89.4702 88.52 90.1315 88.52ZM89.7315 96.184C90.3715 96.184 90.9208 96.04 91.3795 95.752C91.8382 95.4533 92.1795 95.0267 92.4035 94.472V93.096H89.7635C88.3235 93.096 87.6035 93.5973 87.6035 94.6C87.6035 95.0907 87.7902 95.48 88.1635 95.768C88.5368 96.0453 89.0595 96.184 89.7315 96.184ZM100.144 97.08C99.3123 97.08 98.5656 96.8987 97.9043 96.536C97.2536 96.1733 96.7416 95.6667 96.3683 95.016C95.9949 94.3547 95.8083 93.6133 95.8083 92.792C95.8083 91.9707 95.9949 91.2347 96.3683 90.584C96.7416 89.9333 97.2536 89.4267 97.9043 89.064C98.5656 88.7013 99.3123 88.52 100.144 88.52C100.87 88.52 101.515 88.664 102.08 88.952C102.656 89.2293 103.11 89.64 103.44 90.184L102.592 90.76C102.315 90.344 101.963 90.0347 101.536 89.832C101.11 89.6187 100.646 89.512 100.144 89.512C99.5363 89.512 98.9869 89.6507 98.4963 89.928C98.0163 90.1947 97.6376 90.5787 97.3603 91.08C97.0936 91.5813 96.9603 92.152 96.9603 92.792C96.9603 93.4427 97.0936 94.0187 97.3603 94.52C97.6376 95.0107 98.0163 95.3947 98.4963 95.672C98.9869 95.9387 99.5363 96.072 100.144 96.072C100.646 96.072 101.11 95.9707 101.536 95.768C101.963 95.5653 102.315 95.256 102.592 94.84L103.44 95.416C103.11 95.96 102.656 96.376 102.08 96.664C101.504 96.9413 100.859 97.08 100.144 97.08ZM105.672 88.584H106.808V97H105.672V88.584ZM107.4 85.288H108.92L106.328 87.272H105.208L107.4 85.288ZM110.081 97.08C109.846 97.08 109.643 96.9947 109.473 96.824C109.313 96.6533 109.233 96.4453 109.233 96.2C109.233 95.9547 109.313 95.752 109.473 95.592C109.643 95.4213 109.846 95.336 110.081 95.336C110.315 95.336 110.518 95.4213 110.689 95.592C110.859 95.752 110.945 95.9547 110.945 96.2C110.945 96.4453 110.859 96.6533 110.689 96.824C110.518 96.9947 110.315 97.08 110.081 97.08ZM113.471 97.08C113.237 97.08 113.034 96.9947 112.863 96.824C112.703 96.6533 112.623 96.4453 112.623 96.2C112.623 95.9547 112.703 95.752 112.863 95.592C113.034 95.4213 113.237 95.336 113.471 95.336C113.706 95.336 113.909 95.4213 114.079 95.592C114.25 95.752 114.335 95.9547 114.335 96.2C114.335 96.4453 114.25 96.6533 114.079 96.824C113.909 96.9947 113.706 97.08 113.471 97.08ZM116.862 97.08C116.627 97.08 116.425 96.9947 116.254 96.824C116.094 96.6533 116.014 96.4453 116.014 96.2C116.014 95.9547 116.094 95.752 116.254 95.592C116.425 95.4213 116.627 95.336 116.862 95.336C117.097 95.336 117.299 95.4213 117.47 95.592C117.641 95.752 117.726 95.9547 117.726 96.2C117.726 96.4453 117.641 96.6533 117.47 96.824C117.299 96.9947 117.097 97.08 116.862 97.08Z" fill="#979797"/>
<rect x="20.5" y="175.5" width="16" height="16" rx="2.5" fill="white" stroke="#979797"/>
<defs>
<filter id="filter0_d_325_16136" x="0" y="0" width="398" height="577" filterUnits="userSpaceOnUse" color-interpolation-filters="sRGB">
<feFlood flood-opacity="0" result="BackgroundImageFix"/>
<feColorMatrix in="SourceAlpha" type="matrix" values="0 0 0 0 0 0 0 0 0 0 0 0 0 0 0 0 0 0 127 0" result="hardAlpha"/>
<feOffset/>
<feGaussianBlur stdDeviation="2"/>
<feComposite in2="hardAlpha" operator="out"/>
<feColorMatrix type="matrix" values="0 0 0 0 0 0 0 0 0 0 0 0 0 0 0 0 0 0 0.15 0"/>
<feBlend mode="normal" in2="BackgroundImageFix" result="effect1_dropShadow_325_16136"/>
<feBlend mode="normal" in="SourceGraphic" in2="effect1_dropShadow_325_16136" result="shape"/>
</filter>
<filter id="filter1_b_325_16136" x="-66" y="228" width="530" height="358" filterUnits="userSpaceOnUse" color-interpolation-filters="sRGB">
<feFlood flood-opacity="0" result="BackgroundImageFix"/>
<feGaussianBlur in="BackgroundImageFix" stdDeviation="35"/>
<feComposite in2="SourceAlpha" operator="in" result="effect1_backgroundBlur_325_16136"/>
<feBlend mode="normal" in="SourceGraphic" in2="effect1_backgroundBlur_325_16136" result="shape"/>
</filter>
<filter id="filter2_b_325_16136" x="-66" y="228" width="530" height="309" filterUnits="userSpaceOnUse" color-interpolation-filters="sRGB">
<feFlood flood-opacity="0" result="BackgroundImageFix"/>
<feGaussianBlur in="BackgroundImageFix" stdDeviation="35"/>
<feComposite in2="SourceAlpha" operator="in" result="effect1_backgroundBlur_325_16136"/>
<feBlend mode="normal" in="SourceGraphic" in2="effect1_backgroundBlur_325_16136" result="shape"/>
</filter>
<filter id="filter3_d_325_16136" x="62" y="414" width="34" height="44" filterUnits="userSpaceOnUse" color-interpolation-filters="sRGB">
<feFlood flood-opacity="0" result="BackgroundImageFix"/>
<feColorMatrix in="SourceAlpha" type="matrix" values="0 0 0 0 0 0 0 0 0 0 0 0 0 0 0 0 0 0 127 0" result="hardAlpha"/>
<feOffset dy="1"/>
<feColorMatrix type="matrix" values="0 0 0 0 0 0 0 0 0 0 0 0 0 0 0 0 0 0 0.3 0"/>
<feBlend mode="normal" in2="BackgroundImageFix" result="effect1_dropShadow_325_16136"/>
<feBlend mode="normal" in="SourceGraphic" in2="effect1_dropShadow_325_16136" result="shape"/>
</filter>
<filter id="filter4_d_325_16136" x="102" y="414" width="35" height="44" filterUnits="userSpaceOnUse" color-interpolation-filters="sRGB">
<feFlood flood-opacity="0" result="BackgroundImageFix"/>
<feColorMatrix in="SourceAlpha" type="matrix" values="0 0 0 0 0 0 0 0 0 0 0 0 0 0 0 0 0 0 127 0" result="hardAlpha"/>
<feOffset dy="1"/>
<feColorMatrix type="matrix" values="0 0 0 0 0 0 0 0 0 0 0 0 0 0 0 0 0 0 0.3 0"/>
<feBlend mode="normal" in2="BackgroundImageFix" result="effect1_dropShadow_325_16136"/>
<feBlend mode="normal" in="SourceGraphic" in2="effect1_dropShadow_325_16136" result="shape"/>
</filter>
<filter id="filter5_d_325_16136" x="143" y="414" width="34" height="44" filterUnits="userSpaceOnUse" color-interpolation-filters="sRGB">
<feFlood flood-opacity="0" result="BackgroundImageFix"/>
<feColorMatrix in="SourceAlpha" type="matrix" values="0 0 0 0 0 0 0 0 0 0 0 0 0 0 0 0 0 0 127 0" result="hardAlpha"/>
<feOffset dy="1"/>
<feColorMatrix type="matrix" values="0 0 0 0 0 0 0 0 0 0 0 0 0 0 0 0 0 0 0.3 0"/>
<feBlend mode="normal" in2="BackgroundImageFix" result="effect1_dropShadow_325_16136"/>
<feBlend mode="normal" in="SourceGraphic" in2="effect1_dropShadow_325_16136" result="shape"/>
</filter>
<filter id="filter6_d_325_16136" x="183" y="414" width="33" height="44" filterUnits="userSpaceOnUse" color-interpolation-filters="sRGB">
<feFlood flood-opacity="0" result="BackgroundImageFix"/>
<feColorMatrix in="SourceAlpha" type="matrix" values="0 0 0 0 0 0 0 0 0 0 0 0 0 0 0 0 0 0 127 0" result="hardAlpha"/>
<feOffset dy="1"/>
<feColorMatrix type="matrix" values="0 0 0 0 0 0 0 0 0 0 0 0 0 0 0 0 0 0 0.3 0"/>
<feBlend mode="normal" in2="BackgroundImageFix" result="effect1_dropShadow_325_16136"/>
<feBlend mode="normal" in="SourceGraphic" in2="effect1_dropShadow_325_16136" result="shape"/>
</filter>
<filter id="filter7_d_325_16136" x="222" y="414" width="34" height="44" filterUnits="userSpaceOnUse" color-interpolation-filters="sRGB">
<feFlood flood-opacity="0" result="BackgroundImageFix"/>
<feColorMatrix in="SourceAlpha" type="matrix" values="0 0 0 0 0 0 0 0 0 0 0 0 0 0 0 0 0 0 127 0" result="hardAlpha"/>
<feOffset dy="1"/>
<feColorMatrix type="matrix" values="0 0 0 0 0 0 0 0 0 0 0 0 0 0 0 0 0 0 0.3 0"/>
<feBlend mode="normal" in2="BackgroundImageFix" result="effect1_dropShadow_325_16136"/>
<feBlend mode="normal" in="SourceGraphic" in2="effect1_dropShadow_325_16136" result="shape"/>
</filter>
<filter id="filter8_d_325_16136" x="262" y="414" width="35" height="44" filterUnits="userSpaceOnUse" color-interpolation-filters="sRGB">
<feFlood flood-opacity="0" result="BackgroundImageFix"/>
<feColorMatrix in="SourceAlpha" type="matrix" values="0 0 0 0 0 0 0 0 0 0 0 0 0 0 0 0 0 0 127 0" result="hardAlpha"/>
<feOffset dy="1"/>
<feColorMatrix type="matrix" values="0 0 0 0 0 0 0 0 0 0 0 0 0 0 0 0 0 0 0.3 0"/>
<feBlend mode="normal" in2="BackgroundImageFix" result="effect1_dropShadow_325_16136"/>
<feBlend mode="normal" in="SourceGraphic" in2="effect1_dropShadow_325_16136" result="shape"/>
</filter>
<filter id="filter9_d_325_16136" x="303" y="414" width="34" height="44" filterUnits="userSpaceOnUse" color-interpolation-filters="sRGB">
<feFlood flood-opacity="0" result="BackgroundImageFix"/>
<feColorMatrix in="SourceAlpha" type="matrix" values="0 0 0 0 0 0 0 0 0 0 0 0 0 0 0 0 0 0 127 0" result="hardAlpha"/>
<feOffset dy="1"/>
<feColorMatrix type="matrix" values="0 0 0 0 0 0 0 0 0 0 0 0 0 0 0 0 0 0 0.3 0"/>
<feBlend mode="normal" in2="BackgroundImageFix" result="effect1_dropShadow_325_16136"/>
<feBlend mode="normal" in="SourceGraphic" in2="effect1_dropShadow_325_16136" result="shape"/>
</filter>
<filter id="filter10_d_325_16136" x="9" y="360" width="33" height="44" filterUnits="userSpaceOnUse" color-interpolation-filters="sRGB">
<feFlood flood-opacity="0" result="BackgroundImageFix"/>
<feColorMatrix in="SourceAlpha" type="matrix" values="0 0 0 0 0 0 0 0 0 0 0 0 0 0 0 0 0 0 127 0" result="hardAlpha"/>
<feOffset dy="1"/>
<feColorMatrix type="matrix" values="0 0 0 0 0 0 0 0 0 0 0 0 0 0 0 0 0 0 0.3 0"/>
<feBlend mode="normal" in2="BackgroundImageFix" result="effect1_dropShadow_325_16136"/>
<feBlend mode="normal" in="SourceGraphic" in2="effect1_dropShadow_325_16136" result="shape"/>
</filter>
<filter id="filter11_d_325_16136" x="48" y="360" width="32" height="44" filterUnits="userSpaceOnUse" color-interpolation-filters="sRGB">
<feFlood flood-opacity="0" result="BackgroundImageFix"/>
<feColorMatrix in="SourceAlpha" type="matrix" values="0 0 0 0 0 0 0 0 0 0 0 0 0 0 0 0 0 0 127 0" result="hardAlpha"/>
<feOffset dy="1"/>
<feColorMatrix type="matrix" values="0 0 0 0 0 0 0 0 0 0 0 0 0 0 0 0 0 0 0.3 0"/>
<feBlend mode="normal" in2="BackgroundImageFix" result="effect1_dropShadow_325_16136"/>
<feBlend mode="normal" in="SourceGraphic" in2="effect1_dropShadow_325_16136" result="shape"/>
</filter>
<filter id="filter12_d_325_16136" x="86" y="360" width="33" height="44" filterUnits="userSpaceOnUse" color-interpolation-filters="sRGB">
<feFlood flood-opacity="0" result="BackgroundImageFix"/>
<feColorMatrix in="SourceAlpha" type="matrix" values="0 0 0 0 0 0 0 0 0 0 0 0 0 0 0 0 0 0 127 0" result="hardAlpha"/>
<feOffset dy="1"/>
<feColorMatrix type="matrix" values="0 0 0 0 0 0 0 0 0 0 0 0 0 0 0 0 0 0 0.3 0"/>
<feBlend mode="normal" in2="BackgroundImageFix" result="effect1_dropShadow_325_16136"/>
<feBlend mode="normal" in="SourceGraphic" in2="effect1_dropShadow_325_16136" result="shape"/>
</filter>
<filter id="filter13_d_325_16136" x="125" y="360" width="33" height="44" filterUnits="userSpaceOnUse" color-interpolation-filters="sRGB">
<feFlood flood-opacity="0" result="BackgroundImageFix"/>
<feColorMatrix in="SourceAlpha" type="matrix" values="0 0 0 0 0 0 0 0 0 0 0 0 0 0 0 0 0 0 127 0" result="hardAlpha"/>
<feOffset dy="1"/>
<feColorMatrix type="matrix" values="0 0 0 0 0 0 0 0 0 0 0 0 0 0 0 0 0 0 0.3 0"/>
<feBlend mode="normal" in2="BackgroundImageFix" result="effect1_dropShadow_325_16136"/>
<feBlend mode="normal" in="SourceGraphic" in2="effect1_dropShadow_325_16136" result="shape"/>
</filter>
<filter id="filter14_d_325_16136" x="164" y="360" width="32" height="44" filterUnits="userSpaceOnUse" color-interpolation-filters="sRGB">
<feFlood flood-opacity="0" result="BackgroundImageFix"/>
<feColorMatrix in="SourceAlpha" type="matrix" values="0 0 0 0 0 0 0 0 0 0 0 0 0 0 0 0 0 0 127 0" result="hardAlpha"/>
<feOffset dy="1"/>
<feColorMatrix type="matrix" values="0 0 0 0 0 0 0 0 0 0 0 0 0 0 0 0 0 0 0.3 0"/>
<feBlend mode="normal" in2="BackgroundImageFix" result="effect1_dropShadow_325_16136"/>
<feBlend mode="normal" in="SourceGraphic" in2="effect1_dropShadow_325_16136" result="shape"/>
</filter>
<filter id="filter15_d_325_16136" x="202" y="360" width="33" height="44" filterUnits="userSpaceOnUse" color-interpolation-filters="sRGB">
<feFlood flood-opacity="0" result="BackgroundImageFix"/>
<feColorMatrix in="SourceAlpha" type="matrix" values="0 0 0 0 0 0 0 0 0 0 0 0 0 0 0 0 0 0 127 0" result="hardAlpha"/>
<feOffset dy="1"/>
<feColorMatrix type="matrix" values="0 0 0 0 0 0 0 0 0 0 0 0 0 0 0 0 0 0 0.3 0"/>
<feBlend mode="normal" in2="BackgroundImageFix" result="effect1_dropShadow_325_16136"/>
<feBlend mode="normal" in="SourceGraphic" in2="effect1_dropShadow_325_16136" result="shape"/>
</filter>
<filter id="filter16_d_325_16136" x="239" y="360" width="35" height="44" filterUnits="userSpaceOnUse" color-interpolation-filters="sRGB">
<feFlood flood-opacity="0" result="BackgroundImageFix"/>
<feColorMatrix in="SourceAlpha" type="matrix" values="0 0 0 0 0 0 0 0 0 0 0 0 0 0 0 0 0 0 127 0" result="hardAlpha"/>
<feOffset dy="1"/>
<feColorMatrix type="matrix" values="0 0 0 0 0 0 0 0 0 0 0 0 0 0 0 0 0 0 0.3 0"/>
<feBlend mode="normal" in2="BackgroundImageFix" result="effect1_dropShadow_325_16136"/>
<feBlend mode="normal" in="SourceGraphic" in2="effect1_dropShadow_325_16136" result="shape"/>
</filter>
<filter id="filter17_d_325_16136" x="278" y="360" width="34" height="44" filterUnits="userSpaceOnUse" color-interpolation-filters="sRGB">
<feFlood flood-opacity="0" result="BackgroundImageFix"/>
<feColorMatrix in="SourceAlpha" type="matrix" values="0 0 0 0 0 0 0 0 0 0 0 0 0 0 0 0 0 0 127 0" result="hardAlpha"/>
<feOffset dy="1"/>
<feColorMatrix type="matrix" values="0 0 0 0 0 0 0 0 0 0 0 0 0 0 0 0 0 0 0.3 0"/>
<feBlend mode="normal" in2="BackgroundImageFix" result="effect1_dropShadow_325_16136"/>
<feBlend mode="normal" in="SourceGraphic" in2="effect1_dropShadow_325_16136" result="shape"/>
</filter>
<filter id="filter18_d_325_16136" x="317" y="360" width="34" height="44" filterUnits="userSpaceOnUse" color-interpolation-filters="sRGB">
<feFlood flood-opacity="0" result="BackgroundImageFix"/>
<feColorMatrix in="SourceAlpha" type="matrix" values="0 0 0 0 0 0 0 0 0 0 0 0 0 0 0 0 0 0 127 0" result="hardAlpha"/>
<feOffset dy="1"/>
<feColorMatrix type="matrix" values="0 0 0 0 0 0 0 0 0 0 0 0 0 0 0 0 0 0 0.3 0"/>
<feBlend mode="normal" in2="BackgroundImageFix" result="effect1_dropShadow_325_16136"/>
<feBlend mode="normal" in="SourceGraphic" in2="effect1_dropShadow_325_16136" result="shape"/>
</filter>
<filter id="filter19_d_325_16136" x="355" y="360" width="33" height="44" filterUnits="userSpaceOnUse" color-interpolation-filters="sRGB">
<feFlood flood-opacity="0" result="BackgroundImageFix"/>
<feColorMatrix in="SourceAlpha" type="matrix" values="0 0 0 0 0 0 0 0 0 0 0 0 0 0 0 0 0 0 127 0" result="hardAlpha"/>
<feOffset dy="1"/>
<feColorMatrix type="matrix" values="0 0 0 0 0 0 0 0 0 0 0 0 0 0 0 0 0 0 0.3 0"/>
<feBlend mode="normal" in2="BackgroundImageFix" result="effect1_dropShadow_325_16136"/>
<feBlend mode="normal" in="SourceGraphic" in2="effect1_dropShadow_325_16136" result="shape"/>
</filter>
<filter id="filter20_d_325_16136" x="9" y="306" width="33" height="44" filterUnits="userSpaceOnUse" color-interpolation-filters="sRGB">
<feFlood flood-opacity="0" result="BackgroundImageFix"/>
<feColorMatrix in="SourceAlpha" type="matrix" values="0 0 0 0 0 0 0 0 0 0 0 0 0 0 0 0 0 0 127 0" result="hardAlpha"/>
<feOffset dy="1"/>
<feColorMatrix type="matrix" values="0 0 0 0 0 0 0 0 0 0 0 0 0 0 0 0 0 0 0.3 0"/>
<feBlend mode="normal" in2="BackgroundImageFix" result="effect1_dropShadow_325_16136"/>
<feBlend mode="normal" in="SourceGraphic" in2="effect1_dropShadow_325_16136" result="shape"/>
</filter>
<filter id="filter21_d_325_16136" x="48" y="306" width="32" height="44" filterUnits="userSpaceOnUse" color-interpolation-filters="sRGB">
<feFlood flood-opacity="0" result="BackgroundImageFix"/>
<feColorMatrix in="SourceAlpha" type="matrix" values="0 0 0 0 0 0 0 0 0 0 0 0 0 0 0 0 0 0 127 0" result="hardAlpha"/>
<feOffset dy="1"/>
<feColorMatrix type="matrix" values="0 0 0 0 0 0 0 0 0 0 0 0 0 0 0 0 0 0 0.3 0"/>
<feBlend mode="normal" in2="BackgroundImageFix" result="effect1_dropShadow_325_16136"/>
<feBlend mode="normal" in="SourceGraphic" in2="effect1_dropShadow_325_16136" result="shape"/>
</filter>
<filter id="filter22_d_325_16136" x="86" y="306" width="33" height="44" filterUnits="userSpaceOnUse" color-interpolation-filters="sRGB">
<feFlood flood-opacity="0" result="BackgroundImageFix"/>
<feColorMatrix in="SourceAlpha" type="matrix" values="0 0 0 0 0 0 0 0 0 0 0 0 0 0 0 0 0 0 127 0" result="hardAlpha"/>
<feOffset dy="1"/>
<feColorMatrix type="matrix" values="0 0 0 0 0 0 0 0 0 0 0 0 0 0 0 0 0 0 0.3 0"/>
<feBlend mode="normal" in2="BackgroundImageFix" result="effect1_dropShadow_325_16136"/>
<feBlend mode="normal" in="SourceGraphic" in2="effect1_dropShadow_325_16136" result="shape"/>
</filter>
<filter id="filter23_d_325_16136" x="125" y="306" width="32" height="44" filterUnits="userSpaceOnUse" color-interpolation-filters="sRGB">
<feFlood flood-opacity="0" result="BackgroundImageFix"/>
<feColorMatrix in="SourceAlpha" type="matrix" values="0 0 0 0 0 0 0 0 0 0 0 0 0 0 0 0 0 0 127 0" result="hardAlpha"/>
<feOffset dy="1"/>
<feColorMatrix type="matrix" values="0 0 0 0 0 0 0 0 0 0 0 0 0 0 0 0 0 0 0.3 0"/>
<feBlend mode="normal" in2="BackgroundImageFix" result="effect1_dropShadow_325_16136"/>
<feBlend mode="normal" in="SourceGraphic" in2="effect1_dropShadow_325_16136" result="shape"/>
</filter>
<filter id="filter24_d_325_16136" x="163" y="306" width="33" height="44" filterUnits="userSpaceOnUse" color-interpolation-filters="sRGB">
<feFlood flood-opacity="0" result="BackgroundImageFix"/>
<feColorMatrix in="SourceAlpha" type="matrix" values="0 0 0 0 0 0 0 0 0 0 0 0 0 0 0 0 0 0 127 0" result="hardAlpha"/>
<feOffset dy="1"/>
<feColorMatrix type="matrix" values="0 0 0 0 0 0 0 0 0 0 0 0 0 0 0 0 0 0 0.3 0"/>
<feBlend mode="normal" in2="BackgroundImageFix" result="effect1_dropShadow_325_16136"/>
<feBlend mode="normal" in="SourceGraphic" in2="effect1_dropShadow_325_16136" result="shape"/>
</filter>
<filter id="filter25_d_325_16136" x="202" y="306" width="32" height="44" filterUnits="userSpaceOnUse" color-interpolation-filters="sRGB">
<feFlood flood-opacity="0" result="BackgroundImageFix"/>
<feColorMatrix in="SourceAlpha" type="matrix" values="0 0 0 0 0 0 0 0 0 0 0 0 0 0 0 0 0 0 127 0" result="hardAlpha"/>
<feOffset dy="1"/>
<feColorMatrix type="matrix" values="0 0 0 0 0 0 0 0 0 0 0 0 0 0 0 0 0 0 0.3 0"/>
<feBlend mode="normal" in2="BackgroundImageFix" result="effect1_dropShadow_325_16136"/>
<feBlend mode="normal" in="SourceGraphic" in2="effect1_dropShadow_325_16136" result="shape"/>
</filter>
<filter id="filter26_d_325_16136" x="240" y="306" width="32" height="44" filterUnits="userSpaceOnUse" color-interpolation-filters="sRGB">
<feFlood flood-opacity="0" result="BackgroundImageFix"/>
<feColorMatrix in="SourceAlpha" type="matrix" values="0 0 0 0 0 0 0 0 0 0 0 0 0 0 0 0 0 0 127 0" result="hardAlpha"/>
<feOffset dy="1"/>
<feColorMatrix type="matrix" values="0 0 0 0 0 0 0 0 0 0 0 0 0 0 0 0 0 0 0.3 0"/>
<feBlend mode="normal" in2="BackgroundImageFix" result="effect1_dropShadow_325_16136"/>
<feBlend mode="normal" in="SourceGraphic" in2="effect1_dropShadow_325_16136" result="shape"/>
</filter>
<filter id="filter27_d_325_16136" x="278" y="306" width="33" height="44" filterUnits="userSpaceOnUse" color-interpolation-filters="sRGB">
<feFlood flood-opacity="0" result="BackgroundImageFix"/>
<feColorMatrix in="SourceAlpha" type="matrix" values="0 0 0 0 0 0 0 0 0 0 0 0 0 0 0 0 0 0 127 0" result="hardAlpha"/>
<feOffset dy="1"/>
<feColorMatrix type="matrix" values="0 0 0 0 0 0 0 0 0 0 0 0 0 0 0 0 0 0 0.3 0"/>
<feBlend mode="normal" in2="BackgroundImageFix" result="effect1_dropShadow_325_16136"/>
<feBlend mode="normal" in="SourceGraphic" in2="effect1_dropShadow_325_16136" result="shape"/>
</filter>
<filter id="filter28_d_325_16136" x="317" y="306" width="32" height="44" filterUnits="userSpaceOnUse" color-interpolation-filters="sRGB">
<feFlood flood-opacity="0" result="BackgroundImageFix"/>
<feColorMatrix in="SourceAlpha" type="matrix" values="0 0 0 0 0 0 0 0 0 0 0 0 0 0 0 0 0 0 127 0" result="hardAlpha"/>
<feOffset dy="1"/>
<feColorMatrix type="matrix" values="0 0 0 0 0 0 0 0 0 0 0 0 0 0 0 0 0 0 0.3 0"/>
<feBlend mode="normal" in2="BackgroundImageFix" result="effect1_dropShadow_325_16136"/>
<feBlend mode="normal" in="SourceGraphic" in2="effect1_dropShadow_325_16136" result="shape"/>
</filter>
<filter id="filter29_d_325_16136" x="355" y="306" width="33" height="44" filterUnits="userSpaceOnUse" color-interpolation-filters="sRGB">
<feFlood flood-opacity="0" result="BackgroundImageFix"/>
<feColorMatrix in="SourceAlpha" type="matrix" values="0 0 0 0 0 0 0 0 0 0 0 0 0 0 0 0 0 0 127 0" result="hardAlpha"/>
<feOffset dy="1"/>
<feColorMatrix type="matrix" values="0 0 0 0 0 0 0 0 0 0 0 0 0 0 0 0 0 0 0.3 0"/>
<feBlend mode="normal" in2="BackgroundImageFix" result="effect1_dropShadow_325_16136"/>
<feBlend mode="normal" in="SourceGraphic" in2="effect1_dropShadow_325_16136" result="shape"/>
</filter>
<filter id="filter30_d_325_16136" x="7" y="414" width="42" height="44" filterUnits="userSpaceOnUse" color-interpolation-filters="sRGB">
<feFlood flood-opacity="0" result="BackgroundImageFix"/>
<feColorMatrix in="SourceAlpha" type="matrix" values="0 0 0 0 0 0 0 0 0 0 0 0 0 0 0 0 0 0 127 0" result="hardAlpha"/>
<feOffset dy="1"/>
<feColorMatrix type="matrix" values="0 0 0 0 0 0 0 0 0 0 0 0 0 0 0 0 0 0 0.3 0"/>
<feBlend mode="normal" in2="BackgroundImageFix" result="effect1_dropShadow_325_16136"/>
<feBlend mode="normal" in="SourceGraphic" in2="effect1_dropShadow_325_16136" result="shape"/>
</filter>
<filter id="filter31_d_325_16136" x="349" y="414" width="42" height="43" filterUnits="userSpaceOnUse" color-interpolation-filters="sRGB">
<feFlood flood-opacity="0" result="BackgroundImageFix"/>
<feColorMatrix in="SourceAlpha" type="matrix" values="0 0 0 0 0 0 0 0 0 0 0 0 0 0 0 0 0 0 127 0" result="hardAlpha"/>
<feOffset dy="1"/>
<feColorMatrix type="matrix" values="0 0 0 0 0 0 0 0 0 0 0 0 0 0 0 0 0 0 0.3 0"/>
<feBlend mode="normal" in2="BackgroundImageFix" result="effect1_dropShadow_325_16136"/>
<feBlend mode="normal" in="SourceGraphic" in2="effect1_dropShadow_325_16136" result="shape"/>
</filter>
<filter id="filter32_d_325_16136" x="7" y="470" width="40" height="44" filterUnits="userSpaceOnUse" color-interpolation-filters="sRGB">
<feFlood flood-opacity="0" result="BackgroundImageFix"/>
<feColorMatrix in="SourceAlpha" type="matrix" values="0 0 0 0 0 0 0 0 0 0 0 0 0 0 0 0 0 0 127 0" result="hardAlpha"/>
<feOffset dy="1"/>
<feColorMatrix type="matrix" values="0 0 0 0 0 0 0 0 0 0 0 0 0 0 0 0 0 0 0.3 0"/>
<feBlend mode="normal" in2="BackgroundImageFix" result="effect1_dropShadow_325_16136"/>
<feBlend mode="normal" in="SourceGraphic" in2="effect1_dropShadow_325_16136" result="shape"/>
</filter>
<filter id="filter33_d_325_16136" x="101" y="470" width="32" height="43" filterUnits="userSpaceOnUse" color-interpolation-filters="sRGB">
<feFlood flood-opacity="0" result="BackgroundImageFix"/>
<feColorMatrix in="SourceAlpha" type="matrix" values="0 0 0 0 0 0 0 0 0 0 0 0 0 0 0 0 0 0 127 0" result="hardAlpha"/>
<feOffset dy="1"/>
<feColorMatrix type="matrix" values="0 0 0 0 0 0 0 0 0 0 0 0 0 0 0 0 0 0 0.3 0"/>
<feBlend mode="normal" in2="BackgroundImageFix" result="effect1_dropShadow_325_16136"/>
<feBlend mode="normal" in="SourceGraphic" in2="effect1_dropShadow_325_16136" result="shape"/>
</filter>
<filter id="filter34_d_325_16136" x="54" y="470" width="40" height="44" filterUnits="userSpaceOnUse" color-interpolation-filters="sRGB">
<feFlood flood-opacity="0" result="BackgroundImageFix"/>
<feColorMatrix in="SourceAlpha" type="matrix" values="0 0 0 0 0 0 0 0 0 0 0 0 0 0 0 0 0 0 127 0" result="hardAlpha"/>
<feOffset dy="1"/>
<feColorMatrix type="matrix" values="0 0 0 0 0 0 0 0 0 0 0 0 0 0 0 0 0 0 0.3 0"/>
<feBlend mode="normal" in2="BackgroundImageFix" result="effect1_dropShadow_325_16136"/>
<feBlend mode="normal" in="SourceGraphic" in2="effect1_dropShadow_325_16136" result="shape"/>
</filter>
<filter id="filter35_d_325_16136" x="139" y="470" width="158" height="44" filterUnits="userSpaceOnUse" color-interpolation-filters="sRGB">
<feFlood flood-opacity="0" result="BackgroundImageFix"/>
<feColorMatrix in="SourceAlpha" type="matrix" values="0 0 0 0 0 0 0 0 0 0 0 0 0 0 0 0 0 0 127 0" result="hardAlpha"/>
<feOffset dy="1"/>
<feColorMatrix type="matrix" values="0 0 0 0 0 0 0 0 0 0 0 0 0 0 0 0 0 0 0.3 0"/>
<feBlend mode="normal" in2="BackgroundImageFix" result="effect1_dropShadow_325_16136"/>
<feBlend mode="normal" in="SourceGraphic" in2="effect1_dropShadow_325_16136" result="shape"/>
</filter>
<filter id="filter36_d_325_16136" x="304" y="470" width="87" height="44" filterUnits="userSpaceOnUse" color-interpolation-filters="sRGB">
<feFlood flood-opacity="0" result="BackgroundImageFix"/>
<feColorMatrix in="SourceAlpha" type="matrix" values="0 0 0 0 0 0 0 0 0 0 0 0 0 0 0 0 0 0 127 0" result="hardAlpha"/>
<feOffset dy="1"/>
<feColorMatrix type="matrix" values="0 0 0 0 0 0 0 0 0 0 0 0 0 0 0 0 0 0 0.3 0"/>
<feBlend mode="normal" in2="BackgroundImageFix" result="effect1_dropShadow_325_16136"/>
<feBlend mode="normal" in="SourceGraphic" in2="effect1_dropShadow_325_16136" result="shape"/>
</filter>
<clipPath id="clip0_325_16136">
<rect width="390" height="218" fill="white" transform="translate(4 298)"/>
</clipPath>
</defs>
</svg>
