<svg width="413" height="462" viewBox="0 0 413 462" fill="none" xmlns="http://www.w3.org/2000/svg">
<rect x="20" y="20" width="358" height="203" rx="10" fill="#CDE4E6"/>
<path d="M20 30C20 24.4772 24.4772 20 30 20H368C373.523 20 378 24.4772 378 30V67H20V30Z" fill="#5FA9AE"/>
<path d="M46.744 39.8L41.864 51H39.816L34.92 39.8H37.176L40.904 48.44L44.664 39.8H46.744ZM50.9333 51.112C50.0693 51.112 49.2906 50.9253 48.5973 50.552C47.9039 50.1787 47.3599 49.6613 46.9653 49C46.5813 48.328 46.3893 47.5707 46.3893 46.728C46.3893 45.8853 46.5813 45.1333 46.9653 44.472C47.3599 43.8107 47.9039 43.2933 48.5973 42.92C49.2906 42.5467 50.0693 42.36 50.9333 42.36C51.8079 42.36 52.5919 42.5467 53.2853 42.92C53.9786 43.2933 54.5173 43.8107 54.9013 44.472C55.2959 45.1333 55.4933 45.8853 55.4933 46.728C55.4933 47.5707 55.2959 48.328 54.9013 49C54.5173 49.6613 53.9786 50.1787 53.2853 50.552C52.5919 50.9253 51.8079 51.112 50.9333 51.112ZM50.9333 49.4C51.6693 49.4 52.2773 49.1547 52.7573 48.664C53.2373 48.1733 53.4773 47.528 53.4773 46.728C53.4773 45.928 53.2373 45.2827 52.7573 44.792C52.2773 44.3013 51.6693 44.056 50.9333 44.056C50.1973 44.056 49.5893 44.3013 49.1093 44.792C48.6399 45.2827 48.4053 45.928 48.4053 46.728C48.4053 47.528 48.6399 48.1733 49.1093 48.664C49.5893 49.1547 50.1973 49.4 50.9333 49.4ZM57.4058 39.128H59.4058V51H57.4058V39.128ZM64.6708 51.112C63.9774 51.112 63.3001 51.0213 62.6388 50.84C61.9774 50.6587 61.4494 50.4293 61.0548 50.152L61.8228 48.632C62.2068 48.888 62.6654 49.096 63.1988 49.256C63.7428 49.4053 64.2761 49.48 64.7988 49.48C65.9934 49.48 66.5908 49.1653 66.5908 48.536C66.5908 48.2373 66.4361 48.0293 66.1268 47.912C65.8281 47.7947 65.3428 47.6827 64.6708 47.576C63.9668 47.4693 63.3908 47.3467 62.9428 47.208C62.5054 47.0693 62.1214 46.8293 61.7908 46.488C61.4708 46.136 61.3108 45.6507 61.3108 45.032C61.3108 44.2213 61.6468 43.576 62.3188 43.096C63.0014 42.6053 63.9188 42.36 65.0708 42.36C65.6574 42.36 66.2441 42.4293 66.8308 42.568C67.4174 42.696 67.8974 42.872 68.2708 43.096L67.5028 44.616C66.7774 44.1893 65.9614 43.976 65.0548 43.976C64.4681 43.976 64.0201 44.0667 63.7108 44.248C63.4121 44.4187 63.2628 44.648 63.2628 44.936C63.2628 45.256 63.4228 45.4853 63.7428 45.624C64.0734 45.752 64.5801 45.8747 65.2628 45.992C65.9454 46.0987 66.5054 46.2213 66.9428 46.36C67.3801 46.4987 67.7534 46.7333 68.0628 47.064C68.3828 47.3947 68.5428 47.864 68.5428 48.472C68.5428 49.272 68.1961 49.912 67.5028 50.392C66.8094 50.872 65.8654 51.112 64.6708 51.112ZM78.607 51.112C77.7217 51.112 76.927 50.9253 76.223 50.552C75.519 50.1787 74.9697 49.6613 74.575 49C74.1803 48.328 73.983 47.5707 73.983 46.728C73.983 45.8853 74.1803 45.1333 74.575 44.472C74.9697 43.8107 75.5137 43.2933 76.207 42.92C76.911 42.5467 77.711 42.36 78.607 42.36C79.4497 42.36 80.1857 42.5307 80.815 42.872C81.455 43.2133 81.935 43.704 82.255 44.344L80.719 45.24C80.4737 44.8453 80.1643 44.552 79.791 44.36C79.4283 44.1573 79.0283 44.056 78.591 44.056C77.8443 44.056 77.2257 44.3013 76.735 44.792C76.2443 45.272 75.999 45.9173 75.999 46.728C75.999 47.5387 76.239 48.1893 76.719 48.68C77.2097 49.16 77.8337 49.4 78.591 49.4C79.0283 49.4 79.4283 49.304 79.791 49.112C80.1643 48.9093 80.4737 48.6107 80.719 48.216L82.255 49.112C81.9243 49.752 81.439 50.248 80.799 50.6C80.1697 50.9413 79.439 51.112 78.607 51.112ZM87.2479 42.36C88.5065 42.36 89.4665 42.664 90.1279 43.272C90.7999 43.8693 91.1359 44.776 91.1359 45.992V51H89.2479V49.96C89.0025 50.3333 88.6505 50.6213 88.1919 50.824C87.7439 51.016 87.1999 51.112 86.5599 51.112C85.9199 51.112 85.3599 51.0053 84.8799 50.792C84.3999 50.568 84.0265 50.264 83.7599 49.88C83.5039 49.4853 83.3759 49.0427 83.3759 48.552C83.3759 47.784 83.6585 47.1707 84.2239 46.712C84.7999 46.2427 85.7012 46.008 86.9279 46.008H89.1359V45.88C89.1359 45.2827 88.9545 44.824 88.5919 44.504C88.2399 44.184 87.7119 44.024 87.0079 44.024C86.5279 44.024 86.0532 44.0987 85.5839 44.248C85.1252 44.3973 84.7359 44.6053 84.4159 44.872L83.6319 43.416C84.0799 43.0747 84.6185 42.8133 85.2479 42.632C85.8772 42.4507 86.5439 42.36 87.2479 42.36ZM86.9759 49.656C87.4772 49.656 87.9199 49.544 88.3039 49.32C88.6985 49.0853 88.9759 48.7547 89.1359 48.328V47.336H87.0719C85.9199 47.336 85.3439 47.7147 85.3439 48.472C85.3439 48.8347 85.4879 49.1227 85.7759 49.336C86.0639 49.5493 86.4639 49.656 86.9759 49.656ZM98.5506 42.36C99.628 42.36 100.492 42.6747 101.143 43.304C101.793 43.9333 102.119 44.8667 102.119 46.104V51H100.119V46.36C100.119 45.6133 99.9426 45.0533 99.5906 44.68C99.2386 44.296 98.7373 44.104 98.0866 44.104C97.3506 44.104 96.7693 44.328 96.3426 44.776C95.916 45.2133 95.7026 45.848 95.7026 46.68V51H93.7026V42.456H95.6066V43.56C95.9373 43.1653 96.3533 42.8667 96.8546 42.664C97.356 42.4613 97.9213 42.36 98.5506 42.36ZM108.654 51.112C107.769 51.112 106.974 50.9253 106.27 50.552C105.566 50.1787 105.017 49.6613 104.622 49C104.227 48.328 104.03 47.5707 104.03 46.728C104.03 45.8853 104.227 45.1333 104.622 44.472C105.017 43.8107 105.561 43.2933 106.254 42.92C106.958 42.5467 107.758 42.36 108.654 42.36C109.497 42.36 110.233 42.5307 110.862 42.872C111.502 43.2133 111.982 43.704 112.302 44.344L110.766 45.24C110.521 44.8453 110.211 44.552 109.838 44.36C109.475 44.1573 109.075 44.056 108.638 44.056C107.891 44.056 107.273 44.3013 106.782 44.792C106.291 45.272 106.046 45.9173 106.046 46.728C106.046 47.5387 106.286 48.1893 106.766 48.68C107.257 49.16 107.881 49.4 108.638 49.4C109.075 49.4 109.475 49.304 109.838 49.112C110.211 48.9093 110.521 48.6107 110.766 48.216L112.302 49.112C111.971 49.752 111.486 50.248 110.846 50.6C110.217 50.9413 109.486 51.112 108.654 51.112ZM121.938 46.776C121.938 46.9147 121.927 47.112 121.906 47.368H115.202C115.319 47.9973 115.623 48.4987 116.114 48.872C116.615 49.2347 117.234 49.416 117.97 49.416C118.908 49.416 119.682 49.1067 120.29 48.488L121.362 49.72C120.978 50.1787 120.492 50.5253 119.906 50.76C119.319 50.9947 118.658 51.112 117.922 51.112C116.983 51.112 116.156 50.9253 115.442 50.552C114.727 50.1787 114.172 49.6613 113.778 49C113.394 48.328 113.202 47.5707 113.202 46.728C113.202 45.896 113.388 45.1493 113.762 44.488C114.146 43.816 114.674 43.2933 115.346 42.92C116.018 42.5467 116.775 42.36 117.618 42.36C118.45 42.36 119.191 42.5467 119.842 42.92C120.503 43.2827 121.015 43.8 121.378 44.472C121.751 45.1333 121.938 45.9013 121.938 46.776ZM117.618 43.96C116.978 43.96 116.434 44.152 115.986 44.536C115.548 44.9093 115.282 45.4107 115.186 46.04H120.034C119.948 45.4213 119.687 44.92 119.25 44.536C118.812 44.152 118.268 43.96 117.618 43.96ZM123.859 39.128H125.859V51H123.859V39.128ZM129.124 51.112C128.761 51.112 128.452 50.9893 128.196 50.744C127.94 50.488 127.812 50.168 127.812 49.784C127.812 49.3893 127.935 49.0693 128.18 48.824C128.436 48.5787 128.751 48.456 129.124 48.456C129.497 48.456 129.807 48.5787 130.052 48.824C130.308 49.0693 130.436 49.3893 130.436 49.784C130.436 50.168 130.308 50.488 130.052 50.744C129.796 50.9893 129.487 51.112 129.124 51.112ZM132.39 39.128H134.39V51H132.39V39.128ZM140.279 42.36C141.538 42.36 142.498 42.664 143.159 43.272C143.831 43.8693 144.167 44.776 144.167 45.992V51H142.279V49.96C142.034 50.3333 141.682 50.6213 141.223 50.824C140.775 51.016 140.231 51.112 139.591 51.112C138.951 51.112 138.391 51.0053 137.911 50.792C137.431 50.568 137.058 50.264 136.791 49.88C136.535 49.4853 136.407 49.0427 136.407 48.552C136.407 47.784 136.69 47.1707 137.255 46.712C137.831 46.2427 138.732 46.008 139.959 46.008H142.167V45.88C142.167 45.2827 141.986 44.824 141.623 44.504C141.271 44.184 140.743 44.024 140.039 44.024C139.559 44.024 139.084 44.0987 138.615 44.248C138.156 44.3973 137.767 44.6053 137.447 44.872L136.663 43.416C137.111 43.0747 137.65 42.8133 138.279 42.632C138.908 42.4507 139.575 42.36 140.279 42.36ZM140.007 49.656C140.508 49.656 140.951 49.544 141.335 49.32C141.73 49.0853 142.007 48.7547 142.167 48.328V47.336H140.103C138.951 47.336 138.375 47.7147 138.375 48.472C138.375 48.8347 138.519 49.1227 138.807 49.336C139.095 49.5493 139.495 49.656 140.007 49.656ZM148.638 43.704C149.214 42.808 150.227 42.36 151.678 42.36V44.264C151.507 44.232 151.353 44.216 151.214 44.216C150.435 44.216 149.827 44.4453 149.39 44.904C148.953 45.352 148.734 46.0027 148.734 46.856V51H146.734V42.456H148.638V43.704ZM157.875 39.128H159.875V51H157.875V39.128ZM165.764 42.36C167.022 42.36 167.982 42.664 168.644 43.272C169.316 43.8693 169.652 44.776 169.652 45.992V51H167.764V49.96C167.518 50.3333 167.166 50.6213 166.708 50.824C166.26 51.016 165.716 51.112 165.076 51.112C164.436 51.112 163.876 51.0053 163.396 50.792C162.916 50.568 162.542 50.264 162.276 49.88C162.02 49.4853 161.892 49.0427 161.892 48.552C161.892 47.784 162.174 47.1707 162.74 46.712C163.316 46.2427 164.217 46.008 165.444 46.008H167.652V45.88C167.652 45.2827 167.47 44.824 167.108 44.504C166.756 44.184 166.228 44.024 165.524 44.024C165.044 44.024 164.569 44.0987 164.1 44.248C163.641 44.3973 163.252 44.6053 162.932 44.872L162.148 43.416C162.596 43.0747 163.134 42.8133 163.764 42.632C164.393 42.4507 165.06 42.36 165.764 42.36ZM165.492 49.656C165.993 49.656 166.436 49.544 166.82 49.32C167.214 49.0853 167.492 48.7547 167.652 48.328V47.336H165.588C164.436 47.336 163.86 47.7147 163.86 48.472C163.86 48.8347 164.004 49.1227 164.292 49.336C164.58 49.5493 164.98 49.656 165.492 49.656ZM180.56 51.112C179.675 51.112 178.88 50.9253 178.176 50.552C177.472 50.1787 176.923 49.6613 176.528 49C176.133 48.328 175.936 47.5707 175.936 46.728C175.936 45.8853 176.133 45.1333 176.528 44.472C176.923 43.8107 177.467 43.2933 178.16 42.92C178.864 42.5467 179.664 42.36 180.56 42.36C181.403 42.36 182.139 42.5307 182.768 42.872C183.408 43.2133 183.888 43.704 184.208 44.344L182.672 45.24C182.427 44.8453 182.117 44.552 181.744 44.36C181.381 44.1573 180.981 44.056 180.544 44.056C179.797 44.056 179.179 44.3013 178.688 44.792C178.197 45.272 177.952 45.9173 177.952 46.728C177.952 47.5387 178.192 48.1893 178.672 48.68C179.163 49.16 179.787 49.4 180.544 49.4C180.981 49.4 181.381 49.304 181.744 49.112C182.117 48.9093 182.427 48.6107 182.672 48.216L184.208 49.112C183.877 49.752 183.392 50.248 182.752 50.6C182.123 50.9413 181.392 51.112 180.56 51.112ZM185.937 42.456H187.937V51H185.937V42.456ZM186.945 41.048C186.582 41.048 186.278 40.936 186.033 40.712C185.788 40.4773 185.665 40.1893 185.665 39.848C185.665 39.5067 185.788 39.224 186.033 39C186.278 38.7653 186.582 38.648 186.945 38.648C187.308 38.648 187.612 38.76 187.857 38.984C188.102 39.1973 188.225 39.4693 188.225 39.8C188.225 40.152 188.102 40.4507 187.857 40.696C187.622 40.9307 187.318 41.048 186.945 41.048ZM195.698 50.536C195.463 50.728 195.175 50.872 194.834 50.968C194.503 51.064 194.151 51.112 193.778 51.112C192.839 51.112 192.114 50.8667 191.602 50.376C191.09 49.8853 190.834 49.1707 190.834 48.232V44.12H189.426V42.52H190.834V40.568H192.834V42.52H195.122V44.12H192.834V48.184C192.834 48.6 192.935 48.92 193.138 49.144C193.341 49.3573 193.634 49.464 194.018 49.464C194.466 49.464 194.839 49.3467 195.138 49.112L195.698 50.536ZM200.607 42.36C201.866 42.36 202.826 42.664 203.487 43.272C204.159 43.8693 204.495 44.776 204.495 45.992V51H202.607V49.96C202.362 50.3333 202.01 50.6213 201.551 50.824C201.103 51.016 200.559 51.112 199.919 51.112C199.279 51.112 198.719 51.0053 198.239 50.792C197.759 50.568 197.386 50.264 197.119 49.88C196.863 49.4853 196.735 49.0427 196.735 48.552C196.735 47.784 197.018 47.1707 197.583 46.712C198.159 46.2427 199.061 46.008 200.287 46.008H202.495V45.88C202.495 45.2827 202.314 44.824 201.951 44.504C201.599 44.184 201.071 44.024 200.367 44.024C199.887 44.024 199.413 44.0987 198.943 44.248C198.485 44.3973 198.095 44.6053 197.775 44.872L196.991 43.416C197.439 43.0747 197.978 42.8133 198.607 42.632C199.237 42.4507 199.903 42.36 200.607 42.36ZM200.335 49.656C200.837 49.656 201.279 49.544 201.663 49.32C202.058 49.0853 202.335 48.7547 202.495 48.328V47.336H200.431C199.279 47.336 198.703 47.7147 198.703 48.472C198.703 48.8347 198.847 49.1227 199.135 49.336C199.423 49.5493 199.823 49.656 200.335 49.656ZM208.583 47.288C208.583 46.712 208.711 46.2373 208.967 45.864C209.234 45.48 209.618 45.064 210.119 44.616C210.503 44.2747 210.786 43.9813 210.967 43.736C211.159 43.48 211.255 43.192 211.255 42.872C211.255 42.424 211.074 42.0613 210.711 41.784C210.349 41.5067 209.863 41.368 209.255 41.368C208.103 41.368 207.234 41.7787 206.647 42.6L205.095 41.592C205.554 40.9627 206.146 40.4827 206.871 40.152C207.597 39.8107 208.45 39.64 209.431 39.64C210.626 39.64 211.575 39.9013 212.279 40.424C212.994 40.936 213.351 41.6453 213.351 42.552C213.351 42.9893 213.277 43.3733 213.127 43.704C212.989 44.0347 212.818 44.3173 212.615 44.552C212.413 44.776 212.146 45.0373 211.815 45.336C211.41 45.6987 211.106 46.0187 210.903 46.296C210.711 46.5733 210.615 46.904 210.615 47.288H208.583ZM209.607 51.112C209.234 51.112 208.925 50.9947 208.679 50.76C208.445 50.5147 208.327 50.216 208.327 49.864C208.327 49.512 208.445 49.2187 208.679 48.984C208.925 48.7493 209.234 48.632 209.607 48.632C209.97 48.632 210.269 48.7493 210.503 48.984C210.749 49.2187 210.871 49.512 210.871 49.864C210.871 50.216 210.749 50.5147 210.503 50.76C210.269 50.9947 209.97 51.112 209.607 51.112Z" fill="#FDFDFD"/>
<rect x="211" y="140" width="59" height="43" rx="21.5" fill="#35B549"/>
<path d="M238.523 167.112C237.786 167.112 237.072 167 236.381 166.776C235.7 166.543 235.163 166.244 234.771 165.88L235.289 164.788C235.662 165.124 236.138 165.399 236.717 165.614C237.305 165.819 237.907 165.922 238.523 165.922C239.335 165.922 239.942 165.787 240.343 165.516C240.744 165.236 240.945 164.867 240.945 164.41C240.945 164.074 240.833 163.803 240.609 163.598C240.394 163.383 240.124 163.22 239.797 163.108C239.48 162.996 239.027 162.87 238.439 162.73C237.702 162.553 237.104 162.375 236.647 162.198C236.199 162.021 235.812 161.75 235.485 161.386C235.168 161.013 235.009 160.513 235.009 159.888C235.009 159.365 235.144 158.894 235.415 158.474C235.695 158.054 236.115 157.718 236.675 157.466C237.235 157.214 237.93 157.088 238.761 157.088C239.34 157.088 239.909 157.163 240.469 157.312C241.029 157.461 241.51 157.676 241.911 157.956L241.449 159.076C241.038 158.815 240.6 158.619 240.133 158.488C239.666 158.348 239.209 158.278 238.761 158.278C237.968 158.278 237.37 158.423 236.969 158.712C236.577 159.001 236.381 159.375 236.381 159.832C236.381 160.168 236.493 160.443 236.717 160.658C236.941 160.863 237.216 161.027 237.543 161.148C237.879 161.26 238.332 161.381 238.901 161.512C239.638 161.689 240.231 161.867 240.679 162.044C241.127 162.221 241.51 162.492 241.827 162.856C242.154 163.22 242.317 163.71 242.317 164.326C242.317 164.839 242.177 165.311 241.897 165.74C241.617 166.16 241.192 166.496 240.623 166.748C240.054 166.991 239.354 167.112 238.523 167.112ZM244.166 159.58H245.51V167H244.166V159.58ZM244.838 158.152C244.577 158.152 244.358 158.068 244.18 157.9C244.012 157.732 243.928 157.527 243.928 157.284C243.928 157.041 244.012 156.836 244.18 156.668C244.358 156.491 244.577 156.402 244.838 156.402C245.1 156.402 245.314 156.486 245.482 156.654C245.66 156.813 245.748 157.013 245.748 157.256C245.748 157.508 245.66 157.723 245.482 157.9C245.314 158.068 245.1 158.152 244.838 158.152Z" fill="#FDFDFD"/>
<rect x="128" y="140" width="59" height="43" rx="21.5" fill="#E3655D"/>
<path d="M157.274 157.2V167H156.126L150.246 159.692V167H148.846V157.2H149.994L155.874 164.508V157.2H157.274ZM163.189 167.084C162.452 167.084 161.789 166.921 161.201 166.594C160.613 166.267 160.151 165.819 159.815 165.25C159.488 164.671 159.325 164.018 159.325 163.29C159.325 162.562 159.488 161.913 159.815 161.344C160.151 160.765 160.613 160.317 161.201 160C161.789 159.673 162.452 159.51 163.189 159.51C163.926 159.51 164.584 159.673 165.163 160C165.751 160.317 166.208 160.765 166.535 161.344C166.871 161.913 167.039 162.562 167.039 163.29C167.039 164.018 166.871 164.671 166.535 165.25C166.208 165.819 165.751 166.267 165.163 166.594C164.584 166.921 163.926 167.084 163.189 167.084ZM163.189 165.908C163.665 165.908 164.09 165.801 164.463 165.586C164.846 165.362 165.144 165.054 165.359 164.662C165.574 164.261 165.681 163.803 165.681 163.29C165.681 162.777 165.574 162.324 165.359 161.932C165.144 161.531 164.846 161.223 164.463 161.008C164.09 160.793 163.665 160.686 163.189 160.686C162.713 160.686 162.284 160.793 161.901 161.008C161.528 161.223 161.229 161.531 161.005 161.932C160.79 162.324 160.683 162.777 160.683 163.29C160.683 163.803 160.79 164.261 161.005 164.662C161.229 165.054 161.528 165.362 161.901 165.586C162.284 165.801 162.713 165.908 163.189 165.908Z" fill="#FDFDFD"/>
<rect x="20" y="237" width="358" height="203" rx="10" fill="#CDE4E6"/>
<path d="M20 247C20 241.477 24.4772 237 30 237H368C373.523 237 378 241.477 378 247V284H20V247Z" fill="#5FA9AE"/>
<path d="M41.688 268.16C40.5573 268.16 39.5333 267.915 38.616 267.424C37.7093 266.923 36.9947 266.235 36.472 265.36C35.96 264.485 35.704 263.499 35.704 262.4C35.704 261.301 35.9653 260.315 36.488 259.44C37.0107 258.565 37.7253 257.883 38.632 257.392C39.5493 256.891 40.5733 256.64 41.704 256.64C42.6213 256.64 43.4587 256.8 44.216 257.12C44.9733 257.44 45.6133 257.904 46.136 258.512L44.792 259.776C43.9813 258.901 42.984 258.464 41.8 258.464C41.032 258.464 40.344 258.635 39.736 258.976C39.128 259.307 38.6533 259.771 38.312 260.368C37.9707 260.965 37.8 261.643 37.8 262.4C37.8 263.157 37.9707 263.835 38.312 264.432C38.6533 265.029 39.128 265.499 39.736 265.84C40.344 266.171 41.032 266.336 41.8 266.336C42.984 266.336 43.9813 265.893 44.792 265.008L46.136 266.288C45.6133 266.896 44.968 267.36 44.2 267.68C43.4427 268 42.6053 268.16 41.688 268.16ZM47.937 259.456H49.937V268H47.937V259.456ZM48.945 258.048C48.5823 258.048 48.2783 257.936 48.033 257.712C47.7877 257.477 47.665 257.189 47.665 256.848C47.665 256.507 47.7877 256.224 48.033 256C48.2783 255.765 48.5823 255.648 48.945 255.648C49.3077 255.648 49.6117 255.76 49.857 255.984C50.1023 256.197 50.225 256.469 50.225 256.8C50.225 257.152 50.1023 257.451 49.857 257.696C49.6223 257.931 49.3183 258.048 48.945 258.048ZM57.698 267.536C57.4633 267.728 57.1753 267.872 56.834 267.968C56.5033 268.064 56.1513 268.112 55.778 268.112C54.8393 268.112 54.114 267.867 53.602 267.376C53.09 266.885 52.834 266.171 52.834 265.232V261.12H51.426V259.52H52.834V257.568H54.834V259.52H57.122V261.12H54.834V265.184C54.834 265.6 54.9353 265.92 55.138 266.144C55.3407 266.357 55.634 266.464 56.018 266.464C56.466 266.464 56.8393 266.347 57.138 266.112L57.698 267.536ZM62.6073 259.36C63.8659 259.36 64.8259 259.664 65.4873 260.272C66.1593 260.869 66.4953 261.776 66.4953 262.992V268H64.6073V266.96C64.3619 267.333 64.0099 267.621 63.5513 267.824C63.1033 268.016 62.5593 268.112 61.9193 268.112C61.2793 268.112 60.7193 268.005 60.2393 267.792C59.7593 267.568 59.3859 267.264 59.1193 266.88C58.8633 266.485 58.7353 266.043 58.7353 265.552C58.7353 264.784 59.0179 264.171 59.5833 263.712C60.1593 263.243 61.0606 263.008 62.2873 263.008H64.4953V262.88C64.4953 262.283 64.3139 261.824 63.9513 261.504C63.5993 261.184 63.0713 261.024 62.3673 261.024C61.8873 261.024 61.4126 261.099 60.9433 261.248C60.4846 261.397 60.0953 261.605 59.7753 261.872L58.9913 260.416C59.4393 260.075 59.9779 259.813 60.6073 259.632C61.2366 259.451 61.9033 259.36 62.6073 259.36ZM62.3353 266.656C62.8366 266.656 63.2793 266.544 63.6633 266.32C64.0579 266.085 64.3353 265.755 64.4953 265.328V264.336H62.4313C61.2793 264.336 60.7033 264.715 60.7033 265.472C60.7033 265.835 60.8473 266.123 61.1353 266.336C61.4233 266.549 61.8233 266.656 62.3353 266.656ZM77.4039 268.112C76.5185 268.112 75.7239 267.925 75.0199 267.552C74.3159 267.179 73.7665 266.661 73.3719 266C72.9772 265.328 72.7799 264.571 72.7799 263.728C72.7799 262.885 72.9772 262.133 73.3719 261.472C73.7665 260.811 74.3105 260.293 75.0039 259.92C75.7079 259.547 76.5079 259.36 77.4039 259.36C78.2465 259.36 78.9825 259.531 79.6119 259.872C80.2519 260.213 80.7319 260.704 81.0519 261.344L79.5159 262.24C79.2705 261.845 78.9612 261.552 78.5879 261.36C78.2252 261.157 77.8252 261.056 77.3879 261.056C76.6412 261.056 76.0225 261.301 75.5319 261.792C75.0412 262.272 74.7959 262.917 74.7959 263.728C74.7959 264.539 75.0359 265.189 75.5159 265.68C76.0065 266.16 76.6305 266.4 77.3879 266.4C77.8252 266.4 78.2252 266.304 78.5879 266.112C78.9612 265.909 79.2705 265.611 79.5159 265.216L81.0519 266.112C80.7212 266.752 80.2359 267.248 79.5959 267.6C78.9665 267.941 78.2359 268.112 77.4039 268.112ZM86.0448 259.36C87.3034 259.36 88.2634 259.664 88.9248 260.272C89.5968 260.869 89.9328 261.776 89.9328 262.992V268H88.0448V266.96C87.7994 267.333 87.4474 267.621 86.9888 267.824C86.5408 268.016 85.9968 268.112 85.3568 268.112C84.7168 268.112 84.1568 268.005 83.6768 267.792C83.1968 267.568 82.8234 267.264 82.5568 266.88C82.3008 266.485 82.1728 266.043 82.1728 265.552C82.1728 264.784 82.4554 264.171 83.0208 263.712C83.5968 263.243 84.4981 263.008 85.7248 263.008H87.9328V262.88C87.9328 262.283 87.7514 261.824 87.3888 261.504C87.0368 261.184 86.5088 261.024 85.8048 261.024C85.3248 261.024 84.8501 261.099 84.3808 261.248C83.9221 261.397 83.5328 261.605 83.2128 261.872L82.4288 260.416C82.8768 260.075 83.4154 259.813 84.0448 259.632C84.6741 259.451 85.3408 259.36 86.0448 259.36ZM85.7728 266.656C86.2741 266.656 86.7168 266.544 87.1008 266.32C87.4954 266.085 87.7728 265.755 87.9328 265.328V264.336H85.8688C84.7168 264.336 84.1408 264.715 84.1408 265.472C84.1408 265.835 84.2848 266.123 84.5728 266.336C84.8608 266.549 85.2608 266.656 85.7728 266.656ZM97.3475 259.36C98.4248 259.36 99.2888 259.675 99.9395 260.304C100.59 260.933 100.916 261.867 100.916 263.104V268H98.9155V263.36C98.9155 262.613 98.7395 262.053 98.3875 261.68C98.0355 261.296 97.5342 261.104 96.8835 261.104C96.1475 261.104 95.5662 261.328 95.1395 261.776C94.7128 262.213 94.4995 262.848 94.4995 263.68V268H92.4995V259.456H94.4035V260.56C94.7342 260.165 95.1502 259.867 95.6515 259.664C96.1528 259.461 96.7182 259.36 97.3475 259.36ZM107.451 268.112C106.565 268.112 105.771 267.925 105.067 267.552C104.363 267.179 103.813 266.661 103.419 266C103.024 265.328 102.827 264.571 102.827 263.728C102.827 262.885 103.024 262.133 103.419 261.472C103.813 260.811 104.357 260.293 105.051 259.92C105.755 259.547 106.555 259.36 107.451 259.36C108.293 259.36 109.029 259.531 109.659 259.872C110.299 260.213 110.779 260.704 111.099 261.344L109.563 262.24C109.317 261.845 109.008 261.552 108.635 261.36C108.272 261.157 107.872 261.056 107.435 261.056C106.688 261.056 106.069 261.301 105.579 261.792C105.088 262.272 104.843 262.917 104.843 263.728C104.843 264.539 105.083 265.189 105.563 265.68C106.053 266.16 106.677 266.4 107.435 266.4C107.872 266.4 108.272 266.304 108.635 266.112C109.008 265.909 109.317 265.611 109.563 265.216L111.099 266.112C110.768 266.752 110.283 267.248 109.643 267.6C109.013 267.941 108.283 268.112 107.451 268.112ZM120.735 263.776C120.735 263.915 120.724 264.112 120.703 264.368H113.999C114.116 264.997 114.42 265.499 114.911 265.872C115.412 266.235 116.031 266.416 116.767 266.416C117.705 266.416 118.479 266.107 119.087 265.488L120.159 266.72C119.775 267.179 119.289 267.525 118.703 267.76C118.116 267.995 117.455 268.112 116.719 268.112C115.78 268.112 114.953 267.925 114.239 267.552C113.524 267.179 112.969 266.661 112.575 266C112.191 265.328 111.999 264.571 111.999 263.728C111.999 262.896 112.185 262.149 112.559 261.488C112.943 260.816 113.471 260.293 114.143 259.92C114.815 259.547 115.572 259.36 116.415 259.36C117.247 259.36 117.988 259.547 118.639 259.92C119.3 260.283 119.812 260.8 120.175 261.472C120.548 262.133 120.735 262.901 120.735 263.776ZM116.415 260.96C115.775 260.96 115.231 261.152 114.783 261.536C114.345 261.909 114.079 262.411 113.983 263.04H118.831C118.745 262.421 118.484 261.92 118.047 261.536C117.609 261.152 117.065 260.96 116.415 260.96ZM122.656 256.128H124.656V268H122.656V256.128ZM127.921 268.112C127.558 268.112 127.249 267.989 126.993 267.744C126.737 267.488 126.609 267.168 126.609 266.784C126.609 266.389 126.731 266.069 126.977 265.824C127.233 265.579 127.547 265.456 127.921 265.456C128.294 265.456 128.603 265.579 128.849 265.824C129.105 266.069 129.233 266.389 129.233 266.784C129.233 267.168 129.105 267.488 128.849 267.744C128.593 267.989 128.283 268.112 127.921 268.112ZM131.187 256.128H133.187V268H131.187V256.128ZM139.076 259.36C140.335 259.36 141.295 259.664 141.956 260.272C142.628 260.869 142.964 261.776 142.964 262.992V268H141.076V266.96C140.831 267.333 140.479 267.621 140.02 267.824C139.572 268.016 139.028 268.112 138.388 268.112C137.748 268.112 137.188 268.005 136.708 267.792C136.228 267.568 135.855 267.264 135.588 266.88C135.332 266.485 135.204 266.043 135.204 265.552C135.204 264.784 135.487 264.171 136.052 263.712C136.628 263.243 137.529 263.008 138.756 263.008H140.964V262.88C140.964 262.283 140.783 261.824 140.42 261.504C140.068 261.184 139.54 261.024 138.836 261.024C138.356 261.024 137.881 261.099 137.412 261.248C136.953 261.397 136.564 261.605 136.244 261.872L135.46 260.416C135.908 260.075 136.447 259.813 137.076 259.632C137.705 259.451 138.372 259.36 139.076 259.36ZM138.804 266.656C139.305 266.656 139.748 266.544 140.132 266.32C140.527 266.085 140.804 265.755 140.964 265.328V264.336H138.9C137.748 264.336 137.172 264.715 137.172 265.472C137.172 265.835 137.316 266.123 137.604 266.336C137.892 266.549 138.292 266.656 138.804 266.656ZM153.977 256.128V268H152.057V266.896C151.726 267.301 151.316 267.605 150.825 267.808C150.345 268.011 149.812 268.112 149.225 268.112C148.404 268.112 147.662 267.931 147.001 267.568C146.35 267.205 145.838 266.693 145.465 266.032C145.092 265.36 144.905 264.592 144.905 263.728C144.905 262.864 145.092 262.101 145.465 261.44C145.838 260.779 146.35 260.267 147.001 259.904C147.662 259.541 148.404 259.36 149.225 259.36C149.79 259.36 150.308 259.456 150.777 259.648C151.246 259.84 151.646 260.128 151.977 260.512V256.128H153.977ZM149.465 266.4C149.945 266.4 150.377 266.293 150.761 266.08C151.145 265.856 151.449 265.541 151.673 265.136C151.897 264.731 152.009 264.261 152.009 263.728C152.009 263.195 151.897 262.725 151.673 262.32C151.449 261.915 151.145 261.605 150.761 261.392C150.377 261.168 149.945 261.056 149.465 261.056C148.985 261.056 148.553 261.168 148.169 261.392C147.785 261.605 147.481 261.915 147.257 262.32C147.033 262.725 146.921 263.195 146.921 263.728C146.921 264.261 147.033 264.731 147.257 265.136C147.481 265.541 147.785 265.856 148.169 266.08C148.553 266.293 148.985 266.4 149.465 266.4ZM159.857 259.36C161.116 259.36 162.076 259.664 162.737 260.272C163.409 260.869 163.745 261.776 163.745 262.992V268H161.857V266.96C161.612 267.333 161.26 267.621 160.801 267.824C160.353 268.016 159.809 268.112 159.169 268.112C158.529 268.112 157.969 268.005 157.489 267.792C157.009 267.568 156.636 267.264 156.369 266.88C156.113 266.485 155.985 266.043 155.985 265.552C155.985 264.784 156.268 264.171 156.833 263.712C157.409 263.243 158.311 263.008 159.537 263.008H161.745V262.88C161.745 262.283 161.564 261.824 161.201 261.504C160.849 261.184 160.321 261.024 159.617 261.024C159.137 261.024 158.663 261.099 158.193 261.248C157.735 261.397 157.345 261.605 157.025 261.872L156.241 260.416C156.689 260.075 157.228 259.813 157.857 259.632C158.487 259.451 159.153 259.36 159.857 259.36ZM159.585 266.656C160.087 266.656 160.529 266.544 160.913 266.32C161.308 266.085 161.585 265.755 161.745 265.328V264.336H159.681C158.529 264.336 157.953 264.715 157.953 265.472C157.953 265.835 158.097 266.123 158.385 266.336C158.673 266.549 159.073 266.656 159.585 266.656ZM173.998 259.36C175.257 259.36 176.217 259.664 176.878 260.272C177.55 260.869 177.886 261.776 177.886 262.992V268H175.998V266.96C175.753 267.333 175.401 267.621 174.942 267.824C174.494 268.016 173.95 268.112 173.31 268.112C172.67 268.112 172.11 268.005 171.63 267.792C171.15 267.568 170.777 267.264 170.51 266.88C170.254 266.485 170.126 266.043 170.126 265.552C170.126 264.784 170.409 264.171 170.974 263.712C171.55 263.243 172.451 263.008 173.678 263.008H175.886V262.88C175.886 262.283 175.705 261.824 175.342 261.504C174.99 261.184 174.462 261.024 173.758 261.024C173.278 261.024 172.803 261.099 172.334 261.248C171.875 261.397 171.486 261.605 171.166 261.872L170.382 260.416C170.83 260.075 171.369 259.813 171.998 259.632C172.627 259.451 173.294 259.36 173.998 259.36ZM173.726 266.656C174.227 266.656 174.67 266.544 175.054 266.32C175.449 266.085 175.726 265.755 175.886 265.328V264.336H173.822C172.67 264.336 172.094 264.715 172.094 265.472C172.094 265.835 172.238 266.123 172.526 266.336C172.814 266.549 173.214 266.656 173.726 266.656ZM191.237 259.36C192.314 259.36 193.167 259.675 193.797 260.304C194.426 260.923 194.741 261.856 194.741 263.104V268H192.741V263.36C192.741 262.613 192.575 262.053 192.245 261.68C191.914 261.296 191.439 261.104 190.821 261.104C190.149 261.104 189.61 261.328 189.205 261.776C188.799 262.213 188.597 262.843 188.597 263.664V268H186.597V263.36C186.597 262.613 186.431 262.053 186.101 261.68C185.77 261.296 185.295 261.104 184.677 261.104C183.994 261.104 183.45 261.323 183.045 261.76C182.65 262.197 182.453 262.832 182.453 263.664V268H180.453V259.456H182.357V260.544C182.677 260.16 183.077 259.867 183.557 259.664C184.037 259.461 184.57 259.36 185.157 259.36C185.797 259.36 186.362 259.483 186.853 259.728C187.354 259.963 187.749 260.315 188.037 260.784C188.389 260.336 188.842 259.989 189.397 259.744C189.951 259.488 190.565 259.36 191.237 259.36ZM202.032 259.36C202.864 259.36 203.606 259.541 204.256 259.904C204.918 260.267 205.435 260.779 205.808 261.44C206.182 262.101 206.368 262.864 206.368 263.728C206.368 264.592 206.182 265.36 205.808 266.032C205.435 266.693 204.918 267.205 204.256 267.568C203.606 267.931 202.864 268.112 202.032 268.112C201.446 268.112 200.907 268.011 200.416 267.808C199.936 267.605 199.531 267.301 199.2 266.896V268H197.296V256.128H199.296V260.496C199.638 260.123 200.038 259.84 200.496 259.648C200.966 259.456 201.478 259.36 202.032 259.36ZM201.808 266.4C202.544 266.4 203.147 266.155 203.616 265.664C204.096 265.173 204.336 264.528 204.336 263.728C204.336 262.928 204.096 262.283 203.616 261.792C203.147 261.301 202.544 261.056 201.808 261.056C201.328 261.056 200.896 261.168 200.512 261.392C200.128 261.605 199.824 261.915 199.6 262.32C199.376 262.725 199.264 263.195 199.264 263.728C199.264 264.261 199.376 264.731 199.6 265.136C199.824 265.541 200.128 265.856 200.512 266.08C200.896 266.293 201.328 266.4 201.808 266.4ZM220.719 263.776C220.719 263.915 220.708 264.112 220.687 264.368H213.983C214.1 264.997 214.404 265.499 214.895 265.872C215.396 266.235 216.015 266.416 216.751 266.416C217.69 266.416 218.463 266.107 219.071 265.488L220.143 266.72C219.759 267.179 219.274 267.525 218.687 267.76C218.1 267.995 217.439 268.112 216.703 268.112C215.764 268.112 214.938 267.925 214.223 267.552C213.508 267.179 212.954 266.661 212.559 266C212.175 265.328 211.983 264.571 211.983 263.728C211.983 262.896 212.17 262.149 212.543 261.488C212.927 260.816 213.455 260.293 214.127 259.92C214.799 259.547 215.556 259.36 216.399 259.36C217.231 259.36 217.972 259.547 218.623 259.92C219.284 260.283 219.796 260.8 220.159 261.472C220.532 262.133 220.719 262.901 220.719 263.776ZM216.399 260.96C215.759 260.96 215.215 261.152 214.767 261.536C214.33 261.909 214.063 262.411 213.967 263.04H218.815C218.73 262.421 218.468 261.92 218.031 261.536C217.594 261.152 217.05 260.96 216.399 260.96ZM213.183 256.096H215.535L217.695 258.288H215.967L213.183 256.096ZM227.846 268L225.654 265.04L223.446 268H221.238L224.566 263.664L221.382 259.456H223.606L225.702 262.256L227.798 259.456H229.958L226.758 263.632L230.102 268H227.846ZM231.578 259.456H233.578V268H231.578V259.456ZM232.586 258.048C232.223 258.048 231.919 257.936 231.674 257.712C231.428 257.477 231.306 257.189 231.306 256.848C231.306 256.507 231.428 256.224 231.674 256C231.919 255.765 232.223 255.648 232.586 255.648C232.948 255.648 233.252 255.76 233.498 255.984C233.743 256.197 233.866 256.469 233.866 256.8C233.866 257.152 233.743 257.451 233.498 257.696C233.263 257.931 232.959 258.048 232.586 258.048ZM241.339 267.536C241.104 267.728 240.816 267.872 240.475 267.968C240.144 268.064 239.792 268.112 239.419 268.112C238.48 268.112 237.755 267.867 237.243 267.376C236.731 266.885 236.475 266.171 236.475 265.232V261.12H235.067V259.52H236.475V257.568H238.475V259.52H240.763V261.12H238.475V265.184C238.475 265.6 238.576 265.92 238.779 266.144C238.981 266.357 239.275 266.464 239.659 266.464C240.107 266.464 240.48 266.347 240.779 266.112L241.339 267.536ZM242.728 256.8H245.096L244.696 264.288H243.112L242.728 256.8ZM243.912 268.112C243.539 268.112 243.229 267.995 242.984 267.76C242.739 267.515 242.616 267.216 242.616 266.864C242.616 266.512 242.739 266.219 242.984 265.984C243.229 265.749 243.539 265.632 243.912 265.632C244.275 265.632 244.573 265.749 244.808 265.984C245.053 266.219 245.176 266.512 245.176 266.864C245.176 267.216 245.053 267.515 244.808 267.76C244.573 267.995 244.275 268.112 243.912 268.112Z" fill="#FDFDFD"/>
<rect x="150" y="357" width="98" height="43" rx="21.5" fill="#35B549"/>
<path d="M174.722 381.55H169.514L168.436 384H166.994L171.432 374.2H172.818L177.27 384H175.8L174.722 381.55ZM174.232 380.43L172.118 375.628L170.004 380.43H174.232ZM181.701 384.084C180.945 384.084 180.269 383.921 179.671 383.594C179.083 383.267 178.621 382.819 178.285 382.25C177.949 381.671 177.781 381.018 177.781 380.29C177.781 379.562 177.949 378.913 178.285 378.344C178.621 377.765 179.083 377.317 179.671 377C180.269 376.673 180.945 376.51 181.701 376.51C182.373 376.51 182.971 376.645 183.493 376.916C184.025 377.187 184.436 377.579 184.725 378.092L183.703 378.75C183.47 378.395 183.181 378.129 182.835 377.952C182.49 377.775 182.107 377.686 181.687 377.686C181.202 377.686 180.763 377.793 180.371 378.008C179.989 378.223 179.685 378.531 179.461 378.932C179.247 379.324 179.139 379.777 179.139 380.29C179.139 380.813 179.247 381.275 179.461 381.676C179.685 382.068 179.989 382.371 180.371 382.586C180.763 382.801 181.202 382.908 181.687 382.908C182.107 382.908 182.49 382.819 182.835 382.642C183.181 382.465 183.47 382.199 183.703 381.844L184.725 382.488C184.436 383.001 184.025 383.398 183.493 383.678C182.971 383.949 182.373 384.084 181.701 384.084ZM189.59 384.084C188.834 384.084 188.157 383.921 187.56 383.594C186.972 383.267 186.51 382.819 186.174 382.25C185.838 381.671 185.67 381.018 185.67 380.29C185.67 379.562 185.838 378.913 186.174 378.344C186.51 377.765 186.972 377.317 187.56 377C188.157 376.673 188.834 376.51 189.59 376.51C190.262 376.51 190.859 376.645 191.382 376.916C191.914 377.187 192.325 377.579 192.614 378.092L191.592 378.75C191.359 378.395 191.069 378.129 190.724 377.952C190.379 377.775 189.996 377.686 189.576 377.686C189.091 377.686 188.652 377.793 188.26 378.008C187.877 378.223 187.574 378.531 187.35 378.932C187.135 379.324 187.028 379.777 187.028 380.29C187.028 380.813 187.135 381.275 187.35 381.676C187.574 382.068 187.877 382.371 188.26 382.586C188.652 382.801 189.091 382.908 189.576 382.908C189.996 382.908 190.379 382.819 190.724 382.642C191.069 382.465 191.359 382.199 191.592 381.844L192.614 382.488C192.325 383.001 191.914 383.398 191.382 383.678C190.859 383.949 190.262 384.084 189.59 384.084ZM200.951 380.332C200.951 380.435 200.941 380.57 200.923 380.738H194.903C194.987 381.391 195.271 381.919 195.757 382.32C196.251 382.712 196.863 382.908 197.591 382.908C198.477 382.908 199.191 382.609 199.733 382.012L200.475 382.88C200.139 383.272 199.719 383.571 199.215 383.776C198.72 383.981 198.165 384.084 197.549 384.084C196.765 384.084 196.069 383.925 195.463 383.608C194.856 383.281 194.385 382.829 194.049 382.25C193.722 381.671 193.559 381.018 193.559 380.29C193.559 379.571 193.717 378.923 194.035 378.344C194.361 377.765 194.805 377.317 195.365 377C195.934 376.673 196.573 376.51 197.283 376.51C197.992 376.51 198.622 376.673 199.173 377C199.733 377.317 200.167 377.765 200.475 378.344C200.792 378.923 200.951 379.585 200.951 380.332ZM197.283 377.644C196.639 377.644 196.097 377.84 195.659 378.232C195.229 378.624 194.977 379.137 194.903 379.772H199.663C199.588 379.147 199.331 378.638 198.893 378.246C198.463 377.845 197.927 377.644 197.283 377.644ZM206.751 376.51C207.47 376.51 208.114 376.669 208.683 376.986C209.252 377.303 209.696 377.747 210.013 378.316C210.34 378.885 210.503 379.543 210.503 380.29C210.503 381.037 210.34 381.699 210.013 382.278C209.696 382.847 209.252 383.291 208.683 383.608C208.114 383.925 207.47 384.084 206.751 384.084C206.219 384.084 205.729 383.981 205.281 383.776C204.842 383.571 204.469 383.272 204.161 382.88V386.716H202.817V376.58H204.105V377.756C204.404 377.345 204.782 377.037 205.239 376.832C205.696 376.617 206.2 376.51 206.751 376.51ZM206.639 382.908C207.115 382.908 207.54 382.801 207.913 382.586C208.296 382.362 208.594 382.054 208.809 381.662C209.033 381.261 209.145 380.803 209.145 380.29C209.145 379.777 209.033 379.324 208.809 378.932C208.594 378.531 208.296 378.223 207.913 378.008C207.54 377.793 207.115 377.686 206.639 377.686C206.172 377.686 205.748 377.798 205.365 378.022C204.992 378.237 204.693 378.54 204.469 378.932C204.254 379.324 204.147 379.777 204.147 380.29C204.147 380.803 204.254 381.261 204.469 381.662C204.684 382.054 204.982 382.362 205.365 382.586C205.748 382.801 206.172 382.908 206.639 382.908ZM216.532 383.566C216.336 383.734 216.093 383.865 215.804 383.958C215.515 384.042 215.216 384.084 214.908 384.084C214.161 384.084 213.583 383.883 213.172 383.482C212.761 383.081 212.556 382.507 212.556 381.76V377.686H211.296V376.58H212.556V374.956H213.9V376.58H216.028V377.686H213.9V381.704C213.9 382.105 213.998 382.413 214.194 382.628C214.399 382.843 214.689 382.95 215.062 382.95C215.473 382.95 215.823 382.833 216.112 382.6L216.532 383.566ZM220.859 376.51C221.885 376.51 222.669 376.762 223.211 377.266C223.761 377.77 224.037 378.521 224.037 379.52V384H222.763V383.02C222.539 383.365 222.217 383.631 221.797 383.818C221.386 383.995 220.896 384.084 220.327 384.084C219.496 384.084 218.829 383.883 218.325 383.482C217.83 383.081 217.583 382.553 217.583 381.9C217.583 381.247 217.821 380.724 218.297 380.332C218.773 379.931 219.529 379.73 220.565 379.73H222.693V379.464C222.693 378.885 222.525 378.442 222.189 378.134C221.853 377.826 221.358 377.672 220.705 377.672C220.266 377.672 219.837 377.747 219.417 377.896C218.997 378.036 218.642 378.227 218.353 378.47L217.793 377.462C218.175 377.154 218.633 376.921 219.165 376.762C219.697 376.594 220.261 376.51 220.859 376.51ZM220.551 383.048C221.064 383.048 221.507 382.936 221.881 382.712C222.254 382.479 222.525 382.152 222.693 381.732V380.696H220.621C219.482 380.696 218.913 381.079 218.913 381.844C218.913 382.217 219.057 382.511 219.347 382.726C219.636 382.941 220.037 383.048 220.551 383.048ZM227.812 377.826C228.045 377.397 228.391 377.07 228.848 376.846C229.305 376.622 229.861 376.51 230.514 376.51V377.812C230.439 377.803 230.337 377.798 230.206 377.798C229.478 377.798 228.904 378.017 228.484 378.456C228.073 378.885 227.868 379.501 227.868 380.304V384H226.524V376.58H227.812V377.826Z" fill="#FDFDFD"/>
<rect x="0.5" y="0.5" width="412" height="461" rx="4.5" stroke="#9747FF" stroke-dasharray="10 5"/>
</svg>
