<svg width="398" height="560" viewBox="0 0 398 560" fill="none" xmlns="http://www.w3.org/2000/svg">
<rect x="20" y="20" width="358" height="70" rx="10" fill="#CDE4E6"/>
<path d="M57.456 48.8V60H56.32V51.04L51.92 58.576H51.36L46.96 51.088V60H45.824V48.8H46.8L51.664 57.104L56.48 48.8H57.456ZM68.1933 56.144H61.1533C61.2173 57.0187 61.5533 57.728 62.1613 58.272C62.7693 58.8053 63.5373 59.072 64.4653 59.072C64.9879 59.072 65.4679 58.9813 65.9053 58.8C66.3426 58.608 66.7213 58.3307 67.0413 57.968L67.6813 58.704C67.3079 59.152 66.8386 59.4933 66.2733 59.728C65.7186 59.9627 65.1053 60.08 64.4333 60.08C63.5693 60.08 62.8013 59.8987 62.1293 59.536C61.4679 59.1627 60.9506 58.6507 60.5773 58C60.2039 57.3493 60.0173 56.6133 60.0173 55.792C60.0173 54.9707 60.1933 54.2347 60.5453 53.584C60.9079 52.9333 61.3986 52.4267 62.0173 52.064C62.6466 51.7013 63.3506 51.52 64.1293 51.52C64.9079 51.52 65.6066 51.7013 66.2253 52.064C66.8439 52.4267 67.3293 52.9333 67.6813 53.584C68.0333 54.224 68.2093 54.96 68.2093 55.792L68.1933 56.144ZM64.1293 52.496C63.3186 52.496 62.6359 52.7573 62.0813 53.28C61.5373 53.792 61.2279 54.464 61.1533 55.296H67.1213C67.0466 54.464 66.7319 53.792 66.1773 53.28C65.6333 52.7573 64.9506 52.496 64.1293 52.496ZM78.2015 48.128V60H77.1135V58.336C76.7722 58.9013 76.3188 59.3333 75.7535 59.632C75.1988 59.9307 74.5695 60.08 73.8655 60.08C73.0762 60.08 72.3615 59.8987 71.7215 59.536C71.0815 59.1733 70.5802 58.6667 70.2175 58.016C69.8548 57.3653 69.6735 56.624 69.6735 55.792C69.6735 54.96 69.8548 54.2187 70.2175 53.568C70.5802 52.9173 71.0815 52.416 71.7215 52.064C72.3615 51.7013 73.0762 51.52 73.8655 51.52C74.5482 51.52 75.1615 51.664 75.7055 51.952C76.2602 52.2293 76.7135 52.64 77.0655 53.184V48.128H78.2015ZM73.9615 59.072C74.5482 59.072 75.0762 58.9387 75.5455 58.672C76.0255 58.3947 76.3988 58.0053 76.6655 57.504C76.9428 57.0027 77.0815 56.432 77.0815 55.792C77.0815 55.152 76.9428 54.5813 76.6655 54.08C76.3988 53.5787 76.0255 53.1947 75.5455 52.928C75.0762 52.6507 74.5482 52.512 73.9615 52.512C73.3642 52.512 72.8255 52.6507 72.3455 52.928C71.8762 53.1947 71.5028 53.5787 71.2255 54.08C70.9588 54.5813 70.8255 55.152 70.8255 55.792C70.8255 56.432 70.9588 57.0027 71.2255 57.504C71.5028 58.0053 71.8762 58.3947 72.3455 58.672C72.8255 58.9387 73.3642 59.072 73.9615 59.072ZM81.3653 51.584H82.5013V60H81.3653V51.584ZM81.9413 49.744C81.7066 49.744 81.5093 49.664 81.3493 49.504C81.1893 49.344 81.1093 49.152 81.1093 48.928C81.1093 48.7147 81.1893 48.528 81.3493 48.368C81.5093 48.208 81.7066 48.128 81.9413 48.128C82.1759 48.128 82.3733 48.208 82.5333 48.368C82.6933 48.5173 82.7733 48.6987 82.7733 48.912C82.7733 49.1467 82.6933 49.344 82.5333 49.504C82.3733 49.664 82.1759 49.744 81.9413 49.744ZM90.0941 59.488C89.8808 59.68 89.6141 59.8293 89.2941 59.936C88.9848 60.032 88.6595 60.08 88.3181 60.08C87.5288 60.08 86.9208 59.8667 86.4941 59.44C86.0675 59.0133 85.8541 58.4107 85.8541 57.632V52.544H84.3501V51.584H85.8541V49.744H86.9901V51.584H89.5501V52.544H86.9901V57.568C86.9901 58.0693 87.1128 58.4533 87.3581 58.72C87.6141 58.976 87.9768 59.104 88.4461 59.104C88.6808 59.104 88.9048 59.0667 89.1181 58.992C89.3421 58.9173 89.5341 58.8107 89.6941 58.672L90.0941 59.488ZM95.1061 51.52C96.2048 51.52 97.0475 51.7973 97.6341 52.352C98.2208 52.896 98.5141 53.7067 98.5141 54.784V60H97.4261V58.688C97.1701 59.1253 96.7915 59.4667 96.2901 59.712C95.7995 59.9573 95.2128 60.08 94.5301 60.08C93.5915 60.08 92.8448 59.856 92.2901 59.408C91.7355 58.96 91.4581 58.368 91.4581 57.632C91.4581 56.9173 91.7141 56.3413 92.2261 55.904C92.7488 55.4667 93.5755 55.248 94.7061 55.248H97.3781V54.736C97.3781 54.0107 97.1755 53.4613 96.7701 53.088C96.3648 52.704 95.7728 52.512 94.9941 52.512C94.4608 52.512 93.9488 52.6027 93.4581 52.784C92.9675 52.9547 92.5461 53.1947 92.1941 53.504L91.6821 52.656C92.1088 52.2933 92.6208 52.016 93.2181 51.824C93.8155 51.6213 94.4448 51.52 95.1061 51.52ZM94.7061 59.184C95.3461 59.184 95.8955 59.04 96.3541 58.752C96.8128 58.4533 97.1541 58.0267 97.3781 57.472V56.096H94.7381C93.2981 56.096 92.5781 56.5973 92.5781 57.6C92.5781 58.0907 92.7648 58.48 93.1381 58.768C93.5115 59.0453 94.0341 59.184 94.7061 59.184ZM102.688 53.232C102.954 52.6667 103.349 52.24 103.872 51.952C104.405 51.664 105.061 51.52 105.84 51.52V52.624L105.568 52.608C104.682 52.608 103.989 52.88 103.488 53.424C102.986 53.968 102.736 54.7307 102.736 55.712V60H101.6V51.584H102.688V53.232Z" fill="#111111"/>
<rect x="20" y="110" width="358" height="70" rx="10" fill="#CDE4E6"/>
<path d="M45.824 138.8H50.384C51.568 138.8 52.6133 139.04 53.52 139.52C54.4267 139.989 55.1307 140.651 55.632 141.504C56.1333 142.347 56.384 143.312 56.384 144.4C56.384 145.488 56.1333 146.459 55.632 147.312C55.1307 148.155 54.4267 148.816 53.52 149.296C52.6133 149.765 51.568 150 50.384 150H45.824V138.8ZM50.32 148.976C51.3013 148.976 52.16 148.784 52.896 148.4C53.632 148.005 54.2027 147.467 54.608 146.784C55.0133 146.091 55.216 145.296 55.216 144.4C55.216 143.504 55.0133 142.715 54.608 142.032C54.2027 141.339 53.632 140.8 52.896 140.416C52.16 140.021 51.3013 139.824 50.32 139.824H47.008V148.976H50.32ZM62.2428 150.08C61.4321 150.08 60.7014 149.899 60.0508 149.536C59.4001 149.163 58.8881 148.651 58.5148 148C58.1414 147.349 57.9548 146.613 57.9548 145.792C57.9548 144.971 58.1414 144.235 58.5148 143.584C58.8881 142.933 59.4001 142.427 60.0508 142.064C60.7014 141.701 61.4321 141.52 62.2428 141.52C63.0534 141.52 63.7841 141.701 64.4348 142.064C65.0854 142.427 65.5921 142.933 65.9548 143.584C66.3281 144.235 66.5148 144.971 66.5148 145.792C66.5148 146.613 66.3281 147.349 65.9548 148C65.5921 148.651 65.0854 149.163 64.4348 149.536C63.7841 149.899 63.0534 150.08 62.2428 150.08ZM62.2428 149.072C62.8401 149.072 63.3734 148.939 63.8428 148.672C64.3228 148.395 64.6961 148.005 64.9628 147.504C65.2294 147.003 65.3628 146.432 65.3628 145.792C65.3628 145.152 65.2294 144.581 64.9628 144.08C64.6961 143.579 64.3228 143.195 63.8428 142.928C63.3734 142.651 62.8401 142.512 62.2428 142.512C61.6454 142.512 61.1068 142.651 60.6268 142.928C60.1574 143.195 59.7841 143.579 59.5068 144.08C59.2401 144.581 59.1068 145.152 59.1068 145.792C59.1068 146.432 59.2401 147.003 59.5068 147.504C59.7841 148.005 60.1574 148.395 60.6268 148.672C61.1068 148.939 61.6454 149.072 62.2428 149.072ZM69.922 143.232C70.1887 142.667 70.5833 142.24 71.106 141.952C71.6393 141.664 72.2953 141.52 73.074 141.52V142.624L72.802 142.608C71.9167 142.608 71.2233 142.88 70.722 143.424C70.2207 143.968 69.97 144.731 69.97 145.712V150H68.834V141.584H69.922V143.232ZM85.6269 141.52C86.6829 141.52 87.5095 141.824 88.1069 142.432C88.7149 143.04 89.0189 143.936 89.0189 145.12V150H87.8829V145.232C87.8829 144.357 87.6695 143.691 87.2429 143.232C86.8269 142.773 86.2349 142.544 85.4669 142.544C84.5922 142.544 83.9042 142.816 83.4029 143.36C82.9015 143.893 82.6509 144.635 82.6509 145.584V150H81.5149V145.232C81.5149 144.357 81.3015 143.691 80.8749 143.232C80.4589 142.773 79.8615 142.544 79.0829 142.544C78.2189 142.544 77.5309 142.816 77.0189 143.36C76.5175 143.893 76.2669 144.635 76.2669 145.584V150H75.1309V141.584H76.2189V143.12C76.5175 142.608 76.9335 142.213 77.4669 141.936C78.0002 141.659 78.6135 141.52 79.3069 141.52C80.0109 141.52 80.6189 141.669 81.1309 141.968C81.6535 142.267 82.0429 142.709 82.2989 143.296C82.6082 142.741 83.0509 142.309 83.6269 142C84.2135 141.68 84.8802 141.52 85.6269 141.52ZM92.0996 141.584H93.2356V150H92.0996V141.584ZM92.6756 139.744C92.441 139.744 92.2436 139.664 92.0836 139.504C91.9236 139.344 91.8436 139.152 91.8436 138.928C91.8436 138.715 91.9236 138.528 92.0836 138.368C92.2436 138.208 92.441 138.128 92.6756 138.128C92.9103 138.128 93.1076 138.208 93.2676 138.368C93.4276 138.517 93.5076 138.699 93.5076 138.912C93.5076 139.147 93.4276 139.344 93.2676 139.504C93.1076 139.664 92.9103 139.744 92.6756 139.744ZM97.4845 143.232C97.7512 142.667 98.1458 142.24 98.6685 141.952C99.2018 141.664 99.8578 141.52 100.637 141.52V142.624L100.365 142.608C99.4792 142.608 98.7858 142.88 98.2845 143.424C97.7832 143.968 97.5325 144.731 97.5325 145.712V150H96.3965V141.584H97.4845V143.232ZM111.342 141.52C112.131 141.52 112.846 141.701 113.486 142.064C114.126 142.416 114.627 142.917 114.99 143.568C115.353 144.219 115.534 144.96 115.534 145.792C115.534 146.624 115.353 147.365 114.99 148.016C114.627 148.667 114.126 149.173 113.486 149.536C112.846 149.899 112.131 150.08 111.342 150.08C110.638 150.08 110.003 149.931 109.438 149.632C108.883 149.333 108.435 148.901 108.094 148.336V150H107.006V138.128H108.142V143.184C108.494 142.64 108.942 142.229 109.486 141.952C110.041 141.664 110.659 141.52 111.342 141.52ZM111.262 149.072C111.849 149.072 112.382 148.939 112.862 148.672C113.342 148.395 113.715 148.005 113.982 147.504C114.259 147.003 114.398 146.432 114.398 145.792C114.398 145.152 114.259 144.581 113.982 144.08C113.715 143.579 113.342 143.195 112.862 142.928C112.382 142.651 111.849 142.512 111.262 142.512C110.665 142.512 110.126 142.651 109.646 142.928C109.177 143.195 108.803 143.579 108.526 144.08C108.259 144.581 108.126 145.152 108.126 145.792C108.126 146.432 108.259 147.003 108.526 147.504C108.803 148.005 109.177 148.395 109.646 148.672C110.126 148.939 110.665 149.072 111.262 149.072ZM125.178 146.144H118.138C118.202 147.019 118.538 147.728 119.146 148.272C119.754 148.805 120.522 149.072 121.45 149.072C121.972 149.072 122.452 148.981 122.89 148.8C123.327 148.608 123.706 148.331 124.026 147.968L124.666 148.704C124.292 149.152 123.823 149.493 123.258 149.728C122.703 149.963 122.09 150.08 121.418 150.08C120.554 150.08 119.786 149.899 119.114 149.536C118.452 149.163 117.935 148.651 117.562 148C117.188 147.349 117.002 146.613 117.002 145.792C117.002 144.971 117.178 144.235 117.53 143.584C117.892 142.933 118.383 142.427 119.002 142.064C119.631 141.701 120.335 141.52 121.114 141.52C121.892 141.52 122.591 141.701 123.21 142.064C123.828 142.427 124.314 142.933 124.666 143.584C125.018 144.224 125.194 144.96 125.194 145.792L125.178 146.144ZM121.114 142.496C120.303 142.496 119.62 142.757 119.066 143.28C118.522 143.792 118.212 144.464 118.138 145.296H124.106C124.031 144.464 123.716 143.792 123.162 143.28C122.618 142.757 121.935 142.496 121.114 142.496ZM122.266 138.288H123.786L121.194 140.272H120.074L122.266 138.288Z" fill="#111111"/>
<rect x="20" y="200" width="358" height="70" rx="10" fill="#CDE4E6"/>
<path d="M53.744 238.976V240H45.824V228.8H53.504V229.824H47.008V233.808H52.8V234.816H47.008V238.976H53.744ZM56.2871 231.584H57.4231V240H56.2871V231.584ZM56.8631 229.744C56.6285 229.744 56.4311 229.664 56.2711 229.504C56.1111 229.344 56.0311 229.152 56.0311 228.928C56.0311 228.715 56.1111 228.528 56.2711 228.368C56.4311 228.208 56.6285 228.128 56.8631 228.128C57.0978 228.128 57.2951 228.208 57.4551 228.368C57.6151 228.517 57.6951 228.699 57.6951 228.912C57.6951 229.147 57.6151 229.344 57.4551 229.504C57.2951 229.664 57.0978 229.744 56.8631 229.744ZM65.944 240L63.272 236.48L60.584 240H59.304L62.632 235.68L59.464 231.584H60.744L63.272 234.88L65.8 231.584H67.048L63.88 235.68L67.24 240H65.944ZM69.1309 231.584H70.2669V240H69.1309V231.584ZM69.7069 229.744C69.4722 229.744 69.2749 229.664 69.1149 229.504C68.9549 229.344 68.8749 229.152 68.8749 228.928C68.8749 228.715 68.9549 228.528 69.1149 228.368C69.2749 228.208 69.4722 228.128 69.7069 228.128C69.9415 228.128 70.1389 228.208 70.2989 228.368C70.4589 228.517 70.5389 228.699 70.5389 228.912C70.5389 229.147 70.4589 229.344 70.2989 229.504C70.1389 229.664 69.9415 229.744 69.7069 229.744ZM74.5158 233.232C74.7824 232.667 75.1771 232.24 75.6998 231.952C76.2331 231.664 76.8891 231.52 77.6678 231.52V232.624L77.3958 232.608C76.5104 232.608 75.8171 232.88 75.3158 233.424C74.8144 233.968 74.5638 234.731 74.5638 235.712V240H73.4278V231.584H74.5158V233.232ZM86.9811 231.52C88.0798 231.52 88.9225 231.797 89.5091 232.352C90.0958 232.896 90.3891 233.707 90.3891 234.784V240H89.3011V238.688C89.0451 239.125 88.6665 239.467 88.1651 239.712C87.6745 239.957 87.0878 240.08 86.4051 240.08C85.4665 240.08 84.7198 239.856 84.1651 239.408C83.6105 238.96 83.3331 238.368 83.3331 237.632C83.3331 236.917 83.5891 236.341 84.1011 235.904C84.6238 235.467 85.4505 235.248 86.5811 235.248H89.2531V234.736C89.2531 234.011 89.0505 233.461 88.6451 233.088C88.2398 232.704 87.6478 232.512 86.8691 232.512C86.3358 232.512 85.8238 232.603 85.3331 232.784C84.8425 232.955 84.4211 233.195 84.0691 233.504L83.5571 232.656C83.9838 232.293 84.4958 232.016 85.0931 231.824C85.6905 231.621 86.3198 231.52 86.9811 231.52ZM86.5811 239.184C87.2211 239.184 87.7705 239.04 88.2291 238.752C88.6878 238.453 89.0291 238.027 89.2531 237.472V236.096H86.6131C85.1731 236.096 84.4531 236.597 84.4531 237.6C84.4531 238.091 84.6398 238.48 85.0131 238.768C85.3865 239.045 85.9091 239.184 86.5811 239.184ZM103.971 231.52C105.027 231.52 105.853 231.824 106.451 232.432C107.059 233.04 107.363 233.936 107.363 235.12V240H106.227V235.232C106.227 234.357 106.013 233.691 105.587 233.232C105.171 232.773 104.579 232.544 103.811 232.544C102.936 232.544 102.248 232.816 101.747 233.36C101.245 233.893 100.995 234.635 100.995 235.584V240H99.8586V235.232C99.8586 234.357 99.6453 233.691 99.2186 233.232C98.8026 232.773 98.2053 232.544 97.4266 232.544C96.5626 232.544 95.8746 232.816 95.3626 233.36C94.8613 233.893 94.6106 234.635 94.6106 235.584V240H93.4746V231.584H94.5626V233.12C94.8613 232.608 95.2773 232.213 95.8106 231.936C96.344 231.659 96.9573 231.52 97.6506 231.52C98.3546 231.52 98.9626 231.669 99.4746 231.968C99.9973 232.267 100.387 232.709 100.643 233.296C100.952 232.741 101.395 232.309 101.971 232C102.557 231.68 103.224 231.52 103.971 231.52ZM114.779 231.52C115.569 231.52 116.283 231.701 116.923 232.064C117.563 232.416 118.065 232.917 118.427 233.568C118.79 234.219 118.971 234.96 118.971 235.792C118.971 236.624 118.79 237.365 118.427 238.016C118.065 238.667 117.563 239.173 116.923 239.536C116.283 239.899 115.569 240.08 114.779 240.08C114.075 240.08 113.441 239.931 112.875 239.632C112.321 239.333 111.873 238.901 111.531 238.336V240H110.443V228.128H111.579V233.184C111.931 232.64 112.379 232.229 112.923 231.952C113.478 231.664 114.097 231.52 114.779 231.52ZM114.699 239.072C115.286 239.072 115.819 238.939 116.299 238.672C116.779 238.395 117.153 238.005 117.419 237.504C117.697 237.003 117.835 236.432 117.835 235.792C117.835 235.152 117.697 234.581 117.419 234.08C117.153 233.579 116.779 233.195 116.299 232.928C115.819 232.651 115.286 232.512 114.699 232.512C114.102 232.512 113.563 232.651 113.083 232.928C112.614 233.195 112.241 233.579 111.963 234.08C111.697 234.581 111.563 235.152 111.563 235.792C111.563 236.432 111.697 237.003 111.963 237.504C112.241 238.005 112.614 238.395 113.083 238.672C113.563 238.939 114.102 239.072 114.699 239.072ZM128.419 231.52C129.517 231.52 130.36 231.797 130.947 232.352C131.533 232.896 131.827 233.707 131.827 234.784V240H130.739V238.688C130.483 239.125 130.104 239.467 129.603 239.712C129.112 239.957 128.525 240.08 127.843 240.08C126.904 240.08 126.157 239.856 125.603 239.408C125.048 238.96 124.771 238.368 124.771 237.632C124.771 236.917 125.027 236.341 125.539 235.904C126.061 235.467 126.888 235.248 128.019 235.248H130.691V234.736C130.691 234.011 130.488 233.461 130.083 233.088C129.677 232.704 129.085 232.512 128.307 232.512C127.773 232.512 127.261 232.603 126.771 232.784C126.28 232.955 125.859 233.195 125.507 233.504L124.995 232.656C125.421 232.293 125.933 232.016 126.531 231.824C127.128 231.621 127.757 231.52 128.419 231.52ZM128.019 239.184C128.659 239.184 129.208 239.04 129.667 238.752C130.125 238.453 130.467 238.027 130.691 237.472V236.096H128.051C126.611 236.096 125.891 236.597 125.891 237.6C125.891 238.091 126.077 238.48 126.451 238.768C126.824 239.045 127.347 239.184 128.019 239.184ZM145.408 231.52C146.464 231.52 147.291 231.824 147.888 232.432C148.496 233.04 148.8 233.936 148.8 235.12V240H147.664V235.232C147.664 234.357 147.451 233.691 147.024 233.232C146.608 232.773 146.016 232.544 145.248 232.544C144.373 232.544 143.685 232.816 143.184 233.36C142.683 233.893 142.432 234.635 142.432 235.584V240H141.296V235.232C141.296 234.357 141.083 233.691 140.656 233.232C140.24 232.773 139.643 232.544 138.864 232.544C138 232.544 137.312 232.816 136.8 233.36C136.299 233.893 136.048 234.635 136.048 235.584V240H134.912V231.584H136V233.12C136.299 232.608 136.715 232.213 137.248 231.936C137.781 231.659 138.395 231.52 139.088 231.52C139.792 231.52 140.4 231.669 140.912 231.968C141.435 232.267 141.824 232.709 142.08 233.296C142.389 232.741 142.832 232.309 143.408 232C143.995 231.68 144.661 231.52 145.408 231.52ZM151.881 231.584H153.017V240H151.881V231.584ZM152.457 229.744C152.222 229.744 152.025 229.664 151.865 229.504C151.705 229.344 151.625 229.152 151.625 228.928C151.625 228.715 151.705 228.528 151.865 228.368C152.025 228.208 152.222 228.128 152.457 228.128C152.692 228.128 152.889 228.208 153.049 228.368C153.209 228.517 153.289 228.699 153.289 228.912C153.289 229.147 153.209 229.344 153.049 229.504C152.889 229.664 152.692 229.744 152.457 229.744ZM159.666 240.08C158.834 240.08 158.087 239.899 157.426 239.536C156.775 239.173 156.263 238.667 155.89 238.016C155.516 237.355 155.33 236.613 155.33 235.792C155.33 234.971 155.516 234.235 155.89 233.584C156.263 232.933 156.775 232.427 157.426 232.064C158.087 231.701 158.834 231.52 159.666 231.52C160.391 231.52 161.036 231.664 161.602 231.952C162.178 232.229 162.631 232.64 162.962 233.184L162.114 233.76C161.836 233.344 161.484 233.035 161.058 232.832C160.631 232.619 160.167 232.512 159.666 232.512C159.058 232.512 158.508 232.651 158.018 232.928C157.538 233.195 157.159 233.579 156.882 234.08C156.615 234.581 156.482 235.152 156.482 235.792C156.482 236.443 156.615 237.019 156.882 237.52C157.159 238.011 157.538 238.395 158.018 238.672C158.508 238.939 159.058 239.072 159.666 239.072C160.167 239.072 160.631 238.971 161.058 238.768C161.484 238.565 161.836 238.256 162.114 237.84L162.962 238.416C162.631 238.96 162.178 239.376 161.602 239.664C161.026 239.941 160.38 240.08 159.666 240.08ZM167.449 240.08C166.767 240.08 166.111 239.984 165.481 239.792C164.863 239.589 164.377 239.339 164.025 239.04L164.537 238.144C164.889 238.421 165.332 238.651 165.865 238.832C166.399 239.003 166.953 239.088 167.529 239.088C168.297 239.088 168.863 238.971 169.225 238.736C169.599 238.491 169.785 238.149 169.785 237.712C169.785 237.403 169.684 237.163 169.481 236.992C169.279 236.811 169.023 236.677 168.713 236.592C168.404 236.496 167.993 236.405 167.481 236.32C166.799 236.192 166.249 236.064 165.833 235.936C165.417 235.797 165.06 235.568 164.761 235.248C164.473 234.928 164.329 234.485 164.329 233.92C164.329 233.216 164.623 232.64 165.209 232.192C165.796 231.744 166.612 231.52 167.657 231.52C168.201 231.52 168.745 231.595 169.289 231.744C169.833 231.883 170.281 232.069 170.633 232.304L170.137 233.216C169.444 232.736 168.617 232.496 167.657 232.496C166.932 232.496 166.383 232.624 166.009 232.88C165.647 233.136 165.465 233.472 165.465 233.888C165.465 234.208 165.567 234.464 165.769 234.656C165.983 234.848 166.244 234.992 166.553 235.088C166.863 235.173 167.289 235.264 167.833 235.36C168.505 235.488 169.044 235.616 169.449 235.744C169.855 235.872 170.201 236.091 170.489 236.4C170.777 236.709 170.921 237.136 170.921 237.68C170.921 238.416 170.612 239.003 169.993 239.44C169.385 239.867 168.537 240.08 167.449 240.08Z" fill="#111111"/>
<rect x="20" y="290" width="358" height="70" rx="10" fill="#CDE4E6"/>
<path d="M53.472 330L50.912 326.4C50.624 326.432 50.3253 326.448 50.016 326.448H47.008V330H45.824V318.8H50.016C51.4453 318.8 52.5653 319.141 53.376 319.824C54.1867 320.507 54.592 321.445 54.592 322.64C54.592 323.515 54.368 324.256 53.92 324.864C53.4827 325.461 52.8533 325.893 52.032 326.16L54.768 330H53.472ZM49.984 325.44C51.0933 325.44 51.9413 325.195 52.528 324.704C53.1147 324.213 53.408 323.525 53.408 322.64C53.408 321.733 53.1147 321.04 52.528 320.56C51.9413 320.069 51.0933 319.824 49.984 319.824H47.008V325.44H49.984ZM64.4745 326.144H57.4345C57.4985 327.019 57.8345 327.728 58.4425 328.272C59.0505 328.805 59.8185 329.072 60.7465 329.072C61.2692 329.072 61.7492 328.981 62.1865 328.8C62.6238 328.608 63.0025 328.331 63.3225 327.968L63.9625 328.704C63.5892 329.152 63.1198 329.493 62.5545 329.728C61.9998 329.963 61.3865 330.08 60.7145 330.08C59.8505 330.08 59.0825 329.899 58.4105 329.536C57.7492 329.163 57.2318 328.651 56.8585 328C56.4852 327.349 56.2985 326.613 56.2985 325.792C56.2985 324.971 56.4745 324.235 56.8265 323.584C57.1892 322.933 57.6798 322.427 58.2985 322.064C58.9278 321.701 59.6318 321.52 60.4105 321.52C61.1892 321.52 61.8878 321.701 62.5065 322.064C63.1252 322.427 63.6105 322.933 63.9625 323.584C64.3145 324.224 64.4905 324.96 64.4905 325.792L64.4745 326.144ZM60.4105 322.496C59.5998 322.496 58.9172 322.757 58.3625 323.28C57.8185 323.792 57.5092 324.464 57.4345 325.296H63.4025C63.3278 324.464 63.0132 323.792 62.4585 323.28C61.9145 322.757 61.2318 322.496 60.4105 322.496ZM71.1388 321.52C71.9281 321.52 72.6428 321.701 73.2828 322.064C73.9228 322.416 74.4241 322.917 74.7868 323.568C75.1494 324.219 75.3308 324.96 75.3308 325.792C75.3308 326.635 75.1494 327.381 74.7868 328.032C74.4241 328.683 73.9228 329.189 73.2828 329.552C72.6534 329.904 71.9388 330.08 71.1388 330.08C70.4561 330.08 69.8374 329.941 69.2828 329.664C68.7388 329.376 68.2908 328.96 67.9388 328.416V333.104H66.8028V321.584H67.8908V323.248C68.2321 322.693 68.6801 322.267 69.2348 321.968C69.8001 321.669 70.4348 321.52 71.1388 321.52ZM71.0588 329.072C71.6454 329.072 72.1788 328.939 72.6588 328.672C73.1388 328.395 73.5121 328.005 73.7788 327.504C74.0561 327.003 74.1948 326.432 74.1948 325.792C74.1948 325.152 74.0561 324.587 73.7788 324.096C73.5121 323.595 73.1388 323.205 72.6588 322.928C72.1788 322.651 71.6454 322.512 71.0588 322.512C70.4614 322.512 69.9228 322.651 69.4427 322.928C68.9734 323.205 68.6001 323.595 68.3228 324.096C68.0561 324.587 67.9228 325.152 67.9228 325.792C67.9228 326.432 68.0561 327.003 68.3228 327.504C68.6001 328.005 68.9734 328.395 69.4427 328.672C69.9228 328.939 70.4614 329.072 71.0588 329.072ZM78.7345 323.232C79.0012 322.667 79.3958 322.24 79.9185 321.952C80.4518 321.664 81.1078 321.52 81.8865 321.52V322.624L81.6145 322.608C80.7292 322.608 80.0358 322.88 79.5345 323.424C79.0332 323.968 78.7825 324.731 78.7825 325.712V330H77.6465V321.584H78.7345V323.232ZM91.1933 326.144H84.1533C84.2173 327.019 84.5533 327.728 85.1613 328.272C85.7693 328.805 86.5373 329.072 87.4653 329.072C87.9879 329.072 88.4679 328.981 88.9053 328.8C89.3426 328.608 89.7213 328.331 90.0413 327.968L90.6813 328.704C90.3079 329.152 89.8386 329.493 89.2733 329.728C88.7186 329.963 88.1053 330.08 87.4333 330.08C86.5693 330.08 85.8013 329.899 85.1293 329.536C84.4679 329.163 83.9506 328.651 83.5773 328C83.2039 327.349 83.0173 326.613 83.0173 325.792C83.0173 324.971 83.1933 324.235 83.5453 323.584C83.9079 322.933 84.3986 322.427 85.0173 322.064C85.6466 321.701 86.3506 321.52 87.1293 321.52C87.9079 321.52 88.6066 321.701 89.2253 322.064C89.8439 322.427 90.3293 322.933 90.6813 323.584C91.0333 324.224 91.2093 324.96 91.2093 325.792L91.1933 326.144ZM87.1293 322.496C86.3186 322.496 85.6359 322.757 85.0813 323.28C84.5373 323.792 84.2279 324.464 84.1533 325.296H90.1213C90.0466 324.464 89.7319 323.792 89.1773 323.28C88.6333 322.757 87.9506 322.496 87.1293 322.496ZM97.8095 321.52C98.8655 321.52 99.7028 321.829 100.322 322.448C100.951 323.056 101.266 323.947 101.266 325.12V330H100.13V325.232C100.13 324.357 99.9108 323.691 99.4735 323.232C99.0362 322.773 98.4122 322.544 97.6015 322.544C96.6948 322.544 95.9748 322.816 95.4415 323.36C94.9188 323.893 94.6575 324.635 94.6575 325.584V330H93.5215V321.584H94.6095V323.136C94.9188 322.624 95.3455 322.229 95.8895 321.952C96.4442 321.664 97.0842 321.52 97.8095 321.52ZM112.061 318.128V330H110.973V328.336C110.632 328.901 110.178 329.333 109.613 329.632C109.058 329.931 108.429 330.08 107.725 330.08C106.936 330.08 106.221 329.899 105.581 329.536C104.941 329.173 104.44 328.667 104.077 328.016C103.714 327.365 103.533 326.624 103.533 325.792C103.533 324.96 103.714 324.219 104.077 323.568C104.44 322.917 104.941 322.416 105.581 322.064C106.221 321.701 106.936 321.52 107.725 321.52C108.408 321.52 109.021 321.664 109.565 321.952C110.12 322.229 110.573 322.64 110.925 323.184V318.128H112.061ZM107.821 329.072C108.408 329.072 108.936 328.939 109.405 328.672C109.885 328.395 110.258 328.005 110.525 327.504C110.802 327.003 110.941 326.432 110.941 325.792C110.941 325.152 110.802 324.581 110.525 324.08C110.258 323.579 109.885 323.195 109.405 322.928C108.936 322.651 108.408 322.512 107.821 322.512C107.224 322.512 106.685 322.651 106.205 322.928C105.736 323.195 105.362 323.579 105.085 324.08C104.818 324.581 104.685 325.152 104.685 325.792C104.685 326.432 104.818 327.003 105.085 327.504C105.362 328.005 105.736 328.395 106.205 328.672C106.685 328.939 107.224 329.072 107.821 329.072ZM116.313 323.232C116.579 322.667 116.974 322.24 117.497 321.952C118.03 321.664 118.686 321.52 119.465 321.52V322.624L119.193 322.608C118.307 322.608 117.614 322.88 117.113 323.424C116.611 323.968 116.361 324.731 116.361 325.712V330H115.225V321.584H116.313V323.232ZM128.771 326.144H121.731C121.795 327.019 122.131 327.728 122.739 328.272C123.347 328.805 124.115 329.072 125.043 329.072C125.566 329.072 126.046 328.981 126.483 328.8C126.921 328.608 127.299 328.331 127.619 327.968L128.259 328.704C127.886 329.152 127.417 329.493 126.851 329.728C126.297 329.963 125.683 330.08 125.011 330.08C124.147 330.08 123.379 329.899 122.707 329.536C122.046 329.163 121.529 328.651 121.155 328C120.782 327.349 120.595 326.613 120.595 325.792C120.595 324.971 120.771 324.235 121.123 323.584C121.486 322.933 121.977 322.427 122.595 322.064C123.225 321.701 123.929 321.52 124.707 321.52C125.486 321.52 126.185 321.701 126.803 322.064C127.422 322.427 127.907 322.933 128.259 323.584C128.611 324.224 128.787 324.96 128.787 325.792L128.771 326.144ZM124.707 322.496C123.897 322.496 123.214 322.757 122.659 323.28C122.115 323.792 121.806 324.464 121.731 325.296H127.699C127.625 324.464 127.31 323.792 126.755 323.28C126.211 322.757 125.529 322.496 124.707 322.496ZM135.287 318.128H136.423V330H135.287V318.128ZM139.712 318.048C139.957 318.048 140.16 318.133 140.32 318.304C140.48 318.464 140.56 318.667 140.56 318.912C140.56 319.04 140.539 319.179 140.496 319.328C140.464 319.467 140.416 319.632 140.352 319.824L139.664 322.032H138.896L139.456 319.728C139.275 319.675 139.131 319.579 139.024 319.44C138.917 319.291 138.864 319.115 138.864 318.912C138.864 318.656 138.944 318.448 139.104 318.288C139.264 318.128 139.467 318.048 139.712 318.048ZM149.85 326.144H142.81C142.874 327.019 143.21 327.728 143.818 328.272C144.426 328.805 145.194 329.072 146.122 329.072C146.644 329.072 147.124 328.981 147.562 328.8C147.999 328.608 148.378 328.331 148.698 327.968L149.338 328.704C148.964 329.152 148.495 329.493 147.93 329.728C147.375 329.963 146.762 330.08 146.09 330.08C145.226 330.08 144.458 329.899 143.786 329.536C143.124 329.163 142.607 328.651 142.234 328C141.86 327.349 141.674 326.613 141.674 325.792C141.674 324.971 141.85 324.235 142.202 323.584C142.564 322.933 143.055 322.427 143.674 322.064C144.303 321.701 145.007 321.52 145.786 321.52C146.564 321.52 147.263 321.701 147.882 322.064C148.5 322.427 148.986 322.933 149.338 323.584C149.69 324.224 149.866 324.96 149.866 325.792L149.85 326.144ZM145.786 322.496C144.975 322.496 144.292 322.757 143.738 323.28C143.194 323.792 142.884 324.464 142.81 325.296H148.778C148.703 324.464 148.388 323.792 147.834 323.28C147.29 322.757 146.607 322.496 145.786 322.496ZM154.434 330.08C153.751 330.08 153.095 329.984 152.466 329.792C151.847 329.589 151.362 329.339 151.01 329.04L151.522 328.144C151.874 328.421 152.316 328.651 152.85 328.832C153.383 329.003 153.938 329.088 154.514 329.088C155.282 329.088 155.847 328.971 156.21 328.736C156.583 328.491 156.77 328.149 156.77 327.712C156.77 327.403 156.668 327.163 156.466 326.992C156.263 326.811 156.007 326.677 155.698 326.592C155.388 326.496 154.978 326.405 154.466 326.32C153.783 326.192 153.234 326.064 152.818 325.936C152.402 325.797 152.044 325.568 151.746 325.248C151.458 324.928 151.314 324.485 151.314 323.92C151.314 323.216 151.607 322.64 152.194 322.192C152.78 321.744 153.596 321.52 154.642 321.52C155.186 321.52 155.73 321.595 156.274 321.744C156.818 321.883 157.266 322.069 157.618 322.304L157.122 323.216C156.428 322.736 155.602 322.496 154.642 322.496C153.916 322.496 153.367 322.624 152.994 322.88C152.631 323.136 152.45 323.472 152.45 323.888C152.45 324.208 152.551 324.464 152.754 324.656C152.967 324.848 153.228 324.992 153.538 325.088C153.847 325.173 154.274 325.264 154.818 325.36C155.49 325.488 156.028 325.616 156.434 325.744C156.839 325.872 157.186 326.091 157.474 326.4C157.762 326.709 157.906 327.136 157.906 327.68C157.906 328.416 157.596 329.003 156.978 329.44C156.37 329.867 155.522 330.08 154.434 330.08ZM164.342 321.52C165.131 321.52 165.846 321.701 166.486 322.064C167.126 322.416 167.627 322.917 167.99 323.568C168.353 324.219 168.534 324.96 168.534 325.792C168.534 326.635 168.353 327.381 167.99 328.032C167.627 328.683 167.126 329.189 166.486 329.552C165.857 329.904 165.142 330.08 164.342 330.08C163.659 330.08 163.041 329.941 162.486 329.664C161.942 329.376 161.494 328.96 161.142 328.416V333.104H160.006V321.584H161.094V323.248C161.435 322.693 161.883 322.267 162.438 321.968C163.003 321.669 163.638 321.52 164.342 321.52ZM164.262 329.072C164.849 329.072 165.382 328.939 165.862 328.672C166.342 328.395 166.715 328.005 166.982 327.504C167.259 327.003 167.398 326.432 167.398 325.792C167.398 325.152 167.259 324.587 166.982 324.096C166.715 323.595 166.342 323.205 165.862 322.928C165.382 322.651 164.849 322.512 164.262 322.512C163.665 322.512 163.126 322.651 162.646 322.928C162.177 323.205 161.803 323.595 161.526 324.096C161.259 324.587 161.126 325.152 161.126 325.792C161.126 326.432 161.259 327.003 161.526 327.504C161.803 328.005 162.177 328.395 162.646 328.672C163.126 328.939 163.665 329.072 164.262 329.072ZM174.29 330.08C173.479 330.08 172.748 329.899 172.098 329.536C171.447 329.163 170.935 328.651 170.562 328C170.188 327.349 170.002 326.613 170.002 325.792C170.002 324.971 170.188 324.235 170.562 323.584C170.935 322.933 171.447 322.427 172.098 322.064C172.748 321.701 173.479 321.52 174.29 321.52C175.1 321.52 175.831 321.701 176.482 322.064C177.132 322.427 177.639 322.933 178.002 323.584C178.375 324.235 178.562 324.971 178.562 325.792C178.562 326.613 178.375 327.349 178.002 328C177.639 328.651 177.132 329.163 176.482 329.536C175.831 329.899 175.1 330.08 174.29 330.08ZM174.29 329.072C174.887 329.072 175.42 328.939 175.89 328.672C176.37 328.395 176.743 328.005 177.01 327.504C177.276 327.003 177.41 326.432 177.41 325.792C177.41 325.152 177.276 324.581 177.01 324.08C176.743 323.579 176.37 323.195 175.89 322.928C175.42 322.651 174.887 322.512 174.29 322.512C173.692 322.512 173.154 322.651 172.674 322.928C172.204 323.195 171.831 323.579 171.554 324.08C171.287 324.581 171.154 325.152 171.154 325.792C171.154 326.432 171.287 327.003 171.554 327.504C171.831 328.005 172.204 328.395 172.674 328.672C173.154 328.939 173.692 329.072 174.29 329.072ZM181.969 323.232C182.236 322.667 182.63 322.24 183.153 321.952C183.686 321.664 184.342 321.52 185.121 321.52V322.624L184.849 322.608C183.964 322.608 183.27 322.88 182.769 323.424C182.268 323.968 182.017 324.731 182.017 325.712V330H180.881V321.584H181.969V323.232ZM191.969 329.488C191.756 329.68 191.489 329.829 191.169 329.936C190.86 330.032 190.534 330.08 190.193 330.08C189.404 330.08 188.796 329.867 188.369 329.44C187.942 329.013 187.729 328.411 187.729 327.632V322.544H186.225V321.584H187.729V319.744H188.865V321.584H191.425V322.544H188.865V327.568C188.865 328.069 188.988 328.453 189.233 328.72C189.489 328.976 189.852 329.104 190.321 329.104C190.556 329.104 190.78 329.067 190.993 328.992C191.217 328.917 191.409 328.811 191.569 328.672L191.969 329.488Z" fill="#111111"/>
<rect x="20" y="380" width="358" height="70" rx="10" fill="#CDE4E6"/>
<path d="M55.136 408.8L50.176 420H49.008L44.048 408.8H45.328L49.616 418.528L53.936 408.8H55.136ZM56.4746 411.584H57.6106V420H56.4746V411.584ZM57.0506 409.744C56.816 409.744 56.6186 409.664 56.4586 409.504C56.2986 409.344 56.2186 409.152 56.2186 408.928C56.2186 408.715 56.2986 408.528 56.4586 408.368C56.6186 408.208 56.816 408.128 57.0506 408.128C57.2853 408.128 57.4826 408.208 57.6426 408.368C57.8026 408.517 57.8826 408.699 57.8826 408.912C57.8826 409.147 57.8026 409.344 57.6426 409.504C57.4826 409.664 57.2853 409.744 57.0506 409.744ZM63.7155 411.52C64.8142 411.52 65.6568 411.797 66.2435 412.352C66.8302 412.896 67.1235 413.707 67.1235 414.784V420H66.0355V418.688C65.7795 419.125 65.4008 419.467 64.8995 419.712C64.4088 419.957 63.8222 420.08 63.1395 420.08C62.2008 420.08 61.4542 419.856 60.8995 419.408C60.3448 418.96 60.0675 418.368 60.0675 417.632C60.0675 416.917 60.3235 416.341 60.8355 415.904C61.3582 415.467 62.1848 415.248 63.3155 415.248H65.9875V414.736C65.9875 414.011 65.7848 413.461 65.3795 413.088C64.9742 412.704 64.3822 412.512 63.6035 412.512C63.0702 412.512 62.5582 412.603 62.0675 412.784C61.5768 412.955 61.1555 413.195 60.8035 413.504L60.2915 412.656C60.7182 412.293 61.2302 412.016 61.8275 411.824C62.4248 411.621 63.0542 411.52 63.7155 411.52ZM63.3155 419.184C63.9555 419.184 64.5048 419.04 64.9635 418.752C65.4222 418.453 65.7635 418.027 65.9875 417.472V416.096H63.3475C61.9075 416.096 61.1875 416.597 61.1875 417.6C61.1875 418.091 61.3742 418.48 61.7475 418.768C62.1208 419.045 62.6435 419.184 63.3155 419.184ZM74.641 419.488C74.4277 419.68 74.161 419.829 73.841 419.936C73.5317 420.032 73.2063 420.08 72.865 420.08C72.0757 420.08 71.4677 419.867 71.041 419.44C70.6143 419.013 70.401 418.411 70.401 417.632V412.544H68.897V411.584H70.401V409.744H71.537V411.584H74.097V412.544H71.537V417.568C71.537 418.069 71.6597 418.453 71.905 418.72C72.161 418.976 72.5237 419.104 72.993 419.104C73.2277 419.104 73.4517 419.067 73.665 418.992C73.889 418.917 74.081 418.811 74.241 418.672L74.641 419.488ZM75.461 423.184C75.109 423.184 74.7783 423.136 74.469 423.04C74.149 422.955 73.8877 422.821 73.685 422.64L74.085 421.776C74.4157 422.064 74.853 422.208 75.397 422.208C75.845 422.208 76.1863 422.075 76.421 421.808C76.6663 421.541 76.789 421.147 76.789 420.624V411.584H77.925V420.624C77.925 421.413 77.7117 422.037 77.285 422.496C76.8583 422.955 76.2503 423.184 75.461 423.184ZM77.365 409.728C77.1303 409.728 76.933 409.648 76.773 409.488C76.613 409.328 76.533 409.136 76.533 408.912C76.533 408.699 76.613 408.512 76.773 408.352C76.933 408.192 77.1303 408.112 77.365 408.112C77.5997 408.112 77.797 408.192 77.957 408.352C78.117 408.501 78.197 408.683 78.197 408.896C78.197 409.131 78.117 409.328 77.957 409.488C77.797 409.648 77.5997 409.728 77.365 409.728ZM84.0436 411.52C85.1423 411.52 85.985 411.797 86.5716 412.352C87.1583 412.896 87.4516 413.707 87.4516 414.784V420H86.3636V418.688C86.1076 419.125 85.729 419.467 85.2276 419.712C84.737 419.957 84.1503 420.08 83.4676 420.08C82.529 420.08 81.7823 419.856 81.2276 419.408C80.673 418.96 80.3956 418.368 80.3956 417.632C80.3956 416.917 80.6516 416.341 81.1636 415.904C81.6863 415.467 82.513 415.248 83.6436 415.248H86.3156V414.736C86.3156 414.011 86.113 413.461 85.7076 413.088C85.3023 412.704 84.7103 412.512 83.9316 412.512C83.3983 412.512 82.8863 412.603 82.3956 412.784C81.905 412.955 81.4836 413.195 81.1316 413.504L80.6196 412.656C81.0463 412.293 81.5583 412.016 82.1556 411.824C82.753 411.621 83.3823 411.52 84.0436 411.52ZM83.6436 419.184C84.2836 419.184 84.833 419.04 85.2916 418.752C85.7503 418.453 86.0916 418.027 86.3156 417.472V416.096H83.6756C82.2356 416.096 81.5156 416.597 81.5156 417.6C81.5156 418.091 81.7023 418.48 82.0756 418.768C82.449 419.045 82.9716 419.184 83.6436 419.184ZM91.6251 413.232C91.8918 412.667 92.2865 412.24 92.8091 411.952C93.3425 411.664 93.9985 411.52 94.7771 411.52V412.624L94.5051 412.608C93.6198 412.608 92.9265 412.88 92.4251 413.424C91.9238 413.968 91.6731 414.731 91.6731 415.712V420H90.5371V411.584H91.6251V413.232Z" fill="#111111"/>
<rect x="20" y="470" width="358" height="70" rx="10" fill="#CDE4E6"/>
<path d="M50.016 498.8C51.4453 498.8 52.5653 499.141 53.376 499.824C54.1867 500.507 54.592 501.445 54.592 502.64C54.592 503.835 54.1867 504.773 53.376 505.456C52.5653 506.128 51.4453 506.464 50.016 506.464H47.008V510H45.824V498.8H50.016ZM49.984 505.424C51.0933 505.424 51.9413 505.184 52.528 504.704C53.1147 504.213 53.408 503.525 53.408 502.64C53.408 501.733 53.1147 501.04 52.528 500.56C51.9413 500.069 51.0933 499.824 49.984 499.824H47.008V505.424H49.984ZM60.3053 510.08C59.4946 510.08 58.7639 509.899 58.1133 509.536C57.4626 509.163 56.9506 508.651 56.5773 508C56.2039 507.349 56.0173 506.613 56.0173 505.792C56.0173 504.971 56.2039 504.235 56.5773 503.584C56.9506 502.933 57.4626 502.427 58.1133 502.064C58.7639 501.701 59.4946 501.52 60.3053 501.52C61.1159 501.52 61.8466 501.701 62.4973 502.064C63.1479 502.427 63.6546 502.933 64.0173 503.584C64.3906 504.235 64.5773 504.971 64.5773 505.792C64.5773 506.613 64.3906 507.349 64.0173 508C63.6546 508.651 63.1479 509.163 62.4973 509.536C61.8466 509.899 61.1159 510.08 60.3053 510.08ZM60.3053 509.072C60.9026 509.072 61.4359 508.939 61.9053 508.672C62.3853 508.395 62.7586 508.005 63.0253 507.504C63.2919 507.003 63.4253 506.432 63.4253 505.792C63.4253 505.152 63.2919 504.581 63.0253 504.08C62.7586 503.579 62.3853 503.195 61.9053 502.928C61.4359 502.651 60.9026 502.512 60.3053 502.512C59.7079 502.512 59.1693 502.651 58.6893 502.928C58.2199 503.195 57.8466 503.579 57.5693 504.08C57.3026 504.581 57.1693 505.152 57.1693 505.792C57.1693 506.432 57.3026 507.003 57.5693 507.504C57.8466 508.005 58.2199 508.395 58.6893 508.672C59.1693 508.939 59.7079 509.072 60.3053 509.072ZM69.1525 510.08C68.4698 510.08 67.8138 509.984 67.1845 509.792C66.5658 509.589 66.0805 509.339 65.7285 509.04L66.2405 508.144C66.5925 508.421 67.0352 508.651 67.5685 508.832C68.1018 509.003 68.6565 509.088 69.2325 509.088C70.0005 509.088 70.5658 508.971 70.9285 508.736C71.3018 508.491 71.4885 508.149 71.4885 507.712C71.4885 507.403 71.3872 507.163 71.1845 506.992C70.9818 506.811 70.7258 506.677 70.4165 506.592C70.1072 506.496 69.6965 506.405 69.1845 506.32C68.5018 506.192 67.9525 506.064 67.5365 505.936C67.1205 505.797 66.7632 505.568 66.4645 505.248C66.1765 504.928 66.0325 504.485 66.0325 503.92C66.0325 503.216 66.3258 502.64 66.9125 502.192C67.4992 501.744 68.3152 501.52 69.3605 501.52C69.9045 501.52 70.4485 501.595 70.9925 501.744C71.5365 501.883 71.9845 502.069 72.3365 502.304L71.8405 503.216C71.1472 502.736 70.3205 502.496 69.3605 502.496C68.6352 502.496 68.0858 502.624 67.7125 502.88C67.3498 503.136 67.1685 503.472 67.1685 503.888C67.1685 504.208 67.2698 504.464 67.4725 504.656C67.6858 504.848 67.9472 504.992 68.2565 505.088C68.5658 505.173 68.9925 505.264 69.5365 505.36C70.2085 505.488 70.7472 505.616 71.1525 505.744C71.5578 505.872 71.9045 506.091 72.1925 506.4C72.4805 506.709 72.6245 507.136 72.6245 507.68C72.6245 508.416 72.3152 509.003 71.6965 509.44C71.0885 509.867 70.2405 510.08 69.1525 510.08ZM77.6686 501.52C78.7673 501.52 79.61 501.797 80.1966 502.352C80.7833 502.896 81.0766 503.707 81.0766 504.784V510H79.9886V508.688C79.7326 509.125 79.354 509.467 78.8526 509.712C78.362 509.957 77.7753 510.08 77.0926 510.08C76.154 510.08 75.4073 509.856 74.8526 509.408C74.298 508.96 74.0206 508.368 74.0206 507.632C74.0206 506.917 74.2766 506.341 74.7886 505.904C75.3113 505.467 76.138 505.248 77.2686 505.248H79.9406V504.736C79.9406 504.011 79.738 503.461 79.3326 503.088C78.9273 502.704 78.3353 502.512 77.5566 502.512C77.0233 502.512 76.5113 502.603 76.0206 502.784C75.53 502.955 75.1086 503.195 74.7566 503.504L74.2446 502.656C74.6713 502.293 75.1833 502.016 75.7806 501.824C76.378 501.621 77.0073 501.52 77.6686 501.52ZM77.2686 509.184C77.9086 509.184 78.458 509.04 78.9166 508.752C79.3753 508.453 79.7166 508.027 79.9406 507.472V506.096H77.3006C75.8606 506.096 75.1406 506.597 75.1406 507.6C75.1406 508.091 75.3273 508.48 75.7006 508.768C76.074 509.045 76.5966 509.184 77.2686 509.184ZM85.2501 503.232C85.5168 502.667 85.9115 502.24 86.4341 501.952C86.9675 501.664 87.6235 501.52 88.4021 501.52V502.624L88.1301 502.608C87.2448 502.608 86.5515 502.88 86.0501 503.424C85.5488 503.968 85.2981 504.731 85.2981 505.712V510H84.1621V501.584H85.2501V503.232ZM97.5555 499.008C97.0648 499.008 96.6915 499.141 96.4355 499.408C96.1902 499.675 96.0675 500.069 96.0675 500.592V501.584H98.6595V502.544H96.0995V510H94.9635V502.544H93.4595V501.584H94.9635V500.544C94.9635 499.776 95.1822 499.168 95.6195 498.72C96.0675 498.272 96.6968 498.048 97.5075 498.048C97.8275 498.048 98.1368 498.096 98.4355 498.192C98.7342 498.277 98.9848 498.405 99.1875 498.576L98.8035 499.424C98.4728 499.147 98.0568 499.008 97.5555 499.008ZM101.476 501.584H102.612V510H101.476V501.584ZM102.052 499.744C101.817 499.744 101.62 499.664 101.46 499.504C101.3 499.344 101.22 499.152 101.22 498.928C101.22 498.715 101.3 498.528 101.46 498.368C101.62 498.208 101.817 498.128 102.052 498.128C102.286 498.128 102.484 498.208 102.644 498.368C102.804 498.517 102.884 498.699 102.884 498.912C102.884 499.147 102.804 499.344 102.644 499.504C102.484 499.664 102.286 499.744 102.052 499.744ZM112.919 501.52C114.017 501.52 114.86 501.797 115.447 502.352C116.033 502.896 116.327 503.707 116.327 504.784V510H115.239V508.688C114.983 509.125 114.604 509.467 114.103 509.712C113.612 509.957 113.025 510.08 112.343 510.08C111.404 510.08 110.657 509.856 110.103 509.408C109.548 508.96 109.271 508.368 109.271 507.632C109.271 506.917 109.527 506.341 110.039 505.904C110.561 505.467 111.388 505.248 112.519 505.248H115.191V504.736C115.191 504.011 114.988 503.461 114.583 503.088C114.177 502.704 113.585 502.512 112.807 502.512C112.273 502.512 111.761 502.603 111.271 502.784C110.78 502.955 110.359 503.195 110.007 503.504L109.495 502.656C109.921 502.293 110.433 502.016 111.031 501.824C111.628 501.621 112.257 501.52 112.919 501.52ZM112.519 509.184C113.159 509.184 113.708 509.04 114.167 508.752C114.625 508.453 114.967 508.027 115.191 507.472V506.096H112.551C111.111 506.096 110.391 506.597 110.391 507.6C110.391 508.091 110.577 508.48 110.951 508.768C111.324 509.045 111.847 509.184 112.519 509.184ZM134.096 501.52C135.152 501.52 135.978 501.824 136.576 502.432C137.184 503.04 137.488 503.936 137.488 505.12V510H136.352V505.232C136.352 504.357 136.138 503.691 135.712 503.232C135.296 502.773 134.704 502.544 133.936 502.544C133.061 502.544 132.373 502.816 131.872 503.36C131.37 503.893 131.12 504.635 131.12 505.584V510H129.984V505.232C129.984 504.357 129.77 503.691 129.344 503.232C128.928 502.773 128.33 502.544 127.552 502.544C126.688 502.544 126 502.816 125.488 503.36C124.986 503.893 124.736 504.635 124.736 505.584V510H123.6V501.584H124.688V503.12C124.986 502.608 125.402 502.213 125.936 501.936C126.469 501.659 127.082 501.52 127.776 501.52C128.48 501.52 129.088 501.669 129.6 501.968C130.122 502.267 130.512 502.709 130.768 503.296C131.077 502.741 131.52 502.309 132.096 502C132.682 501.68 133.349 501.52 134.096 501.52ZM143.512 501.52C144.611 501.52 145.454 501.797 146.04 502.352C146.627 502.896 146.92 503.707 146.92 504.784V510H145.832V508.688C145.576 509.125 145.198 509.467 144.696 509.712C144.206 509.957 143.619 510.08 142.936 510.08C141.998 510.08 141.251 509.856 140.696 509.408C140.142 508.96 139.864 508.368 139.864 507.632C139.864 506.917 140.12 506.341 140.632 505.904C141.155 505.467 141.982 505.248 143.112 505.248H145.784V504.736C145.784 504.011 145.582 503.461 145.176 503.088C144.771 502.704 144.179 502.512 143.4 502.512C142.867 502.512 142.355 502.603 141.864 502.784C141.374 502.955 140.952 503.195 140.6 503.504L140.088 502.656C140.515 502.293 141.027 502.016 141.624 501.824C142.222 501.621 142.851 501.52 143.512 501.52ZM143.112 509.184C143.752 509.184 144.302 509.04 144.76 508.752C145.219 508.453 145.56 508.027 145.784 507.472V506.096H143.144C141.704 506.096 140.984 506.597 140.984 507.6C140.984 508.091 141.171 508.48 141.544 508.768C141.918 509.045 142.44 509.184 143.112 509.184ZM150.006 498.128H151.142V510H150.006V498.128ZM156.559 510.08C155.876 510.08 155.22 509.984 154.591 509.792C153.972 509.589 153.487 509.339 153.135 509.04L153.647 508.144C153.999 508.421 154.441 508.651 154.975 508.832C155.508 509.003 156.063 509.088 156.639 509.088C157.407 509.088 157.972 508.971 158.335 508.736C158.708 508.491 158.895 508.149 158.895 507.712C158.895 507.403 158.793 507.163 158.591 506.992C158.388 506.811 158.132 506.677 157.823 506.592C157.513 506.496 157.103 506.405 156.591 506.32C155.908 506.192 155.359 506.064 154.943 505.936C154.527 505.797 154.169 505.568 153.871 505.248C153.583 504.928 153.439 504.485 153.439 503.92C153.439 503.216 153.732 502.64 154.319 502.192C154.905 501.744 155.721 501.52 156.767 501.52C157.311 501.52 157.855 501.595 158.399 501.744C158.943 501.883 159.391 502.069 159.743 502.304L159.247 503.216C158.553 502.736 157.727 502.496 156.767 502.496C156.041 502.496 155.492 502.624 155.119 502.88C154.756 503.136 154.575 503.472 154.575 503.888C154.575 504.208 154.676 504.464 154.879 504.656C155.092 504.848 155.353 504.992 155.663 505.088C155.972 505.173 156.399 505.264 156.943 505.36C157.615 505.488 158.153 505.616 158.559 505.744C158.964 505.872 159.311 506.091 159.599 506.4C159.887 506.709 160.031 507.136 160.031 507.68C160.031 508.416 159.721 509.003 159.103 509.44C158.495 509.867 157.647 510.08 156.559 510.08ZM169.806 510.08C168.974 510.08 168.228 509.899 167.566 509.536C166.916 509.173 166.404 508.667 166.03 508.016C165.657 507.355 165.47 506.613 165.47 505.792C165.47 504.971 165.657 504.235 166.03 503.584C166.404 502.933 166.916 502.427 167.566 502.064C168.228 501.701 168.974 501.52 169.806 501.52C170.532 501.52 171.177 501.664 171.742 501.952C172.318 502.229 172.772 502.64 173.102 503.184L172.254 503.76C171.977 503.344 171.625 503.035 171.198 502.832C170.772 502.619 170.308 502.512 169.806 502.512C169.198 502.512 168.649 502.651 168.158 502.928C167.678 503.195 167.3 503.579 167.022 504.08C166.756 504.581 166.622 505.152 166.622 505.792C166.622 506.443 166.756 507.019 167.022 507.52C167.3 508.011 167.678 508.395 168.158 508.672C168.649 508.939 169.198 509.072 169.806 509.072C170.308 509.072 170.772 508.971 171.198 508.768C171.625 508.565 171.977 508.256 172.254 507.84L173.102 508.416C172.772 508.96 172.318 509.376 171.742 509.664C171.166 509.941 170.521 510.08 169.806 510.08ZM178.633 510.08C177.823 510.08 177.092 509.899 176.441 509.536C175.791 509.163 175.279 508.651 174.905 508C174.532 507.349 174.345 506.613 174.345 505.792C174.345 504.971 174.532 504.235 174.905 503.584C175.279 502.933 175.791 502.427 176.441 502.064C177.092 501.701 177.823 501.52 178.633 501.52C179.444 501.52 180.175 501.701 180.825 502.064C181.476 502.427 181.983 502.933 182.345 503.584C182.719 504.235 182.905 504.971 182.905 505.792C182.905 506.613 182.719 507.349 182.345 508C181.983 508.651 181.476 509.163 180.825 509.536C180.175 509.899 179.444 510.08 178.633 510.08ZM178.633 509.072C179.231 509.072 179.764 508.939 180.233 508.672C180.713 508.395 181.087 508.005 181.353 507.504C181.62 507.003 181.753 506.432 181.753 505.792C181.753 505.152 181.62 504.581 181.353 504.08C181.087 503.579 180.713 503.195 180.233 502.928C179.764 502.651 179.231 502.512 178.633 502.512C178.036 502.512 177.497 502.651 177.017 502.928C176.548 503.195 176.175 503.579 175.897 504.08C175.631 504.581 175.497 505.152 175.497 505.792C175.497 506.432 175.631 507.003 175.897 507.504C176.175 508.005 176.548 508.395 177.017 508.672C177.497 508.939 178.036 509.072 178.633 509.072ZM187.481 510.08C186.798 510.08 186.142 509.984 185.513 509.792C184.894 509.589 184.409 509.339 184.057 509.04L184.569 508.144C184.921 508.421 185.363 508.651 185.897 508.832C186.43 509.003 186.985 509.088 187.561 509.088C188.329 509.088 188.894 508.971 189.257 508.736C189.63 508.491 189.817 508.149 189.817 507.712C189.817 507.403 189.715 507.163 189.513 506.992C189.31 506.811 189.054 506.677 188.745 506.592C188.435 506.496 188.025 506.405 187.513 506.32C186.83 506.192 186.281 506.064 185.865 505.936C185.449 505.797 185.091 505.568 184.793 505.248C184.505 504.928 184.361 504.485 184.361 503.92C184.361 503.216 184.654 502.64 185.241 502.192C185.827 501.744 186.643 501.52 187.689 501.52C188.233 501.52 188.777 501.595 189.321 501.744C189.865 501.883 190.313 502.069 190.665 502.304L190.169 503.216C189.475 502.736 188.649 502.496 187.689 502.496C186.963 502.496 186.414 502.624 186.041 502.88C185.678 503.136 185.497 503.472 185.497 503.888C185.497 504.208 185.598 504.464 185.801 504.656C186.014 504.848 186.275 504.992 186.585 505.088C186.894 505.173 187.321 505.264 187.865 505.36C188.537 505.488 189.075 505.616 189.481 505.744C189.886 505.872 190.233 506.091 190.521 506.4C190.809 506.709 190.953 507.136 190.953 507.68C190.953 508.416 190.643 509.003 190.025 509.44C189.417 509.867 188.569 510.08 187.481 510.08ZM197.485 509.488C197.271 509.68 197.005 509.829 196.685 509.936C196.375 510.032 196.05 510.08 195.709 510.08C194.919 510.08 194.311 509.867 193.885 509.44C193.458 509.013 193.245 508.411 193.245 507.632V502.544H191.741V501.584H193.245V499.744H194.381V501.584H196.941V502.544H194.381V507.568C194.381 508.069 194.503 508.453 194.749 508.72C195.005 508.976 195.367 509.104 195.837 509.104C196.071 509.104 196.295 509.067 196.509 508.992C196.733 508.917 196.925 508.811 197.085 508.672L197.485 509.488ZM207.137 501.584V510H206.049V508.464C205.75 508.976 205.339 509.376 204.817 509.664C204.294 509.941 203.697 510.08 203.025 510.08C201.926 510.08 201.057 509.776 200.417 509.168C199.787 508.549 199.473 507.648 199.473 506.464V501.584H200.609V506.352C200.609 507.237 200.827 507.909 201.265 508.368C201.702 508.827 202.326 509.056 203.137 509.056C204.022 509.056 204.721 508.789 205.233 508.256C205.745 507.712 206.001 506.96 206.001 506V501.584H207.137ZM220.814 501.52C221.87 501.52 222.697 501.824 223.294 502.432C223.902 503.04 224.206 503.936 224.206 505.12V510H223.07V505.232C223.07 504.357 222.857 503.691 222.43 503.232C222.014 502.773 221.422 502.544 220.654 502.544C219.78 502.544 219.092 502.816 218.59 503.36C218.089 503.893 217.838 504.635 217.838 505.584V510H216.702V505.232C216.702 504.357 216.489 503.691 216.062 503.232C215.646 502.773 215.049 502.544 214.27 502.544C213.406 502.544 212.718 502.816 212.206 503.36C211.705 503.893 211.454 504.635 211.454 505.584V510H210.318V501.584H211.406V503.12C211.705 502.608 212.121 502.213 212.654 501.936C213.188 501.659 213.801 501.52 214.494 501.52C215.198 501.52 215.806 501.669 216.318 501.968C216.841 502.267 217.23 502.709 217.486 503.296C217.796 502.741 218.238 502.309 218.814 502C219.401 501.68 220.068 501.52 220.814 501.52ZM229.543 510.08C228.86 510.08 228.204 509.984 227.575 509.792C226.956 509.589 226.471 509.339 226.119 509.04L226.631 508.144C226.983 508.421 227.426 508.651 227.959 508.832C228.492 509.003 229.047 509.088 229.623 509.088C230.391 509.088 230.956 508.971 231.319 508.736C231.692 508.491 231.879 508.149 231.879 507.712C231.879 507.403 231.778 507.163 231.575 506.992C231.372 506.811 231.116 506.677 230.807 506.592C230.498 506.496 230.087 506.405 229.575 506.32C228.892 506.192 228.343 506.064 227.927 505.936C227.511 505.797 227.154 505.568 226.855 505.248C226.567 504.928 226.423 504.485 226.423 503.92C226.423 503.216 226.716 502.64 227.303 502.192C227.89 501.744 228.706 501.52 229.751 501.52C230.295 501.52 230.839 501.595 231.383 501.744C231.927 501.883 232.375 502.069 232.727 502.304L232.231 503.216C231.538 502.736 230.711 502.496 229.751 502.496C229.026 502.496 228.476 502.624 228.103 502.88C227.74 503.136 227.559 503.472 227.559 503.888C227.559 504.208 227.66 504.464 227.863 504.656C228.076 504.848 228.338 504.992 228.647 505.088C228.956 505.173 229.383 505.264 229.927 505.36C230.599 505.488 231.138 505.616 231.543 505.744C231.948 505.872 232.295 506.091 232.583 506.4C232.871 506.709 233.015 507.136 233.015 507.68C233.015 508.416 232.706 509.003 232.087 509.44C231.479 509.867 230.631 510.08 229.543 510.08Z" fill="#111111"/>
<rect x="0.5" y="0.5" width="397" height="559" rx="4.5" stroke="#9747FF" stroke-dasharray="10 5"/>
</svg>
