<svg width="398" height="708" viewBox="0 0 398 708" fill="none" xmlns="http://www.w3.org/2000/svg">
<rect x="20" y="20" width="358" height="324" rx="16" fill="white"/>
<path d="M29 38C29 32.4772 33.4772 28 39 28H359C364.523 28 369 32.4772 369 38V54H29V38Z" fill="#5FA9AE"/>
<path d="M54.9958 41.272H56.9638V45.736C56.3878 46.1947 55.7158 46.5467 54.9478 46.792C54.1798 47.0373 53.3904 47.16 52.5798 47.16C51.4384 47.16 50.4091 46.9147 49.4918 46.424C48.5744 45.9227 47.8544 45.2347 47.3318 44.36C46.8091 43.4853 46.5478 42.4987 46.5478 41.4C46.5478 40.3013 46.8091 39.3147 47.3318 38.44C47.8544 37.5653 48.5744 36.8827 49.4918 36.392C50.4198 35.8907 51.4598 35.64 52.6118 35.64C53.5504 35.64 54.4038 35.7947 55.1718 36.104C55.9398 36.4133 56.5851 36.8667 57.1078 37.464L55.7958 38.744C54.9424 37.8907 53.9131 37.464 52.7078 37.464C51.9184 37.464 51.2144 37.6293 50.5958 37.96C49.9878 38.2907 49.5078 38.7547 49.1558 39.352C48.8144 39.9493 48.6438 40.632 48.6438 41.4C48.6438 42.1467 48.8144 42.8187 49.1558 43.416C49.5078 44.0133 49.9878 44.4827 50.5958 44.824C51.2144 45.1653 51.9131 45.336 52.6918 45.336C53.5664 45.336 54.3344 45.144 54.9958 44.76V41.272ZM67.5471 42.776C67.5471 42.9147 67.5365 43.112 67.5151 43.368H60.8111C60.9285 43.9973 61.2325 44.4987 61.7231 44.872C62.2245 45.2347 62.8431 45.416 63.5791 45.416C64.5178 45.416 65.2911 45.1067 65.8991 44.488L66.9711 45.72C66.5871 46.1787 66.1018 46.5253 65.5151 46.76C64.9285 46.9947 64.2671 47.112 63.5311 47.112C62.5925 47.112 61.7658 46.9253 61.0511 46.552C60.3365 46.1787 59.7818 45.6613 59.3871 45C59.0031 44.328 58.8111 43.5707 58.8111 42.728C58.8111 41.896 58.9978 41.1493 59.3711 40.488C59.7551 39.816 60.2831 39.2933 60.9551 38.92C61.6271 38.5467 62.3845 38.36 63.2271 38.36C64.0591 38.36 64.8005 38.5467 65.4511 38.92C66.1125 39.2827 66.6245 39.8 66.9871 40.472C67.3605 41.1333 67.5471 41.9013 67.5471 42.776ZM63.2271 39.96C62.5871 39.96 62.0431 40.152 61.5951 40.536C61.1578 40.9093 60.8911 41.4107 60.7951 42.04H65.6431C65.5578 41.4213 65.2965 40.92 64.8591 40.536C64.4218 40.152 63.8778 39.96 63.2271 39.96ZM74.3163 38.36C75.3936 38.36 76.2576 38.6747 76.9083 39.304C77.5589 39.9333 77.8843 40.8667 77.8843 42.104V47H75.8843V42.36C75.8843 41.6133 75.7083 41.0533 75.3563 40.68C75.0043 40.296 74.5029 40.104 73.8523 40.104C73.1163 40.104 72.5349 40.328 72.1083 40.776C71.6816 41.2133 71.4683 41.848 71.4683 42.68V47H69.4683V38.456H71.3723V39.56C71.7029 39.1653 72.1189 38.8667 72.6203 38.664C73.1216 38.4613 73.6869 38.36 74.3163 38.36ZM88.5315 42.776C88.5315 42.9147 88.5208 43.112 88.4995 43.368H81.7955C81.9128 43.9973 82.2168 44.4987 82.7075 44.872C83.2088 45.2347 83.8275 45.416 84.5635 45.416C85.5022 45.416 86.2755 45.1067 86.8835 44.488L87.9555 45.72C87.5715 46.1787 87.0862 46.5253 86.4995 46.76C85.9128 46.9947 85.2515 47.112 84.5155 47.112C83.5768 47.112 82.7502 46.9253 82.0355 46.552C81.3208 46.1787 80.7662 45.6613 80.3715 45C79.9875 44.328 79.7955 43.5707 79.7955 42.728C79.7955 41.896 79.9822 41.1493 80.3555 40.488C80.7395 39.816 81.2675 39.2933 81.9395 38.92C82.6115 38.5467 83.3688 38.36 84.2115 38.36C85.0435 38.36 85.7848 38.5467 86.4355 38.92C87.0968 39.2827 87.6088 39.8 87.9715 40.472C88.3448 41.1333 88.5315 41.9013 88.5315 42.776ZM84.2115 39.96C83.5715 39.96 83.0275 40.152 82.5795 40.536C82.1422 40.9093 81.8755 41.4107 81.7795 42.04H86.6275C86.5422 41.4213 86.2808 40.92 85.8435 40.536C85.4062 40.152 84.8622 39.96 84.2115 39.96ZM92.3566 39.704C92.9326 38.808 93.946 38.36 95.3966 38.36V40.264C95.226 40.232 95.0713 40.216 94.9326 40.216C94.154 40.216 93.546 40.4453 93.1086 40.904C92.6713 41.352 92.4526 42.0027 92.4526 42.856V47H90.4526V38.456H92.3566V39.704Z" fill="#FDFDFD"/>
<path d="M29 54H369V326C369 331.523 364.523 336 359 336H39C33.4772 336 29 331.523 29 326V54Z" fill="#CDE4E6"/>
<path d="M50.7149 69.8H52.7949V79.24H58.6509V81H50.7149V69.8Z" fill="#0A0A0A"/>
<path d="M106.151 81L106.135 73.576L102.455 79.72H101.527L97.8474 73.672V81H95.8634V69.8H97.5754L102.023 77.224L106.391 69.8H108.103L108.119 81H106.151Z" fill="#0A0A0A"/>
<path d="M153.013 81L149.973 76.744L146.965 81H144.597L148.757 75.288L144.821 69.8H147.173L150.037 73.784L152.869 69.8H155.125L151.205 75.208L155.413 81H153.013Z" fill="#0A0A0A"/>
<path d="M197.029 81.16C196.315 81.16 195.653 81.0213 195.045 80.744C194.448 80.456 193.957 80.056 193.573 79.544L194.757 78.12C195.376 78.9733 196.117 79.4 196.981 79.4C198.144 79.4 198.725 78.712 198.725 77.336V71.544H194.741V69.8H200.805V77.224C200.805 78.536 200.485 79.5227 199.845 80.184C199.205 80.8347 198.267 81.16 197.029 81.16Z" fill="#0A0A0A"/>
<path d="M252.916 69.8L248.036 81H245.988L241.092 69.8H243.348L247.076 78.44L250.836 69.8H252.916Z" fill="#0A0A0A"/>
<path d="M295.945 81.16C295.081 81.16 294.243 81.0373 293.433 80.792C292.633 80.5467 291.998 80.2213 291.529 79.816L292.249 78.2C292.707 78.5627 293.267 78.8613 293.929 79.096C294.601 79.32 295.273 79.432 295.945 79.432C296.777 79.432 297.395 79.2987 297.801 79.032C298.217 78.7653 298.425 78.4133 298.425 77.976C298.425 77.656 298.307 77.3947 298.073 77.192C297.849 76.9787 297.561 76.8133 297.209 76.696C296.857 76.5787 296.377 76.4453 295.769 76.296C294.915 76.0933 294.222 75.8907 293.689 75.688C293.166 75.4853 292.713 75.1707 292.329 74.744C291.955 74.3067 291.769 73.72 291.769 72.984C291.769 72.3653 291.934 71.8053 292.265 71.304C292.606 70.792 293.113 70.3867 293.785 70.088C294.467 69.7893 295.299 69.64 296.281 69.64C296.963 69.64 297.635 69.7253 298.297 69.896C298.958 70.0667 299.529 70.312 300.009 70.632L299.353 72.248C298.862 71.96 298.35 71.7413 297.817 71.592C297.283 71.4427 296.766 71.368 296.265 71.368C295.443 71.368 294.83 71.5067 294.425 71.784C294.03 72.0613 293.833 72.4293 293.833 72.888C293.833 73.208 293.945 73.4693 294.169 73.672C294.403 73.8747 294.697 74.0347 295.049 74.152C295.401 74.2693 295.881 74.4027 296.489 74.552C297.321 74.744 298.003 74.9467 298.537 75.16C299.07 75.3627 299.523 75.6773 299.897 76.104C300.281 76.5307 300.473 77.1067 300.473 77.832C300.473 78.4507 300.302 79.0107 299.961 79.512C299.63 80.0133 299.123 80.4133 298.441 80.712C297.758 81.0107 296.926 81.16 295.945 81.16Z" fill="#E25B13"/>
<path d="M338.895 69.8H343.791C344.985 69.8 346.047 70.0347 346.975 70.504C347.903 70.9627 348.623 71.6187 349.135 72.472C349.647 73.3147 349.903 74.2907 349.903 75.4C349.903 76.5093 349.647 77.4907 349.135 78.344C348.623 79.1867 347.903 79.8427 346.975 80.312C346.047 80.7707 344.985 81 343.791 81H338.895V69.8ZM343.695 79.24C344.516 79.24 345.236 79.0853 345.855 78.776C346.484 78.456 346.964 78.008 347.295 77.432C347.636 76.8453 347.807 76.168 347.807 75.4C347.807 74.632 347.636 73.96 347.295 73.384C346.964 72.7973 346.484 72.3493 345.855 72.04C345.236 71.72 344.516 71.56 343.695 71.56H340.975V79.24H343.695Z" fill="#E25B13"/>
<path d="M56.0454 114.8V126H54.8934V115.824H52.2534V114.8H56.0454Z" fill="#0A0A0A"/>
<path d="M106.933 124.976V126H99.0771V125.184L103.733 120.624C104.32 120.048 104.714 119.552 104.917 119.136C105.13 118.709 105.237 118.283 105.237 117.856C105.237 117.195 105.008 116.683 104.549 116.32C104.101 115.947 103.456 115.76 102.613 115.76C101.301 115.76 100.282 116.176 99.5571 117.008L98.7411 116.304C99.1785 115.792 99.7331 115.397 100.405 115.12C101.088 114.843 101.856 114.704 102.709 114.704C103.85 114.704 104.752 114.976 105.413 115.52C106.085 116.053 106.421 116.789 106.421 117.728C106.421 118.304 106.293 118.859 106.037 119.392C105.781 119.925 105.296 120.539 104.581 121.232L100.773 124.976H106.933Z" fill="#0A0A0A"/>
<path d="M151.124 119.6C152.298 119.664 153.188 119.984 153.796 120.56C154.415 121.125 154.724 121.867 154.724 122.784C154.724 123.424 154.57 123.995 154.26 124.496C153.951 124.987 153.492 125.376 152.884 125.664C152.276 125.952 151.535 126.096 150.66 126.096C149.85 126.096 149.082 125.968 148.356 125.712C147.642 125.445 147.066 125.093 146.628 124.656L147.188 123.744C147.562 124.128 148.058 124.443 148.676 124.688C149.295 124.923 149.956 125.04 150.66 125.04C151.578 125.04 152.287 124.843 152.788 124.448C153.29 124.043 153.54 123.488 153.54 122.784C153.54 122.091 153.29 121.547 152.788 121.152C152.287 120.757 151.53 120.56 150.516 120.56H149.716V119.712L152.82 115.824H147.092V114.8H154.292V115.616L151.124 119.6Z" fill="#0A0A0A"/>
<path d="M204.063 123.056H201.823V126H200.671V123.056H194.351V122.224L200.287 114.8H201.567L195.839 122.032H200.703V119.44H201.823V122.032H204.063V123.056Z" fill="#0A0A0A"/>
<path d="M246.245 119.392C247.866 119.392 249.045 119.685 249.781 120.272C250.527 120.848 250.901 121.659 250.901 122.704C250.901 123.355 250.746 123.936 250.437 124.448C250.138 124.96 249.685 125.365 249.077 125.664C248.469 125.952 247.722 126.096 246.837 126.096C246.037 126.096 245.274 125.968 244.549 125.712C243.834 125.445 243.258 125.093 242.821 124.656L243.381 123.744C243.754 124.128 244.245 124.443 244.853 124.688C245.461 124.923 246.117 125.04 246.821 125.04C247.749 125.04 248.463 124.832 248.965 124.416C249.477 124 249.733 123.445 249.733 122.752C249.733 121.984 249.445 121.403 248.869 121.008C248.303 120.613 247.343 120.416 245.989 120.416H243.605L244.181 114.8H250.309V115.824H245.189L244.805 119.392H246.245Z" fill="#0A0A0A"/>
<path d="M295.597 119.296C296.333 119.296 296.984 119.435 297.549 119.712C298.125 119.989 298.573 120.384 298.893 120.896C299.213 121.397 299.373 121.984 299.373 122.656C299.373 123.339 299.208 123.941 298.877 124.464C298.546 124.987 298.088 125.392 297.501 125.68C296.925 125.957 296.274 126.096 295.549 126.096C294.066 126.096 292.93 125.611 292.141 124.64C291.352 123.659 290.957 122.277 290.957 120.496C290.957 119.248 291.17 118.192 291.597 117.328C292.024 116.464 292.621 115.813 293.389 115.376C294.157 114.928 295.053 114.704 296.077 114.704C297.186 114.704 298.072 114.907 298.733 115.312L298.269 116.24C297.736 115.888 297.01 115.712 296.093 115.712C294.856 115.712 293.885 116.107 293.181 116.896C292.477 117.675 292.125 118.811 292.125 120.304C292.125 120.571 292.141 120.875 292.173 121.216C292.45 120.608 292.893 120.139 293.501 119.808C294.109 119.467 294.808 119.296 295.597 119.296ZM295.501 125.12C296.312 125.12 296.968 124.901 297.469 124.464C297.981 124.016 298.237 123.424 298.237 122.688C298.237 121.952 297.981 121.365 297.469 120.928C296.968 120.491 296.285 120.272 295.421 120.272C294.856 120.272 294.354 120.379 293.917 120.592C293.49 120.805 293.154 121.099 292.909 121.472C292.664 121.845 292.541 122.261 292.541 122.72C292.541 123.147 292.653 123.541 292.877 123.904C293.112 124.267 293.453 124.56 293.901 124.784C294.349 125.008 294.882 125.12 295.501 125.12Z" fill="#E25B13"/>
<path d="M347.025 114.8V115.616L342.337 126H341.089L345.697 115.824H339.937V117.92H338.801V114.8H347.025Z" fill="#E25B13"/>
<path d="M57.1464 168.128C57.8504 168.363 58.3891 168.715 58.7624 169.184C59.1464 169.653 59.3384 170.219 59.3384 170.88C59.3384 171.531 59.1624 172.101 58.8104 172.592C58.4584 173.072 57.9518 173.445 57.2904 173.712C56.6398 173.968 55.8718 174.096 54.9864 174.096C53.6424 174.096 52.5864 173.808 51.8184 173.232C51.0504 172.656 50.6664 171.872 50.6664 170.88C50.6664 170.208 50.8478 169.643 51.2104 169.184C51.5838 168.715 52.1224 168.363 52.8264 168.128C52.2504 167.904 51.8131 167.584 51.5144 167.168C51.2158 166.741 51.0664 166.24 51.0664 165.664C51.0664 164.757 51.4184 164.037 52.1224 163.504C52.8371 162.971 53.7918 162.704 54.9864 162.704C55.7758 162.704 56.4638 162.827 57.0504 163.072C57.6478 163.307 58.1118 163.648 58.4424 164.096C58.7731 164.544 58.9384 165.067 58.9384 165.664C58.9384 166.24 58.7838 166.741 58.4744 167.168C58.1651 167.584 57.7224 167.904 57.1464 168.128ZM52.2184 165.696C52.2184 166.315 52.4638 166.805 52.9544 167.168C53.4451 167.531 54.1224 167.712 54.9864 167.712C55.8504 167.712 56.5278 167.531 57.0184 167.168C57.5198 166.805 57.7704 166.32 57.7704 165.712C57.7704 165.083 57.5144 164.587 57.0024 164.224C56.5011 163.861 55.8291 163.68 54.9864 163.68C54.1331 163.68 53.4558 163.861 52.9544 164.224C52.4638 164.587 52.2184 165.077 52.2184 165.696ZM54.9864 173.12C55.9784 173.12 56.7518 172.917 57.3064 172.512C57.8718 172.107 58.1544 171.557 58.1544 170.864C58.1544 170.171 57.8718 169.627 57.3064 169.232C56.7518 168.827 55.9784 168.624 54.9864 168.624C54.0051 168.624 53.2318 168.827 52.6664 169.232C52.1118 169.627 51.8344 170.171 51.8344 170.864C51.8344 171.568 52.1118 172.123 52.6664 172.528C53.2211 172.923 53.9944 173.12 54.9864 173.12Z" fill="#0A0A0A"/>
<path d="M102.445 162.704C103.928 162.704 105.064 163.195 105.853 164.176C106.642 165.147 107.037 166.523 107.037 168.304C107.037 169.552 106.824 170.608 106.397 171.472C105.97 172.336 105.373 172.992 104.605 173.44C103.837 173.877 102.941 174.096 101.917 174.096C100.808 174.096 99.9223 173.893 99.261 173.488L99.725 172.56C100.258 172.912 100.984 173.088 101.901 173.088C103.138 173.088 104.109 172.699 104.813 171.92C105.517 171.131 105.869 169.989 105.869 168.496C105.869 168.219 105.853 167.915 105.821 167.584C105.544 168.192 105.101 168.667 104.493 169.008C103.885 169.339 103.186 169.504 102.397 169.504C101.661 169.504 101.005 169.365 100.429 169.088C99.8637 168.811 99.421 168.421 99.101 167.92C98.781 167.408 98.621 166.816 98.621 166.144C98.621 165.461 98.7863 164.859 99.117 164.336C99.4477 163.813 99.901 163.413 100.477 163.136C101.064 162.848 101.72 162.704 102.445 162.704ZM102.573 168.528C103.138 168.528 103.634 168.421 104.061 168.208C104.498 167.995 104.84 167.701 105.085 167.328C105.33 166.955 105.453 166.539 105.453 166.08C105.453 165.653 105.336 165.259 105.101 164.896C104.877 164.533 104.541 164.24 104.093 164.016C103.645 163.792 103.112 163.68 102.493 163.68C101.682 163.68 101.021 163.904 100.509 164.352C100.008 164.789 99.757 165.376 99.757 166.112C99.757 166.848 100.008 167.435 100.509 167.872C101.021 168.309 101.709 168.528 102.573 168.528Z" fill="#0A0A0A"/>
<path d="M146.749 162.8V174H145.597V163.824H142.957V162.8H146.749ZM153.89 174.096C153.026 174.096 152.252 173.867 151.57 173.408C150.898 172.949 150.37 172.293 149.986 171.44C149.612 170.576 149.426 169.563 149.426 168.4C149.426 167.237 149.612 166.229 149.986 165.376C150.37 164.512 150.898 163.851 151.57 163.392C152.252 162.933 153.026 162.704 153.89 162.704C154.754 162.704 155.522 162.933 156.194 163.392C156.876 163.851 157.41 164.512 157.794 165.376C158.178 166.229 158.37 167.237 158.37 168.4C158.37 169.563 158.178 170.576 157.794 171.44C157.41 172.293 156.876 172.949 156.194 173.408C155.522 173.867 154.754 174.096 153.89 174.096ZM153.89 173.04C154.54 173.04 155.111 172.859 155.602 172.496C156.103 172.133 156.492 171.605 156.77 170.912C157.047 170.219 157.186 169.381 157.186 168.4C157.186 167.419 157.047 166.581 156.77 165.888C156.492 165.195 156.103 164.667 155.602 164.304C155.111 163.941 154.54 163.76 153.89 163.76C153.239 163.76 152.663 163.941 152.162 164.304C151.671 164.667 151.287 165.195 151.01 165.888C150.732 166.581 150.594 167.419 150.594 168.4C150.594 169.381 150.732 170.219 151.01 170.912C151.287 171.605 151.671 172.133 152.162 172.496C152.663 172.859 153.239 173.04 153.89 173.04Z" fill="#0A0A0A"/>
<path d="M197.155 162.8V174H196.003V163.824H193.363V162.8H197.155ZM202.936 162.8V174H201.784V163.824H199.144V162.8H202.936Z" fill="#0A0A0A"/>
<path d="M243.499 162.8V174H242.347V163.824H239.707V162.8H243.499ZM253.824 172.976V174H245.968V173.184L250.624 168.624C251.21 168.048 251.605 167.552 251.808 167.136C252.021 166.709 252.128 166.283 252.128 165.856C252.128 165.195 251.898 164.683 251.44 164.32C250.992 163.947 250.346 163.76 249.504 163.76C248.192 163.76 247.173 164.176 246.448 165.008L245.632 164.304C246.069 163.792 246.624 163.397 247.296 163.12C247.978 162.843 248.746 162.704 249.6 162.704C250.741 162.704 251.642 162.976 252.304 163.52C252.976 164.053 253.312 164.789 253.312 165.728C253.312 166.304 253.184 166.859 252.928 167.392C252.672 167.925 252.186 168.539 251.472 169.232L247.664 172.976H253.824Z" fill="#0A0A0A"/>
<path d="M291.53 162.8V174H290.378V163.824H287.738V162.8H291.53ZM298.015 167.6C299.188 167.664 300.079 167.984 300.687 168.56C301.306 169.125 301.615 169.867 301.615 170.784C301.615 171.424 301.46 171.995 301.151 172.496C300.842 172.987 300.383 173.376 299.775 173.664C299.167 173.952 298.426 174.096 297.551 174.096C296.74 174.096 295.972 173.968 295.247 173.712C294.532 173.445 293.956 173.093 293.519 172.656L294.079 171.744C294.452 172.128 294.948 172.443 295.567 172.688C296.186 172.923 296.847 173.04 297.551 173.04C298.468 173.04 299.178 172.843 299.679 172.448C300.18 172.043 300.431 171.488 300.431 170.784C300.431 170.091 300.18 169.547 299.679 169.152C299.178 168.757 298.42 168.56 297.407 168.56H296.607V167.712L299.711 163.824H293.983V162.8H301.183V163.616L298.015 167.6Z" fill="#E25B13"/>
<path d="M338.756 162.8V174H337.604V163.824H334.964V162.8H338.756ZM350.954 171.056H348.714V174H347.562V171.056H341.242V170.224L347.178 162.8H348.458L342.73 170.032H347.594V167.44H348.714V170.032H350.954V171.056Z" fill="#E25B13"/>
<path d="M51.5141 210.8V222H50.3621V211.824H47.7221V210.8H51.5141ZM57.1354 215.392C58.7567 215.392 59.9354 215.685 60.6714 216.272C61.418 216.848 61.7914 217.659 61.7914 218.704C61.7914 219.355 61.6367 219.936 61.3274 220.448C61.0287 220.96 60.5754 221.365 59.9674 221.664C59.3594 221.952 58.6127 222.096 57.7274 222.096C56.9274 222.096 56.1647 221.968 55.4394 221.712C54.7247 221.445 54.1487 221.093 53.7114 220.656L54.2714 219.744C54.6447 220.128 55.1354 220.443 55.7434 220.688C56.3514 220.923 57.0074 221.04 57.7114 221.04C58.6394 221.04 59.354 220.832 59.8554 220.416C60.3674 220 60.6234 219.445 60.6234 218.752C60.6234 217.984 60.3354 217.403 59.7594 217.008C59.194 216.613 58.234 216.416 56.8794 216.416H54.4954L55.0714 210.8H61.1994V211.824H56.0794L55.6954 215.392H57.1354Z" fill="#0A0A0A"/>
<path d="M99.1704 210.8V222H98.0184V211.824H95.3784V210.8H99.1704ZM106.488 215.296C107.224 215.296 107.874 215.435 108.44 215.712C109.016 215.989 109.464 216.384 109.784 216.896C110.104 217.397 110.264 217.984 110.264 218.656C110.264 219.339 110.098 219.941 109.768 220.464C109.437 220.987 108.978 221.392 108.392 221.68C107.816 221.957 107.165 222.096 106.44 222.096C104.957 222.096 103.821 221.611 103.032 220.64C102.242 219.659 101.848 218.277 101.848 216.496C101.848 215.248 102.061 214.192 102.488 213.328C102.914 212.464 103.512 211.813 104.28 211.376C105.048 210.928 105.944 210.704 106.968 210.704C108.077 210.704 108.962 210.907 109.624 211.312L109.16 212.24C108.626 211.888 107.901 211.712 106.984 211.712C105.746 211.712 104.776 212.107 104.072 212.896C103.368 213.675 103.016 214.811 103.016 216.304C103.016 216.571 103.032 216.875 103.064 217.216C103.341 216.608 103.784 216.139 104.392 215.808C105 215.467 105.698 215.296 106.488 215.296ZM106.392 221.12C107.202 221.12 107.858 220.901 108.36 220.464C108.872 220.016 109.128 219.424 109.128 218.688C109.128 217.952 108.872 217.365 108.36 216.928C107.858 216.491 107.176 216.272 106.312 216.272C105.746 216.272 105.245 216.379 104.808 216.592C104.381 216.805 104.045 217.099 103.8 217.472C103.554 217.845 103.432 218.261 103.432 218.72C103.432 219.147 103.544 219.541 103.768 219.904C104.002 220.267 104.344 220.56 104.792 220.784C105.24 221.008 105.773 221.12 106.392 221.12Z" fill="#0A0A0A"/>
<path d="M147.334 210.8V222H146.182V211.824H143.542V210.8H147.334ZM157.916 210.8V211.616L153.228 222H151.98L156.588 211.824H150.828V213.92H149.692V210.8H157.916Z" fill="#0A0A0A"/>
<path d="M194.944 210.8V222H193.792V211.824H191.152V210.8H194.944ZM204.037 216.128C204.741 216.363 205.28 216.715 205.653 217.184C206.037 217.653 206.229 218.219 206.229 218.88C206.229 219.531 206.053 220.101 205.701 220.592C205.349 221.072 204.842 221.445 204.181 221.712C203.53 221.968 202.762 222.096 201.877 222.096C200.533 222.096 199.477 221.808 198.709 221.232C197.941 220.656 197.557 219.872 197.557 218.88C197.557 218.208 197.738 217.643 198.101 217.184C198.474 216.715 199.013 216.363 199.717 216.128C199.141 215.904 198.704 215.584 198.405 215.168C198.106 214.741 197.957 214.24 197.957 213.664C197.957 212.757 198.309 212.037 199.013 211.504C199.728 210.971 200.682 210.704 201.877 210.704C202.666 210.704 203.354 210.827 203.941 211.072C204.538 211.307 205.002 211.648 205.333 212.096C205.664 212.544 205.829 213.067 205.829 213.664C205.829 214.24 205.674 214.741 205.365 215.168C205.056 215.584 204.613 215.904 204.037 216.128ZM199.109 213.696C199.109 214.315 199.354 214.805 199.845 215.168C200.336 215.531 201.013 215.712 201.877 215.712C202.741 215.712 203.418 215.531 203.909 215.168C204.41 214.805 204.661 214.32 204.661 213.712C204.661 213.083 204.405 212.587 203.893 212.224C203.392 211.861 202.72 211.68 201.877 211.68C201.024 211.68 200.346 211.861 199.845 212.224C199.354 212.587 199.109 213.077 199.109 213.696ZM201.877 221.12C202.869 221.12 203.642 220.917 204.197 220.512C204.762 220.107 205.045 219.557 205.045 218.864C205.045 218.171 204.762 217.627 204.197 217.232C203.642 216.827 202.869 216.624 201.877 216.624C200.896 216.624 200.122 216.827 199.557 217.232C199.002 217.627 198.725 218.171 198.725 218.864C198.725 219.568 199.002 220.123 199.557 220.528C200.112 220.923 200.885 221.12 201.877 221.12Z" fill="#0A0A0A"/>
<path d="M243.17 210.8V222H242.018V211.824H239.378V210.8H243.17ZM249.336 210.704C250.818 210.704 251.954 211.195 252.744 212.176C253.533 213.147 253.928 214.523 253.928 216.304C253.928 217.552 253.714 218.608 253.288 219.472C252.861 220.336 252.264 220.992 251.496 221.44C250.728 221.877 249.832 222.096 248.808 222.096C247.698 222.096 246.813 221.893 246.152 221.488L246.616 220.56C247.149 220.912 247.874 221.088 248.792 221.088C250.029 221.088 251 220.699 251.704 219.92C252.408 219.131 252.76 217.989 252.76 216.496C252.76 216.219 252.744 215.915 252.712 215.584C252.434 216.192 251.992 216.667 251.384 217.008C250.776 217.339 250.077 217.504 249.288 217.504C248.552 217.504 247.896 217.365 247.32 217.088C246.754 216.811 246.312 216.421 245.992 215.92C245.672 215.408 245.512 214.816 245.512 214.144C245.512 213.461 245.677 212.859 246.008 212.336C246.338 211.813 246.792 211.413 247.368 211.136C247.954 210.848 248.61 210.704 249.336 210.704ZM249.464 216.528C250.029 216.528 250.525 216.421 250.952 216.208C251.389 215.995 251.73 215.701 251.976 215.328C252.221 214.955 252.344 214.539 252.344 214.08C252.344 213.653 252.226 213.259 251.992 212.896C251.768 212.533 251.432 212.24 250.984 212.016C250.536 211.792 250.002 211.68 249.384 211.68C248.573 211.68 247.912 211.904 247.4 212.352C246.898 212.789 246.648 213.376 246.648 214.112C246.648 214.848 246.898 215.435 247.4 215.872C247.912 216.309 248.6 216.528 249.464 216.528Z" fill="#0A0A0A"/>
<path d="M293.668 220.976V222H285.812V221.184L290.468 216.624C291.054 216.048 291.449 215.552 291.652 215.136C291.865 214.709 291.972 214.283 291.972 213.856C291.972 213.195 291.742 212.683 291.284 212.32C290.836 211.947 290.19 211.76 289.348 211.76C288.036 211.76 287.017 212.176 286.292 213.008L285.476 212.304C285.913 211.792 286.468 211.397 287.14 211.12C287.822 210.843 288.59 210.704 289.444 210.704C290.585 210.704 291.486 210.976 292.148 211.52C292.82 212.053 293.156 212.789 293.156 213.728C293.156 214.304 293.028 214.859 292.772 215.392C292.516 215.925 292.03 216.539 291.316 217.232L287.508 220.976H293.668ZM299.515 222.096C298.651 222.096 297.877 221.867 297.195 221.408C296.523 220.949 295.995 220.293 295.611 219.44C295.237 218.576 295.051 217.563 295.051 216.4C295.051 215.237 295.237 214.229 295.611 213.376C295.995 212.512 296.523 211.851 297.195 211.392C297.877 210.933 298.651 210.704 299.515 210.704C300.379 210.704 301.147 210.933 301.819 211.392C302.501 211.851 303.035 212.512 303.419 213.376C303.803 214.229 303.995 215.237 303.995 216.4C303.995 217.563 303.803 218.576 303.419 219.44C303.035 220.293 302.501 220.949 301.819 221.408C301.147 221.867 300.379 222.096 299.515 222.096ZM299.515 221.04C300.165 221.04 300.736 220.859 301.227 220.496C301.728 220.133 302.117 219.605 302.395 218.912C302.672 218.219 302.811 217.381 302.811 216.4C302.811 215.419 302.672 214.581 302.395 213.888C302.117 213.195 301.728 212.667 301.227 212.304C300.736 211.941 300.165 211.76 299.515 211.76C298.864 211.76 298.288 211.941 297.787 212.304C297.296 212.667 296.912 213.195 296.635 213.888C296.357 214.581 296.219 215.419 296.219 216.4C296.219 217.381 296.357 218.219 296.635 218.912C296.912 219.605 297.296 220.133 297.787 220.496C298.288 220.859 298.864 221.04 299.515 221.04Z" fill="#E25B13"/>
<path d="M344.043 220.976V222H336.187V221.184L340.843 216.624C341.429 216.048 341.824 215.552 342.027 215.136C342.24 214.709 342.347 214.283 342.347 213.856C342.347 213.195 342.117 212.683 341.659 212.32C341.211 211.947 340.565 211.76 339.723 211.76C338.411 211.76 337.392 212.176 336.667 213.008L335.851 212.304C336.288 211.792 336.843 211.397 337.515 211.12C338.197 210.843 338.965 210.704 339.819 210.704C340.96 210.704 341.861 210.976 342.523 211.52C343.195 212.053 343.531 212.789 343.531 213.728C343.531 214.304 343.403 214.859 343.147 215.392C342.891 215.925 342.405 216.539 341.691 217.232L337.883 220.976H344.043ZM348.592 210.8V222H347.44V211.824H344.8V210.8H348.592Z" fill="#E25B13"/>
<path d="M52.3863 268.976V270H44.5303V269.184L49.1863 264.624C49.7729 264.048 50.1676 263.552 50.3703 263.136C50.5836 262.709 50.6903 262.283 50.6903 261.856C50.6903 261.195 50.4609 260.683 50.0023 260.32C49.5543 259.947 48.9089 259.76 48.0663 259.76C46.7543 259.76 45.7356 260.176 45.0103 261.008L44.1943 260.304C44.6316 259.792 45.1863 259.397 45.8583 259.12C46.5409 258.843 47.3089 258.704 48.1623 258.704C49.3036 258.704 50.2049 258.976 50.8663 259.52C51.5383 260.053 51.8743 260.789 51.8743 261.728C51.8743 262.304 51.7463 262.859 51.4903 263.392C51.2343 263.925 50.7489 264.539 50.0343 265.232L46.2263 268.976H52.3863ZM61.48 268.976V270H53.624V269.184L58.28 264.624C58.8667 264.048 59.2613 263.552 59.464 263.136C59.6773 262.709 59.784 262.283 59.784 261.856C59.784 261.195 59.5547 260.683 59.096 260.32C58.648 259.947 58.0027 259.76 57.16 259.76C55.848 259.76 54.8293 260.176 54.104 261.008L53.288 260.304C53.7253 259.792 54.28 259.397 54.952 259.12C55.6347 258.843 56.4027 258.704 57.256 258.704C58.3973 258.704 59.2987 258.976 59.96 259.52C60.632 260.053 60.968 260.789 60.968 261.728C60.968 262.304 60.84 262.859 60.584 263.392C60.328 263.925 59.8427 264.539 59.128 265.232L55.32 268.976H61.48Z" fill="#0A0A0A"/>
<path d="M100.418 268.976V270H92.5615V269.184L97.2175 264.624C97.8042 264.048 98.1988 263.552 98.4015 263.136C98.6148 262.709 98.7215 262.283 98.7215 261.856C98.7215 261.195 98.4922 260.683 98.0335 260.32C97.5855 259.947 96.9402 259.76 96.0975 259.76C94.7855 259.76 93.7668 260.176 93.0415 261.008L92.2255 260.304C92.6628 259.792 93.2175 259.397 93.8895 259.12C94.5722 258.843 95.3402 258.704 96.1935 258.704C97.3348 258.704 98.2362 258.976 98.8975 259.52C99.5695 260.053 99.9055 260.789 99.9055 261.728C99.9055 262.304 99.7775 262.859 99.5215 263.392C99.2655 263.925 98.7802 264.539 98.0655 265.232L94.2575 268.976H100.418ZM105.671 263.6C106.845 263.664 107.735 263.984 108.343 264.56C108.962 265.125 109.271 265.867 109.271 266.784C109.271 267.424 109.117 267.995 108.807 268.496C108.498 268.987 108.039 269.376 107.431 269.664C106.823 269.952 106.082 270.096 105.207 270.096C104.397 270.096 103.629 269.968 102.903 269.712C102.189 269.445 101.613 269.093 101.175 268.656L101.735 267.744C102.109 268.128 102.605 268.443 103.223 268.688C103.842 268.923 104.503 269.04 105.207 269.04C106.125 269.04 106.834 268.843 107.335 268.448C107.837 268.043 108.087 267.488 108.087 266.784C108.087 266.091 107.837 265.547 107.335 265.152C106.834 264.757 106.077 264.56 105.063 264.56H104.263V263.712L107.367 259.824H101.639V258.8H108.839V259.616L105.671 263.6Z" fill="#0A0A0A"/>
<path d="M147.832 268.976V270H139.976V269.184L144.632 264.624C145.218 264.048 145.613 263.552 145.816 263.136C146.029 262.709 146.136 262.283 146.136 261.856C146.136 261.195 145.906 260.683 145.448 260.32C145 259.947 144.354 259.76 143.512 259.76C142.2 259.76 141.181 260.176 140.456 261.008L139.64 260.304C140.077 259.792 140.632 259.397 141.304 259.12C141.986 258.843 142.754 258.704 143.608 258.704C144.749 258.704 145.65 258.976 146.312 259.52C146.984 260.053 147.32 260.789 147.32 261.728C147.32 262.304 147.192 262.859 146.936 263.392C146.68 263.925 146.194 264.539 145.48 265.232L141.672 268.976H147.832ZM158.422 267.056H156.182V270H155.03V267.056H148.71V266.224L154.646 258.8H155.926L150.198 266.032H155.062V263.44H156.182V266.032H158.422V267.056Z" fill="#0A0A0A"/>
<path d="M196.402 268.976V270H188.546V269.184L193.202 264.624C193.789 264.048 194.183 263.552 194.386 263.136C194.599 262.709 194.706 262.283 194.706 261.856C194.706 261.195 194.477 260.683 194.018 260.32C193.57 259.947 192.925 259.76 192.082 259.76C190.77 259.76 189.751 260.176 189.026 261.008L188.21 260.304C188.647 259.792 189.202 259.397 189.874 259.12C190.557 258.843 191.325 258.704 192.178 258.704C193.319 258.704 194.221 258.976 194.882 259.52C195.554 260.053 195.89 260.789 195.89 261.728C195.89 262.304 195.762 262.859 195.506 263.392C195.25 263.925 194.765 264.539 194.05 265.232L190.242 268.976H196.402ZM200.792 263.392C202.413 263.392 203.592 263.685 204.328 264.272C205.074 264.848 205.448 265.659 205.448 266.704C205.448 267.355 205.293 267.936 204.984 268.448C204.685 268.96 204.232 269.365 203.624 269.664C203.016 269.952 202.269 270.096 201.384 270.096C200.584 270.096 199.821 269.968 199.096 269.712C198.381 269.445 197.805 269.093 197.368 268.656L197.928 267.744C198.301 268.128 198.792 268.443 199.4 268.688C200.008 268.923 200.664 269.04 201.368 269.04C202.296 269.04 203.01 268.832 203.512 268.416C204.024 268 204.28 267.445 204.28 266.752C204.28 265.984 203.992 265.403 203.416 265.008C202.85 264.613 201.89 264.416 200.536 264.416H198.152L198.728 258.8H204.856V259.824H199.736L199.352 263.392H200.792Z" fill="#0A0A0A"/>
<path d="M244.089 268.976V270H236.233V269.184L240.889 264.624C241.476 264.048 241.871 263.552 242.073 263.136C242.287 262.709 242.393 262.283 242.393 261.856C242.393 261.195 242.164 260.683 241.705 260.32C241.257 259.947 240.612 259.76 239.769 259.76C238.457 259.76 237.439 260.176 236.713 261.008L235.897 260.304C236.335 259.792 236.889 259.397 237.561 259.12C238.244 258.843 239.012 258.704 239.865 258.704C241.007 258.704 241.908 258.976 242.569 259.52C243.241 260.053 243.577 260.789 243.577 261.728C243.577 262.304 243.449 262.859 243.193 263.392C242.937 263.925 242.452 264.539 241.737 265.232L237.929 268.976H244.089ZM250.113 263.296C250.849 263.296 251.499 263.435 252.065 263.712C252.641 263.989 253.089 264.384 253.409 264.896C253.729 265.397 253.889 265.984 253.889 266.656C253.889 267.339 253.723 267.941 253.393 268.464C253.062 268.987 252.603 269.392 252.017 269.68C251.441 269.957 250.79 270.096 250.065 270.096C248.582 270.096 247.446 269.611 246.657 268.64C245.867 267.659 245.473 266.277 245.473 264.496C245.473 263.248 245.686 262.192 246.113 261.328C246.539 260.464 247.137 259.813 247.905 259.376C248.673 258.928 249.569 258.704 250.593 258.704C251.702 258.704 252.587 258.907 253.249 259.312L252.785 260.24C252.251 259.888 251.526 259.712 250.609 259.712C249.371 259.712 248.401 260.107 247.697 260.896C246.993 261.675 246.641 262.811 246.641 264.304C246.641 264.571 246.657 264.875 246.689 265.216C246.966 264.608 247.409 264.139 248.017 263.808C248.625 263.467 249.323 263.296 250.113 263.296ZM250.017 269.12C250.827 269.12 251.483 268.901 251.985 268.464C252.497 268.016 252.753 267.424 252.753 266.688C252.753 265.952 252.497 265.365 251.985 264.928C251.483 264.491 250.801 264.272 249.937 264.272C249.371 264.272 248.87 264.379 248.433 264.592C248.006 264.805 247.67 265.099 247.425 265.472C247.179 265.845 247.057 266.261 247.057 266.72C247.057 267.147 247.169 267.541 247.393 267.904C247.627 268.267 247.969 268.56 248.417 268.784C248.865 269.008 249.398 269.12 250.017 269.12Z" fill="#0A0A0A"/>
<path d="M292.253 268.976V270H284.397V269.184L289.053 264.624C289.64 264.048 290.035 263.552 290.237 263.136C290.451 262.709 290.557 262.283 290.557 261.856C290.557 261.195 290.328 260.683 289.869 260.32C289.421 259.947 288.776 259.76 287.933 259.76C286.621 259.76 285.603 260.176 284.877 261.008L284.061 260.304C284.499 259.792 285.053 259.397 285.725 259.12C286.408 258.843 287.176 258.704 288.029 258.704C289.171 258.704 290.072 258.976 290.733 259.52C291.405 260.053 291.741 260.789 291.741 261.728C291.741 262.304 291.613 262.859 291.357 263.392C291.101 263.925 290.616 264.539 289.901 265.232L286.093 268.976H292.253ZM301.541 258.8V259.616L296.853 270H295.605L300.213 259.824H294.453V261.92H293.317V258.8H301.541Z" fill="#E25B13"/>
<path d="M339.832 268.976V270H331.976V269.184L336.632 264.624C337.218 264.048 337.613 263.552 337.816 263.136C338.029 262.709 338.136 262.283 338.136 261.856C338.136 261.195 337.906 260.683 337.448 260.32C337 259.947 336.354 259.76 335.512 259.76C334.2 259.76 333.181 260.176 332.456 261.008L331.64 260.304C332.077 259.792 332.632 259.397 333.304 259.12C333.986 258.843 334.754 258.704 335.608 258.704C336.749 258.704 337.65 258.976 338.312 259.52C338.984 260.053 339.32 260.789 339.32 261.728C339.32 262.304 339.192 262.859 338.936 263.392C338.68 263.925 338.194 264.539 337.48 265.232L333.672 268.976H339.832ZM347.693 264.128C348.397 264.363 348.936 264.715 349.309 265.184C349.693 265.653 349.885 266.219 349.885 266.88C349.885 267.531 349.709 268.101 349.357 268.592C349.005 269.072 348.499 269.445 347.837 269.712C347.187 269.968 346.419 270.096 345.533 270.096C344.189 270.096 343.133 269.808 342.365 269.232C341.597 268.656 341.213 267.872 341.213 266.88C341.213 266.208 341.395 265.643 341.757 265.184C342.131 264.715 342.669 264.363 343.373 264.128C342.797 263.904 342.36 263.584 342.061 263.168C341.763 262.741 341.613 262.24 341.613 261.664C341.613 260.757 341.965 260.037 342.669 259.504C343.384 258.971 344.339 258.704 345.533 258.704C346.323 258.704 347.011 258.827 347.597 259.072C348.195 259.307 348.659 259.648 348.989 260.096C349.32 260.544 349.485 261.067 349.485 261.664C349.485 262.24 349.331 262.741 349.021 263.168C348.712 263.584 348.269 263.904 347.693 264.128ZM342.765 261.696C342.765 262.315 343.011 262.805 343.501 263.168C343.992 263.531 344.669 263.712 345.533 263.712C346.397 263.712 347.075 263.531 347.565 263.168C348.067 262.805 348.317 262.32 348.317 261.712C348.317 261.083 348.061 260.587 347.549 260.224C347.048 259.861 346.376 259.68 345.533 259.68C344.68 259.68 344.003 259.861 343.501 260.224C343.011 260.587 342.765 261.077 342.765 261.696ZM345.533 269.12C346.525 269.12 347.299 268.917 347.853 268.512C348.419 268.107 348.701 267.557 348.701 266.864C348.701 266.171 348.419 265.627 347.853 265.232C347.299 264.827 346.525 264.624 345.533 264.624C344.552 264.624 343.779 264.827 343.213 265.232C342.659 265.627 342.381 266.171 342.381 266.864C342.381 267.568 342.659 268.123 343.213 268.528C343.768 268.923 344.541 269.12 345.533 269.12Z" fill="#E25B13"/>
<path d="M51.9404 316.848V318H43.1024V317.082L48.3404 311.952C49.0004 311.304 49.4444 310.746 49.6724 310.278C49.9124 309.798 50.0324 309.318 50.0324 308.838C50.0324 308.094 49.7744 307.518 49.2584 307.11C48.7544 306.69 48.0284 306.48 47.0804 306.48C45.6044 306.48 44.4584 306.948 43.6424 307.884L42.7244 307.092C43.2164 306.516 43.8404 306.072 44.5964 305.76C45.3644 305.448 46.2284 305.292 47.1884 305.292C48.4724 305.292 49.4864 305.598 50.2304 306.21C50.9864 306.81 51.3644 307.638 51.3644 308.694C51.3644 309.342 51.2204 309.966 50.9324 310.566C50.6444 311.166 50.0984 311.856 49.2944 312.636L45.0104 316.848H51.9404ZM57.4909 305.292C59.1589 305.292 60.4369 305.844 61.3249 306.948C62.2129 308.04 62.6569 309.588 62.6569 311.592C62.6569 312.996 62.4169 314.184 61.9369 315.156C61.4569 316.128 60.7849 316.866 59.9209 317.37C59.0569 317.862 58.0489 318.108 56.8969 318.108C55.6489 318.108 54.6529 317.88 53.9089 317.424L54.4309 316.38C55.0309 316.776 55.8469 316.974 56.8789 316.974C58.2709 316.974 59.3629 316.536 60.1549 315.66C60.9469 314.772 61.3429 313.488 61.3429 311.808C61.3429 311.496 61.3249 311.154 61.2889 310.782C60.9769 311.466 60.4789 312 59.7949 312.384C59.1109 312.756 58.3249 312.942 57.4369 312.942C56.6089 312.942 55.8709 312.786 55.2229 312.474C54.5869 312.162 54.0889 311.724 53.7289 311.16C53.3689 310.584 53.1889 309.918 53.1889 309.162C53.1889 308.394 53.3749 307.716 53.7469 307.128C54.1189 306.54 54.6289 306.09 55.2769 305.778C55.9369 305.454 56.6749 305.292 57.4909 305.292ZM57.6349 311.844C58.2709 311.844 58.8289 311.724 59.3089 311.484C59.8009 311.244 60.1849 310.914 60.4609 310.494C60.7369 310.074 60.8749 309.606 60.8749 309.09C60.8749 308.61 60.7429 308.166 60.4789 307.758C60.2269 307.35 59.8489 307.02 59.3449 306.768C58.8409 306.516 58.2409 306.39 57.5449 306.39C56.6329 306.39 55.8889 306.642 55.3129 307.146C54.7489 307.638 54.4669 308.298 54.4669 309.126C54.4669 309.954 54.7489 310.614 55.3129 311.106C55.8889 311.598 56.6629 311.844 57.6349 311.844Z" fill="#0A0A0A"/>
<path d="M95.1809 310.8C96.5009 310.872 97.5029 311.232 98.1869 311.88C98.8829 312.516 99.2309 313.35 99.2309 314.382C99.2309 315.102 99.0569 315.744 98.7089 316.308C98.3609 316.86 97.8449 317.298 97.1609 317.622C96.4769 317.946 95.6429 318.108 94.6589 318.108C93.7469 318.108 92.8829 317.964 92.0669 317.676C91.2629 317.376 90.6149 316.98 90.1229 316.488L90.7529 315.462C91.1729 315.894 91.7309 316.248 92.4269 316.524C93.1229 316.788 93.8669 316.92 94.6589 316.92C95.6909 316.92 96.4889 316.698 97.0529 316.254C97.6169 315.798 97.8989 315.174 97.8989 314.382C97.8989 313.602 97.6169 312.99 97.0529 312.546C96.4889 312.102 95.6369 311.88 94.4969 311.88H93.5969V310.926L97.0889 306.552H90.6449V305.4H98.7449V306.318L95.1809 310.8ZM106.079 318.108C105.107 318.108 104.237 317.85 103.469 317.334C102.713 316.818 102.119 316.08 101.687 315.12C101.267 314.148 101.057 313.008 101.057 311.7C101.057 310.392 101.267 309.258 101.687 308.298C102.119 307.326 102.713 306.582 103.469 306.066C104.237 305.55 105.107 305.292 106.079 305.292C107.051 305.292 107.915 305.55 108.671 306.066C109.439 306.582 110.039 307.326 110.471 308.298C110.903 309.258 111.119 310.392 111.119 311.7C111.119 313.008 110.903 314.148 110.471 315.12C110.039 316.08 109.439 316.818 108.671 317.334C107.915 317.85 107.051 318.108 106.079 318.108ZM106.079 316.92C106.811 316.92 107.453 316.716 108.005 316.308C108.569 315.9 109.007 315.306 109.319 314.526C109.631 313.746 109.787 312.804 109.787 311.7C109.787 310.596 109.631 309.654 109.319 308.874C109.007 308.094 108.569 307.5 108.005 307.092C107.453 306.684 106.811 306.48 106.079 306.48C105.347 306.48 104.699 306.684 104.135 307.092C103.583 307.5 103.151 308.094 102.839 308.874C102.527 309.654 102.371 310.596 102.371 311.7C102.371 312.804 102.527 313.746 102.839 314.526C103.151 315.306 103.583 315.9 104.135 316.308C104.699 316.716 105.347 316.92 106.079 316.92Z" fill="#0A0A0A"/>
<rect x="20" y="364" width="358" height="324" rx="16" fill="white"/>
<path d="M29 382C29 376.477 33.4772 372 39 372H359C364.523 372 369 376.477 369 382V398H29V382Z" fill="#5FA9AE"/>
<path d="M49.4278 381.544V384.952H54.8358V386.712H49.4278V391H47.3478V379.8H55.5238V381.544H49.4278ZM65.1409 386.776C65.1409 386.915 65.1302 387.112 65.1089 387.368H58.4049C58.5222 387.997 58.8262 388.499 59.3169 388.872C59.8182 389.235 60.4369 389.416 61.1729 389.416C62.1115 389.416 62.8849 389.107 63.4929 388.488L64.5649 389.72C64.1809 390.179 63.6955 390.525 63.1089 390.76C62.5222 390.995 61.8609 391.112 61.1249 391.112C60.1862 391.112 59.3595 390.925 58.6449 390.552C57.9302 390.179 57.3755 389.661 56.9809 389C56.5969 388.328 56.4049 387.571 56.4049 386.728C56.4049 385.896 56.5915 385.149 56.9649 384.488C57.3489 383.816 57.8769 383.293 58.5489 382.92C59.2209 382.547 59.9782 382.36 60.8209 382.36C61.6529 382.36 62.3942 382.547 63.0449 382.92C63.7062 383.283 64.2182 383.8 64.5809 384.472C64.9542 385.133 65.1409 385.901 65.1409 386.776ZM60.8209 383.96C60.1809 383.96 59.6369 384.152 59.1889 384.536C58.7515 384.909 58.4849 385.411 58.3889 386.04H63.2369C63.1515 385.421 62.8902 384.92 62.4529 384.536C62.0155 384.152 61.4715 383.96 60.8209 383.96ZM71.798 382.36C72.63 382.36 73.3713 382.541 74.022 382.904C74.6833 383.267 75.2007 383.779 75.574 384.44C75.9473 385.101 76.134 385.864 76.134 386.728C76.134 387.592 75.9473 388.36 75.574 389.032C75.2007 389.693 74.6833 390.205 74.022 390.568C73.3713 390.931 72.63 391.112 71.798 391.112C71.2113 391.112 70.6727 391.011 70.182 390.808C69.702 390.605 69.2967 390.301 68.966 389.896V391H67.062V379.128H69.062V383.496C69.4033 383.123 69.8033 382.84 70.262 382.648C70.7313 382.456 71.2433 382.36 71.798 382.36ZM71.574 389.4C72.31 389.4 72.9127 389.155 73.382 388.664C73.862 388.173 74.102 387.528 74.102 386.728C74.102 385.928 73.862 385.283 73.382 384.792C72.9127 384.301 72.31 384.056 71.574 384.056C71.094 384.056 70.662 384.168 70.278 384.392C69.894 384.605 69.59 384.915 69.366 385.32C69.142 385.725 69.03 386.195 69.03 386.728C69.03 387.261 69.142 387.731 69.366 388.136C69.59 388.541 69.894 388.856 70.278 389.08C70.662 389.293 71.094 389.4 71.574 389.4ZM79.9348 383.704C80.5108 382.808 81.5241 382.36 82.9748 382.36V384.264C82.8041 384.232 82.6494 384.216 82.5108 384.216C81.7321 384.216 81.1241 384.445 80.6868 384.904C80.2494 385.352 80.0308 386.003 80.0308 386.856V391H78.0308V382.456H79.9348V383.704ZM92.6253 386.776C92.6253 386.915 92.6146 387.112 92.5933 387.368H85.8893C86.0066 387.997 86.3106 388.499 86.8013 388.872C87.3026 389.235 87.9213 389.416 88.6573 389.416C89.5959 389.416 90.3693 389.107 90.9773 388.488L92.0493 389.72C91.6653 390.179 91.1799 390.525 90.5933 390.76C90.0066 390.995 89.3453 391.112 88.6093 391.112C87.6706 391.112 86.8439 390.925 86.1293 390.552C85.4146 390.179 84.8599 389.661 84.4653 389C84.0813 388.328 83.8893 387.571 83.8893 386.728C83.8893 385.896 84.0759 385.149 84.4493 384.488C84.8333 383.816 85.3613 383.293 86.0333 382.92C86.7053 382.547 87.4626 382.36 88.3053 382.36C89.1373 382.36 89.8786 382.547 90.5293 382.92C91.1906 383.283 91.7026 383.8 92.0653 384.472C92.4386 385.133 92.6253 385.901 92.6253 386.776ZM88.3053 383.96C87.6653 383.96 87.1213 384.152 86.6733 384.536C86.2359 384.909 85.9693 385.411 85.8733 386.04H90.7213C90.6359 385.421 90.3746 384.92 89.9373 384.536C89.4999 384.152 88.9559 383.96 88.3053 383.96ZM96.4504 383.704C97.0264 382.808 98.0397 382.36 99.4904 382.36V384.264C99.3197 384.232 99.165 384.216 99.0264 384.216C98.2477 384.216 97.6397 384.445 97.2024 384.904C96.765 385.352 96.5464 386.003 96.5464 386.856V391H94.5464V382.456H96.4504V383.704Z" fill="#FDFDFD"/>
<path d="M29 398H369V670C369 675.523 364.523 680 359 680H39C33.4772 680 29 675.523 29 670V398Z" fill="#CDE4E6"/>
<path d="M50.7149 413.8H52.7949V423.24H58.6509V425H50.7149V413.8Z" fill="#0A0A0A"/>
<path d="M106.151 425L106.135 417.576L102.455 423.72H101.527L97.8474 417.672V425H95.8634V413.8H97.5754L102.023 421.224L106.391 413.8H108.103L108.119 425H106.151Z" fill="#0A0A0A"/>
<path d="M153.013 425L149.973 420.744L146.965 425H144.597L148.757 419.288L144.821 413.8H147.173L150.037 417.784L152.869 413.8H155.125L151.205 419.208L155.413 425H153.013Z" fill="#0A0A0A"/>
<path d="M197.029 425.16C196.315 425.16 195.653 425.021 195.045 424.744C194.448 424.456 193.957 424.056 193.573 423.544L194.757 422.12C195.376 422.973 196.117 423.4 196.981 423.4C198.144 423.4 198.725 422.712 198.725 421.336V415.544H194.741V413.8H200.805V421.224C200.805 422.536 200.485 423.523 199.845 424.184C199.205 424.835 198.267 425.16 197.029 425.16Z" fill="#0A0A0A"/>
<path d="M252.916 413.8L248.036 425H245.988L241.092 413.8H243.348L247.076 422.44L250.836 413.8H252.916Z" fill="#0A0A0A"/>
<path d="M295.945 425.16C295.081 425.16 294.243 425.037 293.433 424.792C292.633 424.547 291.998 424.221 291.529 423.816L292.249 422.2C292.707 422.563 293.267 422.861 293.929 423.096C294.601 423.32 295.273 423.432 295.945 423.432C296.777 423.432 297.395 423.299 297.801 423.032C298.217 422.765 298.425 422.413 298.425 421.976C298.425 421.656 298.307 421.395 298.073 421.192C297.849 420.979 297.561 420.813 297.209 420.696C296.857 420.579 296.377 420.445 295.769 420.296C294.915 420.093 294.222 419.891 293.689 419.688C293.166 419.485 292.713 419.171 292.329 418.744C291.955 418.307 291.769 417.72 291.769 416.984C291.769 416.365 291.934 415.805 292.265 415.304C292.606 414.792 293.113 414.387 293.785 414.088C294.467 413.789 295.299 413.64 296.281 413.64C296.963 413.64 297.635 413.725 298.297 413.896C298.958 414.067 299.529 414.312 300.009 414.632L299.353 416.248C298.862 415.96 298.35 415.741 297.817 415.592C297.283 415.443 296.766 415.368 296.265 415.368C295.443 415.368 294.83 415.507 294.425 415.784C294.03 416.061 293.833 416.429 293.833 416.888C293.833 417.208 293.945 417.469 294.169 417.672C294.403 417.875 294.697 418.035 295.049 418.152C295.401 418.269 295.881 418.403 296.489 418.552C297.321 418.744 298.003 418.947 298.537 419.16C299.07 419.363 299.523 419.677 299.897 420.104C300.281 420.531 300.473 421.107 300.473 421.832C300.473 422.451 300.302 423.011 299.961 423.512C299.63 424.013 299.123 424.413 298.441 424.712C297.758 425.011 296.926 425.16 295.945 425.16Z" fill="#E25B13"/>
<path d="M338.895 413.8H343.791C344.985 413.8 346.047 414.035 346.975 414.504C347.903 414.963 348.623 415.619 349.135 416.472C349.647 417.315 349.903 418.291 349.903 419.4C349.903 420.509 349.647 421.491 349.135 422.344C348.623 423.187 347.903 423.843 346.975 424.312C346.047 424.771 344.985 425 343.791 425H338.895V413.8ZM343.695 423.24C344.516 423.24 345.236 423.085 345.855 422.776C346.484 422.456 346.964 422.008 347.295 421.432C347.636 420.845 347.807 420.168 347.807 419.4C347.807 418.632 347.636 417.96 347.295 417.384C346.964 416.797 346.484 416.349 345.855 416.04C345.236 415.72 344.516 415.56 343.695 415.56H340.975V423.24H343.695Z" fill="#E25B13"/>
<path d="M56.0454 458.8V470H54.8934V459.824H52.2534V458.8H56.0454Z" fill="#0A0A0A"/>
<path d="M106.933 468.976V470H99.0771V469.184L103.733 464.624C104.32 464.048 104.714 463.552 104.917 463.136C105.13 462.709 105.237 462.283 105.237 461.856C105.237 461.195 105.008 460.683 104.549 460.32C104.101 459.947 103.456 459.76 102.613 459.76C101.301 459.76 100.282 460.176 99.5571 461.008L98.7411 460.304C99.1785 459.792 99.7331 459.397 100.405 459.12C101.088 458.843 101.856 458.704 102.709 458.704C103.85 458.704 104.752 458.976 105.413 459.52C106.085 460.053 106.421 460.789 106.421 461.728C106.421 462.304 106.293 462.859 106.037 463.392C105.781 463.925 105.296 464.539 104.581 465.232L100.773 468.976H106.933Z" fill="#0A0A0A"/>
<path d="M151.124 463.6C152.298 463.664 153.188 463.984 153.796 464.56C154.415 465.125 154.724 465.867 154.724 466.784C154.724 467.424 154.57 467.995 154.26 468.496C153.951 468.987 153.492 469.376 152.884 469.664C152.276 469.952 151.535 470.096 150.66 470.096C149.85 470.096 149.082 469.968 148.356 469.712C147.642 469.445 147.066 469.093 146.628 468.656L147.188 467.744C147.562 468.128 148.058 468.443 148.676 468.688C149.295 468.923 149.956 469.04 150.66 469.04C151.578 469.04 152.287 468.843 152.788 468.448C153.29 468.043 153.54 467.488 153.54 466.784C153.54 466.091 153.29 465.547 152.788 465.152C152.287 464.757 151.53 464.56 150.516 464.56H149.716V463.712L152.82 459.824H147.092V458.8H154.292V459.616L151.124 463.6Z" fill="#0A0A0A"/>
<path d="M204.063 467.056H201.823V470H200.671V467.056H194.351V466.224L200.287 458.8H201.567L195.839 466.032H200.703V463.44H201.823V466.032H204.063V467.056Z" fill="#0A0A0A"/>
<path d="M246.245 463.392C247.866 463.392 249.045 463.685 249.781 464.272C250.527 464.848 250.901 465.659 250.901 466.704C250.901 467.355 250.746 467.936 250.437 468.448C250.138 468.96 249.685 469.365 249.077 469.664C248.469 469.952 247.722 470.096 246.837 470.096C246.037 470.096 245.274 469.968 244.549 469.712C243.834 469.445 243.258 469.093 242.821 468.656L243.381 467.744C243.754 468.128 244.245 468.443 244.853 468.688C245.461 468.923 246.117 469.04 246.821 469.04C247.749 469.04 248.463 468.832 248.965 468.416C249.477 468 249.733 467.445 249.733 466.752C249.733 465.984 249.445 465.403 248.869 465.008C248.303 464.613 247.343 464.416 245.989 464.416H243.605L244.181 458.8H250.309V459.824H245.189L244.805 463.392H246.245Z" fill="#0A0A0A"/>
<path d="M295.597 463.296C296.333 463.296 296.984 463.435 297.549 463.712C298.125 463.989 298.573 464.384 298.893 464.896C299.213 465.397 299.373 465.984 299.373 466.656C299.373 467.339 299.208 467.941 298.877 468.464C298.546 468.987 298.088 469.392 297.501 469.68C296.925 469.957 296.274 470.096 295.549 470.096C294.066 470.096 292.93 469.611 292.141 468.64C291.352 467.659 290.957 466.277 290.957 464.496C290.957 463.248 291.17 462.192 291.597 461.328C292.024 460.464 292.621 459.813 293.389 459.376C294.157 458.928 295.053 458.704 296.077 458.704C297.186 458.704 298.072 458.907 298.733 459.312L298.269 460.24C297.736 459.888 297.01 459.712 296.093 459.712C294.856 459.712 293.885 460.107 293.181 460.896C292.477 461.675 292.125 462.811 292.125 464.304C292.125 464.571 292.141 464.875 292.173 465.216C292.45 464.608 292.893 464.139 293.501 463.808C294.109 463.467 294.808 463.296 295.597 463.296ZM295.501 469.12C296.312 469.12 296.968 468.901 297.469 468.464C297.981 468.016 298.237 467.424 298.237 466.688C298.237 465.952 297.981 465.365 297.469 464.928C296.968 464.491 296.285 464.272 295.421 464.272C294.856 464.272 294.354 464.379 293.917 464.592C293.49 464.805 293.154 465.099 292.909 465.472C292.664 465.845 292.541 466.261 292.541 466.72C292.541 467.147 292.653 467.541 292.877 467.904C293.112 468.267 293.453 468.56 293.901 468.784C294.349 469.008 294.882 469.12 295.501 469.12Z" fill="#E25B13"/>
<path d="M347.025 458.8V459.616L342.337 470H341.089L345.697 459.824H339.937V461.92H338.801V458.8H347.025Z" fill="#E25B13"/>
<path d="M57.1464 512.128C57.8504 512.363 58.3891 512.715 58.7624 513.184C59.1464 513.653 59.3384 514.219 59.3384 514.88C59.3384 515.531 59.1624 516.101 58.8104 516.592C58.4584 517.072 57.9518 517.445 57.2904 517.712C56.6398 517.968 55.8718 518.096 54.9864 518.096C53.6424 518.096 52.5864 517.808 51.8184 517.232C51.0504 516.656 50.6664 515.872 50.6664 514.88C50.6664 514.208 50.8478 513.643 51.2104 513.184C51.5838 512.715 52.1224 512.363 52.8264 512.128C52.2504 511.904 51.8131 511.584 51.5144 511.168C51.2158 510.741 51.0664 510.24 51.0664 509.664C51.0664 508.757 51.4184 508.037 52.1224 507.504C52.8371 506.971 53.7918 506.704 54.9864 506.704C55.7758 506.704 56.4638 506.827 57.0504 507.072C57.6478 507.307 58.1118 507.648 58.4424 508.096C58.7731 508.544 58.9384 509.067 58.9384 509.664C58.9384 510.24 58.7838 510.741 58.4744 511.168C58.1651 511.584 57.7224 511.904 57.1464 512.128ZM52.2184 509.696C52.2184 510.315 52.4638 510.805 52.9544 511.168C53.4451 511.531 54.1224 511.712 54.9864 511.712C55.8504 511.712 56.5278 511.531 57.0184 511.168C57.5198 510.805 57.7704 510.32 57.7704 509.712C57.7704 509.083 57.5144 508.587 57.0024 508.224C56.5011 507.861 55.8291 507.68 54.9864 507.68C54.1331 507.68 53.4558 507.861 52.9544 508.224C52.4638 508.587 52.2184 509.077 52.2184 509.696ZM54.9864 517.12C55.9784 517.12 56.7518 516.917 57.3064 516.512C57.8718 516.107 58.1544 515.557 58.1544 514.864C58.1544 514.171 57.8718 513.627 57.3064 513.232C56.7518 512.827 55.9784 512.624 54.9864 512.624C54.0051 512.624 53.2318 512.827 52.6664 513.232C52.1118 513.627 51.8344 514.171 51.8344 514.864C51.8344 515.568 52.1118 516.123 52.6664 516.528C53.2211 516.923 53.9944 517.12 54.9864 517.12Z" fill="#0A0A0A"/>
<path d="M102.445 506.704C103.928 506.704 105.064 507.195 105.853 508.176C106.642 509.147 107.037 510.523 107.037 512.304C107.037 513.552 106.824 514.608 106.397 515.472C105.97 516.336 105.373 516.992 104.605 517.44C103.837 517.877 102.941 518.096 101.917 518.096C100.808 518.096 99.9223 517.893 99.261 517.488L99.725 516.56C100.258 516.912 100.984 517.088 101.901 517.088C103.138 517.088 104.109 516.699 104.813 515.92C105.517 515.131 105.869 513.989 105.869 512.496C105.869 512.219 105.853 511.915 105.821 511.584C105.544 512.192 105.101 512.667 104.493 513.008C103.885 513.339 103.186 513.504 102.397 513.504C101.661 513.504 101.005 513.365 100.429 513.088C99.8637 512.811 99.421 512.421 99.101 511.92C98.781 511.408 98.621 510.816 98.621 510.144C98.621 509.461 98.7863 508.859 99.117 508.336C99.4477 507.813 99.901 507.413 100.477 507.136C101.064 506.848 101.72 506.704 102.445 506.704ZM102.573 512.528C103.138 512.528 103.634 512.421 104.061 512.208C104.498 511.995 104.84 511.701 105.085 511.328C105.33 510.955 105.453 510.539 105.453 510.08C105.453 509.653 105.336 509.259 105.101 508.896C104.877 508.533 104.541 508.24 104.093 508.016C103.645 507.792 103.112 507.68 102.493 507.68C101.682 507.68 101.021 507.904 100.509 508.352C100.008 508.789 99.757 509.376 99.757 510.112C99.757 510.848 100.008 511.435 100.509 511.872C101.021 512.309 101.709 512.528 102.573 512.528Z" fill="#0A0A0A"/>
<path d="M146.749 506.8V518H145.597V507.824H142.957V506.8H146.749ZM153.89 518.096C153.026 518.096 152.252 517.867 151.57 517.408C150.898 516.949 150.37 516.293 149.986 515.44C149.612 514.576 149.426 513.563 149.426 512.4C149.426 511.237 149.612 510.229 149.986 509.376C150.37 508.512 150.898 507.851 151.57 507.392C152.252 506.933 153.026 506.704 153.89 506.704C154.754 506.704 155.522 506.933 156.194 507.392C156.876 507.851 157.41 508.512 157.794 509.376C158.178 510.229 158.37 511.237 158.37 512.4C158.37 513.563 158.178 514.576 157.794 515.44C157.41 516.293 156.876 516.949 156.194 517.408C155.522 517.867 154.754 518.096 153.89 518.096ZM153.89 517.04C154.54 517.04 155.111 516.859 155.602 516.496C156.103 516.133 156.492 515.605 156.77 514.912C157.047 514.219 157.186 513.381 157.186 512.4C157.186 511.419 157.047 510.581 156.77 509.888C156.492 509.195 156.103 508.667 155.602 508.304C155.111 507.941 154.54 507.76 153.89 507.76C153.239 507.76 152.663 507.941 152.162 508.304C151.671 508.667 151.287 509.195 151.01 509.888C150.732 510.581 150.594 511.419 150.594 512.4C150.594 513.381 150.732 514.219 151.01 514.912C151.287 515.605 151.671 516.133 152.162 516.496C152.663 516.859 153.239 517.04 153.89 517.04Z" fill="#0A0A0A"/>
<path d="M197.155 506.8V518H196.003V507.824H193.363V506.8H197.155ZM202.936 506.8V518H201.784V507.824H199.144V506.8H202.936Z" fill="#0A0A0A"/>
<path d="M243.499 506.8V518H242.347V507.824H239.707V506.8H243.499ZM253.824 516.976V518H245.968V517.184L250.624 512.624C251.21 512.048 251.605 511.552 251.808 511.136C252.021 510.709 252.128 510.283 252.128 509.856C252.128 509.195 251.898 508.683 251.44 508.32C250.992 507.947 250.346 507.76 249.504 507.76C248.192 507.76 247.173 508.176 246.448 509.008L245.632 508.304C246.069 507.792 246.624 507.397 247.296 507.12C247.978 506.843 248.746 506.704 249.6 506.704C250.741 506.704 251.642 506.976 252.304 507.52C252.976 508.053 253.312 508.789 253.312 509.728C253.312 510.304 253.184 510.859 252.928 511.392C252.672 511.925 252.186 512.539 251.472 513.232L247.664 516.976H253.824Z" fill="#0A0A0A"/>
<path d="M291.53 506.8V518H290.378V507.824H287.738V506.8H291.53ZM298.015 511.6C299.188 511.664 300.079 511.984 300.687 512.56C301.306 513.125 301.615 513.867 301.615 514.784C301.615 515.424 301.46 515.995 301.151 516.496C300.842 516.987 300.383 517.376 299.775 517.664C299.167 517.952 298.426 518.096 297.551 518.096C296.74 518.096 295.972 517.968 295.247 517.712C294.532 517.445 293.956 517.093 293.519 516.656L294.079 515.744C294.452 516.128 294.948 516.443 295.567 516.688C296.186 516.923 296.847 517.04 297.551 517.04C298.468 517.04 299.178 516.843 299.679 516.448C300.18 516.043 300.431 515.488 300.431 514.784C300.431 514.091 300.18 513.547 299.679 513.152C299.178 512.757 298.42 512.56 297.407 512.56H296.607V511.712L299.711 507.824H293.983V506.8H301.183V507.616L298.015 511.6Z" fill="#E25B13"/>
<path d="M338.756 506.8V518H337.604V507.824H334.964V506.8H338.756ZM350.954 515.056H348.714V518H347.562V515.056H341.242V514.224L347.178 506.8H348.458L342.73 514.032H347.594V511.44H348.714V514.032H350.954V515.056Z" fill="#E25B13"/>
<path d="M51.5141 554.8V566H50.3621V555.824H47.7221V554.8H51.5141ZM57.1354 559.392C58.7567 559.392 59.9354 559.685 60.6714 560.272C61.418 560.848 61.7914 561.659 61.7914 562.704C61.7914 563.355 61.6367 563.936 61.3274 564.448C61.0287 564.96 60.5754 565.365 59.9674 565.664C59.3594 565.952 58.6127 566.096 57.7274 566.096C56.9274 566.096 56.1647 565.968 55.4394 565.712C54.7247 565.445 54.1487 565.093 53.7114 564.656L54.2714 563.744C54.6447 564.128 55.1354 564.443 55.7434 564.688C56.3514 564.923 57.0074 565.04 57.7114 565.04C58.6394 565.04 59.354 564.832 59.8554 564.416C60.3674 564 60.6234 563.445 60.6234 562.752C60.6234 561.984 60.3354 561.403 59.7594 561.008C59.194 560.613 58.234 560.416 56.8794 560.416H54.4954L55.0714 554.8H61.1994V555.824H56.0794L55.6954 559.392H57.1354Z" fill="#0A0A0A"/>
<path d="M99.1704 554.8V566H98.0184V555.824H95.3784V554.8H99.1704ZM106.488 559.296C107.224 559.296 107.874 559.435 108.44 559.712C109.016 559.989 109.464 560.384 109.784 560.896C110.104 561.397 110.264 561.984 110.264 562.656C110.264 563.339 110.098 563.941 109.768 564.464C109.437 564.987 108.978 565.392 108.392 565.68C107.816 565.957 107.165 566.096 106.44 566.096C104.957 566.096 103.821 565.611 103.032 564.64C102.242 563.659 101.848 562.277 101.848 560.496C101.848 559.248 102.061 558.192 102.488 557.328C102.914 556.464 103.512 555.813 104.28 555.376C105.048 554.928 105.944 554.704 106.968 554.704C108.077 554.704 108.962 554.907 109.624 555.312L109.16 556.24C108.626 555.888 107.901 555.712 106.984 555.712C105.746 555.712 104.776 556.107 104.072 556.896C103.368 557.675 103.016 558.811 103.016 560.304C103.016 560.571 103.032 560.875 103.064 561.216C103.341 560.608 103.784 560.139 104.392 559.808C105 559.467 105.698 559.296 106.488 559.296ZM106.392 565.12C107.202 565.12 107.858 564.901 108.36 564.464C108.872 564.016 109.128 563.424 109.128 562.688C109.128 561.952 108.872 561.365 108.36 560.928C107.858 560.491 107.176 560.272 106.312 560.272C105.746 560.272 105.245 560.379 104.808 560.592C104.381 560.805 104.045 561.099 103.8 561.472C103.554 561.845 103.432 562.261 103.432 562.72C103.432 563.147 103.544 563.541 103.768 563.904C104.002 564.267 104.344 564.56 104.792 564.784C105.24 565.008 105.773 565.12 106.392 565.12Z" fill="#0A0A0A"/>
<path d="M147.334 554.8V566H146.182V555.824H143.542V554.8H147.334ZM157.916 554.8V555.616L153.228 566H151.98L156.588 555.824H150.828V557.92H149.692V554.8H157.916Z" fill="#0A0A0A"/>
<path d="M194.944 554.8V566H193.792V555.824H191.152V554.8H194.944ZM204.037 560.128C204.741 560.363 205.28 560.715 205.653 561.184C206.037 561.653 206.229 562.219 206.229 562.88C206.229 563.531 206.053 564.101 205.701 564.592C205.349 565.072 204.842 565.445 204.181 565.712C203.53 565.968 202.762 566.096 201.877 566.096C200.533 566.096 199.477 565.808 198.709 565.232C197.941 564.656 197.557 563.872 197.557 562.88C197.557 562.208 197.738 561.643 198.101 561.184C198.474 560.715 199.013 560.363 199.717 560.128C199.141 559.904 198.704 559.584 198.405 559.168C198.106 558.741 197.957 558.24 197.957 557.664C197.957 556.757 198.309 556.037 199.013 555.504C199.728 554.971 200.682 554.704 201.877 554.704C202.666 554.704 203.354 554.827 203.941 555.072C204.538 555.307 205.002 555.648 205.333 556.096C205.664 556.544 205.829 557.067 205.829 557.664C205.829 558.24 205.674 558.741 205.365 559.168C205.056 559.584 204.613 559.904 204.037 560.128ZM199.109 557.696C199.109 558.315 199.354 558.805 199.845 559.168C200.336 559.531 201.013 559.712 201.877 559.712C202.741 559.712 203.418 559.531 203.909 559.168C204.41 558.805 204.661 558.32 204.661 557.712C204.661 557.083 204.405 556.587 203.893 556.224C203.392 555.861 202.72 555.68 201.877 555.68C201.024 555.68 200.346 555.861 199.845 556.224C199.354 556.587 199.109 557.077 199.109 557.696ZM201.877 565.12C202.869 565.12 203.642 564.917 204.197 564.512C204.762 564.107 205.045 563.557 205.045 562.864C205.045 562.171 204.762 561.627 204.197 561.232C203.642 560.827 202.869 560.624 201.877 560.624C200.896 560.624 200.122 560.827 199.557 561.232C199.002 561.627 198.725 562.171 198.725 562.864C198.725 563.568 199.002 564.123 199.557 564.528C200.112 564.923 200.885 565.12 201.877 565.12Z" fill="#0A0A0A"/>
<path d="M243.17 554.8V566H242.018V555.824H239.378V554.8H243.17ZM249.336 554.704C250.818 554.704 251.954 555.195 252.744 556.176C253.533 557.147 253.928 558.523 253.928 560.304C253.928 561.552 253.714 562.608 253.288 563.472C252.861 564.336 252.264 564.992 251.496 565.44C250.728 565.877 249.832 566.096 248.808 566.096C247.698 566.096 246.813 565.893 246.152 565.488L246.616 564.56C247.149 564.912 247.874 565.088 248.792 565.088C250.029 565.088 251 564.699 251.704 563.92C252.408 563.131 252.76 561.989 252.76 560.496C252.76 560.219 252.744 559.915 252.712 559.584C252.434 560.192 251.992 560.667 251.384 561.008C250.776 561.339 250.077 561.504 249.288 561.504C248.552 561.504 247.896 561.365 247.32 561.088C246.754 560.811 246.312 560.421 245.992 559.92C245.672 559.408 245.512 558.816 245.512 558.144C245.512 557.461 245.677 556.859 246.008 556.336C246.338 555.813 246.792 555.413 247.368 555.136C247.954 554.848 248.61 554.704 249.336 554.704ZM249.464 560.528C250.029 560.528 250.525 560.421 250.952 560.208C251.389 559.995 251.73 559.701 251.976 559.328C252.221 558.955 252.344 558.539 252.344 558.08C252.344 557.653 252.226 557.259 251.992 556.896C251.768 556.533 251.432 556.24 250.984 556.016C250.536 555.792 250.002 555.68 249.384 555.68C248.573 555.68 247.912 555.904 247.4 556.352C246.898 556.789 246.648 557.376 246.648 558.112C246.648 558.848 246.898 559.435 247.4 559.872C247.912 560.309 248.6 560.528 249.464 560.528Z" fill="#0A0A0A"/>
<path d="M293.668 564.976V566H285.812V565.184L290.468 560.624C291.054 560.048 291.449 559.552 291.652 559.136C291.865 558.709 291.972 558.283 291.972 557.856C291.972 557.195 291.742 556.683 291.284 556.32C290.836 555.947 290.19 555.76 289.348 555.76C288.036 555.76 287.017 556.176 286.292 557.008L285.476 556.304C285.913 555.792 286.468 555.397 287.14 555.12C287.822 554.843 288.59 554.704 289.444 554.704C290.585 554.704 291.486 554.976 292.148 555.52C292.82 556.053 293.156 556.789 293.156 557.728C293.156 558.304 293.028 558.859 292.772 559.392C292.516 559.925 292.03 560.539 291.316 561.232L287.508 564.976H293.668ZM299.515 566.096C298.651 566.096 297.877 565.867 297.195 565.408C296.523 564.949 295.995 564.293 295.611 563.44C295.237 562.576 295.051 561.563 295.051 560.4C295.051 559.237 295.237 558.229 295.611 557.376C295.995 556.512 296.523 555.851 297.195 555.392C297.877 554.933 298.651 554.704 299.515 554.704C300.379 554.704 301.147 554.933 301.819 555.392C302.501 555.851 303.035 556.512 303.419 557.376C303.803 558.229 303.995 559.237 303.995 560.4C303.995 561.563 303.803 562.576 303.419 563.44C303.035 564.293 302.501 564.949 301.819 565.408C301.147 565.867 300.379 566.096 299.515 566.096ZM299.515 565.04C300.165 565.04 300.736 564.859 301.227 564.496C301.728 564.133 302.117 563.605 302.395 562.912C302.672 562.219 302.811 561.381 302.811 560.4C302.811 559.419 302.672 558.581 302.395 557.888C302.117 557.195 301.728 556.667 301.227 556.304C300.736 555.941 300.165 555.76 299.515 555.76C298.864 555.76 298.288 555.941 297.787 556.304C297.296 556.667 296.912 557.195 296.635 557.888C296.357 558.581 296.219 559.419 296.219 560.4C296.219 561.381 296.357 562.219 296.635 562.912C296.912 563.605 297.296 564.133 297.787 564.496C298.288 564.859 298.864 565.04 299.515 565.04Z" fill="#E25B13"/>
<path d="M344.043 564.976V566H336.187V565.184L340.843 560.624C341.429 560.048 341.824 559.552 342.027 559.136C342.24 558.709 342.347 558.283 342.347 557.856C342.347 557.195 342.117 556.683 341.659 556.32C341.211 555.947 340.565 555.76 339.723 555.76C338.411 555.76 337.392 556.176 336.667 557.008L335.851 556.304C336.288 555.792 336.843 555.397 337.515 555.12C338.197 554.843 338.965 554.704 339.819 554.704C340.96 554.704 341.861 554.976 342.523 555.52C343.195 556.053 343.531 556.789 343.531 557.728C343.531 558.304 343.403 558.859 343.147 559.392C342.891 559.925 342.405 560.539 341.691 561.232L337.883 564.976H344.043ZM348.592 554.8V566H347.44V555.824H344.8V554.8H348.592Z" fill="#E25B13"/>
<path d="M52.3863 612.976V614H44.5303V613.184L49.1863 608.624C49.7729 608.048 50.1676 607.552 50.3703 607.136C50.5836 606.709 50.6903 606.283 50.6903 605.856C50.6903 605.195 50.4609 604.683 50.0023 604.32C49.5543 603.947 48.9089 603.76 48.0663 603.76C46.7543 603.76 45.7356 604.176 45.0103 605.008L44.1943 604.304C44.6316 603.792 45.1863 603.397 45.8583 603.12C46.5409 602.843 47.3089 602.704 48.1623 602.704C49.3036 602.704 50.2049 602.976 50.8663 603.52C51.5383 604.053 51.8743 604.789 51.8743 605.728C51.8743 606.304 51.7463 606.859 51.4903 607.392C51.2343 607.925 50.7489 608.539 50.0343 609.232L46.2263 612.976H52.3863ZM61.48 612.976V614H53.624V613.184L58.28 608.624C58.8667 608.048 59.2613 607.552 59.464 607.136C59.6773 606.709 59.784 606.283 59.784 605.856C59.784 605.195 59.5547 604.683 59.096 604.32C58.648 603.947 58.0027 603.76 57.16 603.76C55.848 603.76 54.8293 604.176 54.104 605.008L53.288 604.304C53.7253 603.792 54.28 603.397 54.952 603.12C55.6347 602.843 56.4027 602.704 57.256 602.704C58.3973 602.704 59.2987 602.976 59.96 603.52C60.632 604.053 60.968 604.789 60.968 605.728C60.968 606.304 60.84 606.859 60.584 607.392C60.328 607.925 59.8427 608.539 59.128 609.232L55.32 612.976H61.48Z" fill="#0A0A0A"/>
<path d="M100.418 612.976V614H92.5615V613.184L97.2175 608.624C97.8042 608.048 98.1988 607.552 98.4015 607.136C98.6148 606.709 98.7215 606.283 98.7215 605.856C98.7215 605.195 98.4922 604.683 98.0335 604.32C97.5855 603.947 96.9402 603.76 96.0975 603.76C94.7855 603.76 93.7668 604.176 93.0415 605.008L92.2255 604.304C92.6628 603.792 93.2175 603.397 93.8895 603.12C94.5722 602.843 95.3402 602.704 96.1935 602.704C97.3348 602.704 98.2362 602.976 98.8975 603.52C99.5695 604.053 99.9055 604.789 99.9055 605.728C99.9055 606.304 99.7775 606.859 99.5215 607.392C99.2655 607.925 98.7802 608.539 98.0655 609.232L94.2575 612.976H100.418ZM105.671 607.6C106.845 607.664 107.735 607.984 108.343 608.56C108.962 609.125 109.271 609.867 109.271 610.784C109.271 611.424 109.117 611.995 108.807 612.496C108.498 612.987 108.039 613.376 107.431 613.664C106.823 613.952 106.082 614.096 105.207 614.096C104.397 614.096 103.629 613.968 102.903 613.712C102.189 613.445 101.613 613.093 101.175 612.656L101.735 611.744C102.109 612.128 102.605 612.443 103.223 612.688C103.842 612.923 104.503 613.04 105.207 613.04C106.125 613.04 106.834 612.843 107.335 612.448C107.837 612.043 108.087 611.488 108.087 610.784C108.087 610.091 107.837 609.547 107.335 609.152C106.834 608.757 106.077 608.56 105.063 608.56H104.263V607.712L107.367 603.824H101.639V602.8H108.839V603.616L105.671 607.6Z" fill="#0A0A0A"/>
<path d="M147.832 612.976V614H139.976V613.184L144.632 608.624C145.218 608.048 145.613 607.552 145.816 607.136C146.029 606.709 146.136 606.283 146.136 605.856C146.136 605.195 145.906 604.683 145.448 604.32C145 603.947 144.354 603.76 143.512 603.76C142.2 603.76 141.181 604.176 140.456 605.008L139.64 604.304C140.077 603.792 140.632 603.397 141.304 603.12C141.986 602.843 142.754 602.704 143.608 602.704C144.749 602.704 145.65 602.976 146.312 603.52C146.984 604.053 147.32 604.789 147.32 605.728C147.32 606.304 147.192 606.859 146.936 607.392C146.68 607.925 146.194 608.539 145.48 609.232L141.672 612.976H147.832ZM158.422 611.056H156.182V614H155.03V611.056H148.71V610.224L154.646 602.8H155.926L150.198 610.032H155.062V607.44H156.182V610.032H158.422V611.056Z" fill="#0A0A0A"/>
<path d="M196.402 612.976V614H188.546V613.184L193.202 608.624C193.789 608.048 194.183 607.552 194.386 607.136C194.599 606.709 194.706 606.283 194.706 605.856C194.706 605.195 194.477 604.683 194.018 604.32C193.57 603.947 192.925 603.76 192.082 603.76C190.77 603.76 189.751 604.176 189.026 605.008L188.21 604.304C188.647 603.792 189.202 603.397 189.874 603.12C190.557 602.843 191.325 602.704 192.178 602.704C193.319 602.704 194.221 602.976 194.882 603.52C195.554 604.053 195.89 604.789 195.89 605.728C195.89 606.304 195.762 606.859 195.506 607.392C195.25 607.925 194.765 608.539 194.05 609.232L190.242 612.976H196.402ZM200.792 607.392C202.413 607.392 203.592 607.685 204.328 608.272C205.074 608.848 205.448 609.659 205.448 610.704C205.448 611.355 205.293 611.936 204.984 612.448C204.685 612.96 204.232 613.365 203.624 613.664C203.016 613.952 202.269 614.096 201.384 614.096C200.584 614.096 199.821 613.968 199.096 613.712C198.381 613.445 197.805 613.093 197.368 612.656L197.928 611.744C198.301 612.128 198.792 612.443 199.4 612.688C200.008 612.923 200.664 613.04 201.368 613.04C202.296 613.04 203.01 612.832 203.512 612.416C204.024 612 204.28 611.445 204.28 610.752C204.28 609.984 203.992 609.403 203.416 609.008C202.85 608.613 201.89 608.416 200.536 608.416H198.152L198.728 602.8H204.856V603.824H199.736L199.352 607.392H200.792Z" fill="#0A0A0A"/>
<path d="M244.089 612.976V614H236.233V613.184L240.889 608.624C241.476 608.048 241.871 607.552 242.073 607.136C242.287 606.709 242.393 606.283 242.393 605.856C242.393 605.195 242.164 604.683 241.705 604.32C241.257 603.947 240.612 603.76 239.769 603.76C238.457 603.76 237.439 604.176 236.713 605.008L235.897 604.304C236.335 603.792 236.889 603.397 237.561 603.12C238.244 602.843 239.012 602.704 239.865 602.704C241.007 602.704 241.908 602.976 242.569 603.52C243.241 604.053 243.577 604.789 243.577 605.728C243.577 606.304 243.449 606.859 243.193 607.392C242.937 607.925 242.452 608.539 241.737 609.232L237.929 612.976H244.089ZM250.113 607.296C250.849 607.296 251.499 607.435 252.065 607.712C252.641 607.989 253.089 608.384 253.409 608.896C253.729 609.397 253.889 609.984 253.889 610.656C253.889 611.339 253.723 611.941 253.393 612.464C253.062 612.987 252.603 613.392 252.017 613.68C251.441 613.957 250.79 614.096 250.065 614.096C248.582 614.096 247.446 613.611 246.657 612.64C245.867 611.659 245.473 610.277 245.473 608.496C245.473 607.248 245.686 606.192 246.113 605.328C246.539 604.464 247.137 603.813 247.905 603.376C248.673 602.928 249.569 602.704 250.593 602.704C251.702 602.704 252.587 602.907 253.249 603.312L252.785 604.24C252.251 603.888 251.526 603.712 250.609 603.712C249.371 603.712 248.401 604.107 247.697 604.896C246.993 605.675 246.641 606.811 246.641 608.304C246.641 608.571 246.657 608.875 246.689 609.216C246.966 608.608 247.409 608.139 248.017 607.808C248.625 607.467 249.323 607.296 250.113 607.296ZM250.017 613.12C250.827 613.12 251.483 612.901 251.985 612.464C252.497 612.016 252.753 611.424 252.753 610.688C252.753 609.952 252.497 609.365 251.985 608.928C251.483 608.491 250.801 608.272 249.937 608.272C249.371 608.272 248.87 608.379 248.433 608.592C248.006 608.805 247.67 609.099 247.425 609.472C247.179 609.845 247.057 610.261 247.057 610.72C247.057 611.147 247.169 611.541 247.393 611.904C247.627 612.267 247.969 612.56 248.417 612.784C248.865 613.008 249.398 613.12 250.017 613.12Z" fill="#0A0A0A"/>
<path d="M292.253 612.976V614H284.397V613.184L289.053 608.624C289.64 608.048 290.035 607.552 290.237 607.136C290.451 606.709 290.557 606.283 290.557 605.856C290.557 605.195 290.328 604.683 289.869 604.32C289.421 603.947 288.776 603.76 287.933 603.76C286.621 603.76 285.603 604.176 284.877 605.008L284.061 604.304C284.499 603.792 285.053 603.397 285.725 603.12C286.408 602.843 287.176 602.704 288.029 602.704C289.171 602.704 290.072 602.976 290.733 603.52C291.405 604.053 291.741 604.789 291.741 605.728C291.741 606.304 291.613 606.859 291.357 607.392C291.101 607.925 290.616 608.539 289.901 609.232L286.093 612.976H292.253ZM301.541 602.8V603.616L296.853 614H295.605L300.213 603.824H294.453V605.92H293.317V602.8H301.541Z" fill="#E25B13"/>
<path d="M339.832 612.976V614H331.976V613.184L336.632 608.624C337.218 608.048 337.613 607.552 337.816 607.136C338.029 606.709 338.136 606.283 338.136 605.856C338.136 605.195 337.906 604.683 337.448 604.32C337 603.947 336.354 603.76 335.512 603.76C334.2 603.76 333.181 604.176 332.456 605.008L331.64 604.304C332.077 603.792 332.632 603.397 333.304 603.12C333.986 602.843 334.754 602.704 335.608 602.704C336.749 602.704 337.65 602.976 338.312 603.52C338.984 604.053 339.32 604.789 339.32 605.728C339.32 606.304 339.192 606.859 338.936 607.392C338.68 607.925 338.194 608.539 337.48 609.232L333.672 612.976H339.832ZM347.693 608.128C348.397 608.363 348.936 608.715 349.309 609.184C349.693 609.653 349.885 610.219 349.885 610.88C349.885 611.531 349.709 612.101 349.357 612.592C349.005 613.072 348.499 613.445 347.837 613.712C347.187 613.968 346.419 614.096 345.533 614.096C344.189 614.096 343.133 613.808 342.365 613.232C341.597 612.656 341.213 611.872 341.213 610.88C341.213 610.208 341.395 609.643 341.757 609.184C342.131 608.715 342.669 608.363 343.373 608.128C342.797 607.904 342.36 607.584 342.061 607.168C341.763 606.741 341.613 606.24 341.613 605.664C341.613 604.757 341.965 604.037 342.669 603.504C343.384 602.971 344.339 602.704 345.533 602.704C346.323 602.704 347.011 602.827 347.597 603.072C348.195 603.307 348.659 603.648 348.989 604.096C349.32 604.544 349.485 605.067 349.485 605.664C349.485 606.24 349.331 606.741 349.021 607.168C348.712 607.584 348.269 607.904 347.693 608.128ZM342.765 605.696C342.765 606.315 343.011 606.805 343.501 607.168C343.992 607.531 344.669 607.712 345.533 607.712C346.397 607.712 347.075 607.531 347.565 607.168C348.067 606.805 348.317 606.32 348.317 605.712C348.317 605.083 348.061 604.587 347.549 604.224C347.048 603.861 346.376 603.68 345.533 603.68C344.68 603.68 344.003 603.861 343.501 604.224C343.011 604.587 342.765 605.077 342.765 605.696ZM345.533 613.12C346.525 613.12 347.299 612.917 347.853 612.512C348.419 612.107 348.701 611.557 348.701 610.864C348.701 610.171 348.419 609.627 347.853 609.232C347.299 608.827 346.525 608.624 345.533 608.624C344.552 608.624 343.779 608.827 343.213 609.232C342.659 609.627 342.381 610.171 342.381 610.864C342.381 611.568 342.659 612.123 343.213 612.528C343.768 612.923 344.541 613.12 345.533 613.12Z" fill="#E25B13"/>
<path d="M51.9404 660.848V662H43.1024V661.082L48.3404 655.952C49.0004 655.304 49.4444 654.746 49.6724 654.278C49.9124 653.798 50.0324 653.318 50.0324 652.838C50.0324 652.094 49.7744 651.518 49.2584 651.11C48.7544 650.69 48.0284 650.48 47.0804 650.48C45.6044 650.48 44.4584 650.948 43.6424 651.884L42.7244 651.092C43.2164 650.516 43.8404 650.072 44.5964 649.76C45.3644 649.448 46.2284 649.292 47.1884 649.292C48.4724 649.292 49.4864 649.598 50.2304 650.21C50.9864 650.81 51.3644 651.638 51.3644 652.694C51.3644 653.342 51.2204 653.966 50.9324 654.566C50.6444 655.166 50.0984 655.856 49.2944 656.636L45.0104 660.848H51.9404ZM57.4909 649.292C59.1589 649.292 60.4369 649.844 61.3249 650.948C62.2129 652.04 62.6569 653.588 62.6569 655.592C62.6569 656.996 62.4169 658.184 61.9369 659.156C61.4569 660.128 60.7849 660.866 59.9209 661.37C59.0569 661.862 58.0489 662.108 56.8969 662.108C55.6489 662.108 54.6529 661.88 53.9089 661.424L54.4309 660.38C55.0309 660.776 55.8469 660.974 56.8789 660.974C58.2709 660.974 59.3629 660.536 60.1549 659.66C60.9469 658.772 61.3429 657.488 61.3429 655.808C61.3429 655.496 61.3249 655.154 61.2889 654.782C60.9769 655.466 60.4789 656 59.7949 656.384C59.1109 656.756 58.3249 656.942 57.4369 656.942C56.6089 656.942 55.8709 656.786 55.2229 656.474C54.5869 656.162 54.0889 655.724 53.7289 655.16C53.3689 654.584 53.1889 653.918 53.1889 653.162C53.1889 652.394 53.3749 651.716 53.7469 651.128C54.1189 650.54 54.6289 650.09 55.2769 649.778C55.9369 649.454 56.6749 649.292 57.4909 649.292ZM57.6349 655.844C58.2709 655.844 58.8289 655.724 59.3089 655.484C59.8009 655.244 60.1849 654.914 60.4609 654.494C60.7369 654.074 60.8749 653.606 60.8749 653.09C60.8749 652.61 60.7429 652.166 60.4789 651.758C60.2269 651.35 59.8489 651.02 59.3449 650.768C58.8409 650.516 58.2409 650.39 57.5449 650.39C56.6329 650.39 55.8889 650.642 55.3129 651.146C54.7489 651.638 54.4669 652.298 54.4669 653.126C54.4669 653.954 54.7489 654.614 55.3129 655.106C55.8889 655.598 56.6629 655.844 57.6349 655.844Z" fill="#0A0A0A"/>
<path d="M95.1809 654.8C96.5009 654.872 97.5029 655.232 98.1869 655.88C98.8829 656.516 99.2309 657.35 99.2309 658.382C99.2309 659.102 99.0569 659.744 98.7089 660.308C98.3609 660.86 97.8449 661.298 97.1609 661.622C96.4769 661.946 95.6429 662.108 94.6589 662.108C93.7469 662.108 92.8829 661.964 92.0669 661.676C91.2629 661.376 90.6149 660.98 90.1229 660.488L90.7529 659.462C91.1729 659.894 91.7309 660.248 92.4269 660.524C93.1229 660.788 93.8669 660.92 94.6589 660.92C95.6909 660.92 96.4889 660.698 97.0529 660.254C97.6169 659.798 97.8989 659.174 97.8989 658.382C97.8989 657.602 97.6169 656.99 97.0529 656.546C96.4889 656.102 95.6369 655.88 94.4969 655.88H93.5969V654.926L97.0889 650.552H90.6449V649.4H98.7449V650.318L95.1809 654.8ZM106.079 662.108C105.107 662.108 104.237 661.85 103.469 661.334C102.713 660.818 102.119 660.08 101.687 659.12C101.267 658.148 101.057 657.008 101.057 655.7C101.057 654.392 101.267 653.258 101.687 652.298C102.119 651.326 102.713 650.582 103.469 650.066C104.237 649.55 105.107 649.292 106.079 649.292C107.051 649.292 107.915 649.55 108.671 650.066C109.439 650.582 110.039 651.326 110.471 652.298C110.903 653.258 111.119 654.392 111.119 655.7C111.119 657.008 110.903 658.148 110.471 659.12C110.039 660.08 109.439 660.818 108.671 661.334C107.915 661.85 107.051 662.108 106.079 662.108ZM106.079 660.92C106.811 660.92 107.453 660.716 108.005 660.308C108.569 659.9 109.007 659.306 109.319 658.526C109.631 657.746 109.787 656.804 109.787 655.7C109.787 654.596 109.631 653.654 109.319 652.874C109.007 652.094 108.569 651.5 108.005 651.092C107.453 650.684 106.811 650.48 106.079 650.48C105.347 650.48 104.699 650.684 104.135 651.092C103.583 651.5 103.151 652.094 102.839 652.874C102.527 653.654 102.371 654.596 102.371 655.7C102.371 656.804 102.527 657.746 102.839 658.526C103.151 659.306 103.583 659.9 104.135 660.308C104.699 660.716 105.347 660.92 106.079 660.92Z" fill="#0A0A0A"/>
<rect x="0.5" y="0.5" width="397" height="707" rx="4.5" stroke="#9747FF" stroke-dasharray="10 5"/>
</svg>
