<svg width="75" height="247" viewBox="0 0 75 247" fill="none" xmlns="http://www.w3.org/2000/svg">
<path d="M37.5 26C32.262 26 28 30.262 28 35.5C28 40.738 32.262 45 37.5 45C42.738 45 47 40.738 47 35.5C47 30.262 42.738 26 37.5 26ZM37.5 44C32.813 44 29 40.187 29 35.5C29 30.813 32.813 27 37.5 27C42.187 27 46 30.813 46 35.5C46 40.187 42.187 44 37.5 44ZM42 35.5C42 35.776 41.776 36 41.5 36H37.5C37.224 36 37 35.776 37 35.5V30.5C37 30.224 37.224 30 37.5 30C37.776 30 38 30.224 38 30.5V35H41.5C41.776 35 42 35.223 42 35.5Z" fill="#2A2A2A"/>
<path d="M38 66.5C32.76 66.5 28.5 70.76 28.5 76C28.5 81.24 32.76 85.5 38 85.5C43.24 85.5 47.5 81.24 47.5 76C47.5 70.76 43.24 66.5 38 66.5ZM42 77H38C37.45 77 37 76.55 37 76V71C37 70.45 37.45 70 38 70C38.55 70 39 70.45 39 71V75H42C42.55 75 43 75.45 43 76C43 76.55 42.55 77 42 77Z" fill="#2A2A2A"/>
<path d="M38 113.5C32.76 113.5 28.5 117.76 28.5 123C28.5 128.24 32.76 132.5 38 132.5C43.24 132.5 47.5 128.24 47.5 123C47.5 117.76 43.24 113.5 38 113.5ZM42 124H38C37.45 124 37 123.55 37 123V118C37 117.45 37.45 117 38 117C38.55 117 39 117.45 39 118V122H42C42.55 122 43 122.45 43 123C43 123.55 42.55 124 42 124Z" fill="#A6A6A6"/>
<path d="M38 159.5C32.76 159.5 28.5 163.76 28.5 169C28.5 174.24 32.76 178.5 38 178.5C43.24 178.5 47.5 174.24 47.5 169C47.5 163.76 43.24 159.5 38 159.5ZM42 170H38C37.45 170 37 169.55 37 169V164C37 163.45 37.45 163 38 163C38.55 163 39 163.45 39 164V168H42C42.55 168 43 168.45 43 169C43 169.55 42.55 170 42 170Z" fill="#EE7839"/>
<path d="M38 205.5C32.76 205.5 28.5 209.76 28.5 215C28.5 220.24 32.76 224.5 38 224.5C43.24 224.5 47.5 220.24 47.5 215C47.5 209.76 43.24 205.5 38 205.5ZM42 216H38C37.45 216 37 215.55 37 215V210C37 209.45 37.45 209 38 209C38.55 209 39 209.45 39 210V214H42C42.55 214 43 214.45 43 215C43 215.55 42.55 216 42 216Z" fill="#83BCC0"/>
<rect x="0.5" y="0.5" width="74" height="246" rx="4.5" stroke="#9747FF" stroke-dasharray="10 5"/>
</svg>
