<svg width="65" height="248" viewBox="0 0 65 248" fill="none" xmlns="http://www.w3.org/2000/svg">
<path d="M39.821 27.5069L34.821 23.4855C33.186 22.171 30.814 22.172 29.178 23.4855L24.178 27.5069C23.112 28.3643 22.5 29.6407 22.5 31.0092V37.0034C22.5 39.4832 24.519 41.5 27 41.5H29.5V37.0034C29.5 35.6269 30.622 34.5065 32 34.5065C33.378 34.5065 34.5 35.6269 34.5 37.0034V41.5H37C39.481 41.5 41.5 39.4832 41.5 37.0034V31.0092C41.5 29.6407 40.888 28.3643 39.821 27.5069ZM40.5 37.0034C40.5 38.931 38.93 40.4996 37 40.4996H35.5V37.0034C35.5 35.0747 33.93 33.5061 32 33.5061C30.07 33.5061 28.5 35.0747 28.5 37.0034V40.4996H27C25.07 40.4996 23.5 38.931 23.5 37.0034V31.0092C23.5 29.9458 23.976 28.9535 24.805 28.2862L29.805 24.2648C31.077 23.2424 32.924 23.2434 34.195 24.2648L39.195 28.2862C40.025 28.9535 40.5 29.9458 40.5 31.0092V37.0034Z" fill="#2A2A2A"/>
<path d="M41.5 77.0086V83.0028C41.5 85.4828 39.481 87.4985 37 87.4985H34.5V83.0018C34.5 81.6253 33.378 80.5059 32 80.5059C30.622 80.5059 29.5 81.6253 29.5 83.0018V87.4985H27C24.519 87.4985 22.5 85.4818 22.5 83.0028V77.0086C22.5 75.6411 23.112 74.3637 24.178 73.5053L29.179 69.4859C30.813 68.1714 33.186 68.1714 34.822 69.4859L39.822 73.5063C40.889 74.3647 41.501 75.6421 41.501 77.0096L41.5 77.0086Z" fill="#2A2A2A"/>
<path d="M41.5 123.007V129.001C41.5 131.481 39.481 133.497 37 133.497H34.5V129C34.5 127.624 33.378 126.504 32 126.504C30.622 126.504 29.5 127.624 29.5 129V133.497H27C24.519 133.497 22.5 131.48 22.5 129.001V123.007C22.5 121.64 23.112 120.362 24.178 119.504L29.179 115.484C30.813 114.17 33.186 114.17 34.822 115.484L39.822 119.505C40.889 120.363 41.501 121.641 41.501 123.008L41.5 123.007Z" fill="#A6A6A6"/>
<path d="M41.5 169.006V175C41.5 177.48 39.481 179.496 37 179.496H34.5V174.999C34.5 173.622 33.378 172.503 32 172.503C30.622 172.503 29.5 173.622 29.5 174.999V179.496H27C24.519 179.496 22.5 177.479 22.5 175V169.006C22.5 167.638 23.112 166.361 24.178 165.502L29.179 161.483C30.813 160.168 33.186 160.168 34.822 161.483L39.822 165.503C40.889 166.362 41.501 167.639 41.501 169.007L41.5 169.006Z" fill="#EE7839"/>
<path d="M41.5 215.004V220.998C41.5 223.478 39.481 225.494 37 225.494H34.5V220.997C34.5 219.621 33.378 218.502 32 218.502C30.622 218.502 29.5 219.621 29.5 220.997V225.494H27C24.519 225.494 22.5 223.477 22.5 220.998V215.004C22.5 213.637 23.112 212.359 24.178 211.501L29.179 207.481C30.813 206.167 33.186 206.167 34.822 207.481L39.822 211.502C40.889 212.36 41.501 213.638 41.501 215.005L41.5 215.004Z" fill="#83BCC0"/>
<rect x="0.5" y="0.5" width="63.002" height="246.994" rx="4.5" stroke="#9747FF" stroke-dasharray="10 5"/>
</svg>
