<svg width="75" height="243" viewBox="0 0 75 243" fill="none" xmlns="http://www.w3.org/2000/svg">
<path d="M42.5 24.3091H32.5C30.019 24.3091 28 26.3281 28 28.8091V34.8091C28 37.2901 30.019 39.3091 32.5 39.3091H42.5C44.981 39.3091 47 37.2901 47 34.8091V28.8091C47 26.3271 44.981 24.3091 42.5 24.3091ZM32.5 25.3091H42.5C44.43 25.3091 46 26.8791 46 28.8091V29.3091H29V28.8091C29 26.8791 30.57 25.3091 32.5 25.3091ZM42.5 38.3091H32.5C30.57 38.3091 29 36.7391 29 34.8091V30.3091H46V34.8091C46 36.7381 44.43 38.3091 42.5 38.3091ZM36 34.8091C36 35.0851 35.776 35.3091 35.5 35.3091H32.5C32.224 35.3091 32 35.0851 32 34.8091C32 34.5331 32.224 34.3091 32.5 34.3091H35.5C35.776 34.3091 36 34.5321 36 34.8091Z" fill="#2A2A2A"/>
<path d="M43 68.5H33C30.52 68.5 28.5 70.52 28.5 73H47.5C47.5 70.52 45.48 68.5 43 68.5ZM28.5 75V79C28.5 81.48 30.52 83.5 33 83.5H43C45.48 83.5 47.5 81.48 47.5 79V75H28.5ZM36 80H33C32.45 80 32 79.55 32 79C32 78.45 32.45 78 33 78H36C36.55 78 37 78.45 37 79C37 79.55 36.55 80 36 80Z" fill="#2A2A2A"/>
<path d="M43 113.5H33C30.52 113.5 28.5 115.52 28.5 118H47.5C47.5 115.52 45.48 113.5 43 113.5ZM28.5 120V124C28.5 126.48 30.52 128.5 33 128.5H43C45.48 128.5 47.5 126.48 47.5 124V120H28.5ZM36 125H33C32.45 125 32 124.55 32 124C32 123.45 32.45 123 33 123H36C36.55 123 37 123.45 37 124C37 124.55 36.55 125 36 125Z" fill="#A6A6A6"/>
<path d="M43 157.5H33C30.52 157.5 28.5 159.52 28.5 162H47.5C47.5 159.52 45.48 157.5 43 157.5ZM28.5 164V168C28.5 170.48 30.52 172.5 33 172.5H43C45.48 172.5 47.5 170.48 47.5 168V164H28.5ZM36 169H33C32.45 169 32 168.55 32 168C32 167.45 32.45 167 33 167H36C36.55 167 37 167.45 37 168C37 168.55 36.55 169 36 169Z" fill="#EE7839"/>
<path d="M43 202.5H33C30.52 202.5 28.5 204.52 28.5 207H47.5C47.5 204.52 45.48 202.5 43 202.5ZM28.5 209V213C28.5 215.48 30.52 217.5 33 217.5H43C45.48 217.5 47.5 215.48 47.5 213V209H28.5ZM36 214H33C32.45 214 32 213.55 32 213C32 212.45 32.45 212 33 212H36C36.55 212 37 212.45 37 213C37 213.55 36.55 214 36 214Z" fill="#83BCC0"/>
<rect x="0.5" y="0.5" width="74" height="242" rx="4.5" stroke="#9747FF" stroke-dasharray="10 5"/>
</svg>
