<svg width="64" height="240" viewBox="0 0 64 240" fill="none" xmlns="http://www.w3.org/2000/svg">
<path d="M40.158 26.526C37.232 25.55 33.303 23.594 32.371 22.649C32.278 22.555 32.151 22.501 32.019 22.5C31.893 22.5 31.759 22.551 31.664 22.644C30.634 23.659 27.706 25.563 23.864 26.649C23.649 26.71 23.5 26.906 23.5 27.13C23.5 35.401 24.708 39.436 31.864 41.481C31.909 41.494 31.955 41.5 32.001 41.5C32.047 41.5 32.093 41.494 32.138 41.481C39.293 39.437 40.5 35.361 40.5 27C40.5 26.784 40.362 26.594 40.158 26.526ZM32.001 40.479C25.65 38.619 24.535 35.093 24.501 27.505C27.993 26.458 30.746 24.761 32.024 23.668C33.383 24.727 36.749 26.397 39.499 27.357C39.467 35.049 38.356 38.617 32.001 40.479Z" fill="#2A2A2A"/>
<path d="M40.158 70.526C37.232 69.55 33.303 67.594 32.371 66.649C32.278 66.555 32.151 66.501 32.019 66.5C31.893 66.5 31.759 66.551 31.664 66.644C30.634 67.659 27.706 69.563 23.864 70.649C23.649 70.71 23.5 70.906 23.5 71.13C23.5 79.401 24.708 83.436 31.864 85.481C31.909 85.494 31.955 85.5 32.001 85.5C32.047 85.5 32.093 85.494 32.138 85.481C39.293 83.437 40.5 79.361 40.5 71C40.5 70.784 40.362 70.594 40.158 70.526Z" fill="#2A2A2A"/>
<path d="M40.158 114.526C37.232 113.55 33.303 111.594 32.371 110.649C32.278 110.555 32.151 110.501 32.019 110.5C31.893 110.5 31.759 110.551 31.664 110.644C30.634 111.659 27.706 113.563 23.864 114.649C23.649 114.71 23.5 114.906 23.5 115.13C23.5 123.401 24.708 127.436 31.864 129.481C31.909 129.494 31.955 129.5 32.001 129.5C32.047 129.5 32.093 129.494 32.138 129.481C39.293 127.437 40.5 123.361 40.5 115C40.5 114.784 40.362 114.594 40.158 114.526Z" fill="#A6A6A6"/>
<path d="M40.158 158.526C37.232 157.55 33.303 155.594 32.371 154.649C32.278 154.555 32.151 154.501 32.019 154.5C31.893 154.5 31.759 154.551 31.664 154.644C30.634 155.659 27.706 157.563 23.864 158.649C23.649 158.71 23.5 158.906 23.5 159.13C23.5 167.401 24.708 171.436 31.864 173.481C31.909 173.494 31.955 173.5 32.001 173.5C32.047 173.5 32.093 173.494 32.138 173.481C39.293 171.437 40.5 167.361 40.5 159C40.5 158.784 40.362 158.594 40.158 158.526Z" fill="#EE7839"/>
<path d="M40.158 202.526C37.232 201.55 33.303 199.594 32.371 198.649C32.278 198.555 32.151 198.501 32.019 198.5C31.893 198.5 31.759 198.551 31.664 198.644C30.634 199.659 27.706 201.563 23.864 202.649C23.649 202.71 23.5 202.906 23.5 203.13C23.5 211.401 24.708 215.436 31.864 217.481C31.909 217.494 31.955 217.5 32.001 217.5C32.047 217.5 32.093 217.494 32.138 217.481C39.293 215.437 40.5 211.361 40.5 203C40.5 202.784 40.362 202.594 40.158 202.526Z" fill="#83BCC0"/>
<rect x="0.5" y="0.5" width="63" height="239" rx="4.5" stroke="#9747FF" stroke-dasharray="10 5"/>
</svg>
