<svg width="64" height="108" viewBox="0 0 64 108" fill="none" xmlns="http://www.w3.org/2000/svg">
<path d="M36.8543 40.6462C37.0493 40.8412 37.0493 41.1583 36.8543 41.3533C36.7563 41.4513 36.6283 41.4992 36.5003 41.4992C36.3723 41.4992 36.2442 41.4503 36.1462 41.3533L27.1462 32.3533C26.9513 32.1583 26.9513 31.8412 27.1462 31.6462L36.1462 22.6462C36.3412 22.4513 36.6583 22.4513 36.8533 22.6462C37.0483 22.8413 37.0483 23.1583 36.8533 23.3533L28.2072 32.0003L36.8543 40.6462Z" fill="#2A2A2A"/>
<path d="M27.1457 84.6455C26.9507 84.8405 26.9507 85.1575 27.1457 85.3525C27.2437 85.4505 27.3717 85.4985 27.4997 85.4985C27.6277 85.4985 27.7558 85.4495 27.8538 85.3525L36.8538 76.3525C37.0487 76.1575 37.0487 75.8405 36.8538 75.6455L27.8538 66.6455C27.6588 66.4505 27.3417 66.4505 27.1467 66.6455C26.9517 66.8405 26.9517 67.1575 27.1467 67.3525L35.7928 75.9995L27.1457 84.6455Z" fill="#2A2A2A"/>
<rect x="0.5" y="0.5" width="63" height="106.998" rx="4.5" stroke="#9747FF" stroke-dasharray="10 5"/>
</svg>
