<svg width="64" height="248" viewBox="0 0 64 248" fill="none" xmlns="http://www.w3.org/2000/svg">
<path d="M35 22.5H29C25.416 22.5 22.5 25.416 22.5 29V35C22.5 38.584 25.416 41.5 29 41.5H35C38.584 41.5 41.5 38.584 41.5 35V29C41.5 25.416 38.584 22.5 35 22.5ZM40.5 35C40.5 38.033 38.033 40.5 35 40.5H29C25.967 40.5 23.5 38.033 23.5 35V29C23.5 25.967 25.967 23.5 29 23.5H35C38.033 23.5 40.5 25.967 40.5 29V35ZM36.5 32C36.5 32.276 36.276 32.5 36 32.5H32.5V36C32.5 36.276 32.276 36.5 32 36.5C31.724 36.5 31.5 36.276 31.5 36V32.5H28C27.724 32.5 27.5 32.276 27.5 32C27.5 31.724 27.724 31.5 28 31.5H31.5V28C31.5 27.724 31.724 27.5 32 27.5C32.276 27.5 32.5 27.724 32.5 28V31.5H36C36.276 31.5 36.5 31.723 36.5 32Z" fill="#2A2A2A"/>
<path d="M35 68.5H29C25.42 68.5 22.5 71.42 22.5 75V81C22.5 84.58 25.42 87.5 29 87.5H35C38.58 87.5 41.5 84.58 41.5 81V75C41.5 71.42 38.58 68.5 35 68.5ZM36 79H33V82C33 82.55 32.55 83 32 83C31.45 83 31 82.55 31 82V79H28C27.45 79 27 78.55 27 78C27 77.45 27.45 77 28 77H31V74C31 73.45 31.45 73 32 73C32.55 73 33 73.45 33 74V77H36C36.55 77 37 77.45 37 78C37 78.55 36.55 79 36 79Z" fill="#2A2A2A"/>
<path d="M35 114.5H29C25.42 114.5 22.5 117.42 22.5 121V127C22.5 130.58 25.42 133.5 29 133.5H35C38.58 133.5 41.5 130.58 41.5 127V121C41.5 117.42 38.58 114.5 35 114.5ZM36 125H33V128C33 128.55 32.55 129 32 129C31.45 129 31 128.55 31 128V125H28C27.45 125 27 124.55 27 124C27 123.45 27.45 123 28 123H31V120C31 119.45 31.45 119 32 119C32.55 119 33 119.45 33 120V123H36C36.55 123 37 123.45 37 124C37 124.55 36.55 125 36 125Z" fill="#A6A6A6"/>
<path d="M35 160.5H29C25.42 160.5 22.5 163.42 22.5 167V173C22.5 176.58 25.42 179.5 29 179.5H35C38.58 179.5 41.5 176.58 41.5 173V167C41.5 163.42 38.58 160.5 35 160.5ZM36 171H33V174C33 174.55 32.55 175 32 175C31.45 175 31 174.55 31 174V171H28C27.45 171 27 170.55 27 170C27 169.45 27.45 169 28 169H31V166C31 165.45 31.45 165 32 165C32.55 165 33 165.45 33 166V169H36C36.55 169 37 169.45 37 170C37 170.55 36.55 171 36 171Z" fill="#EE7839"/>
<path d="M35 206.5H29C25.42 206.5 22.5 209.42 22.5 213V219C22.5 222.58 25.42 225.5 29 225.5H35C38.58 225.5 41.5 222.58 41.5 219V213C41.5 209.42 38.58 206.5 35 206.5ZM36 217H33V220C33 220.55 32.55 221 32 221C31.45 221 31 220.55 31 220V217H28C27.45 217 27 216.55 27 216C27 215.45 27.45 215 28 215H31V212C31 211.45 31.45 211 32 211C32.55 211 33 211.45 33 212V215H36C36.55 215 37 215.45 37 216C37 216.55 36.55 217 36 217Z" fill="#83BCC0"/>
<rect x="0.5" y="0.5" width="63" height="247" rx="4.5" stroke="#9747FF" stroke-dasharray="10 5"/>
</svg>
