<svg width="75" height="245" viewBox="0 0 75 245" fill="none" xmlns="http://www.w3.org/2000/svg">
<path d="M46.9396 37.1444C46.9176 37.0194 46.8926 36.9094 46.8646 36.8114C46.7156 36.2784 46.2496 35.8734 45.6786 35.7784L41.3466 35.0574C40.8026 34.9654 40.2505 35.1774 39.9145 35.6064C39.8635 35.6704 39.8156 35.7364 39.7696 35.8034C39.6076 36.0404 39.3376 36.1294 39.0986 36.0254C36.7946 35.0234 34.9736 33.2024 33.9726 30.8984C33.8686 30.6594 33.9555 30.3914 34.1905 30.2314C34.2796 30.1704 34.3656 30.1064 34.4506 30.0384C34.8686 29.7004 35.0756 29.1604 34.9916 28.6274L34.3216 24.3724C34.2336 23.8124 33.8496 23.3564 33.3216 23.1814C33.1866 23.1374 33.0296 23.0954 32.8476 23.0624C31.6556 22.8494 30.4356 23.1874 29.4986 23.9924C28.5126 24.8404 27.9666 26.0704 28.0016 27.3674C28.2166 35.3554 34.6436 41.7824 42.6316 41.9984C42.6706 41.9994 42.7086 41.9994 42.7476 41.9994C43.9916 41.9994 45.1676 41.4604 45.9896 40.5094C46.8016 39.5714 47.1476 38.3444 46.9396 37.1444ZM45.2316 39.8584C44.5816 40.6104 43.6486 41.0384 42.6576 41.0004C35.1996 40.7994 29.2005 34.7994 29.0005 27.3424C28.9735 26.3474 29.3926 25.4044 30.1496 24.7534C30.7186 24.2644 31.4236 24.0034 32.1436 24.0034C32.3186 24.0034 32.4946 24.0184 32.6696 24.0504C32.7986 24.0734 32.9096 24.1024 33.0046 24.1334C33.1766 24.1904 33.3015 24.3424 33.3315 24.5304L34.0026 28.7854C34.0306 28.9664 33.9606 29.1484 33.8206 29.2624C33.7586 29.3134 33.6936 29.3614 33.6266 29.4064C32.9926 29.8374 32.7576 30.6154 33.0546 31.2984C34.1576 33.8364 36.1616 35.8404 38.6996 36.9444C39.3816 37.2394 40.1606 37.0054 40.5956 36.3684C40.6286 36.3204 40.6636 36.2724 40.7006 36.2254C40.8106 36.0824 40.9946 36.0144 41.1816 36.0444L45.5135 36.7654C45.7035 36.7974 45.8556 36.9214 45.9006 37.0814C45.9206 37.1504 45.9376 37.2274 45.9526 37.3154C46.1116 38.2194 45.8486 39.1454 45.2316 39.8584Z" fill="#2A2A2A"/>
<path d="M46.9396 82.1439C46.9176 82.0189 46.8926 81.9089 46.8646 81.8109C46.7156 81.2779 46.2496 80.8729 45.6786 80.7779L41.3466 80.0569C40.8026 79.9649 40.2505 80.1769 39.9145 80.6059C39.8635 80.6699 39.8156 80.7359 39.7696 80.8029C39.6076 81.0399 39.3376 81.1289 39.0986 81.0249C36.7946 80.0229 34.9736 78.2019 33.9726 75.8979C33.8686 75.6589 33.9555 75.3909 34.1905 75.2309C34.2796 75.1699 34.3656 75.1059 34.4506 75.0379C34.8686 74.6999 35.0756 74.1599 34.9916 73.6269L34.3216 69.3719C34.2336 68.8119 33.8496 68.3559 33.3216 68.1809C33.1866 68.1369 33.0296 68.0949 32.8476 68.0619C31.6556 67.8489 30.4356 68.1869 29.4986 68.9919C28.5126 69.8399 27.9666 71.0699 28.0016 72.3669C28.2166 80.3549 34.6436 86.7819 42.6316 86.9979C42.6706 86.9989 42.7086 86.9989 42.7476 86.9989C43.9916 86.9989 45.1676 86.4599 45.9896 85.5089C46.8016 84.5709 47.1476 83.3439 46.9396 82.1439Z" fill="#2A2A2A"/>
<path d="M46.9396 127.143C46.9176 127.018 46.8926 126.908 46.8646 126.81C46.7156 126.277 46.2496 125.872 45.6786 125.777L41.3466 125.056C40.8026 124.964 40.2505 125.176 39.9145 125.605C39.8635 125.669 39.8156 125.735 39.7696 125.802C39.6076 126.039 39.3376 126.128 39.0986 126.024C36.7946 125.022 34.9736 123.201 33.9726 120.897C33.8686 120.658 33.9555 120.39 34.1905 120.23C34.2796 120.169 34.3656 120.105 34.4506 120.037C34.8686 119.699 35.0756 119.159 34.9916 118.626L34.3216 114.371C34.2336 113.811 33.8496 113.355 33.3216 113.18C33.1866 113.136 33.0296 113.094 32.8476 113.061C31.6556 112.848 30.4356 113.186 29.4986 113.991C28.5126 114.839 27.9666 116.069 28.0016 117.366C28.2166 125.354 34.6436 131.781 42.6316 131.997C42.6706 131.998 42.7086 131.998 42.7476 131.998C43.9916 131.998 45.1676 131.459 45.9896 130.508C46.8016 129.57 47.1476 128.343 46.9396 127.143Z" fill="#A6A6A6"/>
<path d="M46.9396 172.142C46.9176 172.017 46.8926 171.907 46.8646 171.809C46.7156 171.276 46.2496 170.871 45.6786 170.776L41.3466 170.055C40.8026 169.963 40.2505 170.175 39.9145 170.604C39.8635 170.668 39.8156 170.734 39.7696 170.801C39.6076 171.038 39.3376 171.127 39.0986 171.023C36.7946 170.021 34.9736 168.2 33.9726 165.896C33.8686 165.657 33.9555 165.389 34.1905 165.229C34.2796 165.168 34.3656 165.104 34.4506 165.036C34.8686 164.698 35.0756 164.158 34.9916 163.625L34.3216 159.37C34.2336 158.81 33.8496 158.354 33.3216 158.179C33.1866 158.135 33.0296 158.093 32.8476 158.06C31.6556 157.847 30.4356 158.185 29.4986 158.99C28.5126 159.838 27.9666 161.068 28.0016 162.365C28.2166 170.353 34.6436 176.78 42.6316 176.996C42.6706 176.997 42.7086 176.997 42.7476 176.997C43.9916 176.997 45.1676 176.458 45.9896 175.507C46.8016 174.569 47.1476 173.342 46.9396 172.142Z" fill="#EE7839"/>
<path d="M46.9396 217.142C46.9176 217.017 46.8926 216.907 46.8646 216.809C46.7156 216.276 46.2496 215.871 45.6786 215.776L41.3466 215.055C40.8026 214.963 40.2505 215.175 39.9145 215.604C39.8635 215.668 39.8156 215.734 39.7696 215.801C39.6076 216.038 39.3376 216.127 39.0986 216.023C36.7946 215.021 34.9736 213.2 33.9726 210.896C33.8686 210.657 33.9555 210.389 34.1905 210.229C34.2796 210.168 34.3656 210.104 34.4506 210.036C34.8686 209.698 35.0756 209.158 34.9916 208.625L34.3216 204.37C34.2336 203.81 33.8496 203.354 33.3216 203.179C33.1866 203.135 33.0296 203.093 32.8476 203.06C31.6556 202.847 30.4356 203.185 29.4986 203.99C28.5126 204.838 27.9666 206.068 28.0016 207.365C28.2166 215.353 34.6436 221.78 42.6316 221.996C42.6706 221.997 42.7086 221.997 42.7476 221.997C43.9916 221.997 45.1676 221.458 45.9896 220.507C46.8016 219.569 47.1476 218.342 46.9396 217.142Z" fill="#83BCC0"/>
<rect x="0.5" y="0.5" width="73.998" height="243.997" rx="4.5" stroke="#9747FF" stroke-dasharray="10 5"/>
</svg>
