<svg width="64" height="248" viewBox="0 0 64 248" fill="none" xmlns="http://www.w3.org/2000/svg">
<path d="M39.9149 25.255C38.7169 23.8 37.0519 23 35.2259 23C34.0769 23 32.9679 23.291 31.9979 23.844C31.0279 23.291 29.9189 23 28.7699 23C26.9439 23 25.2789 23.801 24.0809 25.255C22.7729 26.844 22.2289 29.015 22.6289 31.061C23.5839 35.957 28.6029 39.396 30.7169 40.648C31.1129 40.882 31.5549 40.999 31.9989 40.999C32.4429 40.999 32.8859 40.882 33.2809 40.648C35.3939 39.397 40.4129 35.958 41.3679 31.061C41.7669 29.015 41.2239 26.844 39.9149 25.255ZM40.3869 30.869C39.5099 35.368 34.7689 38.604 32.7709 39.787C32.2939 40.069 31.7029 40.069 31.2259 39.787C29.2279 38.604 24.4879 35.368 23.6099 30.869C23.2669 29.113 23.7319 27.251 24.8529 25.89C25.8579 24.67 27.2489 23.999 28.7699 23.999C29.8349 23.999 30.8579 24.292 31.7279 24.848C31.8919 24.952 32.1019 24.952 32.2659 24.848C33.1359 24.292 34.1589 23.999 35.2239 23.999C36.7449 23.999 38.1369 24.67 39.1409 25.89C40.2619 27.251 40.7269 29.112 40.3839 30.869H40.3869Z" fill="#2A2A2A"/>
<path d="M41.3675 78.061C40.4125 82.957 35.3935 86.396 33.2805 87.648C32.8845 87.881 32.4415 87.999 31.9985 87.999C31.5555 87.999 31.1125 87.882 30.7165 87.648C28.6025 86.395 23.5835 82.957 22.6285 78.061C22.2295 76.014 22.7725 73.844 24.0815 72.254C25.2795 70.8 26.9445 69.999 28.7705 69.999C29.9195 69.999 31.0285 70.29 31.9985 70.843C32.9685 70.29 34.0775 69.999 35.2265 69.999C37.0525 69.999 38.7175 70.8 39.9155 72.254C41.2245 73.844 41.7685 76.014 41.3685 78.061H41.3675Z" fill="#2A2A2A"/>
<path d="M41.3675 125.061C40.4125 129.957 35.3935 133.396 33.2805 134.648C32.8845 134.881 32.4415 134.999 31.9985 134.999C31.5555 134.999 31.1125 134.882 30.7165 134.648C28.6025 133.395 23.5835 129.957 22.6285 125.061C22.2295 123.014 22.7725 120.844 24.0815 119.254C25.2795 117.8 26.9445 116.999 28.7705 116.999C29.9195 116.999 31.0285 117.29 31.9985 117.843C32.9685 117.29 34.0775 116.999 35.2265 116.999C37.0525 116.999 38.7175 117.8 39.9155 119.254C41.2245 120.844 41.7685 123.014 41.3685 125.061H41.3675Z" fill="#A6A6A6"/>
<path d="M41.3675 172.061C40.4125 176.957 35.3935 180.396 33.2805 181.648C32.8845 181.881 32.4415 181.999 31.9985 181.999C31.5555 181.999 31.1125 181.882 30.7165 181.648C28.6025 180.395 23.5835 176.957 22.6285 172.061C22.2295 170.014 22.7725 167.844 24.0815 166.254C25.2795 164.8 26.9445 163.999 28.7705 163.999C29.9195 163.999 31.0285 164.29 31.9985 164.843C32.9685 164.29 34.0775 163.999 35.2265 163.999C37.0525 163.999 38.7175 164.8 39.9155 166.254C41.2245 167.844 41.7685 170.014 41.3685 172.061H41.3675Z" fill="#EE7839"/>
<path d="M41.3675 219.061C40.4125 223.957 35.3935 227.396 33.2805 228.648C32.8845 228.881 32.4415 228.999 31.9985 228.999C31.5555 228.999 31.1125 228.882 30.7165 228.648C28.6025 227.395 23.5835 223.957 22.6285 219.061C22.2295 217.014 22.7725 214.844 24.0815 213.254C25.2795 211.8 26.9445 210.999 28.7705 210.999C29.9195 210.999 31.0285 211.29 31.9985 211.843C32.9685 211.29 34.0775 210.999 35.2265 210.999C37.0525 210.999 38.7175 211.8 39.9155 213.254C41.2245 214.844 41.7685 217.014 41.3685 219.061H41.3675Z" fill="#83BCC0"/>
<rect x="0.5" y="0.5" width="63" height="247" rx="4.5" stroke="#9747FF" stroke-dasharray="10 5"/>
</svg>
