<svg width="64" height="240" viewBox="0 0 64 240" fill="none" xmlns="http://www.w3.org/2000/svg">
<path d="M34 74C34 75.1 33.1 76 32 76C30.9 76 30 75.1 30 74C30 72.9 30.9 72 32 72C33.1 72 34 72.9 34 74ZM39.5 74C39.5 80.08 34.83 83.89 32.83 85.24C32.58 85.42 32.29 85.5 32 85.5C31.71 85.5 31.42 85.42 31.16 85.24C29.16 83.89 24.5 80.09 24.5 74C24.5 69.72 27.72 66.5 32 66.5C36.27 66.5 39.5 69.72 39.5 74ZM36 74C36 71.79 34.21 70 32 70C29.79 70 28 71.79 28 74C28 76.21 29.79 78 32 78C34.21 78 36 76.21 36 74Z" fill="#2A2A2A"/>
<path d="M34 118C34 119.1 33.1 120 32 120C30.9 120 30 119.1 30 118C30 116.9 30.9 116 32 116C33.1 116 34 116.9 34 118ZM39.5 118C39.5 124.08 34.83 127.89 32.83 129.24C32.58 129.42 32.29 129.5 32 129.5C31.71 129.5 31.42 129.42 31.16 129.24C29.16 127.89 24.5 124.09 24.5 118C24.5 113.72 27.72 110.5 32 110.5C36.27 110.5 39.5 113.72 39.5 118ZM36 118C36 115.79 34.21 114 32 114C29.79 114 28 115.79 28 118C28 120.21 29.79 122 32 122C34.21 122 36 120.21 36 118Z" fill="#A6A6A6"/>
<path d="M34 162C34 163.1 33.1 164 32 164C30.9 164 30 163.1 30 162C30 160.9 30.9 160 32 160C33.1 160 34 160.9 34 162ZM39.5 162C39.5 168.08 34.83 171.89 32.83 173.24C32.58 173.42 32.29 173.5 32 173.5C31.71 173.5 31.42 173.42 31.16 173.24C29.16 171.89 24.5 168.09 24.5 162C24.5 157.72 27.72 154.5 32 154.5C36.27 154.5 39.5 157.72 39.5 162ZM36 162C36 159.79 34.21 158 32 158C29.79 158 28 159.79 28 162C28 164.21 29.79 166 32 166C34.21 166 36 164.21 36 162Z" fill="#EE7839"/>
<path d="M34 206C34 207.1 33.1 208 32 208C30.9 208 30 207.1 30 206C30 204.9 30.9 204 32 204C33.1 204 34 204.9 34 206ZM39.5 206C39.5 212.08 34.83 215.89 32.83 217.24C32.58 217.42 32.29 217.5 32 217.5C31.71 217.5 31.42 217.42 31.16 217.24C29.16 215.89 24.5 212.09 24.5 206C24.5 201.72 27.72 198.5 32 198.5C36.27 198.5 39.5 201.72 39.5 206ZM36 206C36 203.79 34.21 202 32 202C29.79 202 28 203.79 28 206C28 208.21 29.79 210 32 210C34.21 210 36 208.21 36 206Z" fill="#83BCC0"/>
<path d="M32 26.5C30.07 26.5 28.5 28.07 28.5 30C28.5 31.93 30.07 33.5 32 33.5C33.93 33.5 35.5 31.93 35.5 30C35.5 28.07 33.929 26.5 32 26.5ZM32 32.5C30.622 32.5 29.5 31.378 29.5 30C29.5 28.622 30.622 27.5 32 27.5C33.378 27.5 34.5 28.622 34.5 30C34.5 31.378 33.378 32.5 32 32.5ZM31.996 22.5C27.723 22.5 24.5 25.724 24.5 30C24.5 36.088 29.159 39.891 31.161 41.243C31.414 41.414 31.705 41.5 31.996 41.5C32.286 41.5 32.576 41.415 32.829 41.244C34.835 39.889 39.5 36.081 39.5 29.999C39.5 25.724 36.273 22.5 31.996 22.5ZM32.27 40.415C32.103 40.527 31.888 40.527 31.721 40.414C30.262 39.429 25.5 35.766 25.5 29.999C25.5 26.293 28.292 23.499 31.996 23.499C35.704 23.499 38.5 26.293 38.5 29.999C38.5 35.602 34.142 39.15 32.27 40.415Z" fill="#2A2A2A"/>
<rect x="0.5" y="0.5" width="63" height="239" rx="4.5" stroke="#9747FF" stroke-dasharray="10 5"/>
</svg>
