<svg width="64" height="249" viewBox="0 0 64 249" fill="none" xmlns="http://www.w3.org/2000/svg">
<path d="M40.952 28.8345C39.78 25.4885 36.871 23.0975 33.361 22.5945C32.48 22.4685 31.52 22.4685 30.639 22.5945C27.129 23.0975 24.221 25.4885 23.05 28.8295C22.685 29.8385 22.5 30.9055 22.5 31.9995C22.5 33.0935 22.685 34.1605 23.048 35.1655C24.22 38.5115 27.129 40.9025 30.639 41.4055C31.082 41.4685 31.54 41.5005 31.999 41.5005C32.458 41.5005 32.916 41.4685 33.36 41.4055C36.87 40.9025 39.778 38.5115 40.949 35.1705C41.314 34.1615 41.499 33.0945 41.499 32.0005C41.499 30.9065 41.315 29.8395 40.952 28.8345ZM39.723 28.5015H36.105C35.755 26.8485 35.154 25.2815 34.314 23.8195C36.722 24.4945 38.691 26.2035 39.723 28.5015ZM35.5 32.0005C35.5 32.8385 35.416 33.6755 35.278 34.5015H28.722C28.584 33.6775 28.5 32.8395 28.5 32.0005C28.5 31.1625 28.584 30.3275 28.722 29.5015H35.279C35.416 30.3245 35.5 31.1615 35.5 32.0005ZM32.996 23.5695C33.986 25.0865 34.679 26.7425 35.078 28.5015H28.923C29.321 26.7455 30.013 25.0885 31.004 23.5695C31.33 23.5315 31.661 23.5005 32 23.5005C32.339 23.5005 32.67 23.5315 32.996 23.5695ZM29.687 23.8195C28.846 25.2835 28.244 26.8515 27.895 28.5015H24.277C25.307 26.2045 27.277 24.4945 29.687 23.8195ZM23.887 29.5015H27.713C27.584 30.3265 27.501 31.1625 27.501 32.0005C27.501 32.8405 27.584 33.6775 27.714 34.5015H23.889C23.637 33.6985 23.501 32.8605 23.501 32.0005C23.5 31.1415 23.635 30.3055 23.887 29.5015ZM24.279 35.5015H27.897C28.247 37.1525 28.848 38.7195 29.688 40.1805C27.279 39.5065 25.311 37.7985 24.279 35.5015ZM31.004 40.4305C30.014 38.9135 29.322 37.2585 28.923 35.5015H35.077C34.679 37.2575 33.986 38.9125 32.996 40.4305C32.34 40.5065 31.66 40.5065 31.004 40.4305ZM34.313 40.1815C35.153 38.7195 35.755 37.1515 36.104 35.5025H39.722C38.691 37.7975 36.722 39.5065 34.313 40.1815ZM40.112 34.5015H36.287C36.417 33.6755 36.5 32.8385 36.5 32.0005C36.5 31.1615 36.417 30.3255 36.288 29.5015H40.113C40.365 30.3035 40.5 31.1405 40.5 32.0005C40.5 32.8595 40.365 33.6975 40.112 34.5015Z" fill="#2A2A2A"/>
<path d="M41.424 71.6691C40.19 68.1481 37.128 65.6302 33.431 65.1002C32.497 64.9672 31.505 64.9672 30.568 65.1002C26.873 65.6302 23.811 68.148 22.58 71.661C22.195 72.725 22 73.8491 22 75.0011C22 76.1531 22.195 77.2762 22.576 78.3322C23.81 81.8532 26.872 84.371 30.569 84.901C31.036 84.967 31.517 85.0011 32 85.0011C32.483 85.0011 32.964 84.968 33.432 84.901C37.127 84.371 40.189 81.8532 41.42 78.3402C41.805 77.2762 42 76.1521 42 75.0001C42 73.8481 41.805 72.7251 41.424 71.6691ZM40 75.0001C40 75.6831 39.914 76.3521 39.743 77.0011H36.865C36.945 76.3371 37 75.6701 37 75.0001C37 74.3301 36.945 73.6631 36.865 73.0011H39.744C39.914 73.6471 40 74.3161 40 75.0001ZM29.154 77.0011C29.063 76.3391 29 75.6701 29 75.0001C29 74.3321 29.062 73.6651 29.154 73.0011H34.847C34.938 73.6631 35.001 74.3301 35.001 75.0001C35.001 75.6691 34.939 76.3361 34.847 77.0011H29.154ZM24.256 77.0011C24.086 76.3551 24 75.6841 24 75.0001C24 74.3181 24.086 73.6491 24.256 73.0011H27.135C27.055 73.6641 27 74.3311 27 75.0001C27 75.6711 27.055 76.3391 27.135 77.0011H24.256ZM38.909 71.0011H36.498C36.23 69.8701 35.847 68.7802 35.351 67.7352C36.845 68.4212 38.083 69.5601 38.909 71.0011ZM32.702 67.0492C33.479 68.2822 34.065 69.6021 34.445 71.0011H29.555C29.934 69.6061 30.52 68.2842 31.298 67.0492C31.532 67.0292 31.763 67.0001 32 67.0001C32.238 67.0001 32.469 67.0292 32.702 67.0492ZM28.649 67.734C28.152 68.781 27.769 69.8711 27.501 71.0011H25.089C25.915 69.5611 27.154 68.421 28.649 67.734ZM25.092 79.0011H27.502C27.77 80.1311 28.153 81.221 28.649 82.265C27.156 81.58 25.919 80.4411 25.092 79.0011ZM31.297 82.9511C30.521 81.7181 29.935 80.3981 29.555 79.0011H34.444C34.065 80.3961 33.479 81.7171 32.702 82.9511C32.234 82.9901 31.764 82.9901 31.297 82.9511ZM35.352 82.2663C35.848 81.2203 36.231 80.1301 36.499 79.0011H38.91C38.084 80.4401 36.846 81.5803 35.352 82.2663Z" fill="#2A2A2A"/>
<path d="M41.424 121.669C40.19 118.148 37.128 115.63 33.431 115.1C32.497 114.967 31.505 114.967 30.568 115.1C26.873 115.63 23.811 118.148 22.58 121.661C22.195 122.725 22 123.849 22 125.001C22 126.153 22.195 127.276 22.576 128.332C23.81 131.853 26.872 134.371 30.569 134.901C31.036 134.967 31.517 135.001 32 135.001C32.483 135.001 32.964 134.968 33.432 134.901C37.127 134.371 40.189 131.853 41.42 128.34C41.805 127.276 42 126.152 42 125C42 123.848 41.805 122.725 41.424 121.669ZM40 125C40 125.683 39.914 126.352 39.743 127.001H36.865C36.945 126.337 37 125.67 37 125C37 124.33 36.945 123.663 36.865 123.001H39.744C39.914 123.647 40 124.316 40 125ZM29.154 127.001C29.063 126.339 29 125.67 29 125C29 124.332 29.062 123.665 29.154 123.001H34.847C34.938 123.663 35.001 124.33 35.001 125C35.001 125.669 34.939 126.336 34.847 127.001H29.154ZM24.256 127.001C24.086 126.355 24 125.684 24 125C24 124.318 24.086 123.649 24.256 123.001H27.135C27.055 123.664 27 124.331 27 125C27 125.671 27.055 126.339 27.135 127.001H24.256ZM38.909 121.001H36.498C36.23 119.87 35.847 118.78 35.351 117.735C36.845 118.421 38.083 119.56 38.909 121.001ZM32.702 117.049C33.479 118.282 34.065 119.602 34.445 121.001H29.555C29.934 119.606 30.52 118.284 31.298 117.049C31.532 117.029 31.763 117 32 117C32.238 117 32.469 117.029 32.702 117.049ZM28.649 117.734C28.152 118.781 27.769 119.871 27.501 121.001H25.089C25.915 119.561 27.154 118.421 28.649 117.734ZM25.092 129.001H27.502C27.77 130.131 28.153 131.221 28.649 132.265C27.156 131.58 25.919 130.441 25.092 129.001ZM31.297 132.951C30.521 131.718 29.935 130.398 29.555 129.001H34.444C34.065 130.396 33.479 131.717 32.702 132.951C32.234 132.99 31.764 132.99 31.297 132.951ZM35.352 132.266C35.848 131.22 36.231 130.13 36.499 129.001H38.91C38.084 130.44 36.846 131.58 35.352 132.266Z" fill="#A6A6A6"/>
<path d="M43.424 168.669C42.19 165.148 39.128 162.63 35.431 162.1C34.497 161.967 33.505 161.967 32.568 162.1C28.873 162.63 25.811 165.148 24.58 168.661C24.195 169.725 24 170.849 24 172.001C24 173.153 24.195 174.276 24.576 175.332C25.81 178.853 28.872 181.371 32.569 181.901C33.036 181.967 33.517 182.001 34 182.001C34.483 182.001 34.964 181.968 35.432 181.901C39.127 181.371 42.189 178.853 43.42 175.34C43.805 174.276 44 173.152 44 172C44 170.848 43.805 169.725 43.424 168.669ZM42 172C42 172.683 41.914 173.352 41.743 174.001H38.865C38.945 173.337 39 172.67 39 172C39 171.33 38.945 170.663 38.865 170.001H41.744C41.914 170.647 42 171.316 42 172ZM31.154 174.001C31.063 173.339 31 172.67 31 172C31 171.332 31.062 170.665 31.154 170.001H36.847C36.938 170.663 37.001 171.33 37.001 172C37.001 172.669 36.939 173.336 36.847 174.001H31.154ZM26.256 174.001C26.086 173.355 26 172.684 26 172C26 171.318 26.086 170.649 26.256 170.001H29.135C29.055 170.664 29 171.331 29 172C29 172.671 29.055 173.339 29.135 174.001H26.256ZM40.909 168.001H38.498C38.23 166.87 37.847 165.78 37.351 164.735C38.845 165.421 40.083 166.56 40.909 168.001ZM34.702 164.049C35.479 165.282 36.065 166.602 36.445 168.001H31.555C31.934 166.606 32.52 165.284 33.298 164.049C33.532 164.029 33.763 164 34 164C34.238 164 34.469 164.029 34.702 164.049ZM30.649 164.734C30.152 165.781 29.769 166.871 29.501 168.001H27.089C27.915 166.561 29.154 165.421 30.649 164.734ZM27.092 176.001H29.502C29.77 177.131 30.153 178.221 30.649 179.265C29.156 178.58 27.919 177.441 27.092 176.001ZM33.297 179.951C32.521 178.718 31.935 177.398 31.555 176.001H36.444C36.065 177.396 35.479 178.717 34.702 179.951C34.234 179.99 33.764 179.99 33.297 179.951ZM37.352 179.266C37.848 178.22 38.231 177.13 38.499 176.001H40.91C40.084 177.44 38.846 178.58 37.352 179.266Z" fill="#EE7839"/>
<path d="M41.424 213.669C40.19 210.148 37.128 207.63 33.431 207.1C32.497 206.967 31.505 206.967 30.568 207.1C26.873 207.63 23.811 210.148 22.58 213.661C22.195 214.725 22 215.849 22 217.001C22 218.153 22.195 219.276 22.576 220.332C23.81 223.853 26.872 226.371 30.569 226.901C31.036 226.967 31.517 227.001 32 227.001C32.483 227.001 32.964 226.968 33.432 226.901C37.127 226.371 40.189 223.853 41.42 220.34C41.805 219.276 42 218.152 42 217C42 215.848 41.805 214.725 41.424 213.669ZM40 217C40 217.683 39.914 218.352 39.743 219.001H36.865C36.945 218.337 37 217.67 37 217C37 216.33 36.945 215.663 36.865 215.001H39.744C39.914 215.647 40 216.316 40 217ZM29.154 219.001C29.063 218.339 29 217.67 29 217C29 216.332 29.062 215.665 29.154 215.001H34.847C34.938 215.663 35.001 216.33 35.001 217C35.001 217.669 34.939 218.336 34.847 219.001H29.154ZM24.256 219.001C24.086 218.355 24 217.684 24 217C24 216.318 24.086 215.649 24.256 215.001H27.135C27.055 215.664 27 216.331 27 217C27 217.671 27.055 218.339 27.135 219.001H24.256ZM38.909 213.001H36.498C36.23 211.87 35.847 210.78 35.351 209.735C36.845 210.421 38.083 211.56 38.909 213.001ZM32.702 209.049C33.479 210.282 34.065 211.602 34.445 213.001H29.555C29.934 211.606 30.52 210.284 31.298 209.049C31.532 209.029 31.763 209 32 209C32.238 209 32.469 209.029 32.702 209.049ZM28.649 209.734C28.152 210.781 27.769 211.871 27.501 213.001H25.089C25.915 211.561 27.154 210.421 28.649 209.734ZM25.092 221.001H27.502C27.77 222.131 28.153 223.221 28.649 224.265C27.156 223.58 25.919 222.441 25.092 221.001ZM31.297 224.951C30.521 223.718 29.935 222.398 29.555 221.001H34.444C34.065 222.396 33.479 223.717 32.702 224.951C32.234 224.99 31.764 224.99 31.297 224.951ZM35.352 224.266C35.848 223.22 36.231 222.13 36.499 221.001H38.91C38.084 222.44 36.846 223.58 35.352 224.266Z" fill="#83BCC0"/>
<rect x="0.5" y="0.5" width="63" height="248" rx="4.5" stroke="#9747FF" stroke-dasharray="10 5"/>
</svg>
