<svg width="64" height="249" viewBox="0 0 64 249" fill="none" xmlns="http://www.w3.org/2000/svg">
<path d="M40.3058 23.695C39.5348 22.924 38.5108 22.5 37.4208 22.5C36.3318 22.5 35.3068 22.924 34.5358 23.695L24.0029 34.228C23.6319 34.599 23.3898 35.068 23.3038 35.585L22.5138 40.323C22.4598 40.644 22.5658 40.973 22.7958 41.203C22.9858 41.394 23.2448 41.499 23.5098 41.499C23.5648 41.499 23.6198 41.495 23.6758 41.485L28.4148 40.695C28.9318 40.609 29.3999 40.368 29.7709 39.997L40.3038 29.464C41.0748 28.693 41.4988 27.669 41.4988 26.579C41.4988 25.489 41.0758 24.465 40.3058 23.695ZM29.0649 39.291C28.8419 39.514 28.5608 39.658 28.2518 39.71L23.5018 40.488L24.2919 35.75C24.3439 35.439 24.4879 35.158 24.7109 34.936L32.9708 26.676L37.3259 31.032L29.0649 39.291ZM39.5989 28.758L38.0319 30.325L33.6769 25.969L35.2438 24.402C35.8258 23.82 36.5989 23.5 37.4219 23.5C38.2449 23.5 39.0188 23.82 39.5998 24.402C40.1818 24.984 40.5018 25.757 40.5018 26.58C40.5018 27.403 40.1809 28.176 39.5989 28.758Z" fill="#2A2A2A"/>
<path d="M31.9118 73.3291L37.6719 79.0891L29.7719 86.999C29.4019 87.369 28.9319 87.609 28.4219 87.699L23.6819 88.489C23.6219 88.499 23.5719 88.499 23.5119 88.499C23.2519 88.499 22.9919 88.389 22.8019 88.199C22.5719 87.969 22.4619 87.6391 22.5119 87.3191L23.3019 82.5791C23.3919 82.0691 23.6319 81.599 24.0019 81.229L31.9118 73.3291ZM40.3019 70.699C39.5319 69.919 38.5119 69.499 37.4219 69.499C36.3319 69.499 35.3118 69.919 34.5418 70.699L33.3319 71.9089L39.0919 77.6689L40.3019 76.459C41.0819 75.689 41.5019 74.6691 41.5019 73.5791C41.5019 72.4891 41.0819 71.469 40.3019 70.699Z" fill="#2A2A2A"/>
<path d="M31.9118 120.329L37.6719 126.089L29.7719 133.999C29.4019 134.369 28.9319 134.609 28.4219 134.699L23.6819 135.489C23.6219 135.499 23.5719 135.499 23.5119 135.499C23.2519 135.499 22.9919 135.389 22.8019 135.199C22.5719 134.969 22.4619 134.639 22.5119 134.319L23.3019 129.579C23.3919 129.069 23.6319 128.599 24.0019 128.229L31.9118 120.329ZM40.3019 117.699C39.5319 116.919 38.5119 116.499 37.4219 116.499C36.3319 116.499 35.3118 116.919 34.5418 117.699L33.3319 118.909L39.0919 124.669L40.3019 123.459C41.0819 122.689 41.5019 121.669 41.5019 120.579C41.5019 119.489 41.0819 118.469 40.3019 117.699Z" fill="#A6A6A6"/>
<path d="M31.9118 167.329L37.6719 173.089L29.7719 180.999C29.4019 181.369 28.9319 181.609 28.4219 181.699L23.6819 182.489C23.6219 182.499 23.5719 182.499 23.5119 182.499C23.2519 182.499 22.9919 182.389 22.8019 182.199C22.5719 181.969 22.4619 181.639 22.5119 181.319L23.3019 176.579C23.3919 176.069 23.6319 175.599 24.0019 175.229L31.9118 167.329ZM40.3019 164.699C39.5319 163.919 38.5119 163.499 37.4219 163.499C36.3319 163.499 35.3118 163.919 34.5418 164.699L33.3319 165.909L39.0919 171.669L40.3019 170.459C41.0819 169.689 41.5019 168.669 41.5019 167.579C41.5019 166.489 41.0819 165.469 40.3019 164.699Z" fill="#EE7839"/>
<path d="M31.9118 214.329L37.6719 220.089L29.7719 227.999C29.4019 228.369 28.9319 228.609 28.4219 228.699L23.6819 229.489C23.6219 229.499 23.5719 229.499 23.5119 229.499C23.2519 229.499 22.9919 229.389 22.8019 229.199C22.5719 228.969 22.4619 228.639 22.5119 228.319L23.3019 223.579C23.3919 223.069 23.6319 222.599 24.0019 222.229L31.9118 214.329ZM40.3019 211.699C39.5319 210.919 38.5119 210.499 37.4219 210.499C36.3319 210.499 35.3118 210.919 34.5418 211.699L33.3319 212.909L39.0919 218.669L40.3019 217.459C41.0819 216.689 41.5019 215.669 41.5019 214.579C41.5019 213.489 41.0819 212.469 40.3019 211.699Z" fill="#83BCC0"/>
<rect x="0.5" y="0.5" width="63" height="248" rx="4.5" stroke="#9747FF" stroke-dasharray="10 5"/>
</svg>
