<svg width="76" height="243" viewBox="0 0 76 243" fill="none" xmlns="http://www.w3.org/2000/svg">
<path d="M42.001 37.138V37.645C42.001 38.457 41.701 39.235 41.157 39.835C41.058 39.944 40.9229 39.999 40.7859 39.999C40.6659 39.999 40.546 39.956 40.45 39.87C40.245 39.684 40.23 39.368 40.415 39.163C40.792 38.747 41 38.207 41 37.644V37.137C41 35.663 40.007 34.387 38.584 34.033C38.297 33.961 37.991 34.001 37.743 34.141C36.038 35.077 33.956 35.074 32.261 34.144C32.008 34 31.702 33.961 31.416 34.033C29.993 34.386 29 35.662 29 37.137V37.644C29 38.206 29.208 38.746 29.585 39.163C29.771 39.368 29.755 39.684 29.55 39.869C29.345 40.054 29.029 40.039 28.844 39.834C28.3 39.233 28 38.455 28 37.644V37.137C28 35.202 29.305 33.527 31.174 33.063C31.705 32.931 32.2779 33.006 32.7469 33.271C34.1379 34.034 35.856 34.037 37.257 33.268C37.721 33.006 38.294 32.93 38.826 33.064C40.696 33.529 42.001 35.204 42.001 37.138ZM43.827 33.064C43.559 32.997 43.2869 33.16 43.2209 33.429C43.1549 33.697 43.318 33.969 43.586 34.035C45.008 34.388 46.002 35.664 46.002 37.139V37.646C46.002 38.209 45.794 38.749 45.417 39.165C45.232 39.37 45.247 39.686 45.452 39.872C45.548 39.958 45.668 40.001 45.788 40.001C45.924 40.001 46.06 39.946 46.159 39.837C46.703 39.236 47.003 38.459 47.003 37.647V37.14C47.001 35.204 45.696 33.529 43.827 33.064ZM30.501 27.5C30.501 25.019 32.52 23 35.001 23C37.482 23 39.501 25.019 39.501 27.5C39.501 29.981 37.482 32 35.001 32C32.52 32 30.501 29.981 30.501 27.5ZM31.501 27.5C31.501 29.43 33.071 31 35.001 31C36.931 31 38.501 29.43 38.501 27.5C38.501 25.57 36.931 24 35.001 24C33.071 24 31.501 25.57 31.501 27.5ZM40.563 23.034C40.29 23.002 40.039 23.194 40.005 23.468C39.971 23.742 40.165 23.992 40.439 24.026C42.185 24.244 43.501 25.737 43.501 27.499C43.501 28.566 43.022 29.562 42.189 30.231C41.974 30.404 41.939 30.719 42.112 30.934C42.211 31.057 42.356 31.121 42.503 31.121C42.612 31.121 42.723 31.085 42.815 31.011C43.887 30.151 44.502 28.87 44.502 27.498C44.501 25.234 42.808 23.314 40.563 23.034Z" fill="#2A2A2A"/>
<path d="M47.5 81.6399V82.1499C47.5 82.8899 47.25 83.5999 46.79 84.1699C46.62 84.3899 46.34 84.5 46.05 84.5H43.37C43.78 83.79 44 82.9799 44 82.1499V81.6399C44 80.1999 43.47 78.8701 42.57 77.8601C42.64 77.8401 42.7 77.8 42.76 77.77C43.22 77.51 43.79 77.4301 44.33 77.5601C46.19 78.0301 47.5 79.6999 47.5 81.6399ZM40.5 67.5C40.18 67.5 39.87 67.5301 39.57 67.6001C40.76 68.6901 41.5 70.26 41.5 72C41.5 73.74 40.76 75.3099 39.57 76.3999C39.87 76.4699 40.18 76.5 40.5 76.5C42.98 76.5 45 74.48 45 72C45 69.52 42.98 67.5 40.5 67.5ZM35.5 67.5C33.02 67.5 31 69.52 31 72C31 74.48 33.02 76.5 35.5 76.5C37.98 76.5 40 74.48 40 72C40 69.52 37.98 67.5 35.5 67.5ZM39.33 77.5601C39.15 77.5201 38.98 77.5 38.8 77.5C38.43 77.5 38.07 77.59 37.76 77.77C37.06 78.15 36.28 78.3401 35.5 78.3401C34.72 78.3401 33.95 78.15 33.26 77.78C32.93 77.6 32.56 77.5 32.19 77.5C32.03 77.5 31.88 77.52 31.73 77.55C29.83 77.99 28.5 79.6799 28.5 81.6399V82.1499C28.5 82.8899 28.75 83.5999 29.21 84.1699C29.38 84.3899 29.66 84.5 29.95 84.5H41.05C41.34 84.5 41.62 84.3899 41.79 84.1699C42.25 83.5999 42.5 82.8899 42.5 82.1499V81.6399C42.5 79.6999 41.19 78.0301 39.33 77.5601Z" fill="#2A2A2A"/>
<path d="M47.5 126.64V127.15C47.5 127.89 47.25 128.6 46.79 129.17C46.62 129.39 46.34 129.5 46.05 129.5H43.37C43.78 128.79 44 127.98 44 127.15V126.64C44 125.2 43.47 123.87 42.57 122.86C42.64 122.84 42.7 122.8 42.76 122.77C43.22 122.51 43.79 122.43 44.33 122.56C46.19 123.03 47.5 124.7 47.5 126.64ZM40.5 112.5C40.18 112.5 39.87 112.53 39.57 112.6C40.76 113.69 41.5 115.26 41.5 117C41.5 118.74 40.76 120.31 39.57 121.4C39.87 121.47 40.18 121.5 40.5 121.5C42.98 121.5 45 119.48 45 117C45 114.52 42.98 112.5 40.5 112.5ZM35.5 112.5C33.02 112.5 31 114.52 31 117C31 119.48 33.02 121.5 35.5 121.5C37.98 121.5 40 119.48 40 117C40 114.52 37.98 112.5 35.5 112.5ZM39.33 122.56C39.15 122.52 38.98 122.5 38.8 122.5C38.43 122.5 38.07 122.59 37.76 122.77C37.06 123.15 36.28 123.34 35.5 123.34C34.72 123.34 33.95 123.15 33.26 122.78C32.93 122.6 32.56 122.5 32.19 122.5C32.03 122.5 31.88 122.52 31.73 122.55C29.83 122.99 28.5 124.68 28.5 126.64V127.15C28.5 127.89 28.75 128.6 29.21 129.17C29.38 129.39 29.66 129.5 29.95 129.5H41.05C41.34 129.5 41.62 129.39 41.79 129.17C42.25 128.6 42.5 127.89 42.5 127.15V126.64C42.5 124.7 41.19 123.03 39.33 122.56Z" fill="#A6A6A6"/>
<path d="M47.5 171.64V172.15C47.5 172.89 47.25 173.6 46.79 174.17C46.62 174.39 46.34 174.5 46.05 174.5H43.37C43.78 173.79 44 172.98 44 172.15V171.64C44 170.2 43.47 168.87 42.57 167.86C42.64 167.84 42.7 167.8 42.76 167.77C43.22 167.51 43.79 167.43 44.33 167.56C46.19 168.03 47.5 169.7 47.5 171.64ZM40.5 157.5C40.18 157.5 39.87 157.53 39.57 157.6C40.76 158.69 41.5 160.26 41.5 162C41.5 163.74 40.76 165.31 39.57 166.4C39.87 166.47 40.18 166.5 40.5 166.5C42.98 166.5 45 164.48 45 162C45 159.52 42.98 157.5 40.5 157.5ZM35.5 157.5C33.02 157.5 31 159.52 31 162C31 164.48 33.02 166.5 35.5 166.5C37.98 166.5 40 164.48 40 162C40 159.52 37.98 157.5 35.5 157.5ZM39.33 167.56C39.15 167.52 38.98 167.5 38.8 167.5C38.43 167.5 38.07 167.59 37.76 167.77C37.06 168.15 36.28 168.34 35.5 168.34C34.72 168.34 33.95 168.15 33.26 167.78C32.93 167.6 32.56 167.5 32.19 167.5C32.03 167.5 31.88 167.52 31.73 167.55C29.83 167.99 28.5 169.68 28.5 171.64V172.15C28.5 172.89 28.75 173.6 29.21 174.17C29.38 174.39 29.66 174.5 29.95 174.5H41.05C41.34 174.5 41.62 174.39 41.79 174.17C42.25 173.6 42.5 172.89 42.5 172.15V171.64C42.5 169.7 41.19 168.03 39.33 167.56Z" fill="#EE7839"/>
<path d="M47.5 216.64V217.15C47.5 217.89 47.25 218.6 46.79 219.17C46.62 219.39 46.34 219.5 46.05 219.5H43.37C43.78 218.79 44 217.98 44 217.15V216.64C44 215.2 43.47 213.87 42.57 212.86C42.64 212.84 42.7 212.8 42.76 212.77C43.22 212.51 43.79 212.43 44.33 212.56C46.19 213.03 47.5 214.7 47.5 216.64ZM40.5 202.5C40.18 202.5 39.87 202.53 39.57 202.6C40.76 203.69 41.5 205.26 41.5 207C41.5 208.74 40.76 210.31 39.57 211.4C39.87 211.47 40.18 211.5 40.5 211.5C42.98 211.5 45 209.48 45 207C45 204.52 42.98 202.5 40.5 202.5ZM35.5 202.5C33.02 202.5 31 204.52 31 207C31 209.48 33.02 211.5 35.5 211.5C37.98 211.5 40 209.48 40 207C40 204.52 37.98 202.5 35.5 202.5ZM39.33 212.56C39.15 212.52 38.98 212.5 38.8 212.5C38.43 212.5 38.07 212.59 37.76 212.77C37.06 213.15 36.28 213.34 35.5 213.34C34.72 213.34 33.95 213.15 33.26 212.78C32.93 212.6 32.56 212.5 32.19 212.5C32.03 212.5 31.88 212.52 31.73 212.55C29.83 212.99 28.5 214.68 28.5 216.64V217.15C28.5 217.89 28.75 218.6 29.21 219.17C29.38 219.39 29.66 219.5 29.95 219.5H41.05C41.34 219.5 41.62 219.39 41.79 219.17C42.25 218.6 42.5 217.89 42.5 217.15V216.64C42.5 214.7 41.19 213.03 39.33 212.56Z" fill="#83BCC0"/>
<rect x="0.5" y="0.5" width="74.0039" height="242.001" rx="4.5" stroke="#9747FF" stroke-dasharray="10 5"/>
</svg>
