<svg width="64" height="249" viewBox="0 0 64 249" fill="none" xmlns="http://www.w3.org/2000/svg">
<path d="M31.999 32.5C34.756 32.5 36.999 30.257 36.999 27.5C36.999 24.743 34.756 22.5 31.999 22.5C29.242 22.5 26.999 24.743 26.999 27.5C26.999 30.257 29.242 32.5 31.999 32.5ZM31.999 23.5C34.205 23.5 35.999 25.294 35.999 27.5C35.999 29.706 34.205 31.5 31.999 31.5C29.793 31.5 27.999 29.706 27.999 27.5C27.999 25.294 29.793 23.5 31.999 23.5ZM39.499 37.967V38.978C39.499 39.851 39.1801 40.687 38.6021 41.333C38.5031 41.443 38.367 41.5 38.229 41.5C38.11 41.5 37.991 41.458 37.896 41.373C37.69 41.188 37.673 40.873 37.857 40.667C38.272 40.205 38.5 39.605 38.5 38.979V37.968C38.5 36.34 37.418 34.93 35.868 34.54C35.552 34.461 35.213 34.504 34.937 34.662C33.114 35.676 30.881 35.673 29.066 34.664C28.786 34.504 28.448 34.46 28.132 34.54C26.582 34.93 25.499 36.339 25.499 37.968V38.979C25.499 39.605 25.727 40.205 26.142 40.667C26.326 40.873 26.309 41.188 26.103 41.373C25.898 41.557 25.583 41.54 25.397 41.334C24.818 40.688 24.5 39.852 24.5 38.979V37.968C24.5 35.881 25.894 34.072 27.888 33.571C28.451 33.429 29.06 33.509 29.557 33.793C31.065 34.632 32.93 34.634 34.446 33.791C34.939 33.509 35.548 33.429 36.112 33.571C38.106 34.071 39.499 35.879 39.499 37.967Z" fill="#2A2A2A"/>
<path d="M27 73.5005C27 70.7435 29.243 68.5005 32 68.5005C34.757 68.5005 37 70.7435 37 73.5005C37 76.2575 34.757 78.5005 32 78.5005C29.243 78.5005 27 76.2575 27 73.5005ZM36.117 79.5715C35.558 79.4295 34.95 79.5096 34.447 79.7896C32.929 80.6336 31.071 80.6336 29.553 79.7896C29.051 79.5106 28.442 79.4315 27.883 79.5715C25.891 80.0745 24.5 81.8825 24.5 83.9675V84.9785C24.5 85.6165 24.67 86.2404 24.993 86.7844C25.256 87.2264 25.749 87.5015 26.278 87.5015H37.721C38.25 87.5015 38.743 87.2274 39.006 86.7834C39.329 86.2404 39.499 85.6165 39.499 84.9785V83.9675C39.5 81.8825 38.109 80.0745 36.117 79.5715Z" fill="#2A2A2A"/>
<path d="M27 119.501C27 116.744 29.243 114.501 32 114.501C34.757 114.501 37 116.744 37 119.501C37 122.258 34.757 124.501 32 124.501C29.243 124.501 27 122.258 27 119.501ZM36.117 125.573C35.558 125.431 34.95 125.511 34.447 125.791C32.929 126.635 31.071 126.635 29.553 125.791C29.051 125.512 28.442 125.433 27.883 125.573C25.891 126.076 24.5 127.884 24.5 129.969V130.979C24.5 131.617 24.67 132.241 24.993 132.785C25.256 133.227 25.749 133.502 26.278 133.502H37.721C38.25 133.502 38.743 133.228 39.006 132.784C39.329 132.241 39.499 131.617 39.499 130.979V129.969C39.5 127.884 38.109 126.076 36.117 125.573Z" fill="#A6A6A6"/>
<path d="M27 165.502C27 162.745 29.243 160.502 32 160.502C34.757 160.502 37 162.745 37 165.502C37 168.259 34.757 170.502 32 170.502C29.243 170.502 27 168.259 27 165.502ZM36.117 171.573C35.558 171.431 34.95 171.512 34.447 171.792C32.929 172.636 31.071 172.636 29.553 171.792C29.051 171.513 28.442 171.433 27.883 171.573C25.891 172.076 24.5 173.884 24.5 175.969V176.98C24.5 177.618 24.67 178.242 24.993 178.786C25.256 179.228 25.749 179.503 26.278 179.503H37.721C38.25 179.503 38.743 179.229 39.006 178.785C39.329 178.242 39.499 177.618 39.499 176.98V175.969C39.5 173.884 38.109 172.076 36.117 171.573Z" fill="#EE7839"/>
<path d="M27 211.503C27 208.746 29.243 206.503 32 206.503C34.757 206.503 37 208.746 37 211.503C37 214.26 34.757 216.503 32 216.503C29.243 216.503 27 214.26 27 211.503ZM36.117 217.574C35.558 217.432 34.95 217.512 34.447 217.792C32.929 218.636 31.071 218.636 29.553 217.792C29.051 217.513 28.442 217.434 27.883 217.574C25.891 218.077 24.5 219.885 24.5 221.97V222.981C24.5 223.619 24.67 224.243 24.993 224.787C25.256 225.229 25.749 225.504 26.278 225.504H37.721C38.25 225.504 38.743 225.23 39.006 224.786C39.329 224.243 39.499 223.619 39.499 222.981V221.97C39.5 219.885 38.109 218.077 36.117 217.574Z" fill="#83BCC0"/>
<rect x="0.5" y="0.5" width="63" height="248" rx="4.5" stroke="#9747FF" stroke-dasharray="10 5"/>
</svg>
