<svg width="174" height="240" viewBox="0 0 174 240" fill="none" xmlns="http://www.w3.org/2000/svg">
<path d="M65.296 38.096C64.432 38.096 63.6587 37.8667 62.976 37.408C62.304 36.9493 61.776 36.2933 61.392 35.44C61.0187 34.576 60.832 33.5627 60.832 32.4C60.832 31.2373 61.0187 30.2293 61.392 29.376C61.776 28.512 62.304 27.8507 62.976 27.392C63.6587 26.9333 64.432 26.704 65.296 26.704C66.16 26.704 66.928 26.9333 67.6 27.392C68.2827 27.8507 68.816 28.512 69.2 29.376C69.584 30.2293 69.776 31.2373 69.776 32.4C69.776 33.5627 69.584 34.576 69.2 35.44C68.816 36.2933 68.2827 36.9493 67.6 37.408C66.928 37.8667 66.16 38.096 65.296 38.096ZM65.296 37.04C65.9467 37.04 66.5173 36.8587 67.008 36.496C67.5093 36.1333 67.8987 35.6053 68.176 34.912C68.4533 34.2187 68.592 33.3813 68.592 32.4C68.592 31.4187 68.4533 30.5813 68.176 29.888C67.8987 29.1947 67.5093 28.6667 67.008 28.304C66.5173 27.9413 65.9467 27.76 65.296 27.76C64.6453 27.76 64.0693 27.9413 63.568 28.304C63.0773 28.6667 62.6933 29.1947 62.416 29.888C62.1387 30.5813 62 31.4187 62 32.4C62 33.3813 62.1387 34.2187 62.416 34.912C62.6933 35.6053 63.0773 36.1333 63.568 36.496C64.0693 36.8587 64.6453 37.04 65.296 37.04ZM74.9138 26.704C76.3964 26.704 77.5324 27.1947 78.3218 28.176C79.1111 29.1467 79.5058 30.5227 79.5058 32.304C79.5058 33.552 79.2924 34.608 78.8658 35.472C78.4391 36.336 77.8418 36.992 77.0738 37.44C76.3058 37.8773 75.4098 38.096 74.3858 38.096C73.2764 38.096 72.3911 37.8933 71.7298 37.488L72.1938 36.56C72.7271 36.912 73.4524 37.088 74.3698 37.088C75.6071 37.088 76.5778 36.6987 77.2818 35.92C77.9858 35.1307 78.3378 33.9893 78.3378 32.496C78.3378 32.2187 78.3218 31.9147 78.2898 31.584C78.0124 32.192 77.5698 32.6667 76.9618 33.008C76.3538 33.3387 75.6551 33.504 74.8658 33.504C74.1298 33.504 73.4738 33.3653 72.8978 33.088C72.3324 32.8107 71.8898 32.4213 71.5698 31.92C71.2498 31.408 71.0898 30.816 71.0898 30.144C71.0898 29.4613 71.2551 28.8587 71.5858 28.336C71.9164 27.8133 72.3698 27.4133 72.9457 27.136C73.5324 26.848 74.1884 26.704 74.9138 26.704ZM75.0418 32.528C75.6071 32.528 76.1031 32.4213 76.5298 32.208C76.9671 31.9947 77.3084 31.7013 77.5538 31.328C77.7991 30.9547 77.9218 30.5387 77.9218 30.08C77.9218 29.6533 77.8044 29.2587 77.5698 28.896C77.3458 28.5333 77.0098 28.24 76.5618 28.016C76.1138 27.792 75.5804 27.68 74.9618 27.68C74.1511 27.68 73.4898 27.904 72.9778 28.352C72.4764 28.7893 72.2258 29.376 72.2258 30.112C72.2258 30.848 72.4764 31.4347 72.9778 31.872C73.4898 32.3093 74.1778 32.528 75.0418 32.528ZM82.0398 31.264C81.8051 31.264 81.6024 31.1787 81.4318 31.008C81.2718 30.8373 81.1918 30.6293 81.1918 30.384C81.1918 30.1387 81.2718 29.936 81.4318 29.776C81.6024 29.6053 81.8051 29.52 82.0398 29.52C82.2744 29.52 82.4771 29.6053 82.6478 29.776C82.8184 29.936 82.9038 30.1387 82.9038 30.384C82.9038 30.6293 82.8184 30.8373 82.6478 31.008C82.4771 31.1787 82.2744 31.264 82.0398 31.264ZM82.0398 38.08C81.8051 38.08 81.6024 37.9947 81.4318 37.824C81.2718 37.6533 81.1918 37.4453 81.1918 37.2C81.1918 36.9547 81.2718 36.752 81.4318 36.592C81.6024 36.4213 81.8051 36.336 82.0398 36.336C82.2744 36.336 82.4771 36.4213 82.6478 36.592C82.8184 36.752 82.9038 36.9547 82.9038 37.2C82.9038 37.4453 82.8184 37.6533 82.6478 37.824C82.4771 37.9947 82.2744 38.08 82.0398 38.08ZM89.0304 38.096C88.1664 38.096 87.393 37.8667 86.7104 37.408C86.0384 36.9493 85.5104 36.2933 85.1264 35.44C84.753 34.576 84.5664 33.5627 84.5664 32.4C84.5664 31.2373 84.753 30.2293 85.1264 29.376C85.5104 28.512 86.0384 27.8507 86.7104 27.392C87.393 26.9333 88.1664 26.704 89.0304 26.704C89.8944 26.704 90.6624 26.9333 91.3344 27.392C92.017 27.8507 92.5504 28.512 92.9344 29.376C93.3184 30.2293 93.5104 31.2373 93.5104 32.4C93.5104 33.5627 93.3184 34.576 92.9344 35.44C92.5504 36.2933 92.017 36.9493 91.3344 37.408C90.6624 37.8667 89.8944 38.096 89.0304 38.096ZM89.0304 37.04C89.681 37.04 90.2517 36.8587 90.7424 36.496C91.2437 36.1333 91.633 35.6053 91.9104 34.912C92.1877 34.2187 92.3264 33.3813 92.3264 32.4C92.3264 31.4187 92.1877 30.5813 91.9104 29.888C91.633 29.1947 91.2437 28.6667 90.7424 28.304C90.2517 27.9413 89.681 27.76 89.0304 27.76C88.3797 27.76 87.8037 27.9413 87.3024 28.304C86.8117 28.6667 86.4277 29.1947 86.1504 29.888C85.873 30.5813 85.7344 31.4187 85.7344 32.4C85.7344 33.3813 85.873 34.2187 86.1504 34.912C86.4277 35.6053 86.8117 36.1333 87.3024 36.496C87.8037 36.8587 88.3797 37.04 89.0304 37.04ZM99.6241 38.096C98.7601 38.096 97.9868 37.8667 97.3041 37.408C96.6321 36.9493 96.1041 36.2933 95.7201 35.44C95.3468 34.576 95.1601 33.5627 95.1601 32.4C95.1601 31.2373 95.3468 30.2293 95.7201 29.376C96.1041 28.512 96.6321 27.8507 97.3041 27.392C97.9868 26.9333 98.7601 26.704 99.6241 26.704C100.488 26.704 101.256 26.9333 101.928 27.392C102.611 27.8507 103.144 28.512 103.528 29.376C103.912 30.2293 104.104 31.2373 104.104 32.4C104.104 33.5627 103.912 34.576 103.528 35.44C103.144 36.2933 102.611 36.9493 101.928 37.408C101.256 37.8667 100.488 38.096 99.6241 38.096ZM99.6241 37.04C100.275 37.04 100.845 36.8587 101.336 36.496C101.837 36.1333 102.227 35.6053 102.504 34.912C102.781 34.2187 102.92 33.3813 102.92 32.4C102.92 31.4187 102.781 30.5813 102.504 29.888C102.227 29.1947 101.837 28.6667 101.336 28.304C100.845 27.9413 100.275 27.76 99.6241 27.76C98.9735 27.76 98.3975 27.9413 97.8961 28.304C97.4055 28.6667 97.0215 29.1947 96.7441 29.888C96.4668 30.5813 96.3281 31.4187 96.3281 32.4C96.3281 33.3813 96.4668 34.2187 96.7441 34.912C97.0215 35.6053 97.4055 36.1333 97.8961 36.496C98.3975 36.8587 98.9735 37.04 99.6241 37.04ZM114.981 29.52C116.037 29.52 116.875 29.8293 117.493 30.448C118.123 31.056 118.437 31.9467 118.437 33.12V38H117.301V33.232C117.301 32.3573 117.083 31.6907 116.645 31.232C116.208 30.7733 115.584 30.544 114.773 30.544C113.867 30.544 113.147 30.816 112.613 31.36C112.091 31.8933 111.829 32.6347 111.829 33.584V38H110.693V26.128H111.829V31.056C112.139 30.5653 112.565 30.1867 113.109 29.92C113.653 29.6533 114.277 29.52 114.981 29.52ZM124.993 38.08C124.182 38.08 123.451 37.8987 122.801 37.536C122.15 37.1627 121.638 36.6507 121.265 36C120.891 35.3493 120.705 34.6133 120.705 33.792C120.705 32.9707 120.891 32.2347 121.265 31.584C121.638 30.9333 122.15 30.4267 122.801 30.064C123.451 29.7013 124.182 29.52 124.993 29.52C125.803 29.52 126.534 29.7013 127.185 30.064C127.835 30.4267 128.342 30.9333 128.705 31.584C129.078 32.2347 129.265 32.9707 129.265 33.792C129.265 34.6133 129.078 35.3493 128.705 36C128.342 36.6507 127.835 37.1627 127.185 37.536C126.534 37.8987 125.803 38.08 124.993 38.08ZM124.993 37.072C125.59 37.072 126.123 36.9387 126.593 36.672C127.073 36.3947 127.446 36.0053 127.713 35.504C127.979 35.0027 128.113 34.432 128.113 33.792C128.113 33.152 127.979 32.5813 127.713 32.08C127.446 31.5787 127.073 31.1947 126.593 30.928C126.123 30.6507 125.59 30.512 124.993 30.512C124.395 30.512 123.857 30.6507 123.377 30.928C122.907 31.1947 122.534 31.5787 122.257 32.08C121.99 32.5813 121.857 33.152 121.857 33.792C121.857 34.432 121.99 35.0027 122.257 35.504C122.534 36.0053 122.907 36.3947 123.377 36.672C123.857 36.9387 124.395 37.072 124.993 37.072ZM132.672 31.232C132.939 30.6667 133.333 30.24 133.856 29.952C134.389 29.664 135.045 29.52 135.824 29.52V30.624L135.552 30.608C134.667 30.608 133.973 30.88 133.472 31.424C132.971 31.968 132.72 32.7307 132.72 33.712V38H131.584V29.584H132.672V31.232ZM145.131 34.144H138.091C138.155 35.0187 138.491 35.728 139.099 36.272C139.707 36.8053 140.475 37.072 141.403 37.072C141.925 37.072 142.405 36.9813 142.843 36.8C143.28 36.608 143.659 36.3307 143.979 35.968L144.619 36.704C144.245 37.152 143.776 37.4933 143.211 37.728C142.656 37.9627 142.043 38.08 141.371 38.08C140.507 38.08 139.739 37.8987 139.067 37.536C138.405 37.1627 137.888 36.6507 137.515 36C137.141 35.3493 136.955 34.6133 136.955 33.792C136.955 32.9707 137.131 32.2347 137.483 31.584C137.845 30.9333 138.336 30.4267 138.955 30.064C139.584 29.7013 140.288 29.52 141.067 29.52C141.845 29.52 142.544 29.7013 143.163 30.064C143.781 30.4267 144.267 30.9333 144.619 31.584C144.971 32.224 145.147 32.96 145.147 33.792L145.131 34.144ZM141.067 30.496C140.256 30.496 139.573 30.7573 139.019 31.28C138.475 31.792 138.165 32.464 138.091 33.296H144.059C143.984 32.464 143.669 31.792 143.115 31.28C142.571 30.7573 141.888 30.496 141.067 30.496ZM149.715 38.08C149.032 38.08 148.376 37.984 147.747 37.792C147.128 37.5893 146.643 37.3387 146.291 37.04L146.803 36.144C147.155 36.4213 147.598 36.6507 148.131 36.832C148.664 37.0027 149.219 37.088 149.795 37.088C150.563 37.088 151.128 36.9707 151.491 36.736C151.864 36.4907 152.051 36.1493 152.051 35.712C152.051 35.4027 151.95 35.1627 151.747 34.992C151.544 34.8107 151.288 34.6773 150.979 34.592C150.67 34.496 150.259 34.4053 149.747 34.32C149.064 34.192 148.515 34.064 148.099 33.936C147.683 33.7973 147.326 33.568 147.027 33.248C146.739 32.928 146.595 32.4853 146.595 31.92C146.595 31.216 146.888 30.64 147.475 30.192C148.062 29.744 148.878 29.52 149.923 29.52C150.467 29.52 151.011 29.5947 151.555 29.744C152.099 29.8827 152.547 30.0693 152.899 30.304L152.403 31.216C151.71 30.736 150.883 30.496 149.923 30.496C149.198 30.496 148.648 30.624 148.275 30.88C147.912 31.136 147.731 31.472 147.731 31.888C147.731 32.208 147.832 32.464 148.035 32.656C148.248 32.848 148.51 32.992 148.819 33.088C149.128 33.1733 149.555 33.264 150.099 33.36C150.771 33.488 151.31 33.616 151.715 33.744C152.12 33.872 152.467 34.0907 152.755 34.4C153.043 34.7093 153.187 35.136 153.187 35.68C153.187 36.416 152.878 37.0027 152.259 37.44C151.651 37.8667 150.803 38.08 149.715 38.08Z" fill="#111111"/>
<path fill-rule="evenodd" clip-rule="evenodd" d="M32 44C25.3726 44 20 38.6274 20 32C20 25.3726 25.3726 20 32 20C38.6274 20 44 25.3726 44 32C44 38.6274 38.6274 44 32 44ZM32 42C37.5228 42 42 37.5228 42 32C42 26.4772 37.5228 22 32 22C26.4772 22 22 26.4772 22 32C22 37.5228 26.4772 42 32 42Z" fill="#C2D1D9"/>
<mask id="mask0_325_15541" style="mask-type:luminance" maskUnits="userSpaceOnUse" x="20" y="20" width="24" height="24">
<path fill-rule="evenodd" clip-rule="evenodd" d="M32 44C25.3726 44 20 38.6274 20 32C20 25.3726 25.3726 20 32 20C38.6274 20 44 25.3726 44 32C44 38.6274 38.6274 44 32 44ZM32 42C37.5228 42 42 37.5228 42 32C42 26.4772 37.5228 22 32 22C26.4772 22 22 26.4772 22 32C22 37.5228 26.4772 42 32 42Z" fill="white"/>
</mask>
<g mask="url(#mask0_325_15541)">
<rect x="20" y="20" width="24" height="24" fill="black"/>
</g>
<path d="M63.936 70.8V82H62.784V71.824H60.144V70.8H63.936ZM71.0773 82.096C70.2133 82.096 69.4399 81.8667 68.7573 81.408C68.0853 80.9493 67.5573 80.2933 67.1733 79.44C66.7999 78.576 66.6133 77.5627 66.6133 76.4C66.6133 75.2373 66.7999 74.2293 67.1733 73.376C67.5573 72.512 68.0853 71.8507 68.7573 71.392C69.4399 70.9333 70.2133 70.704 71.0773 70.704C71.9413 70.704 72.7093 70.9333 73.3813 71.392C74.0639 71.8507 74.5973 72.512 74.9813 73.376C75.3653 74.2293 75.5573 75.2373 75.5573 76.4C75.5573 77.5627 75.3653 78.576 74.9813 79.44C74.5973 80.2933 74.0639 80.9493 73.3813 81.408C72.7093 81.8667 71.9413 82.096 71.0773 82.096ZM71.0773 81.04C71.7279 81.04 72.2986 80.8587 72.7893 80.496C73.2906 80.1333 73.6799 79.6053 73.9573 78.912C74.2346 78.2187 74.3733 77.3813 74.3733 76.4C74.3733 75.4187 74.2346 74.5813 73.9573 73.888C73.6799 73.1947 73.2906 72.6667 72.7893 72.304C72.2986 71.9413 71.7279 71.76 71.0773 71.76C70.4266 71.76 69.8506 71.9413 69.3493 72.304C68.8586 72.6667 68.4746 73.1947 68.1973 73.888C67.9199 74.5813 67.7812 75.4187 67.7812 76.4C67.7812 77.3813 67.9199 78.2187 68.1973 78.912C68.4746 79.6053 68.8586 80.1333 69.3493 80.496C69.8506 80.8587 70.4266 81.04 71.0773 81.04ZM78.071 75.264C77.8363 75.264 77.6337 75.1787 77.463 75.008C77.303 74.8373 77.223 74.6293 77.223 74.384C77.223 74.1387 77.303 73.936 77.463 73.776C77.6337 73.6053 77.8363 73.52 78.071 73.52C78.3057 73.52 78.5083 73.6053 78.679 73.776C78.8497 73.936 78.935 74.1387 78.935 74.384C78.935 74.6293 78.8497 74.8373 78.679 75.008C78.5083 75.1787 78.3057 75.264 78.071 75.264ZM78.071 82.08C77.8363 82.08 77.6337 81.9947 77.463 81.824C77.303 81.6533 77.223 81.4453 77.223 81.2C77.223 80.9547 77.303 80.752 77.463 80.592C77.6337 80.4213 77.8363 80.336 78.071 80.336C78.3057 80.336 78.5083 80.4213 78.679 80.592C78.8497 80.752 78.935 80.9547 78.935 81.2C78.935 81.4453 78.8497 81.6533 78.679 81.824C78.5083 81.9947 78.3057 82.08 78.071 82.08ZM85.0616 82.096C84.1976 82.096 83.4243 81.8667 82.7416 81.408C82.0696 80.9493 81.5416 80.2933 81.1576 79.44C80.7843 78.576 80.5976 77.5627 80.5976 76.4C80.5976 75.2373 80.7843 74.2293 81.1576 73.376C81.5416 72.512 82.0696 71.8507 82.7416 71.392C83.4243 70.9333 84.1976 70.704 85.0616 70.704C85.9256 70.704 86.6936 70.9333 87.3656 71.392C88.0483 71.8507 88.5816 72.512 88.9656 73.376C89.3496 74.2293 89.5416 75.2373 89.5416 76.4C89.5416 77.5627 89.3496 78.576 88.9656 79.44C88.5816 80.2933 88.0483 80.9493 87.3656 81.408C86.6936 81.8667 85.9256 82.096 85.0616 82.096ZM85.0616 81.04C85.7123 81.04 86.283 80.8587 86.7736 80.496C87.275 80.1333 87.6643 79.6053 87.9416 78.912C88.219 78.2187 88.3576 77.3813 88.3576 76.4C88.3576 75.4187 88.219 74.5813 87.9416 73.888C87.6643 73.1947 87.275 72.6667 86.7736 72.304C86.283 71.9413 85.7123 71.76 85.0616 71.76C84.411 71.76 83.835 71.9413 83.3336 72.304C82.843 72.6667 82.459 73.1947 82.1816 73.888C81.9043 74.5813 81.7656 75.4187 81.7656 76.4C81.7656 77.3813 81.9043 78.2187 82.1816 78.912C82.459 79.6053 82.843 80.1333 83.3336 80.496C83.835 80.8587 84.411 81.04 85.0616 81.04ZM95.6554 82.096C94.7914 82.096 94.018 81.8667 93.3354 81.408C92.6634 80.9493 92.1354 80.2933 91.7514 79.44C91.378 78.576 91.1914 77.5627 91.1914 76.4C91.1914 75.2373 91.378 74.2293 91.7514 73.376C92.1354 72.512 92.6634 71.8507 93.3354 71.392C94.018 70.9333 94.7914 70.704 95.6554 70.704C96.5194 70.704 97.2874 70.9333 97.9594 71.392C98.642 71.8507 99.1754 72.512 99.5594 73.376C99.9434 74.2293 100.135 75.2373 100.135 76.4C100.135 77.5627 99.9434 78.576 99.5594 79.44C99.1754 80.2933 98.642 80.9493 97.9594 81.408C97.2874 81.8667 96.5194 82.096 95.6554 82.096ZM95.6554 81.04C96.306 81.04 96.8767 80.8587 97.3674 80.496C97.8687 80.1333 98.258 79.6053 98.5354 78.912C98.8127 78.2187 98.9514 77.3813 98.9514 76.4C98.9514 75.4187 98.8127 74.5813 98.5354 73.888C98.258 73.1947 97.8687 72.6667 97.3674 72.304C96.8767 71.9413 96.306 71.76 95.6554 71.76C95.0047 71.76 94.4287 71.9413 93.9274 72.304C93.4367 72.6667 93.0527 73.1947 92.7754 73.888C92.498 74.5813 92.3594 75.4187 92.3594 76.4C92.3594 77.3813 92.498 78.2187 92.7754 78.912C93.0527 79.6053 93.4367 80.1333 93.9274 80.496C94.4287 80.8587 95.0047 81.04 95.6554 81.04ZM111.013 73.52C112.069 73.52 112.906 73.8293 113.525 74.448C114.154 75.056 114.469 75.9467 114.469 77.12V82H113.333V77.232C113.333 76.3573 113.114 75.6907 112.677 75.232C112.239 74.7733 111.615 74.544 110.805 74.544C109.898 74.544 109.178 74.816 108.645 75.36C108.122 75.8933 107.861 76.6347 107.861 77.584V82H106.725V70.128H107.861V75.056C108.17 74.5653 108.597 74.1867 109.141 73.92C109.685 73.6533 110.309 73.52 111.013 73.52ZM121.024 82.08C120.213 82.08 119.483 81.8987 118.832 81.536C118.181 81.1627 117.669 80.6507 117.296 80C116.923 79.3493 116.736 78.6133 116.736 77.792C116.736 76.9707 116.923 76.2347 117.296 75.584C117.669 74.9333 118.181 74.4267 118.832 74.064C119.483 73.7013 120.213 73.52 121.024 73.52C121.835 73.52 122.565 73.7013 123.216 74.064C123.867 74.4267 124.373 74.9333 124.736 75.584C125.109 76.2347 125.296 76.9707 125.296 77.792C125.296 78.6133 125.109 79.3493 124.736 80C124.373 80.6507 123.867 81.1627 123.216 81.536C122.565 81.8987 121.835 82.08 121.024 82.08ZM121.024 81.072C121.621 81.072 122.155 80.9387 122.624 80.672C123.104 80.3947 123.477 80.0053 123.744 79.504C124.011 79.0027 124.144 78.432 124.144 77.792C124.144 77.152 124.011 76.5813 123.744 76.08C123.477 75.5787 123.104 75.1947 122.624 74.928C122.155 74.6507 121.621 74.512 121.024 74.512C120.427 74.512 119.888 74.6507 119.408 74.928C118.939 75.1947 118.565 75.5787 118.288 76.08C118.021 76.5813 117.888 77.152 117.888 77.792C117.888 78.432 118.021 79.0027 118.288 79.504C118.565 80.0053 118.939 80.3947 119.408 80.672C119.888 80.9387 120.427 81.072 121.024 81.072ZM128.703 75.232C128.97 74.6667 129.365 74.24 129.887 73.952C130.421 73.664 131.077 73.52 131.855 73.52V74.624L131.583 74.608C130.698 74.608 130.005 74.88 129.503 75.424C129.002 75.968 128.751 76.7307 128.751 77.712V82H127.615V73.584H128.703V75.232ZM141.162 78.144H134.122C134.186 79.0187 134.522 79.728 135.13 80.272C135.738 80.8053 136.506 81.072 137.434 81.072C137.957 81.072 138.437 80.9813 138.874 80.8C139.311 80.608 139.69 80.3307 140.01 79.968L140.65 80.704C140.277 81.152 139.807 81.4933 139.242 81.728C138.687 81.9627 138.074 82.08 137.402 82.08C136.538 82.08 135.77 81.8987 135.098 81.536C134.437 81.1627 133.919 80.6507 133.546 80C133.173 79.3493 132.986 78.6133 132.986 77.792C132.986 76.9707 133.162 76.2347 133.514 75.584C133.877 74.9333 134.367 74.4267 134.986 74.064C135.615 73.7013 136.319 73.52 137.098 73.52C137.877 73.52 138.575 73.7013 139.194 74.064C139.813 74.4267 140.298 74.9333 140.65 75.584C141.002 76.224 141.178 76.96 141.178 77.792L141.162 78.144ZM137.098 74.496C136.287 74.496 135.605 74.7573 135.05 75.28C134.506 75.792 134.197 76.464 134.122 77.296H140.09C140.015 76.464 139.701 75.792 139.146 75.28C138.602 74.7573 137.919 74.496 137.098 74.496ZM145.746 82.08C145.064 82.08 144.408 81.984 143.778 81.792C143.16 81.5893 142.674 81.3387 142.322 81.04L142.834 80.144C143.186 80.4213 143.629 80.6507 144.162 80.832C144.696 81.0027 145.25 81.088 145.826 81.088C146.594 81.088 147.16 80.9707 147.522 80.736C147.896 80.4907 148.082 80.1493 148.082 79.712C148.082 79.4027 147.981 79.1627 147.778 78.992C147.576 78.8107 147.32 78.6773 147.01 78.592C146.701 78.496 146.29 78.4053 145.778 78.32C145.096 78.192 144.546 78.064 144.13 77.936C143.714 77.7973 143.357 77.568 143.058 77.248C142.77 76.928 142.626 76.4853 142.626 75.92C142.626 75.216 142.92 74.64 143.506 74.192C144.093 73.744 144.909 73.52 145.954 73.52C146.498 73.52 147.042 73.5947 147.586 73.744C148.13 73.8827 148.578 74.0693 148.93 74.304L148.434 75.216C147.741 74.736 146.914 74.496 145.954 74.496C145.229 74.496 144.68 74.624 144.306 74.88C143.944 75.136 143.762 75.472 143.762 75.888C143.762 76.208 143.864 76.464 144.066 76.656C144.28 76.848 144.541 76.992 144.85 77.088C145.16 77.1733 145.586 77.264 146.13 77.36C146.802 77.488 147.341 77.616 147.746 77.744C148.152 77.872 148.498 78.0907 148.786 78.4C149.074 78.7093 149.218 79.136 149.218 79.68C149.218 80.416 148.909 81.0027 148.29 81.44C147.682 81.8667 146.834 82.08 145.746 82.08Z" fill="#111111"/>
<path fill-rule="evenodd" clip-rule="evenodd" d="M32 88C25.3726 88 20 82.6274 20 76C20 69.3726 25.3726 64 32 64C38.6274 64 44 69.3726 44 76C44 82.6274 38.6274 88 32 88ZM32 86C37.5228 86 42 81.5228 42 76C42 70.4772 37.5228 66 32 66C26.4772 66 22 70.4772 22 76C22 81.5228 26.4772 86 32 86Z" fill="#C2D1D9"/>
<mask id="mask1_325_15541" style="mask-type:luminance" maskUnits="userSpaceOnUse" x="20" y="64" width="24" height="24">
<path fill-rule="evenodd" clip-rule="evenodd" d="M32 88C25.3726 88 20 82.6274 20 76C20 69.3726 25.3726 64 32 64C38.6274 64 44 69.3726 44 76C44 82.6274 38.6274 88 32 88ZM32 86C37.5228 86 42 81.5228 42 76C42 70.4772 37.5228 66 32 66C26.4772 66 22 70.4772 22 76C22 81.5228 26.4772 86 32 86Z" fill="white"/>
</mask>
<g mask="url(#mask1_325_15541)">
<rect x="20" y="64" width="24" height="24" fill="black"/>
</g>
<path d="M63.936 114.8V126H62.784V115.824H60.144V114.8H63.936ZM69.7173 114.8V126H68.5653V115.824H65.9253V114.8H69.7173ZM73.2585 119.264C73.0238 119.264 72.8212 119.179 72.6505 119.008C72.4905 118.837 72.4105 118.629 72.4105 118.384C72.4105 118.139 72.4905 117.936 72.6505 117.776C72.8212 117.605 73.0238 117.52 73.2585 117.52C73.4932 117.52 73.6958 117.605 73.8665 117.776C74.0372 117.936 74.1225 118.139 74.1225 118.384C74.1225 118.629 74.0372 118.837 73.8665 119.008C73.6958 119.179 73.4932 119.264 73.2585 119.264ZM73.2585 126.08C73.0238 126.08 72.8212 125.995 72.6505 125.824C72.4905 125.653 72.4105 125.445 72.4105 125.2C72.4105 124.955 72.4905 124.752 72.6505 124.592C72.8212 124.421 73.0238 124.336 73.2585 124.336C73.4932 124.336 73.6958 124.421 73.8665 124.592C74.0372 124.752 74.1225 124.955 74.1225 125.2C74.1225 125.445 74.0372 125.653 73.8665 125.824C73.6958 125.995 73.4932 126.08 73.2585 126.08ZM80.2491 126.096C79.3851 126.096 78.6118 125.867 77.9291 125.408C77.2571 124.949 76.7291 124.293 76.3451 123.44C75.9718 122.576 75.7851 121.563 75.7851 120.4C75.7851 119.237 75.9718 118.229 76.3451 117.376C76.7291 116.512 77.2571 115.851 77.9291 115.392C78.6118 114.933 79.3851 114.704 80.2491 114.704C81.1131 114.704 81.8811 114.933 82.5531 115.392C83.2358 115.851 83.7691 116.512 84.1531 117.376C84.5371 118.229 84.7291 119.237 84.7291 120.4C84.7291 121.563 84.5371 122.576 84.1531 123.44C83.7691 124.293 83.2358 124.949 82.5531 125.408C81.8811 125.867 81.1131 126.096 80.2491 126.096ZM80.2491 125.04C80.8998 125.04 81.4705 124.859 81.9611 124.496C82.4625 124.133 82.8518 123.605 83.1291 122.912C83.4065 122.219 83.5451 121.381 83.5451 120.4C83.5451 119.419 83.4065 118.581 83.1291 117.888C82.8518 117.195 82.4625 116.667 81.9611 116.304C81.4705 115.941 80.8998 115.76 80.2491 115.76C79.5985 115.76 79.0225 115.941 78.5211 116.304C78.0305 116.667 77.6465 117.195 77.3691 117.888C77.0918 118.581 76.9531 119.419 76.9531 120.4C76.9531 121.381 77.0918 122.219 77.3691 122.912C77.6465 123.605 78.0305 124.133 78.5211 124.496C79.0225 124.859 79.5985 125.04 80.2491 125.04ZM90.8429 126.096C89.9789 126.096 89.2055 125.867 88.5229 125.408C87.8509 124.949 87.3229 124.293 86.9389 123.44C86.5655 122.576 86.3789 121.563 86.3789 120.4C86.3789 119.237 86.5655 118.229 86.9389 117.376C87.3229 116.512 87.8509 115.851 88.5229 115.392C89.2055 114.933 89.9789 114.704 90.8429 114.704C91.7069 114.704 92.4749 114.933 93.1469 115.392C93.8295 115.851 94.3629 116.512 94.7469 117.376C95.1309 118.229 95.3229 119.237 95.3229 120.4C95.3229 121.563 95.1309 122.576 94.7469 123.44C94.3629 124.293 93.8295 124.949 93.1469 125.408C92.4749 125.867 91.7069 126.096 90.8429 126.096ZM90.8429 125.04C91.4935 125.04 92.0642 124.859 92.5549 124.496C93.0562 124.133 93.4455 123.605 93.7229 122.912C94.0002 122.219 94.1389 121.381 94.1389 120.4C94.1389 119.419 94.0002 118.581 93.7229 117.888C93.4455 117.195 93.0562 116.667 92.5549 116.304C92.0642 115.941 91.4935 115.76 90.8429 115.76C90.1922 115.76 89.6162 115.941 89.1149 116.304C88.6242 116.667 88.2402 117.195 87.9629 117.888C87.6855 118.581 87.5469 119.419 87.5469 120.4C87.5469 121.381 87.6855 122.219 87.9629 122.912C88.2402 123.605 88.6242 124.133 89.1149 124.496C89.6162 124.859 90.1922 125.04 90.8429 125.04ZM106.2 117.52C107.256 117.52 108.093 117.829 108.712 118.448C109.341 119.056 109.656 119.947 109.656 121.12V126H108.52V121.232C108.52 120.357 108.301 119.691 107.864 119.232C107.427 118.773 106.803 118.544 105.992 118.544C105.085 118.544 104.365 118.816 103.832 119.36C103.309 119.893 103.048 120.635 103.048 121.584V126H101.912V114.128H103.048V119.056C103.357 118.565 103.784 118.187 104.328 117.92C104.872 117.653 105.496 117.52 106.2 117.52ZM116.212 126.08C115.401 126.08 114.67 125.899 114.02 125.536C113.369 125.163 112.857 124.651 112.484 124C112.11 123.349 111.924 122.613 111.924 121.792C111.924 120.971 112.11 120.235 112.484 119.584C112.857 118.933 113.369 118.427 114.02 118.064C114.67 117.701 115.401 117.52 116.212 117.52C117.022 117.52 117.753 117.701 118.404 118.064C119.054 118.427 119.561 118.933 119.924 119.584C120.297 120.235 120.484 120.971 120.484 121.792C120.484 122.613 120.297 123.349 119.924 124C119.561 124.651 119.054 125.163 118.404 125.536C117.753 125.899 117.022 126.08 116.212 126.08ZM116.212 125.072C116.809 125.072 117.342 124.939 117.812 124.672C118.292 124.395 118.665 124.005 118.932 123.504C119.198 123.003 119.332 122.432 119.332 121.792C119.332 121.152 119.198 120.581 118.932 120.08C118.665 119.579 118.292 119.195 117.812 118.928C117.342 118.651 116.809 118.512 116.212 118.512C115.614 118.512 115.076 118.651 114.596 118.928C114.126 119.195 113.753 119.579 113.476 120.08C113.209 120.581 113.076 121.152 113.076 121.792C113.076 122.432 113.209 123.003 113.476 123.504C113.753 124.005 114.126 124.395 114.596 124.672C115.076 124.939 115.614 125.072 116.212 125.072ZM123.891 119.232C124.157 118.667 124.552 118.24 125.075 117.952C125.608 117.664 126.264 117.52 127.043 117.52V118.624L126.771 118.608C125.885 118.608 125.192 118.88 124.691 119.424C124.189 119.968 123.939 120.731 123.939 121.712V126H122.803V117.584H123.891V119.232ZM136.35 122.144H129.31C129.374 123.019 129.71 123.728 130.318 124.272C130.926 124.805 131.694 125.072 132.622 125.072C133.144 125.072 133.624 124.981 134.062 124.8C134.499 124.608 134.878 124.331 135.198 123.968L135.838 124.704C135.464 125.152 134.995 125.493 134.43 125.728C133.875 125.963 133.262 126.08 132.59 126.08C131.726 126.08 130.958 125.899 130.286 125.536C129.624 125.163 129.107 124.651 128.734 124C128.36 123.349 128.174 122.613 128.174 121.792C128.174 120.971 128.35 120.235 128.702 119.584C129.064 118.933 129.555 118.427 130.174 118.064C130.803 117.701 131.507 117.52 132.286 117.52C133.064 117.52 133.763 117.701 134.382 118.064C135 118.427 135.486 118.933 135.838 119.584C136.19 120.224 136.366 120.96 136.366 121.792L136.35 122.144ZM132.286 118.496C131.475 118.496 130.792 118.757 130.238 119.28C129.694 119.792 129.384 120.464 129.31 121.296H135.278C135.203 120.464 134.888 119.792 134.334 119.28C133.79 118.757 133.107 118.496 132.286 118.496ZM140.934 126.08C140.251 126.08 139.595 125.984 138.966 125.792C138.347 125.589 137.862 125.339 137.51 125.04L138.022 124.144C138.374 124.421 138.816 124.651 139.35 124.832C139.883 125.003 140.438 125.088 141.014 125.088C141.782 125.088 142.347 124.971 142.71 124.736C143.083 124.491 143.27 124.149 143.27 123.712C143.27 123.403 143.168 123.163 142.966 122.992C142.763 122.811 142.507 122.677 142.198 122.592C141.888 122.496 141.478 122.405 140.966 122.32C140.283 122.192 139.734 122.064 139.318 121.936C138.902 121.797 138.544 121.568 138.246 121.248C137.958 120.928 137.814 120.485 137.814 119.92C137.814 119.216 138.107 118.64 138.694 118.192C139.28 117.744 140.096 117.52 141.142 117.52C141.686 117.52 142.23 117.595 142.774 117.744C143.318 117.883 143.766 118.069 144.118 118.304L143.622 119.216C142.928 118.736 142.102 118.496 141.142 118.496C140.416 118.496 139.867 118.624 139.494 118.88C139.131 119.136 138.95 119.472 138.95 119.888C138.95 120.208 139.051 120.464 139.254 120.656C139.467 120.848 139.728 120.992 140.038 121.088C140.347 121.173 140.774 121.264 141.318 121.36C141.99 121.488 142.528 121.616 142.934 121.744C143.339 121.872 143.686 122.091 143.974 122.4C144.262 122.709 144.406 123.136 144.406 123.68C144.406 124.416 144.096 125.003 143.478 125.44C142.87 125.867 142.022 126.08 140.934 126.08Z" fill="#111111"/>
<path fill-rule="evenodd" clip-rule="evenodd" d="M32 132C25.3726 132 20 126.627 20 120C20 113.373 25.3726 108 32 108C38.6274 108 44 113.373 44 120C44 126.627 38.6274 132 32 132ZM32 130C37.5228 130 42 125.523 42 120C42 114.477 37.5228 110 32 110C26.4772 110 22 114.477 22 120C22 125.523 26.4772 130 32 130Z" fill="#C2D1D9"/>
<mask id="mask2_325_15541" style="mask-type:luminance" maskUnits="userSpaceOnUse" x="20" y="108" width="24" height="24">
<path fill-rule="evenodd" clip-rule="evenodd" d="M32 132C25.3726 132 20 126.627 20 120C20 113.373 25.3726 108 32 108C38.6274 108 44 113.373 44 120C44 126.627 38.6274 132 32 132ZM32 130C37.5228 130 42 125.523 42 120C42 114.477 37.5228 110 32 110C26.4772 110 22 114.477 22 120C22 125.523 26.4772 130 32 130Z" fill="white"/>
</mask>
<g mask="url(#mask2_325_15541)">
<rect x="20" y="108" width="24" height="24" fill="black"/>
</g>
<path d="M63.936 158.8V170H62.784V159.824H60.144V158.8H63.936ZM74.2613 168.976V170H66.4053V169.184L71.0613 164.624C71.6479 164.048 72.0426 163.552 72.2453 163.136C72.4586 162.709 72.5653 162.283 72.5653 161.856C72.5653 161.195 72.3359 160.683 71.8773 160.32C71.4293 159.947 70.7839 159.76 69.9413 159.76C68.6293 159.76 67.6106 160.176 66.8853 161.008L66.0693 160.304C66.5066 159.792 67.0613 159.397 67.7333 159.12C68.4159 158.843 69.1839 158.704 70.0373 158.704C71.1786 158.704 72.0799 158.976 72.7413 159.52C73.4133 160.053 73.7493 160.789 73.7493 161.728C73.7493 162.304 73.6213 162.859 73.3653 163.392C73.1093 163.925 72.6239 164.539 71.9093 165.232L68.1013 168.976H74.2613ZM76.571 163.264C76.3363 163.264 76.1337 163.179 75.963 163.008C75.803 162.837 75.723 162.629 75.723 162.384C75.723 162.139 75.803 161.936 75.963 161.776C76.1337 161.605 76.3363 161.52 76.571 161.52C76.8057 161.52 77.0083 161.605 77.179 161.776C77.3497 161.936 77.435 162.139 77.435 162.384C77.435 162.629 77.3497 162.837 77.179 163.008C77.0083 163.179 76.8057 163.264 76.571 163.264ZM76.571 170.08C76.3363 170.08 76.1337 169.995 75.963 169.824C75.803 169.653 75.723 169.445 75.723 169.2C75.723 168.955 75.803 168.752 75.963 168.592C76.1337 168.421 76.3363 168.336 76.571 168.336C76.8057 168.336 77.0083 168.421 77.179 168.592C77.3497 168.752 77.435 168.955 77.435 169.2C77.435 169.445 77.3497 169.653 77.179 169.824C77.0083 169.995 76.8057 170.08 76.571 170.08ZM83.5616 170.096C82.6976 170.096 81.9243 169.867 81.2416 169.408C80.5696 168.949 80.0416 168.293 79.6576 167.44C79.2843 166.576 79.0976 165.563 79.0976 164.4C79.0976 163.237 79.2843 162.229 79.6576 161.376C80.0416 160.512 80.5696 159.851 81.2416 159.392C81.9243 158.933 82.6976 158.704 83.5616 158.704C84.4256 158.704 85.1936 158.933 85.8656 159.392C86.5483 159.851 87.0816 160.512 87.4656 161.376C87.8496 162.229 88.0416 163.237 88.0416 164.4C88.0416 165.563 87.8496 166.576 87.4656 167.44C87.0816 168.293 86.5483 168.949 85.8656 169.408C85.1936 169.867 84.4256 170.096 83.5616 170.096ZM83.5616 169.04C84.2123 169.04 84.783 168.859 85.2736 168.496C85.775 168.133 86.1643 167.605 86.4416 166.912C86.719 166.219 86.8576 165.381 86.8576 164.4C86.8576 163.419 86.719 162.581 86.4416 161.888C86.1643 161.195 85.775 160.667 85.2736 160.304C84.783 159.941 84.2123 159.76 83.5616 159.76C82.911 159.76 82.335 159.941 81.8336 160.304C81.343 160.667 80.959 161.195 80.6816 161.888C80.4043 162.581 80.2656 163.419 80.2656 164.4C80.2656 165.381 80.4043 166.219 80.6816 166.912C80.959 167.605 81.343 168.133 81.8336 168.496C82.335 168.859 82.911 169.04 83.5616 169.04ZM94.1554 170.096C93.2914 170.096 92.518 169.867 91.8354 169.408C91.1634 168.949 90.6354 168.293 90.2514 167.44C89.878 166.576 89.6914 165.563 89.6914 164.4C89.6914 163.237 89.878 162.229 90.2514 161.376C90.6354 160.512 91.1634 159.851 91.8354 159.392C92.518 158.933 93.2914 158.704 94.1554 158.704C95.0194 158.704 95.7874 158.933 96.4594 159.392C97.142 159.851 97.6754 160.512 98.0594 161.376C98.4434 162.229 98.6354 163.237 98.6354 164.4C98.6354 165.563 98.4434 166.576 98.0594 167.44C97.6754 168.293 97.142 168.949 96.4594 169.408C95.7874 169.867 95.0194 170.096 94.1554 170.096ZM94.1554 169.04C94.806 169.04 95.3767 168.859 95.8674 168.496C96.3687 168.133 96.758 167.605 97.0354 166.912C97.3127 166.219 97.4514 165.381 97.4514 164.4C97.4514 163.419 97.3127 162.581 97.0354 161.888C96.758 161.195 96.3687 160.667 95.8674 160.304C95.3767 159.941 94.806 159.76 94.1554 159.76C93.5047 159.76 92.9287 159.941 92.4274 160.304C91.9367 160.667 91.5527 161.195 91.2754 161.888C90.998 162.581 90.8594 163.419 90.8594 164.4C90.8594 165.381 90.998 166.219 91.2754 166.912C91.5527 167.605 91.9367 168.133 92.4274 168.496C92.9287 168.859 93.5047 169.04 94.1554 169.04ZM109.513 161.52C110.569 161.52 111.406 161.829 112.025 162.448C112.654 163.056 112.969 163.947 112.969 165.12V170H111.833V165.232C111.833 164.357 111.614 163.691 111.177 163.232C110.739 162.773 110.115 162.544 109.305 162.544C108.398 162.544 107.678 162.816 107.145 163.36C106.622 163.893 106.361 164.635 106.361 165.584V170H105.225V158.128H106.361V163.056C106.67 162.565 107.097 162.187 107.641 161.92C108.185 161.653 108.809 161.52 109.513 161.52ZM119.524 170.08C118.713 170.08 117.983 169.899 117.332 169.536C116.681 169.163 116.169 168.651 115.796 168C115.423 167.349 115.236 166.613 115.236 165.792C115.236 164.971 115.423 164.235 115.796 163.584C116.169 162.933 116.681 162.427 117.332 162.064C117.983 161.701 118.713 161.52 119.524 161.52C120.335 161.52 121.065 161.701 121.716 162.064C122.367 162.427 122.873 162.933 123.236 163.584C123.609 164.235 123.796 164.971 123.796 165.792C123.796 166.613 123.609 167.349 123.236 168C122.873 168.651 122.367 169.163 121.716 169.536C121.065 169.899 120.335 170.08 119.524 170.08ZM119.524 169.072C120.121 169.072 120.655 168.939 121.124 168.672C121.604 168.395 121.977 168.005 122.244 167.504C122.511 167.003 122.644 166.432 122.644 165.792C122.644 165.152 122.511 164.581 122.244 164.08C121.977 163.579 121.604 163.195 121.124 162.928C120.655 162.651 120.121 162.512 119.524 162.512C118.927 162.512 118.388 162.651 117.908 162.928C117.439 163.195 117.065 163.579 116.788 164.08C116.521 164.581 116.388 165.152 116.388 165.792C116.388 166.432 116.521 167.003 116.788 167.504C117.065 168.005 117.439 168.395 117.908 168.672C118.388 168.939 118.927 169.072 119.524 169.072ZM127.203 163.232C127.47 162.667 127.865 162.24 128.387 161.952C128.921 161.664 129.577 161.52 130.355 161.52V162.624L130.083 162.608C129.198 162.608 128.505 162.88 128.003 163.424C127.502 163.968 127.251 164.731 127.251 165.712V170H126.115V161.584H127.203V163.232ZM139.662 166.144H132.622C132.686 167.019 133.022 167.728 133.63 168.272C134.238 168.805 135.006 169.072 135.934 169.072C136.457 169.072 136.937 168.981 137.374 168.8C137.811 168.608 138.19 168.331 138.51 167.968L139.15 168.704C138.777 169.152 138.307 169.493 137.742 169.728C137.187 169.963 136.574 170.08 135.902 170.08C135.038 170.08 134.27 169.899 133.598 169.536C132.937 169.163 132.419 168.651 132.046 168C131.673 167.349 131.486 166.613 131.486 165.792C131.486 164.971 131.662 164.235 132.014 163.584C132.377 162.933 132.867 162.427 133.486 162.064C134.115 161.701 134.819 161.52 135.598 161.52C136.377 161.52 137.075 161.701 137.694 162.064C138.313 162.427 138.798 162.933 139.15 163.584C139.502 164.224 139.678 164.96 139.678 165.792L139.662 166.144ZM135.598 162.496C134.787 162.496 134.105 162.757 133.55 163.28C133.006 163.792 132.697 164.464 132.622 165.296H138.59C138.515 164.464 138.201 163.792 137.646 163.28C137.102 162.757 136.419 162.496 135.598 162.496ZM144.246 170.08C143.564 170.08 142.908 169.984 142.278 169.792C141.66 169.589 141.174 169.339 140.822 169.04L141.334 168.144C141.686 168.421 142.129 168.651 142.662 168.832C143.196 169.003 143.75 169.088 144.326 169.088C145.094 169.088 145.66 168.971 146.022 168.736C146.396 168.491 146.582 168.149 146.582 167.712C146.582 167.403 146.481 167.163 146.278 166.992C146.076 166.811 145.82 166.677 145.51 166.592C145.201 166.496 144.79 166.405 144.278 166.32C143.596 166.192 143.046 166.064 142.63 165.936C142.214 165.797 141.857 165.568 141.558 165.248C141.27 164.928 141.126 164.485 141.126 163.92C141.126 163.216 141.42 162.64 142.006 162.192C142.593 161.744 143.409 161.52 144.454 161.52C144.998 161.52 145.542 161.595 146.086 161.744C146.63 161.883 147.078 162.069 147.43 162.304L146.934 163.216C146.241 162.736 145.414 162.496 144.454 162.496C143.729 162.496 143.18 162.624 142.806 162.88C142.444 163.136 142.262 163.472 142.262 163.888C142.262 164.208 142.364 164.464 142.566 164.656C142.78 164.848 143.041 164.992 143.35 165.088C143.66 165.173 144.086 165.264 144.63 165.36C145.302 165.488 145.841 165.616 146.246 165.744C146.652 165.872 146.998 166.091 147.286 166.4C147.574 166.709 147.718 167.136 147.718 167.68C147.718 168.416 147.409 169.003 146.79 169.44C146.182 169.867 145.334 170.08 144.246 170.08Z" fill="#111111"/>
<path fill-rule="evenodd" clip-rule="evenodd" d="M32 176C25.3726 176 20 170.627 20 164C20 157.373 25.3726 152 32 152C38.6274 152 44 157.373 44 164C44 170.627 38.6274 176 32 176ZM32 174C37.5228 174 42 169.523 42 164C42 158.477 37.5228 154 32 154C26.4772 154 22 158.477 22 164C22 169.523 26.4772 174 32 174Z" fill="#C2D1D9"/>
<mask id="mask3_325_15541" style="mask-type:luminance" maskUnits="userSpaceOnUse" x="20" y="152" width="24" height="24">
<path fill-rule="evenodd" clip-rule="evenodd" d="M32 176C25.3726 176 20 170.627 20 164C20 157.373 25.3726 152 32 152C38.6274 152 44 157.373 44 164C44 170.627 38.6274 176 32 176ZM32 174C37.5228 174 42 169.523 42 164C42 158.477 37.5228 154 32 154C26.4772 154 22 158.477 22 164C22 169.523 26.4772 174 32 174Z" fill="white"/>
</mask>
<g mask="url(#mask3_325_15541)">
<rect x="20" y="152" width="24" height="24" fill="black"/>
</g>
<path d="M63.936 202.8V214H62.784V203.824H60.144V202.8H63.936ZM71.0773 214.096C70.2133 214.096 69.4399 213.867 68.7573 213.408C68.0853 212.949 67.5573 212.293 67.1733 211.44C66.7999 210.576 66.6133 209.563 66.6133 208.4C66.6133 207.237 66.7999 206.229 67.1733 205.376C67.5573 204.512 68.0853 203.851 68.7573 203.392C69.4399 202.933 70.2133 202.704 71.0773 202.704C71.9413 202.704 72.7093 202.933 73.3813 203.392C74.0639 203.851 74.5973 204.512 74.9813 205.376C75.3653 206.229 75.5573 207.237 75.5573 208.4C75.5573 209.563 75.3653 210.576 74.9813 211.44C74.5973 212.293 74.0639 212.949 73.3813 213.408C72.7093 213.867 71.9413 214.096 71.0773 214.096ZM71.0773 213.04C71.7279 213.04 72.2986 212.859 72.7893 212.496C73.2906 212.133 73.6799 211.605 73.9573 210.912C74.2346 210.219 74.3733 209.381 74.3733 208.4C74.3733 207.419 74.2346 206.581 73.9573 205.888C73.6799 205.195 73.2906 204.667 72.7893 204.304C72.2986 203.941 71.7279 203.76 71.0773 203.76C70.4266 203.76 69.8506 203.941 69.3493 204.304C68.8586 204.667 68.4746 205.195 68.1973 205.888C67.9199 206.581 67.7812 207.419 67.7812 208.4C67.7812 209.381 67.9199 210.219 68.1973 210.912C68.4746 211.605 68.8586 212.133 69.3493 212.496C69.8506 212.859 70.4266 213.04 71.0773 213.04ZM78.071 207.264C77.8363 207.264 77.6337 207.179 77.463 207.008C77.303 206.837 77.223 206.629 77.223 206.384C77.223 206.139 77.303 205.936 77.463 205.776C77.6337 205.605 77.8363 205.52 78.071 205.52C78.3057 205.52 78.5083 205.605 78.679 205.776C78.8497 205.936 78.935 206.139 78.935 206.384C78.935 206.629 78.8497 206.837 78.679 207.008C78.5083 207.179 78.3057 207.264 78.071 207.264ZM78.071 214.08C77.8363 214.08 77.6337 213.995 77.463 213.824C77.303 213.653 77.223 213.445 77.223 213.2C77.223 212.955 77.303 212.752 77.463 212.592C77.6337 212.421 77.8363 212.336 78.071 212.336C78.3057 212.336 78.5083 212.421 78.679 212.592C78.8497 212.752 78.935 212.955 78.935 213.2C78.935 213.445 78.8497 213.653 78.679 213.824C78.5083 213.995 78.3057 214.08 78.071 214.08ZM85.0616 214.096C84.1976 214.096 83.4243 213.867 82.7416 213.408C82.0696 212.949 81.5416 212.293 81.1576 211.44C80.7843 210.576 80.5976 209.563 80.5976 208.4C80.5976 207.237 80.7843 206.229 81.1576 205.376C81.5416 204.512 82.0696 203.851 82.7416 203.392C83.4243 202.933 84.1976 202.704 85.0616 202.704C85.9256 202.704 86.6936 202.933 87.3656 203.392C88.0483 203.851 88.5816 204.512 88.9656 205.376C89.3496 206.229 89.5416 207.237 89.5416 208.4C89.5416 209.563 89.3496 210.576 88.9656 211.44C88.5816 212.293 88.0483 212.949 87.3656 213.408C86.6936 213.867 85.9256 214.096 85.0616 214.096ZM85.0616 213.04C85.7123 213.04 86.283 212.859 86.7736 212.496C87.275 212.133 87.6643 211.605 87.9416 210.912C88.219 210.219 88.3576 209.381 88.3576 208.4C88.3576 207.419 88.219 206.581 87.9416 205.888C87.6643 205.195 87.275 204.667 86.7736 204.304C86.283 203.941 85.7123 203.76 85.0616 203.76C84.411 203.76 83.835 203.941 83.3336 204.304C82.843 204.667 82.459 205.195 82.1816 205.888C81.9043 206.581 81.7656 207.419 81.7656 208.4C81.7656 209.381 81.9043 210.219 82.1816 210.912C82.459 211.605 82.843 212.133 83.3336 212.496C83.835 212.859 84.411 213.04 85.0616 213.04ZM95.6554 214.096C94.7914 214.096 94.018 213.867 93.3354 213.408C92.6634 212.949 92.1354 212.293 91.7514 211.44C91.378 210.576 91.1914 209.563 91.1914 208.4C91.1914 207.237 91.378 206.229 91.7514 205.376C92.1354 204.512 92.6634 203.851 93.3354 203.392C94.018 202.933 94.7914 202.704 95.6554 202.704C96.5194 202.704 97.2874 202.933 97.9594 203.392C98.642 203.851 99.1754 204.512 99.5594 205.376C99.9434 206.229 100.135 207.237 100.135 208.4C100.135 209.563 99.9434 210.576 99.5594 211.44C99.1754 212.293 98.642 212.949 97.9594 213.408C97.2874 213.867 96.5194 214.096 95.6554 214.096ZM95.6554 213.04C96.306 213.04 96.8767 212.859 97.3674 212.496C97.8687 212.133 98.258 211.605 98.5354 210.912C98.8127 210.219 98.9514 209.381 98.9514 208.4C98.9514 207.419 98.8127 206.581 98.5354 205.888C98.258 205.195 97.8687 204.667 97.3674 204.304C96.8767 203.941 96.306 203.76 95.6554 203.76C95.0047 203.76 94.4287 203.941 93.9274 204.304C93.4367 204.667 93.0527 205.195 92.7754 205.888C92.498 206.581 92.3594 207.419 92.3594 208.4C92.3594 209.381 92.498 210.219 92.7754 210.912C93.0527 211.605 93.4367 212.133 93.9274 212.496C94.4287 212.859 95.0047 213.04 95.6554 213.04ZM111.013 205.52C112.069 205.52 112.906 205.829 113.525 206.448C114.154 207.056 114.469 207.947 114.469 209.12V214H113.333V209.232C113.333 208.357 113.114 207.691 112.677 207.232C112.239 206.773 111.615 206.544 110.805 206.544C109.898 206.544 109.178 206.816 108.645 207.36C108.122 207.893 107.861 208.635 107.861 209.584V214H106.725V202.128H107.861V207.056C108.17 206.565 108.597 206.187 109.141 205.92C109.685 205.653 110.309 205.52 111.013 205.52ZM121.024 214.08C120.213 214.08 119.483 213.899 118.832 213.536C118.181 213.163 117.669 212.651 117.296 212C116.923 211.349 116.736 210.613 116.736 209.792C116.736 208.971 116.923 208.235 117.296 207.584C117.669 206.933 118.181 206.427 118.832 206.064C119.483 205.701 120.213 205.52 121.024 205.52C121.835 205.52 122.565 205.701 123.216 206.064C123.867 206.427 124.373 206.933 124.736 207.584C125.109 208.235 125.296 208.971 125.296 209.792C125.296 210.613 125.109 211.349 124.736 212C124.373 212.651 123.867 213.163 123.216 213.536C122.565 213.899 121.835 214.08 121.024 214.08ZM121.024 213.072C121.621 213.072 122.155 212.939 122.624 212.672C123.104 212.395 123.477 212.005 123.744 211.504C124.011 211.003 124.144 210.432 124.144 209.792C124.144 209.152 124.011 208.581 123.744 208.08C123.477 207.579 123.104 207.195 122.624 206.928C122.155 206.651 121.621 206.512 121.024 206.512C120.427 206.512 119.888 206.651 119.408 206.928C118.939 207.195 118.565 207.579 118.288 208.08C118.021 208.581 117.888 209.152 117.888 209.792C117.888 210.432 118.021 211.003 118.288 211.504C118.565 212.005 118.939 212.395 119.408 212.672C119.888 212.939 120.427 213.072 121.024 213.072ZM128.703 207.232C128.97 206.667 129.365 206.24 129.887 205.952C130.421 205.664 131.077 205.52 131.855 205.52V206.624L131.583 206.608C130.698 206.608 130.005 206.88 129.503 207.424C129.002 207.968 128.751 208.731 128.751 209.712V214H127.615V205.584H128.703V207.232ZM141.162 210.144H134.122C134.186 211.019 134.522 211.728 135.13 212.272C135.738 212.805 136.506 213.072 137.434 213.072C137.957 213.072 138.437 212.981 138.874 212.8C139.311 212.608 139.69 212.331 140.01 211.968L140.65 212.704C140.277 213.152 139.807 213.493 139.242 213.728C138.687 213.963 138.074 214.08 137.402 214.08C136.538 214.08 135.77 213.899 135.098 213.536C134.437 213.163 133.919 212.651 133.546 212C133.173 211.349 132.986 210.613 132.986 209.792C132.986 208.971 133.162 208.235 133.514 207.584C133.877 206.933 134.367 206.427 134.986 206.064C135.615 205.701 136.319 205.52 137.098 205.52C137.877 205.52 138.575 205.701 139.194 206.064C139.813 206.427 140.298 206.933 140.65 207.584C141.002 208.224 141.178 208.96 141.178 209.792L141.162 210.144ZM137.098 206.496C136.287 206.496 135.605 206.757 135.05 207.28C134.506 207.792 134.197 208.464 134.122 209.296H140.09C140.015 208.464 139.701 207.792 139.146 207.28C138.602 206.757 137.919 206.496 137.098 206.496ZM145.746 214.08C145.064 214.08 144.408 213.984 143.778 213.792C143.16 213.589 142.674 213.339 142.322 213.04L142.834 212.144C143.186 212.421 143.629 212.651 144.162 212.832C144.696 213.003 145.25 213.088 145.826 213.088C146.594 213.088 147.16 212.971 147.522 212.736C147.896 212.491 148.082 212.149 148.082 211.712C148.082 211.403 147.981 211.163 147.778 210.992C147.576 210.811 147.32 210.677 147.01 210.592C146.701 210.496 146.29 210.405 145.778 210.32C145.096 210.192 144.546 210.064 144.13 209.936C143.714 209.797 143.357 209.568 143.058 209.248C142.77 208.928 142.626 208.485 142.626 207.92C142.626 207.216 142.92 206.64 143.506 206.192C144.093 205.744 144.909 205.52 145.954 205.52C146.498 205.52 147.042 205.595 147.586 205.744C148.13 205.883 148.578 206.069 148.93 206.304L148.434 207.216C147.741 206.736 146.914 206.496 145.954 206.496C145.229 206.496 144.68 206.624 144.306 206.88C143.944 207.136 143.762 207.472 143.762 207.888C143.762 208.208 143.864 208.464 144.066 208.656C144.28 208.848 144.541 208.992 144.85 209.088C145.16 209.173 145.586 209.264 146.13 209.36C146.802 209.488 147.341 209.616 147.746 209.744C148.152 209.872 148.498 210.091 148.786 210.4C149.074 210.709 149.218 211.136 149.218 211.68C149.218 212.416 148.909 213.003 148.29 213.44C147.682 213.867 146.834 214.08 145.746 214.08Z" fill="#111111"/>
<path fill-rule="evenodd" clip-rule="evenodd" d="M32 220C25.3726 220 20 214.627 20 208C20 201.373 25.3726 196 32 196C38.6274 196 44 201.373 44 208C44 214.627 38.6274 220 32 220ZM32 218C37.5228 218 42 213.523 42 208C42 202.477 37.5228 198 32 198C26.4772 198 22 202.477 22 208C22 213.523 26.4772 218 32 218Z" fill="#C2D1D9"/>
<mask id="mask4_325_15541" style="mask-type:luminance" maskUnits="userSpaceOnUse" x="20" y="196" width="24" height="24">
<path fill-rule="evenodd" clip-rule="evenodd" d="M32 220C25.3726 220 20 214.627 20 208C20 201.373 25.3726 196 32 196C38.6274 196 44 201.373 44 208C44 214.627 38.6274 220 32 220ZM32 218C37.5228 218 42 213.523 42 208C42 202.477 37.5228 198 32 198C26.4772 198 22 202.477 22 208C22 213.523 26.4772 218 32 218Z" fill="white"/>
</mask>
<g mask="url(#mask4_325_15541)">
<rect x="20" y="196" width="24" height="24" fill="black"/>
</g>
<circle cx="32" cy="208" r="7" fill="black"/>
<rect x="0.5" y="0.5" width="173" height="239" rx="4.5" stroke="#9747FF" stroke-dasharray="10 5"/>
</svg>
