<?xml version="1.0" encoding="utf-8"?>
<!-- Generator: Adobe Illustrator 27.7.0, SVG Export Plug-In . SVG Version: 6.00 Build 0)  -->
<svg version="1.1" id="Capa_1" xmlns="http://www.w3.org/2000/svg" xmlns:xlink="http://www.w3.org/1999/xlink" x="0px" y="0px"
	 viewBox="0 0 214 382" style="enable-background:new 0 0 214 382;" xml:space="preserve">
<style type="text/css">
	.st0{fill:#FC441E;}
</style>
<g>
	<path class="st0" d="M182.7,32.4c9.9-4,17.8-8.7,23.2-13.9C211.2,13.2,214,7.7,214,2H0c0,5.7,2.8,11.2,8.2,16.5
		c5.4,5.2,13.2,10,23.2,13.9c9.9,4,21.7,7.2,34.7,9.3C79,43.9,93,45,107,45s28-1.1,41-3.3C160.9,39.6,172.7,36.4,182.7,32.4z"/>
	<path class="st0" d="M0,45v23h0.1c0.6,6.6,3.3,13,8,19.1c5.4,6.9,13.2,13.1,23.2,18.3c9.9,5.2,21.7,9.4,34.7,12.2
		C79,120.5,93,122,107,122s28-1.5,41-4.3c13-2.8,24.8-7,34.7-12.2s17.8-11.5,23.2-18.3c4.8-6.1,7.5-12.6,8-19.1h0.1V45H107H0z"/>
	<path class="st0" d="M0,160L0,160c0.1,9.3,2.9,18.6,8.2,27.2c5.4,8.8,13.2,16.8,23.2,23.5c9.9,6.7,21.7,12.1,34.7,15.7
		C79,230.1,93,232,107,232s28-1.9,41-5.5c13-3.6,24.8-9,34.7-15.7c9.9-6.7,17.8-14.7,23.2-23.5c5.3-8.6,8-17.9,8.1-27.2h0v-38H107H0
		V160z"/>
	<path class="st0" d="M0,294L0,294c0.6,10.8,3.3,21.5,8.2,31.5c5.4,11.1,13.2,21.2,23.2,29.7c9.9,8.5,21.7,15.2,34.7,19.8
		c13,4.6,26.9,7,40.9,7s28-2.4,41-7c13-4.6,24.8-11.3,34.7-19.8c9.9-8.5,17.8-18.6,23.2-29.7c4.9-10,7.6-20.7,8.1-31.5h0.1v-62H107
		H0V294z"/>
</g>
</svg>
