<?xml version="1.0" encoding="UTF-8"?>
<svg id="Capa_1" data-name="Capa 1" xmlns="http://www.w3.org/2000/svg" viewBox="0 0 296 210">
  <defs>
    <style>
      .cls-1 {
        fill: #fc441e;
      }
    </style>
  </defs>
  <path class="cls-1" d="M2.5,0c3.61,0,7.19,2.72,10.52,7.99,3.34,5.28,6.37,13.01,8.92,22.76,2.55,9.75,4.58,21.33,5.96,34.06,1.38,12.74,2.09,26.39,2.09,40.18s-.71,27.44-2.09,40.18c-1.38,12.74-3.41,24.31-5.96,34.06-2.55,9.75-5.59,17.49-8.92,22.76-3.34,5.28-6.91,7.99-10.52,7.99V0Z"/>
  <ellipse class="cls-1" cx="247.5" cy="105" rx="48.5" ry="105"/>
  <ellipse class="cls-1" cx="164.5" cy="106" rx="34.5" ry="104"/>
  <ellipse class="cls-1" cx="98" cy="105" rx="32" ry="105"/>
  <ellipse class="cls-1" cx="48" cy="106" rx="18" ry="104"/>
</svg>