<?xml version="1.0" encoding="utf-8"?>
<!-- Generator: Adobe Illustrator 27.2.0, SVG Export Plug-In . SVG Version: 6.00 Build 0)  -->
<svg version="1.1" id="Capa_1" xmlns="http://www.w3.org/2000/svg" xmlns:xlink="http://www.w3.org/1999/xlink" x="0px" y="0px"
	 viewBox="0 0 607 221" style="enable-background:new 0 0 607 221;" xml:space="preserve">
<style type="text/css">
	.st0{fill:#FC441E;}
</style>
<g>
	<path class="st0" d="M577.2,8.4c-8.5,5.6-16.2,13.7-22.7,24s-11.7,22.4-15.2,35.9c-3.5,13.4-5.3,27.8-5.3,42.3s1.8,28.9,5.3,42.3
		c3.5,13.4,8.7,25.6,15.2,35.9s14.2,18.4,22.7,24c8.5,5.5,17.6,8.4,26.8,8.4V0C594.8,0,585.7,2.9,577.2,8.4z"/>
	<path class="st0" d="M496,0L496,0c-11.7,0.1-23.3,2.9-34.1,8.4c-11,5.6-21,13.7-29.4,24c-8.4,10.3-15.1,22.4-19.6,35.9
		c-4.5,13.4-6.9,27.8-6.9,42.3s2.3,28.9,6.9,42.3c4.5,13.4,11.2,25.6,19.6,35.9c8.4,10.3,18.4,18.4,29.4,24
		c10.8,5.5,22.4,8.3,34.1,8.4v0h38V110.5V0H496z"/>
	<path class="st0" d="M345,0L345,0c-14.9,0.1-29.6,3-43.4,8.4c-14.1,5.6-26.9,13.7-37.6,24s-19.3,22.4-25.1,35.9
		c-3.1,7.1-5.4,14.4-6.8,21.9V0h-94v0.2c-16.4,0.7-32.6,3.5-47.9,8.2c-17.7,5.6-33.8,13.7-47.4,24S18.5,54.8,11.1,68.2
		C3.8,81.6,0,96,0,110.5s3.8,28.9,11.1,42.3c7.3,13.4,18.1,25.6,31.7,35.9s29.6,18.4,47.4,24c15.2,4.8,31.4,7.6,47.9,8.2v0.2h94
		v-90.1c1.5,7.5,3.8,14.8,6.8,21.9c5.8,13.4,14.4,25.6,25.1,35.9c10.8,10.3,23.6,18.4,37.6,24c13.8,5.4,28.5,8.3,43.4,8.4v0h61
		V110.5V0H345z"/>
</g>
</svg>
