<?xml version="1.0" encoding="utf-8"?>
<!-- Generator: Adobe Illustrator 27.7.0, SVG Export Plug-In . SVG Version: 6.00 Build 0)  -->
<svg version="1.1" id="Capa_1" xmlns="http://www.w3.org/2000/svg" xmlns:xlink="http://www.w3.org/1999/xlink" x="0px" y="0px"
	 viewBox="0 0 164 118" style="enable-background:new 0 0 164 118;" xml:space="preserve">
<style type="text/css">
	.st0{fill:#FC441E;}
	.st1{fill:#F5F4F2;}
</style>
<g>
	<path class="st0" d="M0.5,59c0-32.6,25.9-59.1,57.9-59.1h105V59c0,32.6-25.9,59.1-57.9,59.1H0.5V59z"/>
	<ellipse transform="matrix(0.8811 -0.473 0.473 0.8811 -17.7273 45.9299)" class="st1" cx="82.5" cy="58.2" rx="88.3" ry="43.9"/>
	<path class="st0" d="M98.2,38.5H66.9c-1.8,0-3.5,0.7-4.8,1.9c-1.3,1.2-2,2.9-2,4.7v17.7c0,1.8,0.7,3.4,2,4.7c1.3,1.3,3,1.9,4.8,1.9
		h13.4v4.4h-9c-0.6,0-1.2,0.2-1.6,0.6c-0.4,0.4-0.7,1-0.7,1.6s0.2,1.1,0.7,1.6c0.4,0.4,1,0.6,1.6,0.6h22.4c0.6,0,1.2-0.2,1.6-0.6
		c0.4-0.4,0.7-1,0.7-1.6s-0.2-1.1-0.7-1.6c-0.4-0.4-1-0.6-1.6-0.6h-9v-4.4h13.4c1.8,0,3.5-0.7,4.8-1.9c1.3-1.2,2-2.9,2-4.7V45.2
		c0-1.8-0.7-3.4-2-4.7C101.7,39.2,100,38.5,98.2,38.5z M100.5,62.8c0,0.6-0.2,1.1-0.7,1.6c-0.4,0.4-1,0.6-1.6,0.6H66.9
		c-0.6,0-1.2-0.2-1.6-0.6c-0.4-0.4-0.7-1-0.7-1.6V45.2c0-0.6,0.2-1.1,0.7-1.6c0.4-0.4,1-0.6,1.6-0.6h31.3c0.6,0,1.2,0.2,1.6,0.6
		s0.7,1,0.7,1.6V62.8z"/>
</g>
</svg>
