<?xml version="1.0" encoding="utf-8"?>
<!-- Generator: Adobe Illustrator 27.7.0, SVG Export Plug-In . SVG Version: 6.00 Build 0)  -->
<svg version="1.1" id="Capa_1" xmlns="http://www.w3.org/2000/svg" xmlns:xlink="http://www.w3.org/1999/xlink" x="0px" y="0px"
	 viewBox="0 0 164 118" style="enable-background:new 0 0 164 118;" xml:space="preserve">
<style type="text/css">
	.st0{fill:#FC441E;}
	.st1{fill:#F5F4F2;}
</style>
<g>
	<path class="st0" d="M0.6,59c0-32.4,26.3-58.7,58.7-58.7h104V59c0,32.4-26.3,58.7-58.7,58.7H0.6V59z"/>
	<ellipse transform="matrix(0.885 -0.4656 0.4656 0.885 -17.6966 44.7915)" class="st1" cx="81.8" cy="58.2" rx="88.7" ry="43.8"/>
	<path class="st0" d="M81.4,38.7c-3.5,0-7,1.5-9.5,4.1c-2.5,2.6-3.9,6.1-3.9,9.8v11.9c0,3.7,1.4,7.2,3.9,9.8
		c2.5,2.6,5.9,4.1,9.5,4.1c3.5,0,7-1.5,9.5-4.1c2.5-2.6,3.9-6.1,3.9-9.8V52.5c0-3.7-1.4-7.2-3.9-9.8C88.4,40.1,85,38.7,81.4,38.7z
		 M71.9,52.5c0-2.3,0.8-4.5,2.2-6.3c1.4-1.8,3.3-3,5.5-3.4v11.7h-7.6C71.9,54.5,71.9,52.5,71.9,52.5z M91,64.3c0,2.6-1,5.1-2.8,7
		s-4.2,2.9-6.8,2.9c-2.5,0-5-1-6.8-2.9c-1.8-1.8-2.8-4.4-2.8-7v-5.9H91L91,64.3L91,64.3z M91,54.5h-7.6V42.8
		c2.2,0.5,4.1,1.7,5.5,3.4c1.4,1.8,2.2,4,2.2,6.3C91,52.5,91,54.5,91,54.5z"/>
</g>
</svg>
