<?xml version="1.0" encoding="utf-8"?>
<!-- Generator: Adobe Illustrator 27.7.0, SVG Export Plug-In . SVG Version: 6.00 Build 0)  -->
<svg version="1.1" id="Capa_1" xmlns="http://www.w3.org/2000/svg" xmlns:xlink="http://www.w3.org/1999/xlink" x="0px" y="0px"
	 viewBox="0 0 66 64" style="enable-background:new 0 0 66 64;" xml:space="preserve">
<style type="text/css">
	.st0{fill:#FC441E;}
	.st1{fill:#F5F4F2;}
</style>
<g>
	<ellipse class="st0" cx="33" cy="32" rx="33" ry="32"/>
	<path class="st1" d="M19,26.5c0-3.7,0-5.5,0.7-6.9c0.6-1.2,1.6-2.2,2.8-2.9c1.4-0.7,3.1-0.7,6.7-0.7h7.7c3.5,0,5.3,0,6.7,0.7
		c1.2,0.6,2.2,1.6,2.8,2.9C47,21,47,22.8,47,26.5v8c0,3.7,0,5.5-0.7,6.9c-0.6,1.2-1.6,2.2-2.8,2.9C42.2,45,40.4,45,36.9,45h-7.7
		c-3.5,0-5.3,0-6.7-0.7c-1.2-0.6-2.2-1.6-2.8-2.9C19,40,19,38.2,19,34.5V26.5z"/>
	<path class="st0" d="M32.6,34.2h-4.3l-0.9,2.9c0,0.1-0.1,0.2-0.2,0.2h-2.2c-0.1,0-0.2-0.1-0.1-0.2l3.8-11.5c0-0.1,0.1-0.3,0.1-0.4
		c0-0.3,0.1-0.5,0.1-0.8c0-0.1,0.1-0.2,0.1-0.1h3c0.1,0,0.1,0,0.2,0.1l4.3,12.8c0,0.1,0,0.2-0.1,0.2h-2.4c-0.1,0-0.2-0.1-0.2-0.1
		L32.6,34.2z M28.9,31.7h3c-0.5-1.7-1-3.4-1.5-5.2C29.9,28.3,29.4,30,28.9,31.7z"/>
	<path class="st0" d="M38.8,26.4c-0.2,0-0.4,0-0.6-0.1c-0.2-0.1-0.3-0.2-0.5-0.3c-0.1-0.2-0.2-0.3-0.3-0.5c-0.1-0.2-0.1-0.4-0.1-0.6
		c0-0.2,0-0.4,0.1-0.6c0.1-0.2,0.2-0.4,0.3-0.5c0.1-0.1,0.3-0.3,0.5-0.3c0.2-0.1,0.4-0.1,0.6-0.1c0.5,0,0.8,0.1,1.1,0.4
		c0.1,0.1,0.2,0.3,0.3,0.5c0.1,0.2,0.1,0.4,0.1,0.6c0,0.2,0,0.4-0.1,0.6s-0.2,0.4-0.3,0.5c-0.1,0.1-0.3,0.3-0.5,0.3
		C39.2,26.3,39,26.4,38.8,26.4z M37.5,37.1v-9.5c0-0.1,0-0.2,0.2-0.2H40c0.1,0,0.2,0.1,0.2,0.2v9.5c0,0.1-0.1,0.2-0.2,0.2h-2.3
		C37.6,37.3,37.5,37.3,37.5,37.1z"/>
</g>
</svg>
