<?xml version="1.0" encoding="utf-8"?>
<!-- Generator: Adobe Illustrator 27.7.0, SVG Export Plug-In . SVG Version: 6.00 Build 0)  -->
<svg version="1.1" id="Capa_1" xmlns="http://www.w3.org/2000/svg" xmlns:xlink="http://www.w3.org/1999/xlink" x="0px" y="0px"
	 viewBox="0 0 66 64" style="enable-background:new 0 0 66 64;" xml:space="preserve">
<style type="text/css">
	.st0{fill:#FC441E;}
	.st1{fill:#F5F4F2;}
</style>
<g>
	<ellipse class="st0" cx="33" cy="32" rx="33" ry="32"/>
	<path class="st1" d="M19,27.5c0-3.7,0-5.5,0.7-6.9c0.6-1.2,1.6-2.2,2.8-2.9c1.4-0.7,3.1-0.7,6.7-0.7h7.7c3.5,0,5.3,0,6.7,0.7
		c1.2,0.6,2.2,1.6,2.8,2.9C47,22,47,23.8,47,27.5v8c0,3.7,0,5.5-0.7,6.9c-0.6,1.2-1.6,2.2-2.8,2.9C42.2,46,40.4,46,36.9,46h-7.7
		c-3.5,0-5.3,0-6.7-0.7c-1.2-0.6-2.2-1.6-2.8-2.9C19,41,19,39.2,19,35.5V27.5z"/>
	<path class="st0" d="M33.6,25.5l-3.5,6.1l3.7,6.5c0.1,0.1,0,0.2-0.1,0.2h-2.7c-0.2,0-0.3,0-0.4-0.1c-0.3-0.5-0.5-1-0.8-1.5
		c-0.3-0.5-0.5-1-0.8-1.6c-0.3-0.5-0.6-1.1-0.8-1.6c-0.3,0.5-0.5,1.1-0.8,1.6c-0.3,0.5-0.5,1.1-0.8,1.6c-0.3,0.5-0.5,1-0.8,1.6
		c-0.1,0.1-0.1,0.1-0.3,0.1h-2.6c-0.1,0-0.1-0.1-0.1-0.2l3.6-6.3l-3.5-6.3c-0.1-0.1,0-0.2,0.1-0.2h2.6c0.1,0,0.2,0,0.3,0.1
		c0.2,0.5,0.5,1.1,0.8,1.6c0.3,0.5,0.6,1.1,0.8,1.6c0.3,0.5,0.6,1,0.8,1.6c0.3-0.5,0.5-1.1,0.8-1.6c0.3-0.5,0.5-1,0.8-1.6
		c0.3-0.5,0.5-1,0.8-1.6c0-0.1,0.1-0.2,0.2-0.2h2.5C33.6,25.3,33.7,25.5,33.6,25.5z"/>
	<path class="st0" d="M39,38.6c-1.7,0-3.4-0.7-4.3-2.2c-0.4-0.8-0.6-1.7-0.6-2.8c0-0.9,0.2-1.8,0.6-2.6c1.1-2,3.3-2.8,5.4-2.6v-3.9
		c0-0.1,0-0.1,0.1-0.1h2.4c0.1,0,0.1,0.1,0.1,0.1v11.8c0,0.5,0,1,0.1,1.5c0,0.1,0,0.2-0.1,0.2C41.6,38.3,40.3,38.6,39,38.6z
		 M40.2,36.1v-5.4c-1.7-0.5-3.4,0.9-3.4,2.7C36.8,35.3,38.4,36.7,40.2,36.1z"/>
</g>
</svg>
