<?xml version="1.0" encoding="utf-8"?>
<!-- Generator: Adobe Illustrator 27.7.0, SVG Export Plug-In . SVG Version: 6.00 Build 0)  -->
<svg version="1.1" id="Capa_1" xmlns="http://www.w3.org/2000/svg" xmlns:xlink="http://www.w3.org/1999/xlink" x="0px" y="0px"
	 viewBox="0 0 64 65" style="enable-background:new 0 0 64 65;" xml:space="preserve">
<style type="text/css">
	.st0{fill:#FC441E;}
	.st1{fill:#F5F4F2;}
</style>
<g>
	<ellipse class="st0" cx="32" cy="32.5" rx="32" ry="32.5"/>
	<path class="st1" d="M32,18c-3.6,0-7,1.3-9.7,3.5c-2.7,2.3-4.5,5.5-5.1,8.9c-0.6,3.5,0.1,7.1,2,10.1c1.8,3,4.7,5.3,8.1,6.4
		c0.8,0.1,1-0.3,1-0.7c0-0.4,0-1.5,0-2.8c-3.8,0.7-4.7-0.9-5-1.7c-0.3-0.8-0.9-1.5-1.5-2.1c-0.5-0.3-1.3-1,0-1
		c0.5,0.1,0.9,0.2,1.3,0.5c0.4,0.3,0.7,0.6,1,1c0.2,0.4,0.5,0.7,0.8,0.9c0.3,0.3,0.7,0.5,1.1,0.6c0.4,0.1,0.8,0.1,1.2,0.1
		c0.4,0,0.8-0.2,1.2-0.4c0.1-0.8,0.4-1.5,1-2c-3.3-0.4-6.8-1.7-6.8-7.3c0-1.5,0.5-2.9,1.5-4c-0.5-1.3-0.4-2.7,0.1-3.9
		c0,0,1.3-0.4,4.1,1.5c2.5-0.7,5-0.7,7.5,0c2.9-1.9,4.1-1.5,4.1-1.5c0.6,1.2,0.6,2.7,0.2,3.9c1,1.1,1.6,2.5,1.5,4
		c0,5.7-3.5,7-6.8,7.3c0.4,0.4,0.6,0.8,0.8,1.3c0.2,0.5,0.2,1,0.2,1.5c0,2,0,3.6,0,4.1c0,0.4,0.3,0.9,1,0.7c3.4-1.1,6.2-3.4,8.1-6.4
		c1.8-3,2.5-6.6,2-10.1c-0.6-3.5-2.4-6.6-5.1-8.9C39,19.3,35.6,18,32,18z"/>
</g>
</svg>
