<?xml version="1.0" encoding="utf-8"?>
<!-- Generator: Adobe Illustrator 27.7.0, SVG Export Plug-In . SVG Version: 6.00 Build 0)  -->
<svg version="1.1" id="Capa_1" xmlns="http://www.w3.org/2000/svg" xmlns:xlink="http://www.w3.org/1999/xlink" x="0px" y="0px"
	 viewBox="0 0 64 64" style="enable-background:new 0 0 64 64;" xml:space="preserve">
<style type="text/css">
	.st0{fill:#FC441E;}
	.st1{fill:#F5F4F2;}
</style>
<g>
	<circle class="st0" cx="32" cy="32" r="32"/>
	<path class="st1" d="M18,28.1c0-3.5,0-5.3,0.7-6.7c0.6-1.2,1.6-2.2,2.8-2.8c1.4-0.7,3.1-0.7,6.7-0.7h7.7c3.5,0,5.3,0,6.7,0.7
		c1.2,0.6,2.2,1.6,2.8,2.8c0.7,1.4,0.7,3.1,0.7,6.7v7.7c0,3.5,0,5.3-0.7,6.7c-0.6,1.2-1.6,2.2-2.8,2.8C41.2,46,39.4,46,35.9,46h-7.7
		c-3.5,0-5.3,0-6.7-0.7c-1.2-0.6-2.2-1.6-2.8-2.8C18,41.2,18,39.4,18,35.9V28.1z"/>
	<path class="st0" d="M29.8,35.6h-4.3l-0.9,2.8c0,0.1-0.1,0.2-0.2,0.2h-2.2c-0.1,0-0.2-0.1-0.1-0.2l3.8-11.1c0-0.1,0.1-0.2,0.1-0.4
		c0-0.3,0.1-0.5,0.1-0.8c0-0.1,0.1-0.1,0.1-0.1h3c0.1,0,0.1,0,0.2,0.1l4.3,12.3c0,0.1,0,0.2-0.1,0.2h-2.4c-0.1,0-0.2,0-0.2-0.1
		L29.8,35.6z M26.1,33.2h3c-0.5-1.7-1-3.3-1.5-5C27.1,29.9,26.6,31.6,26.1,33.2z"/>
	<path class="st0" d="M36.7,34.5c0.2,1.4,1.4,2.1,2.7,2.1c0.8,0,1.6-0.1,2.3-0.4c0.1-0.1,0.1,0,0.1,0.1v1.8c0,0.1,0,0.2-0.1,0.2
		c-0.9,0.4-1.9,0.5-2.8,0.5c-2.8,0-4.8-2-4.8-4.9c0-2.7,1.8-5,4.5-5c2.3-0.1,4,1.8,4,4.1c0,0.4,0,0.9-0.1,1.3c0,0.1-0.1,0.2-0.2,0.2
		C40.4,34.4,38.5,34.5,36.7,34.5z M36.7,32.7c1,0,2.1,0,3.1,0c0.2,0,0.3,0,0.3-0.2c0-0.9-0.8-1.6-1.6-1.5
		C37.4,30.9,36.8,31.8,36.7,32.7z"/>
</g>
</svg>
