<?xml version="1.0" encoding="utf-8"?>
<!-- Generator: Adobe Illustrator 27.7.0, SVG Export Plug-In . SVG Version: 6.00 Build 0)  -->
<svg version="1.1" id="Capa_1" xmlns="http://www.w3.org/2000/svg" xmlns:xlink="http://www.w3.org/1999/xlink" x="0px" y="0px"
	 viewBox="0 0 64 64" style="enable-background:new 0 0 64 64;" xml:space="preserve">
<style type="text/css">
	.st0{fill:#FC441E;}
	.st1{fill-rule:evenodd;clip-rule:evenodd;fill:#F5F4F2;}
	.st2{fill:none;stroke:#FC441E;stroke-width:0.25;}
</style>
<g>
	<circle class="st0" cx="32" cy="32" r="32"/>
	<path class="st1" d="M32,31c0-2.8,2.2-5,5-5s5,2.2,5,5s-2.2,5-5,5S32,33.8,32,31z"/>
	<path class="st1" d="M22,41c0-2.8,2.2-5,5-5h5v5c0,2.8-2.2,5-5,5S22,43.8,22,41z"/>
	<path class="st1" d="M32,16v10h5c2.8,0,5-2.2,5-5s-2.2-5-5-5H32z"/>
	<path class="st1" d="M22,21c0,2.8,2.2,5,5,5h5V16h-5C24.2,16,22,18.2,22,21z"/>
	<path class="st1" d="M22,31c0,2.8,2.2,5,5,5h5V26h-5C24.2,26,22,28.2,22,31z"/>
	<path class="st2" d="M31.9,16.1v9.8H27c-2.7,0-4.9-2.2-4.9-4.9s2.2-4.9,4.9-4.9H31.9z M27,26.1h4.9V31v4.9H27
		c-2.7,0-4.9-2.2-4.9-4.9S24.3,26.1,27,26.1z M32.1,31c0-2.7,2.2-4.9,4.9-4.9s4.9,2.2,4.9,4.9s-2.2,4.9-4.9,4.9S32.1,33.7,32.1,31z
		 M27,36.1h4.9V41c0,2.7-2.2,4.9-4.9,4.9s-4.9-2.2-4.9-4.9S24.3,36.1,27,36.1z M32.1,25.9v-9.8H37c2.7,0,4.9,2.2,4.9,4.9
		s-2.2,4.9-4.9,4.9H32.1z"/>
</g>
</svg>
