<?xml version="1.0" encoding="utf-8"?>
<!-- Generator: Adobe Illustrator 27.7.0, SVG Export Plug-In . SVG Version: 6.00 Build 0)  -->
<svg version="1.1" id="Capa_1" xmlns="http://www.w3.org/2000/svg" xmlns:xlink="http://www.w3.org/1999/xlink" x="0px" y="0px"
	 viewBox="0 0 65 64" style="enable-background:new 0 0 65 64;" xml:space="preserve">
<style type="text/css">
	.st0{fill:#FC441E;}
	.st1{fill:#F5F4F2;}
</style>
<g>
	<ellipse class="st0" cx="32.5" cy="32" rx="32.5" ry="32"/>
	<path class="st1" d="M18,26.5c0-3.7,0-5.5,0.7-6.9c0.6-1.2,1.6-2.2,2.8-2.9c1.4-0.7,3.1-0.7,6.7-0.7h7.7c3.5,0,5.3,0,6.7,0.7
		c1.2,0.6,2.2,1.6,2.8,2.9C46,21,46,22.8,46,26.5v8c0,3.7,0,5.5-0.7,6.9c-0.6,1.2-1.6,2.2-2.8,2.9C41.2,45,39.4,45,35.9,45h-7.7
		c-3.5,0-5.3,0-6.7-0.7c-1.2-0.6-2.2-1.6-2.8-2.9C18,40,18,38.2,18,34.5V26.5z"/>
	<path class="st0" d="M24,37.2V24.5c0-0.1,0-0.1,0.1-0.1c1.2,0,2.4-0.1,3.6-0.1c2,0,4.1,0.7,4.8,2.8c0.2,0.5,0.3,1.1,0.3,1.6
		c0,1.1-0.2,1.9-0.7,2.6c-1.3,1.9-3.6,1.9-5.6,1.9v4c0,0.1-0.1,0.2-0.2,0.2h-2.2C24,37.4,24,37.4,24,37.2z M26.5,26.8v4.2
		c0.8,0.1,1.6,0.1,2.4-0.2c0.9-0.3,1.3-1,1.3-1.9c0-0.8-0.4-1.5-1.1-1.8C28.4,26.6,27.4,26.6,26.5,26.8z"/>
	<path class="st0" d="M40.1,30.1c-0.4-0.2-0.7-0.3-1.1-0.4c-0.5-0.1-2.5-0.5-2.5,0.5c0,0.6,0.9,0.9,1.3,1.1c1.4,0.5,3,1.4,3,3.2
		c0,2.3-2.1,3.2-3.9,3.2c-0.9,0-1.9-0.1-2.8-0.6c-0.1,0-0.1-0.1-0.1-0.2v-2.2c0-0.1,0.1-0.2,0.2-0.1c0.8,0.5,1.8,0.8,2.8,0.8
		c0.4,0,1.3,0,1.3-0.7c0-0.6-1-0.9-1.4-1.1c-0.6-0.2-1.1-0.5-1.7-0.9c-0.7-0.5-1.2-1.4-1.2-2.3c0-2.1,1.9-3.1,3.7-3.1
		c0.8,0,1.7,0.1,2.5,0.4c0.1,0,0.1,0.2,0.1,0.3v2C40.3,30.1,40.2,30.1,40.1,30.1z"/>
</g>
</svg>
