<?xml version="1.0" encoding="utf-8"?>
<!-- Generator: Adobe Illustrator 27.7.0, SVG Export Plug-In . SVG Version: 6.00 Build 0)  -->
<svg version="1.1" id="Capa_1" xmlns="http://www.w3.org/2000/svg" xmlns:xlink="http://www.w3.org/1999/xlink" x="0px" y="0px"
	 viewBox="0 0 65 65" style="enable-background:new 0 0 65 65;" xml:space="preserve">
<style type="text/css">
	.st0{fill:#FC441E;}
	.st1{fill:#F5F4F2;}
</style>
<g>
	<circle class="st0" cx="32.5" cy="32.5" r="32.5"/>
	<path class="st1" d="M38.3,20.1c0-0.8-0.9-0.8-1.4-0.7c0.6-0.5,1.3-0.4,1.5-0.2l5.7,2.8c0.5,0.3,0.9,0.8,0.9,1.4v18.4
		c0,0.6-0.4,1.2-0.9,1.4l-5.4,2.5c-0.4,0.2-1.2,0.6-1.8,0c0.8,0.2,1.3-0.4,1.4-0.8V20.1z"/>
	<path class="st1" d="M36.9,19.3c0.4-0.1,1.3,0,1.3,0.8v6.3L21,39.5c-0.3,0.2-0.7,0.2-1-0.1l-1.8-1.9c-0.3-0.3-0.3-0.8,0-1.1
		L36.9,19.3L36.9,19.3z"/>
	<path class="st1" d="M38.3,38.6L21,25.6c-0.3-0.2-0.7-0.2-1,0.1l-1.8,1.9c-0.3,0.3-0.3,0.8,0,1.1l18.6,17.1
		c0.8,0.2,1.3-0.4,1.4-0.8V38.6z"/>
</g>
</svg>
