<?xml version="1.0" encoding="utf-8"?>
<!-- Generator: Adobe Illustrator 27.7.0, SVG Export Plug-In . SVG Version: 6.00 Build 0)  -->
<svg version="1.1" id="Capa_1" xmlns="http://www.w3.org/2000/svg" xmlns:xlink="http://www.w3.org/1999/xlink" x="0px" y="0px"
	 viewBox="0 0 66 65" style="enable-background:new 0 0 66 65;" xml:space="preserve">
<style type="text/css">
	.st0{fill:#FC441E;}
	.st1{fill:#F5F4F2;}
</style>
<g>
	<ellipse class="st0" cx="33" cy="32.5" rx="33" ry="32.5"/>
	<path class="st1" d="M20,19h28v28H20V19z"/>
	<path class="st0" d="M37,42.3l2.1-1.4c0.2,0.5,1.2,1.7,2.5,1.7c1.3,0,1.9-0.7,1.9-1.2c0-1.3-1.3-1.7-2-1.9c-0.1,0-0.2-0.1-0.2-0.1
		c0,0-0.1,0-0.1-0.1c-0.7-0.3-3.3-1.3-3.3-4.1c0-3.2,3.1-3.5,3.8-3.5c0.5,0,2.6,0.1,3.7,2.1l-2,1.4c-0.4-0.9-1.2-1.2-1.6-1.2
		c-1.1,0-1.3,0.8-1.3,1.2c0,1,1.2,1.5,2.2,1.9c0.3,0.1,0.5,0.2,0.7,0.3c1.1,0.5,2.7,1.4,2.7,4.1c0,1.4-1.1,3.5-4,3.5
		C38.2,45,37.2,42.7,37,42.3z"/>
	<path class="st0" d="M27,42.6l2.1-1.4c0.2,0.5,0.8,1.4,1.8,1.4c0.9,0,1.4-1,1.4-1.4V32H35v9.2c0,1.3-0.7,3.8-3.8,3.8
		C28.4,45,27.2,43.3,27,42.6z"/>
</g>
</svg>
