<?xml version="1.0" encoding="utf-8"?>
<!-- Generator: Adobe Illustrator 27.7.0, SVG Export Plug-In . SVG Version: 6.00 Build 0)  -->
<svg version="1.1" id="Capa_1" xmlns="http://www.w3.org/2000/svg" xmlns:xlink="http://www.w3.org/1999/xlink" x="0px" y="0px"
	 viewBox="0 0 65 64" style="enable-background:new 0 0 65 64;" xml:space="preserve">
<style type="text/css">
	.st0{fill:#FC441E;}
	.st1{fill:#F5F4F2;}
</style>
<g>
	<ellipse class="st0" cx="32.5" cy="32" rx="32.5" ry="32"/>
	<path class="st1" d="M19,28.1c0-3.5,0-5.3,0.7-6.7c0.6-1.2,1.6-2.2,2.8-2.8c1.4-0.7,3.1-0.7,6.7-0.7h7.7c3.5,0,5.3,0,6.7,0.7
		c1.2,0.6,2.2,1.6,2.8,2.8c0.7,1.4,0.7,3.1,0.7,6.7v7.7c0,3.5,0,5.3-0.7,6.7c-0.6,1.2-1.6,2.2-2.8,2.8C42.2,46,40.4,46,36.9,46h-7.7
		c-3.5,0-5.3,0-6.7-0.7c-1.2-0.6-2.2-1.6-2.8-2.8C19,41.2,19,39.4,19,35.9V28.1z"/>
	<path class="st0" d="M28.6,26.2v12.3c0,0.1-0.1,0.2-0.2,0.2h-2.3c-0.1,0-0.2-0.1-0.2-0.2V26.2c0-0.1,0.1-0.2,0.2-0.2h2.3
		C28.5,26,28.6,26.1,28.6,26.2z"/>
	<path class="st0" d="M35.3,38.9c-0.9,0-1.7-0.2-2.5-0.5c-1.7-0.8-2.4-2.5-2.4-4.4c0-1.8,0.9-3.5,2.5-4.4c1.1-0.6,2.3-0.8,3.5-0.7
		v-3.8c0-0.1,0-0.1,0.1-0.1h2.4c0.1,0,0.1,0,0.1,0.1v11.4c0,0.5,0,0.9,0.1,1.4c0,0.1,0,0.2-0.1,0.2c-0.6,0.3-1.2,0.5-1.9,0.6
		C36.5,38.8,35.9,38.8,35.3,38.9z M36.5,36.5v-5.3c-1.7-0.5-3.4,0.8-3.4,2.6C33,35.7,34.7,37,36.5,36.5z"/>
</g>
</svg>
