<?xml version="1.0" encoding="UTF-8"?>
<svg id="Capa_1" data-name="Capa 1" xmlns="http://www.w3.org/2000/svg" viewBox="0 0 298 223">
  <defs>
    <style>
      .cls-1 {
        fill: #fc441e;
      }
    </style>
  </defs>
  <path class="cls-1" d="M3,0c12.74,0,25.35,2.88,37.12,8.49,11.77,5.6,22.46,13.82,31.47,24.17,9.01,10.35,16.15,22.65,21.03,36.17,4.88,13.53,7.38,28.03,7.38,42.67s-2.51,29.14-7.38,42.67c-4.87,13.53-12.02,25.82-21.03,36.17-9.01,10.35-19.7,18.57-31.47,24.17-11.77,5.6-24.38,8.49-37.12,8.49V0Z"/>
  <path class="cls-1" d="M102.5,2c12.93,0,25.74,2.86,37.69,8.41,11.95,5.55,22.81,13.69,31.96,23.95,9.15,10.26,16.4,22.44,21.35,35.85,4.95,13.41,7.5,27.78,7.5,42.29s-2.55,28.88-7.5,42.29c-4.95,13.41-12.21,25.59-21.35,35.85-9.15,10.26-20,18.4-31.96,23.95-11.95,5.55-24.76,8.41-37.69,8.41V2Z"/>
  <path class="cls-1" d="M199,0c13,0,25.87,2.88,37.89,8.49,12.01,5.6,22.93,13.82,32.12,24.17,9.19,10.35,16.49,22.65,21.46,36.17,4.98,13.53,7.54,28.03,7.54,42.67s-2.56,29.14-7.54,42.67c-4.97,13.53-12.27,25.82-21.46,36.17-9.19,10.35-20.11,18.57-32.12,24.17-12.01,5.6-24.88,8.49-37.89,8.49V0Z"/>
</svg>