<?xml version="1.0" encoding="utf-8"?>
<!-- Generator: Adobe Illustrator 27.7.0, SVG Export Plug-In . SVG Version: 6.00 Build 0)  -->
<svg version="1.1" id="Capa_1" xmlns="http://www.w3.org/2000/svg" xmlns:xlink="http://www.w3.org/1999/xlink" x="0px" y="0px"
	 viewBox="0 0 164 118" style="enable-background:new 0 0 164 118;" xml:space="preserve">
<style type="text/css">
	.st0{fill:#FC441E;}
	.st1{fill:#F5F4F2;}
</style>
<g>
	<path class="st0" d="M0.5,59c0-32.2,26.1-58.4,58.4-58.4h104.6V59c0,32.2-26.1,58.4-58.4,58.4H0.5V59z"/>
	
		<ellipse transform="matrix(0.8871 -0.4616 0.4616 0.8871 -17.6375 44.3402)" class="st1" cx="81.8" cy="58.2" rx="88.6" ry="43.6"/>
	<path class="st0" d="M83.3,66.9l-0.3-0.2c-0.1-0.1-0.2-0.1-0.3-0.2l-0.3-0.2c-0.3-0.1-0.6-0.1-0.9,0c-0.3,0.1-0.6,0.3-0.8,0.5
		c-0.2,0.2-0.3,0.4-0.4,0.6c-0.1,0.4-0.2,0.8-0.1,1.1c0.1,0.4,0.3,0.7,0.5,1c0.3,0.3,0.6,0.5,1,0.5s0.8,0,1.1-0.1
		c0.2-0.1,0.4-0.3,0.6-0.4c0.3-0.3,0.4-0.6,0.5-1c0.1-0.4,0-0.8-0.1-1.1C83.6,67.2,83.5,67,83.3,66.9L83.3,66.9z M89.6,38.8H74.4
		c-1.5,0-3,0.6-4,1.7c-1.1,1.1-1.7,2.6-1.7,4.2v27.5c0,1.6,0.6,3.1,1.7,4.2c1.1,1.1,2.5,1.7,4,1.7h15.2c1.5,0,3-0.6,4-1.7
		c1.1-1.1,1.7-2.6,1.7-4.2V44.7c0-1.6-0.6-3.1-1.7-4.2C92.6,39.4,91.1,38.8,89.6,38.8z M91.5,72.2c0,0.5-0.2,1-0.6,1.4
		c-0.4,0.4-0.8,0.6-1.3,0.6H74.4c-0.5,0-1-0.2-1.3-0.6s-0.6-0.9-0.6-1.4V44.7c0-0.5,0.2-1,0.6-1.4c0.4-0.4,0.8-0.6,1.3-0.6h15.2
		c0.5,0,1,0.2,1.3,0.6c0.4,0.4,0.6,0.9,0.6,1.4C91.5,44.7,91.5,72.2,91.5,72.2z"/>
</g>
</svg>
