<svg width="31" height="21" viewBox="0 0 31 21" fill="none" xmlns="http://www.w3.org/2000/svg">
<path d="M0.389865 3.00073C0.286261 2.63182 0.232196 2.24668 0.165502 1.86883C0.0988084 1.49097 -0.0108526 1.06785 0.117583 0.692762C0.196397 0.45763 0.367999 0.288471 0.606186 0.212789C0.652562 0.198381 0.699349 0.191986 0.744769 0.190497C1.04183 0.122049 1.36216 0.283383 1.47739 0.563132C1.57037 0.789769 1.5149 1.03616 1.36485 1.21348C1.40352 1.52095 1.46648 1.82675 1.52272 2.1282C1.52093 2.1251 1.51915 2.12201 1.51915 2.12201C1.52135 2.13311 1.52175 2.14112 1.52711 2.15039C1.52753 2.1584 1.52932 2.16148 1.52974 2.16949C1.53331 2.17567 1.53372 2.18368 1.53235 2.1886L1.53056 2.1855C1.53234 2.18859 1.53413 2.19169 1.53454 2.19969C1.53454 2.19969 1.53632 2.20279 1.53317 2.20461C1.58775 2.47403 1.65179 2.73799 1.73203 3.00084C1.82572 3.27242 1.92709 3.53543 2.04781 3.79552C2.10754 3.91356 2.17496 4.02305 2.24416 4.13562C2.4372 4.41167 2.64915 4.6768 2.86702 4.93027C3.24467 5.3512 3.62097 5.77703 4.02661 6.17356C4.24734 6.38828 4.46079 6.61957 4.6973 6.82518C4.92887 7.02951 5.16539 7.23512 5.39833 7.43454C5.67079 7.64413 5.94505 7.8568 6.22066 8.06456C6.35779 8.1709 6.51206 8.26321 6.65865 8.36408C6.79179 8.45623 6.92986 8.54966 7.06478 8.6449C7.50962 8.91986 7.94911 9.18554 8.40753 9.44029C8.87761 9.70068 9.35317 9.9414 9.83189 10.1803C10.1577 10.322 10.4867 10.4618 10.8125 10.6035C10.9803 10.6756 11.1555 10.7312 11.3261 10.7935C11.4966 10.8557 11.6641 10.9199 11.8347 10.9821C12.3039 11.1317 12.7632 11.2788 13.2393 11.4038C13.7436 11.5413 14.2467 11.6548 14.7579 11.7678C15.3698 11.8804 15.9845 11.9831 16.5987 12.0778C17.1752 12.1654 17.7605 12.2027 18.3426 12.2417C18.7413 12.2547 19.1401 12.2677 19.5394 12.2598C19.9486 12.2544 20.352 12.2317 20.7586 12.2072C21.127 12.1676 21.4955 12.128 21.8581 12.0712C22.2127 12.0149 22.5619 11.9493 22.9174 11.8801C23.7829 11.6813 24.657 11.49 25.4986 11.2061C25.4698 11.2145 25.4441 11.2211 25.4171 11.2325C25.5477 11.1819 25.6765 11.1281 25.8036 11.0712C26.014 10.9621 26.2209 10.8468 26.4256 10.7203C26.7267 10.5424 27.1305 10.6514 27.3 10.9451C27.475 11.2481 27.3618 11.635 27.0575 11.8148C26.5593 12.1107 26.0514 12.3751 25.4927 12.5369C24.817 12.7291 24.14 12.8974 23.4541 13.0502C22.7956 13.1995 22.1278 13.3253 21.4558 13.4001C21.0648 13.4444 20.678 13.474 20.2894 13.5004C19.9314 13.5216 19.5739 13.5219 19.2169 13.5301C19.0869 13.531 18.9566 13.5238 18.8248 13.5215C18.623 13.5144 18.4215 13.5153 18.2193 13.5001C17.8997 13.4785 17.5805 13.4649 17.2619 13.4304C16.5621 13.348 15.8638 13.2606 15.1683 13.1345C13.7688 12.8748 12.3836 12.545 11.0517 12.0525C10.394 11.8098 9.73278 11.5608 9.10556 11.2469C8.79689 11.0912 8.48054 10.944 8.17777 10.7767C7.875 10.6093 7.55959 10.4493 7.26587 10.2684C6.94525 10.0702 6.61242 9.88719 6.30085 9.67546C6.00946 9.4768 5.72121 9.27633 5.42982 9.07767C5.29352 8.98735 5.16586 8.87555 5.03725 8.77666C4.88846 8.66469 4.74283 8.5509 4.59226 8.43584C4.45871 8.33568 4.34051 8.21841 4.21464 8.1097C4.06502 7.98172 3.91678 7.84882 3.76716 7.72084C3.5544 7.5345 3.36152 7.32431 3.15959 7.1276C2.9832 6.95324 2.81448 6.77033 2.63946 6.59106C2.12385 6.04778 1.60919 5.49159 1.18742 4.87765C1.12083 4.78418 1.06056 4.68706 1.00344 4.58812C0.732654 4.09725 0.538544 3.54974 0.389865 3.00073Z" fill="#FC441E"/>
<path d="M1.52603 2.19224L1.52781 2.19533C1.52781 2.19533 1.52781 2.19533 1.5296 2.19842C1.52781 2.19533 1.52782 2.19534 1.52603 2.19224Z" fill="#FC441E"/>
<path d="M1.52562 2.18424L1.5274 2.18733C1.5274 2.18733 1.5274 2.18733 1.52562 2.18424Z" fill="#FC441E"/>
<path d="M1.5204 2.14602C1.51999 2.13802 1.51641 2.13184 1.51778 2.12693C1.51819 2.13494 1.51683 2.13984 1.5204 2.14602Z" fill="#FC441E"/>
<path d="M21.7009 19.4503C21.7167 19.4412 21.7293 19.4339 21.7401 19.4235C22.528 18.8862 23.2501 18.2714 23.9857 17.6654C24.3629 17.3569 24.7491 17.0639 25.133 16.7597C25.5405 16.4379 25.9394 16.1087 26.3397 15.7745C26.5442 15.5822 26.7487 15.3899 26.9501 15.1995C27.0476 15.1061 27.1317 15.0039 27.2207 14.9031C27.3147 14.8035 27.4037 14.7026 27.4976 14.603C27.6613 14.4055 27.8218 14.2098 27.9836 14.0091C28.1319 13.8287 28.2631 13.6334 28.4011 13.4425C28.5659 13.1741 28.7343 12.912 28.8758 12.6324C28.9403 12.4963 28.9966 12.3607 29.0494 12.2189C29.0686 12.1501 29.0892 12.0764 29.1066 12.0046C29.1126 11.964 29.1186 11.9234 29.1246 11.8828C29.1275 11.8441 29.1286 11.8022 29.1265 11.7622C29.1244 11.7222 29.1192 11.684 29.1122 11.6427C29.095 11.5619 29.0747 11.4829 29.0512 11.4058C29.0041 11.2805 28.9556 11.1601 28.899 11.0402C28.8303 10.9067 28.7554 10.7769 28.6723 10.6475C28.6759 10.6537 28.6794 10.6599 28.6844 10.6612C28.5896 10.5263 28.4886 10.395 28.3812 10.2673C28.2796 10.157 28.1686 10.0521 28.0562 9.95206C27.8814 9.80973 27.6977 9.68086 27.5125 9.55691C27.3869 9.48513 27.2627 9.40845 27.1371 9.33667C27.003 9.25744 26.8585 9.19659 26.7203 9.1321L26.7221 9.13519C26.5511 9.0649 26.3751 8.99335 26.201 8.92488C25.9796 8.85481 25.7645 8.78111 25.5422 8.72396C25.2458 8.64776 24.953 8.57774 24.652 8.50827C24.1669 8.39673 23.6822 8.29319 23.1961 8.19457C22.4939 8.06409 21.7911 7.95452 21.0839 7.8517C20.3456 7.74616 19.6092 7.61479 18.8649 7.54984C18.7853 7.55044 18.7071 7.54613 18.6275 7.54674C18.6194 7.54729 18.6144 7.54603 18.6081 7.54967C18.3038 7.63468 17.9691 7.47754 17.8498 7.1836C17.7195 6.86311 17.8853 6.48708 18.2114 6.35239C18.3848 6.28112 18.5795 6.27588 18.7616 6.27793C18.9487 6.28125 19.1393 6.29075 19.324 6.31191C19.6642 6.3546 20.0048 6.4053 20.3436 6.4529C21.0297 6.55556 21.7137 6.64712 22.3984 6.75469C23.0801 6.86409 23.7566 7.00114 24.4304 7.14802C24.779 7.2271 25.1276 7.30617 25.4762 7.38524C25.8247 7.46431 26.1615 7.56668 26.4987 7.67706C26.8292 7.78307 27.1496 7.91548 27.4614 8.06936C27.7814 8.22269 28.0891 8.3913 28.3823 8.59305C28.6082 8.75118 28.8229 8.91168 29.0289 9.09366C29.359 9.38125 29.6259 9.73421 29.8613 10.1054C30.0948 10.4735 30.2777 10.8996 30.3667 11.3306C30.4548 11.7456 30.4049 12.1619 30.2781 12.569C30.1066 13.1173 29.7987 13.6043 29.494 14.0894C29.398 14.2437 29.2819 14.385 29.1774 14.5319C29.0909 14.6519 29.0028 14.7688 28.9096 14.8844C28.6696 15.1755 28.4309 15.4617 28.1757 15.741C28.0695 15.8558 27.9687 15.98 27.8572 16.0856C27.7023 16.2327 27.5457 16.3768 27.3876 16.5257C26.9754 16.9121 26.5305 17.2638 26.0875 17.6185C25.652 17.9647 25.2117 18.3097 24.7763 18.6559C24.3517 18.9917 23.941 19.3442 23.5232 19.6844C23.3251 19.8441 23.1185 19.9964 22.9132 20.1437C22.7269 20.2801 22.5411 20.4246 22.3423 20.5393C22.0411 20.7173 21.6392 20.6114 21.4678 20.3145C21.282 20.0219 21.3966 19.6301 21.7009 19.4503Z" fill="#FC441E"/>
<path d="M26.7292 9.14756L26.7243 9.14629C26.7274 9.14446 26.7274 9.14447 26.7292 9.14756Z" fill="#FC441E"/>
</svg>
