<?xml version="1.0" encoding="utf-8"?>
<!-- Generator: Adobe Illustrator 27.2.0, SVG Export Plug-In . SVG Version: 6.00 Build 0)  -->
<svg version="1.1" id="Capa_1" xmlns="http://www.w3.org/2000/svg" xmlns:xlink="http://www.w3.org/1999/xlink" x="0px" y="0px"
	 viewBox="0 0 266 94.4" style="enable-background:new 0 0 266 94.4;" xml:space="preserve">
<style type="text/css">
	.st0{fill:#FC441E;}
</style>
<path class="st0" d="M115.2,31.9H0v16.4h0c0,6,0.7,12,2.2,17.6c1.5,5.6,3.6,10.7,6.2,15c2.7,4.3,5.8,7.7,9.3,10s7.2,3.5,11,3.5
	c3.8,0,7.5-1.2,11-3.5s6.7-5.7,9.3-10c2.7-4.3,4.8-9.4,6.2-15c1.4-5.6,2.2-11.6,2.2-17.6h0c0,6,0.7,12,2.2,17.6
	c1.4,5.6,3.6,10.7,6.2,15c2.7,4.3,5.8,7.7,9.3,10s7.2,3.5,11,3.5c3.8,0,7.5-1.2,11-3.5c3.5-2.3,6.7-5.7,9.3-10
	c2.7-4.3,4.8-9.4,6.2-15c1.4-5.6,2.2-11.6,2.2-17.6h0.2V31.9z"/>
<rect y="0.4" class="st0" width="266" height="28"/>
<path class="st0" d="M266,31.9c0,8.2-1.8,16.3-5.4,23.9c-3.5,7.6-8.7,14.5-15.3,20.3c-6.6,5.8-14.3,10.4-22.9,13.6
	c-8.6,3.1-17.7,4.8-27,4.8s-18.4-1.6-27-4.8c-8.6-3.1-16.3-7.7-22.9-13.6c-6.6-5.8-11.7-12.7-15.3-20.3c-3.5-7.6-5.4-15.7-5.4-23.9
	h47.6c0,2.7,0.6,5.3,1.7,7.8c1.1,2.5,2.8,4.7,5,6.6c2.1,1.9,4.6,3.4,7.4,4.4c2.8,1,5.8,1.5,8.8,1.5s6-0.5,8.8-1.5s5.3-2.5,7.4-4.4
	c2.1-1.9,3.8-4.1,5-6.6c1.1-2.5,1.7-5.1,1.7-7.8L266,31.9L266,31.9z"/>
</svg>
