<svg width="44" height="44" viewBox="0 0 44 44" fill="none" xmlns="http://www.w3.org/2000/svg">
<circle cx="22" cy="22" r="22" fill="#FC441E"/>
<path fill-rule="evenodd" clip-rule="evenodd" d="M22.35 17.12C21.005 17.0904 19.7047 17.6041 18.7431 18.545C17.7815 19.4859 17.2397 20.7746 17.24 22.12C17.2325 23.1951 17.565 24.2451 18.19 25.12C19.1888 26.4565 19.7447 28.0719 19.78 29.74C19.9396 30.9992 21.0108 31.9431 22.28 31.9431C23.5492 31.9431 24.6204 30.9992 24.78 29.74C24.7293 28.1424 25.2269 26.5756 26.19 25.3C26.8713 24.4459 27.2542 23.3922 27.28 22.3C27.3252 19.5175 25.1314 17.2124 22.35 17.12ZM21.09 29.43C20.7226 29.3698 20.4529 29.0523 20.4529 28.68C20.4529 28.3077 20.7226 27.9902 21.09 27.93H23.39C23.7574 27.9902 24.0271 28.3077 24.0271 28.68C24.0271 29.0523 23.7574 29.3698 23.39 29.43H21.09ZM24.93 21.96C24.9244 22.3704 25.2497 22.7091 25.66 22.72L25.7 22.73C26.1009 22.7246 26.4246 22.4009 26.43 22C26.4487 20.9374 26.0438 19.911 25.3046 19.1474C24.5654 18.3838 23.5527 17.9458 22.49 17.93C22.0758 17.93 21.74 18.2658 21.74 18.68C21.74 19.0942 22.0758 19.43 22.49 19.43C23.8475 19.4886 24.9206 20.6013 24.93 21.96Z" fill="#F5F4F2"/>
<path d="M22.28 16.21C22.692 16.2046 23.0246 15.872 23.03 15.46V12.75C23.03 12.4821 22.8871 12.2345 22.655 12.1005C22.423 11.9665 22.1371 11.9665 21.905 12.1005C21.673 12.2345 21.53 12.4821 21.53 12.75V15.46C21.5354 15.872 21.868 16.2046 22.28 16.21Z" fill="#F5F4F2"/>
<path d="M29.59 14.87C29.2972 14.5775 28.8228 14.5775 28.53 14.87L26.66 16.73C26.4458 16.9445 26.3817 17.2668 26.4977 17.5469C26.6137 17.827 26.8869 18.0097 27.19 18.01C27.3891 18.0109 27.5801 17.9316 27.72 17.79L29.59 15.93C29.8824 15.6372 29.8824 15.1628 29.59 14.87Z" fill="#F5F4F2"/>
<path d="M31.63 21.03H29C28.5858 21.03 28.25 21.3658 28.25 21.78C28.25 22.1942 28.5858 22.53 29 22.53H31.63C32.0442 22.53 32.38 22.1942 32.38 21.78C32.38 21.3658 32.0442 21.03 31.63 21.03Z" fill="#F5F4F2"/>
<path d="M15.38 21.03H12.75C12.3358 21.03 12 21.3658 12 21.78C12 22.1942 12.3358 22.53 12.75 22.53H15.38C15.7942 22.53 16.13 22.1942 16.13 21.78C16.13 21.3658 15.7942 21.03 15.38 21.03Z" fill="#F5F4F2"/>
<path d="M17.79 17.79C17.9329 17.6507 18.0136 17.4596 18.0136 17.26C18.0136 17.0604 17.9329 16.8693 17.79 16.73L15.93 14.87C15.743 14.6693 15.4614 14.5868 15.1957 14.6546C14.93 14.7225 14.7225 14.93 14.6546 15.1957C14.5868 15.4614 14.6693 15.743 14.87 15.93L16.73 17.79C16.8699 17.9316 17.0609 18.0109 17.26 18.01C17.4593 18.0121 17.6508 17.9326 17.79 17.79Z" fill="#F5F4F2"/>
</svg>
