<svg width="44" height="44" viewBox="0 0 44 44" fill="none" xmlns="http://www.w3.org/2000/svg">
<circle cx="22" cy="22" r="22" fill="#FC441E"/>
<path d="M22.1 32.8C21.6 32.8 21 32.6 20.6 32.2C14.1 26.5 14 26.4 14 26.3L13.9 26.2C12.7 25 12 23.3 12 21.6V21.4C12.1 17.8 15 15 18.6 15C19.7 15 21.2 15.6 22.1 16.8C23 15.6 24.6 15 25.7 15C29.3 15 32.1 17.8 32.3 21.4V21.6C32.3 23.4 31.6 25 30.4 26.3L30.3 26.4C30.2 26.5 29.4 27.2 23.7 32.3C23.2 32.6 22.7 32.8 22.1 32.8ZM15.5 26C15.9 26.4 17.9 27.8 21.6 31C21.9 31.3 22.3 31.3 22.6 31C26.4 27.6 28.6 25.7 29.1 25.3L29.2 25.2C30.2 24.2 30.7 22.9 30.7 21.6V21.4C30.6 18.6 28.4 16.5 25.6 16.5C24.9 16.5 23.5 17 23 18.1C22.8 18.5 22.4 18.7 22 18.7C21.6 18.7 21.2 18.5 21 18.1C20.5 17.1 19.2 16.5 18.4 16.5C15.7 16.5 13.4 18.7 13.3 21.4V21.7C13.3 23 13.9 24.3 14.8 25.2L15.5 26Z" fill="#F5F4F2"/>
</svg>
