<svg width="44" height="44" viewBox="0 0 44 44" fill="none" xmlns="http://www.w3.org/2000/svg">
<circle cx="22" cy="22" r="22" fill="#FC441E"/>
<path fill-rule="evenodd" clip-rule="evenodd" d="M12.8264 26.0336L12.0664 31.3136C12.0116 31.7201 12.1352 32.1305 12.4054 32.4391C12.6757 32.7477 13.0662 32.9244 13.4764 32.9236H13.6864L18.9664 32.1636C19.6821 32.0649 20.3459 31.7348 20.8564 31.2236L30.5964 21.4736C32.4913 19.5117 32.4642 16.3931 30.5355 14.4645C28.6069 12.5358 25.4883 12.5087 23.5264 14.4036L13.7664 24.1436C13.2552 24.6541 12.9251 25.3179 12.8264 26.0336ZM19.7464 30.1636C19.4699 30.4292 19.1227 30.6097 18.7464 30.6836L13.5364 31.3736L14.2664 26.2036C14.3403 25.8273 14.5208 25.4801 14.7864 25.2036L24.5364 15.4636C25.1934 14.7891 26.0949 14.4087 27.0364 14.4087C27.9779 14.4087 28.8795 14.7891 29.5364 15.4636C30.1954 16.1186 30.5659 17.0094 30.5659 17.9386C30.5659 18.8677 30.1954 19.7585 29.5364 20.4136L19.7464 30.1636Z" fill="#F5F4F2"/>
<path d="M26.5664 17.3736C26.8619 17.0982 27.3224 17.1063 27.6081 17.3919C27.8937 17.6776 27.9018 18.1381 27.6264 18.4336L23.4164 22.6436C23.1236 22.936 22.6493 22.936 22.3564 22.6436C22.064 22.3507 22.064 21.8764 22.3564 21.5836L26.5664 17.3736Z" fill="#F5F4F2"/>
</svg>
