<svg width="44" height="44" viewBox="0 0 44 44" fill="none" xmlns="http://www.w3.org/2000/svg">
<circle cx="22" cy="22" r="22" fill="#FC441E"/>
<path fill-rule="evenodd" clip-rule="evenodd" d="M24.7936 14.6097L29.3436 19.1597C30.175 19.9947 30.175 21.3447 29.3436 22.1797L26.5536 24.9697C26.395 25.1333 26.2604 25.3185 26.1536 25.5197L24.6136 28.6097C24.3037 29.2231 23.7192 29.6514 23.041 29.7621C22.3628 29.8728 21.6725 29.6527 21.1836 29.1697L18.5136 26.4997L15.2836 29.7297C15.1437 29.8713 14.9526 29.9507 14.7536 29.9497C14.5538 29.9542 14.3614 29.8744 14.2236 29.7297C14.0806 29.5904 14 29.3993 14 29.1997C14 29.0001 14.0806 28.809 14.2236 28.6697L17.4536 25.4397L14.7836 22.7697C14.2963 22.2828 14.0732 21.591 14.1842 20.9111C14.2952 20.2313 14.7267 19.6464 15.3436 19.3397L18.4336 17.7997C18.6348 17.6929 18.82 17.5583 18.9836 17.3997L21.7936 14.6097C22.6284 13.7968 23.9588 13.7968 24.7936 14.6097ZM25.4236 23.8297L28.2036 21.0497C28.4205 20.8476 28.4339 20.5083 28.2336 20.2897L23.6936 15.7497C23.5938 15.6471 23.4567 15.5892 23.3136 15.5892C23.1704 15.5892 23.0334 15.6471 22.9336 15.7497L20.1536 18.5297C19.8614 18.8169 19.5235 19.0535 19.1536 19.2297L16.0636 20.7797C15.9072 20.8523 15.7981 20.999 15.7736 21.1697C15.7411 21.3386 15.7978 21.5124 15.9236 21.6297L22.3236 28.0297C22.4182 28.1337 22.553 28.1919 22.6936 28.1897C22.8987 28.1932 23.0868 28.0757 23.1736 27.8897L24.7236 24.8297C24.8998 24.4598 25.1363 24.1219 25.4236 23.8297Z" fill="#F5F4F2"/>
</svg>
