<svg xmlns="http://www.w3.org/2000/svg" xml:space="preserve" x="0px" y="0px" style="enable-background:new 0 0 214 382" viewBox="0 0 214 382"><path d="M182.7 32.4c9.9-4 17.8-8.7 23.2-13.9C211.2 13.2 214 7.7 214 2H0c0 5.7 2.8 11.2 8.2 16.5 5.4 5.2 13.2 10 23.2 13.9 9.9 4 21.7 7.2 34.7 9.3C79 43.9 93 45 107 45s28-1.1 41-3.3c12.9-2.1 24.7-5.3 34.7-9.3zM0 45v23h.1c.6 6.6 3.3 13 8 19.1 5.4 6.9 13.2 13.1 23.2 18.3 9.9 5.2 21.7 9.4 34.7 12.2 13 2.9 27 4.4 41 4.4s28-1.5 41-4.3 24.8-7 34.7-12.2 17.8-11.5 23.2-18.3c4.8-6.1 7.5-12.6 8-19.1h.1V45H0zm0 115c.1 9.3 2.9 18.6 8.2 27.2 5.4 8.8 13.2 16.8 23.2 23.5 9.9 6.7 21.7 12.1 34.7 15.7C79 230.1 93 232 107 232s28-1.9 41-5.5 24.8-9 34.7-15.7c9.9-6.7 17.8-14.7 23.2-23.5 5.3-8.6 8-17.9 8.1-27.2v-38H0V160zm0 134c.6 10.8 3.3 21.5 8.2 31.5 5.4 11.1 13.2 21.2 23.2 29.7 9.9 8.5 21.7 15.2 34.7 19.8 13 4.6 26.9 7 40.9 7s28-2.4 41-7 24.8-11.3 34.7-19.8c9.9-8.5 17.8-18.6 23.2-29.7 4.9-10 7.6-20.7 8.1-31.5h.1v-62H0v62z" style="fill:#fc441e"/></svg>