<svg xmlns="http://www.w3.org/2000/svg" xml:space="preserve" id="Capa_1" x="0px" y="0px" style="enable-background:new 0 0 265.4 74" version="1.1" viewBox="0 0 265.4 74"><style>.st0{fill:#fc441e}</style><path d="M121.3 10.8c-2.5-3.4-5.6-6.2-8.9-8-3.2-1.8-6.6-2.7-10-2.8h-17v74h17c3.4-.1 6.8-1 10-2.8 3.3-1.9 6.4-4.6 8.9-8 2.6-3.4 4.6-7.5 6-12 1.4-4.5 2.1-9.3 2.1-14.2s-.7-9.7-2.1-14.2c-1.4-4.5-3.4-8.5-6-12z" class="st0"/><path d="M78.6 10.8c-2.1-3.4-4.7-6.2-7.5-8C68.4 1 65.4 0 62.4 0h-15v74h15c3 0 6-1 8.8-2.8 2.8-1.9 5.3-4.6 7.5-8 2.1-3.4 3.8-7.5 5-12 1.2-4.5 1.8-9.3 1.8-14.2s-.6-9.7-1.8-14.2c-1.2-4.5-2.9-8.5-5.1-12z" class="st0"/><path d="M40.6 10.8c-2.1-3.4-4.7-6.2-7.5-8C30.4 1 27.4 0 24.4 0h-10v36.4c0-4.7-.4-9.3-1-13.6-.7-4.5-1.7-8.6-2.9-12S7.7 4.7 6 2.8C4.4 1 2.6 0 .9 0v74c1.8 0 3.5-1 5.2-2.8 1.6-1.9 3.1-4.6 4.4-8 1.3-3.4 2.2-7.5 2.9-12 .7-4.3 1-8.9 1-13.6V74h10c3 0 6-1 8.8-2.8 2.8-1.9 5.3-4.6 7.5-8 2.1-3.4 3.8-7.5 5-12 1.2-4.5 1.8-9.3 1.8-14.2s-.6-9.7-1.8-14.2c-1.2-4.5-2.9-8.5-5.1-12zm221.3 12c-2.3-4.5-5.6-8.6-9.8-12-4.2-3.4-9.1-6.2-14.6-8-4.8-1.6-10-2.6-15.2-2.8h-31v37c0-4.9-1-9.7-2.8-14.2-1.9-4.5-4.7-8.6-8.1-12-3.5-3.4-7.6-6.2-12.2-8C163.8 1 159.1.1 154.3 0h-25v74h25c4.8-.1 9.5-1 13.9-2.8 4.5-1.9 8.7-4.6 12.2-8 3.5-3.4 6.2-7.5 8.1-12 1.9-4.5 2.8-9.3 2.8-14.2v37h31c5.2-.2 10.4-1.1 15.2-2.8 5.5-1.9 10.4-4.6 14.6-8 4.2-3.4 7.5-7.5 9.8-12 2.3-4.5 3.4-9.3 3.4-14.2s-1.1-9.7-3.4-14.2z" class="st0"/></svg>