<svg xmlns="http://www.w3.org/2000/svg" width="172" height="467" fill="none" viewBox="0 0 172 467"><rect width="98" height="43" x="20" y="20" fill="#EE7839" rx="21.5"/><path fill="#FDFDFD" d="m46.035 47-2.114-3.01a9.15 9.15 0 0 1-.616.028h-2.422V47h-1.4v-9.8h3.822c1.269 0 2.268.303 2.996.91.728.607 1.092 1.442 1.092 2.506 0 .756-.187 1.4-.56 1.932-.374.532-.906.92-1.596 1.162L47.56 47h-1.526Zm-2.772-4.172c.886 0 1.563-.191 2.03-.574.466-.383.7-.929.7-1.638 0-.71-.234-1.25-.7-1.624-.467-.383-1.144-.574-2.03-.574h-2.38v4.41h2.38Zm12.902.504c0 .103-.01.238-.028.406h-6.02c.084.653.368 1.18.854 1.582.494.392 1.106.588 1.834.588.886 0 1.6-.299 2.142-.896l.742.868a3.24 3.24 0 0 1-1.26.896 4.31 4.31 0 0 1-1.666.308c-.784 0-1.48-.159-2.086-.476a3.539 3.539 0 0 1-1.414-1.358c-.327-.579-.49-1.232-.49-1.96 0-.719.158-1.367.476-1.946A3.473 3.473 0 0 1 50.579 40a3.784 3.784 0 0 1 1.918-.49c.709 0 1.339.163 1.89.49.56.317.994.765 1.302 1.344.317.579.476 1.241.476 1.988Zm-3.668-2.688c-.644 0-1.186.196-1.624.588-.43.392-.682.905-.756 1.54h4.76c-.075-.625-.332-1.134-.77-1.526-.43-.401-.966-.602-1.61-.602Zm7.662 6.44c-.607 0-1.19-.08-1.75-.238-.56-.168-.999-.378-1.316-.63l.56-1.064c.327.233.723.42 1.19.56.466.14.938.21 1.414.21 1.176 0 1.764-.336 1.764-1.008a.653.653 0 0 0-.238-.532 1.44 1.44 0 0 0-.602-.28 10.58 10.58 0 0 0-1.008-.21 10.21 10.21 0 0 1-1.47-.322 2.26 2.26 0 0 1-.966-.616c-.27-.29-.406-.695-.406-1.218 0-.672.28-1.209.84-1.61.56-.41 1.311-.616 2.254-.616.495 0 .99.06 1.484.182.495.121.9.285 1.218.49l-.574 1.064c-.607-.392-1.32-.588-2.142-.588-.57 0-1.004.093-1.302.28-.299.187-.448.434-.448.742 0 .243.084.434.252.574.168.14.373.243.616.308.252.065.602.14 1.05.224a10.26 10.26 0 0 1 1.442.336c.373.112.69.308.952.588.261.28.392.672.392 1.176 0 .672-.29 1.209-.868 1.61-.57.392-1.349.588-2.338.588Zm11.592-3.752c0 .103-.01.238-.029.406h-6.02c.085.653.37 1.18.855 1.582.494.392 1.105.588 1.834.588.886 0 1.6-.299 2.141-.896l.743.868a3.24 3.24 0 0 1-1.26.896 4.31 4.31 0 0 1-1.666.308c-.785 0-1.48-.159-2.087-.476a3.539 3.539 0 0 1-1.413-1.358c-.327-.579-.49-1.232-.49-1.96 0-.719.158-1.367.476-1.946A3.473 3.473 0 0 1 66.165 40a3.784 3.784 0 0 1 1.917-.49c.71 0 1.34.163 1.89.49.56.317.995.765 1.303 1.344.317.579.475 1.241.475 1.988Zm-3.669-2.688c-.643 0-1.185.196-1.623.588-.43.392-.682.905-.757 1.54h4.76c-.074-.625-.33-1.134-.77-1.526-.429-.401-.965-.602-1.61-.602Zm6.823.182c.233-.43.578-.756 1.036-.98.457-.224 1.012-.336 1.666-.336v1.302a2.632 2.632 0 0 0-.308-.014c-.728 0-1.302.22-1.722.658-.41.43-.616 1.045-.616 1.848V47h-1.344v-7.42h1.288v1.246ZM86.13 39.58 82.882 47H81.51l-3.248-7.42h1.4l2.548 5.95 2.604-5.95h1.316Zm3.724-.07c1.027 0 1.81.252 2.352.756.55.504.826 1.255.826 2.254V47h-1.274v-.98a2.162 2.162 0 0 1-.966.798c-.41.177-.9.266-1.47.266-.83 0-1.498-.2-2.002-.602-.495-.401-.742-.929-.742-1.582s.238-1.176.714-1.568c.476-.401 1.232-.602 2.268-.602h2.128v-.266c0-.579-.168-1.022-.504-1.33-.336-.308-.83-.462-1.484-.462a3.82 3.82 0 0 0-1.288.224 3.22 3.22 0 0 0-1.064.574l-.56-1.008c.383-.308.84-.541 1.372-.7a5.593 5.593 0 0 1 1.694-.252Zm-.308 6.538c.513 0 .957-.112 1.33-.336a2 2 0 0 0 .812-.98v-1.036h-2.072c-1.139 0-1.708.383-1.708 1.148 0 .373.145.667.434.882.29.215.69.322 1.204.322Zm7.261-5.222a2.29 2.29 0 0 1 1.036-.98c.457-.224 1.013-.336 1.666-.336v1.302a2.63 2.63 0 0 0-.308-.014c-.728 0-1.302.22-1.722.658-.41.43-.616 1.045-.616 1.848V47H95.52v-7.42h1.288v1.246Z"/><rect width="98" height="43" x="20" y="398" fill="#E3655D" rx="21.5"/><path fill="#FDFDFD" d="M40.091 425.112c-.98 0-1.866-.215-2.66-.644a4.873 4.873 0 0 1-1.848-1.792c-.448-.765-.672-1.624-.672-2.576s.224-1.806.672-2.562a4.712 4.712 0 0 1 1.862-1.792c.794-.439 1.68-.658 2.66-.658.766 0 1.466.131 2.1.392.635.252 1.176.63 1.624 1.134l-.91.882c-.737-.775-1.656-1.162-2.758-1.162-.728 0-1.386.163-1.974.49a3.589 3.589 0 0 0-1.386 1.358 3.784 3.784 0 0 0-.49 1.918c0 .709.164 1.353.49 1.932a3.624 3.624 0 0 0 1.386 1.344c.588.327 1.246.49 1.974.49 1.092 0 2.012-.392 2.758-1.176l.91.882a4.34 4.34 0 0 1-1.638 1.148 5.471 5.471 0 0 1-2.1.392Zm8.146-7.602c1.026 0 1.81.252 2.352.756.55.504.826 1.255.826 2.254V425H50.14v-.98a2.166 2.166 0 0 1-.966.798c-.41.177-.9.266-1.47.266-.83 0-1.498-.201-2.002-.602-.495-.401-.742-.929-.742-1.582s.238-1.176.714-1.568c.476-.401 1.232-.602 2.268-.602h2.128v-.266c0-.579-.168-1.022-.504-1.33-.336-.308-.83-.462-1.484-.462-.439 0-.868.075-1.288.224a3.21 3.21 0 0 0-1.064.574l-.56-1.008a3.97 3.97 0 0 1 1.372-.7 5.593 5.593 0 0 1 1.694-.252Zm-.308 6.538c.513 0 .956-.112 1.33-.336a2 2 0 0 0 .812-.98v-1.036h-2.072c-1.139 0-1.708.383-1.708 1.148 0 .373.144.667.434.882.29.215.69.322 1.204.322Zm9.935-6.538c.943 0 1.69.275 2.24.826.56.541.84 1.339.84 2.394V425H59.6v-4.116c0-.719-.173-1.26-.518-1.624-.345-.364-.84-.546-1.484-.546-.728 0-1.302.215-1.722.644-.42.42-.63 1.027-.63 1.82V425h-1.344v-7.42h1.288v1.12c.27-.383.635-.677 1.092-.882a3.895 3.895 0 0 1 1.582-.308Zm8.842 7.574c-.756 0-1.432-.163-2.03-.49a3.624 3.624 0 0 1-1.386-1.344c-.336-.579-.504-1.232-.504-1.96s.168-1.377.504-1.946A3.486 3.486 0 0 1 64.676 418c.598-.327 1.274-.49 2.03-.49.672 0 1.27.135 1.792.406.532.271.943.663 1.232 1.176l-1.022.658a2.277 2.277 0 0 0-.868-.798 2.48 2.48 0 0 0-1.148-.266 2.69 2.69 0 0 0-1.316.322 2.348 2.348 0 0 0-.91.924c-.214.392-.322.845-.322 1.358 0 .523.108.985.322 1.386.224.392.528.695.91.91.392.215.83.322 1.316.322.42 0 .803-.089 1.148-.266a2.27 2.27 0 0 0 .868-.798l1.022.644c-.29.513-.7.91-1.232 1.19-.522.271-1.12.406-1.792.406Zm11.36-3.752c0 .103-.008.238-.027.406h-6.02c.084.653.369 1.181.854 1.582.495.392 1.106.588 1.834.588.887 0 1.6-.299 2.142-.896l.742.868a3.237 3.237 0 0 1-1.26.896 4.315 4.315 0 0 1-1.666.308c-.784 0-1.48-.159-2.086-.476a3.539 3.539 0 0 1-1.414-1.358c-.327-.579-.49-1.232-.49-1.96 0-.719.159-1.367.476-1.946A3.47 3.47 0 0 1 72.48 418a3.784 3.784 0 0 1 1.918-.49c.71 0 1.34.163 1.89.49.56.317.994.765 1.302 1.344.317.579.476 1.241.476 1.988Zm-3.667-2.688c-.644 0-1.185.196-1.624.588-.43.392-.681.905-.756 1.54h4.76c-.075-.625-.331-1.134-.77-1.526-.43-.401-.966-.602-1.61-.602Zm5.534-4.032h1.344V425h-1.344v-10.388Zm4.232 10.472a.943.943 0 0 1-.672-.266.95.95 0 0 1-.28-.7c0-.271.094-.495.28-.672a.915.915 0 0 1 .672-.28c.262 0 .481.089.658.266a.928.928 0 0 1 .266.686.95.95 0 0 1-.28.7.878.878 0 0 1-.644.266Zm2.85-10.472h1.344V425h-1.344v-10.388Zm6.612 2.898c1.027 0 1.811.252 2.352.756.551.504.826 1.255.826 2.254V425h-1.274v-.98a2.166 2.166 0 0 1-.966.798c-.41.177-.9.266-1.47.266-.83 0-1.498-.201-2.002-.602-.494-.401-.742-.929-.742-1.582s.238-1.176.714-1.568c.476-.401 1.232-.602 2.268-.602h2.128v-.266c0-.579-.168-1.022-.504-1.33-.336-.308-.83-.462-1.484-.462a3.83 3.83 0 0 0-1.288.224 3.22 3.22 0 0 0-1.064.574l-.56-1.008c.383-.308.84-.541 1.372-.7a5.593 5.593 0 0 1 1.694-.252Zm-.308 6.538c.514 0 .957-.112 1.33-.336.374-.233.644-.56.812-.98v-1.036H93.39c-1.138 0-1.708.383-1.708 1.148 0 .373.145.667.434.882.29.215.691.322 1.204.322Zm7.262-5.222a2.29 2.29 0 0 1 1.036-.98c.457-.224 1.012-.336 1.666-.336v1.302a2.712 2.712 0 0 0-.308-.014c-.728 0-1.302.219-1.722.658-.411.429-.616 1.045-.616 1.848V425h-1.344v-7.42h1.288v1.246Z"/><rect width="98" height="43" x="20" y="146" fill="#35B549" rx="21.5"/><path fill="#FDFDFD" d="M44.722 170.55h-5.208L38.436 173h-1.442l4.438-9.8h1.386l4.452 9.8H45.8l-1.078-2.45Zm-.49-1.12-2.114-4.802-2.114 4.802h4.228Zm7.47 3.654c-.757 0-1.433-.163-2.03-.49a3.624 3.624 0 0 1-1.387-1.344c-.336-.579-.504-1.232-.504-1.96s.168-1.377.504-1.946A3.486 3.486 0 0 1 49.671 166c.598-.327 1.274-.49 2.03-.49.672 0 1.27.135 1.792.406.532.271.943.663 1.232 1.176l-1.022.658a2.279 2.279 0 0 0-.868-.798 2.48 2.48 0 0 0-1.148-.266 2.69 2.69 0 0 0-1.316.322 2.347 2.347 0 0 0-.91.924c-.214.392-.322.845-.322 1.358 0 .523.108.985.322 1.386.224.392.528.695.91.91.392.215.831.322 1.316.322.42 0 .803-.089 1.148-.266a2.27 2.27 0 0 0 .868-.798l1.022.644c-.289.513-.7.91-1.232 1.19-.522.271-1.12.406-1.792.406Zm7.888 0c-.756 0-1.433-.163-2.03-.49a3.624 3.624 0 0 1-1.386-1.344c-.336-.579-.504-1.232-.504-1.96s.168-1.377.504-1.946A3.486 3.486 0 0 1 57.56 166c.597-.327 1.274-.49 2.03-.49.672 0 1.27.135 1.792.406.532.271.943.663 1.232 1.176l-1.022.658a2.277 2.277 0 0 0-.868-.798 2.48 2.48 0 0 0-1.148-.266 2.69 2.69 0 0 0-1.316.322 2.348 2.348 0 0 0-.91.924c-.215.392-.322.845-.322 1.358 0 .523.107.985.322 1.386.224.392.527.695.91.91.392.215.83.322 1.316.322.42 0 .803-.089 1.148-.266.345-.177.635-.443.868-.798l1.022.644c-.29.513-.7.91-1.232 1.19-.523.271-1.12.406-1.792.406Zm11.36-3.752c0 .103-.009.238-.027.406h-6.02c.084.653.368 1.181.854 1.582.494.392 1.106.588 1.834.588.886 0 1.6-.299 2.142-.896l.742.868a3.237 3.237 0 0 1-1.26.896 4.315 4.315 0 0 1-1.666.308c-.784 0-1.48-.159-2.086-.476a3.539 3.539 0 0 1-1.414-1.358c-.327-.579-.49-1.232-.49-1.96 0-.719.158-1.367.476-1.946a3.47 3.47 0 0 1 1.33-1.344c.569-.327 1.208-.49 1.918-.49.709 0 1.339.163 1.89.49.56.317.994.765 1.302 1.344.317.579.476 1.241.476 1.988Zm-3.667-2.688c-.644 0-1.186.196-1.624.588-.43.392-.682.905-.756 1.54h4.76c-.075-.625-.332-1.134-.77-1.526-.43-.401-.966-.602-1.61-.602Zm9.468-1.134c.719 0 1.363.159 1.932.476a3.37 3.37 0 0 1 1.33 1.33c.327.569.49 1.227.49 1.974 0 .747-.163 1.409-.49 1.988a3.376 3.376 0 0 1-1.33 1.33c-.57.317-1.213.476-1.932.476a3.49 3.49 0 0 1-1.47-.308 3.054 3.054 0 0 1-1.12-.896v3.836h-1.344V165.58h1.288v1.176a2.792 2.792 0 0 1 1.134-.924 3.509 3.509 0 0 1 1.512-.322Zm-.112 6.398c.476 0 .9-.107 1.274-.322a2.37 2.37 0 0 0 .896-.924c.224-.401.336-.859.336-1.372 0-.513-.112-.966-.336-1.358a2.255 2.255 0 0 0-.896-.924 2.506 2.506 0 0 0-1.274-.322c-.467 0-.891.112-1.274.336a2.4 2.4 0 0 0-.896.91c-.215.392-.322.845-.322 1.358 0 .513.107.971.322 1.372.215.392.513.7.896.924.383.215.807.322 1.274.322Zm9.893.658a2.083 2.083 0 0 1-.728.392 3.2 3.2 0 0 1-.896.126c-.747 0-1.325-.201-1.736-.602-.41-.401-.616-.975-.616-1.722v-4.074h-1.26v-1.106h1.26v-1.624H83.9v1.624h2.128v1.106H83.9v4.018c0 .401.098.709.294.924.205.215.495.322.868.322.41 0 .76-.117 1.05-.35l.42.966Zm4.327-7.056c1.026 0 1.81.252 2.352.756.55.504.826 1.255.826 2.254V173h-1.274v-.98a2.166 2.166 0 0 1-.966.798c-.41.177-.9.266-1.47.266-.83 0-1.498-.201-2.002-.602-.495-.401-.742-.929-.742-1.582s.238-1.176.714-1.568c.476-.401 1.232-.602 2.268-.602h2.128v-.266c0-.579-.168-1.022-.504-1.33-.336-.308-.83-.462-1.484-.462-.439 0-.868.075-1.288.224a3.21 3.21 0 0 0-1.064.574l-.56-1.008a3.97 3.97 0 0 1 1.372-.7 5.593 5.593 0 0 1 1.694-.252Zm-.308 6.538c.513 0 .956-.112 1.33-.336a2 2 0 0 0 .812-.98v-1.036H90.62c-1.139 0-1.708.383-1.708 1.148 0 .373.145.667.434.882.29.215.69.322 1.204.322Zm7.261-5.222a2.295 2.295 0 0 1 1.036-.98c.457-.224 1.013-.336 1.666-.336v1.302a2.7 2.7 0 0 0-.308-.014c-.728 0-1.302.219-1.722.658-.41.429-.616 1.045-.616 1.848V173h-1.344v-7.42h1.288v1.246Z"/><rect width="59" height="43" x="20" y="335" fill="#35B549" rx="21.5"/><path fill="#FDFDFD" d="M47.523 362.112a6.9 6.9 0 0 1-2.142-.336c-.681-.233-1.218-.532-1.61-.896l.518-1.092c.373.336.85.611 1.428.826a5.45 5.45 0 0 0 1.806.308c.812 0 1.419-.135 1.82-.406.401-.28.602-.649.602-1.106 0-.336-.112-.607-.336-.812a2.078 2.078 0 0 0-.812-.49c-.317-.112-.77-.238-1.358-.378a14.462 14.462 0 0 1-1.792-.532 3.049 3.049 0 0 1-1.162-.812c-.317-.373-.476-.873-.476-1.498 0-.523.135-.994.406-1.414.28-.42.7-.756 1.26-1.008s1.255-.378 2.086-.378c.579 0 1.148.075 1.708.224.56.149 1.04.364 1.442.644l-.462 1.12a4.92 4.92 0 0 0-1.316-.588 4.76 4.76 0 0 0-1.372-.21c-.793 0-1.39.145-1.792.434-.392.289-.588.663-.588 1.12 0 .336.112.611.336.826.224.205.5.369.826.49.336.112.789.233 1.358.364.737.177 1.33.355 1.778.532.448.177.83.448 1.148.812.327.364.49.854.49 1.47 0 .513-.14.985-.42 1.414-.28.42-.705.756-1.274 1.008-.57.243-1.27.364-2.1.364Zm5.643-7.532h1.344V362h-1.344v-7.42Zm.672-1.428a.92.92 0 0 1-.658-.252.837.837 0 0 1-.252-.616c0-.243.084-.448.252-.616a.895.895 0 0 1 .658-.266c.262 0 .476.084.644.252a.773.773 0 0 1 .266.602.876.876 0 0 1-.266.644.872.872 0 0 1-.644.252Z"/><rect width="59" height="43" x="93" y="335" fill="#E3655D" rx="21.5"/><path fill="#FDFDFD" d="M122.274 352.2v9.8h-1.148l-5.88-7.308V362h-1.4v-9.8h1.148l5.88 7.308V352.2h1.4Zm5.915 9.884c-.737 0-1.4-.163-1.988-.49a3.624 3.624 0 0 1-1.386-1.344c-.327-.579-.49-1.232-.49-1.96s.163-1.377.49-1.946a3.486 3.486 0 0 1 1.386-1.344c.588-.327 1.251-.49 1.988-.49.737 0 1.395.163 1.974.49a3.394 3.394 0 0 1 1.372 1.344c.336.569.504 1.218.504 1.946s-.168 1.381-.504 1.96a3.525 3.525 0 0 1-1.372 1.344c-.579.327-1.237.49-1.974.49Zm0-1.176c.476 0 .901-.107 1.274-.322.383-.224.681-.532.896-.924a2.86 2.86 0 0 0 .322-1.372c0-.513-.107-.966-.322-1.358a2.255 2.255 0 0 0-.896-.924 2.505 2.505 0 0 0-1.274-.322c-.476 0-.905.107-1.288.322a2.379 2.379 0 0 0-.896.924c-.215.392-.322.845-.322 1.358 0 .513.107.971.322 1.372.224.392.523.7.896.924.383.215.812.322 1.288.322Z"/><rect width="98" height="43" x="20" y="209" fill="#35B549" rx="21.5"/><path fill="#FDFDFD" d="M55.229 233.55H50.02L48.943 236H47.5l4.438-9.8h1.386l4.452 9.8h-1.47l-1.078-2.45Zm-.49-1.12-2.114-4.802-2.114 4.802h4.228Zm7.02-5.796c-.803 0-1.204.434-1.204 1.302v.644h2.156v1.106h-2.128V236h-1.344v-6.314h-1.26v-1.106h1.26v-.658c0-.737.214-1.321.644-1.75.429-.429 1.03-.644 1.806-.644.298 0 .578.037.84.112.26.075.485.182.672.322l-.406 1.022a1.675 1.675 0 0 0-1.036-.35Zm8.816 5.698c0 .103-.01.238-.028.406h-6.02c.084.653.368 1.181.854 1.582.494.392 1.106.588 1.834.588.886 0 1.6-.299 2.142-.896l.742.868a3.237 3.237 0 0 1-1.26.896 4.314 4.314 0 0 1-1.666.308c-.784 0-1.48-.159-2.086-.476a3.54 3.54 0 0 1-1.414-1.358c-.327-.579-.49-1.232-.49-1.96 0-.719.158-1.367.476-1.946a3.47 3.47 0 0 1 1.33-1.344 3.781 3.781 0 0 1 1.918-.49c.71 0 1.34.163 1.89.49.56.317.994.765 1.302 1.344.317.579.476 1.241.476 1.988Zm-3.668-2.688c-.644 0-1.186.196-1.624.588-.43.392-.682.905-.756 1.54h4.76c-.075-.625-.332-1.134-.77-1.526-.43-.401-.966-.602-1.61-.602Zm12.632-1.064v6.412c0 1.297-.322 2.254-.966 2.87-.644.625-1.605.938-2.884.938-.7 0-1.367-.098-2.002-.294-.635-.187-1.148-.457-1.54-.812l.644-1.036c.345.299.77.532 1.274.7a4.82 4.82 0 0 0 1.582.266c.868 0 1.507-.205 1.918-.616.42-.411.63-1.036.63-1.876v-.588c-.317.383-.71.672-1.176.868a3.92 3.92 0 0 1-1.498.28c-.71 0-1.353-.149-1.932-.448a3.465 3.465 0 0 1-1.344-1.274c-.327-.551-.49-1.176-.49-1.876s.163-1.321.49-1.862a3.334 3.334 0 0 1 1.344-1.274 4.145 4.145 0 0 1 1.932-.448c.56 0 1.078.103 1.554.308a2.89 2.89 0 0 1 1.19.91v-1.148h1.274Zm-3.864 5.936c.485 0 .92-.103 1.302-.308.392-.205.695-.49.91-.854a2.4 2.4 0 0 0 .336-1.26c0-.719-.238-1.297-.714-1.736-.476-.448-1.087-.672-1.834-.672-.756 0-1.372.224-1.848.672-.476.439-.714 1.017-.714 1.736 0 .467.107.887.322 1.26.224.364.527.649.91.854.392.205.835.308 1.33.308Zm6.432-5.936h1.344V236h-1.344v-7.42Zm.672-1.428a.92.92 0 0 1-.658-.252.837.837 0 0 1-.252-.616c0-.243.084-.448.252-.616a.895.895 0 0 1 .658-.266c.261 0 .476.084.644.252a.773.773 0 0 1 .266.602.877.877 0 0 1-.266.644.872.872 0 0 1-.644.252Zm4.526 2.674a2.294 2.294 0 0 1 1.036-.98c.458-.224 1.013-.336 1.666-.336v1.302a2.7 2.7 0 0 0-.308-.014c-.728 0-1.302.219-1.722.658-.41.429-.616 1.045-.616 1.848V236h-1.344v-7.42h1.288v1.246Z"/><rect width="98" height="43" x="20" y="272" fill="#35B549" rx="21.5"/><path fill="#FDFDFD" d="M44.768 289.2c1.269 0 2.268.303 2.996.91.728.607 1.092 1.442 1.092 2.506 0 1.064-.364 1.899-1.092 2.506-.728.607-1.727.91-2.996.91h-2.422V299h-1.4v-9.8h3.822Zm-.042 5.614c.886 0 1.563-.187 2.03-.56.466-.383.7-.929.7-1.638 0-.709-.234-1.251-.7-1.624-.467-.383-1.144-.574-2.03-.574h-2.38v4.396h2.38Zm13.043-3.234V299h-1.274v-1.12a2.74 2.74 0 0 1-1.078.896c-.439.205-.92.308-1.442.308-.99 0-1.769-.271-2.338-.812-.57-.551-.854-1.358-.854-2.422v-4.27h1.344v4.116c0 .719.173 1.265.518 1.638.345.364.84.546 1.484.546.71 0 1.27-.215 1.68-.644.41-.429.616-1.036.616-1.82v-3.836h1.344Zm6.493-.07c.718 0 1.362.159 1.932.476a3.382 3.382 0 0 1 1.33 1.33c.326.569.49 1.227.49 1.974 0 .747-.164 1.409-.49 1.988a3.376 3.376 0 0 1-1.33 1.33c-.57.317-1.214.476-1.932.476a3.507 3.507 0 0 1-1.512-.322 2.91 2.91 0 0 1-1.134-.938V299h-1.288v-10.388h1.344v4.088a2.796 2.796 0 0 1 1.12-.882 3.49 3.49 0 0 1 1.47-.308Zm-.112 6.398c.476 0 .9-.107 1.274-.322.382-.224.681-.532.896-.924.224-.401.336-.859.336-1.372 0-.513-.112-.966-.336-1.358a2.255 2.255 0 0 0-.896-.924 2.506 2.506 0 0 0-1.274-.322c-.467 0-.892.107-1.274.322a2.255 2.255 0 0 0-.896.924c-.215.392-.322.845-.322 1.358 0 .513.107.971.322 1.372.214.392.513.7.896.924.382.215.807.322 1.274.322Zm5.72-9.296h1.345V299H69.87v-10.388Zm3.91 2.968h1.345V299H73.78v-7.42Zm.673-1.428a.92.92 0 0 1-.658-.252.837.837 0 0 1-.252-.616c0-.243.084-.448.252-.616a.895.895 0 0 1 .658-.266c.261 0 .476.084.644.252a.773.773 0 0 1 .266.602.876.876 0 0 1-.266.644.872.872 0 0 1-.644.252Zm6.472 8.932c-.756 0-1.433-.163-2.03-.49a3.624 3.624 0 0 1-1.386-1.344c-.336-.579-.504-1.232-.504-1.96s.168-1.377.504-1.946A3.486 3.486 0 0 1 78.895 292c.597-.327 1.274-.49 2.03-.49.672 0 1.27.135 1.792.406.532.271.943.663 1.232 1.176l-1.022.658a2.278 2.278 0 0 0-.868-.798 2.48 2.48 0 0 0-1.148-.266 2.69 2.69 0 0 0-1.316.322 2.347 2.347 0 0 0-.91.924c-.215.392-.322.845-.322 1.358 0 .523.107.985.322 1.386.224.392.527.695.91.91.392.215.83.322 1.316.322.42 0 .803-.089 1.148-.266.345-.177.635-.443.868-.798l1.022.644c-.29.513-.7.91-1.232 1.19-.523.271-1.12.406-1.792.406Zm7.466-7.574c1.027 0 1.81.252 2.352.756.55.504.826 1.255.826 2.254V299h-1.274v-.98a2.166 2.166 0 0 1-.966.798c-.41.177-.9.266-1.47.266-.83 0-1.498-.201-2.002-.602-.495-.401-.742-.929-.742-1.582s.238-1.176.714-1.568c.476-.401 1.232-.602 2.268-.602h2.128v-.266c0-.579-.168-1.022-.504-1.33-.336-.308-.83-.462-1.484-.462-.439 0-.868.075-1.288.224a3.21 3.21 0 0 0-1.064.574l-.56-1.008c.383-.308.84-.541 1.372-.7a5.593 5.593 0 0 1 1.694-.252Zm-.308 6.538c.513 0 .957-.112 1.33-.336a2 2 0 0 0 .812-.98v-1.036h-2.072c-1.139 0-1.708.383-1.708 1.148 0 .373.145.667.434.882.29.215.69.322 1.204.322Zm7.261-5.222a2.295 2.295 0 0 1 1.036-.98c.458-.224 1.013-.336 1.666-.336v1.302a2.698 2.698 0 0 0-.308-.014c-.728 0-1.302.219-1.722.658-.41.429-.616 1.045-.616 1.848V299h-1.344v-7.42h1.288v1.246Z"/><rect width="98" height="43" x="20" y="83" fill="#EE7839" rx="21.5"/><path fill="#FDFDFD" d="M43.173 110.112a6.9 6.9 0 0 1-2.142-.336c-.682-.233-1.218-.532-1.61-.896l.518-1.092c.373.336.849.611 1.428.826a5.45 5.45 0 0 0 1.806.308c.812 0 1.418-.135 1.82-.406.401-.28.602-.649.602-1.106 0-.336-.112-.607-.336-.812a2.079 2.079 0 0 0-.812-.49c-.318-.112-.77-.238-1.358-.378a14.457 14.457 0 0 1-1.792-.532 3.048 3.048 0 0 1-1.162-.812c-.318-.373-.476-.873-.476-1.498 0-.523.135-.994.406-1.414.28-.42.7-.756 1.26-1.008s1.255-.378 2.086-.378a6.62 6.62 0 0 1 1.708.224c.56.149 1.04.364 1.442.644l-.462 1.12a4.92 4.92 0 0 0-1.316-.588 4.76 4.76 0 0 0-1.372-.21c-.794 0-1.391.145-1.792.434-.392.289-.588.663-.588 1.12 0 .336.112.611.336.826.224.205.499.369.826.49.336.112.788.233 1.358.364.737.177 1.33.355 1.778.532.448.177.83.448 1.148.812.326.364.49.854.49 1.47 0 .513-.14.985-.42 1.414-.28.42-.705.756-1.274 1.008-.57.243-1.27.364-2.1.364Zm12.349-3.78c0 .103-.01.238-.028.406h-6.02c.084.653.369 1.181.854 1.582.495.392 1.106.588 1.834.588.887 0 1.6-.299 2.142-.896l.742.868a3.237 3.237 0 0 1-1.26.896 4.315 4.315 0 0 1-1.666.308c-.784 0-1.48-.159-2.086-.476a3.539 3.539 0 0 1-1.414-1.358c-.327-.579-.49-1.232-.49-1.96 0-.719.159-1.367.476-1.946a3.47 3.47 0 0 1 1.33-1.344 3.784 3.784 0 0 1 1.918-.49c.71 0 1.34.163 1.89.49.56.317.994.765 1.302 1.344.317.579.476 1.241.476 1.988Zm-3.668-2.688c-.644 0-1.185.196-1.624.588-.43.392-.681.905-.756 1.54h4.76c-.075-.625-.331-1.134-.77-1.526-.43-.401-.966-.602-1.61-.602Zm12.632-1.064v6.412c0 1.297-.322 2.254-.966 2.87-.644.625-1.605.938-2.884.938-.7 0-1.367-.098-2.002-.294-.634-.187-1.148-.457-1.54-.812l.644-1.036c.346.299.77.532 1.274.7a4.82 4.82 0 0 0 1.582.266c.868 0 1.508-.205 1.918-.616.42-.411.63-1.036.63-1.876v-.588c-.317.383-.71.672-1.176.868a3.92 3.92 0 0 1-1.498.28c-.71 0-1.353-.149-1.932-.448a3.464 3.464 0 0 1-1.344-1.274c-.326-.551-.49-1.176-.49-1.876s.164-1.321.49-1.862a3.332 3.332 0 0 1 1.344-1.274 4.145 4.145 0 0 1 1.932-.448c.56 0 1.078.103 1.554.308a2.89 2.89 0 0 1 1.19.91v-1.148h1.274Zm-3.864 5.936c.486 0 .92-.103 1.302-.308.392-.205.696-.49.91-.854a2.4 2.4 0 0 0 .336-1.26c0-.719-.238-1.297-.714-1.736-.476-.448-1.087-.672-1.834-.672-.756 0-1.372.224-1.848.672-.476.439-.714 1.017-.714 1.736 0 .467.108.887.322 1.26.224.364.528.649.91.854.392.205.836.308 1.33.308Zm13.348-5.936V110h-1.274v-1.12a2.74 2.74 0 0 1-1.078.896c-.438.205-.92.308-1.442.308-.99 0-1.768-.271-2.338-.812-.57-.551-.854-1.358-.854-2.422v-4.27h1.344v4.116c0 .719.173 1.265.518 1.638.346.364.84.546 1.484.546.71 0 1.27-.215 1.68-.644.41-.429.616-1.036.616-1.82v-3.836h1.344Zm-4.788-1.316a.711.711 0 0 1-.504-.196.704.704 0 0 1-.21-.518c0-.205.07-.378.21-.518.14-.14.308-.21.504-.21s.364.07.504.21c.14.14.21.313.21.518 0 .205-.07.378-.21.518a.711.711 0 0 1-.504.196Zm2.604 0a.711.711 0 0 1-.504-.196.704.704 0 0 1-.21-.518c0-.205.07-.378.21-.518.14-.14.308-.21.504-.21s.364.07.504.21c.14.14.21.313.21.518 0 .205-.07.378-.21.518a.711.711 0 0 1-.504.196Zm11.449 5.068c0 .103-.01.238-.028.406h-6.02c.084.653.368 1.181.854 1.582.495.392 1.106.588 1.834.588.886 0 1.6-.299 2.142-.896l.742.868a3.237 3.237 0 0 1-1.26.896 4.315 4.315 0 0 1-1.666.308c-.784 0-1.48-.159-2.086-.476a3.539 3.539 0 0 1-1.414-1.358c-.327-.579-.49-1.232-.49-1.96 0-.719.158-1.367.476-1.946a3.469 3.469 0 0 1 1.33-1.344 3.784 3.784 0 0 1 1.918-.49c.71 0 1.34.163 1.89.49.56.317.994.765 1.302 1.344.317.579.476 1.241.476 1.988Zm-3.668-2.688c-.644 0-1.185.196-1.624.588-.43.392-.681.905-.756 1.54h4.76c-.075-.625-.332-1.134-.77-1.526-.43-.401-.966-.602-1.61-.602Zm9.496-1.134c.943 0 1.69.275 2.24.826.56.541.84 1.339.84 2.394V110H90.8v-4.116c0-.719-.173-1.26-.518-1.624-.345-.364-.84-.546-1.484-.546-.728 0-1.302.215-1.722.644-.42.42-.63 1.027-.63 1.82V110h-1.344v-7.42h1.288v1.12c.27-.383.635-.677 1.092-.882a3.895 3.895 0 0 1 1.582-.308Zm9.74 7.056a2.083 2.083 0 0 1-.729.392 3.196 3.196 0 0 1-.896.126c-.746 0-1.325-.201-1.736-.602-.41-.401-.616-.975-.616-1.722v-4.074h-1.26v-1.106h1.26v-1.624h1.344v1.624h2.128v1.106H96.17v4.018c0 .401.098.709.294.924.206.215.495.322.868.322.411 0 .761-.117 1.05-.35l.42.966Z"/><rect width="171" height="466" x="0.5" y="0.5" stroke="#9747FF" stroke-dasharray="10 5" rx="4.5"/></svg>