<svg xmlns="http://www.w3.org/2000/svg" width="83" height="209" fill="none" viewBox="0 0 83 209"><path fill="#2A2A2A" d="M48.29 20H34.71C26.609 20 20 26.608 20 34.71v13.58C20 56.391 26.608 63 34.71 63h13.58C56.391 63 63 56.392 63 48.29V34.71C63 26.609 56.392 20 48.29 20Zm2.263 23.763h-6.79v6.79a2.27 2.27 0 0 1-2.263 2.263 2.27 2.27 0 0 1-2.263-2.263v-6.79h-6.79a2.27 2.27 0 0 1-2.263-2.263 2.27 2.27 0 0 1 2.263-2.263h6.79v-6.79a2.27 2.27 0 0 1 2.263-2.263 2.27 2.27 0 0 1 2.263 2.263v6.79h6.79a2.27 2.27 0 0 1 2.263 2.263 2.27 2.27 0 0 1-2.263 2.263Z"/><path fill="#EE7839" d="M48.29 83H34.71C26.609 83 20 89.608 20 97.71v13.579C20 119.392 26.608 126 34.71 126h13.58c8.102 0 14.71-6.608 14.71-14.711V97.71C63 89.608 56.392 83 48.29 83Zm2.263 23.763h-6.79v6.79a2.27 2.27 0 0 1-2.263 2.263 2.27 2.27 0 0 1-2.263-2.263v-6.79h-6.79a2.27 2.27 0 0 1-2.263-2.263 2.27 2.27 0 0 1 2.263-2.263h6.79v-6.79a2.27 2.27 0 0 1 2.263-2.263 2.27 2.27 0 0 1 2.263 2.263v6.79h6.79a2.27 2.27 0 0 1 2.263 2.263 2.27 2.27 0 0 1-2.263 2.263Z"/><path fill="#5FA9AE" d="M48.29 146H34.71C26.609 146 20 152.608 20 160.711v13.578C20 182.392 26.608 189 34.71 189h13.58c8.102 0 14.71-6.608 14.71-14.711v-13.578C63 152.608 56.392 146 48.29 146Zm2.263 23.763h-6.79v6.79a2.27 2.27 0 0 1-2.263 2.263 2.27 2.27 0 0 1-2.263-2.263v-6.79h-6.79a2.27 2.27 0 0 1-2.263-2.263 2.27 2.27 0 0 1 2.263-2.263h6.79v-6.79a2.27 2.27 0 0 1 2.263-2.263 2.27 2.27 0 0 1 2.263 2.263v6.79h6.79a2.27 2.27 0 0 1 2.263 2.263 2.27 2.27 0 0 1-2.263 2.263Z"/><rect width="82" height="208" x="0.5" y="0.5" stroke="#9747FF" stroke-dasharray="10 5" rx="4.5"/></svg>