<svg xmlns="http://www.w3.org/2000/svg" width="398" height="540" fill="none" viewBox="0 0 398 540"><rect width="358" height="32" x="20" y="20" fill="#CDE4E6" rx="10"/><path fill="#000" d="M41.456 29.8V41H40.32v-8.96l-4.4 7.536h-.56l-4.4-7.488V41h-1.136V29.8h.976l4.864 8.304L40.48 29.8h.976Zm6.353 2.72c1.099 0 1.942.277 2.528.832.587.544.88 1.355.88 2.432V41H50.13v-1.312c-.256.437-.634.779-1.136 1.024-.49.245-1.077.368-1.76.368-.938 0-1.685-.224-2.24-.672-.554-.448-.832-1.04-.832-1.776 0-.715.256-1.29.768-1.728.523-.437 1.35-.656 2.48-.656h2.672v-.512c0-.725-.202-1.275-.608-1.648-.405-.384-.997-.576-1.776-.576-.533 0-1.045.09-1.536.272-.49.17-.912.41-1.264.72l-.512-.848c.427-.363.939-.64 1.536-.832a5.835 5.835 0 0 1 1.888-.304Zm-.4 7.664c.64 0 1.19-.144 1.648-.432.459-.299.8-.725 1.024-1.28v-1.376h-2.64c-1.44 0-2.16.501-2.16 1.504 0 .49.187.88.56 1.168.374.277.896.416 1.568.416Zm7.982-5.952a2.763 2.763 0 0 1 1.184-1.28c.533-.288 1.19-.432 1.968-.432v1.104l-.272-.016c-.886 0-1.579.272-2.08.816-.502.544-.752 1.307-.752 2.288V41h-1.136v-8.416h1.088v1.648Zm5.209-1.648h1.136V41H60.6v-8.416Zm.576-1.84a.804.804 0 0 1-.592-.24.786.786 0 0 1-.24-.576c0-.213.08-.4.24-.56.16-.16.357-.24.592-.24.234 0 .432.08.592.24.16.15.24.33.24.544 0 .235-.08.432-.24.592a.804.804 0 0 1-.592.24Zm6.665 1.776c1.098 0 1.94.277 2.528.832.586.544.88 1.355.88 2.432V41H70.16v-1.312c-.257.437-.635.779-1.136 1.024-.491.245-1.078.368-1.76.368-.94 0-1.686-.224-2.24-.672-.555-.448-.833-1.04-.833-1.776 0-.715.257-1.29.769-1.728.522-.437 1.349-.656 2.48-.656h2.671v-.512c0-.725-.202-1.275-.608-1.648-.405-.384-.997-.576-1.776-.576-.533 0-1.045.09-1.535.272-.491.17-.912.41-1.264.72l-.513-.848c.427-.363.94-.64 1.537-.832a5.835 5.835 0 0 1 1.888-.304Zm-.4 7.664c.64 0 1.189-.144 1.647-.432.46-.299.8-.725 1.025-1.28v-1.376h-2.64c-1.44 0-2.16.501-2.16 1.504 0 .49.186.88.56 1.168.373.277.895.416 1.567.416ZM86.65 35.4h1.135v4.272a5.47 5.47 0 0 1-1.855 1.056 6.9 6.9 0 0 1-2.257.368c-1.12 0-2.127-.245-3.023-.736a5.45 5.45 0 0 1-2.113-2.032c-.512-.875-.768-1.85-.768-2.928 0-1.077.256-2.048.768-2.912a5.415 5.415 0 0 1 2.112-2.048c.897-.49 1.91-.736 3.04-.736a6.45 6.45 0 0 1 2.353.416 4.6 4.6 0 0 1 1.808 1.2l-.736.752c-.886-.875-2.011-1.312-3.377-1.312-.906 0-1.727.203-2.463.608a4.353 4.353 0 0 0-1.713 1.664c-.416.704-.624 1.493-.624 2.368 0 .875.209 1.664.624 2.368a4.501 4.501 0 0 0 1.712 1.664c.726.405 1.542.608 2.449.608 1.152 0 2.128-.288 2.928-.864V35.4Zm7.686 5.68c-.81 0-1.54-.181-2.192-.544A4.083 4.083 0 0 1 90.61 39c-.374-.65-.56-1.387-.56-2.208 0-.821.186-1.557.56-2.208a3.968 3.968 0 0 1 1.535-1.52c.651-.363 1.382-.544 2.192-.544.811 0 1.542.181 2.192.544.651.363 1.158.87 1.52 1.52.374.65.56 1.387.56 2.208 0 .821-.186 1.557-.56 2.208a3.968 3.968 0 0 1-1.52 1.536c-.65.363-1.38.544-2.192.544Zm0-1.008c.598 0 1.131-.133 1.6-.4.48-.277.854-.667 1.12-1.168.267-.501.4-1.072.4-1.712 0-.64-.133-1.21-.4-1.712a2.778 2.778 0 0 0-1.12-1.152 3.085 3.085 0 0 0-1.6-.416c-.597 0-1.135.139-1.615.416-.47.267-.843.65-1.12 1.152-.267.501-.4 1.072-.4 1.712 0 .64.133 1.21.4 1.712.277.501.65.89 1.12 1.168.48.267 1.018.4 1.615.4Zm10.88-7.552c1.056 0 1.893.31 2.512.928.629.608.944 1.499.944 2.672V41h-1.136v-4.768c0-.875-.219-1.541-.656-2-.438-.459-1.062-.688-1.872-.688-.907 0-1.627.272-2.16.816-.523.533-.784 1.275-.784 2.224V41h-1.136v-8.416h1.088v1.552a3.116 3.116 0 0 1 1.28-1.184c.554-.288 1.194-.432 1.92-.432Zm12.476 7.536V41h-6.848v-.752l5.296-6.704h-5.2v-.96h6.656v.752l-5.296 6.72h5.392Zm5.18-7.536c1.098 0 1.941.277 2.528.832.586.544.88 1.355.88 2.432V41h-1.088v-1.312c-.256.437-.635.779-1.136 1.024-.491.245-1.078.368-1.76.368-.939 0-1.686-.224-2.24-.672-.555-.448-.832-1.04-.832-1.776 0-.715.256-1.29.768-1.728.522-.437 1.349-.656 2.48-.656h2.672v-.512c0-.725-.203-1.275-.608-1.648-.406-.384-.998-.576-1.776-.576a4.39 4.39 0 0 0-1.536.272 3.76 3.76 0 0 0-1.264.72l-.512-.848c.426-.363.938-.64 1.536-.832a5.83 5.83 0 0 1 1.888-.304Zm-.4 7.664c.64 0 1.189-.144 1.648-.432.458-.299.8-.725 1.024-1.28v-1.376h-2.64c-1.44 0-2.16.501-2.16 1.504 0 .49.186.88.56 1.168.373.277.896.416 1.568.416Zm6.893-11.056h1.136V41h-1.136V29.128Zm11.625 8.016h-7.04c.064.875.4 1.584 1.008 2.128.608.533 1.376.8 2.304.8.523 0 1.003-.09 1.44-.272.437-.192.816-.47 1.136-.832l.64.736c-.373.448-.843.79-1.408 1.024a4.677 4.677 0 0 1-1.84.352c-.864 0-1.632-.181-2.304-.544A4.05 4.05 0 0 1 133.374 39c-.373-.65-.56-1.387-.56-2.208 0-.821.176-1.557.528-2.208a3.956 3.956 0 0 1 1.472-1.52c.629-.363 1.333-.544 2.112-.544.779 0 1.477.181 2.096.544a3.84 3.84 0 0 1 1.456 1.52c.352.64.528 1.376.528 2.208l-.016.352Zm-4.064-3.648c-.811 0-1.493.261-2.048.784-.544.512-.853 1.184-.928 2.016h5.968c-.075-.832-.389-1.504-.944-2.016-.544-.523-1.227-.784-2.048-.784Zm12.25 6.56V41h-6.848v-.752l5.296-6.704h-5.2v-.96h6.656v.752l-5.296 6.72h5.392Zm13.688-2.048h-6.24L155.28 41h-1.232l5.12-11.2h1.168l5.12 11.2h-1.248l-1.344-2.992Zm-.432-.96-2.688-6.016-2.688 6.016h5.376Zm5.724-2.816a2.769 2.769 0 0 1 1.184-1.28c.534-.288 1.19-.432 1.968-.432v1.104l-.272-.016c-.885 0-1.578.272-2.08.816-.501.544-.752 1.307-.752 2.288V41h-1.136v-8.416h1.088v1.648Zm9.497-1.712c1.056 0 1.894.31 2.512.928.63.608.944 1.499.944 2.672V41h-1.136v-4.768c0-.875-.218-1.541-.656-2-.437-.459-1.061-.688-1.872-.688-.906 0-1.626.272-2.16.816-.522.533-.784 1.275-.784 2.224V41h-1.136v-8.416h1.088v1.552a3.12 3.12 0 0 1 1.28-1.184c.555-.288 1.195-.432 1.92-.432Zm9.484 0c1.099 0 1.942.277 2.528.832.587.544.88 1.355.88 2.432V41h-1.088v-1.312c-.256.437-.634.779-1.136 1.024-.49.245-1.077.368-1.76.368-.938 0-1.685-.224-2.24-.672-.554-.448-.832-1.04-.832-1.776 0-.715.256-1.29.768-1.728.523-.437 1.35-.656 2.48-.656h2.672v-.512c0-.725-.202-1.275-.608-1.648-.405-.384-.997-.576-1.776-.576a4.4 4.4 0 0 0-1.536.272c-.49.17-.912.41-1.264.72l-.512-.848c.427-.363.939-.64 1.536-.832a5.84 5.84 0 0 1 1.888-.304Zm-.4 7.664c.64 0 1.19-.144 1.648-.432.459-.299.8-.725 1.024-1.28v-1.376h-2.64c-1.44 0-2.16.501-2.16 1.504 0 .49.187.88.56 1.168.374.277.896.416 1.568.416Zm14.478-7.6V41h-1.088v-1.536a3.172 3.172 0 0 1-1.232 1.2c-.523.277-1.12.416-1.792.416-1.099 0-1.968-.304-2.608-.912-.629-.619-.944-1.52-.944-2.704v-4.88h1.136v4.768c0 .885.219 1.557.656 2.016.437.459 1.061.688 1.872.688.885 0 1.584-.267 2.096-.8.512-.544.768-1.296.768-2.256v-4.416h1.136Z"/><path fill="#2A2A2A" d="M353.146 44.646a.5.5 0 0 0 .708.707l9-9a.5.5 0 0 0 0-.707l-9-9a.5.5 0 0 0-.707.707L361.793 36l-8.647 8.646Z"/><rect width="358" height="32" x="20" y="72" fill="#CDE4E6" rx="10"/><path fill="#000" d="M36.48 91.976V93h-7.856v-.816l4.656-4.56c.587-.576.981-1.072 1.184-1.488a2.84 2.84 0 0 0 .32-1.28c0-.661-.23-1.173-.688-1.536-.448-.373-1.093-.56-1.936-.56-1.312 0-2.33.416-3.056 1.248l-.816-.704a4.307 4.307 0 0 1 1.664-1.184c.683-.277 1.45-.416 2.304-.416 1.141 0 2.043.272 2.704.816.672.533 1.008 1.27 1.008 2.208 0 .576-.128 1.13-.384 1.664-.256.533-.741 1.147-1.456 1.84l-3.808 3.744h6.16ZM45.767 81.8v.816L41.08 93h-1.248l4.608-10.176h-5.76v2.096h-1.136V81.8h8.224Zm4.879-2.272h1.04L46.406 94.6h-1.04l5.28-15.072Zm5.462 13.568c-.863 0-1.637-.23-2.32-.688-.671-.459-1.2-1.115-1.583-1.968-.374-.864-.56-1.877-.56-3.04s.186-2.17.56-3.024c.384-.864.912-1.525 1.584-1.984.682-.459 1.456-.688 2.32-.688.863 0 1.631.23 2.303.688.683.459 1.217 1.12 1.6 1.984.385.853.577 1.861.577 3.024s-.192 2.176-.576 3.04c-.384.853-.918 1.51-1.6 1.968-.672.459-1.44.688-2.304.688Zm0-1.056c.651 0 1.222-.181 1.713-.544.5-.363.89-.89 1.168-1.584.277-.693.416-1.53.416-2.512 0-.981-.14-1.819-.416-2.512-.278-.693-.667-1.221-1.168-1.584-.491-.363-1.062-.544-1.712-.544-.651 0-1.227.181-1.729.544-.49.363-.874.89-1.152 1.584-.277.693-.416 1.53-.416 2.512 0 .981.14 1.819.416 2.512.278.693.662 1.221 1.152 1.584a2.872 2.872 0 0 0 1.728.544Zm9.074-5.648c1.622 0 2.8.293 3.536.88.747.576 1.12 1.387 1.12 2.432 0 .65-.154 1.232-.464 1.744-.298.512-.752.917-1.36 1.216-.608.288-1.354.432-2.24.432-.8 0-1.562-.128-2.288-.384-.714-.267-1.29-.619-1.728-1.056l.56-.912c.374.384.864.699 1.472.944a5.418 5.418 0 0 0 1.968.352c.928 0 1.643-.208 2.144-.624.512-.416.768-.97.768-1.664 0-.768-.288-1.35-.864-1.744-.565-.395-1.525-.592-2.88-.592h-2.384l.576-5.616h6.128v1.024h-5.12l-.384 3.568h1.44Zm10.167-6.864h1.04L71.109 94.6h-1.04l5.28-15.072Zm4.9 2.272V93h-1.152V82.824h-2.64V81.8h3.792Zm6.165-.096c1.482 0 2.618.49 3.408 1.472.79.97 1.184 2.347 1.184 4.128 0 1.248-.214 2.304-.64 3.168-.427.864-1.024 1.52-1.792 1.968-.768.437-1.664.656-2.688.656-1.11 0-1.995-.203-2.656-.608l.464-.928c.533.352 1.258.528 2.176.528 1.237 0 2.208-.39 2.912-1.168.704-.79 1.056-1.93 1.056-3.424 0-.277-.016-.581-.048-.912a3.062 3.062 0 0 1-1.328 1.424c-.608.33-1.307.496-2.096.496-.736 0-1.392-.139-1.968-.416a3.218 3.218 0 0 1-1.328-1.168c-.32-.512-.48-1.104-.48-1.776 0-.683.165-1.285.496-1.808a3.23 3.23 0 0 1 1.36-1.2c.586-.288 1.242-.432 1.968-.432Zm.128 5.824c.565 0 1.061-.107 1.488-.32a2.51 2.51 0 0 0 1.024-.88c.245-.373.368-.79.368-1.248 0-.427-.118-.821-.352-1.184-.224-.363-.56-.656-1.008-.88-.448-.224-.982-.336-1.6-.336-.81 0-1.472.224-1.984.672-.502.437-.752 1.024-.752 1.76s.25 1.323.752 1.76c.512.437 1.2.656 2.064.656Zm9.622-5.824c1.482 0 2.618.49 3.408 1.472.789.97 1.184 2.347 1.184 4.128 0 1.248-.214 2.304-.64 3.168-.427.864-1.024 1.52-1.792 1.968-.768.437-1.664.656-2.688.656-1.11 0-1.995-.203-2.656-.608l.464-.928c.533.352 1.258.528 2.176.528 1.237 0 2.208-.39 2.912-1.168.704-.79 1.056-1.93 1.056-3.424 0-.277-.016-.581-.048-.912a3.062 3.062 0 0 1-1.328 1.424c-.608.33-1.307.496-2.096.496-.736 0-1.392-.139-1.968-.416a3.218 3.218 0 0 1-1.328-1.168c-.32-.512-.48-1.104-.48-1.776 0-.683.165-1.285.496-1.808a3.23 3.23 0 0 1 1.36-1.2c.586-.288 1.242-.432 1.968-.432Zm.128 5.824c.565 0 1.061-.107 1.488-.32a2.51 2.51 0 0 0 1.024-.88c.245-.373.368-.79.368-1.248 0-.427-.118-.821-.352-1.184-.224-.363-.56-.656-1.008-.88-.448-.224-.982-.336-1.6-.336-.81 0-1.472.224-1.984.672-.502.437-.752 1.024-.752 1.76s.25 1.323.752 1.76c.512.437 1.2.656 2.064.656Zm13.913-5.728v.816L105.517 93h-1.248l4.608-10.176h-5.76v2.096h-1.136V81.8h8.224Z"/><path fill="#2A2A2A" d="M353.146 96.646a.5.5 0 0 0 .708.707l9-9a.5.5 0 0 0 0-.707l-9-9a.5.5 0 0 0-.707.707L361.793 88l-8.647 8.646Z"/><rect width="358" height="32" x="20" y="124" fill="#CDE4E6" rx="10"/><path fill="#000" d="M40.08 136.52c1.056 0 1.883.304 2.48.912.608.608.912 1.504.912 2.688V145h-1.136v-4.768c0-.875-.213-1.541-.64-2-.416-.459-1.008-.688-1.776-.688-.875 0-1.563.272-2.064.816-.501.533-.752 1.275-.752 2.224V145h-1.136v-4.768c0-.875-.213-1.541-.64-2-.416-.459-1.013-.688-1.792-.688-.864 0-1.552.272-2.064.816-.501.533-.752 1.275-.752 2.224V145h-1.136v-8.416h1.088v1.536a3.034 3.034 0 0 1 1.248-1.184c.533-.277 1.147-.416 1.84-.416.704 0 1.312.149 1.824.448.523.299.912.741 1.168 1.328A3.24 3.24 0 0 1 38.08 137c.587-.32 1.253-.48 2-.48Zm6.585 8.56a.83.83 0 0 1-.608-.256.88.88 0 0 1-.24-.624c0-.245.08-.448.24-.608a.83.83 0 0 1 .608-.256.83.83 0 0 1 .608.256.8.8 0 0 1 .256.608.85.85 0 0 1-.256.624.83.83 0 0 1-.608.256Zm10.836-8.496v7.392c0 1.429-.352 2.485-1.056 3.168-.693.693-1.744 1.04-3.152 1.04-.779 0-1.52-.117-2.224-.352-.693-.224-1.259-.539-1.696-.944l.576-.864c.405.363.896.645 1.472.848.587.203 1.2.304 1.84.304 1.067 0 1.85-.251 2.352-.752.501-.491.752-1.259.752-2.304v-1.072a3.411 3.411 0 0 1-1.392 1.216 4.233 4.233 0 0 1-1.888.416c-.79 0-1.51-.171-2.16-.512a3.985 3.985 0 0 1-1.52-1.456c-.363-.629-.544-1.339-.544-2.128 0-.789.181-1.493.544-2.112a3.866 3.866 0 0 1 1.52-1.44c.64-.341 1.36-.512 2.16-.512.715 0 1.36.144 1.936.432.576.288 1.04.704 1.392 1.248v-1.616h1.088Zm-4.304 7.088a3.51 3.51 0 0 0 1.648-.384c.49-.267.87-.635 1.136-1.104a3.085 3.085 0 0 0 .416-1.6c0-.597-.139-1.125-.416-1.584a2.729 2.729 0 0 0-1.136-1.088c-.48-.267-1.03-.4-1.648-.4a3.51 3.51 0 0 0-1.648.384 2.86 2.86 0 0 0-1.136 1.088c-.267.469-.4 1.003-.4 1.6 0 .597.133 1.131.4 1.6.277.469.656.837 1.136 1.104.49.256 1.04.384 1.648.384Zm10.92 1.408c-.81 0-1.54-.181-2.191-.544A4.079 4.079 0 0 1 60.39 143c-.374-.651-.56-1.387-.56-2.208 0-.821.186-1.557.56-2.208a3.968 3.968 0 0 1 1.536-1.52c.65-.363 1.381-.544 2.192-.544.81 0 1.541.181 2.192.544.65.363 1.157.869 1.52 1.52.373.651.56 1.387.56 2.208 0 .821-.187 1.557-.56 2.208a3.965 3.965 0 0 1-1.52 1.536c-.65.363-1.382.544-2.192.544Zm0-1.008c.598 0 1.131-.133 1.6-.4.48-.277.854-.667 1.12-1.168.267-.501.4-1.072.4-1.712 0-.64-.133-1.211-.4-1.712a2.782 2.782 0 0 0-1.12-1.152 3.089 3.089 0 0 0-1.6-.416c-.597 0-1.135.139-1.615.416a2.91 2.91 0 0 0-1.12 1.152c-.267.501-.4 1.072-.4 1.712 0 .64.133 1.211.4 1.712.277.501.65.891 1.12 1.168.48.267 1.018.4 1.616.4Zm10.88-7.552c1.056 0 1.893.309 2.512.928.63.608.944 1.499.944 2.672V145h-1.136v-4.768c0-.875-.219-1.541-.656-2-.437-.459-1.061-.688-1.872-.688-.907 0-1.627.272-2.16.816-.523.533-.784 1.275-.784 2.224V145h-1.136v-8.416h1.088v1.552a3.12 3.12 0 0 1 1.28-1.184c.555-.288 1.195-.432 1.92-.432Zm12.476 7.536V145h-6.848v-.752l5.296-6.704h-5.2v-.96h6.656v.752l-5.296 6.72h5.392Zm5.18-7.536c1.099 0 1.941.277 2.528.832.587.544.88 1.355.88 2.432V145h-1.088v-1.312c-.256.437-.635.779-1.136 1.024-.49.245-1.077.368-1.76.368-.939 0-1.685-.224-2.24-.672-.555-.448-.832-1.04-.832-1.776 0-.715.256-1.291.768-1.728.523-.437 1.35-.656 2.48-.656h2.672v-.512c0-.725-.203-1.275-.608-1.648-.405-.384-.997-.576-1.776-.576-.533 0-1.045.091-1.536.272a3.78 3.78 0 0 0-1.264.72l-.512-.848c.427-.363.939-.64 1.536-.832a5.827 5.827 0 0 1 1.888-.304Zm-.4 7.664c.64 0 1.19-.144 1.648-.432.459-.299.8-.725 1.024-1.28v-1.376h-2.64c-1.44 0-2.16.501-2.16 1.504 0 .491.187.88.56 1.168.373.277.896.416 1.568.416Zm6.894-11.056h1.136V145h-1.136v-11.872Zm11.624 8.016h-7.04c.064.875.4 1.584 1.008 2.128.608.533 1.376.8 2.304.8.523 0 1.003-.091 1.44-.272a3.221 3.221 0 0 0 1.136-.832l.64.736a3.588 3.588 0 0 1-1.408 1.024 4.668 4.668 0 0 1-1.84.352c-.864 0-1.632-.181-2.304-.544a4.053 4.053 0 0 1-1.552-1.536c-.373-.651-.56-1.387-.56-2.208 0-.821.176-1.557.528-2.208a3.963 3.963 0 0 1 1.472-1.52 4.153 4.153 0 0 1 2.112-.544c.779 0 1.478.181 2.096.544a3.84 3.84 0 0 1 1.456 1.52c.352.64.528 1.376.528 2.208l-.016.352Zm-4.064-3.648c-.81 0-1.493.261-2.048.784-.544.512-.853 1.184-.928 2.016h5.968c-.074-.832-.389-1.504-.944-2.016-.544-.523-1.226-.784-2.048-.784Zm12.251 6.56V145h-6.848v-.752l5.296-6.704h-5.2v-.96h6.656v.752l-5.296 6.72h5.392Zm8.955-10.352c1.43 0 2.704.299 3.824.896a6.408 6.408 0 0 1 2.64 2.496c.63 1.067.944 2.288.944 3.664 0 1.355-.234 2.416-.704 3.184-.469.757-1.12 1.136-1.952 1.136-.522 0-.949-.155-1.28-.464-.32-.309-.496-.736-.528-1.28-.32.555-.757.987-1.312 1.296-.554.299-1.184.448-1.888.448a3.983 3.983 0 0 1-2.032-.528 3.985 3.985 0 0 1-1.424-1.488c-.341-.629-.512-1.339-.512-2.128 0-.789.171-1.493.512-2.112a3.861 3.861 0 0 1 1.424-1.472 3.983 3.983 0 0 1 2.032-.528c.683 0 1.296.149 1.84.448a3.35 3.35 0 0 1 1.328 1.232v-1.616h1.04v6.064c0 .427.091.736.272.928.182.192.422.288.72.288.502 0 .896-.299 1.184-.896.299-.597.448-1.429.448-2.496 0-1.237-.277-2.325-.832-3.264a5.688 5.688 0 0 0-2.336-2.208c-.992-.523-2.128-.784-3.408-.784-1.29 0-2.437.272-3.44.816a5.733 5.733 0 0 0-2.32 2.272c-.554.971-.832 2.08-.832 3.328 0 1.248.272 2.363.816 3.344a5.873 5.873 0 0 0 2.304 2.288c.992.544 2.128.816 3.408.816.502 0 1.024-.059 1.568-.176a5.793 5.793 0 0 0 1.504-.528l.272.784a6.378 6.378 0 0 1-1.6.544 8.306 8.306 0 0 1-1.744.192c-1.45 0-2.736-.309-3.856-.928a6.7 6.7 0 0 1-2.624-2.576c-.618-1.109-.928-2.363-.928-3.76 0-1.408.315-2.656.944-3.744a6.566 6.566 0 0 1 2.64-2.56c1.142-.619 2.438-.928 3.888-.928Zm-.112 10.448c.576 0 1.094-.133 1.552-.4.459-.267.822-.64 1.088-1.12.267-.491.4-1.056.4-1.696 0-.629-.133-1.184-.4-1.664a2.745 2.745 0 0 0-1.088-1.12 3.026 3.026 0 0 0-1.552-.4 3.15 3.15 0 0 0-1.584.4 2.9 2.9 0 0 0-1.088 1.12c-.256.48-.384 1.035-.384 1.664s.128 1.189.384 1.68c.267.48.63.859 1.088 1.136.47.267.998.4 1.584.4Zm17.716-7.568v7.392c0 1.429-.352 2.485-1.056 3.168-.694.693-1.744 1.04-3.152 1.04-.779 0-1.52-.117-2.224-.352-.694-.224-1.259-.539-1.696-.944l.576-.864c.405.363.896.645 1.472.848.586.203 1.2.304 1.84.304 1.066 0 1.85-.251 2.352-.752.501-.491.752-1.259.752-2.304v-1.072a3.411 3.411 0 0 1-1.392 1.216 4.236 4.236 0 0 1-1.888.416c-.79 0-1.51-.171-2.16-.512a3.983 3.983 0 0 1-1.52-1.456c-.363-.629-.544-1.339-.544-2.128 0-.789.181-1.493.544-2.112a3.864 3.864 0 0 1 1.52-1.44c.64-.341 1.36-.512 2.16-.512.714 0 1.36.144 1.936.432.576.288 1.04.704 1.392 1.248v-1.616h1.088Zm-4.304 7.088a3.51 3.51 0 0 0 1.648-.384c.49-.267.869-.635 1.136-1.104a3.088 3.088 0 0 0 .416-1.6c0-.597-.139-1.125-.416-1.584a2.735 2.735 0 0 0-1.136-1.088c-.48-.267-1.03-.4-1.648-.4-.608 0-1.158.128-1.648.384-.48.256-.859.619-1.136 1.088-.267.469-.4 1.003-.4 1.6 0 .597.133 1.131.4 1.6.277.469.656.837 1.136 1.104.49.256 1.04.384 1.648.384Zm17.976-7.152c1.056 0 1.883.304 2.48.912.608.608.912 1.504.912 2.688V145h-1.136v-4.768c0-.875-.213-1.541-.64-2-.416-.459-1.008-.688-1.776-.688-.874 0-1.562.272-2.064.816-.501.533-.752 1.275-.752 2.224V145h-1.136v-4.768c0-.875-.213-1.541-.64-2-.416-.459-1.013-.688-1.792-.688-.864 0-1.552.272-2.064.816-.501.533-.752 1.275-.752 2.224V145h-1.136v-8.416h1.088v1.536a3.038 3.038 0 0 1 1.248-1.184c.534-.277 1.147-.416 1.84-.416.704 0 1.312.149 1.824.448.523.299.912.741 1.168 1.328a3.24 3.24 0 0 1 1.328-1.296c.587-.32 1.254-.48 2-.48Zm9.417 0c1.099 0 1.941.277 2.528.832.587.544.88 1.355.88 2.432V145h-1.088v-1.312c-.256.437-.635.779-1.136 1.024-.491.245-1.077.368-1.76.368-.939 0-1.685-.224-2.24-.672-.555-.448-.832-1.04-.832-1.776 0-.715.256-1.291.768-1.728.523-.437 1.349-.656 2.48-.656h2.672v-.512c0-.725-.203-1.275-.608-1.648-.405-.384-.997-.576-1.776-.576-.533 0-1.045.091-1.536.272a3.77 3.77 0 0 0-1.264.72l-.512-.848c.427-.363.939-.64 1.536-.832a5.827 5.827 0 0 1 1.888-.304Zm-.4 7.664c.64 0 1.189-.144 1.648-.432.459-.299.8-.725 1.024-1.28v-1.376h-2.64c-1.44 0-2.16.501-2.16 1.504 0 .491.187.88.56 1.168.373.277.896.416 1.568.416Zm6.894-7.6h1.136V145H175.1v-8.416Zm.576-1.84a.804.804 0 0 1-.592-.24.786.786 0 0 1-.24-.576c0-.213.08-.4.24-.56.16-.16.357-.24.592-.24.234 0 .432.08.592.24.16.149.24.331.24.544 0 .235-.08.432-.24.592a.805.805 0 0 1-.592.24Zm3.721-1.616h1.136V145h-1.136v-11.872Zm4.408 11.952a.83.83 0 0 1-.608-.256.88.88 0 0 1-.24-.624c0-.245.08-.448.24-.608a.83.83 0 0 1 .608-.256c.235 0 .438.085.608.256.171.16.256.363.256.608a.849.849 0 0 1-.256.624.828.828 0 0 1-.608.256Zm6.533 0c-.832 0-1.579-.181-2.24-.544a3.964 3.964 0 0 1-1.536-1.52c-.374-.661-.56-1.403-.56-2.224 0-.821.186-1.557.56-2.208a3.964 3.964 0 0 1 1.536-1.52c.661-.363 1.408-.544 2.24-.544.725 0 1.37.144 1.936.432a3.166 3.166 0 0 1 1.36 1.232l-.848.576a2.604 2.604 0 0 0-1.056-.928 3.075 3.075 0 0 0-1.392-.32c-.608 0-1.158.139-1.648.416-.48.267-.859.651-1.136 1.152-.267.501-.4 1.072-.4 1.712 0 .651.133 1.227.4 1.728.277.491.656.875 1.136 1.152.49.267 1.04.4 1.648.4a3.2 3.2 0 0 0 1.392-.304 2.604 2.604 0 0 0 1.056-.928l.848.576c-.331.544-.784.96-1.36 1.248-.576.277-1.222.416-1.936.416Zm8.827 0c-.811 0-1.542-.181-2.192-.544a4.074 4.074 0 0 1-1.536-1.536c-.374-.651-.56-1.387-.56-2.208 0-.821.186-1.557.56-2.208a3.964 3.964 0 0 1 1.536-1.52c.65-.363 1.381-.544 2.192-.544.81 0 1.541.181 2.192.544.65.363 1.157.869 1.52 1.52.373.651.56 1.387.56 2.208 0 .821-.187 1.557-.56 2.208a3.97 3.97 0 0 1-1.52 1.536c-.651.363-1.382.544-2.192.544Zm0-1.008c.597 0 1.13-.133 1.6-.4.48-.277.853-.667 1.12-1.168.266-.501.4-1.072.4-1.712 0-.64-.134-1.211-.4-1.712a2.784 2.784 0 0 0-1.12-1.152 3.09 3.09 0 0 0-1.6-.416c-.598 0-1.136.139-1.616.416a2.91 2.91 0 0 0-1.12 1.152c-.267.501-.4 1.072-.4 1.712 0 .64.133 1.211.4 1.712.277.501.65.891 1.12 1.168.48.267 1.018.4 1.616.4Zm17.087-7.552c1.056 0 1.883.304 2.48.912.608.608.912 1.504.912 2.688V145h-1.136v-4.768c0-.875-.213-1.541-.64-2-.416-.459-1.008-.688-1.776-.688-.875 0-1.563.272-2.064.816-.501.533-.752 1.275-.752 2.224V145h-1.136v-4.768c0-.875-.213-1.541-.64-2-.416-.459-1.013-.688-1.792-.688-.864 0-1.552.272-2.064.816-.501.533-.752 1.275-.752 2.224V145h-1.136v-8.416h1.088v1.536a3.038 3.038 0 0 1 1.248-1.184c.533-.277 1.147-.416 1.84-.416.704 0 1.312.149 1.824.448.523.299.912.741 1.168 1.328a3.234 3.234 0 0 1 1.328-1.296c.587-.32 1.253-.48 2-.48Z"/><path fill="#2A2A2A" d="M353.146 148.646a.5.5 0 0 0 .708.707l9-9a.5.5 0 0 0 0-.707l-9-9a.5.5 0 0 0-.707.707l8.646 8.647-8.647 8.646Z"/><rect width="358" height="32" x="20" y="176" fill="#CDE4E6" rx="10"/><path fill="#000" d="m31.84 188.024 1.984 1.12-.368.672-2-1.168v2.272h-.736l.016-2.272-2 1.168-.384-.672 2-1.12-2-1.12.384-.688 2 1.184-.016-2.272h.736v2.272l2-1.184.368.688-1.984 1.12Zm6.484 0 1.984 1.12-.368.672-2-1.168v2.272h-.736l.016-2.272-2 1.168-.384-.672 2-1.12-2-1.12.384-.688 2 1.184-.016-2.272h.736v2.272l2-1.184.368.688-1.984 1.12Zm6.485 0 1.984 1.12-.368.672-2-1.168v2.272h-.736l.016-2.272-2 1.168-.384-.672 2-1.12-2-1.12.384-.688 2 1.184-.016-2.272h.736v2.272l2-1.184.368.688-1.984 1.12Zm6.484 0 1.984 1.12-.368.672-2-1.168v2.272h-.736l.016-2.272-2 1.168-.384-.672 2-1.12-2-1.12.384-.688 2 1.184-.016-2.272h.736v2.272l2-1.184.368.688-1.984 1.12Zm6.485 0 1.983 1.12-.367.672-2-1.168v2.272h-.736l.015-2.272-2 1.168-.384-.672 2-1.12-2-1.12.384-.688 2 1.184-.016-2.272h.737v2.272l2-1.184.367.688-1.983 1.12Zm6.484 0 1.984 1.12-.368.672-2-1.168v2.272h-.736l.016-2.272-2 1.168-.384-.672 2-1.12-2-1.12.384-.688 2 1.184-.016-2.272h.736v2.272l2-1.184.368.688-1.984 1.12Zm6.484 0 1.984 1.12-.368.672-2-1.168v2.272h-.736l.016-2.272-2 1.168-.384-.672 2-1.12-2-1.12.384-.688 2 1.184-.016-2.272h.736v2.272l2-1.184.368.688-1.984 1.12Zm6.485 0 1.984 1.12-.368.672-2-1.168v2.272h-.736l.016-2.272-2 1.168-.384-.672 2-1.12-2-1.12.384-.688 2 1.184-.016-2.272h.736v2.272l2-1.184.368.688-1.984 1.12Z"/><path fill="#2A2A2A" d="M353.146 200.646a.5.5 0 0 0 .708.707l9-9a.5.5 0 0 0 0-.707l-9-9a.5.5 0 0 0-.707.707l8.646 8.647-8.647 8.646Z"/><rect width="358" height="32" x="20" y="228" fill="#CDE4E6" rx="10"/><path fill="#000" d="M34.016 237.8c1.43 0 2.55.341 3.36 1.024s1.216 1.621 1.216 2.816c0 1.195-.405 2.133-1.216 2.816-.81.672-1.93 1.008-3.36 1.008h-3.008V249h-1.184v-11.2h4.192Zm-.032 6.624c1.11 0 1.957-.24 2.544-.72.587-.491.88-1.179.88-2.064 0-.907-.293-1.6-.88-2.08-.587-.491-1.435-.736-2.544-.736h-2.976v5.6h2.976Zm7.797-2.192a2.765 2.765 0 0 1 1.184-1.28c.534-.288 1.19-.432 1.968-.432v1.104l-.272-.016c-.885 0-1.578.272-2.08.816-.501.544-.752 1.307-.752 2.288V249h-1.136v-8.416h1.088v1.648Zm5.21-1.648h1.135V249H46.99v-8.416Zm.575-1.84a.804.804 0 0 1-.592-.24.786.786 0 0 1-.24-.576c0-.213.08-.4.24-.56.16-.16.358-.24.592-.24.235 0 .432.08.592.24.16.149.24.331.24.544 0 .235-.08.432-.24.592a.804.804 0 0 1-.592.24Zm10.793 1.84L54.615 249h-1.168l-3.728-8.416h1.184l3.152 7.168 3.184-7.168h1.12Zm4.294-.064c1.099 0 1.941.277 2.528.832.587.544.88 1.355.88 2.432V249h-1.088v-1.312c-.256.437-.635.779-1.136 1.024-.49.245-1.077.368-1.76.368-.939 0-1.685-.224-2.24-.672-.555-.448-.832-1.04-.832-1.776 0-.715.256-1.291.768-1.728.523-.437 1.35-.656 2.48-.656h2.672v-.512c0-.725-.203-1.275-.608-1.648-.405-.384-.997-.576-1.776-.576-.533 0-1.045.091-1.536.272a3.78 3.78 0 0 0-1.264.72l-.512-.848c.427-.363.939-.64 1.536-.832a5.827 5.827 0 0 1 1.888-.304Zm-.4 7.664c.64 0 1.19-.144 1.648-.432.459-.299.8-.725 1.024-1.28v-1.376h-2.64c-1.44 0-2.16.501-2.16 1.504 0 .491.187.88.56 1.168.373.277.896.416 1.568.416Zm10.413.896c-.832 0-1.579-.181-2.24-.544a3.968 3.968 0 0 1-1.536-1.52c-.374-.661-.56-1.403-.56-2.224 0-.821.186-1.557.56-2.208a3.968 3.968 0 0 1 1.536-1.52c.661-.363 1.408-.544 2.24-.544.725 0 1.37.144 1.936.432a3.16 3.16 0 0 1 1.36 1.232l-.848.576a2.596 2.596 0 0 0-1.056-.928 3.073 3.073 0 0 0-1.392-.32c-.608 0-1.158.139-1.648.416-.48.267-.859.651-1.136 1.152-.267.501-.4 1.072-.4 1.712 0 .651.133 1.227.4 1.728.277.491.656.875 1.136 1.152.49.267 1.04.4 1.648.4a3.2 3.2 0 0 0 1.392-.304 2.596 2.596 0 0 0 1.056-.928l.848.576a3.27 3.27 0 0 1-1.36 1.248c-.576.277-1.222.416-1.936.416Zm5.527-8.496h1.136V249h-1.136v-8.416Zm.576-1.84a.804.804 0 0 1-.592-.24.786.786 0 0 1-.24-.576c0-.213.08-.4.24-.56.16-.16.358-.24.592-.24.235 0 .432.08.592.24.16.149.24.331.24.544 0 .235-.08.432-.24.592a.804.804 0 0 1-.592.24Zm8.153 9.744a2.24 2.24 0 0 1-.8.448c-.31.096-.634.144-.976.144-.79 0-1.397-.213-1.824-.64-.426-.427-.64-1.029-.64-1.808v-5.088h-1.504v-.96h1.504v-1.84h1.136v1.84h2.56v.96h-2.56v5.024c0 .501.123.885.368 1.152.256.256.619.384 1.088.384.235 0 .459-.037.672-.112.224-.075.416-.181.576-.32l.4.816Zm5.012-7.968c1.099 0 1.942.277 2.528.832.587.544.88 1.355.88 2.432V249h-1.088v-1.312c-.256.437-.634.779-1.136 1.024-.49.245-1.077.368-1.76.368-.938 0-1.685-.224-2.24-.672-.554-.448-.832-1.04-.832-1.776 0-.715.256-1.291.768-1.728.523-.437 1.35-.656 2.48-.656h2.672v-.512c0-.725-.202-1.275-.608-1.648-.405-.384-.997-.576-1.776-.576-.533 0-1.045.091-1.536.272a3.78 3.78 0 0 0-1.264.72l-.512-.848a4.43 4.43 0 0 1 1.536-.832 5.827 5.827 0 0 1 1.888-.304Zm-.4 7.664c.64 0 1.19-.144 1.648-.432.459-.299.8-.725 1.024-1.28v-1.376h-2.64c-1.44 0-2.16.501-2.16 1.504 0 .491.187.88.56 1.168.374.277.896.416 1.568.416Zm11.326.304c-.214.192-.48.341-.8.448-.31.096-.635.144-.976.144-.79 0-1.398-.213-1.824-.64-.427-.427-.64-1.029-.64-1.808v-5.088h-1.504v-.96h1.504v-1.84h1.136v1.84h2.56v.96h-2.56v5.024c0 .501.122.885.368 1.152.256.256.618.384 1.088.384.234 0 .458-.037.672-.112.224-.075.416-.181.576-.32l.4.816Z"/><path fill="#2A2A2A" d="M353.146 252.646a.5.5 0 0 0 .708.707l9-9a.5.5 0 0 0 0-.707l-9-9a.5.5 0 0 0-.707.707l8.646 8.647-8.647 8.646Z"/><rect width="358" height="32" x="20" y="280" fill="#CDE4E6" rx="10"/><path fill="#000" d="M39.184 289.8V301h-.976l-7.2-9.088V301h-1.184v-11.2h.976l7.216 9.088V289.8h1.168Zm6.856 11.28c-.811 0-1.542-.181-2.192-.544A4.08 4.08 0 0 1 42.312 299c-.374-.651-.56-1.387-.56-2.208 0-.821.186-1.557.56-2.208a3.97 3.97 0 0 1 1.536-1.52c.65-.363 1.381-.544 2.192-.544.81 0 1.541.181 2.192.544.65.363 1.157.869 1.52 1.52.373.651.56 1.387.56 2.208 0 .821-.187 1.557-.56 2.208a3.963 3.963 0 0 1-1.52 1.536c-.651.363-1.382.544-2.192.544Zm0-1.008c.597 0 1.13-.133 1.6-.4.48-.277.853-.667 1.12-1.168.266-.501.4-1.072.4-1.712 0-.64-.134-1.211-.4-1.712a2.781 2.781 0 0 0-1.12-1.152 3.088 3.088 0 0 0-1.6-.416c-.598 0-1.136.139-1.616.416a2.91 2.91 0 0 0-1.12 1.152c-.267.501-.4 1.072-.4 1.712 0 .64.133 1.211.4 1.712.277.501.65.891 1.12 1.168.48.267 1.018.4 1.616.4Zm11.023.416a2.24 2.24 0 0 1-.8.448c-.31.096-.635.144-.976.144-.79 0-1.398-.213-1.824-.64-.427-.427-.64-1.029-.64-1.808v-5.088h-1.504v-.96h1.504v-1.84h1.136v1.84h2.56v.96h-2.56v5.024c0 .501.122.885.368 1.152.256.256.619.384 1.088.384.235 0 .459-.037.672-.112.224-.075.416-.181.576-.32l.4.816Zm2.068-7.904h1.136V301H59.13v-8.416Zm.576-1.84a.804.804 0 0 1-.592-.24.786.786 0 0 1-.24-.576c0-.213.08-.4.24-.56.16-.16.357-.24.592-.24.234 0 .432.08.592.24.16.149.24.331.24.544 0 .235-.08.432-.24.592a.804.804 0 0 1-.592.24Zm6.505-.736c-.49 0-.864.133-1.12.4-.246.267-.368.661-.368 1.184v.992h2.592v.96h-2.56V301H63.62v-7.456h-1.504v-.96h1.504v-1.04c0-.768.218-1.376.656-1.824.448-.448 1.077-.672 1.888-.672.32 0 .63.048.928.144.298.085.55.213.752.384l-.384.848c-.33-.277-.747-.416-1.248-.416Zm3.92 2.576h1.136V301h-1.136v-8.416Zm.576-1.84a.804.804 0 0 1-.592-.24.786.786 0 0 1-.24-.576c0-.213.08-.4.24-.56.16-.16.357-.24.592-.24.234 0 .432.08.592.24.16.149.24.331.24.544 0 .235-.08.432-.24.592a.804.804 0 0 1-.592.24Zm7.223 10.336c-.832 0-1.578-.181-2.24-.544a3.968 3.968 0 0 1-1.536-1.52c-.373-.661-.56-1.403-.56-2.224 0-.821.187-1.557.56-2.208a3.968 3.968 0 0 1 1.536-1.52c.662-.363 1.408-.544 2.24-.544.726 0 1.371.144 1.936.432a3.16 3.16 0 0 1 1.36 1.232l-.848.576a2.596 2.596 0 0 0-1.056-.928 3.073 3.073 0 0 0-1.392-.32c-.608 0-1.157.139-1.648.416a2.89 2.89 0 0 0-1.136 1.152c-.266.501-.4 1.072-.4 1.712 0 .651.134 1.227.4 1.728.278.491.656.875 1.136 1.152.491.267 1.04.4 1.648.4.502 0 .966-.101 1.392-.304a2.596 2.596 0 0 0 1.056-.928l.848.576a3.27 3.27 0 0 1-1.36 1.248c-.576.277-1.221.416-1.936.416Zm8.472-8.56c1.099 0 1.941.277 2.528.832.587.544.88 1.355.88 2.432V301h-1.088v-1.312c-.256.437-.635.779-1.136 1.024-.49.245-1.077.368-1.76.368-.939 0-1.685-.224-2.24-.672-.555-.448-.832-1.04-.832-1.776 0-.715.256-1.291.768-1.728.523-.437 1.35-.656 2.48-.656h2.672v-.512c0-.725-.203-1.275-.608-1.648-.405-.384-.997-.576-1.776-.576-.533 0-1.045.091-1.536.272a3.78 3.78 0 0 0-1.264.72l-.512-.848c.427-.363.939-.64 1.536-.832a5.827 5.827 0 0 1 1.888-.304Zm-.4 7.664c.64 0 1.19-.144 1.648-.432.459-.299.8-.725 1.024-1.28v-1.376h-2.64c-1.44 0-2.16.501-2.16 1.504 0 .491.187.88.56 1.168.373.277.896.416 1.568.416Zm10.413.896c-.832 0-1.579-.181-2.24-.544a3.968 3.968 0 0 1-1.536-1.52c-.374-.661-.56-1.403-.56-2.224 0-.821.186-1.557.56-2.208a3.968 3.968 0 0 1 1.536-1.52c.661-.363 1.408-.544 2.24-.544.725 0 1.37.144 1.936.432a3.16 3.16 0 0 1 1.36 1.232l-.848.576a2.596 2.596 0 0 0-1.056-.928 3.073 3.073 0 0 0-1.392-.32c-.608 0-1.158.139-1.648.416-.48.267-.859.651-1.136 1.152-.267.501-.4 1.072-.4 1.712 0 .651.133 1.227.4 1.728.277.491.656.875 1.136 1.152.49.267 1.04.4 1.648.4a3.2 3.2 0 0 0 1.392-.304 2.596 2.596 0 0 0 1.056-.928l.848.576a3.27 3.27 0 0 1-1.36 1.248c-.576.277-1.222.416-1.936.416Zm5.527-8.496h1.136V301h-1.136v-8.416Zm.576-1.84a.805.805 0 0 1-.592-.24.786.786 0 0 1-.24-.576c0-.213.08-.4.24-.56.16-.16.358-.24.592-.24.235 0 .432.08.592.24.16.149.24.331.24.544 0 .235-.08.432-.24.592a.804.804 0 0 1-.592.24Zm7.161 10.336c-.81 0-1.541-.181-2.192-.544a4.089 4.089 0 0 1-1.536-1.536c-.373-.651-.56-1.387-.56-2.208 0-.821.187-1.557.56-2.208a3.977 3.977 0 0 1 1.536-1.52c.651-.363 1.382-.544 2.192-.544.811 0 1.542.181 2.192.544a3.852 3.852 0 0 1 1.52 1.52c.374.651.56 1.387.56 2.208 0 .821-.186 1.557-.56 2.208a3.957 3.957 0 0 1-1.52 1.536c-.65.363-1.381.544-2.192.544Zm0-1.008c.598 0 1.131-.133 1.6-.4.48-.277.854-.667 1.12-1.168.267-.501.4-1.072.4-1.712 0-.64-.133-1.211-.4-1.712a2.778 2.778 0 0 0-1.12-1.152 3.086 3.086 0 0 0-1.6-.416c-.597 0-1.136.139-1.616.416a2.923 2.923 0 0 0-1.12 1.152c-.266.501-.4 1.072-.4 1.712 0 .64.134 1.211.4 1.712.278.501.651.891 1.12 1.168.48.267 1.019.4 1.616.4Zm10.88-7.552c1.056 0 1.893.309 2.512.928.629.608.944 1.499.944 2.672V301h-1.136v-4.768c0-.875-.219-1.541-.656-2-.438-.459-1.062-.688-1.872-.688-.907 0-1.627.272-2.16.816-.523.533-.784 1.275-.784 2.224V301h-1.136v-8.416h1.088v1.552a3.114 3.114 0 0 1 1.28-1.184c.554-.288 1.194-.432 1.92-.432Zm8.796 8.56a6.703 6.703 0 0 1-1.968-.288c-.619-.203-1.104-.453-1.456-.752l.512-.896c.352.277.794.507 1.328.688a5.415 5.415 0 0 0 1.664.256c.768 0 1.333-.117 1.696-.352.373-.245.56-.587.56-1.024 0-.309-.102-.549-.304-.72a1.886 1.886 0 0 0-.768-.4 9.653 9.653 0 0 0-1.232-.272 15.555 15.555 0 0 1-1.648-.384 2.544 2.544 0 0 1-1.072-.688c-.288-.32-.432-.763-.432-1.328 0-.704.293-1.28.88-1.728.586-.448 1.402-.672 2.448-.672.544 0 1.088.075 1.632.224.544.139.992.325 1.344.56l-.496.912c-.694-.48-1.52-.72-2.48-.72-.726 0-1.275.128-1.648.384-.363.256-.544.592-.544 1.008 0 .32.101.576.304.768.213.192.474.336.784.432.309.085.736.176 1.28.272.672.128 1.21.256 1.616.384.405.128.752.347 1.04.656.288.309.432.736.432 1.28 0 .736-.31 1.323-.928 1.76-.608.427-1.456.64-2.544.64Z"/><path fill="#2A2A2A" d="M353.146 304.646a.5.5 0 0 0 .708.707l9-9a.5.5 0 0 0 0-.707l-9-9a.5.5 0 0 0-.707.707l8.646 8.647-8.647 8.646Z"/><rect width="358" height="32" x="20" y="332" fill="#CDE4E6" rx="10"/><path fill="#000" d="m37.472 353-2.56-3.6a8.114 8.114 0 0 1-.896.048h-3.008V353h-1.184v-11.2h4.192c1.43 0 2.55.341 3.36 1.024s1.216 1.621 1.216 2.816c0 .875-.224 1.616-.672 2.224-.437.597-1.067 1.029-1.888 1.296l2.736 3.84h-1.296Zm-3.488-4.56c1.11 0 1.957-.245 2.544-.736s.88-1.179.88-2.064c0-.907-.293-1.6-.88-2.08-.587-.491-1.435-.736-2.544-.736h-2.976v5.616h2.976Zm14.49.704h-7.04c.065.875.4 1.584 1.009 2.128.608.533 1.376.8 2.303.8a3.73 3.73 0 0 0 1.44-.272 3.228 3.228 0 0 0 1.136-.832l.64.736a3.596 3.596 0 0 1-1.408 1.024 4.67 4.67 0 0 1-1.84.352c-.864 0-1.631-.181-2.303-.544A4.047 4.047 0 0 1 40.858 351c-.373-.651-.56-1.387-.56-2.208 0-.821.176-1.557.529-2.208a3.956 3.956 0 0 1 1.471-1.52 4.153 4.153 0 0 1 2.112-.544c.78 0 1.478.181 2.097.544a3.842 3.842 0 0 1 1.456 1.52c.352.64.527 1.376.527 2.208l-.016.352Zm-4.063-3.648c-.811 0-1.494.261-2.049.784-.544.512-.853 1.184-.928 2.016h5.969c-.075-.832-.39-1.504-.944-2.016-.545-.523-1.227-.784-2.049-.784Zm9.88 7.584c-.832 0-1.579-.181-2.24-.544a3.968 3.968 0 0 1-1.536-1.52c-.374-.661-.56-1.403-.56-2.224 0-.821.186-1.557.56-2.208a3.968 3.968 0 0 1 1.536-1.52c.661-.363 1.408-.544 2.24-.544.725 0 1.37.144 1.936.432a3.16 3.16 0 0 1 1.36 1.232l-.848.576a2.596 2.596 0 0 0-1.056-.928 3.073 3.073 0 0 0-1.392-.32c-.608 0-1.158.139-1.648.416-.48.267-.859.651-1.136 1.152-.267.501-.4 1.072-.4 1.712 0 .651.133 1.227.4 1.728.277.491.656.875 1.136 1.152.49.267 1.04.4 1.648.4a3.2 3.2 0 0 0 1.392-.304 2.596 2.596 0 0 0 1.056-.928l.848.576a3.27 3.27 0 0 1-1.36 1.248c-.576.277-1.222.416-1.936.416Zm8.827 0c-.81 0-1.542-.181-2.192-.544A4.079 4.079 0 0 1 59.39 351c-.374-.651-.56-1.387-.56-2.208 0-.821.186-1.557.56-2.208a3.968 3.968 0 0 1 1.536-1.52c.65-.363 1.381-.544 2.192-.544.81 0 1.541.181 2.192.544.65.363 1.157.869 1.52 1.52.373.651.56 1.387.56 2.208 0 .821-.187 1.557-.56 2.208a3.965 3.965 0 0 1-1.52 1.536c-.65.363-1.382.544-2.192.544Zm0-1.008c.597 0 1.13-.133 1.6-.4.48-.277.853-.667 1.12-1.168.266-.501.4-1.072.4-1.712 0-.64-.134-1.211-.4-1.712a2.782 2.782 0 0 0-1.12-1.152 3.089 3.089 0 0 0-1.6-.416c-.598 0-1.136.139-1.616.416a2.91 2.91 0 0 0-1.12 1.152c-.267.501-.4 1.072-.4 1.712 0 .64.133 1.211.4 1.712.277.501.65.891 1.12 1.168.48.267 1.018.4 1.616.4Zm7.679-5.84a2.765 2.765 0 0 1 1.184-1.28c.533-.288 1.19-.432 1.968-.432v1.104l-.272-.016c-.885 0-1.579.272-2.08.816-.501.544-.752 1.307-.752 2.288V353h-1.136v-8.416h1.088v1.648Zm12.81-5.104V353H82.52v-1.664a3.455 3.455 0 0 1-1.36 1.296c-.555.299-1.184.448-1.888.448-.79 0-1.504-.181-2.144-.544a3.888 3.888 0 0 1-1.504-1.52c-.363-.651-.544-1.392-.544-2.224 0-.832.181-1.573.544-2.224a3.776 3.776 0 0 1 1.504-1.504c.64-.363 1.354-.544 2.144-.544.682 0 1.296.144 1.84.432a3.424 3.424 0 0 1 1.36 1.232v-5.056h1.136Zm-4.24 10.944a3.15 3.15 0 0 0 1.585-.4c.48-.277.853-.667 1.12-1.168.277-.501.416-1.072.416-1.712 0-.64-.139-1.211-.416-1.712a2.782 2.782 0 0 0-1.12-1.152 3.058 3.058 0 0 0-1.584-.416c-.598 0-1.136.139-1.616.416a2.91 2.91 0 0 0-1.12 1.152c-.267.501-.4 1.072-.4 1.712 0 .64.133 1.211.4 1.712.277.501.65.891 1.12 1.168.48.267 1.018.4 1.616.4Zm10.349-7.552c1.098 0 1.94.277 2.528.832.586.544.88 1.355.88 2.432V353h-1.088v-1.312c-.257.437-.635.779-1.136 1.024-.491.245-1.078.368-1.76.368-.94 0-1.686-.224-2.24-.672-.555-.448-.833-1.04-.833-1.776 0-.715.257-1.291.769-1.728.522-.437 1.349-.656 2.48-.656h2.671v-.512c0-.725-.202-1.275-.608-1.648-.405-.384-.997-.576-1.776-.576-.533 0-1.045.091-1.535.272a3.77 3.77 0 0 0-1.264.72l-.513-.848c.427-.363.94-.64 1.537-.832a5.827 5.827 0 0 1 1.888-.304Zm-.4 7.664c.64 0 1.189-.144 1.647-.432.46-.299.8-.725 1.025-1.28v-1.376h-2.64c-1.44 0-2.16.501-2.16 1.504 0 .491.186.88.56 1.168.373.277.895.416 1.567.416Zm11.325.304c-.213.192-.48.341-.8.448-.31.096-.635.144-.976.144-.79 0-1.397-.213-1.824-.64-.427-.427-.64-1.029-.64-1.808v-5.088h-1.504v-.96h1.504v-1.84h1.136v1.84h2.56v.96h-2.56v5.024c0 .501.123.885.368 1.152.256.256.619.384 1.088.384.235 0 .459-.037.672-.112.224-.075.416-.181.576-.32l.4.816Zm5.211.592c-.811 0-1.541-.181-2.192-.544a4.074 4.074 0 0 1-1.536-1.536c-.373-.651-.56-1.387-.56-2.208 0-.821.187-1.557.56-2.208a3.964 3.964 0 0 1 1.536-1.52c.651-.363 1.381-.544 2.192-.544.811 0 1.541.181 2.192.544a3.858 3.858 0 0 1 1.52 1.52c.373.651.56 1.387.56 2.208 0 .821-.187 1.557-.56 2.208a3.964 3.964 0 0 1-1.52 1.536c-.651.363-1.381.544-2.192.544Zm0-1.008c.597 0 1.131-.133 1.6-.4.48-.277.853-.667 1.12-1.168.267-.501.4-1.072.4-1.712 0-.64-.133-1.211-.4-1.712a2.784 2.784 0 0 0-1.12-1.152 3.088 3.088 0 0 0-1.6-.416c-.597 0-1.136.139-1.616.416a2.917 2.917 0 0 0-1.12 1.152c-.267.501-.4 1.072-.4 1.712 0 .64.133 1.211.4 1.712.277.501.651.891 1.12 1.168.48.267 1.019.4 1.616.4Zm7.679-5.84a2.77 2.77 0 0 1 1.184-1.28c.534-.288 1.19-.432 1.968-.432v1.104l-.272-.016c-.885 0-1.578.272-2.08.816-.501.544-.752 1.307-.752 2.288V353h-1.136v-8.416h1.088v1.648Zm5.209-1.648h1.136V353h-1.136v-8.416Zm.576-1.84a.805.805 0 0 1-.592-.24.786.786 0 0 1-.24-.576c0-.213.08-.4.24-.56.16-.16.358-.24.592-.24.235 0 .432.08.592.24.16.149.24.331.24.544 0 .235-.08.432-.24.592a.804.804 0 0 1-.592.24Zm5.977 10.336a6.703 6.703 0 0 1-1.968-.288c-.619-.203-1.104-.453-1.456-.752l.512-.896c.352.277.795.507 1.328.688a5.415 5.415 0 0 0 1.664.256c.768 0 1.333-.117 1.696-.352.373-.245.56-.587.56-1.024 0-.309-.101-.549-.304-.72a1.886 1.886 0 0 0-.768-.4 9.613 9.613 0 0 0-1.232-.272 15.555 15.555 0 0 1-1.648-.384 2.55 2.55 0 0 1-1.072-.688c-.288-.32-.432-.763-.432-1.328 0-.704.293-1.28.88-1.728.587-.448 1.403-.672 2.448-.672.544 0 1.088.075 1.632.224.544.139.992.325 1.344.56l-.496.912c-.693-.48-1.52-.72-2.48-.72-.725 0-1.275.128-1.648.384-.363.256-.544.592-.544 1.008 0 .32.101.576.304.768.213.192.475.336.784.432.309.085.736.176 1.28.272.672.128 1.211.256 1.616.384s.752.347 1.04.656c.288.309.432.736.432 1.28 0 .736-.309 1.323-.928 1.76-.608.427-1.456.64-2.544.64Zm17.44-11.952V353h-1.088v-1.664a3.46 3.46 0 0 1-1.36 1.296c-.555.299-1.184.448-1.888.448-.79 0-1.504-.181-2.144-.544a3.884 3.884 0 0 1-1.504-1.52c-.363-.651-.544-1.392-.544-2.224 0-.832.181-1.573.544-2.224a3.773 3.773 0 0 1 1.504-1.504c.64-.363 1.354-.544 2.144-.544.682 0 1.296.144 1.84.432a3.428 3.428 0 0 1 1.36 1.232v-5.056h1.136Zm-4.24 10.944a3.15 3.15 0 0 0 1.584-.4c.48-.277.853-.667 1.12-1.168.277-.501.416-1.072.416-1.712 0-.64-.139-1.211-.416-1.712a2.784 2.784 0 0 0-1.12-1.152 3.061 3.061 0 0 0-1.584-.416c-.598 0-1.136.139-1.616.416a2.91 2.91 0 0 0-1.12 1.152c-.267.501-.4 1.072-.4 1.712 0 .64.133 1.211.4 1.712.277.501.65.891 1.12 1.168.48.267 1.018.4 1.616.4Zm7.404-7.488h1.136V353h-1.136v-8.416Zm.576-1.84a.804.804 0 0 1-.592-.24.786.786 0 0 1-.24-.576c0-.213.08-.4.24-.56.16-.16.357-.24.592-.24.234 0 .432.08.592.24.16.149.24.331.24.544 0 .235-.08.432-.24.592a.805.805 0 0 1-.592.24Zm6.664 1.776c1.099 0 1.942.277 2.528.832.587.544.88 1.355.88 2.432V353h-1.088v-1.312c-.256.437-.634.779-1.136 1.024-.49.245-1.077.368-1.76.368-.938 0-1.685-.224-2.24-.672-.554-.448-.832-1.04-.832-1.776 0-.715.256-1.291.768-1.728.523-.437 1.35-.656 2.48-.656h2.672v-.512c0-.725-.202-1.275-.608-1.648-.405-.384-.997-.576-1.776-.576-.533 0-1.045.091-1.536.272a3.78 3.78 0 0 0-1.264.72l-.512-.848c.427-.363.939-.64 1.536-.832a5.831 5.831 0 0 1 1.888-.304Zm-.4 7.664c.64 0 1.19-.144 1.648-.432.459-.299.8-.725 1.024-1.28v-1.376h-2.64c-1.44 0-2.16.501-2.16 1.504 0 .491.187.88.56 1.168.374.277.896.416 1.568.416Zm7.982-5.952a2.765 2.765 0 0 1 1.184-1.28c.533-.288 1.189-.432 1.968-.432v1.104l-.272-.016c-.885 0-1.579.272-2.08.816-.501.544-.752 1.307-.752 2.288V353h-1.136v-8.416h1.088v1.648Zm5.209-1.648h1.136V353h-1.136v-8.416Zm.576-1.84a.804.804 0 0 1-.592-.24.786.786 0 0 1-.24-.576c0-.213.08-.4.24-.56.16-.16.357-.24.592-.24.234 0 .432.08.592.24.16.149.24.331.24.544 0 .235-.08.432-.24.592a.805.805 0 0 1-.592.24Zm5.977 10.336a6.703 6.703 0 0 1-1.968-.288c-.619-.203-1.104-.453-1.456-.752l.512-.896c.352.277.794.507 1.328.688a5.415 5.415 0 0 0 1.664.256c.768 0 1.333-.117 1.696-.352.373-.245.56-.587.56-1.024 0-.309-.102-.549-.304-.72a1.886 1.886 0 0 0-.768-.4 9.653 9.653 0 0 0-1.232-.272 15.555 15.555 0 0 1-1.648-.384 2.544 2.544 0 0 1-1.072-.688c-.288-.32-.432-.763-.432-1.328 0-.704.293-1.28.88-1.728.586-.448 1.402-.672 2.448-.672.544 0 1.088.075 1.632.224.544.139.992.325 1.344.56l-.496.912c-.694-.48-1.52-.72-2.48-.72-.726 0-1.275.128-1.648.384-.363.256-.544.592-.544 1.008 0 .32.101.576.304.768.213.192.474.336.784.432.309.085.736.176 1.28.272.672.128 1.21.256 1.616.384.405.128.752.347 1.04.656.288.309.432.736.432 1.28 0 .736-.31 1.323-.928 1.76-.608.427-1.456.64-2.544.64Z"/><path fill="#2A2A2A" d="M353.146 356.646a.5.5 0 0 0 .708.707l9-9a.5.5 0 0 0 0-.707l-9-9a.5.5 0 0 0-.707.707l8.646 8.647-8.647 8.646Z"/><rect width="358" height="32" x="20" y="384" fill="#CDE4E6" rx="10"/><path fill="#000" d="M29.824 393.8h1.184v10.176h6.272V405h-7.456v-11.2Zm16.385 7.344h-7.04c.064.875.4 1.584 1.008 2.128.608.533 1.376.8 2.304.8a3.73 3.73 0 0 0 1.44-.272 3.228 3.228 0 0 0 1.136-.832l.64.736a3.596 3.596 0 0 1-1.408 1.024 4.67 4.67 0 0 1-1.84.352c-.864 0-1.632-.181-2.304-.544A4.046 4.046 0 0 1 38.593 403c-.374-.651-.56-1.387-.56-2.208 0-.821.176-1.557.528-2.208a3.955 3.955 0 0 1 1.472-1.52c.63-.363 1.333-.544 2.112-.544.778 0 1.477.181 2.096.544a3.843 3.843 0 0 1 1.456 1.52c.352.64.528 1.376.528 2.208l-.016.352Zm-4.064-3.648c-.81 0-1.494.261-2.048.784-.544.512-.854 1.184-.928 2.016h5.968c-.075-.832-.39-1.504-.944-2.016-.544-.523-1.227-.784-2.048-.784Zm14.184-.912v7.392c0 1.429-.352 2.485-1.056 3.168-.693.693-1.744 1.04-3.152 1.04-.779 0-1.52-.117-2.224-.352-.693-.224-1.258-.539-1.696-.944l.576-.864c.405.363.896.645 1.472.848.587.203 1.2.304 1.84.304 1.067 0 1.85-.251 2.352-.752.502-.491.752-1.259.752-2.304v-1.072a3.411 3.411 0 0 1-1.392 1.216 4.233 4.233 0 0 1-1.888.416c-.79 0-1.51-.171-2.16-.512a3.985 3.985 0 0 1-1.52-1.456c-.362-.629-.544-1.339-.544-2.128 0-.789.181-1.493.544-2.112a3.866 3.866 0 0 1 1.52-1.44c.64-.341 1.36-.512 2.16-.512.715 0 1.36.144 1.936.432.576.288 1.04.704 1.392 1.248v-1.616h1.088Zm-4.304 7.088a3.51 3.51 0 0 0 1.648-.384c.49-.267.87-.635 1.136-1.104a3.084 3.084 0 0 0 .416-1.6c0-.597-.139-1.125-.416-1.584a2.728 2.728 0 0 0-1.136-1.088c-.48-.267-1.03-.4-1.648-.4a3.51 3.51 0 0 0-1.648.384 2.86 2.86 0 0 0-1.136 1.088c-.267.469-.4 1.003-.4 1.6 0 .597.133 1.131.4 1.6.278.469.656.837 1.136 1.104.49.256 1.04.384 1.648.384Zm10.425-7.152c1.098 0 1.941.277 2.528.832.587.544.88 1.355.88 2.432V405H64.77v-1.312c-.256.437-.635.779-1.136 1.024-.49.245-1.078.368-1.76.368-.939 0-1.686-.224-2.24-.672-.555-.448-.832-1.04-.832-1.776 0-.715.256-1.291.768-1.728.523-.437 1.35-.656 2.48-.656h2.672v-.512c0-.725-.203-1.275-.608-1.648-.406-.384-.998-.576-1.776-.576-.534 0-1.046.091-1.536.272a3.78 3.78 0 0 0-1.264.72l-.512-.848a4.43 4.43 0 0 1 1.536-.832 5.827 5.827 0 0 1 1.888-.304Zm-.4 7.664c.64 0 1.19-.144 1.648-.432.458-.299.8-.725 1.024-1.28v-1.376h-2.64c-1.44 0-2.16.501-2.16 1.504 0 .491.187.88.56 1.168.373.277.896.416 1.568.416Zm6.893-11.056h1.136V405h-1.136v-11.872Zm8.485 3.456h1.136V405h-1.136v-8.416Zm.576-1.84a.804.804 0 0 1-.592-.24.786.786 0 0 1-.24-.576c0-.213.08-.4.24-.56.16-.16.357-.24.592-.24.234 0 .432.08.592.24.16.149.24.331.24.544 0 .235-.08.432-.24.592a.804.804 0 0 1-.592.24ZM89.4 405.08c-.832 0-1.579-.181-2.24-.544a3.97 3.97 0 0 1-1.536-1.52c-.373-.661-.56-1.403-.56-2.224 0-.821.187-1.557.56-2.208a3.97 3.97 0 0 1 1.536-1.52c.662-.363 1.408-.544 2.24-.544.725 0 1.37.144 1.936.432a3.16 3.16 0 0 1 1.36 1.232l-.848.576a2.595 2.595 0 0 0-1.056-.928 3.073 3.073 0 0 0-1.392-.32c-.608 0-1.157.139-1.648.416a2.89 2.89 0 0 0-1.136 1.152c-.266.501-.4 1.072-.4 1.712 0 .651.134 1.227.4 1.728.278.491.656.875 1.136 1.152.49.267 1.04.4 1.648.4a3.2 3.2 0 0 0 1.392-.304 2.595 2.595 0 0 0 1.056-.928l.848.576a3.27 3.27 0 0 1-1.36 1.248c-.576.277-1.221.416-1.936.416Zm8.827 0c-.81 0-1.541-.181-2.192-.544A4.08 4.08 0 0 1 94.5 403c-.373-.651-.56-1.387-.56-2.208 0-.821.187-1.557.56-2.208a3.97 3.97 0 0 1 1.536-1.52c.65-.363 1.382-.544 2.192-.544.81 0 1.541.181 2.192.544a3.858 3.858 0 0 1 1.52 1.52c.373.651.56 1.387.56 2.208 0 .821-.187 1.557-.56 2.208a3.964 3.964 0 0 1-1.52 1.536c-.65.363-1.381.544-2.192.544Zm0-1.008c.597 0 1.13-.133 1.6-.4.48-.277.853-.667 1.12-1.168.267-.501.4-1.072.4-1.712 0-.64-.133-1.211-.4-1.712a2.784 2.784 0 0 0-1.12-1.152 3.088 3.088 0 0 0-1.6-.416c-.597 0-1.136.139-1.616.416a2.91 2.91 0 0 0-1.12 1.152c-.266.501-.4 1.072-.4 1.712 0 .64.134 1.211.4 1.712.278.501.65.891 1.12 1.168.48.267 1.019.4 1.616.4Zm10.879-7.552c1.056 0 1.894.309 2.512.928.63.608.944 1.499.944 2.672V405h-1.136v-4.768c0-.875-.218-1.541-.656-2-.437-.459-1.061-.688-1.872-.688-.906 0-1.626.272-2.16.816-.522.533-.784 1.275-.784 2.224V405h-1.136v-8.416h1.088v1.552a3.12 3.12 0 0 1 1.28-1.184c.555-.288 1.195-.432 1.92-.432Zm14.252-3.392V405h-1.088v-1.664a3.46 3.46 0 0 1-1.36 1.296c-.555.299-1.184.448-1.888.448-.79 0-1.504-.181-2.144-.544a3.884 3.884 0 0 1-1.504-1.52c-.363-.651-.544-1.392-.544-2.224 0-.832.181-1.573.544-2.224a3.773 3.773 0 0 1 1.504-1.504c.64-.363 1.354-.544 2.144-.544.682 0 1.296.144 1.84.432a3.428 3.428 0 0 1 1.36 1.232v-5.056h1.136Zm-4.24 10.944a3.15 3.15 0 0 0 1.584-.4c.48-.277.853-.667 1.12-1.168.277-.501.416-1.072.416-1.712 0-.64-.139-1.211-.416-1.712a2.784 2.784 0 0 0-1.12-1.152 3.061 3.061 0 0 0-1.584-.416c-.598 0-1.136.139-1.616.416a2.91 2.91 0 0 0-1.12 1.152c-.267.501-.4 1.072-.4 1.712 0 .64.133 1.211.4 1.712.277.501.65.891 1.12 1.168.48.267 1.018.4 1.616.4Zm7.404-7.488h1.136V405h-1.136v-8.416Zm.576-1.84a.804.804 0 0 1-.592-.24.786.786 0 0 1-.24-.576c0-.213.08-.4.24-.56.16-.16.357-.24.592-.24.234 0 .432.08.592.24.16.149.24.331.24.544 0 .235-.08.432-.24.592a.805.805 0 0 1-.592.24Zm7.208 10.336c-.832 0-1.578-.181-2.24-.544a3.977 3.977 0 0 1-1.536-1.52c-.373-.661-.56-1.403-.56-2.224 0-.821.187-1.557.56-2.208a3.977 3.977 0 0 1 1.536-1.52c.662-.363 1.408-.544 2.24-.544.726 0 1.371.144 1.936.432a3.16 3.16 0 0 1 1.36 1.232l-.848.576a2.591 2.591 0 0 0-1.056-.928 3.07 3.07 0 0 0-1.392-.32c-.608 0-1.157.139-1.648.416a2.89 2.89 0 0 0-1.136 1.152c-.266.501-.4 1.072-.4 1.712 0 .651.134 1.227.4 1.728.278.491.656.875 1.136 1.152.491.267 1.04.4 1.648.4.502 0 .966-.101 1.392-.304a2.591 2.591 0 0 0 1.056-.928l.848.576c-.33.544-.784.96-1.36 1.248-.576.277-1.221.416-1.936.416Zm5.528-8.496h1.136V405h-1.136v-8.416Zm.576-1.84a.804.804 0 0 1-.592-.24.786.786 0 0 1-.24-.576c0-.213.08-.4.24-.56.16-.16.357-.24.592-.24s.432.08.592.24c.16.149.24.331.24.544 0 .235-.08.432-.24.592a.804.804 0 0 1-.592.24Zm7.161 10.336c-.811 0-1.541-.181-2.192-.544a4.074 4.074 0 0 1-1.536-1.536c-.373-.651-.56-1.387-.56-2.208 0-.821.187-1.557.56-2.208a3.964 3.964 0 0 1 1.536-1.52c.651-.363 1.381-.544 2.192-.544.811 0 1.541.181 2.192.544a3.858 3.858 0 0 1 1.52 1.52c.373.651.56 1.387.56 2.208 0 .821-.187 1.557-.56 2.208a3.964 3.964 0 0 1-1.52 1.536c-.651.363-1.381.544-2.192.544Zm0-1.008c.597 0 1.131-.133 1.6-.4.48-.277.853-.667 1.12-1.168.267-.501.4-1.072.4-1.712 0-.64-.133-1.211-.4-1.712a2.784 2.784 0 0 0-1.12-1.152 3.088 3.088 0 0 0-1.6-.416c-.597 0-1.136.139-1.616.416a2.917 2.917 0 0 0-1.12 1.152c-.267.501-.4 1.072-.4 1.712 0 .64.133 1.211.4 1.712.277.501.651.891 1.12 1.168.48.267 1.019.4 1.616.4Zm10.879-7.552c1.056 0 1.893.309 2.512.928.629.608.944 1.499.944 2.672V405h-1.136v-4.768c0-.875-.219-1.541-.656-2-.437-.459-1.061-.688-1.872-.688-.907 0-1.627.272-2.16.816-.523.533-.784 1.275-.784 2.224V405h-1.136v-8.416h1.088v1.552a3.114 3.114 0 0 1 1.28-1.184c.555-.288 1.195-.432 1.92-.432Zm8.796 8.56a6.713 6.713 0 0 1-1.968-.288c-.618-.203-1.104-.453-1.456-.752l.512-.896c.352.277.795.507 1.328.688a5.42 5.42 0 0 0 1.664.256c.768 0 1.334-.117 1.696-.352.374-.245.56-.587.56-1.024 0-.309-.101-.549-.304-.72a1.873 1.873 0 0 0-.768-.4 9.613 9.613 0 0 0-1.232-.272 15.615 15.615 0 0 1-1.648-.384 2.55 2.55 0 0 1-1.072-.688c-.288-.32-.432-.763-.432-1.328 0-.704.294-1.28.88-1.728.587-.448 1.403-.672 2.448-.672.544 0 1.088.075 1.632.224.544.139.992.325 1.344.56l-.496.912c-.693-.48-1.52-.72-2.48-.72-.725 0-1.274.128-1.648.384-.362.256-.544.592-.544 1.008 0 .32.102.576.304.768.214.192.475.336.784.432.31.085.736.176 1.28.272.672.128 1.211.256 1.616.384.406.128.752.347 1.04.656.288.309.432.736.432 1.28 0 .736-.309 1.323-.928 1.76-.608.427-1.456.64-2.544.64Zm17.44-11.952V405h-1.088v-1.664a3.454 3.454 0 0 1-1.36 1.296c-.555.299-1.184.448-1.888.448-.789 0-1.504-.181-2.144-.544a3.89 3.89 0 0 1-1.504-1.52c-.363-.651-.544-1.392-.544-2.224 0-.832.181-1.573.544-2.224a3.779 3.779 0 0 1 1.504-1.504c.64-.363 1.355-.544 2.144-.544.683 0 1.296.144 1.84.432a3.421 3.421 0 0 1 1.36 1.232v-5.056h1.136Zm-4.24 10.944c.587 0 1.115-.133 1.584-.4.48-.277.853-.667 1.12-1.168.277-.501.416-1.072.416-1.712 0-.64-.139-1.211-.416-1.712a2.784 2.784 0 0 0-1.12-1.152 3.056 3.056 0 0 0-1.584-.416c-.597 0-1.136.139-1.616.416a2.917 2.917 0 0 0-1.12 1.152c-.267.501-.4 1.072-.4 1.712 0 .64.133 1.211.4 1.712.277.501.651.891 1.12 1.168.48.267 1.019.4 1.616.4Zm7.532-11.024c.245 0 .448.085.608.256.16.16.24.363.24.608 0 .128-.022.267-.064.416-.032.139-.08.304-.144.496l-.688 2.208h-.768l.56-2.304a.811.811 0 0 1-.432-.288.88.88 0 0 1-.16-.528c0-.256.08-.464.24-.624.16-.16.362-.24.608-.24Zm10.846 3.536V405h-1.088v-1.536a3.165 3.165 0 0 1-1.232 1.2c-.522.277-1.12.416-1.792.416-1.098 0-1.968-.304-2.608-.912-.629-.619-.944-1.52-.944-2.704v-4.88h1.136v4.768c0 .885.219 1.557.656 2.016.438.459 1.062.688 1.872.688.886 0 1.584-.267 2.096-.8.512-.544.768-1.296.768-2.256v-4.416h1.136Zm-2.672-3.296h1.52l-2.592 1.984h-1.12l2.192-1.984Zm8.11 11.792a6.703 6.703 0 0 1-1.968-.288c-.619-.203-1.104-.453-1.456-.752l.512-.896c.352.277.795.507 1.328.688a5.415 5.415 0 0 0 1.664.256c.768 0 1.333-.117 1.696-.352.373-.245.56-.587.56-1.024 0-.309-.101-.549-.304-.72a1.886 1.886 0 0 0-.768-.4 9.613 9.613 0 0 0-1.232-.272 15.555 15.555 0 0 1-1.648-.384 2.55 2.55 0 0 1-1.072-.688c-.288-.32-.432-.763-.432-1.328 0-.704.293-1.28.88-1.728.587-.448 1.403-.672 2.448-.672.544 0 1.088.075 1.632.224.544.139.992.325 1.344.56l-.496.912c-.693-.48-1.52-.72-2.48-.72-.725 0-1.275.128-1.648.384-.363.256-.544.592-.544 1.008 0 .32.101.576.304.768.213.192.475.336.784.432.309.085.736.176 1.28.272.672.128 1.211.256 1.616.384s.752.347 1.04.656c.288.309.432.736.432 1.28 0 .736-.309 1.323-.928 1.76-.608.427-1.456.64-2.544.64Z"/><path fill="#2A2A2A" d="M353.146 408.646a.5.5 0 0 0 .708.707l9-9a.5.5 0 0 0 0-.707l-9-9a.5.5 0 0 0-.707.707l8.646 8.647-8.647 8.646Z"/><rect width="358" height="32" x="20" y="436" fill="#CDE4E6" rx="10"/><path fill="#000" d="M36.848 454.008h-6.24L29.264 457h-1.232l5.12-11.2h1.168l5.12 11.2h-1.248l-1.344-2.992Zm-.432-.96-2.688-6.016-2.688 6.016h5.376Zm3.389 7.136a3.33 3.33 0 0 1-.992-.144 1.881 1.881 0 0 1-.784-.4l.4-.864c.33.288.768.432 1.312.432.448 0 .79-.133 1.024-.4.245-.267.368-.661.368-1.184v-9.04h1.136v9.04c0 .789-.214 1.413-.64 1.872-.427.459-1.035.688-1.824.688Zm1.904-13.456a.804.804 0 0 1-.592-.24.786.786 0 0 1-.24-.576c0-.213.08-.4.24-.56.16-.16.357-.24.592-.24.234 0 .432.08.592.24.16.149.24.331.24.544 0 .235-.08.432-.24.592a.804.804 0 0 1-.592.24Zm11.318 1.856V457H51.94v-1.536a3.165 3.165 0 0 1-1.232 1.2c-.522.277-1.12.416-1.792.416-1.098 0-1.968-.304-2.608-.912-.629-.619-.944-1.52-.944-2.704v-4.88H46.5v4.768c0 .885.219 1.557.656 2.016.438.459 1.062.688 1.872.688.886 0 1.584-.267 2.096-.8.512-.544.768-1.296.768-2.256v-4.416h1.136Zm10.862-3.456V457h-1.088v-1.664a3.454 3.454 0 0 1-1.36 1.296c-.555.299-1.184.448-1.888.448-.79 0-1.504-.181-2.144-.544a3.888 3.888 0 0 1-1.504-1.52c-.363-.651-.544-1.392-.544-2.224 0-.832.181-1.573.544-2.224a3.777 3.777 0 0 1 1.504-1.504c.64-.363 1.355-.544 2.144-.544.683 0 1.296.144 1.84.432a3.423 3.423 0 0 1 1.36 1.232v-5.056h1.136Zm-4.24 10.944c.587 0 1.115-.133 1.584-.4.48-.277.853-.667 1.12-1.168.277-.501.416-1.072.416-1.712 0-.64-.139-1.211-.416-1.712a2.782 2.782 0 0 0-1.12-1.152 3.057 3.057 0 0 0-1.584-.416c-.597 0-1.136.139-1.616.416a2.91 2.91 0 0 0-1.12 1.152c-.267.501-.4 1.072-.4 1.712 0 .64.133 1.211.4 1.712.277.501.65.891 1.12 1.168.48.267 1.019.4 1.616.4Zm10.348-7.552c1.098 0 1.941.277 2.528.832.586.544.88 1.355.88 2.432V457h-1.088v-1.312c-.256.437-.635.779-1.136 1.024-.49.245-1.078.368-1.76.368-.939 0-1.686-.224-2.24-.672-.555-.448-.832-1.04-.832-1.776 0-.715.256-1.291.768-1.728.522-.437 1.35-.656 2.48-.656h2.672v-.512c0-.725-.203-1.275-.608-1.648-.406-.384-.998-.576-1.776-.576-.534 0-1.046.091-1.536.272a3.78 3.78 0 0 0-1.264.72l-.512-.848a4.43 4.43 0 0 1 1.536-.832 5.827 5.827 0 0 1 1.888-.304Zm-.4 7.664c.64 0 1.19-.144 1.648-.432.458-.299.8-.725 1.024-1.28v-1.376h-2.64c-1.44 0-2.16.501-2.16 1.504 0 .491.186.88.56 1.168.373.277.896.416 1.568.416Z"/><path fill="#2A2A2A" d="M353.146 460.646a.5.5 0 0 0 .708.707l9-9a.5.5 0 0 0 0-.707l-9-9a.5.5 0 0 0-.707.707l8.646 8.647-8.647 8.646Z"/><rect width="358" height="32" x="20" y="488" fill="#CDE4E6" rx="10"/><path fill="#000" d="M32 498.824h-3.936V497.8h9.056v1.024h-3.936V509H32v-10.176Zm9.247 1.696c1.098 0 1.941.277 2.528.832.586.544.88 1.355.88 2.432V509h-1.088v-1.312c-.256.437-.635.779-1.136 1.024-.49.245-1.078.368-1.76.368-.939 0-1.686-.224-2.24-.672-.555-.448-.832-1.04-.832-1.776 0-.715.256-1.291.768-1.728.522-.437 1.35-.656 2.48-.656h2.672v-.512c0-.725-.203-1.275-.608-1.648-.406-.384-.998-.576-1.776-.576-.534 0-1.046.091-1.536.272a3.78 3.78 0 0 0-1.264.72l-.512-.848a4.43 4.43 0 0 1 1.536-.832 5.827 5.827 0 0 1 1.888-.304Zm-.4 7.664c.64 0 1.19-.144 1.648-.432.458-.299.8-.725 1.024-1.28v-1.376h-2.64c-1.44 0-2.16.501-2.16 1.504 0 .491.186.88.56 1.168.373.277.896.416 1.568.416Zm11.181-7.664c1.056 0 1.894.309 2.512.928.63.608.944 1.499.944 2.672V509h-1.136v-4.768c0-.875-.218-1.541-.656-2-.437-.459-1.061-.688-1.872-.688-.906 0-1.626.272-2.16.816-.522.533-.784 1.275-.784 2.224V509H47.74v-8.416h1.088v1.552a3.12 3.12 0 0 1 1.28-1.184c.555-.288 1.195-.432 1.92-.432Zm10.06 8.56c-.832 0-1.579-.181-2.24-.544a3.97 3.97 0 0 1-1.536-1.52c-.374-.661-.56-1.403-.56-2.224 0-.821.186-1.557.56-2.208a3.97 3.97 0 0 1 1.536-1.52c.661-.363 1.408-.544 2.24-.544.725 0 1.37.144 1.936.432a3.166 3.166 0 0 1 1.36 1.232l-.848.576a2.595 2.595 0 0 0-1.056-.928 3.073 3.073 0 0 0-1.392-.32c-.608 0-1.158.139-1.648.416-.48.267-.859.651-1.136 1.152-.267.501-.4 1.072-.4 1.712 0 .651.133 1.227.4 1.728.277.491.656.875 1.136 1.152.49.267 1.04.4 1.648.4a3.2 3.2 0 0 0 1.392-.304 2.595 2.595 0 0 0 1.056-.928l.848.576a3.27 3.27 0 0 1-1.36 1.248c-.576.277-1.222.416-1.936.416Zm8.471-8.56c1.099 0 1.942.277 2.528.832.587.544.88 1.355.88 2.432V509H72.88v-1.312c-.256.437-.634.779-1.136 1.024-.49.245-1.077.368-1.76.368-.938 0-1.685-.224-2.24-.672-.554-.448-.832-1.04-.832-1.776 0-.715.256-1.291.768-1.728.523-.437 1.35-.656 2.48-.656h2.672v-.512c0-.725-.202-1.275-.608-1.648-.405-.384-.997-.576-1.776-.576-.533 0-1.045.091-1.536.272a3.78 3.78 0 0 0-1.264.72l-.512-.848a4.43 4.43 0 0 1 1.536-.832 5.827 5.827 0 0 1 1.888-.304Zm-.4 7.664c.64 0 1.19-.144 1.648-.432.459-.299.8-.725 1.024-1.28v-1.376h-2.64c-1.44 0-2.16.501-2.16 1.504 0 .491.187.88.56 1.168.374.277.896.416 1.568.416Zm7.982-5.952a2.765 2.765 0 0 1 1.184-1.28c.533-.288 1.19-.432 1.968-.432v1.104l-.272-.016c-.886 0-1.579.272-2.08.816-.502.544-.752 1.307-.752 2.288V509h-1.136v-8.416h1.088v1.648Zm11.777 6.848a6.707 6.707 0 0 1-1.968-.288c-.618-.203-1.104-.453-1.456-.752l.512-.896c.352.277.795.507 1.328.688a5.416 5.416 0 0 0 1.664.256c.768 0 1.334-.117 1.696-.352.373-.245.56-.587.56-1.024 0-.309-.101-.549-.304-.72a1.88 1.88 0 0 0-.768-.4 9.625 9.625 0 0 0-1.232-.272 15.579 15.579 0 0 1-1.648-.384 2.548 2.548 0 0 1-1.072-.688c-.288-.32-.432-.763-.432-1.328 0-.704.293-1.28.88-1.728.587-.448 1.403-.672 2.448-.672.544 0 1.088.075 1.632.224.544.139.992.325 1.344.56l-.496.912c-.693-.48-1.52-.72-2.48-.72-.725 0-1.275.128-1.648.384-.362.256-.544.592-.544 1.008 0 .32.102.576.304.768.213.192.475.336.784.432.31.085.736.176 1.28.272.672.128 1.21.256 1.616.384.405.128.752.347 1.04.656.288.309.432.736.432 1.28 0 .736-.31 1.323-.928 1.76-.608.427-1.456.64-2.544.64Zm12.9-3.936h-7.04c.064.875.4 1.584 1.008 2.128.608.533 1.376.8 2.304.8.523 0 1.003-.091 1.44-.272a3.221 3.221 0 0 0 1.136-.832l.64.736a3.588 3.588 0 0 1-1.408 1.024 4.666 4.666 0 0 1-1.84.352c-.864 0-1.632-.181-2.304-.544A4.046 4.046 0 0 1 95.202 507c-.373-.651-.56-1.387-.56-2.208 0-.821.176-1.557.528-2.208a3.955 3.955 0 0 1 1.472-1.52 4.153 4.153 0 0 1 2.112-.544c.779 0 1.478.181 2.096.544a3.84 3.84 0 0 1 1.456 1.52c.352.64.528 1.376.528 2.208l-.016.352Zm-4.064-3.648c-.81 0-1.493.261-2.048.784-.544.512-.853 1.184-.928 2.016h5.968c-.074-.832-.389-1.504-.944-2.016-.544-.523-1.226-.784-2.048-.784Zm8.649 7.584a6.703 6.703 0 0 1-1.968-.288c-.619-.203-1.104-.453-1.456-.752l.512-.896c.352.277.794.507 1.328.688a5.415 5.415 0 0 0 1.664.256c.768 0 1.333-.117 1.696-.352.373-.245.56-.587.56-1.024 0-.309-.102-.549-.304-.72a1.886 1.886 0 0 0-.768-.4 9.653 9.653 0 0 0-1.232-.272 15.555 15.555 0 0 1-1.648-.384 2.544 2.544 0 0 1-1.072-.688c-.288-.32-.432-.763-.432-1.328 0-.704.293-1.28.88-1.728.586-.448 1.402-.672 2.448-.672.544 0 1.088.075 1.632.224.544.139.992.325 1.344.56l-.496.912c-.694-.48-1.52-.72-2.48-.72-.726 0-1.275.128-1.648.384-.363.256-.544.592-.544 1.008 0 .32.101.576.304.768.213.192.474.336.784.432.309.085.736.176 1.279.272.673.128 1.211.256 1.617.384.405.128.752.347 1.04.656.288.309.432.736.432 1.28 0 .736-.31 1.323-.928 1.76-.608.427-1.456.64-2.544.64Zm7.828 0a6.703 6.703 0 0 1-1.968-.288c-.619-.203-1.104-.453-1.456-.752l.512-.896c.352.277.794.507 1.328.688a5.415 5.415 0 0 0 1.664.256c.768 0 1.333-.117 1.696-.352.373-.245.56-.587.56-1.024 0-.309-.102-.549-.304-.72a1.886 1.886 0 0 0-.768-.4 9.653 9.653 0 0 0-1.232-.272 15.555 15.555 0 0 1-1.648-.384 2.544 2.544 0 0 1-1.072-.688c-.288-.32-.432-.763-.432-1.328 0-.704.293-1.28.88-1.728.586-.448 1.402-.672 2.448-.672.544 0 1.088.075 1.632.224.544.139.992.325 1.344.56l-.496.912c-.694-.48-1.52-.72-2.48-.72-.726 0-1.275.128-1.648.384-.363.256-.544.592-.544 1.008 0 .32.101.576.304.768.213.192.474.336.784.432.309.085.736.176 1.28.272.672.128 1.21.256 1.616.384.405.128.752.347 1.04.656.288.309.432.736.432 1.28 0 .736-.31 1.323-.928 1.76-.608.427-1.456.64-2.544.64Zm5.572-8.496h1.136V509h-1.136v-8.416Zm.576-1.84a.804.804 0 0 1-.592-.24.786.786 0 0 1-.24-.576c0-.213.08-.4.24-.56.16-.16.357-.24.592-.24.234 0 .432.08.592.24.16.149.24.331.24.544 0 .235-.08.432-.24.592a.805.805 0 0 1-.592.24Zm7.161 10.336c-.811 0-1.542-.181-2.192-.544a4.074 4.074 0 0 1-1.536-1.536c-.374-.651-.56-1.387-.56-2.208 0-.821.186-1.557.56-2.208a3.964 3.964 0 0 1 1.536-1.52c.65-.363 1.381-.544 2.192-.544.81 0 1.541.181 2.192.544.65.363 1.157.869 1.52 1.52.373.651.56 1.387.56 2.208 0 .821-.187 1.557-.56 2.208a3.97 3.97 0 0 1-1.52 1.536c-.651.363-1.382.544-2.192.544Zm0-1.008c.597 0 1.13-.133 1.6-.4.48-.277.853-.667 1.12-1.168.266-.501.4-1.072.4-1.712 0-.64-.134-1.211-.4-1.712a2.784 2.784 0 0 0-1.12-1.152 3.09 3.09 0 0 0-1.6-.416c-.598 0-1.136.139-1.616.416a2.91 2.91 0 0 0-1.12 1.152c-.267.501-.4 1.072-.4 1.712 0 .64.133 1.211.4 1.712.277.501.65.891 1.12 1.168.48.267 1.018.4 1.616.4Zm1.136-10.784h1.52l-2.592 1.984h-1.12l2.192-1.984Z"/><path fill="#2A2A2A" d="M353.146 512.646a.5.5 0 0 0 .708.707l9-9a.5.5 0 0 0 0-.707l-9-9a.5.5 0 0 0-.707.707l8.646 8.647-8.647 8.646Z"/><rect width="397" height="539" x="0.5" y="0.5" stroke="#9747FF" stroke-dasharray="10 5" rx="4.5"/></svg>