<svg xmlns="http://www.w3.org/2000/svg" width="398" height="517" fill="none" viewBox="0 0 398 517"><rect width="358" height="85" x="2" y="300" fill="#CDE4E6" rx="10"/><path fill="#5FA9AE" d="M2 310c0-5.523 4.477-10 10-10h338c5.523 0 10 4.477 10 10v21H2v-21Z"/><path fill="#FDFDFD" d="M14.576 311.8V323h-2.08v-9.456h-2.368V311.8h4.448Zm6.99 4.624c1.034.128 1.824.48 2.368 1.056.544.576.816 1.296.816 2.16 0 .651-.166 1.243-.496 1.776-.33.533-.832.96-1.504 1.28-.662.309-1.472.464-2.432.464a8.03 8.03 0 0 1-2.32-.336c-.736-.235-1.366-.555-1.888-.96l.896-1.616a4.67 4.67 0 0 0 1.472.816c.586.192 1.19.288 1.808.288.736 0 1.312-.149 1.728-.448.426-.309.64-.725.64-1.248s-.203-.928-.608-1.216c-.395-.299-1.003-.448-1.824-.448h-1.024v-1.424l2.544-3.024h-5.088V311.8h7.632v1.392l-2.72 3.232Zm8.64-6.896h1.792l-5.28 15.072h-1.792l5.28-15.072Zm6.198 2.272V323h-2.08v-9.456h-2.368V311.8h4.448Zm10.334 9.44V323h-8.256v-1.392l4.448-4.224c.501-.48.837-.896 1.008-1.248a2.39 2.39 0 0 0 .272-1.072c0-.523-.176-.923-.528-1.2-.352-.277-.87-.416-1.552-.416-1.142 0-2.016.389-2.624 1.168l-1.456-1.12c.437-.587 1.024-1.04 1.76-1.36.746-.331 1.578-.496 2.496-.496 1.216 0 2.187.288 2.912.864.725.576 1.088 1.36 1.088 2.352 0 .608-.128 1.179-.384 1.712-.256.533-.747 1.141-1.472 1.824l-2.992 2.848h5.28Zm5.453-11.712h1.792l-5.28 15.072H46.91l5.28-15.072Zm9.953 11.712V323h-8.256v-1.392l4.448-4.224c.502-.48.837-.896 1.008-1.248a2.39 2.39 0 0 0 .272-1.072c0-.523-.176-.923-.528-1.2-.352-.277-.87-.416-1.552-.416-1.141 0-2.016.389-2.624 1.168l-1.456-1.12c.438-.587 1.024-1.04 1.76-1.36.747-.331 1.579-.496 2.496-.496 1.216 0 2.187.288 2.912.864.725.576 1.088 1.36 1.088 2.352 0 .608-.128 1.179-.384 1.712-.256.533-.747 1.141-1.472 1.824l-2.992 2.848h5.28Zm5.826 1.92c-.896 0-1.696-.224-2.4-.672-.704-.459-1.259-1.12-1.664-1.984-.406-.875-.608-1.909-.608-3.104s.202-2.224.608-3.088c.405-.875.96-1.536 1.664-1.984.704-.459 1.504-.688 2.4-.688.896 0 1.696.229 2.4.688.714.448 1.274 1.109 1.68 1.984.405.864.608 1.893.608 3.088s-.203 2.229-.608 3.104c-.406.864-.966 1.525-1.68 1.984-.704.448-1.504.672-2.4.672Zm0-1.808c.8 0 1.43-.331 1.888-.992.47-.661.704-1.648.704-2.96s-.235-2.299-.704-2.96c-.459-.661-1.088-.992-1.888-.992-.79 0-1.419.331-1.888.992-.459.661-.688 1.648-.688 2.96s.23 2.299.688 2.96c.47.661 1.098.992 1.888.992Zm14.127-.112V323h-8.256v-1.392l4.448-4.224c.502-.48.838-.896 1.008-1.248.182-.363.272-.72.272-1.072 0-.523-.176-.923-.528-1.2-.352-.277-.87-.416-1.552-.416-1.141 0-2.016.389-2.624 1.168l-1.456-1.12c.438-.587 1.024-1.04 1.76-1.36.747-.331 1.579-.496 2.496-.496 1.216 0 2.187.288 2.912.864.726.576 1.088 1.36 1.088 2.352 0 .608-.128 1.179-.384 1.712-.256.533-.746 1.141-1.472 1.824l-2.992 2.848h5.28Zm9.313 0V323h-8.256v-1.392l4.448-4.224c.501-.48.837-.896 1.008-1.248a2.39 2.39 0 0 0 .272-1.072c0-.523-.176-.923-.528-1.2-.352-.277-.87-.416-1.552-.416-1.142 0-2.016.389-2.624 1.168l-1.456-1.12c.437-.587 1.024-1.04 1.76-1.36.746-.331 1.578-.496 2.496-.496 1.216 0 2.186.288 2.912.864.725.576 1.088 1.36 1.088 2.352 0 .608-.128 1.179-.384 1.712-.256.533-.747 1.141-1.472 1.824l-2.992 2.848h5.28Z"/><path fill="#111" d="M22.256 363.096a7.07 7.07 0 0 1-2.368-.4c-.747-.267-1.312-.608-1.696-1.024l.576-.928c.373.405.89.731 1.552.976a5.85 5.85 0 0 0 2.048.368c.992 0 1.787-.192 2.384-.576.608-.395.912-.939.912-1.632 0-.373-.112-.677-.336-.912a2.403 2.403 0 0 0-.848-.56 12.038 12.038 0 0 0-1.392-.48 17.212 17.212 0 0 1-1.696-.576 3.113 3.113 0 0 1-1.104-.832c-.299-.373-.448-.853-.448-1.44 0-.693.187-1.291.56-1.792.384-.512.912-.901 1.584-1.168.683-.277 1.461-.416 2.336-.416a7.06 7.06 0 0 1 1.92.256c.608.16 1.125.395 1.552.704l-.496.96a4.312 4.312 0 0 0-1.392-.672 5.6 5.6 0 0 0-1.648-.24c-.981 0-1.77.203-2.368.608-.597.405-.896.955-.896 1.648 0 .384.117.699.352.944s.523.443.864.592c.352.139.821.293 1.408.464.693.203 1.253.4 1.68.592.427.181.79.448 1.088.8.299.341.448.795.448 1.36 0 .704-.197 1.312-.592 1.824-.384.501-.923.885-1.616 1.152-.683.267-1.472.4-2.368.4Zm10.084-.016c-.768 0-1.44-.144-2.016-.432a3.308 3.308 0 0 1-1.344-1.248c-.31-.544-.464-1.173-.464-1.888 0-.949.208-1.803.624-2.56a4.54 4.54 0 0 1 1.728-1.776c.746-.437 1.584-.656 2.512-.656 1.173 0 2.101.32 2.784.96.693.64 1.04 1.504 1.04 2.592 0 .949-.208 1.808-.624 2.576a4.616 4.616 0 0 1-1.744 1.792c-.736.427-1.568.64-2.496.64Zm.08-1.008c.693 0 1.317-.165 1.872-.496a3.516 3.516 0 0 0 1.296-1.408c.32-.608.48-1.285.48-2.032 0-.821-.246-1.461-.736-1.92-.48-.469-1.158-.704-2.032-.704a3.5 3.5 0 0 0-1.872.512 3.6 3.6 0 0 0-1.312 1.424c-.31.597-.464 1.269-.464 2.016 0 .821.24 1.461.72 1.92.49.459 1.173.688 2.048.688Zm8.575-10.944h1.136L39.763 363h-1.136l2.368-11.872Zm4.377 11.952a6.494 6.494 0 0 1-1.936-.288c-.608-.192-1.078-.437-1.408-.736l.544-.896c.32.277.741.501 1.264.672a5.266 5.266 0 0 0 1.648.256c.8 0 1.413-.128 1.84-.384.437-.267.656-.64.656-1.12a.81.81 0 0 0-.272-.64 1.707 1.707 0 0 0-.64-.368c-.256-.085-.63-.181-1.12-.288a12.288 12.288 0 0 1-1.424-.384 2.275 2.275 0 0 1-.928-.608c-.256-.277-.384-.661-.384-1.152 0-.8.33-1.435.992-1.904.661-.48 1.547-.72 2.656-.72a5.64 5.64 0 0 1 1.584.224c.523.139.944.325 1.264.56l-.48.912a3.37 3.37 0 0 0-1.136-.528 4.597 4.597 0 0 0-1.328-.192c-.768 0-1.366.139-1.792.416-.427.277-.64.651-.64 1.12 0 .277.09.501.272.672.181.171.405.299.672.384.277.085.65.176 1.12.272.576.128 1.04.256 1.392.384.363.117.672.315.928.592.256.277.384.651.384 1.12 0 .821-.342 1.467-1.024 1.936-.672.459-1.574.688-2.704.688Zm11.392-2.624a3.862 3.862 0 0 0-.065.528c0 .747.406 1.12 1.217 1.12.48 0 .912-.144 1.296-.432l.271.864c-.48.363-1.103.544-1.871.544-.63 0-1.131-.171-1.505-.512-.362-.341-.544-.811-.544-1.408 0-.235.022-.453.064-.656l.976-4.96h-1.488l.176-.96h1.505l.367-1.84H58.3l-.368 1.84h2.56l-.192.96h-2.56l-.977 4.912Zm13.94-5.872L69.023 363h-1.088l.271-1.344c-.789.949-1.871 1.424-3.247 1.424-.94 0-1.675-.24-2.208-.72-.523-.491-.785-1.168-.785-2.032 0-.299.032-.613.096-.944l.96-4.8h1.136l-.96 4.8c-.053.299-.08.549-.08.752 0 .619.176 1.093.529 1.424.362.331.9.496 1.615.496.896 0 1.638-.251 2.224-.752.587-.501.982-1.232 1.184-2.192l.896-4.528h1.137Zm6.745 4.528a2.533 2.533 0 0 0-.016.336c0 .853.24 1.504.72 1.952.49.448 1.216.672 2.176.672.554 0 1.072-.091 1.552-.272.49-.192.89-.453 1.2-.784l.512.816c-.395.395-.891.704-1.488.928a5.446 5.446 0 0 1-1.872.32c-1.216 0-2.176-.32-2.88-.96-.694-.64-1.04-1.515-1.04-2.624 0-.939.197-1.787.592-2.544a4.534 4.534 0 0 1 1.664-1.776c.714-.437 1.514-.656 2.4-.656 1.12 0 2.01.32 2.672.96.661.629.992 1.499.992 2.608 0 .309-.038.651-.112 1.024h-7.072Zm3.488-3.632c-.843 0-1.563.251-2.16.752-.598.501-1.003 1.179-1.216 2.032h6a2.38 2.38 0 0 0 .016-.304c0-.789-.24-1.397-.72-1.824-.48-.437-1.12-.656-1.92-.656Zm7.56 7.6a6.494 6.494 0 0 1-1.936-.288c-.608-.192-1.078-.437-1.408-.736l.544-.896c.32.277.741.501 1.264.672a5.266 5.266 0 0 0 1.648.256c.8 0 1.413-.128 1.84-.384.437-.267.656-.64.656-1.12a.81.81 0 0 0-.272-.64 1.707 1.707 0 0 0-.64-.368c-.256-.085-.63-.181-1.12-.288a12.288 12.288 0 0 1-1.424-.384 2.275 2.275 0 0 1-.928-.608c-.256-.277-.384-.661-.384-1.152 0-.8.33-1.435.992-1.904.661-.48 1.547-.72 2.656-.72a5.64 5.64 0 0 1 1.584.224c.522.139.944.325 1.264.56l-.48.912a3.37 3.37 0 0 0-1.136-.528 4.597 4.597 0 0 0-1.328-.192c-.768 0-1.365.139-1.792.416-.427.277-.64.651-.64 1.12 0 .277.09.501.272.672.181.171.405.299.672.384.277.085.65.176 1.12.272.576.128 1.04.256 1.392.384.362.117.672.315.928.592.256.277.384.651.384 1.12 0 .821-.341 1.467-1.024 1.936-.672.459-1.573.688-2.704.688Zm7.204-2.624a3.862 3.862 0 0 0-.064.528c0 .747.405 1.12 1.216 1.12.48 0 .912-.144 1.296-.432l.272.864c-.48.363-1.104.544-1.872.544-.63 0-1.13-.171-1.504-.512-.363-.341-.544-.811-.544-1.408 0-.235.021-.453.064-.656l.976-4.96h-1.488l.176-.96h1.504l.368-1.84h1.136l-.368 1.84h2.56l-.192.96h-2.56l-.976 4.912Zm13.739-5.872L107.76 363h-1.088l.272-1.328a4.214 4.214 0 0 1-1.44 1.04 4.506 4.506 0 0 1-1.84.368c-.715 0-1.349-.144-1.904-.432a3.136 3.136 0 0 1-1.296-1.232c-.309-.544-.464-1.179-.464-1.904 0-.949.203-1.803.608-2.56a4.577 4.577 0 0 1 1.712-1.776c.725-.437 1.536-.656 2.432-.656.8 0 1.472.16 2.016.48.544.309.939.757 1.184 1.344l.352-1.76h1.136Zm-5.536 7.488c.693 0 1.317-.165 1.872-.496a3.51 3.51 0 0 0 1.296-1.408c.32-.608.48-1.285.48-2.032 0-.821-.245-1.461-.736-1.92-.48-.469-1.157-.704-2.032-.704-.693 0-1.317.171-1.872.512a3.598 3.598 0 0 0-1.312 1.424c-.309.597-.464 1.269-.464 2.016 0 .821.24 1.461.72 1.92.491.459 1.173.688 2.048.688Zm-.496-10.784h1.504l1.824 1.984H105.6l-2.192-1.984Zm9.964 11.792a6.496 6.496 0 0 1-1.936-.288c-.608-.192-1.077-.437-1.408-.736l.544-.896c.32.277.741.501 1.264.672a5.267 5.267 0 0 0 1.648.256c.8 0 1.413-.128 1.84-.384.437-.267.656-.64.656-1.12a.812.812 0 0 0-.272-.64 1.71 1.71 0 0 0-.64-.368 11.711 11.711 0 0 0-1.12-.288 12.293 12.293 0 0 1-1.424-.384 2.273 2.273 0 0 1-.928-.608c-.256-.277-.384-.661-.384-1.152 0-.8.331-1.435.992-1.904.661-.48 1.547-.72 2.656-.72a5.64 5.64 0 0 1 1.584.224c.523.139.944.325 1.264.56l-.48.912a3.372 3.372 0 0 0-1.136-.528 4.597 4.597 0 0 0-1.328-.192c-.768 0-1.365.139-1.792.416-.427.277-.64.651-.64 1.12 0 .277.091.501.272.672.181.171.405.299.672.384.277.085.651.176 1.12.272.576.128 1.04.256 1.392.384.363.117.672.315.928.592.256.277.384.651.384 1.12 0 .821-.341 1.467-1.024 1.936-.672.459-1.573.688-2.704.688Zm18.928-8.496L130.62 363h-1.088l.272-1.328a4.234 4.234 0 0 1-1.44 1.04 4.506 4.506 0 0 1-1.84.368c-.715 0-1.35-.144-1.904-.432a3.136 3.136 0 0 1-1.296-1.232c-.31-.544-.464-1.179-.464-1.904 0-.949.202-1.803.608-2.56a4.57 4.57 0 0 1 1.712-1.776c.725-.437 1.536-.656 2.432-.656.8 0 1.472.16 2.016.48.544.309.938.757 1.184 1.344l.352-1.76h1.136Zm-5.536 7.488c.693 0 1.317-.165 1.872-.496a3.525 3.525 0 0 0 1.296-1.408c.32-.608.479-1.285.479-2.032 0-.821-.245-1.461-.735-1.92-.48-.469-1.158-.704-2.032-.704a3.5 3.5 0 0 0-1.872.512 3.598 3.598 0 0 0-1.312 1.424c-.31.597-.464 1.269-.464 2.016 0 .821.24 1.461.72 1.92.49.459 1.173.688 2.048.688Zm9.387-10.944h1.136L134.919 363h-1.136l2.368-11.872Zm7.941 9.328a3.813 3.813 0 0 0-.064.528c0 .747.405 1.12 1.216 1.12.48 0 .912-.144 1.296-.432l.272.864c-.48.363-1.104.544-1.872.544-.63 0-1.131-.171-1.504-.512-.363-.341-.544-.811-.544-1.408 0-.235.021-.453.064-.656l.976-4.96h-1.488l.176-.96h1.504l.368-1.84h1.136l-.368 1.84h2.56l-.192.96h-2.56l-.976 4.912Zm5.435-1.344a2.533 2.533 0 0 0-.016.336c0 .853.24 1.504.72 1.952.49.448 1.216.672 2.176.672.554 0 1.072-.091 1.552-.272.49-.192.89-.453 1.2-.784l.512.816c-.395.395-.891.704-1.488.928a5.446 5.446 0 0 1-1.872.32c-1.216 0-2.176-.32-2.88-.96-.694-.64-1.04-1.515-1.04-2.624 0-.939.197-1.787.592-2.544a4.531 4.531 0 0 1 1.664-1.776c.714-.437 1.514-.656 2.4-.656 1.12 0 2.01.32 2.672.96.661.629.992 1.499.992 2.608 0 .309-.038.651-.112 1.024h-7.072Zm3.488-3.632c-.843 0-1.563.251-2.16.752-.598.501-1.003 1.179-1.216 2.032h6a2.38 2.38 0 0 0 .016-.304c0-.789-.24-1.397-.72-1.824-.48-.437-1.12-.656-1.92-.656Zm14.376-.896-1.68 8.416h-1.088l.272-1.344c-.789.949-1.872 1.424-3.248 1.424-.939 0-1.675-.24-2.208-.72-.523-.491-.784-1.168-.784-2.032 0-.299.032-.613.096-.944l.96-4.8h1.136l-.96 4.8c-.053.299-.08.549-.08.752 0 .619.176 1.093.528 1.424.363.331.901.496 1.616.496.896 0 1.637-.251 2.224-.752.587-.501.981-1.232 1.184-2.192l.896-4.528h1.136Zm9.497 8.496c-.789 0-1.477-.144-2.064-.432a3.283 3.283 0 0 1-1.36-1.248c-.309-.544-.464-1.173-.464-1.888 0-.949.208-1.803.624-2.56a4.506 4.506 0 0 1 1.744-1.776c.747-.437 1.589-.656 2.528-.656.779 0 1.445.144 2 .432a2.963 2.963 0 0 1 1.312 1.248l-.96.56c-.48-.832-1.296-1.248-2.448-1.248-.693 0-1.323.171-1.888.512a3.628 3.628 0 0 0-1.312 1.408c-.309.597-.464 1.275-.464 2.032 0 .821.24 1.461.72 1.92.491.459 1.184.688 2.08.688.544 0 1.045-.101 1.504-.304a2.945 2.945 0 0 0 1.152-.912l.816.624c-.373.501-.875.896-1.504 1.184a4.879 4.879 0 0 1-2.016.416Zm14.427-8.496-1.68 8.416h-1.088l.272-1.328a4.214 4.214 0 0 1-1.44 1.04 4.506 4.506 0 0 1-1.84.368c-.715 0-1.349-.144-1.904-.432a3.136 3.136 0 0 1-1.296-1.232c-.309-.544-.464-1.179-.464-1.904 0-.949.203-1.803.608-2.56a4.577 4.577 0 0 1 1.712-1.776c.725-.437 1.536-.656 2.432-.656.8 0 1.472.16 2.016.48.544.309.939.757 1.184 1.344l.352-1.76h1.136Zm-5.536 7.488c.693 0 1.317-.165 1.872-.496a3.51 3.51 0 0 0 1.296-1.408c.32-.608.48-1.285.48-2.032 0-.821-.245-1.461-.736-1.92-.48-.469-1.157-.704-2.032-.704-.693 0-1.317.171-1.872.512a3.598 3.598 0 0 0-1.312 1.424c-.309.597-.464 1.269-.464 2.016 0 .821.24 1.461.72 1.92.491.459 1.173.688 2.048.688Zm12.78-7.552c.715 0 1.349.144 1.904.432a3.118 3.118 0 0 1 1.312 1.232c.309.533.464 1.163.464 1.888 0 .949-.208 1.808-.624 2.576a4.57 4.57 0 0 1-1.696 1.792c-.725.427-1.541.64-2.448.64-.8 0-1.472-.155-2.016-.464a2.773 2.773 0 0 1-1.184-1.376l-.96 4.864h-1.136l2.288-11.52h1.088l-.272 1.344a3.954 3.954 0 0 1 1.44-1.04 4.506 4.506 0 0 1 1.84-.368Zm-1.104 7.552c.693 0 1.312-.165 1.856-.496a3.51 3.51 0 0 0 1.296-1.408c.32-.597.48-1.275.48-2.032 0-.821-.245-1.461-.736-1.92-.48-.469-1.157-.704-2.032-.704-.693 0-1.317.171-1.872.512-.544.331-.976.8-1.296 1.408-.309.597-.464 1.275-.464 2.032 0 .821.24 1.461.72 1.92.491.459 1.173.688 2.048.688Z"/><rect width="358" height="75" x="20" y="20" fill="#5FA9AE" rx="10"/><path fill="#FDFDFD" d="M47.5 51.105c0-3.918 3.14-7.105 7-7.105s7.001 3.187 7.001 7.105c0 3.918-3.14 7.105-7 7.105s-7-3.188-7-7.105Zm12.765 8.627a3.18 3.18 0 0 0-2.338.31 6.975 6.975 0 0 1-6.852 0 3.2 3.2 0 0 0-2.339-.31C45.949 60.447 44 63.016 44 65.978v1.437c0 .906.238 1.793.69 2.566A2.089 2.089 0 0 0 46.49 71h16.02c.741 0 1.431-.39 1.8-1.02.452-.772.69-1.659.69-2.565v-1.437c.001-2.962-1.946-5.531-4.735-6.246ZM100.792 59l-.016-7.424-3.68 6.144h-.928l-3.68-6.048V59h-1.984V47.8h1.712l4.448 7.424 4.368-7.424h1.712l.016 11.2h-1.968Zm8.065-8.64c1.259 0 2.219.304 2.88.912.672.597 1.008 1.504 1.008 2.72V59h-1.888v-1.04c-.245.373-.597.661-1.056.864-.448.192-.992.288-1.632.288-.64 0-1.2-.107-1.68-.32-.48-.224-.853-.528-1.12-.912a2.388 2.388 0 0 1-.384-1.328c0-.768.283-1.381.848-1.84.576-.47 1.478-.704 2.704-.704h2.208v-.128c0-.597-.181-1.056-.544-1.376-.352-.32-.88-.48-1.584-.48-.48 0-.954.075-1.424.224-.458.15-.848.357-1.168.624l-.784-1.456c.448-.341.987-.603 1.616-.784a7.195 7.195 0 0 1 2-.272Zm-.272 7.296c.502 0 .944-.112 1.328-.336.395-.235.672-.565.832-.992v-.992h-2.064c-1.152 0-1.728.379-1.728 1.136 0 .363.144.65.432.864.288.213.688.32 1.2.32Zm8.631-5.952c.576-.896 1.589-1.344 3.04-1.344v1.904a2.539 2.539 0 0 0-.464-.048c-.779 0-1.387.23-1.824.688-.437.448-.656 1.099-.656 1.952V59h-2v-8.544h1.904v1.248Zm4.737-1.248h2V59h-2v-8.544Zm1.008-1.408a1.3 1.3 0 0 1-.912-.336 1.147 1.147 0 0 1-.368-.864c0-.341.122-.624.368-.848.245-.235.549-.352.912-.352.362 0 .666.112.912.336.245.213.368.485.368.816 0 .352-.123.65-.368.896-.235.235-.539.352-.912.352Zm6.881 1.312c1.258 0 2.218.304 2.88.912.672.597 1.008 1.504 1.008 2.72V59h-1.888v-1.04c-.246.373-.598.661-1.056.864-.448.192-.992.288-1.632.288-.64 0-1.2-.107-1.68-.32-.48-.224-.854-.528-1.12-.912a2.388 2.388 0 0 1-.384-1.328c0-.768.282-1.381.848-1.84.576-.47 1.477-.704 2.704-.704h2.208v-.128c0-.597-.182-1.056-.544-1.376-.352-.32-.88-.48-1.584-.48-.48 0-.955.075-1.424.224-.459.15-.848.357-1.168.624l-.784-1.456a4.848 4.848 0 0 1 1.616-.784 7.19 7.19 0 0 1 2-.272Zm-.272 7.296c.501 0 .944-.112 1.328-.336.394-.235.672-.565.832-.992v-.992h-2.064c-1.152 0-1.728.379-1.728 1.136 0 .363.144.65.432.864.288.213.688.32 1.2.32Zm18.988-4.384h1.968v4.464a6.256 6.256 0 0 1-2.016 1.056 7.735 7.735 0 0 1-2.368.368c-1.141 0-2.17-.245-3.088-.736a5.59 5.59 0 0 1-2.16-2.064c-.522-.875-.784-1.861-.784-2.96s.262-2.085.784-2.96a5.475 5.475 0 0 1 2.16-2.048c.928-.501 1.968-.752 3.12-.752.939 0 1.792.155 2.56.464a5.03 5.03 0 0 1 1.936 1.36l-1.312 1.28c-.853-.853-1.882-1.28-3.088-1.28-.789 0-1.493.165-2.112.496a3.687 3.687 0 0 0-1.44 1.392c-.341.597-.512 1.28-.512 2.048 0 .747.171 1.419.512 2.016a3.803 3.803 0 0 0 1.44 1.408c.619.341 1.318.512 2.096.512.875 0 1.643-.192 2.304-.576v-3.488Zm8.36 5.84c-.864 0-1.643-.187-2.336-.56A4.147 4.147 0 0 1 152.95 57c-.384-.672-.576-1.43-.576-2.272 0-.843.192-1.595.576-2.256a4.147 4.147 0 0 1 1.632-1.552c.693-.373 1.472-.56 2.336-.56.874 0 1.658.187 2.352.56a4.04 4.04 0 0 1 1.616 1.552c.394.661.592 1.413.592 2.256 0 .843-.198 1.6-.592 2.272a4.047 4.047 0 0 1-1.616 1.552c-.694.373-1.478.56-2.352.56Zm0-1.712c.736 0 1.344-.245 1.824-.736.48-.49.72-1.136.72-1.936s-.24-1.445-.72-1.936c-.48-.49-1.088-.736-1.824-.736s-1.344.245-1.824.736c-.47.49-.704 1.136-.704 1.936s.234 1.445.704 1.936c.48.49 1.088.736 1.824.736Zm11.32-7.04c1.077 0 1.941.315 2.592.944.651.63.976 1.563.976 2.8V59h-2v-4.64c0-.747-.176-1.307-.528-1.68-.352-.384-.853-.576-1.504-.576-.736 0-1.317.224-1.744.672-.427.437-.64 1.072-.64 1.904V59h-2v-8.544h1.904v1.104a3.131 3.131 0 0 1 1.248-.896c.501-.203 1.067-.304 1.696-.304Zm12.777 7.04V59h-7.376v-1.264l4.688-5.68h-4.592v-1.6h7.152v1.264l-4.704 5.68h4.832Zm5.108-7.04c1.259 0 2.219.304 2.88.912.672.597 1.008 1.504 1.008 2.72V59h-1.888v-1.04c-.245.373-.597.661-1.056.864-.448.192-.992.288-1.632.288-.64 0-1.2-.107-1.68-.32-.48-.224-.853-.528-1.12-.912a2.388 2.388 0 0 1-.384-1.328c0-.768.283-1.381.848-1.84.576-.47 1.477-.704 2.704-.704h2.208v-.128c0-.597-.181-1.056-.544-1.376-.352-.32-.88-.48-1.584-.48-.48 0-.955.075-1.424.224-.459.15-.848.357-1.168.624l-.784-1.456c.448-.341.987-.603 1.616-.784a7.19 7.19 0 0 1 2-.272Zm-.272 7.296c.501 0 .944-.112 1.328-.336.395-.235.672-.565.832-.992v-.992h-2.064c-1.152 0-1.728.379-1.728 1.136 0 .363.144.65.432.864.288.213.688.32 1.2.32Zm1.264-10.56h2.352l-2.784 2.192h-1.728l2.16-2.192Zm5.463.032h2V59h-2V47.128Zm12.657 7.648c0 .139-.011.336-.032.592h-6.704c.117.63.421 1.13.912 1.504.501.363 1.12.544 1.856.544.938 0 1.712-.31 2.32-.928l1.072 1.232c-.384.459-.87.805-1.456 1.04-.587.235-1.248.352-1.984.352-.939 0-1.766-.187-2.48-.56A4.098 4.098 0 0 1 197.075 57c-.384-.672-.576-1.43-.576-2.272 0-.832.186-1.579.56-2.24a4.069 4.069 0 0 1 1.584-1.568c.672-.373 1.429-.56 2.272-.56.832 0 1.573.187 2.224.56.661.363 1.173.88 1.536 1.552.373.661.56 1.43.56 2.304Zm-4.32-2.816c-.64 0-1.184.192-1.632.576-.438.373-.704.875-.8 1.504h4.848c-.086-.619-.347-1.12-.784-1.504-.438-.384-.982-.576-1.632-.576Zm12.835 5.44V59h-7.376v-1.264l4.688-5.68h-4.592v-1.6h7.152v1.264l-4.704 5.68h4.832Zm13.721-.992h-5.6L220.767 59h-2.144l5.04-11.2h2.048l5.056 11.2h-2.176l-1.12-2.592Zm-.688-1.632-2.112-4.896-2.096 4.896h4.208Zm7.121-3.072c.576-.896 1.589-1.344 3.04-1.344v1.904a2.548 2.548 0 0 0-.464-.048c-.779 0-1.387.23-1.824.688-.438.448-.656 1.099-.656 1.952V59h-2v-8.544h1.904v1.248Zm9.584-1.344c1.077 0 1.941.315 2.592.944.651.63.976 1.563.976 2.8V59h-2v-4.64c0-.747-.176-1.307-.528-1.68-.352-.384-.853-.576-1.504-.576-.736 0-1.317.224-1.744.672-.427.437-.64 1.072-.64 1.904V59h-2v-8.544h1.904v1.104a3.131 3.131 0 0 1 1.248-.896c.501-.203 1.067-.304 1.696-.304Zm9.369 0c1.259 0 2.219.304 2.88.912.672.597 1.008 1.504 1.008 2.72V59h-1.888v-1.04c-.245.373-.597.661-1.056.864-.448.192-.992.288-1.632.288-.64 0-1.2-.107-1.68-.32-.48-.224-.853-.528-1.12-.912a2.388 2.388 0 0 1-.384-1.328c0-.768.283-1.381.848-1.84.576-.47 1.478-.704 2.704-.704h2.208v-.128c0-.597-.181-1.056-.544-1.376-.352-.32-.88-.48-1.584-.48-.48 0-.954.075-1.424.224-.458.15-.848.357-1.168.624l-.784-1.456c.448-.341.987-.603 1.616-.784a7.195 7.195 0 0 1 2-.272Zm-.272 7.296c.502 0 .944-.112 1.328-.336.395-.235.672-.565.832-.992v-.992h-2.064c-1.152 0-1.728.379-1.728 1.136 0 .363.144.65.432.864.288.213.688.32 1.2.32Zm14.999-7.2V59h-1.904v-1.088c-.32.384-.72.683-1.2.896-.48.203-.997.304-1.552.304-1.141 0-2.043-.315-2.704-.944-.651-.64-.976-1.584-.976-2.832v-4.88h2v4.608c0 .768.171 1.344.512 1.728.352.373.848.56 1.488.56.715 0 1.28-.219 1.696-.656.427-.448.64-1.088.64-1.92v-4.32h2Z"/><rect width="397" height="114" x="0.5" y="0.5" stroke="#9747FF" stroke-dasharray="10 5" rx="4.5"/><rect width="171" height="126" x="2" y="150" fill="#CDE4E6" rx="10"/><path fill="#5FA9AE" d="M2 160c0-5.523 4.477-10 10-10h151c5.523 0 10 4.477 10 10v30H2v-30Z"/><path fill="#fff" d="M43.824 163.8h4.56c1.184 0 2.23.24 3.136.72a5.125 5.125 0 0 1 2.112 1.984c.501.843.752 1.808.752 2.896 0 1.088-.25 2.059-.752 2.912-.501.843-1.205 1.504-2.112 1.984-.907.469-1.952.704-3.136.704h-4.56v-11.2Zm4.496 10.176c.981 0 1.84-.192 2.576-.576a4.314 4.314 0 0 0 1.712-1.616c.405-.693.608-1.488.608-2.384 0-.896-.203-1.685-.608-2.368a4.174 4.174 0 0 0-1.712-1.616c-.736-.395-1.595-.592-2.576-.592h-3.312v9.152h3.312Zm11.427-7.456c1.098 0 1.941.277 2.528.832.586.544.88 1.355.88 2.432V175h-1.088v-1.312c-.256.437-.635.779-1.136 1.024-.49.245-1.078.368-1.76.368-.939 0-1.686-.224-2.24-.672-.555-.448-.832-1.04-.832-1.776 0-.715.256-1.291.768-1.728.522-.437 1.35-.656 2.48-.656h2.672v-.512c0-.725-.203-1.275-.608-1.648-.406-.384-.998-.576-1.776-.576-.534 0-1.046.091-1.536.272a3.78 3.78 0 0 0-1.264.72l-.512-.848a4.43 4.43 0 0 1 1.536-.832 5.827 5.827 0 0 1 1.888-.304Zm-.4 7.664c.64 0 1.19-.144 1.648-.432.458-.299.8-.725 1.024-1.28v-1.376h-2.64c-1.44 0-2.16.501-2.16 1.504 0 .491.186.88.56 1.168.373.277.896.416 1.568.416Zm11.325.304a2.24 2.24 0 0 1-.8.448c-.31.096-.634.144-.976.144-.79 0-1.397-.213-1.824-.64-.426-.427-.64-1.029-.64-1.808v-5.088h-1.504v-.96h1.504v-1.84h1.136v1.84h2.56v.96h-2.56v5.024c0 .501.123.885.368 1.152.256.256.619.384 1.088.384.235 0 .459-.037.672-.112.224-.075.416-.181.576-.32l.4.816Zm5.012-7.968c1.099 0 1.942.277 2.528.832.587.544.88 1.355.88 2.432V175h-1.088v-1.312c-.256.437-.634.779-1.136 1.024-.49.245-1.077.368-1.76.368-.938 0-1.685-.224-2.24-.672-.554-.448-.832-1.04-.832-1.776 0-.715.256-1.291.768-1.728.523-.437 1.35-.656 2.48-.656h2.672v-.512c0-.725-.202-1.275-.608-1.648-.405-.384-.997-.576-1.776-.576-.533 0-1.045.091-1.536.272a3.78 3.78 0 0 0-1.264.72l-.512-.848a4.43 4.43 0 0 1 1.536-.832 5.827 5.827 0 0 1 1.888-.304Zm-.4 7.664c.64 0 1.19-.144 1.648-.432.459-.299.8-.725 1.024-1.28v-1.376h-2.64c-1.44 0-2.16.501-2.16 1.504 0 .491.187.88.56 1.168.374.277.896.416 1.568.416Zm11.081-7.6h1.136V175h-1.136v-8.416Zm.576-1.84a.804.804 0 0 1-.592-.24.786.786 0 0 1-.24-.576c0-.213.08-.4.24-.56.16-.16.358-.24.592-.24.235 0 .432.08.592.24.16.149.24.331.24.544 0 .235-.08.432-.24.592a.804.804 0 0 1-.592.24Zm12.197 1.776c1.056 0 1.893.309 2.512.928.629.608.944 1.499.944 2.672V175h-1.136v-4.768c0-.875-.219-1.541-.656-2-.438-.459-1.062-.688-1.872-.688-.907 0-1.627.272-2.16.816-.523.533-.784 1.275-.784 2.224V175H94.85v-11.872h1.136v4.928a3.08 3.08 0 0 1 1.28-1.136c.544-.267 1.168-.4 1.872-.4Zm10.011 8.56c-.811 0-1.541-.181-2.192-.544a4.074 4.074 0 0 1-1.536-1.536c-.373-.651-.56-1.387-.56-2.208 0-.821.187-1.557.56-2.208a3.964 3.964 0 0 1 1.536-1.52c.651-.363 1.381-.544 2.192-.544.811 0 1.541.181 2.192.544a3.858 3.858 0 0 1 1.52 1.52c.373.651.56 1.387.56 2.208 0 .821-.187 1.557-.56 2.208a3.964 3.964 0 0 1-1.52 1.536c-.651.363-1.381.544-2.192.544Zm0-1.008c.597 0 1.131-.133 1.6-.4.48-.277.853-.667 1.12-1.168.267-.501.4-1.072.4-1.712 0-.64-.133-1.211-.4-1.712a2.784 2.784 0 0 0-1.12-1.152 3.088 3.088 0 0 0-1.6-.416c-.597 0-1.136.139-1.616.416a2.917 2.917 0 0 0-1.12 1.152c-.267.501-.4 1.072-.4 1.712 0 .64.133 1.211.4 1.712.277.501.651.891 1.12 1.168.48.267 1.019.4 1.616.4Zm7.679-5.84a2.77 2.77 0 0 1 1.184-1.28c.534-.288 1.19-.432 1.968-.432v1.104l-.272-.016c-.885 0-1.578.272-2.08.816-.501.544-.752 1.307-.752 2.288V175h-1.136v-8.416h1.088v1.648Zm8.138-1.712c1.098 0 1.941.277 2.528.832.586.544.88 1.355.88 2.432V175h-1.088v-1.312c-.256.437-.635.779-1.136 1.024-.491.245-1.078.368-1.76.368-.939 0-1.686-.224-2.24-.672-.555-.448-.832-1.04-.832-1.776 0-.715.256-1.291.768-1.728.522-.437 1.349-.656 2.48-.656h2.672v-.512c0-.725-.203-1.275-.608-1.648-.406-.384-.998-.576-1.776-.576-.534 0-1.046.091-1.536.272a3.77 3.77 0 0 0-1.264.72l-.512-.848c.426-.363.938-.64 1.536-.832a5.823 5.823 0 0 1 1.888-.304Zm-.4 7.664c.64 0 1.189-.144 1.648-.432.458-.299.8-.725 1.024-1.28v-1.376h-2.64c-1.44 0-2.16.501-2.16 1.504 0 .491.186.88.56 1.168.373.277.896.416 1.568.416Z"/><path fill="#111" d="M27.264 209.128V221h-1.088v-1.664a3.454 3.454 0 0 1-1.36 1.296c-.555.299-1.184.448-1.888.448-.79 0-1.504-.181-2.144-.544a3.888 3.888 0 0 1-1.504-1.52c-.363-.651-.544-1.392-.544-2.224 0-.832.181-1.573.544-2.224a3.777 3.777 0 0 1 1.504-1.504c.64-.363 1.355-.544 2.144-.544.683 0 1.296.144 1.84.432a3.423 3.423 0 0 1 1.36 1.232v-5.056h1.136Zm-4.24 10.944c.587 0 1.115-.133 1.584-.4.48-.277.853-.667 1.12-1.168.277-.501.416-1.072.416-1.712 0-.64-.139-1.211-.416-1.712a2.782 2.782 0 0 0-1.12-1.152 3.057 3.057 0 0 0-1.584-.416c-.597 0-1.136.139-1.616.416a2.91 2.91 0 0 0-1.12 1.152c-.267.501-.4 1.072-.4 1.712 0 .64.133 1.211.4 1.712.277.501.65.891 1.12 1.168.48.267 1.019.4 1.616.4Zm7.404-7.488h1.136V221h-1.136v-8.416Zm.576-1.84a.804.804 0 0 1-.592-.24.786.786 0 0 1-.24-.576c0-.213.08-.4.24-.56.16-.16.357-.24.592-.24.234 0 .432.08.592.24.16.149.24.331.24.544 0 .235-.08.432-.24.592a.804.804 0 0 1-.592.24Zm14.217 1.776c1.056 0 1.882.304 2.48.912.608.608.912 1.504.912 2.688V221h-1.136v-4.768c0-.875-.214-1.541-.64-2-.416-.459-1.008-.688-1.776-.688-.875 0-1.563.272-2.064.816-.502.533-.752 1.275-.752 2.224V221h-1.136v-4.768c0-.875-.214-1.541-.64-2-.416-.459-1.014-.688-1.792-.688-.864 0-1.552.272-2.064.816-.502.533-.752 1.275-.752 2.224V221h-1.136v-8.416h1.088v1.536a3.034 3.034 0 0 1 1.248-1.184c.533-.277 1.146-.416 1.84-.416.704 0 1.312.149 1.824.448.522.299.912.741 1.168 1.328A3.234 3.234 0 0 1 43.221 213c.586-.32 1.253-.48 2-.48Zm6.584 8.56a.83.83 0 0 1-.608-.256.88.88 0 0 1-.24-.624c0-.245.08-.448.24-.608a.83.83 0 0 1 .608-.256.83.83 0 0 1 .608.256c.171.16.256.363.256.608a.85.85 0 0 1-.256.624.83.83 0 0 1-.608.256Zm9.819-11.28V221H60.47v-10.176h-2.64V209.8h3.792Zm6.485 4.8c1.173.064 2.064.384 2.672.96.618.565.928 1.307.928 2.224 0 .64-.155 1.211-.464 1.712-.31.491-.768.88-1.376 1.168-.608.288-1.35.432-2.224.432-.81 0-1.579-.128-2.304-.384-.715-.267-1.29-.619-1.728-1.056l.56-.912c.373.384.87.699 1.488.944a5.54 5.54 0 0 0 1.984.352c.917 0 1.626-.197 2.128-.592.501-.405.752-.96.752-1.664 0-.693-.25-1.237-.752-1.632-.502-.395-1.259-.592-2.272-.592h-.8v-.848l3.104-3.888h-5.728V209.8h7.2v.816l-3.168 3.984Zm17.843-5.472V221h-1.088v-1.664a3.454 3.454 0 0 1-1.36 1.296c-.555.299-1.184.448-1.889.448-.789 0-1.503-.181-2.143-.544a3.888 3.888 0 0 1-1.504-1.52c-.363-.651-.544-1.392-.544-2.224 0-.832.18-1.573.543-2.224a3.777 3.777 0 0 1 1.505-1.504c.64-.363 1.354-.544 2.144-.544.682 0 1.296.144 1.84.432a3.423 3.423 0 0 1 1.36 1.232v-5.056h1.135Zm-4.24 10.944a3.15 3.15 0 0 0 1.584-.4c.48-.277.853-.667 1.12-1.168.277-.501.416-1.072.416-1.712 0-.64-.14-1.211-.416-1.712a2.782 2.782 0 0 0-1.12-1.152 3.057 3.057 0 0 0-1.585-.416c-.597 0-1.135.139-1.615.416a2.91 2.91 0 0 0-1.12 1.152c-.267.501-.4 1.072-.4 1.712 0 .64.133 1.211.4 1.712.277.501.65.891 1.12 1.168.48.267 1.018.4 1.615.4Zm14.731-2.928h-7.04c.064.875.4 1.584 1.008 2.128.608.533 1.376.8 2.304.8a3.73 3.73 0 0 0 1.44-.272 3.228 3.228 0 0 0 1.136-.832l.64.736a3.596 3.596 0 0 1-1.408 1.024 4.67 4.67 0 0 1-1.84.352c-.864 0-1.632-.181-2.304-.544A4.046 4.046 0 0 1 88.827 219c-.373-.651-.56-1.387-.56-2.208 0-.821.176-1.557.528-2.208a3.955 3.955 0 0 1 1.472-1.52 4.153 4.153 0 0 1 2.112-.544c.779 0 1.478.181 2.096.544a3.843 3.843 0 0 1 1.456 1.52c.352.64.528 1.376.528 2.208l-.016.352Zm-4.064-3.648c-.81 0-1.493.261-2.048.784-.544.512-.853 1.184-.928 2.016h5.968c-.074-.832-.39-1.504-.944-2.016-.544-.523-1.226-.784-2.048-.784Zm9.881 7.584c-.832 0-1.579-.181-2.24-.544a3.966 3.966 0 0 1-1.536-1.52c-.374-.661-.56-1.403-.56-2.224 0-.821.186-1.557.56-2.208a3.966 3.966 0 0 1 1.536-1.52c.661-.363 1.408-.544 2.24-.544.725 0 1.37.144 1.936.432a3.166 3.166 0 0 1 1.36 1.232l-.848.576a2.604 2.604 0 0 0-1.056-.928 3.075 3.075 0 0 0-1.392-.32c-.608 0-1.158.139-1.648.416-.48.267-.86.651-1.136 1.152-.267.501-.4 1.072-.4 1.712 0 .651.133 1.227.4 1.728.277.491.656.875 1.136 1.152.49.267 1.04.4 1.648.4a3.2 3.2 0 0 0 1.392-.304 2.604 2.604 0 0 0 1.056-.928l.848.576c-.331.544-.784.96-1.36 1.248-.576.277-1.222.416-1.936.416Zm12.715-3.936h-7.04c.064.875.4 1.584 1.008 2.128.608.533 1.376.8 2.304.8.522 0 1.002-.091 1.44-.272a3.23 3.23 0 0 0 1.136-.832l.64.736a3.603 3.603 0 0 1-1.408 1.024 4.671 4.671 0 0 1-1.84.352c-.864 0-1.632-.181-2.304-.544a4.04 4.04 0 0 1-1.552-1.536c-.374-.651-.56-1.387-.56-2.208 0-.821.176-1.557.528-2.208a3.948 3.948 0 0 1 1.472-1.52c.629-.363 1.333-.544 2.112-.544.778 0 1.477.181 2.096.544a3.847 3.847 0 0 1 1.456 1.52c.352.64.528 1.376.528 2.208l-.016.352Zm-4.064-3.648c-.811 0-1.494.261-2.048.784-.544.512-.854 1.184-.928 2.016h5.968c-.075-.832-.39-1.504-.944-2.016-.544-.523-1.227-.784-2.048-.784Zm16.888-.976c1.056 0 1.882.304 2.48.912.608.608.912 1.504.912 2.688V221h-1.136v-4.768c0-.875-.214-1.541-.64-2-.416-.459-1.008-.688-1.776-.688-.875 0-1.563.272-2.064.816-.502.533-.752 1.275-.752 2.224V221h-1.136v-4.768c0-.875-.214-1.541-.64-2-.416-.459-1.014-.688-1.792-.688-.864 0-1.552.272-2.064.816-.502.533-.752 1.275-.752 2.224V221h-1.136v-8.416h1.088v1.536a3.025 3.025 0 0 1 1.248-1.184c.533-.277 1.146-.416 1.84-.416.704 0 1.312.149 1.824.448.522.299.912.741 1.168 1.328a3.234 3.234 0 0 1 1.328-1.296c.586-.32 1.253-.48 2-.48Zm10.809 0c.789 0 1.504.181 2.144.544.64.352 1.141.853 1.504 1.504.362.651.544 1.392.544 2.224 0 .832-.182 1.573-.544 2.224a3.89 3.89 0 0 1-1.504 1.52c-.64.363-1.355.544-2.144.544-.704 0-1.339-.149-1.904-.448a3.48 3.48 0 0 1-1.344-1.296V221h-1.088v-11.872h1.136v5.056c.352-.544.8-.955 1.344-1.232a3.964 3.964 0 0 1 1.856-.432Zm-.08 7.552c.586 0 1.12-.133 1.6-.4.48-.277.853-.667 1.12-1.168.277-.501.416-1.072.416-1.712 0-.64-.139-1.211-.416-1.712a2.784 2.784 0 0 0-1.12-1.152 3.145 3.145 0 0 0-1.6-.416c-.598 0-1.136.139-1.617.416a2.914 2.914 0 0 0-1.119 1.152c-.267.501-.4 1.072-.4 1.712 0 .64.133 1.211.4 1.712.277.501.65.891 1.119 1.168.481.267 1.019.4 1.617.4Zm7.675-5.84a2.77 2.77 0 0 1 1.184-1.28c.534-.288 1.19-.432 1.968-.432v1.104l-.272-.016c-.885 0-1.578.272-2.08.816-.501.544-.752 1.307-.752 2.288V221h-1.136v-8.416h1.088v1.648Zm12.459 2.912h-7.04c.064.875.4 1.584 1.008 2.128.608.533 1.376.8 2.304.8.523 0 1.003-.091 1.44-.272a3.23 3.23 0 0 0 1.136-.832l.64.736a3.596 3.596 0 0 1-1.408 1.024 4.671 4.671 0 0 1-1.84.352c-.864 0-1.632-.181-2.304-.544a4.047 4.047 0 0 1-1.552-1.536c-.373-.651-.56-1.387-.56-2.208 0-.821.176-1.557.528-2.208a3.956 3.956 0 0 1 1.472-1.52c.629-.363 1.333-.544 2.112-.544.779 0 1.477.181 2.096.544a3.84 3.84 0 0 1 1.456 1.52c.352.64.528 1.376.528 2.208l-.016.352Zm-4.064-3.648c-.811 0-1.493.261-2.048.784-.544.512-.853 1.184-.928 2.016h5.968c-.075-.832-.389-1.504-.944-2.016-.544-.523-1.227-.784-2.048-.784ZM27.264 227.128V239h-1.088v-1.664a3.454 3.454 0 0 1-1.36 1.296c-.555.299-1.184.448-1.888.448-.79 0-1.504-.181-2.144-.544a3.888 3.888 0 0 1-1.504-1.52c-.363-.651-.544-1.392-.544-2.224 0-.832.181-1.573.544-2.224a3.777 3.777 0 0 1 1.504-1.504c.64-.363 1.355-.544 2.144-.544.683 0 1.296.144 1.84.432a3.423 3.423 0 0 1 1.36 1.232v-5.056h1.136Zm-4.24 10.944c.587 0 1.115-.133 1.584-.4.48-.277.853-.667 1.12-1.168.277-.501.416-1.072.416-1.712 0-.64-.139-1.211-.416-1.712a2.782 2.782 0 0 0-1.12-1.152 3.057 3.057 0 0 0-1.584-.416c-.597 0-1.136.139-1.616.416a2.91 2.91 0 0 0-1.12 1.152c-.267.501-.4 1.072-.4 1.712 0 .64.133 1.211.4 1.712.277.501.65.891 1.12 1.168.48.267 1.019.4 1.616.4Zm14.732-2.928h-7.04c.064.875.4 1.584 1.008 2.128.608.533 1.376.8 2.304.8a3.73 3.73 0 0 0 1.44-.272 3.228 3.228 0 0 0 1.136-.832l.64.736a3.596 3.596 0 0 1-1.408 1.024 4.67 4.67 0 0 1-1.84.352c-.864 0-1.632-.181-2.304-.544A4.046 4.046 0 0 1 30.14 237c-.374-.651-.56-1.387-.56-2.208 0-.821.176-1.557.528-2.208a3.955 3.955 0 0 1 1.472-1.52c.63-.363 1.333-.544 2.112-.544.778 0 1.477.181 2.096.544a3.843 3.843 0 0 1 1.456 1.52c.352.64.528 1.376.528 2.208l-.016.352Zm-4.064-3.648c-.81 0-1.494.261-2.048.784-.544.512-.854 1.184-.928 2.016h5.968c-.075-.832-.39-1.504-.944-2.016-.544-.523-1.227-.784-2.048-.784Zm17.475 6.48V239h-7.855v-.816l4.656-4.56c.586-.576.98-1.072 1.183-1.488a2.84 2.84 0 0 0 .32-1.28c0-.661-.229-1.173-.688-1.536-.447-.373-1.093-.56-1.936-.56-1.312 0-2.33.416-3.056 1.248l-.816-.704a4.304 4.304 0 0 1 1.664-1.184c.683-.277 1.451-.416 2.304-.416 1.142 0 2.043.272 2.705.816.671.533 1.008 1.269 1.008 2.208a3.8 3.8 0 0 1-.384 1.664c-.256.533-.742 1.147-1.456 1.84l-3.809 3.744h6.16Zm5.848 1.12c-.864 0-1.638-.229-2.32-.688-.672-.459-1.2-1.115-1.584-1.968-.374-.864-.56-1.877-.56-3.04s.186-2.171.56-3.024c.384-.864.912-1.525 1.584-1.984.682-.459 1.456-.688 2.32-.688.864 0 1.632.229 2.304.688.682.459 1.216 1.12 1.6 1.984.384.853.576 1.861.576 3.024s-.192 2.176-.576 3.04c-.384.853-.918 1.509-1.6 1.968-.672.459-1.44.688-2.304.688Zm0-1.056c.65 0 1.221-.181 1.712-.544.501-.363.89-.891 1.168-1.584.277-.693.416-1.531.416-2.512 0-.981-.139-1.819-.416-2.512-.278-.693-.667-1.221-1.168-1.584-.49-.363-1.062-.544-1.712-.544a2.87 2.87 0 0 0-1.728.544c-.49.363-.875.891-1.152 1.584-.278.693-.416 1.531-.416 2.512 0 .981.138 1.819.416 2.512.277.693.661 1.221 1.152 1.584a2.87 2.87 0 0 0 1.728.544Zm13.746-.064V239h-7.856v-.816l4.656-4.56c.587-.576.982-1.072 1.184-1.488a2.84 2.84 0 0 0 .32-1.28c0-.661-.23-1.173-.688-1.536-.448-.373-1.093-.56-1.936-.56-1.312 0-2.33.416-3.056 1.248l-.816-.704a4.304 4.304 0 0 1 1.664-1.184c.683-.277 1.45-.416 2.304-.416 1.142 0 2.043.272 2.704.816.672.533 1.008 1.269 1.008 2.208a3.8 3.8 0 0 1-.384 1.664c-.256.533-.741 1.147-1.456 1.84l-3.808 3.744h6.16Zm9.094 0V239h-7.856v-.816l4.656-4.56c.587-.576.981-1.072 1.184-1.488a2.84 2.84 0 0 0 .32-1.28c0-.661-.23-1.173-.688-1.536-.448-.373-1.093-.56-1.936-.56-1.312 0-2.33.416-3.056 1.248l-.816-.704a4.304 4.304 0 0 1 1.664-1.184c.683-.277 1.45-.416 2.304-.416 1.141 0 2.043.272 2.704.816.672.533 1.008 1.269 1.008 2.208a3.8 3.8 0 0 1-.384 1.664c-.256.533-.741 1.147-1.456 1.84l-3.808 3.744h6.16Zm2.482-.64c.245 0 .448.085.608.256.16.16.24.363.24.608 0 .128-.021.267-.064.416a3.42 3.42 0 0 1-.16.512l-.672 2.208h-.768l.544-2.32a.817.817 0 0 1-.416-.288.883.883 0 0 1-.16-.528c0-.245.08-.448.24-.608a.796.796 0 0 1 .608-.256ZM21.936 245.8V257h-1.152v-10.176h-2.64V245.8h3.792Zm9.093 5.328c.704.235 1.243.587 1.616 1.056.384.469.576 1.035.576 1.696 0 .651-.176 1.221-.528 1.712-.352.48-.858.853-1.52 1.12-.65.256-1.418.384-2.304.384-1.344 0-2.4-.288-3.168-.864-.768-.576-1.152-1.36-1.152-2.352 0-.672.182-1.237.544-1.696.374-.469.912-.821 1.616-1.056-.576-.224-1.013-.544-1.312-.96-.298-.427-.448-.928-.448-1.504 0-.907.352-1.627 1.056-2.16.715-.533 1.67-.8 2.864-.8.79 0 1.478.123 2.064.368.598.235 1.062.576 1.392 1.024.33.448.496.971.496 1.568 0 .576-.154 1.077-.464 1.504-.31.416-.752.736-1.328.96Zm-4.928-2.432c0 .619.246 1.109.736 1.472s1.168.544 2.032.544c.864 0 1.542-.181 2.032-.544.502-.363.752-.848.752-1.456 0-.629-.256-1.125-.768-1.488-.501-.363-1.173-.544-2.016-.544-.853 0-1.53.181-2.032.544-.49.363-.736.853-.736 1.472Zm2.768 7.424c.992 0 1.766-.203 2.32-.608.566-.405.848-.955.848-1.648s-.282-1.237-.848-1.632c-.554-.405-1.328-.608-2.32-.608-.981 0-1.754.203-2.32.608-.554.395-.832.939-.832 1.632 0 .704.278 1.259.832 1.664.555.395 1.328.592 2.32.592Zm6.811-5.856a.83.83 0 0 1-.608-.256.88.88 0 0 1-.24-.624c0-.245.08-.448.24-.608a.83.83 0 0 1 .608-.256.83.83 0 0 1 .608.256c.171.16.256.363.256.608a.85.85 0 0 1-.256.624.83.83 0 0 1-.608.256Zm0 6.816a.83.83 0 0 1-.608-.256.88.88 0 0 1-.24-.624c0-.245.08-.448.24-.608a.83.83 0 0 1 .608-.256.83.83 0 0 1 .608.256c.171.16.256.363.256.608a.85.85 0 0 1-.256.624.83.83 0 0 1-.608.256Zm6.991.016c-.864 0-1.637-.229-2.32-.688-.672-.459-1.2-1.115-1.584-1.968-.373-.864-.56-1.877-.56-3.04s.187-2.171.56-3.024c.384-.864.912-1.525 1.584-1.984.683-.459 1.456-.688 2.32-.688.864 0 1.632.229 2.304.688.683.459 1.216 1.12 1.6 1.984.384.853.576 1.861.576 3.024s-.192 2.176-.576 3.04c-.384.853-.917 1.509-1.6 1.968-.672.459-1.44.688-2.304.688Zm0-1.056c.65 0 1.221-.181 1.712-.544.501-.363.89-.891 1.168-1.584.277-.693.416-1.531.416-2.512 0-.981-.139-1.819-.416-2.512-.277-.693-.667-1.221-1.168-1.584-.49-.363-1.061-.544-1.712-.544a2.87 2.87 0 0 0-1.728.544c-.49.363-.875.891-1.152 1.584-.277.693-.416 1.531-.416 2.512 0 .981.139 1.819.416 2.512.277.693.661 1.221 1.152 1.584a2.87 2.87 0 0 0 1.728.544Zm10.594 1.056c-.864 0-1.638-.229-2.32-.688-.672-.459-1.2-1.115-1.584-1.968-.374-.864-.56-1.877-.56-3.04s.186-2.171.56-3.024c.384-.864.912-1.525 1.584-1.984.682-.459 1.456-.688 2.32-.688.864 0 1.632.229 2.304.688.682.459 1.216 1.12 1.6 1.984.384.853.576 1.861.576 3.024s-.192 2.176-.576 3.04c-.384.853-.918 1.509-1.6 1.968-.672.459-1.44.688-2.304.688Zm0-1.056c.65 0 1.221-.181 1.712-.544.501-.363.89-.891 1.168-1.584.277-.693.416-1.531.416-2.512 0-.981-.139-1.819-.416-2.512-.278-.693-.667-1.221-1.168-1.584-.49-.363-1.062-.544-1.712-.544a2.87 2.87 0 0 0-1.728.544c-.49.363-.875.891-1.152 1.584-.278.693-.416 1.531-.416 2.512 0 .981.138 1.819.416 2.512.277.693.661 1.221 1.152 1.584a2.87 2.87 0 0 0 1.728.544Zm9.485-3.792h8v.816h-8v-.816Zm16.124-6.448V257h-1.152v-10.176h-2.64V245.8h3.792Zm6.165-.096c1.482 0 2.618.491 3.408 1.472.79.971 1.184 2.347 1.184 4.128 0 1.248-.214 2.304-.64 3.168-.427.864-1.024 1.52-1.792 1.968-.768.437-1.664.656-2.688.656-1.11 0-1.995-.203-2.656-.608l.464-.928c.533.352 1.258.528 2.176.528 1.237 0 2.208-.389 2.912-1.168.704-.789 1.056-1.931 1.056-3.424 0-.277-.016-.581-.048-.912a3.06 3.06 0 0 1-1.328 1.424c-.608.331-1.307.496-2.096.496-.736 0-1.392-.139-1.968-.416a3.218 3.218 0 0 1-1.328-1.168c-.32-.512-.48-1.104-.48-1.776 0-.683.165-1.285.496-1.808.33-.523.784-.923 1.36-1.2.586-.288 1.242-.432 1.968-.432Zm.128 5.824c.565 0 1.061-.107 1.488-.32a2.51 2.51 0 0 0 1.024-.88c.245-.373.368-.789.368-1.248 0-.427-.118-.821-.352-1.184-.224-.363-.56-.656-1.008-.88-.448-.224-.982-.336-1.6-.336-.81 0-1.472.224-1.984.672-.502.437-.752 1.024-.752 1.76s.25 1.323.752 1.76c.512.437 1.2.656 2.064.656Zm6.998-1.264a.83.83 0 0 1-.608-.256.88.88 0 0 1-.24-.624c0-.245.08-.448.24-.608a.83.83 0 0 1 .608-.256.83.83 0 0 1 .608.256.8.8 0 0 1 .256.608.85.85 0 0 1-.256.624.83.83 0 0 1-.608.256Zm0 6.816a.83.83 0 0 1-.608-.256.88.88 0 0 1-.24-.624c0-.245.08-.448.24-.608a.83.83 0 0 1 .608-.256.83.83 0 0 1 .608.256.8.8 0 0 1 .256.608.85.85 0 0 1-.256.624.83.83 0 0 1-.608.256Zm6.99.016c-.864 0-1.637-.229-2.32-.688-.672-.459-1.2-1.115-1.584-1.968-.373-.864-.56-1.877-.56-3.04s.187-2.171.56-3.024c.384-.864.912-1.525 1.584-1.984.683-.459 1.456-.688 2.32-.688.864 0 1.632.229 2.304.688.683.459 1.216 1.12 1.6 1.984.384.853.576 1.861.576 3.024s-.192 2.176-.576 3.04c-.384.853-.917 1.509-1.6 1.968-.672.459-1.44.688-2.304.688Zm0-1.056c.651 0 1.222-.181 1.712-.544.502-.363.891-.891 1.168-1.584.278-.693.416-1.531.416-2.512 0-.981-.138-1.819-.416-2.512-.277-.693-.666-1.221-1.168-1.584-.49-.363-1.061-.544-1.712-.544a2.87 2.87 0 0 0-1.728.544c-.49.363-.874.891-1.152 1.584-.277.693-.416 1.531-.416 2.512 0 .981.139 1.819.416 2.512.278.693.662 1.221 1.152 1.584a2.87 2.87 0 0 0 1.728.544Zm10.594 1.056c-.864 0-1.637-.229-2.32-.688-.672-.459-1.2-1.115-1.584-1.968-.373-.864-.56-1.877-.56-3.04s.187-2.171.56-3.024c.384-.864.912-1.525 1.584-1.984.683-.459 1.456-.688 2.32-.688.864 0 1.632.229 2.304.688.683.459 1.216 1.12 1.6 1.984.384.853.576 1.861.576 3.024s-.192 2.176-.576 3.04c-.384.853-.917 1.509-1.6 1.968-.672.459-1.44.688-2.304.688Zm0-1.056c.651 0 1.221-.181 1.712-.544.501-.363.891-.891 1.168-1.584.277-.693.416-1.531.416-2.512 0-.981-.139-1.819-.416-2.512-.277-.693-.667-1.221-1.168-1.584-.491-.363-1.061-.544-1.712-.544s-1.227.181-1.728.544c-.491.363-.875.891-1.152 1.584-.277.693-.416 1.531-.416 2.512 0 .981.139 1.819.416 2.512.277.693.661 1.221 1.152 1.584a2.869 2.869 0 0 0 1.728.544Zm16.173 1.056c-1.109 0-2.112-.245-3.008-.736a5.485 5.485 0 0 1-2.096-2.032c-.501-.875-.752-1.851-.752-2.928s.251-2.048.752-2.912a5.415 5.415 0 0 1 2.112-2.048c.896-.491 1.899-.736 3.008-.736.832 0 1.6.139 2.304.416a4.77 4.77 0 0 1 1.792 1.216l-.752.752c-.874-.885-1.978-1.328-3.312-1.328-.885 0-1.69.203-2.416.608a4.501 4.501 0 0 0-1.712 1.664c-.405.704-.608 1.493-.608 2.368 0 .875.203 1.664.608 2.368a4.501 4.501 0 0 0 1.712 1.664 4.874 4.874 0 0 0 2.416.608c1.344 0 2.448-.448 3.312-1.344l.752.752a4.908 4.908 0 0 1-1.808 1.232 6.238 6.238 0 0 1-2.304.416Zm14.556-1.12V257h-7.92v-11.2h7.68v1.024h-6.496v3.984h5.792v1.008h-5.792v4.16h6.736Zm4.96-9.152h-3.936V245.8h9.056v1.024h-3.936V257h-1.184v-10.176Z"/><path fill="#FDFDFD" d="M22 160.5c-5.24 0-9.5 4.26-9.5 9.5s4.26 9.5 9.5 9.5 9.5-4.26 9.5-9.5-4.26-9.5-9.5-9.5Zm4 10.5h-4c-.55 0-1-.45-1-1v-5c0-.55.45-1 1-1s1 .45 1 1v4h3c.55 0 1 .45 1 1s-.45 1-1 1Z"/><rect width="171" height="126" x="189" y="150" fill="#CDE4E6" rx="10"/><path fill="#5FA9AE" d="M189 160c0-5.523 4.477-10 10-10h151c5.523 0 10 4.477 10 10v30H189v-30Z"/><path fill="#fff" d="M235.336 175.096c-1.451 0-2.581-.416-3.392-1.248-.811-.832-1.216-2.043-1.216-3.632V163.8h1.184v6.368c0 1.301.293 2.272.88 2.912.587.64 1.435.96 2.544.96 1.12 0 1.973-.32 2.56-.96.587-.64.88-1.611.88-2.912V163.8h1.152v6.416c0 1.589-.405 2.8-1.216 3.632-.8.832-1.925 1.248-3.376 1.248Zm12.256-8.576c.789 0 1.504.181 2.144.544.64.352 1.141.853 1.504 1.504s.544 1.392.544 2.224c0 .832-.181 1.573-.544 2.224a3.89 3.89 0 0 1-1.504 1.52c-.64.363-1.355.544-2.144.544-.704 0-1.339-.149-1.904-.448a3.48 3.48 0 0 1-1.344-1.296V175h-1.088v-11.872h1.136v5.056c.352-.544.8-.955 1.344-1.232a3.967 3.967 0 0 1 1.856-.432Zm-.08 7.552c.587 0 1.12-.133 1.6-.4.48-.277.853-.667 1.12-1.168.277-.501.416-1.072.416-1.712 0-.64-.139-1.211-.416-1.712a2.784 2.784 0 0 0-1.12-1.152 3.143 3.143 0 0 0-1.6-.416c-.597 0-1.136.139-1.616.416a2.917 2.917 0 0 0-1.12 1.152c-.267.501-.4 1.072-.4 1.712 0 .64.133 1.211.4 1.712.277.501.651.891 1.12 1.168.48.267 1.019.4 1.616.4Zm6.588-7.488h1.136V175H254.1v-8.416Zm.576-1.84a.804.804 0 0 1-.592-.24.786.786 0 0 1-.24-.576c0-.213.08-.4.24-.56.16-.16.357-.24.592-.24.234 0 .432.08.592.24.16.149.24.331.24.544 0 .235-.08.432-.24.592a.805.805 0 0 1-.592.24Zm7.209 10.336c-.832 0-1.579-.181-2.24-.544a3.964 3.964 0 0 1-1.536-1.52c-.374-.661-.56-1.403-.56-2.224 0-.821.186-1.557.56-2.208a3.964 3.964 0 0 1 1.536-1.52c.661-.363 1.408-.544 2.24-.544.725 0 1.37.144 1.936.432a3.166 3.166 0 0 1 1.36 1.232l-.848.576a2.604 2.604 0 0 0-1.056-.928 3.075 3.075 0 0 0-1.392-.32c-.608 0-1.158.139-1.648.416-.48.267-.859.651-1.136 1.152-.267.501-.4 1.072-.4 1.712 0 .651.133 1.227.4 1.728.277.491.656.875 1.136 1.152.49.267 1.04.4 1.648.4a3.2 3.2 0 0 0 1.392-.304 2.604 2.604 0 0 0 1.056-.928l.848.576c-.331.544-.784.96-1.36 1.248-.576.277-1.222.416-1.936.416Zm8.471-8.56c1.099 0 1.941.277 2.528.832.587.544.88 1.355.88 2.432V175h-1.088v-1.312c-.256.437-.635.779-1.136 1.024-.491.245-1.077.368-1.76.368-.939 0-1.685-.224-2.24-.672-.555-.448-.832-1.04-.832-1.776 0-.715.256-1.291.768-1.728.523-.437 1.349-.656 2.48-.656h2.672v-.512c0-.725-.203-1.275-.608-1.648-.405-.384-.997-.576-1.776-.576-.533 0-1.045.091-1.536.272a3.77 3.77 0 0 0-1.264.72l-.512-.848c.427-.363.939-.64 1.536-.832a5.827 5.827 0 0 1 1.888-.304Zm-.4 7.664c.64 0 1.189-.144 1.648-.432.459-.299.8-.725 1.024-1.28v-1.376h-2.64c-1.44 0-2.16.501-2.16 1.504 0 .491.187.88.56 1.168.373.277.896.416 1.568.416Zm10.413.896c-.832 0-1.579-.181-2.24-.544a3.964 3.964 0 0 1-1.536-1.52c-.373-.661-.56-1.403-.56-2.224 0-.821.187-1.557.56-2.208a3.964 3.964 0 0 1 1.536-1.52c.661-.363 1.408-.544 2.24-.544.725 0 1.371.144 1.936.432a3.166 3.166 0 0 1 1.36 1.232l-.848.576a2.591 2.591 0 0 0-1.056-.928 3.075 3.075 0 0 0-1.392-.32c-.608 0-1.157.139-1.648.416-.48.267-.859.651-1.136 1.152-.267.501-.4 1.072-.4 1.712 0 .651.133 1.227.4 1.728.277.491.656.875 1.136 1.152.491.267 1.04.4 1.648.4a3.2 3.2 0 0 0 1.392-.304 2.591 2.591 0 0 0 1.056-.928l.848.576c-.331.544-.784.96-1.36 1.248-.576.277-1.221.416-1.936.416Zm5.528-8.496h1.136V175h-1.136v-8.416Zm.576-1.84a.804.804 0 0 1-.592-.24.786.786 0 0 1-.24-.576c0-.213.08-.4.24-.56.16-.16.357-.24.592-.24.234 0 .432.08.592.24.16.149.24.331.24.544 0 .235-.08.432-.24.592a.805.805 0 0 1-.592.24Zm7.16 10.336c-.81 0-1.541-.181-2.192-.544a4.089 4.089 0 0 1-1.536-1.536c-.373-.651-.56-1.387-.56-2.208 0-.821.187-1.557.56-2.208a3.977 3.977 0 0 1 1.536-1.52c.651-.363 1.382-.544 2.192-.544.811 0 1.542.181 2.192.544a3.852 3.852 0 0 1 1.52 1.52c.374.651.56 1.387.56 2.208 0 .821-.186 1.557-.56 2.208a3.957 3.957 0 0 1-1.52 1.536c-.65.363-1.381.544-2.192.544Zm0-1.008c.598 0 1.131-.133 1.6-.4.48-.277.854-.667 1.12-1.168.267-.501.4-1.072.4-1.712 0-.64-.133-1.211-.4-1.712a2.778 2.778 0 0 0-1.12-1.152 3.086 3.086 0 0 0-1.6-.416c-.597 0-1.136.139-1.616.416a2.923 2.923 0 0 0-1.12 1.152c-.266.501-.4 1.072-.4 1.712 0 .64.134 1.211.4 1.712.278.501.651.891 1.12 1.168.48.267 1.019.4 1.616.4Zm1.136-10.784h1.52l-2.592 1.984h-1.12l2.192-1.984Z"/><path fill="#111" d="M214.712 215.4h1.136v4.272a5.46 5.46 0 0 1-1.856 1.056 6.911 6.911 0 0 1-2.256.368c-1.12 0-2.128-.245-3.024-.736a5.452 5.452 0 0 1-2.112-2.032c-.512-.875-.768-1.851-.768-2.928s.256-2.048.768-2.912a5.415 5.415 0 0 1 2.112-2.048c.896-.491 1.909-.736 3.04-.736.853 0 1.637.139 2.352.416a4.607 4.607 0 0 1 1.808 1.2l-.736.752c-.885-.875-2.011-1.312-3.376-1.312-.907 0-1.728.203-2.464.608a4.355 4.355 0 0 0-1.712 1.664c-.416.704-.624 1.493-.624 2.368 0 .875.208 1.664.624 2.368a4.501 4.501 0 0 0 1.712 1.664c.725.405 1.541.608 2.448.608 1.152 0 2.128-.288 2.928-.864V215.4Zm5.335-1.168a2.765 2.765 0 0 1 1.184-1.28c.533-.288 1.189-.432 1.968-.432v1.104l-.272-.016c-.885 0-1.579.272-2.08.816-.501.544-.752 1.307-.752 2.288V221h-1.136v-8.416h1.088v1.648Zm8.137-1.712c1.099 0 1.942.277 2.528.832.587.544.88 1.355.88 2.432V221h-1.088v-1.312c-.256.437-.634.779-1.136 1.024-.49.245-1.077.368-1.76.368-.938 0-1.685-.224-2.24-.672-.554-.448-.832-1.04-.832-1.776 0-.715.256-1.291.768-1.728.523-.437 1.35-.656 2.48-.656h2.672v-.512c0-.725-.202-1.275-.608-1.648-.405-.384-.997-.576-1.776-.576-.533 0-1.045.091-1.536.272a3.78 3.78 0 0 0-1.264.72l-.512-.848c.427-.363.939-.64 1.536-.832a5.831 5.831 0 0 1 1.888-.304Zm-.4 7.664c.64 0 1.19-.144 1.648-.432.459-.299.8-.725 1.024-1.28v-1.376h-2.64c-1.44 0-2.16.501-2.16 1.504 0 .491.187.88.56 1.168.374.277.896.416 1.568.416Zm11.182-7.664c1.056 0 1.893.309 2.512.928.629.608.944 1.499.944 2.672V221h-1.136v-4.768c0-.875-.219-1.541-.656-2-.438-.459-1.062-.688-1.872-.688-.907 0-1.627.272-2.16.816-.523.533-.784 1.275-.784 2.224V221h-1.136v-8.416h1.088v1.552a3.114 3.114 0 0 1 1.28-1.184c.554-.288 1.194-.432 1.92-.432Zm20.279-2.72-4.96 11.2h-1.168l-4.96-11.2h1.28l4.288 9.728 4.32-9.728h1.2Zm1.339 2.784h1.136V221h-1.136v-8.416Zm.576-1.84a.804.804 0 0 1-.592-.24.786.786 0 0 1-.24-.576c0-.213.08-.4.24-.56.16-.16.357-.24.592-.24s.432.08.592.24c.16.149.24.331.24.544 0 .235-.08.432-.24.592a.804.804 0 0 1-.592.24Zm6.665 1.776c1.099 0 1.941.277 2.528.832.587.544.88 1.355.88 2.432V221h-1.088v-1.312c-.256.437-.635.779-1.136 1.024-.491.245-1.077.368-1.76.368-.939 0-1.685-.224-2.24-.672-.555-.448-.832-1.04-.832-1.776 0-.715.256-1.291.768-1.728.523-.437 1.349-.656 2.48-.656h2.672v-.512c0-.725-.203-1.275-.608-1.648-.405-.384-.997-.576-1.776-.576-.533 0-1.045.091-1.536.272a3.77 3.77 0 0 0-1.264.72l-.512-.848c.427-.363.939-.64 1.536-.832a5.827 5.827 0 0 1 1.888-.304Zm-.4 7.664c.64 0 1.189-.144 1.648-.432.459-.299.8-.725 1.024-1.28v-1.376h-2.64c-1.44 0-2.16.501-2.16 1.504 0 .491.187.88.56 1.168.373.277.896.416 1.568.416Zm18.761-11.056V221h-1.088v-1.664a3.454 3.454 0 0 1-1.36 1.296c-.555.299-1.184.448-1.888.448-.789 0-1.504-.181-2.144-.544a3.89 3.89 0 0 1-1.504-1.52c-.363-.651-.544-1.392-.544-2.224 0-.832.181-1.573.544-2.224a3.779 3.779 0 0 1 1.504-1.504c.64-.363 1.355-.544 2.144-.544.683 0 1.296.144 1.84.432a3.421 3.421 0 0 1 1.36 1.232v-5.056h1.136Zm-4.24 10.944c.587 0 1.115-.133 1.584-.4.48-.277.853-.667 1.12-1.168.277-.501.416-1.072.416-1.712 0-.64-.139-1.211-.416-1.712a2.784 2.784 0 0 0-1.12-1.152 3.056 3.056 0 0 0-1.584-.416c-.597 0-1.136.139-1.616.416a2.917 2.917 0 0 0-1.12 1.152c-.267.501-.4 1.072-.4 1.712 0 .64.133 1.211.4 1.712.277.501.651.891 1.12 1.168.48.267 1.019.4 1.616.4Zm14.732-2.928h-7.04c.064.875.4 1.584 1.008 2.128.608.533 1.376.8 2.304.8.522 0 1.002-.091 1.44-.272a3.23 3.23 0 0 0 1.136-.832l.64.736a3.603 3.603 0 0 1-1.408 1.024 4.671 4.671 0 0 1-1.84.352c-.864 0-1.632-.181-2.304-.544a4.04 4.04 0 0 1-1.552-1.536c-.374-.651-.56-1.387-.56-2.208 0-.821.176-1.557.528-2.208a3.948 3.948 0 0 1 1.472-1.52c.629-.363 1.333-.544 2.112-.544.778 0 1.477.181 2.096.544a3.847 3.847 0 0 1 1.456 1.52c.352.64.528 1.376.528 2.208l-.016.352Zm-4.064-3.648c-.811 0-1.494.261-2.048.784-.544.512-.854 1.184-.928 2.016h5.968c-.075-.832-.39-1.504-.944-2.016-.544-.523-1.227-.784-2.048-.784Zm10.579-4.368h1.136V221h-1.136v-11.872Zm11.625 8.016h-7.04c.064.875.4 1.584 1.008 2.128.608.533 1.376.8 2.304.8.523 0 1.003-.091 1.44-.272a3.221 3.221 0 0 0 1.136-.832l.64.736a3.588 3.588 0 0 1-1.408 1.024 4.668 4.668 0 0 1-1.84.352c-.864 0-1.632-.181-2.304-.544a4.053 4.053 0 0 1-1.552-1.536c-.373-.651-.56-1.387-.56-2.208 0-.821.176-1.557.528-2.208a3.963 3.963 0 0 1 1.472-1.52 4.153 4.153 0 0 1 2.112-.544c.779 0 1.478.181 2.096.544a3.84 3.84 0 0 1 1.456 1.52c.352.64.528 1.376.528 2.208l-.016.352Zm-4.064-3.648c-.81 0-1.493.261-2.048.784-.544.512-.853 1.184-.928 2.016h5.968c-.074-.832-.389-1.504-.944-2.016-.544-.523-1.226-.784-2.048-.784Zm8.649 7.584a6.703 6.703 0 0 1-1.968-.288c-.619-.203-1.104-.453-1.456-.752l.512-.896c.352.277.794.507 1.328.688a5.415 5.415 0 0 0 1.664.256c.768 0 1.333-.117 1.696-.352.373-.245.56-.587.56-1.024 0-.309-.102-.549-.304-.72a1.886 1.886 0 0 0-.768-.4 9.653 9.653 0 0 0-1.232-.272 15.555 15.555 0 0 1-1.648-.384 2.544 2.544 0 0 1-1.072-.688c-.288-.32-.432-.763-.432-1.328 0-.704.293-1.28.88-1.728.586-.448 1.402-.672 2.448-.672.544 0 1.088.075 1.632.224.544.139.992.325 1.344.56l-.496.912c-.694-.48-1.52-.72-2.48-.72-.726 0-1.275.128-1.648.384-.363.256-.544.592-.544 1.008 0 .32.101.576.304.768.213.192.474.336.784.432.309.085.736.176 1.279.272.673.128 1.211.256 1.617.384.405.128.752.347 1.04.656.288.309.432.736.432 1.28 0 .736-.31 1.323-.928 1.76-.608.427-1.456.64-2.544.64Zm-107.715 18.016c-1.109 0-2.112-.245-3.008-.736a5.485 5.485 0 0 1-2.096-2.032c-.501-.875-.752-1.851-.752-2.928s.251-2.048.752-2.912a5.415 5.415 0 0 1 2.112-2.048c.896-.491 1.899-.736 3.008-.736.832 0 1.6.139 2.304.416a4.778 4.778 0 0 1 1.792 1.216l-.752.752c-.875-.885-1.979-1.328-3.312-1.328-.885 0-1.691.203-2.416.608a4.501 4.501 0 0 0-1.712 1.664c-.405.704-.608 1.493-.608 2.368 0 .875.203 1.664.608 2.368a4.501 4.501 0 0 0 1.712 1.664c.725.405 1.531.608 2.416.608 1.344 0 2.448-.448 3.312-1.344l.752.752a4.916 4.916 0 0 1-1.808 1.232 6.238 6.238 0 0 1-2.304.416Zm9.461-.016c-.811 0-1.541-.181-2.192-.544a4.074 4.074 0 0 1-1.536-1.536c-.373-.651-.56-1.387-.56-2.208 0-.821.187-1.557.56-2.208a3.964 3.964 0 0 1 1.536-1.52c.651-.363 1.381-.544 2.192-.544.811 0 1.541.181 2.192.544a3.858 3.858 0 0 1 1.52 1.52c.373.651.56 1.387.56 2.208 0 .821-.187 1.557-.56 2.208a3.964 3.964 0 0 1-1.52 1.536c-.651.363-1.381.544-2.192.544Zm0-1.008c.597 0 1.131-.133 1.6-.4.48-.277.853-.667 1.12-1.168.267-.501.4-1.072.4-1.712 0-.64-.133-1.211-.4-1.712a2.784 2.784 0 0 0-1.12-1.152 3.088 3.088 0 0 0-1.6-.416c-.597 0-1.136.139-1.616.416a2.917 2.917 0 0 0-1.12 1.152c-.267.501-.4 1.072-.4 1.712 0 .64.133 1.211.4 1.712.277.501.651.891 1.12 1.168.48.267 1.019.4 1.616.4Zm7.679-5.84a2.77 2.77 0 0 1 1.184-1.28c.534-.288 1.19-.432 1.968-.432v1.104l-.272-.016c-.885 0-1.578.272-2.08.816-.501.544-.752 1.307-.752 2.288V239h-1.136v-8.416h1.088v1.648Zm10.001 6.256c-.214.192-.48.341-.8.448-.31.096-.635.144-.976.144-.79 0-1.398-.213-1.824-.64-.427-.427-.64-1.029-.64-1.808v-5.088h-1.504v-.96h1.504v-1.84h1.136v1.84h2.56v.96h-2.56v5.024c0 .501.122.885.368 1.152.256.256.618.384 1.088.384.234 0 .458-.037.672-.112.224-.075.416-.181.576-.32l.4.816Zm4.324.592a6.703 6.703 0 0 1-1.968-.288c-.619-.203-1.104-.453-1.456-.752l.512-.896c.352.277.794.507 1.328.688a5.415 5.415 0 0 0 1.664.256c.768 0 1.333-.117 1.696-.352.373-.245.56-.587.56-1.024 0-.309-.102-.549-.304-.72a1.886 1.886 0 0 0-.768-.4 9.653 9.653 0 0 0-1.232-.272 15.555 15.555 0 0 1-1.648-.384 2.544 2.544 0 0 1-1.072-.688c-.288-.32-.432-.763-.432-1.328 0-.704.293-1.28.88-1.728.586-.448 1.402-.672 2.448-.672.544 0 1.088.075 1.632.224.544.139.992.325 1.344.56l-.496.912c-.694-.48-1.52-.72-2.48-.72-.726 0-1.275.128-1.648.384-.363.256-.544.592-.544 1.008 0 .32.101.576.304.768.213.192.474.336.784.432.309.085.736.176 1.279.272.673.128 1.211.256 1.617.384.405.128.752.347 1.04.656.288.309.432.736.432 1.28 0 .736-.31 1.323-.928 1.76-.608.427-1.456.64-2.544.64Zm14.863.016c-1.109 0-2.112-.245-3.008-.736a5.485 5.485 0 0 1-2.096-2.032c-.501-.875-.752-1.851-.752-2.928s.251-2.048.752-2.912a5.415 5.415 0 0 1 2.112-2.048c.896-.491 1.899-.736 3.008-.736.832 0 1.6.139 2.304.416a4.778 4.778 0 0 1 1.792 1.216l-.752.752c-.875-.885-1.979-1.328-3.312-1.328-.885 0-1.691.203-2.416.608a4.501 4.501 0 0 0-1.712 1.664c-.405.704-.608 1.493-.608 2.368 0 .875.203 1.664.608 2.368a4.501 4.501 0 0 0 1.712 1.664c.725.405 1.531.608 2.416.608 1.344 0 2.448-.448 3.312-1.344l.752.752a4.916 4.916 0 0 1-1.808 1.232 6.238 6.238 0 0 1-2.304.416Zm9.215-8.576c1.099 0 1.941.277 2.528.832.587.544.88 1.355.88 2.432V239h-1.088v-1.312c-.256.437-.635.779-1.136 1.024-.491.245-1.077.368-1.76.368-.939 0-1.685-.224-2.24-.672-.555-.448-.832-1.04-.832-1.776 0-.715.256-1.291.768-1.728.523-.437 1.349-.656 2.48-.656h2.672v-.512c0-.725-.203-1.275-.608-1.648-.405-.384-.997-.576-1.776-.576-.533 0-1.045.091-1.536.272a3.77 3.77 0 0 0-1.264.72l-.512-.848c.427-.363.939-.64 1.536-.832a5.827 5.827 0 0 1 1.888-.304Zm-.4 7.664c.64 0 1.189-.144 1.648-.432.459-.299.8-.725 1.024-1.28v-1.376h-2.64c-1.44 0-2.16.501-2.16 1.504 0 .491.187.88.56 1.168.373.277.896.416 1.568.416Zm11.326.304c-.214.192-.48.341-.8.448-.31.096-.635.144-.976.144-.79 0-1.398-.213-1.824-.64-.427-.427-.64-1.029-.64-1.808v-5.088h-1.504v-.96h1.504v-1.84h1.136v1.84h2.56v.96h-2.56v5.024c0 .501.122.885.368 1.152.256.256.618.384 1.088.384.234 0 .458-.037.672-.112.224-.075.416-.181.576-.32l.4.816Zm5.012-7.968c1.098 0 1.941.277 2.528.832.586.544.88 1.355.88 2.432V239h-1.088v-1.312c-.256.437-.635.779-1.136 1.024-.491.245-1.078.368-1.76.368-.939 0-1.686-.224-2.24-.672-.555-.448-.832-1.04-.832-1.776 0-.715.256-1.291.768-1.728.522-.437 1.349-.656 2.48-.656h2.672v-.512c0-.725-.203-1.275-.608-1.648-.406-.384-.998-.576-1.776-.576-.534 0-1.046.091-1.536.272a3.77 3.77 0 0 0-1.264.72l-.512-.848c.426-.363.938-.64 1.536-.832a5.823 5.823 0 0 1 1.888-.304Zm-.4 7.664c.64 0 1.189-.144 1.648-.432.458-.299.8-.725 1.024-1.28v-1.376h-2.64c-1.44 0-2.16.501-2.16 1.504 0 .491.186.88.56 1.168.373.277.896.416 1.568.416Zm6.893-11.056h1.136V239h-1.136v-11.872Zm7.241 3.392c1.099 0 1.941.277 2.528.832.587.544.88 1.355.88 2.432V239h-1.088v-1.312c-.256.437-.635.779-1.136 1.024-.491.245-1.077.368-1.76.368-.939 0-1.685-.224-2.24-.672-.555-.448-.832-1.04-.832-1.776 0-.715.256-1.291.768-1.728.523-.437 1.349-.656 2.48-.656h2.672v-.512c0-.725-.203-1.275-.608-1.648-.405-.384-.997-.576-1.776-.576-.533 0-1.045.091-1.536.272a3.77 3.77 0 0 0-1.264.72l-.512-.848c.427-.363.939-.64 1.536-.832a5.827 5.827 0 0 1 1.888-.304Zm-.4 7.664c.64 0 1.189-.144 1.648-.432.459-.299.8-.725 1.024-1.28v-1.376h-2.64c-1.44 0-2.16.501-2.16 1.504 0 .491.187.88.56 1.168.373.277.896.416 1.568.416Zm11.182-7.664c1.056 0 1.893.309 2.512.928.629.608.944 1.499.944 2.672V239h-1.136v-4.768c0-.875-.219-1.541-.656-2-.438-.459-1.062-.688-1.872-.688-.907 0-1.627.272-2.16.816-.523.533-.784 1.275-.784 2.224V239h-1.136v-8.416h1.088v1.552a3.114 3.114 0 0 1 1.28-1.184c.554-.288 1.194-.432 1.92-.432Zm13.899 4.624h-7.04c.064.875.4 1.584 1.008 2.128.608.533 1.376.8 2.304.8.523 0 1.003-.091 1.44-.272a3.23 3.23 0 0 0 1.136-.832l.64.736a3.596 3.596 0 0 1-1.408 1.024 4.671 4.671 0 0 1-1.84.352c-.864 0-1.632-.181-2.304-.544a4.047 4.047 0 0 1-1.552-1.536c-.373-.651-.56-1.387-.56-2.208 0-.821.176-1.557.528-2.208a3.956 3.956 0 0 1 1.472-1.52c.629-.363 1.333-.544 2.112-.544.779 0 1.477.181 2.096.544a3.84 3.84 0 0 1 1.456 1.52c.352.64.528 1.376.528 2.208l-.016.352Zm-4.064-3.648c-.811 0-1.493.261-2.048.784-.544.512-.853 1.184-.928 2.016h5.968c-.075-.832-.389-1.504-.944-2.016-.544-.523-1.227-.784-2.048-.784Zm8.648 7.584a6.703 6.703 0 0 1-1.968-.288c-.619-.203-1.104-.453-1.456-.752l.512-.896c.352.277.795.507 1.328.688a5.415 5.415 0 0 0 1.664.256c.768 0 1.333-.117 1.696-.352.373-.245.56-.587.56-1.024 0-.309-.101-.549-.304-.72a1.886 1.886 0 0 0-.768-.4 9.613 9.613 0 0 0-1.232-.272 15.555 15.555 0 0 1-1.648-.384 2.55 2.55 0 0 1-1.072-.688c-.288-.32-.432-.763-.432-1.328 0-.704.293-1.28.88-1.728.587-.448 1.403-.672 2.448-.672.544 0 1.088.075 1.632.224.544.139.992.325 1.344.56l-.496.912c-.693-.48-1.52-.72-2.48-.72-.725 0-1.275.128-1.648.384-.363.256-.544.592-.544 1.008 0 .32.101.576.304.768.213.192.475.336.784.432.309.085.736.176 1.28.272.672.128 1.211.256 1.616.384s.752.347 1.04.656c.288.309.432.736.432 1.28 0 .736-.309 1.323-.928 1.76-.608.427-1.456.64-2.544.64Zm5.7-1.744c.246 0 .448.085.608.256.16.16.24.363.24.608 0 .128-.021.267-.064.416-.032.149-.085.32-.16.512l-.672 2.208h-.768l.544-2.32a.82.82 0 0 1-.416-.288.888.888 0 0 1-.16-.528c0-.245.08-.448.24-.608a.797.797 0 0 1 .608-.256ZM213.736 245.8v.816L209.048 257H207.8l4.608-10.176h-5.76v2.096h-1.136v-3.12h8.224Zm7.637 5.328c.704.235 1.243.587 1.616 1.056.384.469.576 1.035.576 1.696 0 .651-.176 1.221-.528 1.712-.352.48-.859.853-1.52 1.12-.651.256-1.419.384-2.304.384-1.344 0-2.4-.288-3.168-.864-.768-.576-1.152-1.36-1.152-2.352 0-.672.181-1.237.544-1.696.373-.469.912-.821 1.616-1.056-.576-.224-1.013-.544-1.312-.96-.299-.427-.448-.928-.448-1.504 0-.907.352-1.627 1.056-2.16.715-.533 1.669-.8 2.864-.8.789 0 1.477.123 2.064.368.597.235 1.061.576 1.392 1.024.331.448.496.971.496 1.568 0 .576-.155 1.077-.464 1.504-.309.416-.752.736-1.328.96Zm-4.928-2.432c0 .619.245 1.109.736 1.472s1.168.544 2.032.544c.864 0 1.541-.181 2.032-.544.501-.363.752-.848.752-1.456 0-.629-.256-1.125-.768-1.488-.501-.363-1.173-.544-2.016-.544-.853 0-1.531.181-2.032.544-.491.363-.736.853-.736 1.472Zm2.768 7.424c.992 0 1.765-.203 2.32-.608.565-.405.848-.955.848-1.648s-.283-1.237-.848-1.632c-.555-.405-1.328-.608-2.32-.608-.981 0-1.755.203-2.32.608-.555.395-.832.939-.832 1.632 0 .704.277 1.259.832 1.664.555.395 1.328.592 2.32.592Zm10.411.976c-.864 0-1.637-.229-2.32-.688-.672-.459-1.2-1.115-1.584-1.968-.373-.864-.56-1.877-.56-3.04s.187-2.171.56-3.024c.384-.864.912-1.525 1.584-1.984.683-.459 1.456-.688 2.32-.688.864 0 1.632.229 2.304.688.683.459 1.216 1.12 1.6 1.984.384.853.576 1.861.576 3.024s-.192 2.176-.576 3.04c-.384.853-.917 1.509-1.6 1.968-.672.459-1.44.688-2.304.688Zm0-1.056c.651 0 1.221-.181 1.712-.544.501-.363.891-.891 1.168-1.584.277-.693.416-1.531.416-2.512 0-.981-.139-1.819-.416-2.512-.277-.693-.667-1.221-1.168-1.584-.491-.363-1.061-.544-1.712-.544s-1.227.181-1.728.544c-.491.363-.875.891-1.152 1.584-.277.693-.416 1.531-.416 2.512 0 .981.139 1.819.416 2.512.277.693.661 1.221 1.152 1.584a2.869 2.869 0 0 0 1.728.544Zm6.838-.704c.245 0 .448.085.608.256.16.16.24.363.24.608 0 .128-.021.267-.064.416-.032.149-.085.32-.16.512l-.672 2.208h-.768l.544-2.32a.817.817 0 0 1-.416-.288.88.88 0 0 1-.16-.528c0-.245.08-.448.24-.608a.797.797 0 0 1 .608-.256Zm11.162 1.76c-.864 0-1.637-.229-2.32-.688-.672-.459-1.2-1.115-1.584-1.968-.373-.864-.56-1.877-.56-3.04s.187-2.171.56-3.024c.384-.864.912-1.525 1.584-1.984.683-.459 1.456-.688 2.32-.688.864 0 1.632.229 2.304.688.683.459 1.216 1.12 1.6 1.984.384.853.576 1.861.576 3.024s-.192 2.176-.576 3.04c-.384.853-.917 1.509-1.6 1.968-.672.459-1.44.688-2.304.688Zm0-1.056c.651 0 1.221-.181 1.712-.544.501-.363.891-.891 1.168-1.584.277-.693.416-1.531.416-2.512 0-.981-.139-1.819-.416-2.512-.277-.693-.667-1.221-1.168-1.584-.491-.363-1.061-.544-1.712-.544s-1.227.181-1.728.544c-.491.363-.875.891-1.152 1.584-.277.693-.416 1.531-.416 2.512 0 .981.139 1.819.416 2.512.277.693.661 1.221 1.152 1.584a2.869 2.869 0 0 0 1.728.544Zm12.546-4.912c.704.235 1.243.587 1.616 1.056.384.469.576 1.035.576 1.696 0 .651-.176 1.221-.528 1.712-.352.48-.859.853-1.52 1.12-.651.256-1.419.384-2.304.384-1.344 0-2.4-.288-3.168-.864-.768-.576-1.152-1.36-1.152-2.352 0-.672.181-1.237.544-1.696.373-.469.912-.821 1.616-1.056-.576-.224-1.013-.544-1.312-.96-.299-.427-.448-.928-.448-1.504 0-.907.352-1.627 1.056-2.16.715-.533 1.669-.8 2.864-.8.789 0 1.477.123 2.064.368.597.235 1.061.576 1.392 1.024.331.448.496.971.496 1.568 0 .576-.155 1.077-.464 1.504-.309.416-.752.736-1.328.96Zm-4.928-2.432c0 .619.245 1.109.736 1.472s1.168.544 2.032.544c.864 0 1.541-.181 2.032-.544.501-.363.752-.848.752-1.456 0-.629-.256-1.125-.768-1.488-.501-.363-1.173-.544-2.016-.544-.853 0-1.531.181-2.032.544-.491.363-.736.853-.736 1.472Zm2.768 7.424c.992 0 1.765-.203 2.32-.608.565-.405.848-.955.848-1.648s-.283-1.237-.848-1.632c-.555-.405-1.328-.608-2.32-.608-.981 0-1.755.203-2.32.608-.555.395-.832.939-.832 1.632 0 .704.277 1.259.832 1.664.555.395 1.328.592 2.32.592Zm10.411.976c-.864 0-1.637-.229-2.32-.688-.672-.459-1.2-1.115-1.584-1.968-.373-.864-.56-1.877-.56-3.04s.187-2.171.56-3.024c.384-.864.912-1.525 1.584-1.984.683-.459 1.456-.688 2.32-.688.864 0 1.632.229 2.304.688.683.459 1.216 1.12 1.6 1.984.384.853.576 1.861.576 3.024s-.192 2.176-.576 3.04c-.384.853-.917 1.509-1.6 1.968-.672.459-1.44.688-2.304.688Zm0-1.056c.651 0 1.221-.181 1.712-.544.501-.363.891-.891 1.168-1.584.277-.693.416-1.531.416-2.512 0-.981-.139-1.819-.416-2.512-.277-.693-.667-1.221-1.168-1.584-.491-.363-1.061-.544-1.712-.544s-1.227.181-1.728.544c-.491.363-.875.891-1.152 1.584-.277.693-.416 1.531-.416 2.512 0 .981.139 1.819.416 2.512.277.693.661 1.221 1.152 1.584a2.869 2.869 0 0 0 1.728.544Zm9.203-10.24V257h-1.152v-10.176h-2.64V245.8h3.792Zm6.485 4.8c1.173.064 2.064.384 2.672.96.618.565.928 1.307.928 2.224 0 .64-.155 1.211-.464 1.712-.31.491-.768.88-1.376 1.168-.608.288-1.35.432-2.224.432a6.869 6.869 0 0 1-2.304-.384c-.715-.267-1.291-.619-1.728-1.056l.56-.912c.373.384.869.699 1.488.944.618.235 1.28.352 1.984.352.917 0 1.626-.197 2.128-.592.501-.405.752-.96.752-1.664 0-.693-.251-1.237-.752-1.632-.502-.395-1.259-.592-2.272-.592h-.8v-.848l3.104-3.888h-5.728V245.8h7.2v.816l-3.168 3.984Zm6.103 4.736c.245 0 .448.085.608.256.16.16.24.363.24.608 0 .128-.021.267-.064.416-.032.149-.085.32-.16.512l-.672 2.208h-.768l.544-2.32a.817.817 0 0 1-.416-.288.88.88 0 0 1-.16-.528c0-.245.08-.448.24-.608a.797.797 0 0 1 .608-.256Zm14.746-4.112c.736.16 1.301.48 1.696.96.405.469.608 1.077.608 1.824 0 .96-.357 1.701-1.072 2.224-.704.512-1.749.768-3.136.768h-5.152v-11.2h4.832c1.248 0 2.213.251 2.896.752.693.501 1.04 1.211 1.04 2.128 0 .619-.155 1.147-.464 1.584-.299.427-.715.747-1.248.96Zm-5.872-4.448v4.064h3.568c.907 0 1.605-.171 2.096-.512.491-.352.736-.859.736-1.52s-.245-1.163-.736-1.504c-.491-.352-1.189-.528-2.096-.528h-3.568Zm3.952 9.248c1.003 0 1.76-.171 2.272-.512.512-.341.768-.875.768-1.6 0-1.397-1.013-2.096-3.04-2.096h-3.952v4.208h3.952Zm10.175 1.056c-.832 0-1.579-.181-2.24-.544a3.964 3.964 0 0 1-1.536-1.52c-.374-.661-.56-1.403-.56-2.224 0-.821.186-1.557.56-2.208a3.964 3.964 0 0 1 1.536-1.52c.661-.363 1.408-.544 2.24-.544.725 0 1.37.144 1.936.432a3.166 3.166 0 0 1 1.36 1.232l-.848.576a2.604 2.604 0 0 0-1.056-.928 3.075 3.075 0 0 0-1.392-.32c-.608 0-1.158.139-1.648.416-.48.267-.859.651-1.136 1.152-.267.501-.4 1.072-.4 1.712 0 .651.133 1.227.4 1.728.277.491.656.875 1.136 1.152.49.267 1.04.4 1.648.4a3.2 3.2 0 0 0 1.392-.304 2.604 2.604 0 0 0 1.056-.928l.848.576c-.331.544-.784.96-1.36 1.248-.576.277-1.222.416-1.936.416Zm9.815-8.56c1.056 0 1.894.309 2.512.928.63.608.944 1.499.944 2.672V257h-1.136v-4.768c0-.875-.218-1.541-.656-2-.437-.459-1.061-.688-1.872-.688-.906 0-1.626.272-2.16.816-.522.533-.784 1.275-.784 2.224V257h-1.136v-8.416h1.088v1.552a3.12 3.12 0 0 1 1.28-1.184c.555-.288 1.195-.432 1.92-.432Zm9.484 0c1.099 0 1.942.277 2.528.832.587.544.88 1.355.88 2.432V257h-1.088v-1.312c-.256.437-.634.779-1.136 1.024-.49.245-1.077.368-1.76.368-.938 0-1.685-.224-2.24-.672-.554-.448-.832-1.04-.832-1.776 0-.715.256-1.291.768-1.728.523-.437 1.35-.656 2.48-.656h2.672v-.512c0-.725-.202-1.275-.608-1.648-.405-.384-.997-.576-1.776-.576-.533 0-1.045.091-1.536.272a3.78 3.78 0 0 0-1.264.72l-.512-.848c.427-.363.939-.64 1.536-.832a5.831 5.831 0 0 1 1.888-.304Zm-.4 7.664c.64 0 1.19-.144 1.648-.432.459-.299.8-.725 1.024-1.28v-1.376h-2.64c-1.44 0-2.16.501-2.16 1.504 0 .491.187.88.56 1.168.374.277.896.416 1.568.416Zm7.006.896a.83.83 0 0 1-.608-.256.88.88 0 0 1-.24-.624c0-.245.08-.448.24-.608a.83.83 0 0 1 .608-.256.83.83 0 0 1 .608.256c.171.16.256.363.256.608a.849.849 0 0 1-.256.624.83.83 0 0 1-.608.256Z"/><path fill="#FDFDFD" d="M211 168c0 1.1-.9 2-2 2s-2-.9-2-2 .9-2 2-2 2 .9 2 2Zm5.5 0c0 6.08-4.67 9.89-6.67 11.24-.25.18-.54.26-.83.26-.29 0-.58-.08-.84-.26-2-1.35-6.66-5.15-6.66-11.24 0-4.28 3.22-7.5 7.5-7.5 4.27 0 7.5 3.22 7.5 7.5Zm-3.5 0c0-2.21-1.79-4-4-4s-4 1.79-4 4 1.79 4 4 4 4-1.79 4-4Z"/><rect width="171" height="99" x="189" y="417" fill="#CDE4E6" rx="10"/><path fill="#5FA9AE" d="M189 427c0-5.523 4.477-10 10-10h151c5.523 0 10 4.477 10 10v21H189v-21Z"/><path fill="#FDFDFD" d="M200.584 430.544v3.408h5.408v1.76h-5.408V440h-2.08v-11.2h8.176v1.744h-6.096Zm9.663 2.16c.576-.896 1.59-1.344 3.04-1.344v1.904a2.53 2.53 0 0 0-.464-.048c-.778 0-1.386.229-1.824.688-.437.448-.656 1.099-.656 1.952V440h-2v-8.544h1.904v1.248Zm7.954-1.344c1.259 0 2.219.304 2.88.912.672.597 1.008 1.504 1.008 2.72V440h-1.888v-1.04c-.245.373-.597.661-1.056.864-.448.192-.992.288-1.632.288-.64 0-1.2-.107-1.68-.32-.48-.224-.853-.528-1.12-.912a2.388 2.388 0 0 1-.384-1.328c0-.768.283-1.381.848-1.84.576-.469 1.477-.704 2.704-.704h2.208v-.128c0-.597-.181-1.056-.544-1.376-.352-.32-.88-.48-1.584-.48-.48 0-.955.075-1.424.224a3.474 3.474 0 0 0-1.168.624l-.784-1.456c.448-.341.987-.603 1.616-.784a7.2 7.2 0 0 1 2-.272Zm-.272 7.296c.501 0 .944-.112 1.328-.336.395-.235.672-.565.832-.992v-.992h-2.064c-1.152 0-1.728.379-1.728 1.136 0 .363.144.651.432.864.288.213.688.32 1.2.32Zm9.367 1.456a7.658 7.658 0 0 1-2.032-.272c-.662-.181-1.19-.411-1.584-.688l.768-1.52a5.11 5.11 0 0 0 1.376.624 6.04 6.04 0 0 0 1.6.224c1.194 0 1.792-.315 1.792-.944 0-.299-.155-.507-.464-.624-.299-.117-.784-.229-1.456-.336-.704-.107-1.28-.229-1.728-.368a2.734 2.734 0 0 1-1.152-.72c-.32-.352-.48-.837-.48-1.456 0-.811.336-1.456 1.008-1.936.682-.491 1.6-.736 2.752-.736.586 0 1.173.069 1.76.208.586.128 1.066.304 1.44.528l-.768 1.52c-.726-.427-1.542-.64-2.448-.64-.587 0-1.035.091-1.344.272-.299.171-.448.4-.448.688 0 .32.16.549.48.688.33.128.837.251 1.52.368.682.107 1.242.229 1.68.368.437.139.81.373 1.12.704.32.331.48.8.48 1.408 0 .8-.347 1.44-1.04 1.92-.694.48-1.638.72-2.832.72Zm13.626-4.336c0 .139-.011.336-.032.592h-6.704c.117.629.421 1.131.912 1.504.501.363 1.12.544 1.856.544.939 0 1.712-.309 2.32-.928l1.072 1.232a3.61 3.61 0 0 1-1.456 1.04c-.587.235-1.248.352-1.984.352-.939 0-1.765-.187-2.48-.56a4.104 4.104 0 0 1-1.664-1.552c-.384-.672-.576-1.429-.576-2.272 0-.832.187-1.579.56-2.24a4.067 4.067 0 0 1 1.584-1.568c.672-.373 1.429-.56 2.272-.56.832 0 1.573.187 2.224.56.661.363 1.173.88 1.536 1.552.373.661.56 1.429.56 2.304Zm-4.32-2.816c-.64 0-1.184.192-1.632.576-.437.373-.704.875-.8 1.504h4.848c-.085-.619-.347-1.12-.784-1.504-.437-.384-.981-.576-1.632-.576Zm19.031-4.832V440h-1.92v-1.104a3.09 3.09 0 0 1-1.232.912 4.067 4.067 0 0 1-1.6.304c-.821 0-1.563-.181-2.224-.544a3.938 3.938 0 0 1-1.536-1.536c-.373-.672-.56-1.44-.56-2.304 0-.864.187-1.627.56-2.288a3.938 3.938 0 0 1 1.536-1.536c.661-.363 1.403-.544 2.224-.544.565 0 1.083.096 1.552.288.469.192.869.48 1.2.864v-4.384h2Zm-4.512 10.272c.48 0 .912-.107 1.296-.32a2.43 2.43 0 0 0 .912-.944c.224-.405.336-.875.336-1.408 0-.533-.112-1.003-.336-1.408a2.315 2.315 0 0 0-.912-.928 2.524 2.524 0 0 0-1.296-.336c-.48 0-.912.112-1.296.336a2.315 2.315 0 0 0-.912.928c-.224.405-.336.875-.336 1.408 0 .533.112 1.003.336 1.408.224.405.528.72.912.944.384.213.816.32 1.296.32Zm15.161-2.624c0 .139-.011.336-.032.592h-6.704c.117.629.421 1.131.912 1.504.501.363 1.12.544 1.856.544.938 0 1.712-.309 2.32-.928l1.072 1.232c-.384.459-.87.805-1.456 1.04-.587.235-1.248.352-1.984.352-.939 0-1.766-.187-2.48-.56a4.098 4.098 0 0 1-1.664-1.552c-.384-.672-.576-1.429-.576-2.272 0-.832.186-1.579.56-2.24a4.067 4.067 0 0 1 1.584-1.568c.672-.373 1.429-.56 2.272-.56.832 0 1.573.187 2.224.56.661.363 1.173.88 1.536 1.552.373.661.56 1.429.56 2.304Zm-4.32-2.816c-.64 0-1.184.192-1.632.576-.438.373-.704.875-.8 1.504h4.848c-.086-.619-.347-1.12-.784-1.504-.438-.384-.982-.576-1.632-.576Zm6.241-4.832h2V440h-2v-11.872Zm17.415 0V440h-1.92v-1.104a3.096 3.096 0 0 1-1.232.912 4.07 4.07 0 0 1-1.6.304c-.822 0-1.563-.181-2.224-.544a3.938 3.938 0 0 1-1.536-1.536c-.374-.672-.56-1.44-.56-2.304 0-.864.186-1.627.56-2.288a3.938 3.938 0 0 1 1.536-1.536c.661-.363 1.402-.544 2.224-.544.565 0 1.082.096 1.552.288.469.192.869.48 1.2.864v-4.384h2Zm-4.512 10.272c.48 0 .912-.107 1.296-.32a2.43 2.43 0 0 0 .912-.944c.224-.405.336-.875.336-1.408 0-.533-.112-1.003-.336-1.408a2.315 2.315 0 0 0-.912-.928 2.524 2.524 0 0 0-1.296-.336c-.48 0-.912.112-1.296.336a2.315 2.315 0 0 0-.912.928c-.224.405-.336.875-.336 1.408 0 .533.112 1.003.336 1.408.224.405.528.72.912.944.384.213.816.32 1.296.32Zm7.128-6.944h2V440h-2v-8.544Zm1.008-1.408a1.3 1.3 0 0 1-.912-.336 1.151 1.151 0 0 1-.368-.864 1.1 1.1 0 0 1 .368-.848c.245-.235.549-.352.912-.352a1.3 1.3 0 0 1 .912.336c.245.213.368.485.368.816 0 .352-.123.651-.368.896-.235.235-.539.352-.912.352Zm6.881 1.312c1.259 0 2.219.304 2.88.912.672.597 1.008 1.504 1.008 2.72V440h-1.888v-1.04c-.245.373-.597.661-1.056.864-.448.192-.992.288-1.632.288-.64 0-1.2-.107-1.68-.32-.48-.224-.853-.528-1.12-.912a2.388 2.388 0 0 1-.384-1.328c0-.768.283-1.381.848-1.84.576-.469 1.477-.704 2.704-.704h2.208v-.128c0-.597-.181-1.056-.544-1.376-.352-.32-.88-.48-1.584-.48-.48 0-.955.075-1.424.224a3.474 3.474 0 0 0-1.168.624l-.784-1.456c.448-.341.987-.603 1.616-.784a7.2 7.2 0 0 1 2-.272Zm-.272 7.296c.501 0 .944-.112 1.328-.336.395-.235.672-.565.832-.992v-.992h-2.064c-1.152 0-1.728.379-1.728 1.136 0 .363.144.651.432.864.288.213.688.32 1.2.32Z"/><path fill="#111" d="M201.256 474.096a7.07 7.07 0 0 1-2.368-.4c-.747-.267-1.312-.608-1.696-1.024l.576-.928c.373.405.891.731 1.552.976a5.849 5.849 0 0 0 2.048.368c.992 0 1.787-.192 2.384-.576.608-.395.912-.939.912-1.632 0-.373-.112-.677-.336-.912a2.405 2.405 0 0 0-.848-.56 11.997 11.997 0 0 0-1.392-.48 17.212 17.212 0 0 1-1.696-.576 3.108 3.108 0 0 1-1.104-.832c-.299-.373-.448-.853-.448-1.44 0-.693.187-1.291.56-1.792.384-.512.912-.901 1.584-1.168.683-.277 1.461-.416 2.336-.416a7.06 7.06 0 0 1 1.92.256c.608.16 1.125.395 1.552.704l-.496.96a4.306 4.306 0 0 0-1.392-.672 5.6 5.6 0 0 0-1.648-.24c-.981 0-1.771.203-2.368.608-.597.405-.896.955-.896 1.648 0 .384.117.699.352.944s.523.443.864.592c.352.139.821.293 1.408.464.693.203 1.253.4 1.68.592.427.181.789.448 1.088.8.299.341.448.795.448 1.36 0 .704-.197 1.312-.592 1.824-.384.501-.923.885-1.616 1.152-.683.267-1.472.4-2.368.4Zm10.084-.016c-.768 0-1.44-.144-2.016-.432a3.308 3.308 0 0 1-1.344-1.248c-.31-.544-.464-1.173-.464-1.888 0-.949.208-1.803.624-2.56a4.54 4.54 0 0 1 1.728-1.776c.746-.437 1.584-.656 2.512-.656 1.173 0 2.101.32 2.784.96.693.64 1.04 1.504 1.04 2.592 0 .949-.208 1.808-.624 2.576a4.62 4.62 0 0 1-1.744 1.792c-.736.427-1.568.64-2.496.64Zm.08-1.008c.693 0 1.317-.165 1.872-.496a3.525 3.525 0 0 0 1.296-1.408c.32-.608.48-1.285.48-2.032 0-.821-.246-1.461-.736-1.92-.48-.469-1.158-.704-2.032-.704a3.5 3.5 0 0 0-1.872.512 3.598 3.598 0 0 0-1.312 1.424c-.31.597-.464 1.269-.464 2.016 0 .821.24 1.461.72 1.92.49.459 1.173.688 2.048.688Zm8.575-10.944h1.136L218.763 474h-1.136l2.368-11.872Zm4.377 11.952a6.496 6.496 0 0 1-1.936-.288c-.608-.192-1.077-.437-1.408-.736l.544-.896c.32.277.741.501 1.264.672a5.267 5.267 0 0 0 1.648.256c.8 0 1.413-.128 1.84-.384.437-.267.656-.64.656-1.12a.812.812 0 0 0-.272-.64 1.71 1.71 0 0 0-.64-.368 11.711 11.711 0 0 0-1.12-.288 12.293 12.293 0 0 1-1.424-.384 2.273 2.273 0 0 1-.928-.608c-.256-.277-.384-.661-.384-1.152 0-.8.331-1.435.992-1.904.661-.48 1.547-.72 2.656-.72a5.64 5.64 0 0 1 1.584.224c.523.139.944.325 1.264.56l-.48.912a3.372 3.372 0 0 0-1.136-.528 4.597 4.597 0 0 0-1.328-.192c-.768 0-1.365.139-1.792.416-.427.277-.64.651-.64 1.12 0 .277.091.501.272.672.181.171.405.299.672.384.277.085.651.176 1.12.272.576.128 1.04.256 1.392.384.363.117.672.315.928.592.256.277.384.651.384 1.12 0 .821-.341 1.467-1.024 1.936-.672.459-1.573.688-2.704.688Zm11.392-2.624a3.813 3.813 0 0 0-.064.528c0 .747.405 1.12 1.216 1.12.48 0 .912-.144 1.296-.432l.272.864c-.48.363-1.104.544-1.872.544-.63 0-1.131-.171-1.504-.512-.363-.341-.544-.811-.544-1.408 0-.235.021-.453.064-.656l.976-4.96h-1.488l.176-.96h1.504l.368-1.84h1.135l-.367 1.84h2.56l-.192.96h-2.56l-.976 4.912Zm13.94-5.872-1.68 8.416h-1.088l.272-1.344c-.79.949-1.872 1.424-3.248 1.424-.939 0-1.675-.24-2.208-.72-.523-.491-.784-1.168-.784-2.032 0-.299.032-.613.096-.944l.96-4.8h1.136l-.96 4.8c-.054.299-.08.549-.08.752 0 .619.176 1.093.528 1.424.362.331.901.496 1.616.496.896 0 1.637-.251 2.224-.752.586-.501.981-1.232 1.184-2.192l.896-4.528h1.136Zm6.745 4.528a2.533 2.533 0 0 0-.016.336c0 .853.24 1.504.72 1.952.49.448 1.216.672 2.176.672.554 0 1.072-.091 1.552-.272.49-.192.89-.453 1.2-.784l.512.816c-.395.395-.891.704-1.488.928a5.446 5.446 0 0 1-1.872.32c-1.216 0-2.176-.32-2.88-.96-.694-.64-1.04-1.515-1.04-2.624 0-.939.197-1.787.592-2.544a4.531 4.531 0 0 1 1.664-1.776c.714-.437 1.514-.656 2.4-.656 1.12 0 2.01.32 2.672.96.661.629.992 1.499.992 2.608 0 .309-.038.651-.112 1.024h-7.072Zm3.488-3.632c-.843 0-1.563.251-2.16.752-.598.501-1.003 1.179-1.216 2.032h6a2.38 2.38 0 0 0 .016-.304c0-.789-.24-1.397-.72-1.824-.48-.437-1.12-.656-1.92-.656Zm7.56 7.6a6.496 6.496 0 0 1-1.936-.288c-.608-.192-1.077-.437-1.408-.736l.544-.896c.32.277.741.501 1.264.672a5.267 5.267 0 0 0 1.648.256c.8 0 1.413-.128 1.84-.384.437-.267.656-.64.656-1.12a.812.812 0 0 0-.272-.64 1.71 1.71 0 0 0-.64-.368 11.711 11.711 0 0 0-1.12-.288 12.293 12.293 0 0 1-1.424-.384 2.273 2.273 0 0 1-.928-.608c-.256-.277-.384-.661-.384-1.152 0-.8.331-1.435.992-1.904.661-.48 1.547-.72 2.656-.72a5.64 5.64 0 0 1 1.584.224c.523.139.944.325 1.264.56l-.48.912a3.372 3.372 0 0 0-1.136-.528 4.597 4.597 0 0 0-1.328-.192c-.768 0-1.365.139-1.792.416-.427.277-.64.651-.64 1.12 0 .277.091.501.272.672.181.171.405.299.672.384.277.085.651.176 1.12.272.576.128 1.04.256 1.392.384.363.117.672.315.928.592.256.277.384.651.384 1.12 0 .821-.341 1.467-1.024 1.936-.672.459-1.573.688-2.704.688Zm7.204-2.624a3.813 3.813 0 0 0-.064.528c0 .747.405 1.12 1.216 1.12.48 0 .912-.144 1.296-.432l.272.864c-.48.363-1.104.544-1.872.544-.629 0-1.131-.171-1.504-.512-.363-.341-.544-.811-.544-1.408 0-.235.021-.453.064-.656l.976-4.96h-1.488l.176-.96h1.504l.368-1.84h1.136l-.368 1.84h2.56l-.192.96h-2.56l-.976 4.912Zm13.739-5.872L286.76 474h-1.088l.272-1.328a4.214 4.214 0 0 1-1.44 1.04 4.506 4.506 0 0 1-1.84.368c-.715 0-1.349-.144-1.904-.432a3.136 3.136 0 0 1-1.296-1.232c-.309-.544-.464-1.179-.464-1.904 0-.949.203-1.803.608-2.56a4.577 4.577 0 0 1 1.712-1.776c.725-.437 1.536-.656 2.432-.656.8 0 1.472.16 2.016.48.544.309.939.757 1.184 1.344l.352-1.76h1.136Zm-5.536 7.488c.693 0 1.317-.165 1.872-.496a3.51 3.51 0 0 0 1.296-1.408c.32-.608.48-1.285.48-2.032 0-.821-.245-1.461-.736-1.92-.48-.469-1.157-.704-2.032-.704-.693 0-1.317.171-1.872.512a3.598 3.598 0 0 0-1.312 1.424c-.309.597-.464 1.269-.464 2.016 0 .821.24 1.461.72 1.92.491.459 1.173.688 2.048.688Zm-.496-10.784h1.504l1.824 1.984H284.6l-2.192-1.984Zm9.964 11.792a6.496 6.496 0 0 1-1.936-.288c-.608-.192-1.077-.437-1.408-.736l.544-.896c.32.277.741.501 1.264.672a5.267 5.267 0 0 0 1.648.256c.8 0 1.413-.128 1.84-.384.437-.267.656-.64.656-1.12a.812.812 0 0 0-.272-.64 1.71 1.71 0 0 0-.64-.368 11.711 11.711 0 0 0-1.12-.288 12.293 12.293 0 0 1-1.424-.384 2.273 2.273 0 0 1-.928-.608c-.256-.277-.384-.661-.384-1.152 0-.8.331-1.435.992-1.904.661-.48 1.547-.72 2.656-.72a5.64 5.64 0 0 1 1.584.224c.523.139.944.325 1.264.56l-.48.912a3.372 3.372 0 0 0-1.136-.528 4.597 4.597 0 0 0-1.328-.192c-.768 0-1.365.139-1.792.416-.427.277-.64.651-.64 1.12 0 .277.091.501.272.672.181.171.405.299.672.384.277.085.651.176 1.12.272.576.128 1.04.256 1.392.384.363.117.672.315.928.592.256.277.384.651.384 1.12 0 .821-.341 1.467-1.024 1.936-.672.459-1.573.688-2.704.688Zm18.928-8.496L309.62 474h-1.088l.272-1.328a4.234 4.234 0 0 1-1.44 1.04 4.506 4.506 0 0 1-1.84.368c-.715 0-1.35-.144-1.904-.432a3.136 3.136 0 0 1-1.296-1.232c-.31-.544-.464-1.179-.464-1.904 0-.949.202-1.803.608-2.56a4.57 4.57 0 0 1 1.712-1.776c.725-.437 1.536-.656 2.432-.656.8 0 1.472.16 2.016.48.544.309.938.757 1.184 1.344l.352-1.76h1.136Zm-5.536 7.488c.693 0 1.317-.165 1.872-.496a3.525 3.525 0 0 0 1.296-1.408c.32-.608.479-1.285.479-2.032 0-.821-.245-1.461-.735-1.92-.48-.469-1.158-.704-2.032-.704a3.5 3.5 0 0 0-1.872.512 3.598 3.598 0 0 0-1.312 1.424c-.31.597-.464 1.269-.464 2.016 0 .821.24 1.461.72 1.92.49.459 1.173.688 2.048.688Zm9.387-10.944h1.136L313.919 474h-1.136l2.368-11.872Zm7.941 9.328a3.813 3.813 0 0 0-.064.528c0 .747.405 1.12 1.216 1.12.48 0 .912-.144 1.296-.432l.272.864c-.48.363-1.104.544-1.872.544-.63 0-1.131-.171-1.504-.512-.363-.341-.544-.811-.544-1.408 0-.235.021-.453.064-.656l.976-4.96h-1.488l.176-.96h1.504l.368-1.84h1.136l-.368 1.84h2.56l-.192.96h-2.56l-.976 4.912Zm5.435-1.344a2.533 2.533 0 0 0-.016.336c0 .853.24 1.504.72 1.952.49.448 1.216.672 2.176.672.554 0 1.072-.091 1.552-.272.49-.192.89-.453 1.2-.784l.512.816c-.395.395-.891.704-1.488.928a5.446 5.446 0 0 1-1.872.32c-1.216 0-2.176-.32-2.88-.96-.694-.64-1.04-1.515-1.04-2.624 0-.939.197-1.787.592-2.544a4.531 4.531 0 0 1 1.664-1.776c.714-.437 1.514-.656 2.4-.656 1.12 0 2.01.32 2.672.96.661.629.992 1.499.992 2.608 0 .309-.038.651-.112 1.024h-7.072Zm3.488-3.632c-.843 0-1.563.251-2.16.752-.598.501-1.003 1.179-1.216 2.032h6a2.38 2.38 0 0 0 .016-.304c0-.789-.24-1.397-.72-1.824-.48-.437-1.12-.656-1.92-.656Zm14.376-.896-1.68 8.416h-1.088l.272-1.344c-.789.949-1.872 1.424-3.248 1.424-.939 0-1.675-.24-2.208-.72-.523-.491-.784-1.168-.784-2.032 0-.299.032-.613.096-.944l.96-4.8h1.136l-.96 4.8c-.053.299-.08.549-.08.752 0 .619.176 1.093.528 1.424.363.331.901.496 1.616.496.896 0 1.637-.251 2.224-.752.587-.501.981-1.232 1.184-2.192l.896-4.528h1.136ZM201.56 492.08c-.789 0-1.477-.144-2.064-.432a3.283 3.283 0 0 1-1.36-1.248c-.309-.544-.464-1.173-.464-1.888 0-.949.208-1.803.624-2.56a4.506 4.506 0 0 1 1.744-1.776c.747-.437 1.589-.656 2.528-.656.779 0 1.445.144 2 .432a2.963 2.963 0 0 1 1.312 1.248l-.96.56c-.48-.832-1.296-1.248-2.448-1.248-.693 0-1.323.171-1.888.512a3.628 3.628 0 0 0-1.312 1.408c-.309.597-.464 1.275-.464 2.032 0 .821.24 1.461.72 1.92.491.459 1.184.688 2.08.688.544 0 1.045-.101 1.504-.304a2.945 2.945 0 0 0 1.152-.912l.816.624c-.373.501-.875.896-1.504 1.184a4.879 4.879 0 0 1-2.016.416Zm14.427-8.496-1.68 8.416h-1.088l.272-1.328a4.214 4.214 0 0 1-1.44 1.04 4.506 4.506 0 0 1-1.84.368c-.715 0-1.349-.144-1.904-.432a3.136 3.136 0 0 1-1.296-1.232c-.309-.544-.464-1.179-.464-1.904 0-.949.203-1.803.608-2.56a4.577 4.577 0 0 1 1.712-1.776c.725-.437 1.536-.656 2.432-.656.8 0 1.472.16 2.016.48.544.309.939.757 1.184 1.344l.352-1.76h1.136Zm-5.536 7.488c.693 0 1.317-.165 1.872-.496a3.51 3.51 0 0 0 1.296-1.408c.32-.608.48-1.285.48-2.032 0-.821-.245-1.461-.736-1.92-.48-.469-1.157-.704-2.032-.704-.693 0-1.317.171-1.872.512a3.598 3.598 0 0 0-1.312 1.424c-.309.597-.464 1.269-.464 2.016 0 .821.24 1.461.72 1.92.491.459 1.173.688 2.048.688Zm12.78-7.552c.714 0 1.349.144 1.904.432a3.123 3.123 0 0 1 1.312 1.232c.309.533.464 1.163.464 1.888 0 .949-.208 1.808-.624 2.576a4.578 4.578 0 0 1-1.696 1.792c-.726.427-1.542.64-2.448.64-.8 0-1.472-.155-2.016-.464a2.773 2.773 0 0 1-1.184-1.376l-.96 4.864h-1.136l2.288-11.52h1.088l-.272 1.344a3.954 3.954 0 0 1 1.44-1.04 4.502 4.502 0 0 1 1.84-.368Zm-1.104 7.552c.693 0 1.312-.165 1.856-.496a3.525 3.525 0 0 0 1.296-1.408c.32-.597.48-1.275.48-2.032 0-.821-.246-1.461-.736-1.92-.48-.469-1.158-.704-2.032-.704a3.5 3.5 0 0 0-1.872.512c-.544.331-.976.8-1.296 1.408-.31.597-.464 1.275-.464 2.032 0 .821.24 1.461.72 1.92.49.459 1.173.688 2.048.688Z"/><rect width="171" height="100" x="2" y="417" fill="#CDE4E6" rx="10"/><path fill="#5FA9AE" d="M2 427c0-5.523 4.477-10 10-10h151c5.523 0 10 4.477 10 10v21H2v-21Z"/><path fill="#FDFDFD" d="M13.584 430.544v3.408h5.408v1.76h-5.408V440h-2.08v-11.2h8.176v1.744h-6.096Zm11.521 9.568c-.864 0-1.643-.187-2.336-.56A4.157 4.157 0 0 1 21.137 438c-.384-.672-.576-1.429-.576-2.272 0-.843.192-1.595.576-2.256a4.157 4.157 0 0 1 1.632-1.552c.694-.373 1.472-.56 2.336-.56.875 0 1.659.187 2.352.56a4.044 4.044 0 0 1 1.616 1.552c.395.661.592 1.413.592 2.256 0 .843-.197 1.6-.592 2.272a4.044 4.044 0 0 1-1.616 1.552c-.693.373-1.477.56-2.352.56Zm0-1.712c.736 0 1.344-.245 1.824-.736s.72-1.136.72-1.936-.24-1.445-.72-1.936c-.48-.491-1.088-.736-1.824-.736s-1.344.245-1.824.736c-.47.491-.704 1.136-.704 1.936s.235 1.445.704 1.936c.48.491 1.088.736 1.824.736Zm-3.184-10.304h2.352l2.16 2.192h-1.728l-2.784-2.192Zm11.56 4.608c.577-.896 1.59-1.344 3.04-1.344v1.904a2.538 2.538 0 0 0-.463-.048c-.779 0-1.387.229-1.824.688-.438.448-.656 1.099-.656 1.952V440h-2v-8.544h1.904v1.248Zm13.087-1.248V440h-1.904v-1.088c-.32.384-.72.683-1.2.896-.48.203-.997.304-1.552.304-1.141 0-2.042-.315-2.704-.944-.65-.64-.976-1.584-.976-2.832v-4.88h2v4.608c0 .768.171 1.344.512 1.728.352.373.848.56 1.488.56.715 0 1.28-.219 1.696-.656.427-.448.64-1.088.64-1.92v-4.32h2Zm13.403-.096c1.077 0 1.93.315 2.56.944.63.619.944 1.552.944 2.8V440h-2v-4.64c0-.747-.165-1.307-.496-1.68-.33-.384-.805-.576-1.424-.576-.672 0-1.21.224-1.616.672-.405.437-.608 1.067-.608 1.888V440h-2v-4.64c0-.747-.165-1.307-.496-1.68-.33-.384-.805-.576-1.424-.576-.683 0-1.227.219-1.632.656-.395.437-.592 1.072-.592 1.904V440h-2v-8.544h1.904v1.088c.32-.384.72-.677 1.2-.88a4.068 4.068 0 0 1 1.6-.304c.64 0 1.205.123 1.696.368a2.71 2.71 0 0 1 1.184 1.056 3.488 3.488 0 0 1 1.36-1.04 4.338 4.338 0 0 1 1.84-.384Z"/><path fill="#111" d="M13.008 463.824v4.4H18.8v1.024h-5.792V474h-1.184v-11.2h7.68v1.024h-6.496Zm11.301 1.696c1.099 0 1.942.277 2.528.832.587.544.88 1.355.88 2.432V474H26.63v-1.312c-.256.437-.634.779-1.136 1.024-.49.245-1.077.368-1.76.368-.938 0-1.685-.224-2.24-.672-.554-.448-.832-1.04-.832-1.776 0-.715.256-1.291.768-1.728.523-.437 1.35-.656 2.48-.656h2.672v-.512c0-.725-.202-1.275-.608-1.648-.405-.384-.997-.576-1.776-.576-.533 0-1.045.091-1.536.272a3.78 3.78 0 0 0-1.264.72l-.512-.848a4.43 4.43 0 0 1 1.536-.832 5.827 5.827 0 0 1 1.888-.304Zm-.4 7.664c.64 0 1.19-.144 1.648-.432.459-.299.8-.725 1.024-1.28v-1.376h-2.64c-1.44 0-2.16.501-2.16 1.504 0 .491.187.88.56 1.168.374.277.896.416 1.568.416Zm11.23-7.664c.79 0 1.504.181 2.144.544.64.352 1.141.853 1.504 1.504.362.651.544 1.392.544 2.224 0 .832-.182 1.573-.544 2.224a3.888 3.888 0 0 1-1.504 1.52c-.64.363-1.355.544-2.144.544-.704 0-1.339-.149-1.904-.448a3.485 3.485 0 0 1-1.344-1.296V474h-1.088v-11.872h1.136v5.056c.352-.544.8-.955 1.344-1.232a3.966 3.966 0 0 1 1.856-.432Zm-.08 7.552c.586 0 1.12-.133 1.6-.4.48-.277.853-.667 1.12-1.168.277-.501.416-1.072.416-1.712 0-.64-.139-1.211-.416-1.712a2.782 2.782 0 0 0-1.12-1.152 3.144 3.144 0 0 0-1.6-.416c-.598 0-1.136.139-1.616.416a2.91 2.91 0 0 0-1.12 1.152c-.267.501-.4 1.072-.4 1.712 0 .64.133 1.211.4 1.712.277.501.65.891 1.12 1.168.48.267 1.018.4 1.616.4Zm6.588-7.488h1.136V474h-1.136v-8.416Zm.575-1.84a.804.804 0 0 1-.592-.24.786.786 0 0 1-.24-.576c0-.213.08-.4.24-.56.16-.16.358-.24.592-.24.235 0 .432.08.593.24.16.149.24.331.24.544 0 .235-.08.432-.24.592a.804.804 0 0 1-.593.24Zm7.161 10.336c-.81 0-1.541-.181-2.192-.544A4.079 4.079 0 0 1 45.655 472c-.373-.651-.56-1.387-.56-2.208 0-.821.187-1.557.56-2.208a3.968 3.968 0 0 1 1.536-1.52c.651-.363 1.382-.544 2.192-.544.811 0 1.542.181 2.192.544a3.852 3.852 0 0 1 1.52 1.52c.374.651.56 1.387.56 2.208 0 .821-.186 1.557-.56 2.208a3.965 3.965 0 0 1-1.52 1.536c-.65.363-1.381.544-2.192.544Zm0-1.008c.598 0 1.131-.133 1.6-.4.48-.277.854-.667 1.12-1.168.267-.501.4-1.072.4-1.712 0-.64-.133-1.211-.4-1.712a2.782 2.782 0 0 0-1.12-1.152 3.089 3.089 0 0 0-1.6-.416c-.597 0-1.136.139-1.616.416a2.923 2.923 0 0 0-1.12 1.152c-.266.501-.4 1.072-.4 1.712 0 .64.134 1.211.4 1.712.278.501.651.891 1.12 1.168.48.267 1.019.4 1.616.4Zm18.94-.096V474h-7.92v-11.2h7.68v1.024h-6.497v3.984h5.792v1.008h-5.792v4.16h6.736Zm4.673 1.104a6.706 6.706 0 0 1-1.968-.288c-.618-.203-1.104-.453-1.456-.752l.512-.896c.352.277.795.507 1.328.688a5.416 5.416 0 0 0 1.664.256c.768 0 1.334-.117 1.696-.352.374-.245.56-.587.56-1.024 0-.309-.101-.549-.304-.72a1.882 1.882 0 0 0-.768-.4 9.63 9.63 0 0 0-1.232-.272 15.573 15.573 0 0 1-1.648-.384 2.547 2.547 0 0 1-1.072-.688c-.288-.32-.432-.763-.432-1.328 0-.704.294-1.28.88-1.728.587-.448 1.403-.672 2.448-.672.544 0 1.088.075 1.632.224.544.139.992.325 1.344.56l-.496.912c-.693-.48-1.52-.72-2.48-.72-.725 0-1.274.128-1.648.384-.362.256-.544.592-.544 1.008 0 .32.102.576.304.768.214.192.475.336.784.432.31.085.736.176 1.28.272.672.128 1.21.256 1.616.384.406.128.752.347 1.04.656.288.309.432.736.432 1.28 0 .736-.31 1.323-.928 1.76-.608.427-1.456.64-2.544.64ZM83 473.488a2.24 2.24 0 0 1-.8.448 3.27 3.27 0 0 1-.976.144c-.789 0-1.397-.213-1.824-.64-.426-.427-.64-1.029-.64-1.808v-5.088h-1.504v-.96h1.504v-1.84h1.136v1.84h2.56v.96h-2.56v5.024c0 .501.123.885.368 1.152.256.256.619.384 1.088.384.235 0 .459-.037.672-.112.224-.075.416-.181.576-.32l.4.816Zm9.1-3.344h-7.04c.064.875.4 1.584 1.007 2.128.609.533 1.377.8 2.305.8a3.73 3.73 0 0 0 1.44-.272 3.228 3.228 0 0 0 1.136-.832l.64.736a3.596 3.596 0 0 1-1.408 1.024 4.67 4.67 0 0 1-1.84.352c-.865 0-1.633-.181-2.305-.544A4.047 4.047 0 0 1 84.484 472c-.374-.651-.56-1.387-.56-2.208 0-.821.175-1.557.527-2.208a3.956 3.956 0 0 1 1.473-1.52c.629-.363 1.333-.544 2.111-.544.78 0 1.478.181 2.097.544a3.842 3.842 0 0 1 1.456 1.52c.352.64.528 1.376.528 2.208l-.016.352Zm-4.064-3.648c-.811 0-1.494.261-2.049.784-.543.512-.853 1.184-.927 2.016h5.968c-.075-.832-.39-1.504-.945-2.016-.543-.523-1.226-.784-2.047-.784Zm13.308-.912L97.6 474h-1.168l-3.728-8.416h1.184l3.151 7.168 3.185-7.168h1.12Zm8.693 4.56h-7.04c.064.875.4 1.584 1.008 2.128.608.533 1.376.8 2.304.8.523 0 1.003-.091 1.44-.272a3.23 3.23 0 0 0 1.136-.832l.64.736a3.596 3.596 0 0 1-1.408 1.024 4.671 4.671 0 0 1-1.84.352c-.864 0-1.632-.181-2.304-.544a4.047 4.047 0 0 1-1.552-1.536c-.373-.651-.56-1.387-.56-2.208 0-.821.176-1.557.528-2.208a3.956 3.956 0 0 1 1.472-1.52c.629-.363 1.333-.544 2.112-.544.779 0 1.477.181 2.096.544a3.84 3.84 0 0 1 1.456 1.52c.352.64.528 1.376.528 2.208l-.016.352Zm-4.064-3.648c-.811 0-1.493.261-2.048.784-.544.512-.853 1.184-.928 2.016h5.968c-.075-.832-.389-1.504-.944-2.016-.544-.523-1.227-.784-2.048-.784Zm14.868-.976c1.056 0 1.893.309 2.512.928.629.608.944 1.499.944 2.672V474h-1.136v-4.768c0-.875-.219-1.541-.656-2-.438-.459-1.062-.688-1.872-.688-.907 0-1.627.272-2.16.816-.523.533-.784 1.275-.784 2.224V474h-1.136v-11.872h1.136v4.928a3.078 3.078 0 0 1 1.28-1.136c.544-.267 1.168-.4 1.872-.4Zm9.484 0c1.099 0 1.941.277 2.528.832.587.544.88 1.355.88 2.432V474h-1.088v-1.312c-.256.437-.635.779-1.136 1.024-.491.245-1.077.368-1.76.368-.939 0-1.685-.224-2.24-.672-.555-.448-.832-1.04-.832-1.776 0-.715.256-1.291.768-1.728.523-.437 1.349-.656 2.48-.656h2.672v-.512c0-.725-.203-1.275-.608-1.648-.405-.384-.997-.576-1.776-.576-.533 0-1.045.091-1.536.272a3.77 3.77 0 0 0-1.264.72l-.512-.848c.427-.363.939-.64 1.536-.832a5.827 5.827 0 0 1 1.888-.304Zm-.4 7.664c.64 0 1.189-.144 1.648-.432.459-.299.8-.725 1.024-1.28v-1.376h-2.64c-1.44 0-2.16.501-2.16 1.504 0 .491.187.88.56 1.168.373.277.896.416 1.568.416ZM15.92 483.52c.79 0 1.504.181 2.144.544.64.352 1.141.853 1.504 1.504s.544 1.392.544 2.224c0 .843-.181 1.589-.544 2.24a3.888 3.888 0 0 1-1.504 1.52c-.63.352-1.344.528-2.144.528a4.096 4.096 0 0 1-1.856-.416 3.582 3.582 0 0 1-1.344-1.248v4.688h-1.136v-11.52h1.088v1.664c.341-.555.79-.981 1.344-1.28.565-.299 1.2-.448 1.904-.448Zm-.08 7.552c.587 0 1.12-.133 1.6-.4.48-.277.853-.667 1.12-1.168.277-.501.416-1.072.416-1.712 0-.64-.139-1.205-.416-1.696a2.883 2.883 0 0 0-1.12-1.168 3.143 3.143 0 0 0-1.6-.416c-.597 0-1.136.139-1.616.416a3.02 3.02 0 0 0-1.12 1.168c-.267.491-.4 1.056-.4 1.696 0 .64.133 1.211.4 1.712.277.501.65.891 1.12 1.168.48.267 1.019.4 1.616.4Zm14.172-7.488V492h-1.088v-1.536c-.299.512-.71.912-1.232 1.2-.523.277-1.12.416-1.792.416-1.099 0-1.968-.304-2.608-.912-.63-.619-.944-1.52-.944-2.704v-4.88h1.136v4.768c0 .885.218 1.557.656 2.016.437.459 1.061.688 1.872.688.885 0 1.584-.267 2.096-.8.512-.544.768-1.296.768-2.256v-4.416h1.136Zm7.517-.064c.79 0 1.504.181 2.144.544.64.352 1.142.853 1.504 1.504.363.651.544 1.392.544 2.224 0 .832-.181 1.573-.544 2.224a3.888 3.888 0 0 1-1.504 1.52c-.64.363-1.354.544-2.144.544-.704 0-1.338-.149-1.904-.448a3.485 3.485 0 0 1-1.344-1.296V492h-1.088v-11.872h1.136v5.056c.352-.544.8-.955 1.344-1.232a3.966 3.966 0 0 1 1.856-.432Zm-.08 7.552c.587 0 1.12-.133 1.6-.4.48-.277.854-.667 1.12-1.168.278-.501.416-1.072.416-1.712 0-.64-.138-1.211-.416-1.712a2.782 2.782 0 0 0-1.12-1.152 3.144 3.144 0 0 0-1.6-.416c-.597 0-1.136.139-1.616.416a2.923 2.923 0 0 0-1.12 1.152c-.266.501-.4 1.072-.4 1.712 0 .64.134 1.211.4 1.712.278.501.651.891 1.12 1.168.48.267 1.019.4 1.616.4Zm6.588-10.944h1.136V492h-1.136v-11.872Zm4.297 3.456h1.136V492h-1.136v-8.416Zm.576-1.84a.804.804 0 0 1-.592-.24.786.786 0 0 1-.24-.576c0-.213.08-.4.24-.56.16-.16.357-.24.592-.24s.432.08.592.24c.16.149.24.331.24.544 0 .235-.08.432-.24.592a.804.804 0 0 1-.592.24Zm7.209 10.336c-.832 0-1.579-.181-2.24-.544a3.968 3.968 0 0 1-1.536-1.52c-.374-.661-.56-1.403-.56-2.224 0-.821.186-1.557.56-2.208a3.968 3.968 0 0 1 1.536-1.52c.661-.363 1.408-.544 2.24-.544.725 0 1.37.144 1.936.432a3.16 3.16 0 0 1 1.36 1.232l-.848.576a2.596 2.596 0 0 0-1.056-.928 3.073 3.073 0 0 0-1.392-.32c-.608 0-1.157.139-1.648.416-.48.267-.859.651-1.136 1.152-.267.501-.4 1.072-.4 1.712 0 .651.133 1.227.4 1.728.277.491.656.875 1.136 1.152.49.267 1.04.4 1.648.4a3.2 3.2 0 0 0 1.392-.304 2.596 2.596 0 0 0 1.056-.928l.848.576a3.27 3.27 0 0 1-1.36 1.248c-.576.277-1.221.416-1.936.416Zm8.472-8.56c1.098 0 1.94.277 2.528.832.586.544.88 1.355.88 2.432V492H66.91v-1.312c-.257.437-.635.779-1.136 1.024-.491.245-1.078.368-1.76.368-.94 0-1.686-.224-2.24-.672-.555-.448-.832-1.04-.832-1.776 0-.715.256-1.291.768-1.728.522-.437 1.349-.656 2.48-.656h2.671v-.512c0-.725-.202-1.275-.608-1.648-.405-.384-.997-.576-1.776-.576-.533 0-1.045.091-1.535.272a3.77 3.77 0 0 0-1.264.72l-.513-.848c.427-.363.94-.64 1.537-.832a5.827 5.827 0 0 1 1.888-.304Zm-.4 7.664c.64 0 1.189-.144 1.647-.432.46-.299.8-.725 1.025-1.28v-1.376h-2.64c-1.44 0-2.16.501-2.16 1.504 0 .491.186.88.56 1.168.373.277.896.416 1.568.416Zm11.325.304c-.213.192-.48.341-.8.448-.31.096-.635.144-.976.144-.79 0-1.397-.213-1.824-.64-.427-.427-.64-1.029-.64-1.808v-5.088h-1.504v-.96h1.504v-1.84h1.136v1.84h2.56v.96h-2.56v5.024c0 .501.123.885.368 1.152.256.256.619.384 1.088.384.235 0 .459-.037.672-.112.224-.075.416-.181.576-.32l.4.816Z"/><circle cx="163.5" cy="418.5" r="9.5" fill="#F19361"/></svg>