<svg xmlns="http://www.w3.org/2000/svg" width="398" height="577" fill="none" viewBox="0 0 398 577"><g filter="url(#a)"><path fill="#F7F7F7" d="M4 31.5C4 16.312 16.312 4 31.5 4h335C381.688 4 394 16.312 394 31.5V573H4V31.5Z"/></g><path fill="#000" d="M159.281 36.12a3.692 3.692 0 0 1-1.312.992 3.845 3.845 0 0 1-1.616.336 4.31 4.31 0 0 1-2.112-.528c-.64-.341-1.371-.939-2.192-1.792-1.035-.085-1.963-.384-2.784-.896a5.567 5.567 0 0 1-1.92-2.032c-.459-.843-.688-1.776-.688-2.8 0-1.088.261-2.07.784-2.944a5.441 5.441 0 0 1 2.16-2.064c.917-.501 1.947-.752 3.088-.752s2.171.25 3.088.752a5.475 5.475 0 0 1 2.16 2.048c.523.875.784 1.861.784 2.96 0 .885-.176 1.707-.528 2.464a5.645 5.645 0 0 1-1.472 1.92 5.884 5.884 0 0 1-2.192 1.136c.309.33.613.57.912.72.299.15.619.224.96.224.736 0 1.376-.299 1.92-.896l.96 1.152Zm-10.528-6.72c0 .747.171 1.424.512 2.032a3.718 3.718 0 0 0 1.408 1.408c.597.33 1.269.496 2.016.496.747 0 1.419-.165 2.016-.496a3.718 3.718 0 0 0 1.408-1.408 4.082 4.082 0 0 0 .512-2.032c0-.747-.171-1.419-.512-2.016a3.575 3.575 0 0 0-1.408-1.408c-.597-.341-1.269-.512-2.016-.512-.747 0-1.419.17-2.016.512a3.57 3.57 0 0 0-1.408 1.408c-.341.597-.512 1.27-.512 2.016Zm20.253-2.944V35h-1.904v-1.088c-.32.384-.72.683-1.2.896-.48.203-.997.304-1.552.304-1.141 0-2.043-.315-2.704-.944-.651-.64-.976-1.584-.976-2.832v-4.88h2v4.608c0 .768.171 1.344.512 1.728.352.373.848.56 1.488.56.715 0 1.28-.219 1.696-.656.427-.448.64-1.088.64-1.92v-4.32h2Zm10.651 4.32c0 .139-.011.336-.032.592h-6.704c.117.63.421 1.13.912 1.504.501.363 1.12.544 1.856.544.938 0 1.712-.31 2.32-.928l1.072 1.232c-.384.459-.87.805-1.456 1.04-.587.235-1.248.352-1.984.352-.939 0-1.766-.187-2.48-.56A4.098 4.098 0 0 1 171.497 33c-.384-.672-.576-1.43-.576-2.272 0-.832.186-1.579.56-2.24a4.069 4.069 0 0 1 1.584-1.568c.672-.373 1.429-.56 2.272-.56.832 0 1.573.187 2.224.56.661.363 1.173.88 1.536 1.552.373.661.56 1.43.56 2.304Zm-4.32-2.816c-.64 0-1.184.192-1.632.576-.438.373-.704.875-.8 1.504h4.848c-.086-.619-.347-1.12-.784-1.504-.438-.384-.982-.576-1.632-.576Zm-3.216-4.864h2.352l2.16 2.192h-1.728l-2.784-2.192Zm18.615 3.264c.832 0 1.573.181 2.224.544a3.916 3.916 0 0 1 1.552 1.536c.373.661.56 1.424.56 2.288 0 .864-.187 1.632-.56 2.304a3.916 3.916 0 0 1-1.552 1.536c-.651.363-1.392.544-2.224.544-1.152 0-2.064-.384-2.736-1.152v4.144h-2V26.456h1.904v1.12c.33-.405.736-.71 1.216-.912a4.189 4.189 0 0 1 1.616-.304Zm-.224 7.04c.736 0 1.338-.245 1.808-.736.48-.49.72-1.136.72-1.936s-.24-1.445-.72-1.936c-.47-.49-1.072-.736-1.808-.736-.48 0-.912.112-1.296.336a2.315 2.315 0 0 0-.912.928c-.224.405-.336.875-.336 1.408 0 .533.112 1.003.336 1.408.224.405.528.72.912.944.384.213.816.32 1.296.32ZM205 30.776c0 .139-.01.336-.032.592h-6.704c.118.63.422 1.13.912 1.504.502.363 1.12.544 1.856.544.939 0 1.712-.31 2.32-.928l1.072 1.232a3.61 3.61 0 0 1-1.456 1.04c-.586.235-1.248.352-1.984.352-.938 0-1.765-.187-2.48-.56A4.11 4.11 0 0 1 196.84 33c-.384-.672-.576-1.43-.576-2.272 0-.832.187-1.579.56-2.24a4.069 4.069 0 0 1 1.584-1.568c.672-.373 1.43-.56 2.272-.56.832 0 1.574.187 2.224.56a3.77 3.77 0 0 1 1.536 1.552c.374.661.56 1.43.56 2.304Zm-4.32-2.816c-.64 0-1.184.192-1.632.576-.437.373-.704.875-.8 1.504h4.848c-.085-.619-.346-1.12-.784-1.504-.437-.384-.981-.576-1.632-.576Zm11.089-1.6c1.078 0 1.942.315 2.592.944.651.63.976 1.563.976 2.8V35h-2v-4.64c0-.747-.176-1.307-.528-1.68-.352-.384-.853-.576-1.504-.576-.736 0-1.317.224-1.744.672-.426.437-.64 1.072-.64 1.904V35h-2v-8.544h1.904v1.104a3.131 3.131 0 0 1 1.248-.896c.502-.203 1.067-.304 1.696-.304Zm8.746 8.752c-.694 0-1.371-.09-2.032-.272-.662-.181-1.19-.41-1.584-.688l.768-1.52a5.11 5.11 0 0 0 1.376.624 6 6 0 0 0 1.6.224c1.194 0 1.792-.315 1.792-.944 0-.299-.155-.507-.464-.624-.299-.117-.784-.23-1.456-.336-.704-.107-1.28-.23-1.728-.368a2.729 2.729 0 0 1-1.152-.72c-.32-.352-.48-.837-.48-1.456 0-.81.336-1.456 1.008-1.936.682-.49 1.6-.736 2.752-.736.586 0 1.173.07 1.76.208.586.128 1.066.304 1.44.528l-.768 1.52c-.726-.427-1.542-.64-2.448-.64-.587 0-1.035.09-1.344.272-.299.17-.448.4-.448.688 0 .32.16.55.48.688.33.128.837.25 1.52.368.682.107 1.242.23 1.68.368.437.139.81.373 1.12.704.32.33.48.8.48 1.408 0 .8-.347 1.44-1.04 1.92-.694.48-1.638.72-2.832.72Zm13.626-4.336c0 .139-.011.336-.032.592h-6.704c.117.63.421 1.13.912 1.504.501.363 1.12.544 1.856.544.939 0 1.712-.31 2.32-.928l1.072 1.232a3.61 3.61 0 0 1-1.456 1.04c-.587.235-1.248.352-1.984.352-.939 0-1.765-.187-2.48-.56A4.104 4.104 0 0 1 225.981 33c-.384-.672-.576-1.43-.576-2.272 0-.832.187-1.579.56-2.24a4.069 4.069 0 0 1 1.584-1.568c.672-.373 1.429-.56 2.272-.56.832 0 1.573.187 2.224.56.661.363 1.173.88 1.536 1.552.373.661.56 1.43.56 2.304Zm-4.32-2.816c-.64 0-1.184.192-1.632.576-.437.373-.704.875-.8 1.504h4.848c-.085-.619-.347-1.12-.784-1.504-.437-.384-.981-.576-1.632-.576Zm8.881 7.152a7.65 7.65 0 0 1-2.032-.272c-.661-.181-1.189-.41-1.584-.688l.768-1.52c.384.256.843.464 1.376.624a6 6 0 0 0 1.6.224c1.195 0 1.792-.315 1.792-.944 0-.299-.155-.507-.464-.624-.299-.117-.784-.23-1.456-.336-.704-.107-1.28-.23-1.728-.368a2.74 2.74 0 0 1-1.152-.72c-.32-.352-.48-.837-.48-1.456 0-.81.336-1.456 1.008-1.936.683-.49 1.6-.736 2.752-.736.587 0 1.173.07 1.76.208.587.128 1.067.304 1.44.528l-.768 1.52c-.725-.427-1.541-.64-2.448-.64-.587 0-1.035.09-1.344.272-.299.17-.448.4-.448.688 0 .32.16.55.48.688.331.128.837.25 1.52.368.683.107 1.243.23 1.68.368.437.139.811.373 1.12.704.32.33.48.8.48 1.408 0 .8-.347 1.44-1.04 1.92-.693.48-1.637.72-2.832.72Zm7.6-3.824c0-.576.128-1.05.384-1.424.267-.384.651-.8 1.152-1.248.384-.341.667-.635.848-.88.192-.256.288-.544.288-.864 0-.448-.181-.81-.544-1.088-.363-.277-.848-.416-1.456-.416-1.152 0-2.021.41-2.608 1.232l-1.552-1.008a4.437 4.437 0 0 1 1.776-1.44c.725-.341 1.579-.512 2.56-.512 1.195 0 2.144.261 2.848.784.715.512 1.072 1.221 1.072 2.128 0 .437-.075.821-.224 1.152-.139.33-.309.613-.512.848a11.44 11.44 0 0 1-.8.784c-.405.363-.709.683-.912.96a1.7 1.7 0 0 0-.288.992h-2.032Zm1.024 3.824c-.373 0-.683-.117-.928-.352a1.247 1.247 0 0 1-.352-.896c0-.352.117-.645.352-.88.245-.235.555-.352.928-.352.363 0 .661.117.896.352.245.235.368.528.368.88s-.123.65-.368.896c-.235.235-.533.352-.896.352Z"/><rect width="98" height="43" x="57" y="226" fill="#E3655D" rx="21.5"/><path fill="#FDFDFD" d="M77.091 253.112c-.98 0-1.866-.215-2.66-.644a4.873 4.873 0 0 1-1.848-1.792c-.448-.765-.672-1.624-.672-2.576s.224-1.806.672-2.562a4.712 4.712 0 0 1 1.862-1.792c.794-.439 1.68-.658 2.66-.658.766 0 1.466.131 2.1.392.635.252 1.176.63 1.624 1.134l-.91.882c-.737-.775-1.656-1.162-2.758-1.162-.728 0-1.386.163-1.974.49a3.589 3.589 0 0 0-1.386 1.358 3.784 3.784 0 0 0-.49 1.918c0 .709.164 1.353.49 1.932a3.624 3.624 0 0 0 1.386 1.344c.588.327 1.246.49 1.974.49 1.092 0 2.012-.392 2.758-1.176l.91.882a4.34 4.34 0 0 1-1.638 1.148 5.471 5.471 0 0 1-2.1.392Zm8.146-7.602c1.026 0 1.81.252 2.352.756.55.504.826 1.255.826 2.254V253H87.14v-.98a2.166 2.166 0 0 1-.966.798c-.41.177-.9.266-1.47.266-.83 0-1.498-.201-2.002-.602-.495-.401-.742-.929-.742-1.582s.238-1.176.714-1.568c.476-.401 1.232-.602 2.268-.602h2.128v-.266c0-.579-.168-1.022-.504-1.33-.336-.308-.83-.462-1.484-.462-.439 0-.868.075-1.288.224a3.21 3.21 0 0 0-1.064.574l-.56-1.008a3.97 3.97 0 0 1 1.372-.7 5.593 5.593 0 0 1 1.694-.252Zm-.308 6.538c.513 0 .956-.112 1.33-.336a2 2 0 0 0 .812-.98v-1.036h-2.072c-1.139 0-1.708.383-1.708 1.148 0 .373.144.667.434.882.29.215.69.322 1.204.322Zm9.935-6.538c.943 0 1.69.275 2.24.826.56.541.84 1.339.84 2.394V253H96.6v-4.116c0-.719-.173-1.26-.518-1.624-.345-.364-.84-.546-1.484-.546-.728 0-1.302.215-1.722.644-.42.42-.63 1.027-.63 1.82V253h-1.344v-7.42h1.288v1.12c.27-.383.635-.677 1.092-.882a3.895 3.895 0 0 1 1.582-.308Zm8.842 7.574c-.756 0-1.432-.163-2.03-.49a3.624 3.624 0 0 1-1.386-1.344c-.336-.579-.504-1.232-.504-1.96s.168-1.377.504-1.946a3.486 3.486 0 0 1 1.386-1.344c.598-.327 1.274-.49 2.03-.49.672 0 1.27.135 1.792.406.532.271.943.663 1.232 1.176l-1.022.658a2.27 2.27 0 0 0-.868-.798 2.479 2.479 0 0 0-1.148-.266c-.485 0-.924.107-1.316.322a2.352 2.352 0 0 0-.91.924c-.214.392-.322.845-.322 1.358 0 .523.108.985.322 1.386.224.392.528.695.91.91.392.215.831.322 1.316.322.42 0 .803-.089 1.148-.266a2.27 2.27 0 0 0 .868-.798l1.022.644c-.289.513-.7.91-1.232 1.19-.522.271-1.12.406-1.792.406Zm11.361-3.752c0 .103-.009.238-.028.406h-6.02c.084.653.369 1.181.854 1.582.495.392 1.106.588 1.834.588.887 0 1.601-.299 2.142-.896l.742.868a3.237 3.237 0 0 1-1.26.896 4.316 4.316 0 0 1-1.666.308c-.784 0-1.479-.159-2.086-.476a3.537 3.537 0 0 1-1.414-1.358c-.327-.579-.49-1.232-.49-1.96 0-.719.159-1.367.476-1.946a3.471 3.471 0 0 1 1.33-1.344c.569-.327 1.209-.49 1.918-.49.709 0 1.339.163 1.89.49.56.317.994.765 1.302 1.344.317.579.476 1.241.476 1.988Zm-3.668-2.688c-.644 0-1.185.196-1.624.588-.429.392-.681.905-.756 1.54h4.76c-.075-.625-.331-1.134-.77-1.526-.429-.401-.966-.602-1.61-.602Zm5.534-4.032h1.344V253h-1.344v-10.388Zm4.232 10.472a.944.944 0 0 1-.672-.266.953.953 0 0 1-.28-.7c0-.271.094-.495.28-.672a.916.916 0 0 1 .672-.28c.262 0 .481.089.658.266a.925.925 0 0 1 .266.686c0 .28-.093.513-.28.7a.878.878 0 0 1-.644.266Zm2.85-10.472h1.344V253h-1.344v-10.388Zm6.612 2.898c1.027 0 1.811.252 2.352.756.551.504.826 1.255.826 2.254V253h-1.274v-.98a2.166 2.166 0 0 1-.966.798c-.41.177-.9.266-1.47.266-.83 0-1.498-.201-2.002-.602-.494-.401-.742-.929-.742-1.582s.238-1.176.714-1.568c.476-.401 1.232-.602 2.268-.602h2.128v-.266c0-.579-.168-1.022-.504-1.33-.336-.308-.83-.462-1.484-.462a3.83 3.83 0 0 0-1.288.224 3.22 3.22 0 0 0-1.064.574l-.56-1.008c.383-.308.84-.541 1.372-.7a5.595 5.595 0 0 1 1.694-.252Zm-.308 6.538c.514 0 .957-.112 1.33-.336.374-.233.644-.56.812-.98v-1.036h-2.072c-1.138 0-1.708.383-1.708 1.148 0 .373.145.667.434.882.29.215.691.322 1.204.322Zm7.262-5.222a2.29 2.29 0 0 1 1.036-.98c.457-.224 1.012-.336 1.666-.336v1.302a2.712 2.712 0 0 0-.308-.014c-.728 0-1.302.219-1.722.658-.411.429-.616 1.045-.616 1.848V253h-1.344v-7.42h1.288v1.246Z"/><rect width="98" height="43" x="242" y="226" fill="#35B549" rx="21.5"/><path fill="#FDFDFD" d="M266.768 243.2c1.269 0 2.268.303 2.996.91.728.607 1.092 1.442 1.092 2.506 0 1.064-.364 1.899-1.092 2.506-.728.607-1.727.91-2.996.91h-2.422V253h-1.4v-9.8h3.822Zm-.042 5.614c.886 0 1.563-.187 2.03-.56.466-.383.7-.929.7-1.638 0-.709-.234-1.251-.7-1.624-.467-.383-1.144-.574-2.03-.574h-2.38v4.396h2.38Zm13.043-3.234V253h-1.274v-1.12c-.271.383-.63.681-1.078.896a3.364 3.364 0 0 1-1.442.308c-.989 0-1.769-.271-2.338-.812-.569-.551-.854-1.358-.854-2.422v-4.27h1.344v4.116c0 .719.173 1.265.518 1.638.345.364.84.546 1.484.546.709 0 1.269-.215 1.68-.644.411-.429.616-1.036.616-1.82v-3.836h1.344Zm6.493-.07c.718 0 1.362.159 1.932.476a3.382 3.382 0 0 1 1.33 1.33c.326.569.49 1.227.49 1.974 0 .747-.164 1.409-.49 1.988a3.382 3.382 0 0 1-1.33 1.33c-.57.317-1.214.476-1.932.476a3.507 3.507 0 0 1-1.512-.322 2.9 2.9 0 0 1-1.134-.938V253h-1.288v-10.388h1.344v4.088a2.791 2.791 0 0 1 1.12-.882 3.49 3.49 0 0 1 1.47-.308Zm-.112 6.398c.476 0 .9-.107 1.274-.322.382-.224.681-.532.896-.924.224-.401.336-.859.336-1.372 0-.513-.112-.966-.336-1.358a2.26 2.26 0 0 0-.896-.924 2.508 2.508 0 0 0-1.274-.322c-.467 0-.892.107-1.274.322a2.249 2.249 0 0 0-.896.924c-.215.392-.322.845-.322 1.358 0 .513.107.971.322 1.372.214.392.513.7.896.924.382.215.807.322 1.274.322Zm5.721-9.296h1.344V253h-1.344v-10.388Zm3.91 2.968h1.344V253h-1.344v-7.42Zm.672-1.428a.92.92 0 0 1-.658-.252.837.837 0 0 1-.252-.616c0-.243.084-.448.252-.616a.895.895 0 0 1 .658-.266c.261 0 .476.084.644.252a.774.774 0 0 1 .266.602.878.878 0 0 1-.266.644.873.873 0 0 1-.644.252Zm6.472 8.932c-.756 0-1.433-.163-2.03-.49a3.624 3.624 0 0 1-1.386-1.344c-.336-.579-.504-1.232-.504-1.96s.168-1.377.504-1.946a3.486 3.486 0 0 1 1.386-1.344c.597-.327 1.274-.49 2.03-.49.672 0 1.269.135 1.792.406.532.271.943.663 1.232 1.176l-1.022.658a2.278 2.278 0 0 0-.868-.798 2.479 2.479 0 0 0-1.148-.266c-.485 0-.924.107-1.316.322a2.345 2.345 0 0 0-.91.924c-.215.392-.322.845-.322 1.358 0 .523.107.985.322 1.386.224.392.527.695.91.91.392.215.831.322 1.316.322.42 0 .803-.089 1.148-.266.345-.177.635-.443.868-.798l1.022.644c-.289.513-.7.91-1.232 1.19-.523.271-1.12.406-1.792.406Zm7.466-7.574c1.027 0 1.811.252 2.352.756.551.504.826 1.255.826 2.254V253h-1.274v-.98a2.166 2.166 0 0 1-.966.798c-.411.177-.901.266-1.47.266-.831 0-1.498-.201-2.002-.602-.495-.401-.742-.929-.742-1.582s.238-1.176.714-1.568c.476-.401 1.232-.602 2.268-.602h2.128v-.266c0-.579-.168-1.022-.504-1.33-.336-.308-.831-.462-1.484-.462-.439 0-.868.075-1.288.224a3.21 3.21 0 0 0-1.064.574l-.56-1.008c.383-.308.84-.541 1.372-.7a5.595 5.595 0 0 1 1.694-.252Zm-.308 6.538c.513 0 .957-.112 1.33-.336a2 2 0 0 0 .812-.98v-1.036h-2.072c-1.139 0-1.708.383-1.708 1.148 0 .373.145.667.434.882.289.215.691.322 1.204.322Zm7.261-5.222a2.3 2.3 0 0 1 1.036-.98c.458-.224 1.013-.336 1.666-.336v1.302a2.687 2.687 0 0 0-.308-.014c-.728 0-1.302.219-1.722.658-.41.429-.616 1.045-.616 1.848V253h-1.344v-7.42h1.288v1.246Z"/><g clip-path="url(#b)" filter="url(#c)"><path fill="#CED2D9" fill-opacity="0.9" d="M4 298h390v218H4z"/><g filter="url(#d)"><g filter="url(#e)"><rect width="34" height="43" x="62" y="414" fill="#fff" rx="5"/><path fill="#000" d="M73.195 443h9.598v-1.301h-7.734v-.14l7.71-9.997v-1.183h-9.562v1.301h7.723v.14l-7.735 10.008V443Z"/></g><g filter="url(#f)"><rect width="35" height="43" x="102" y="414" fill="#fff" rx="5"/><path fill="#000" d="M112.703 443h1.758l3.445-5.156h.141L121.48 443h1.84l-4.476-6.41 4.429-6.211h-1.769l-3.399 5.039h-.152l-3.433-5.039h-1.84l4.476 6.269-4.453 6.352Z"/></g><g filter="url(#g)"><rect width="34" height="43" x="143" y="414" fill="#fff" rx="5"/><path fill="#000" d="M159.328 443.211c2.883 0 4.641-1.535 5.133-3.762l.023-.094-1.546.012-.024.059c-.445 1.523-1.734 2.402-3.598 2.402-2.496 0-4.101-2.027-4.101-5.168v-.023c0-3.106 1.594-5.086 4.101-5.086 1.934 0 3.246 1.066 3.622 2.519l.011.035 1.535-.011v-.047c-.386-2.215-2.273-3.879-5.168-3.879-3.48 0-5.683 2.531-5.683 6.469v.023c0 3.996 2.215 6.551 5.695 6.551Z"/></g><g filter="url(#h)"><rect width="33" height="43" x="183" y="414" fill="#fff" rx="5"/><path fill="#000" d="M198.18 443h1.64l4.711-12.621h-1.652l-3.809 10.945h-.14l-3.821-10.945h-1.64L198.18 443Z"/></g><g filter="url(#i)"><rect width="34" height="43" x="222" y="414" fill="#fff" rx="5"/><path fill="#000" d="M238.691 443.211c3.188 0 5.309-2.613 5.309-6.516v-.023c0-3.926-2.109-6.504-5.309-6.504-1.91 0-3.539 1.031-4.23 2.66h-.152v-7.476h-1.547V443h1.547v-2.52h.152c.727 1.7 2.297 2.731 4.23 2.731Zm-.316-1.383c-2.484 0-4.09-2.027-4.09-5.133v-.023c0-3.106 1.606-5.121 4.09-5.121s4.043 1.98 4.043 5.109v.024c0 3.14-1.559 5.144-4.043 5.144Z"/></g><g filter="url(#j)"><rect width="35" height="43" x="262" y="414" fill="#fff" rx="5"/><path fill="#000" d="M272.996 443h1.547v-7.5c0-2.379 1.512-3.949 3.738-3.949 2.192 0 3.281 1.23 3.281 3.633V443h1.547v-8.203c0-2.942-1.605-4.629-4.418-4.629-1.968 0-3.328.902-3.996 2.426h-.152v-2.215h-1.547V443Z"/></g><g filter="url(#k)"><rect width="34" height="43" x="303" y="414" fill="#fff" rx="5"/><path fill="#000" d="M310.598 443h1.547v-7.746c0-2.063 1.406-3.703 3.234-3.703 1.746 0 2.894 1.183 2.894 3V443h1.547v-8.004c0-1.957 1.301-3.445 3.246-3.445 1.899 0 2.895 1.101 2.895 3.164V443h1.559v-8.637c0-2.672-1.465-4.195-3.997-4.195-1.816 0-3.293.973-3.937 2.484h-.152c-.539-1.511-1.805-2.484-3.575-2.484-1.722 0-3.023.926-3.562 2.437h-.152v-2.226h-1.547V443Z"/></g><g filter="url(#l)"><rect width="33" height="43" x="9" y="360" fill="#fff" rx="5"/><path fill="#000" d="M23.363 389.211c1.864 0 3.375-.879 4.125-2.379h.14V389h1.56v-8.625c0-2.66-1.723-4.207-4.676-4.207-2.614 0-4.524 1.289-4.852 3.305l-.012.047h1.559l.012-.024c.328-1.254 1.535-1.945 3.246-1.945 2.039 0 3.164.984 3.164 2.836v1.183l-3.938.258c-2.918.199-4.546 1.477-4.546 3.668v.024c0 2.25 1.78 3.691 4.218 3.691Zm-2.636-3.715v-.023c0-1.43 1.03-2.239 3.175-2.379l3.727-.258v1.465c0 2.004-1.711 3.551-3.973 3.551-1.699 0-2.93-.914-2.93-2.356Z"/></g><g filter="url(#m)"><rect width="32" height="43" x="48" y="360" fill="#fff" rx="5"/><path fill="#000" d="M63.523 389.211c2.754 0 4.875-1.523 4.875-3.691v-.024c0-1.816-1.183-2.801-3.62-3.387l-1.747-.41c-1.675-.398-2.449-.996-2.449-2.027v-.024c0-1.253 1.3-2.179 2.953-2.179 1.676 0 2.848.797 3.13 1.969h1.522c-.293-1.993-2.097-3.27-4.64-3.27-2.543 0-4.547 1.512-4.547 3.551v.011c0 1.77 1.09 2.743 3.434 3.293l1.757.422c1.84.434 2.625 1.078 2.625 2.168v.024c0 1.312-1.394 2.261-3.246 2.261-1.828 0-3.035-.808-3.375-2.062h-1.593c.257 2.062 2.168 3.375 4.921 3.375Z"/></g><g filter="url(#n)"><rect width="33" height="43" x="86" y="360" fill="#fff" rx="5"/><path fill="#000" d="M100.82 389.211c1.946 0 3.504-1.031 4.242-2.731h.141V389h1.559v-17.648h-1.559v7.488h-.141c-.703-1.629-2.332-2.672-4.242-2.672-3.199 0-5.332 2.602-5.332 6.516v.023c0 3.891 2.145 6.504 5.332 6.504Zm.328-1.383c-2.496 0-4.078-2.004-4.078-5.133v-.023c0-3.117 1.582-5.121 4.078-5.121 2.485 0 4.09 2.015 4.09 5.121v.023c0 3.117-1.605 5.133-4.09 5.133Z"/></g><g filter="url(#o)"><rect width="33" height="43" x="125" y="360" fill="#fff" rx="5"/><path fill="#000" d="M139.117 389h1.559v-11.32h2.953v-1.301h-2.953v-1.582c0-1.465.668-2.262 2.121-2.262.363 0 .715.024.949.059v-1.254a6.71 6.71 0 0 0-1.23-.106c-2.204 0-3.399 1.184-3.399 3.528v1.617h-2.097v1.301h2.097V389Z"/></g><g filter="url(#p)"><rect width="32" height="43" x="164" y="360" fill="#fff" rx="5"/><path fill="#000" d="M179.324 393.406c3.317 0 5.485-1.804 5.485-4.558v-12.469h-1.559v2.555h-.105c-.727-1.688-2.286-2.766-4.231-2.766-3.258 0-5.344 2.578-5.344 6.187v.024c0 3.621 2.075 6.164 5.321 6.164 1.933 0 3.48-.961 4.23-2.625h.152v2.824c0 2.039-1.511 3.281-3.949 3.281-1.922 0-3.234-.761-3.515-1.863l-.012-.012h-1.606l-.011.012c.328 1.957 2.25 3.246 5.144 3.246Zm-.129-6.246c-2.519 0-4.043-1.957-4.043-4.781v-.024c0-2.824 1.524-4.804 4.043-4.804 2.496 0 4.102 2.004 4.102 4.828v.023c0 2.825-1.57 4.758-4.102 4.758Z"/></g><g filter="url(#q)"><rect width="33" height="43" x="202" y="360" fill="#fff" rx="5"/><path fill="#000" d="M212.555 389h1.547v-7.5c0-2.379 1.511-3.949 3.738-3.949 2.18 0 3.281 1.23 3.281 3.633V389h1.547v-8.203c0-2.942-1.606-4.629-4.418-4.629-1.969 0-3.328.891-3.996 2.426h-.152v-7.242h-1.547V389Z"/></g><g filter="url(#r)"><rect width="35" height="43" x="239" y="360" fill="#fff" rx="5"/><path fill="#000" d="M254.488 373.754a1.14 1.14 0 0 0 1.149-1.137 1.14 1.14 0 0 0-1.149-1.137 1.137 1.137 0 0 0 0 2.274Zm-2.777 19.547c2.379 0 3.551-1.031 3.551-3.504v-13.418h-1.547v13.453c0 1.512-.598 2.086-2.039 2.086h-.246v1.383h.281Z"/></g><g filter="url(#s)"><rect width="34" height="43" x="278" y="360" fill="#fff" rx="5"/><path fill="#000" d="M289.199 389h1.547v-4.898l1.418-1.336L297.25 389h1.969l-5.942-7.277 5.684-5.344h-1.922l-6.141 5.906h-.152v-10.933h-1.547V389Z"/></g><g filter="url(#t)"><rect width="34" height="43" x="317" y="360" fill="#fff" rx="5"/><path fill="#000" d="M331.727 389h1.546v-17.648h-1.546V389Z"/></g><g filter="url(#u)"><rect width="33" height="43" x="355" y="360" fill="#fff" rx="5"/><path fill="#000" d="M372.305 374.422c1.347 0 2.121-1.172 2.121-3.012v-.14h-1.278v.093c0 1.172-.363 1.852-.972 1.852-.375 0-.668-.176-1.149-.68l-.164-.176c-.644-.656-1.218-1.054-2.039-1.054-1.347 0-2.133 1.172-2.133 3.011v.141h1.278v-.094c0-1.172.375-1.851.984-1.851.375 0 .656.176 1.149.679l.164.176c.632.656 1.218 1.055 2.039 1.055ZM365.496 389h1.547v-7.5c0-2.379 1.512-3.949 3.738-3.949 2.192 0 3.281 1.23 3.281 3.633V389h1.547v-8.203c0-2.942-1.605-4.629-4.418-4.629-1.968 0-3.328.902-3.996 2.426h-.152v-2.215h-1.547V389Z"/></g><g filter="url(#v)"><rect width="33" height="43" x="9" y="306" fill="#fff" rx="5"/><path fill="#000" d="M28.273 339.184h1.547v-16.805h-1.547v2.578h-.117c-.773-1.711-2.379-2.789-4.277-2.789-3.2 0-5.309 2.59-5.309 6.504v.023c0 3.914 2.121 6.516 5.309 6.516 1.957 0 3.55-.984 4.242-2.613h.152v6.586Zm-4.066-5.356c-2.484 0-4.055-1.992-4.055-5.121v-.023c0-3.141 1.57-5.133 4.043-5.133 2.485 0 4.114 2.027 4.114 5.133v.011c0 3.094-1.63 5.133-4.102 5.133Z"/></g><g filter="url(#w)"><rect width="32" height="43" x="48" y="306" fill="#fff" rx="5"/><path fill="#000" d="M58.684 335H60.3l3.105-10.477h.153L66.664 335h1.629l3.598-12.621h-1.547l-2.825 10.711h-.14l-3.117-10.711h-1.535l-3.118 10.711h-.14l-2.801-10.711h-1.559L58.684 335Z"/></g><g filter="url(#x)"><rect width="33" height="43" x="86" y="306" fill="#fff" rx="5"/><path fill="#000" d="M101.688 335.211c2.789 0 4.628-1.523 5.121-3.234l.035-.094h-1.559l-.047.082c-.41.984-1.676 1.851-3.515 1.851-2.508 0-4.125-1.769-4.172-4.722h9.48v-.656c0-3.739-2.086-6.27-5.472-6.27-3.387 0-5.59 2.602-5.59 6.539v.023c0 3.961 2.18 6.481 5.719 6.481Zm-.129-11.66c2.168 0 3.726 1.476 3.902 4.277h-7.898c.199-2.73 1.816-4.277 3.996-4.277Z"/></g><g filter="url(#y)"><rect width="32" height="43" x="125" y="306" fill="#fff" rx="5"/><path fill="#000" d="M138.004 335h1.547v-7.875c0-2.039 1.453-3.48 3.422-3.48.48 0 .89.046 1.347.164v-1.524a5.53 5.53 0 0 0-1.183-.117c-1.711 0-2.942.844-3.434 2.285h-.152v-2.074h-1.547V335Z"/></g><g filter="url(#z)"><rect width="33" height="43" x="163" y="306" fill="#fff" rx="5"/><path fill="#000" d="M180.41 335.082c.375 0 .727-.035 1.078-.094v-1.336a7.19 7.19 0 0 1-.902.047c-1.43 0-1.981-.644-1.981-2.191v-7.828h2.883v-1.301h-2.883v-3.281H177v3.281h-2.027v1.301H177v8.179c0 2.297.996 3.223 3.41 3.223Z"/></g><g filter="url(#A)"><rect width="32" height="43" x="202" y="306" fill="#fff" rx="5"/><path fill="#000" d="M214.02 339.359c2.027 0 2.988-.785 3.914-3.257l5.097-13.723h-1.64l-3.797 10.945h-.164l-3.809-10.945h-1.664l4.734 12.703-.316.949c-.516 1.512-1.23 2.028-2.402 2.028-.211 0-.457 0-.645-.036v1.289c.223.036.481.047.692.047Z"/></g><g filter="url(#B)"><rect width="32" height="43" x="240" y="306" fill="#fff" rx="5"/><path fill="#000" d="M254.82 335.211c1.957 0 3.375-.891 3.996-2.414h.141V335h1.547v-12.621h-1.547v7.5c0 2.391-1.406 3.949-3.762 3.949-2.168 0-3.257-1.277-3.257-3.633v-7.816h-1.547v8.203c0 2.895 1.593 4.629 4.429 4.629Z"/></g><g filter="url(#C)"><rect width="33" height="43" x="278" y="306" fill="#fff" rx="5"/><path fill="#000" d="M293.512 319.754a1.137 1.137 0 0 0 0-2.274 1.14 1.14 0 0 0-1.149 1.137 1.14 1.14 0 0 0 1.149 1.137ZM292.727 335h1.546v-12.621h-1.546V335Z"/></g><g filter="url(#D)"><rect width="32" height="43" x="317" y="306" fill="#fff" rx="5"/><path fill="#000" d="M332.5 335.211c3.527 0 5.742-2.496 5.742-6.516v-.023c0-4.02-2.215-6.504-5.742-6.504s-5.73 2.484-5.73 6.504v.023c0 4.02 2.203 6.516 5.73 6.516Zm0-1.383c-2.602 0-4.148-1.945-4.148-5.133v-.023c0-3.188 1.546-5.121 4.148-5.121 2.602 0 4.148 1.933 4.148 5.121v.023c0 3.188-1.546 5.133-4.148 5.133Z"/></g><g filter="url(#E)"><rect width="33" height="43" x="355" y="306" fill="#fff" rx="5"/><path fill="#000" d="M365.191 339.184h1.547v-6.645h.153c.691 1.629 2.32 2.672 4.23 2.672 3.199 0 5.344-2.602 5.344-6.516v-.023c0-3.891-2.145-6.504-5.344-6.504-1.933 0-3.492 1.031-4.23 2.719h-.153v-2.508h-1.547v16.805Zm5.614-5.356c-2.485 0-4.09-2.016-4.09-5.133v-.023c0-3.106 1.605-5.121 4.09-5.121 2.496 0 4.078 2.004 4.078 5.121v.023c0 3.129-1.582 5.133-4.078 5.133Z"/></g><g filter="url(#F)"><rect width="42" height="43" x="7" y="414" fill="#AEB3BE" rx="5"/><path fill="#000" fill-rule="evenodd" d="M25.036 436.242v6.007h5.927v-6.007h3.911L28 429.144l-6.874 7.098h3.91Zm2.605-8.74a.499.499 0 0 1 .718 0l8.999 9.293a.5.5 0 0 1-.359.848h-4.637v5.507a.5.5 0 0 1-.5.5h-7.725a.5.5 0 0 1-.5-.5v-5.507H19a.5.5 0 0 1-.359-.848l9-9.293Z" clip-rule="evenodd"/></g><g filter="url(#G)"><rect width="42" height="42" x="349" y="414" fill="#AEB3BE" rx="5"/><path fill="#000" d="M369.214 432.525a.752.752 0 0 1 0-1.061.752.752 0 0 1 1.061 0l2.475 2.475 2.475-2.475a.752.752 0 0 1 1.061 0 .752.752 0 0 1 0 1.061L373.811 435l2.475 2.475a.752.752 0 0 1 0 1.061.752.752 0 0 1-1.061 0l-2.475-2.475-2.475 2.475a.752.752 0 0 1-1.061 0 .752.752 0 0 1 0-1.061l2.475-2.475-2.475-2.475Z"/><path fill="#000" fill-rule="evenodd" d="M366.121 427.379 358.5 435l7.621 7.621a3 3 0 0 0 2.122.879H378.5a3 3 0 0 0 3-3v-11a3 3 0 0 0-3-3h-10.257a3 3 0 0 0-2.122.879ZM378.5 442.2h-10.257c-.451 0-.884-.179-1.202-.498L360.339 435l6.702-6.702a1.697 1.697 0 0 1 1.202-.498H378.5a1.7 1.7 0 0 1 1.7 1.7v11a1.7 1.7 0 0 1-1.7 1.7Z" clip-rule="evenodd"/></g></g><g filter="url(#H)"><rect width="40" height="43" x="7" y="470" fill="#AEB3BE" rx="5"/><path fill="#000" d="M17.94 497h1.407v-11.273H17.95l-3 2.156v1.484l2.867-2.078h.125V497Zm4.345 0h7.297v-1.266h-5.344v-.125l2.563-2.648c2.039-2.102 2.593-3.039 2.593-4.328v-.016c0-1.82-1.507-3.156-3.476-3.156-2.156 0-3.703 1.437-3.711 3.437l.015.008 1.344.008.008-.016c0-1.328.898-2.21 2.25-2.21 1.328 0 2.133.89 2.133 2.078v.015c0 .985-.422 1.571-1.86 3.125l-3.812 4.125V497Zm13.172.188c2.258 0 3.914-1.391 3.914-3.274v-.016c0-1.601-1.117-2.625-2.758-2.765v-.031c1.407-.297 2.391-1.25 2.391-2.641v-.016c0-1.711-1.414-2.906-3.562-2.906-2.11 0-3.563 1.227-3.743 3.063l-.007.078h1.351l.008-.078c.117-1.141 1.062-1.844 2.39-1.844 1.376 0 2.149.68 2.149 1.859v.016c0 1.125-.938 1.953-2.281 1.953h-1.352v1.187h1.414c1.578 0 2.57.774 2.57 2.157v.015c0 1.196-1.007 2.024-2.484 2.024-1.5 0-2.523-.766-2.633-1.875l-.007-.078h-1.352l.008.093c.148 1.782 1.656 3.079 3.984 3.079Z"/></g><g filter="url(#I)"><rect width="31" height="42" x="101" y="470" fill="#AEB3BE" rx="5"/><path fill="#000" fill-rule="evenodd" d="M116.998 481a3.21 3.21 0 0 0-3.208 3.207v7.426a3.21 3.21 0 0 0 6.417 0v-7.426a3.208 3.208 0 0 0-3.209-3.207Zm-1.833 3.202v7.435c0 1.001.821 1.827 1.833 1.827 1.02 0 1.834-.818 1.834-1.827v-7.435a1.835 1.835 0 0 0-3.667 0Z" clip-rule="evenodd"/><path fill="#000" d="M117.75 498.624v-1.917c3.5-.2 5-3.071 5-5.876v-1.34a.69.69 0 0 0-.69-.688c-.38 0-.68.308-.68.688v1.339c0 2.806-1.13 4.726-4.33 4.726-2.8 0-4.425-1.92-4.425-4.726v-1.293a.688.688 0 1 0-1.375 0v1.294c0 2.808 2 5.676 5.1 5.876v1.917h-2.577a.687.687 0 1 0 0 1.376h6.477c.375 0 .7-.308.7-.688a.696.696 0 0 0-.7-.688h-2.5Z"/></g><g filter="url(#J)"><rect width="40" height="43" x="54" y="470" fill="#AEB3BE" rx="5"/><path fill="#000" fill-rule="evenodd" d="M74 502c-5.523 0-10-4.477-10-10s4.477-10 10-10 10 4.477 10 10-4.477 10-10 10Zm0-1a9 9 0 0 0 9-9 9 9 0 0 0-9-9 9 9 0 0 0-9 9 9 9 0 0 0 9 9Zm-.012-2c-3.564 0-6.946-3.418-6.946-5.889 0-1.417 3.08.289 6.946.289 3.866 0 6.98-1.704 6.97-.289-.017 2.394-3.406 5.889-6.97 5.889Zm0-3.15c3.314 0 5.606-1.281 5.606-2.205 0-.924-2.292.551-5.606.551s-5.568-1.298-5.568-.551 2.254 2.205 5.568 2.205Zm-3-5.625a1.188 1.188 0 1 1 0-2.376 1.188 1.188 0 0 1 0 2.376Zm6 0a1.188 1.188 0 1 1 0-2.376 1.188 1.188 0 0 1 0 2.376Z" clip-rule="evenodd"/></g><g filter="url(#K)"><rect width="158" height="43" x="139" y="470" fill="#fff" rx="5"/><path fill="#000" d="M187.089 497.148c1.984 0 3.187-1.125 3.476-2.265l.016-.063h-1.359l-.032.071c-.226.507-.929 1.047-2.07 1.047-1.5 0-2.461-1.016-2.5-2.758h6.063v-.532c0-2.515-1.391-4.218-3.68-4.218s-3.774 1.781-3.774 4.382v.008c0 2.641 1.454 4.328 3.86 4.328Zm-.094-7.507c1.242 0 2.164.789 2.305 2.453h-4.657c.149-1.602 1.102-2.453 2.352-2.453Zm8.368 7.507c1.914 0 3.375-1.039 3.375-2.539v-.015c0-1.203-.766-1.891-2.352-2.274l-1.297-.312c-.992-.242-1.414-.602-1.414-1.172v-.016c0-.742.734-1.258 1.734-1.258 1.016 0 1.672.461 1.852 1.126h1.336c-.188-1.376-1.414-2.258-3.18-2.258-1.789 0-3.133 1.054-3.133 2.453v.008c0 1.211.711 1.898 2.289 2.273l1.305.313c1.039.25 1.469.648 1.469 1.218v.016c0 .766-.805 1.305-1.938 1.305-1.078 0-1.75-.461-1.976-1.164h-1.391c.156 1.39 1.446 2.296 3.321 2.296Zm5.164 2.664h1.359v-4.14h.125c.461.898 1.469 1.476 2.625 1.476 2.141 0 3.532-1.71 3.532-4.351v-.016c0-2.625-1.399-4.351-3.532-4.351-1.172 0-2.109.554-2.625 1.492h-.125v-1.344h-1.359v11.234Zm3.797-3.867c-1.531 0-2.469-1.203-2.469-3.148v-.016c0-1.945.938-3.148 2.469-3.148 1.539 0 2.453 1.187 2.453 3.148v.016c0 1.961-.914 3.148-2.453 3.148Zm7.961 1.203c1.133 0 2.016-.492 2.547-1.39h.125V497h1.359v-5.766c0-1.75-1.148-2.804-3.203-2.804-1.797 0-3.078.89-3.297 2.211l-.008.047h1.36l.008-.024c.218-.656.882-1.031 1.89-1.031 1.258 0 1.891.562 1.891 1.601V492l-2.414.148c-1.961.118-3.07.985-3.07 2.485v.015c0 1.532 1.21 2.5 2.812 2.5Zm-1.422-2.531v-.015c0-.836.563-1.29 1.844-1.368l2.25-.14v.765c0 1.203-1.008 2.11-2.391 2.11-.976 0-1.703-.5-1.703-1.352Zm11.063 2.531c2.023 0 3.156-1.086 3.5-2.609l.016-.086-1.344.008-.016.047c-.312.937-1.031 1.437-2.164 1.437-1.5 0-2.469-1.242-2.469-3.179v-.016c0-1.898.954-3.117 2.469-3.117 1.211 0 1.961.672 2.172 1.5l.008.023h1.351l-.007-.047c-.25-1.5-1.477-2.679-3.524-2.679-2.359 0-3.859 1.703-3.859 4.32v.016c0 2.672 1.508 4.382 3.867 4.382Zm5.907-10.195a.94.94 0 0 0 .937-.937.94.94 0 0 0-.937-.938.94.94 0 0 0-.938.938.94.94 0 0 0 .938.937ZM227.145 497h1.359v-8.422h-1.359V497Zm7.063.148c2.398 0 3.883-1.656 3.883-4.351v-.016c0-2.703-1.485-4.351-3.883-4.351-2.399 0-3.883 1.648-3.883 4.351v.016c0 2.695 1.484 4.351 3.883 4.351Zm0-1.203c-1.594 0-2.492-1.164-2.492-3.148v-.016c0-1.992.898-3.148 2.492-3.148 1.594 0 2.492 1.156 2.492 3.148v.016c0 1.984-.898 3.148-2.492 3.148Z"/></g><g filter="url(#L)"><rect width="87" height="43" x="304" y="470" fill="#0F77F0" rx="5"/><path fill="#fff" d="M333.073 486.953a.94.94 0 0 0 .938-.937.94.94 0 0 0-.938-.938.94.94 0 0 0-.937.938.94.94 0 0 0 .937.937ZM332.386 497h1.359v-8.422h-1.359V497Zm3.602 0h1.359v-4.984c0-1.477.852-2.383 2.195-2.383 1.344 0 1.969.726 1.969 2.242V497h1.36v-5.453c0-2-1.055-3.117-2.946-3.117-1.242 0-2.031.523-2.453 1.414h-.125v-1.266h-1.359V497Zm12.016.062c.265 0 .523-.031.789-.078v-1.156a5.54 5.54 0 0 1-.625.031c-.875 0-1.219-.398-1.219-1.39v-4.766h1.844v-1.125h-1.844v-2.18h-1.406v2.18h-1.328v1.125h1.328v5.109c0 1.61.726 2.25 2.461 2.25Zm2.5-.062h1.359v-5.219c0-1.234.922-2.054 2.219-2.054.297 0 .555.031.836.078v-1.321a4.646 4.646 0 0 0-.68-.054c-1.14 0-1.929.515-2.25 1.398h-.125v-1.25h-1.359V497Zm9 .148c2.399 0 3.883-1.656 3.883-4.351v-.016c0-2.703-1.484-4.351-3.883-4.351-2.398 0-3.882 1.648-3.882 4.351v.016c0 2.695 1.484 4.351 3.882 4.351Zm0-1.203c-1.593 0-2.492-1.164-2.492-3.148v-.016c0-1.992.899-3.148 2.492-3.148 1.594 0 2.493 1.156 2.493 3.148v.016c0 1.984-.899 3.148-2.493 3.148Z"/></g></g><rect width="356.5" height="84.5" x="20.75" y="73.75" fill="#fff" stroke="#5FA9AE" stroke-width="1.5" rx="9.25"/><path fill="#979797" d="M42.379 95.976V97h-7.92V85.8h7.68v1.024h-6.496v3.984h5.792v1.008h-5.792v4.16h6.736Zm4.674 1.104a6.706 6.706 0 0 1-1.968-.288c-.619-.203-1.104-.453-1.456-.752l.512-.896c.352.277.795.507 1.328.688.533.17 1.088.256 1.664.256.768 0 1.333-.117 1.696-.352.373-.245.56-.587.56-1.024 0-.31-.101-.55-.304-.72a1.882 1.882 0 0 0-.768-.4 9.677 9.677 0 0 0-1.232-.272 15.573 15.573 0 0 1-1.648-.384 2.545 2.545 0 0 1-1.072-.688c-.288-.32-.432-.763-.432-1.328 0-.704.293-1.28.88-1.728.587-.448 1.403-.672 2.448-.672.544 0 1.088.075 1.632.224.544.139.992.325 1.344.56l-.496.912c-.693-.48-1.52-.72-2.48-.72-.725 0-1.275.128-1.648.384-.363.256-.544.592-.544 1.008 0 .32.101.576.304.768.213.192.475.336.784.432.31.085.736.176 1.28.272.672.128 1.21.256 1.616.384.405.128.752.347 1.04.656.288.31.432.736.432 1.28 0 .736-.31 1.323-.928 1.76-.608.427-1.456.64-2.544.64Zm9.06 0c-.832 0-1.579-.181-2.24-.544a3.968 3.968 0 0 1-1.536-1.52c-.373-.661-.56-1.403-.56-2.224 0-.821.187-1.557.56-2.208a3.968 3.968 0 0 1 1.536-1.52c.661-.363 1.408-.544 2.24-.544.725 0 1.37.144 1.936.432a3.16 3.16 0 0 1 1.36 1.232l-.848.576a2.593 2.593 0 0 0-1.056-.928 3.07 3.07 0 0 0-1.392-.32 3.29 3.29 0 0 0-1.648.416 2.88 2.88 0 0 0-1.136 1.152c-.267.501-.4 1.072-.4 1.712 0 .65.133 1.227.4 1.728.277.49.656.875 1.136 1.152.49.267 1.04.4 1.648.4a3.2 3.2 0 0 0 1.392-.304 2.593 2.593 0 0 0 1.056-.928l.848.576a3.27 3.27 0 0 1-1.36 1.248c-.576.277-1.221.416-1.936.416Zm6.616-6.848a2.764 2.764 0 0 1 1.184-1.28c.533-.288 1.189-.432 1.968-.432v1.104l-.272-.016c-.886 0-1.579.272-2.08.816-.502.544-.752 1.307-.752 2.288V97H61.64v-8.416h1.088v1.648Zm5.209-1.648h1.135V97h-1.135v-8.416Zm.575-1.84a.804.804 0 0 1-.592-.24.786.786 0 0 1-.24-.576c0-.213.08-.4.24-.56.16-.16.358-.24.592-.24.235 0 .432.08.593.24.16.15.24.33.24.544 0 .235-.08.432-.24.592a.804.804 0 0 1-.593.24Zm11.305 1.84V97H78.73v-1.536a3.165 3.165 0 0 1-1.232 1.2c-.522.277-1.12.416-1.792.416-1.098 0-1.968-.304-2.608-.912-.629-.619-.944-1.52-.944-2.704v-4.88h1.136v4.768c0 .885.22 1.557.656 2.016.438.459 1.062.688 1.872.688.886 0 1.584-.267 2.096-.8.512-.544.768-1.296.768-2.256v-4.416h1.136Zm10.314-.064c1.098 0 1.94.277 2.527.832.587.544.88 1.355.88 2.432V97h-1.088v-1.312c-.255.437-.634.779-1.135 1.024-.491.245-1.078.368-1.76.368-.94 0-1.686-.224-2.24-.672-.555-.448-.832-1.04-.832-1.776 0-.715.256-1.29.767-1.728.523-.437 1.35-.656 2.48-.656h2.672v-.512c0-.725-.202-1.275-.608-1.648-.405-.384-.997-.576-1.776-.576-.533 0-1.045.09-1.535.272-.491.17-.912.41-1.264.72l-.513-.848c.427-.363.94-.64 1.537-.832a5.835 5.835 0 0 1 1.888-.304Zm-.4 7.664c.64 0 1.189-.144 1.647-.432.46-.299.8-.725 1.024-1.28v-1.376h-2.64c-1.44 0-2.16.501-2.16 1.504 0 .49.187.88.56 1.168.374.277.897.416 1.569.416Zm10.412.896c-.832 0-1.578-.181-2.24-.544a3.968 3.968 0 0 1-1.536-1.52c-.373-.661-.56-1.403-.56-2.224 0-.821.187-1.557.56-2.208a3.968 3.968 0 0 1 1.536-1.52c.662-.363 1.408-.544 2.24-.544.726 0 1.371.144 1.936.432a3.16 3.16 0 0 1 1.36 1.232l-.848.576a2.59 2.59 0 0 0-1.056-.928 3.065 3.065 0 0 0-1.392-.32 3.29 3.29 0 0 0-1.648.416 2.88 2.88 0 0 0-1.136 1.152c-.266.501-.4 1.072-.4 1.712 0 .65.134 1.227.4 1.728.278.49.656.875 1.136 1.152.49.267 1.04.4 1.648.4.502 0 .966-.101 1.392-.304a2.59 2.59 0 0 0 1.056-.928l.848.576c-.33.544-.784.96-1.36 1.248-.576.277-1.221.416-1.936.416Zm5.528-8.496h1.136V97h-1.136v-8.416Zm1.728-3.296h1.52l-2.592 1.984h-1.12l2.192-1.984Zm2.681 11.792a.829.829 0 0 1-.608-.256.879.879 0 0 1-.24-.624c0-.245.08-.448.24-.608a.829.829 0 0 1 .608-.256.83.83 0 0 1 .608.256.8.8 0 0 1 .256.608.852.852 0 0 1-.256.624.832.832 0 0 1-.608.256Zm3.39 0a.832.832 0 0 1-.608-.256.879.879 0 0 1-.24-.624c0-.245.08-.448.24-.608a.832.832 0 0 1 .608-.256c.235 0 .438.085.608.256.171.16.256.363.256.608a.848.848 0 0 1-.256.624.829.829 0 0 1-.608.256Zm3.391 0a.83.83 0 0 1-.608-.256.879.879 0 0 1-.24-.624c0-.245.08-.448.24-.608a.83.83 0 0 1 .608-.256.83.83 0 0 1 .608.256c.171.16.256.363.256.608a.848.848 0 0 1-.256.624.83.83 0 0 1-.608.256Z"/><rect width="16" height="16" x="20.5" y="175.5" fill="#fff" stroke="#979797" rx="2.5"/><defs><filter id="a" width="398" height="577" x="0" y="0" color-interpolation-filters="sRGB" filterUnits="userSpaceOnUse"><feFlood flood-opacity="0" result="BackgroundImageFix"/><feColorMatrix in="SourceAlpha" result="hardAlpha" values="0 0 0 0 0 0 0 0 0 0 0 0 0 0 0 0 0 0 127 0"/><feOffset/><feGaussianBlur stdDeviation="2"/><feComposite in2="hardAlpha" operator="out"/><feColorMatrix values="0 0 0 0 0 0 0 0 0 0 0 0 0 0 0 0 0 0 0.15 0"/><feBlend in2="BackgroundImageFix" result="effect1_dropShadow_325_16136"/><feBlend in="SourceGraphic" in2="effect1_dropShadow_325_16136" result="shape"/></filter><filter id="c" width="530" height="358" x="-66" y="228" color-interpolation-filters="sRGB" filterUnits="userSpaceOnUse"><feFlood flood-opacity="0" result="BackgroundImageFix"/><feGaussianBlur in="BackgroundImageFix" stdDeviation="35"/><feComposite in2="SourceAlpha" operator="in" result="effect1_backgroundBlur_325_16136"/><feBlend in="SourceGraphic" in2="effect1_backgroundBlur_325_16136" result="shape"/></filter><filter id="d" width="530" height="309" x="-66" y="228" color-interpolation-filters="sRGB" filterUnits="userSpaceOnUse"><feFlood flood-opacity="0" result="BackgroundImageFix"/><feGaussianBlur in="BackgroundImageFix" stdDeviation="35"/><feComposite in2="SourceAlpha" operator="in" result="effect1_backgroundBlur_325_16136"/><feBlend in="SourceGraphic" in2="effect1_backgroundBlur_325_16136" result="shape"/></filter><filter id="e" width="34" height="44" x="62" y="414" color-interpolation-filters="sRGB" filterUnits="userSpaceOnUse"><feFlood flood-opacity="0" result="BackgroundImageFix"/><feColorMatrix in="SourceAlpha" result="hardAlpha" values="0 0 0 0 0 0 0 0 0 0 0 0 0 0 0 0 0 0 127 0"/><feOffset dy="1"/><feColorMatrix values="0 0 0 0 0 0 0 0 0 0 0 0 0 0 0 0 0 0 0.3 0"/><feBlend in2="BackgroundImageFix" result="effect1_dropShadow_325_16136"/><feBlend in="SourceGraphic" in2="effect1_dropShadow_325_16136" result="shape"/></filter><filter id="f" width="35" height="44" x="102" y="414" color-interpolation-filters="sRGB" filterUnits="userSpaceOnUse"><feFlood flood-opacity="0" result="BackgroundImageFix"/><feColorMatrix in="SourceAlpha" result="hardAlpha" values="0 0 0 0 0 0 0 0 0 0 0 0 0 0 0 0 0 0 127 0"/><feOffset dy="1"/><feColorMatrix values="0 0 0 0 0 0 0 0 0 0 0 0 0 0 0 0 0 0 0.3 0"/><feBlend in2="BackgroundImageFix" result="effect1_dropShadow_325_16136"/><feBlend in="SourceGraphic" in2="effect1_dropShadow_325_16136" result="shape"/></filter><filter id="g" width="34" height="44" x="143" y="414" color-interpolation-filters="sRGB" filterUnits="userSpaceOnUse"><feFlood flood-opacity="0" result="BackgroundImageFix"/><feColorMatrix in="SourceAlpha" result="hardAlpha" values="0 0 0 0 0 0 0 0 0 0 0 0 0 0 0 0 0 0 127 0"/><feOffset dy="1"/><feColorMatrix values="0 0 0 0 0 0 0 0 0 0 0 0 0 0 0 0 0 0 0.3 0"/><feBlend in2="BackgroundImageFix" result="effect1_dropShadow_325_16136"/><feBlend in="SourceGraphic" in2="effect1_dropShadow_325_16136" result="shape"/></filter><filter id="h" width="33" height="44" x="183" y="414" color-interpolation-filters="sRGB" filterUnits="userSpaceOnUse"><feFlood flood-opacity="0" result="BackgroundImageFix"/><feColorMatrix in="SourceAlpha" result="hardAlpha" values="0 0 0 0 0 0 0 0 0 0 0 0 0 0 0 0 0 0 127 0"/><feOffset dy="1"/><feColorMatrix values="0 0 0 0 0 0 0 0 0 0 0 0 0 0 0 0 0 0 0.3 0"/><feBlend in2="BackgroundImageFix" result="effect1_dropShadow_325_16136"/><feBlend in="SourceGraphic" in2="effect1_dropShadow_325_16136" result="shape"/></filter><filter id="i" width="34" height="44" x="222" y="414" color-interpolation-filters="sRGB" filterUnits="userSpaceOnUse"><feFlood flood-opacity="0" result="BackgroundImageFix"/><feColorMatrix in="SourceAlpha" result="hardAlpha" values="0 0 0 0 0 0 0 0 0 0 0 0 0 0 0 0 0 0 127 0"/><feOffset dy="1"/><feColorMatrix values="0 0 0 0 0 0 0 0 0 0 0 0 0 0 0 0 0 0 0.3 0"/><feBlend in2="BackgroundImageFix" result="effect1_dropShadow_325_16136"/><feBlend in="SourceGraphic" in2="effect1_dropShadow_325_16136" result="shape"/></filter><filter id="j" width="35" height="44" x="262" y="414" color-interpolation-filters="sRGB" filterUnits="userSpaceOnUse"><feFlood flood-opacity="0" result="BackgroundImageFix"/><feColorMatrix in="SourceAlpha" result="hardAlpha" values="0 0 0 0 0 0 0 0 0 0 0 0 0 0 0 0 0 0 127 0"/><feOffset dy="1"/><feColorMatrix values="0 0 0 0 0 0 0 0 0 0 0 0 0 0 0 0 0 0 0.3 0"/><feBlend in2="BackgroundImageFix" result="effect1_dropShadow_325_16136"/><feBlend in="SourceGraphic" in2="effect1_dropShadow_325_16136" result="shape"/></filter><filter id="k" width="34" height="44" x="303" y="414" color-interpolation-filters="sRGB" filterUnits="userSpaceOnUse"><feFlood flood-opacity="0" result="BackgroundImageFix"/><feColorMatrix in="SourceAlpha" result="hardAlpha" values="0 0 0 0 0 0 0 0 0 0 0 0 0 0 0 0 0 0 127 0"/><feOffset dy="1"/><feColorMatrix values="0 0 0 0 0 0 0 0 0 0 0 0 0 0 0 0 0 0 0.3 0"/><feBlend in2="BackgroundImageFix" result="effect1_dropShadow_325_16136"/><feBlend in="SourceGraphic" in2="effect1_dropShadow_325_16136" result="shape"/></filter><filter id="l" width="33" height="44" x="9" y="360" color-interpolation-filters="sRGB" filterUnits="userSpaceOnUse"><feFlood flood-opacity="0" result="BackgroundImageFix"/><feColorMatrix in="SourceAlpha" result="hardAlpha" values="0 0 0 0 0 0 0 0 0 0 0 0 0 0 0 0 0 0 127 0"/><feOffset dy="1"/><feColorMatrix values="0 0 0 0 0 0 0 0 0 0 0 0 0 0 0 0 0 0 0.3 0"/><feBlend in2="BackgroundImageFix" result="effect1_dropShadow_325_16136"/><feBlend in="SourceGraphic" in2="effect1_dropShadow_325_16136" result="shape"/></filter><filter id="m" width="32" height="44" x="48" y="360" color-interpolation-filters="sRGB" filterUnits="userSpaceOnUse"><feFlood flood-opacity="0" result="BackgroundImageFix"/><feColorMatrix in="SourceAlpha" result="hardAlpha" values="0 0 0 0 0 0 0 0 0 0 0 0 0 0 0 0 0 0 127 0"/><feOffset dy="1"/><feColorMatrix values="0 0 0 0 0 0 0 0 0 0 0 0 0 0 0 0 0 0 0.3 0"/><feBlend in2="BackgroundImageFix" result="effect1_dropShadow_325_16136"/><feBlend in="SourceGraphic" in2="effect1_dropShadow_325_16136" result="shape"/></filter><filter id="n" width="33" height="44" x="86" y="360" color-interpolation-filters="sRGB" filterUnits="userSpaceOnUse"><feFlood flood-opacity="0" result="BackgroundImageFix"/><feColorMatrix in="SourceAlpha" result="hardAlpha" values="0 0 0 0 0 0 0 0 0 0 0 0 0 0 0 0 0 0 127 0"/><feOffset dy="1"/><feColorMatrix values="0 0 0 0 0 0 0 0 0 0 0 0 0 0 0 0 0 0 0.3 0"/><feBlend in2="BackgroundImageFix" result="effect1_dropShadow_325_16136"/><feBlend in="SourceGraphic" in2="effect1_dropShadow_325_16136" result="shape"/></filter><filter id="o" width="33" height="44" x="125" y="360" color-interpolation-filters="sRGB" filterUnits="userSpaceOnUse"><feFlood flood-opacity="0" result="BackgroundImageFix"/><feColorMatrix in="SourceAlpha" result="hardAlpha" values="0 0 0 0 0 0 0 0 0 0 0 0 0 0 0 0 0 0 127 0"/><feOffset dy="1"/><feColorMatrix values="0 0 0 0 0 0 0 0 0 0 0 0 0 0 0 0 0 0 0.3 0"/><feBlend in2="BackgroundImageFix" result="effect1_dropShadow_325_16136"/><feBlend in="SourceGraphic" in2="effect1_dropShadow_325_16136" result="shape"/></filter><filter id="p" width="32" height="44" x="164" y="360" color-interpolation-filters="sRGB" filterUnits="userSpaceOnUse"><feFlood flood-opacity="0" result="BackgroundImageFix"/><feColorMatrix in="SourceAlpha" result="hardAlpha" values="0 0 0 0 0 0 0 0 0 0 0 0 0 0 0 0 0 0 127 0"/><feOffset dy="1"/><feColorMatrix values="0 0 0 0 0 0 0 0 0 0 0 0 0 0 0 0 0 0 0.3 0"/><feBlend in2="BackgroundImageFix" result="effect1_dropShadow_325_16136"/><feBlend in="SourceGraphic" in2="effect1_dropShadow_325_16136" result="shape"/></filter><filter id="q" width="33" height="44" x="202" y="360" color-interpolation-filters="sRGB" filterUnits="userSpaceOnUse"><feFlood flood-opacity="0" result="BackgroundImageFix"/><feColorMatrix in="SourceAlpha" result="hardAlpha" values="0 0 0 0 0 0 0 0 0 0 0 0 0 0 0 0 0 0 127 0"/><feOffset dy="1"/><feColorMatrix values="0 0 0 0 0 0 0 0 0 0 0 0 0 0 0 0 0 0 0.3 0"/><feBlend in2="BackgroundImageFix" result="effect1_dropShadow_325_16136"/><feBlend in="SourceGraphic" in2="effect1_dropShadow_325_16136" result="shape"/></filter><filter id="r" width="35" height="44" x="239" y="360" color-interpolation-filters="sRGB" filterUnits="userSpaceOnUse"><feFlood flood-opacity="0" result="BackgroundImageFix"/><feColorMatrix in="SourceAlpha" result="hardAlpha" values="0 0 0 0 0 0 0 0 0 0 0 0 0 0 0 0 0 0 127 0"/><feOffset dy="1"/><feColorMatrix values="0 0 0 0 0 0 0 0 0 0 0 0 0 0 0 0 0 0 0.3 0"/><feBlend in2="BackgroundImageFix" result="effect1_dropShadow_325_16136"/><feBlend in="SourceGraphic" in2="effect1_dropShadow_325_16136" result="shape"/></filter><filter id="s" width="34" height="44" x="278" y="360" color-interpolation-filters="sRGB" filterUnits="userSpaceOnUse"><feFlood flood-opacity="0" result="BackgroundImageFix"/><feColorMatrix in="SourceAlpha" result="hardAlpha" values="0 0 0 0 0 0 0 0 0 0 0 0 0 0 0 0 0 0 127 0"/><feOffset dy="1"/><feColorMatrix values="0 0 0 0 0 0 0 0 0 0 0 0 0 0 0 0 0 0 0.3 0"/><feBlend in2="BackgroundImageFix" result="effect1_dropShadow_325_16136"/><feBlend in="SourceGraphic" in2="effect1_dropShadow_325_16136" result="shape"/></filter><filter id="t" width="34" height="44" x="317" y="360" color-interpolation-filters="sRGB" filterUnits="userSpaceOnUse"><feFlood flood-opacity="0" result="BackgroundImageFix"/><feColorMatrix in="SourceAlpha" result="hardAlpha" values="0 0 0 0 0 0 0 0 0 0 0 0 0 0 0 0 0 0 127 0"/><feOffset dy="1"/><feColorMatrix values="0 0 0 0 0 0 0 0 0 0 0 0 0 0 0 0 0 0 0.3 0"/><feBlend in2="BackgroundImageFix" result="effect1_dropShadow_325_16136"/><feBlend in="SourceGraphic" in2="effect1_dropShadow_325_16136" result="shape"/></filter><filter id="u" width="33" height="44" x="355" y="360" color-interpolation-filters="sRGB" filterUnits="userSpaceOnUse"><feFlood flood-opacity="0" result="BackgroundImageFix"/><feColorMatrix in="SourceAlpha" result="hardAlpha" values="0 0 0 0 0 0 0 0 0 0 0 0 0 0 0 0 0 0 127 0"/><feOffset dy="1"/><feColorMatrix values="0 0 0 0 0 0 0 0 0 0 0 0 0 0 0 0 0 0 0.3 0"/><feBlend in2="BackgroundImageFix" result="effect1_dropShadow_325_16136"/><feBlend in="SourceGraphic" in2="effect1_dropShadow_325_16136" result="shape"/></filter><filter id="v" width="33" height="44" x="9" y="306" color-interpolation-filters="sRGB" filterUnits="userSpaceOnUse"><feFlood flood-opacity="0" result="BackgroundImageFix"/><feColorMatrix in="SourceAlpha" result="hardAlpha" values="0 0 0 0 0 0 0 0 0 0 0 0 0 0 0 0 0 0 127 0"/><feOffset dy="1"/><feColorMatrix values="0 0 0 0 0 0 0 0 0 0 0 0 0 0 0 0 0 0 0.3 0"/><feBlend in2="BackgroundImageFix" result="effect1_dropShadow_325_16136"/><feBlend in="SourceGraphic" in2="effect1_dropShadow_325_16136" result="shape"/></filter><filter id="w" width="32" height="44" x="48" y="306" color-interpolation-filters="sRGB" filterUnits="userSpaceOnUse"><feFlood flood-opacity="0" result="BackgroundImageFix"/><feColorMatrix in="SourceAlpha" result="hardAlpha" values="0 0 0 0 0 0 0 0 0 0 0 0 0 0 0 0 0 0 127 0"/><feOffset dy="1"/><feColorMatrix values="0 0 0 0 0 0 0 0 0 0 0 0 0 0 0 0 0 0 0.3 0"/><feBlend in2="BackgroundImageFix" result="effect1_dropShadow_325_16136"/><feBlend in="SourceGraphic" in2="effect1_dropShadow_325_16136" result="shape"/></filter><filter id="x" width="33" height="44" x="86" y="306" color-interpolation-filters="sRGB" filterUnits="userSpaceOnUse"><feFlood flood-opacity="0" result="BackgroundImageFix"/><feColorMatrix in="SourceAlpha" result="hardAlpha" values="0 0 0 0 0 0 0 0 0 0 0 0 0 0 0 0 0 0 127 0"/><feOffset dy="1"/><feColorMatrix values="0 0 0 0 0 0 0 0 0 0 0 0 0 0 0 0 0 0 0.3 0"/><feBlend in2="BackgroundImageFix" result="effect1_dropShadow_325_16136"/><feBlend in="SourceGraphic" in2="effect1_dropShadow_325_16136" result="shape"/></filter><filter id="y" width="32" height="44" x="125" y="306" color-interpolation-filters="sRGB" filterUnits="userSpaceOnUse"><feFlood flood-opacity="0" result="BackgroundImageFix"/><feColorMatrix in="SourceAlpha" result="hardAlpha" values="0 0 0 0 0 0 0 0 0 0 0 0 0 0 0 0 0 0 127 0"/><feOffset dy="1"/><feColorMatrix values="0 0 0 0 0 0 0 0 0 0 0 0 0 0 0 0 0 0 0.3 0"/><feBlend in2="BackgroundImageFix" result="effect1_dropShadow_325_16136"/><feBlend in="SourceGraphic" in2="effect1_dropShadow_325_16136" result="shape"/></filter><filter id="z" width="33" height="44" x="163" y="306" color-interpolation-filters="sRGB" filterUnits="userSpaceOnUse"><feFlood flood-opacity="0" result="BackgroundImageFix"/><feColorMatrix in="SourceAlpha" result="hardAlpha" values="0 0 0 0 0 0 0 0 0 0 0 0 0 0 0 0 0 0 127 0"/><feOffset dy="1"/><feColorMatrix values="0 0 0 0 0 0 0 0 0 0 0 0 0 0 0 0 0 0 0.3 0"/><feBlend in2="BackgroundImageFix" result="effect1_dropShadow_325_16136"/><feBlend in="SourceGraphic" in2="effect1_dropShadow_325_16136" result="shape"/></filter><filter id="A" width="32" height="44" x="202" y="306" color-interpolation-filters="sRGB" filterUnits="userSpaceOnUse"><feFlood flood-opacity="0" result="BackgroundImageFix"/><feColorMatrix in="SourceAlpha" result="hardAlpha" values="0 0 0 0 0 0 0 0 0 0 0 0 0 0 0 0 0 0 127 0"/><feOffset dy="1"/><feColorMatrix values="0 0 0 0 0 0 0 0 0 0 0 0 0 0 0 0 0 0 0.3 0"/><feBlend in2="BackgroundImageFix" result="effect1_dropShadow_325_16136"/><feBlend in="SourceGraphic" in2="effect1_dropShadow_325_16136" result="shape"/></filter><filter id="B" width="32" height="44" x="240" y="306" color-interpolation-filters="sRGB" filterUnits="userSpaceOnUse"><feFlood flood-opacity="0" result="BackgroundImageFix"/><feColorMatrix in="SourceAlpha" result="hardAlpha" values="0 0 0 0 0 0 0 0 0 0 0 0 0 0 0 0 0 0 127 0"/><feOffset dy="1"/><feColorMatrix values="0 0 0 0 0 0 0 0 0 0 0 0 0 0 0 0 0 0 0.3 0"/><feBlend in2="BackgroundImageFix" result="effect1_dropShadow_325_16136"/><feBlend in="SourceGraphic" in2="effect1_dropShadow_325_16136" result="shape"/></filter><filter id="C" width="33" height="44" x="278" y="306" color-interpolation-filters="sRGB" filterUnits="userSpaceOnUse"><feFlood flood-opacity="0" result="BackgroundImageFix"/><feColorMatrix in="SourceAlpha" result="hardAlpha" values="0 0 0 0 0 0 0 0 0 0 0 0 0 0 0 0 0 0 127 0"/><feOffset dy="1"/><feColorMatrix values="0 0 0 0 0 0 0 0 0 0 0 0 0 0 0 0 0 0 0.3 0"/><feBlend in2="BackgroundImageFix" result="effect1_dropShadow_325_16136"/><feBlend in="SourceGraphic" in2="effect1_dropShadow_325_16136" result="shape"/></filter><filter id="D" width="32" height="44" x="317" y="306" color-interpolation-filters="sRGB" filterUnits="userSpaceOnUse"><feFlood flood-opacity="0" result="BackgroundImageFix"/><feColorMatrix in="SourceAlpha" result="hardAlpha" values="0 0 0 0 0 0 0 0 0 0 0 0 0 0 0 0 0 0 127 0"/><feOffset dy="1"/><feColorMatrix values="0 0 0 0 0 0 0 0 0 0 0 0 0 0 0 0 0 0 0.3 0"/><feBlend in2="BackgroundImageFix" result="effect1_dropShadow_325_16136"/><feBlend in="SourceGraphic" in2="effect1_dropShadow_325_16136" result="shape"/></filter><filter id="E" width="33" height="44" x="355" y="306" color-interpolation-filters="sRGB" filterUnits="userSpaceOnUse"><feFlood flood-opacity="0" result="BackgroundImageFix"/><feColorMatrix in="SourceAlpha" result="hardAlpha" values="0 0 0 0 0 0 0 0 0 0 0 0 0 0 0 0 0 0 127 0"/><feOffset dy="1"/><feColorMatrix values="0 0 0 0 0 0 0 0 0 0 0 0 0 0 0 0 0 0 0.3 0"/><feBlend in2="BackgroundImageFix" result="effect1_dropShadow_325_16136"/><feBlend in="SourceGraphic" in2="effect1_dropShadow_325_16136" result="shape"/></filter><filter id="F" width="42" height="44" x="7" y="414" color-interpolation-filters="sRGB" filterUnits="userSpaceOnUse"><feFlood flood-opacity="0" result="BackgroundImageFix"/><feColorMatrix in="SourceAlpha" result="hardAlpha" values="0 0 0 0 0 0 0 0 0 0 0 0 0 0 0 0 0 0 127 0"/><feOffset dy="1"/><feColorMatrix values="0 0 0 0 0 0 0 0 0 0 0 0 0 0 0 0 0 0 0.3 0"/><feBlend in2="BackgroundImageFix" result="effect1_dropShadow_325_16136"/><feBlend in="SourceGraphic" in2="effect1_dropShadow_325_16136" result="shape"/></filter><filter id="G" width="42" height="43" x="349" y="414" color-interpolation-filters="sRGB" filterUnits="userSpaceOnUse"><feFlood flood-opacity="0" result="BackgroundImageFix"/><feColorMatrix in="SourceAlpha" result="hardAlpha" values="0 0 0 0 0 0 0 0 0 0 0 0 0 0 0 0 0 0 127 0"/><feOffset dy="1"/><feColorMatrix values="0 0 0 0 0 0 0 0 0 0 0 0 0 0 0 0 0 0 0.3 0"/><feBlend in2="BackgroundImageFix" result="effect1_dropShadow_325_16136"/><feBlend in="SourceGraphic" in2="effect1_dropShadow_325_16136" result="shape"/></filter><filter id="H" width="40" height="44" x="7" y="470" color-interpolation-filters="sRGB" filterUnits="userSpaceOnUse"><feFlood flood-opacity="0" result="BackgroundImageFix"/><feColorMatrix in="SourceAlpha" result="hardAlpha" values="0 0 0 0 0 0 0 0 0 0 0 0 0 0 0 0 0 0 127 0"/><feOffset dy="1"/><feColorMatrix values="0 0 0 0 0 0 0 0 0 0 0 0 0 0 0 0 0 0 0.3 0"/><feBlend in2="BackgroundImageFix" result="effect1_dropShadow_325_16136"/><feBlend in="SourceGraphic" in2="effect1_dropShadow_325_16136" result="shape"/></filter><filter id="I" width="32" height="43" x="101" y="470" color-interpolation-filters="sRGB" filterUnits="userSpaceOnUse"><feFlood flood-opacity="0" result="BackgroundImageFix"/><feColorMatrix in="SourceAlpha" result="hardAlpha" values="0 0 0 0 0 0 0 0 0 0 0 0 0 0 0 0 0 0 127 0"/><feOffset dy="1"/><feColorMatrix values="0 0 0 0 0 0 0 0 0 0 0 0 0 0 0 0 0 0 0.3 0"/><feBlend in2="BackgroundImageFix" result="effect1_dropShadow_325_16136"/><feBlend in="SourceGraphic" in2="effect1_dropShadow_325_16136" result="shape"/></filter><filter id="J" width="40" height="44" x="54" y="470" color-interpolation-filters="sRGB" filterUnits="userSpaceOnUse"><feFlood flood-opacity="0" result="BackgroundImageFix"/><feColorMatrix in="SourceAlpha" result="hardAlpha" values="0 0 0 0 0 0 0 0 0 0 0 0 0 0 0 0 0 0 127 0"/><feOffset dy="1"/><feColorMatrix values="0 0 0 0 0 0 0 0 0 0 0 0 0 0 0 0 0 0 0.3 0"/><feBlend in2="BackgroundImageFix" result="effect1_dropShadow_325_16136"/><feBlend in="SourceGraphic" in2="effect1_dropShadow_325_16136" result="shape"/></filter><filter id="K" width="158" height="44" x="139" y="470" color-interpolation-filters="sRGB" filterUnits="userSpaceOnUse"><feFlood flood-opacity="0" result="BackgroundImageFix"/><feColorMatrix in="SourceAlpha" result="hardAlpha" values="0 0 0 0 0 0 0 0 0 0 0 0 0 0 0 0 0 0 127 0"/><feOffset dy="1"/><feColorMatrix values="0 0 0 0 0 0 0 0 0 0 0 0 0 0 0 0 0 0 0.3 0"/><feBlend in2="BackgroundImageFix" result="effect1_dropShadow_325_16136"/><feBlend in="SourceGraphic" in2="effect1_dropShadow_325_16136" result="shape"/></filter><filter id="L" width="87" height="44" x="304" y="470" color-interpolation-filters="sRGB" filterUnits="userSpaceOnUse"><feFlood flood-opacity="0" result="BackgroundImageFix"/><feColorMatrix in="SourceAlpha" result="hardAlpha" values="0 0 0 0 0 0 0 0 0 0 0 0 0 0 0 0 0 0 127 0"/><feOffset dy="1"/><feColorMatrix values="0 0 0 0 0 0 0 0 0 0 0 0 0 0 0 0 0 0 0.3 0"/><feBlend in2="BackgroundImageFix" result="effect1_dropShadow_325_16136"/><feBlend in="SourceGraphic" in2="effect1_dropShadow_325_16136" result="shape"/></filter><clipPath id="b"><path fill="#fff" d="M4 298h390v218H4z"/></clipPath></defs></svg>