<svg xmlns="http://www.w3.org/2000/svg" width="398" height="708" fill="none" viewBox="0 0 398 708"><rect width="358" height="324" x="20" y="20" fill="#fff" rx="16"/><path fill="#5FA9AE" d="M29 38c0-5.523 4.477-10 10-10h320c5.523 0 10 4.477 10 10v16H29V38Z"/><path fill="#FDFDFD" d="M54.996 41.272h1.968v4.464a6.256 6.256 0 0 1-2.016 1.056 7.737 7.737 0 0 1-2.368.368c-1.142 0-2.17-.245-3.088-.736a5.584 5.584 0 0 1-2.16-2.064c-.523-.875-.784-1.861-.784-2.96s.261-2.085.784-2.96a5.47 5.47 0 0 1 2.16-2.048c.928-.501 1.968-.752 3.12-.752.938 0 1.792.155 2.56.464.768.31 1.413.763 1.936 1.36l-1.312 1.28c-.854-.853-1.883-1.28-3.088-1.28-.79 0-1.494.165-2.112.496a3.687 3.687 0 0 0-1.44 1.392c-.342.597-.512 1.28-.512 2.048 0 .747.17 1.419.512 2.016a3.803 3.803 0 0 0 1.44 1.408c.618.341 1.317.512 2.096.512.874 0 1.642-.192 2.304-.576v-3.488Zm12.551 1.504c0 .139-.01.336-.032.592h-6.704c.117.63.422 1.13.912 1.504.502.363 1.12.544 1.856.544.939 0 1.712-.31 2.32-.928l1.072 1.232c-.384.459-.87.805-1.456 1.04-.587.235-1.248.352-1.984.352-.938 0-1.765-.187-2.48-.56A4.105 4.105 0 0 1 59.387 45c-.384-.672-.576-1.43-.576-2.272 0-.832.187-1.579.56-2.24a4.069 4.069 0 0 1 1.584-1.568c.672-.373 1.43-.56 2.272-.56.832 0 1.574.187 2.224.56.662.363 1.174.88 1.536 1.552.374.661.56 1.43.56 2.304Zm-4.32-2.816c-.64 0-1.184.192-1.632.576-.437.373-.704.875-.8 1.504h4.848c-.085-.619-.347-1.12-.784-1.504-.437-.384-.981-.576-1.632-.576Zm11.09-1.6c1.077 0 1.94.315 2.591.944.65.63.976 1.563.976 2.8V47h-2v-4.64c0-.747-.176-1.307-.528-1.68-.352-.384-.853-.576-1.504-.576-.736 0-1.317.224-1.744.672-.426.437-.64 1.072-.64 1.904V47h-2v-8.544h1.904v1.104c.33-.395.747-.693 1.248-.896.502-.203 1.067-.304 1.696-.304Zm14.215 4.416c0 .139-.011.336-.032.592h-6.704c.117.63.42 1.13.911 1.504.502.363 1.12.544 1.857.544.938 0 1.712-.31 2.32-.928l1.072 1.232a3.62 3.62 0 0 1-1.457 1.04c-.586.235-1.248.352-1.983.352-.94 0-1.766-.187-2.48-.56A4.104 4.104 0 0 1 80.37 45c-.383-.672-.575-1.43-.575-2.272 0-.832.186-1.579.56-2.24a4.069 4.069 0 0 1 1.584-1.568c.672-.373 1.429-.56 2.272-.56.831 0 1.573.187 2.224.56.66.363 1.173.88 1.535 1.552.374.661.56 1.43.56 2.304Zm-4.32-2.816c-.64 0-1.184.192-1.633.576-.437.373-.703.875-.8 1.504h4.849c-.086-.619-.347-1.12-.784-1.504-.438-.384-.982-.576-1.632-.576Zm8.145-.256c.576-.896 1.589-1.344 3.04-1.344v1.904a2.538 2.538 0 0 0-.464-.048c-.779 0-1.387.23-1.824.688-.438.448-.656 1.099-.656 1.952V47h-2v-8.544h1.904v1.248Z"/><path fill="#CDE4E6" d="M29 54h340v272c0 5.523-4.477 10-10 10H39c-5.523 0-10-4.477-10-10V54Z"/><path fill="#0A0A0A" d="M50.715 69.8h2.08v9.44h5.856V81h-7.936V69.8ZM106.151 81l-.016-7.424-3.68 6.144h-.928l-3.68-6.048V81h-1.984V69.8h1.712l4.448 7.424 4.368-7.424h1.712l.016 11.2h-1.968Zm46.862 0-3.04-4.256L146.965 81h-2.368l4.16-5.712-3.936-5.488h2.352l2.864 3.984 2.832-3.984h2.256l-3.92 5.408L155.413 81h-2.4Zm44.016.16a4.726 4.726 0 0 1-1.984-.416 3.958 3.958 0 0 1-1.472-1.2l1.184-1.424c.619.853 1.36 1.28 2.224 1.28 1.163 0 1.744-.688 1.744-2.064v-5.792h-3.984V69.8h6.064v7.424c0 1.312-.32 2.299-.96 2.96-.64.65-1.578.976-2.816.976Zm55.887-11.36-4.88 11.2h-2.048l-4.896-11.2h2.256l3.728 8.64 3.76-8.64h2.08Z"/><path fill="#E25B13" d="M295.945 81.16a8.622 8.622 0 0 1-2.512-.368c-.8-.245-1.435-.57-1.904-.976l.72-1.616c.458.363 1.018.661 1.68.896a6.342 6.342 0 0 0 2.016.336c.832 0 1.45-.133 1.856-.4.416-.267.624-.619.624-1.056a.99.99 0 0 0-.352-.784 2.273 2.273 0 0 0-.864-.496 19.44 19.44 0 0 0-1.44-.4c-.854-.203-1.547-.405-2.08-.608a3.52 3.52 0 0 1-1.36-.944c-.374-.437-.56-1.024-.56-1.76 0-.619.165-1.179.496-1.68.341-.512.848-.917 1.52-1.216.682-.299 1.514-.448 2.496-.448.682 0 1.354.085 2.016.256.661.17 1.232.416 1.712.736l-.656 1.616a6.482 6.482 0 0 0-1.536-.656 5.752 5.752 0 0 0-1.552-.224c-.822 0-1.435.139-1.84.416-.395.277-.592.645-.592 1.104 0 .32.112.581.336.784.234.203.528.363.88.48.352.117.832.25 1.44.4.832.192 1.514.395 2.048.608.533.203.986.517 1.36.944.384.427.576 1.003.576 1.728a2.92 2.92 0 0 1-.512 1.68c-.331.501-.838.901-1.52 1.2-.683.299-1.515.448-2.496.448Zm42.95-11.36h4.896c1.194 0 2.256.235 3.184.704.928.459 1.648 1.115 2.16 1.968.512.843.768 1.819.768 2.928 0 1.11-.256 2.09-.768 2.944-.512.843-1.232 1.499-2.16 1.968-.928.459-1.99.688-3.184.688h-4.896V69.8Zm4.8 9.44c.821 0 1.541-.155 2.16-.464a3.384 3.384 0 0 0 1.44-1.344c.341-.587.512-1.264.512-2.032s-.171-1.44-.512-2.016a3.26 3.26 0 0 0-1.44-1.344c-.619-.32-1.339-.48-2.16-.48h-2.72v7.68h2.72Z"/><path fill="#0A0A0A" d="M56.045 114.8V126h-1.152v-10.176h-2.64V114.8h3.792Zm50.888 10.176V126h-7.856v-.816l4.656-4.56c.587-.576.981-1.072 1.184-1.488.213-.427.32-.853.32-1.28 0-.661-.229-1.173-.688-1.536-.448-.373-1.093-.56-1.936-.56-1.312 0-2.331.416-3.056 1.248l-.816-.704a4.305 4.305 0 0 1 1.664-1.184c.683-.277 1.451-.416 2.304-.416 1.141 0 2.043.272 2.704.816.672.533 1.008 1.269 1.008 2.208a3.8 3.8 0 0 1-.384 1.664c-.256.533-.741 1.147-1.456 1.84l-3.808 3.744h6.16Zm44.191-5.376c1.174.064 2.064.384 2.672.96.619.565.928 1.307.928 2.224 0 .64-.154 1.211-.464 1.712-.309.491-.768.88-1.376 1.168-.608.288-1.349.432-2.224.432-.81 0-1.578-.128-2.304-.384-.714-.267-1.29-.619-1.728-1.056l.56-.912c.374.384.87.699 1.488.944.619.235 1.28.352 1.984.352.918 0 1.627-.197 2.128-.592.502-.405.752-.96.752-1.664 0-.693-.25-1.237-.752-1.632-.501-.395-1.258-.592-2.272-.592h-.8v-.848l3.104-3.888h-5.728V114.8h7.2v.816l-3.168 3.984Zm52.939 3.456h-2.24V126h-1.152v-2.944h-6.32v-.832l5.936-7.424h1.28l-5.728 7.232h4.864v-2.592h1.12v2.592h2.24v1.024Zm42.182-3.664c1.621 0 2.8.293 3.536.88.746.576 1.12 1.387 1.12 2.432 0 .651-.155 1.232-.464 1.744-.299.512-.752.917-1.36 1.216-.608.288-1.355.432-2.24.432-.8 0-1.563-.128-2.288-.384-.715-.267-1.291-.619-1.728-1.056l.56-.912c.373.384.864.699 1.472.944a5.412 5.412 0 0 0 1.968.352c.928 0 1.642-.208 2.144-.624.512-.416.768-.971.768-1.664 0-.768-.288-1.349-.864-1.744-.566-.395-1.526-.592-2.88-.592h-2.384l.576-5.616h6.128v1.024h-5.12l-.384 3.568h1.44Z"/><path fill="#E25B13" d="M295.597 119.296c.736 0 1.387.139 1.952.416a3.159 3.159 0 0 1 1.344 1.184c.32.501.48 1.088.48 1.76 0 .683-.165 1.285-.496 1.808a3.316 3.316 0 0 1-1.376 1.216c-.576.277-1.227.416-1.952.416-1.483 0-2.619-.485-3.408-1.456-.789-.981-1.184-2.363-1.184-4.144 0-1.248.213-2.304.64-3.168.427-.864 1.024-1.515 1.792-1.952.768-.448 1.664-.672 2.688-.672 1.109 0 1.995.203 2.656.608l-.464.928c-.533-.352-1.259-.528-2.176-.528-1.237 0-2.208.395-2.912 1.184-.704.779-1.056 1.915-1.056 3.408 0 .267.016.571.048.912a2.979 2.979 0 0 1 1.328-1.408c.608-.341 1.307-.512 2.096-.512Zm-.096 5.824c.811 0 1.467-.219 1.968-.656.512-.448.768-1.04.768-1.776s-.256-1.323-.768-1.76c-.501-.437-1.184-.656-2.048-.656-.565 0-1.067.107-1.504.32a2.529 2.529 0 0 0-1.008.88 2.225 2.225 0 0 0-.368 1.248c0 .427.112.821.336 1.184.235.363.576.656 1.024.88.448.224.981.336 1.6.336Zm51.524-10.32v.816L342.337 126h-1.248l4.608-10.176h-5.76v2.096h-1.136v-3.12h8.224Z"/><path fill="#0A0A0A" d="M57.146 168.128c.704.235 1.243.587 1.616 1.056.384.469.576 1.035.576 1.696 0 .651-.176 1.221-.528 1.712-.352.48-.858.853-1.52 1.12-.65.256-1.418.384-2.304.384-1.344 0-2.4-.288-3.168-.864-.768-.576-1.152-1.36-1.152-2.352 0-.672.182-1.237.544-1.696.374-.469.912-.821 1.616-1.056-.576-.224-1.013-.544-1.312-.96-.298-.427-.448-.928-.448-1.504 0-.907.352-1.627 1.056-2.16.715-.533 1.67-.8 2.864-.8.79 0 1.478.123 2.064.368.598.235 1.062.576 1.392 1.024.331.448.496.971.496 1.568 0 .576-.154 1.077-.464 1.504-.309.416-.752.736-1.328.96Zm-4.928-2.432c0 .619.246 1.109.736 1.472.491.363 1.168.544 2.032.544.864 0 1.542-.181 2.032-.544.502-.363.752-.848.752-1.456 0-.629-.256-1.125-.768-1.488-.5-.363-1.173-.544-2.016-.544-.853 0-1.53.181-2.032.544-.49.363-.736.853-.736 1.472Zm2.768 7.424c.992 0 1.766-.203 2.32-.608.566-.405.848-.955.848-1.648s-.282-1.237-.848-1.632c-.554-.405-1.328-.608-2.32-.608-.98 0-1.754.203-2.32.608-.554.395-.832.939-.832 1.632 0 .704.278 1.259.832 1.664.555.395 1.328.592 2.32.592Zm47.459-10.416c1.483 0 2.619.491 3.408 1.472.789.971 1.184 2.347 1.184 4.128 0 1.248-.213 2.304-.64 3.168-.427.864-1.024 1.52-1.792 1.968-.768.437-1.664.656-2.688.656-1.109 0-1.995-.203-2.656-.608l.464-.928c.533.352 1.259.528 2.176.528 1.237 0 2.208-.389 2.912-1.168.704-.789 1.056-1.931 1.056-3.424 0-.277-.016-.581-.048-.912a3.059 3.059 0 0 1-1.328 1.424c-.608.331-1.307.496-2.096.496-.736 0-1.392-.139-1.968-.416a3.219 3.219 0 0 1-1.328-1.168c-.32-.512-.48-1.104-.48-1.776 0-.683.165-1.285.496-1.808.33-.523.784-.923 1.36-1.2.587-.288 1.243-.432 1.968-.432Zm.128 5.824c.565 0 1.061-.107 1.488-.32a2.51 2.51 0 0 0 1.024-.88c.245-.373.368-.789.368-1.248 0-.427-.117-.821-.352-1.184-.224-.363-.56-.656-1.008-.88-.448-.224-.981-.336-1.6-.336-.811 0-1.472.224-1.984.672-.501.437-.752 1.024-.752 1.76s.251 1.323.752 1.76c.512.437 1.2.656 2.064.656Zm44.176-5.728V174h-1.152v-10.176h-2.64V162.8h3.792Zm7.141 11.296c-.864 0-1.638-.229-2.32-.688-.672-.459-1.2-1.115-1.584-1.968-.374-.864-.56-1.877-.56-3.04s.186-2.171.56-3.024c.384-.864.912-1.525 1.584-1.984.682-.459 1.456-.688 2.32-.688.864 0 1.632.229 2.304.688.682.459 1.216 1.12 1.6 1.984.384.853.576 1.861.576 3.024s-.192 2.176-.576 3.04c-.384.853-.918 1.509-1.6 1.968-.672.459-1.44.688-2.304.688Zm0-1.056c.65 0 1.221-.181 1.712-.544.501-.363.89-.891 1.168-1.584.277-.693.416-1.531.416-2.512 0-.981-.139-1.819-.416-2.512-.278-.693-.667-1.221-1.168-1.584-.491-.363-1.062-.544-1.712-.544-.651 0-1.227.181-1.728.544-.491.363-.875.891-1.152 1.584-.278.693-.416 1.531-.416 2.512 0 .981.138 1.819.416 2.512.277.693.661 1.221 1.152 1.584a2.869 2.869 0 0 0 1.728.544Zm43.265-10.24V174h-1.152v-10.176h-2.64V162.8h3.792Zm5.781 0V174h-1.152v-10.176h-2.64V162.8h3.792Zm40.563 0V174h-1.152v-10.176h-2.64V162.8h3.792Zm10.325 10.176V174h-7.856v-.816l4.656-4.56c.586-.576.981-1.072 1.184-1.488.213-.427.32-.853.32-1.28 0-.661-.23-1.173-.688-1.536-.448-.373-1.094-.56-1.936-.56-1.312 0-2.331.416-3.056 1.248l-.816-.704a4.302 4.302 0 0 1 1.664-1.184c.682-.277 1.45-.416 2.304-.416 1.141 0 2.042.272 2.704.816.672.533 1.008 1.269 1.008 2.208a3.8 3.8 0 0 1-.384 1.664c-.256.533-.742 1.147-1.456 1.84l-3.808 3.744h6.16Z"/><path fill="#E25B13" d="M291.53 162.8V174h-1.152v-10.176h-2.64V162.8h3.792Zm6.485 4.8c1.173.064 2.064.384 2.672.96.619.565.928 1.307.928 2.224 0 .64-.155 1.211-.464 1.712-.309.491-.768.88-1.376 1.168-.608.288-1.349.432-2.224.432a6.869 6.869 0 0 1-2.304-.384c-.715-.267-1.291-.619-1.728-1.056l.56-.912c.373.384.869.699 1.488.944.619.235 1.28.352 1.984.352.917 0 1.627-.197 2.128-.592.501-.405.752-.96.752-1.664 0-.693-.251-1.237-.752-1.632-.501-.395-1.259-.592-2.272-.592h-.8v-.848l3.104-3.888h-5.728V162.8h7.2v.816l-3.168 3.984Zm40.741-4.8V174h-1.152v-10.176h-2.64V162.8h3.792Zm12.198 8.256h-2.24V174h-1.152v-2.944h-6.32v-.832l5.936-7.424h1.28l-5.728 7.232h4.864v-2.592h1.12v2.592h2.24v1.024Z"/><path fill="#0A0A0A" d="M51.514 210.8V222h-1.152v-10.176h-2.64V210.8h3.792Zm5.621 4.592c1.622 0 2.8.293 3.536.88.747.576 1.12 1.387 1.12 2.432 0 .651-.154 1.232-.464 1.744-.298.512-.752.917-1.36 1.216-.608.288-1.354.432-2.24.432-.8 0-1.562-.128-2.288-.384-.714-.267-1.29-.619-1.728-1.056l.56-.912c.374.384.864.699 1.472.944a5.412 5.412 0 0 0 1.968.352c.928 0 1.643-.208 2.144-.624.512-.416.768-.971.768-1.664 0-.768-.288-1.349-.864-1.744-.565-.395-1.525-.592-2.88-.592h-2.384l.576-5.616H61.2v1.024h-5.12l-.384 3.568h1.44ZM99.17 210.8V222h-1.152v-10.176h-2.64V210.8h3.792Zm7.318 4.496c.736 0 1.386.139 1.952.416a3.159 3.159 0 0 1 1.344 1.184c.32.501.48 1.088.48 1.76 0 .683-.166 1.285-.496 1.808-.331.523-.79.928-1.376 1.216-.576.277-1.227.416-1.952.416-1.483 0-2.619-.485-3.408-1.456-.79-.981-1.184-2.363-1.184-4.144 0-1.248.213-2.304.64-3.168.426-.864 1.024-1.515 1.792-1.952.768-.448 1.664-.672 2.688-.672 1.109 0 1.994.203 2.656.608l-.464.928c-.534-.352-1.259-.528-2.176-.528-1.238 0-2.208.395-2.912 1.184-.704.779-1.056 1.915-1.056 3.408 0 .267.016.571.048.912a2.979 2.979 0 0 1 1.328-1.408c.608-.341 1.306-.512 2.096-.512Zm-.096 5.824c.81 0 1.466-.219 1.968-.656.512-.448.768-1.04.768-1.776s-.256-1.323-.768-1.76c-.502-.437-1.184-.656-2.048-.656-.566 0-1.067.107-1.504.32a2.529 2.529 0 0 0-1.008.88 2.217 2.217 0 0 0-.368 1.248c0 .427.112.821.336 1.184.234.363.576.656 1.024.88.448.224.981.336 1.6.336Zm40.942-10.32V222h-1.152v-10.176h-2.64V210.8h3.792Zm10.582 0v.816L153.228 222h-1.248l4.608-10.176h-5.76v2.096h-1.136v-3.12h8.224Zm37.028 0V222h-1.152v-10.176h-2.64V210.8h3.792Zm9.093 5.328c.704.235 1.243.587 1.616 1.056.384.469.576 1.035.576 1.696 0 .651-.176 1.221-.528 1.712-.352.48-.859.853-1.52 1.12-.651.256-1.419.384-2.304.384-1.344 0-2.4-.288-3.168-.864-.768-.576-1.152-1.36-1.152-2.352 0-.672.181-1.237.544-1.696.373-.469.912-.821 1.616-1.056-.576-.224-1.013-.544-1.312-.96-.299-.427-.448-.928-.448-1.504 0-.907.352-1.627 1.056-2.16.715-.533 1.669-.8 2.864-.8.789 0 1.477.123 2.064.368.597.235 1.061.576 1.392 1.024.331.448.496.971.496 1.568 0 .576-.155 1.077-.464 1.504-.309.416-.752.736-1.328.96Zm-4.928-2.432c0 .619.245 1.109.736 1.472s1.168.544 2.032.544c.864 0 1.541-.181 2.032-.544.501-.363.752-.848.752-1.456 0-.629-.256-1.125-.768-1.488-.501-.363-1.173-.544-2.016-.544-.853 0-1.531.181-2.032.544-.491.363-.736.853-.736 1.472Zm2.768 7.424c.992 0 1.765-.203 2.32-.608.565-.405.848-.955.848-1.648s-.283-1.237-.848-1.632c-.555-.405-1.328-.608-2.32-.608-.981 0-1.755.203-2.32.608-.555.395-.832.939-.832 1.632 0 .704.277 1.259.832 1.664.555.395 1.328.592 2.32.592Zm41.293-10.32V222h-1.152v-10.176h-2.64V210.8h3.792Zm6.166-.096c1.482 0 2.618.491 3.408 1.472.789.971 1.184 2.347 1.184 4.128 0 1.248-.214 2.304-.64 3.168-.427.864-1.024 1.52-1.792 1.968-.768.437-1.664.656-2.688.656-1.11 0-1.995-.203-2.656-.608l.464-.928c.533.352 1.258.528 2.176.528 1.237 0 2.208-.389 2.912-1.168.704-.789 1.056-1.931 1.056-3.424 0-.277-.016-.581-.048-.912a3.064 3.064 0 0 1-1.328 1.424c-.608.331-1.307.496-2.096.496-.736 0-1.392-.139-1.968-.416a3.214 3.214 0 0 1-1.328-1.168c-.32-.512-.48-1.104-.48-1.776 0-.683.165-1.285.496-1.808.33-.523.784-.923 1.36-1.2.586-.288 1.242-.432 1.968-.432Zm.128 5.824c.565 0 1.061-.107 1.488-.32a2.517 2.517 0 0 0 1.024-.88c.245-.373.368-.789.368-1.248 0-.427-.118-.821-.352-1.184-.224-.363-.56-.656-1.008-.88-.448-.224-.982-.336-1.6-.336-.811 0-1.472.224-1.984.672-.502.437-.752 1.024-.752 1.76s.25 1.323.752 1.76c.512.437 1.2.656 2.064.656Z"/><path fill="#E25B13" d="M293.668 220.976V222h-7.856v-.816l4.656-4.56c.586-.576.981-1.072 1.184-1.488.213-.427.32-.853.32-1.28 0-.661-.23-1.173-.688-1.536-.448-.373-1.094-.56-1.936-.56-1.312 0-2.331.416-3.056 1.248l-.816-.704a4.302 4.302 0 0 1 1.664-1.184c.682-.277 1.45-.416 2.304-.416 1.141 0 2.042.272 2.704.816.672.533 1.008 1.269 1.008 2.208a3.8 3.8 0 0 1-.384 1.664c-.256.533-.742 1.147-1.456 1.84l-3.808 3.744h6.16Zm5.847 1.12c-.864 0-1.638-.229-2.32-.688-.672-.459-1.2-1.115-1.584-1.968-.374-.864-.56-1.877-.56-3.04s.186-2.171.56-3.024c.384-.864.912-1.525 1.584-1.984.682-.459 1.456-.688 2.32-.688.864 0 1.632.229 2.304.688.682.459 1.216 1.12 1.6 1.984.384.853.576 1.861.576 3.024s-.192 2.176-.576 3.04c-.384.853-.918 1.509-1.6 1.968-.672.459-1.44.688-2.304.688Zm0-1.056c.65 0 1.221-.181 1.712-.544.501-.363.89-.891 1.168-1.584.277-.693.416-1.531.416-2.512 0-.981-.139-1.819-.416-2.512-.278-.693-.667-1.221-1.168-1.584-.491-.363-1.062-.544-1.712-.544-.651 0-1.227.181-1.728.544-.491.363-.875.891-1.152 1.584-.278.693-.416 1.531-.416 2.512 0 .981.138 1.819.416 2.512.277.693.661 1.221 1.152 1.584a2.869 2.869 0 0 0 1.728.544Zm44.528-.064V222h-7.856v-.816l4.656-4.56c.586-.576.981-1.072 1.184-1.488.213-.427.32-.853.32-1.28 0-.661-.23-1.173-.688-1.536-.448-.373-1.094-.56-1.936-.56-1.312 0-2.331.416-3.056 1.248l-.816-.704a4.302 4.302 0 0 1 1.664-1.184c.682-.277 1.45-.416 2.304-.416 1.141 0 2.042.272 2.704.816.672.533 1.008 1.269 1.008 2.208a3.8 3.8 0 0 1-.384 1.664c-.256.533-.742 1.147-1.456 1.84l-3.808 3.744h6.16Zm4.549-10.176V222h-1.152v-10.176h-2.64V210.8h3.792Z"/><path fill="#0A0A0A" d="M52.386 268.976V270H44.53v-.816l4.656-4.56c.587-.576.982-1.072 1.184-1.488a2.84 2.84 0 0 0 .32-1.28c0-.661-.23-1.173-.688-1.536-.448-.373-1.093-.56-1.936-.56-1.312 0-2.33.416-3.056 1.248l-.816-.704a4.304 4.304 0 0 1 1.664-1.184c.683-.277 1.45-.416 2.304-.416 1.142 0 2.043.272 2.704.816.672.533 1.008 1.269 1.008 2.208a3.8 3.8 0 0 1-.384 1.664c-.256.533-.741 1.147-1.456 1.84l-3.808 3.744h6.16Zm9.094 0V270h-7.856v-.816l4.656-4.56c.587-.576.981-1.072 1.184-1.488a2.84 2.84 0 0 0 .32-1.28c0-.661-.23-1.173-.688-1.536-.448-.373-1.093-.56-1.936-.56-1.312 0-2.33.416-3.056 1.248l-.816-.704a4.304 4.304 0 0 1 1.664-1.184c.683-.277 1.45-.416 2.304-.416 1.141 0 2.043.272 2.704.816.672.533 1.008 1.269 1.008 2.208a3.8 3.8 0 0 1-.384 1.664c-.256.533-.741 1.147-1.456 1.84l-3.808 3.744h6.16Zm38.938 0V270h-7.857v-.816l4.656-4.56c.587-.576.982-1.072 1.184-1.488a2.84 2.84 0 0 0 .32-1.28c0-.661-.229-1.173-.688-1.536-.448-.373-1.093-.56-1.936-.56-1.311 0-2.33.416-3.055 1.248l-.817-.704a4.304 4.304 0 0 1 1.665-1.184c.682-.277 1.45-.416 2.303-.416 1.142 0 2.043.272 2.704.816.672.533 1.008 1.269 1.008 2.208a3.8 3.8 0 0 1-.383 1.664c-.257.533-.742 1.147-1.457 1.84l-3.808 3.744h6.161Zm5.253-5.376c1.174.064 2.064.384 2.672.96.619.565.928 1.307.928 2.224 0 .64-.154 1.211-.464 1.712-.309.491-.768.88-1.376 1.168-.608.288-1.349.432-2.224.432-.81 0-1.578-.128-2.304-.384-.714-.267-1.29-.619-1.728-1.056l.56-.912c.374.384.87.699 1.488.944.619.235 1.28.352 1.984.352.918 0 1.627-.197 2.128-.592.502-.405.752-.96.752-1.664 0-.693-.25-1.237-.752-1.632-.501-.395-1.258-.592-2.272-.592h-.8v-.848l3.104-3.888h-5.728V258.8h7.2v.816l-3.168 3.984Zm42.161 5.376V270h-7.856v-.816l4.656-4.56c.586-.576.981-1.072 1.184-1.488.213-.427.32-.853.32-1.28 0-.661-.23-1.173-.688-1.536-.448-.373-1.094-.56-1.936-.56-1.312 0-2.331.416-3.056 1.248l-.816-.704a4.302 4.302 0 0 1 1.664-1.184c.682-.277 1.45-.416 2.304-.416 1.141 0 2.042.272 2.704.816.672.533 1.008 1.269 1.008 2.208a3.8 3.8 0 0 1-.384 1.664c-.256.533-.742 1.147-1.456 1.84l-3.808 3.744h6.16Zm10.59-1.92h-2.24V270h-1.152v-2.944h-6.32v-.832l5.936-7.424h1.28l-5.728 7.232h4.864v-2.592h1.12v2.592h2.24v1.024Zm37.98 1.92V270h-7.856v-.816l4.656-4.56c.587-.576.981-1.072 1.184-1.488.213-.427.32-.853.32-1.28 0-.661-.229-1.173-.688-1.536-.448-.373-1.093-.56-1.936-.56-1.312 0-2.331.416-3.056 1.248l-.816-.704a4.302 4.302 0 0 1 1.664-1.184c.683-.277 1.451-.416 2.304-.416 1.141 0 2.043.272 2.704.816.672.533 1.008 1.269 1.008 2.208a3.8 3.8 0 0 1-.384 1.664c-.256.533-.741 1.147-1.456 1.84l-3.808 3.744h6.16Zm4.39-5.584c1.621 0 2.8.293 3.536.88.746.576 1.12 1.387 1.12 2.432 0 .651-.155 1.232-.464 1.744-.299.512-.752.917-1.36 1.216-.608.288-1.355.432-2.24.432-.8 0-1.563-.128-2.288-.384-.715-.267-1.291-.619-1.728-1.056l.56-.912c.373.384.864.699 1.472.944a5.412 5.412 0 0 0 1.968.352c.928 0 1.642-.208 2.144-.624.512-.416.768-.971.768-1.664 0-.768-.288-1.349-.864-1.744-.566-.395-1.526-.592-2.88-.592h-2.384l.576-5.616h6.128v1.024h-5.12l-.384 3.568h1.44Zm43.297 5.584V270h-7.856v-.816l4.656-4.56c.587-.576.982-1.072 1.184-1.488.214-.427.32-.853.32-1.28 0-.661-.229-1.173-.688-1.536-.448-.373-1.093-.56-1.936-.56-1.312 0-2.33.416-3.056 1.248l-.816-.704a4.31 4.31 0 0 1 1.664-1.184c.683-.277 1.451-.416 2.304-.416 1.142 0 2.043.272 2.704.816.672.533 1.008 1.269 1.008 2.208a3.8 3.8 0 0 1-.384 1.664c-.256.533-.741 1.147-1.456 1.84l-3.808 3.744h6.16Zm6.024-5.68c.736 0 1.386.139 1.952.416a3.159 3.159 0 0 1 1.344 1.184c.32.501.48 1.088.48 1.76 0 .683-.166 1.285-.496 1.808-.331.523-.79.928-1.376 1.216-.576.277-1.227.416-1.952.416-1.483 0-2.619-.485-3.408-1.456-.79-.981-1.184-2.363-1.184-4.144 0-1.248.213-2.304.64-3.168.426-.864 1.024-1.515 1.792-1.952.768-.448 1.664-.672 2.688-.672 1.109 0 1.994.203 2.656.608l-.464.928c-.534-.352-1.259-.528-2.176-.528-1.238 0-2.208.395-2.912 1.184-.704.779-1.056 1.915-1.056 3.408 0 .267.016.571.048.912a2.979 2.979 0 0 1 1.328-1.408c.608-.341 1.306-.512 2.096-.512Zm-.096 5.824c.81 0 1.466-.219 1.968-.656.512-.448.768-1.04.768-1.776s-.256-1.323-.768-1.76c-.502-.437-1.184-.656-2.048-.656-.566 0-1.067.107-1.504.32a2.529 2.529 0 0 0-1.008.88 2.217 2.217 0 0 0-.368 1.248c0 .427.112.821.336 1.184.234.363.576.656 1.024.88.448.224.981.336 1.6.336Z"/><path fill="#E25B13" d="M292.253 268.976V270h-7.856v-.816l4.656-4.56c.587-.576.982-1.072 1.184-1.488.214-.427.32-.853.32-1.28 0-.661-.229-1.173-.688-1.536-.448-.373-1.093-.56-1.936-.56-1.312 0-2.33.416-3.056 1.248l-.816-.704a4.31 4.31 0 0 1 1.664-1.184c.683-.277 1.451-.416 2.304-.416 1.142 0 2.043.272 2.704.816.672.533 1.008 1.269 1.008 2.208a3.8 3.8 0 0 1-.384 1.664c-.256.533-.741 1.147-1.456 1.84l-3.808 3.744h6.16Zm9.288-10.176v.816L296.853 270h-1.248l4.608-10.176h-5.76v2.096h-1.136v-3.12h8.224Zm38.291 10.176V270h-7.856v-.816l4.656-4.56c.586-.576.981-1.072 1.184-1.488.213-.427.32-.853.32-1.28 0-.661-.23-1.173-.688-1.536-.448-.373-1.094-.56-1.936-.56-1.312 0-2.331.416-3.056 1.248l-.816-.704a4.302 4.302 0 0 1 1.664-1.184c.682-.277 1.45-.416 2.304-.416 1.141 0 2.042.272 2.704.816.672.533 1.008 1.269 1.008 2.208a3.8 3.8 0 0 1-.384 1.664c-.256.533-.742 1.147-1.456 1.84l-3.808 3.744h6.16Zm7.861-4.848c.704.235 1.243.587 1.616 1.056.384.469.576 1.035.576 1.696 0 .651-.176 1.221-.528 1.712-.352.48-.858.853-1.52 1.12-.65.256-1.418.384-2.304.384-1.344 0-2.4-.288-3.168-.864-.768-.576-1.152-1.36-1.152-2.352 0-.672.182-1.237.544-1.696.374-.469.912-.821 1.616-1.056-.576-.224-1.013-.544-1.312-.96-.298-.427-.448-.928-.448-1.504 0-.907.352-1.627 1.056-2.16.715-.533 1.67-.8 2.864-.8.79 0 1.478.123 2.064.368.598.235 1.062.576 1.392 1.024.331.448.496.971.496 1.568 0 .576-.154 1.077-.464 1.504-.309.416-.752.736-1.328.96Zm-4.928-2.432c0 .619.246 1.109.736 1.472.491.363 1.168.544 2.032.544.864 0 1.542-.181 2.032-.544.502-.363.752-.848.752-1.456 0-.629-.256-1.125-.768-1.488-.501-.363-1.173-.544-2.016-.544-.853 0-1.53.181-2.032.544-.49.363-.736.853-.736 1.472Zm2.768 7.424c.992 0 1.766-.203 2.32-.608.566-.405.848-.955.848-1.648s-.282-1.237-.848-1.632c-.554-.405-1.328-.608-2.32-.608-.981 0-1.754.203-2.32.608-.554.395-.832.939-.832 1.632 0 .704.278 1.259.832 1.664.555.395 1.328.592 2.32.592Z"/><path fill="#0A0A0A" d="M51.94 316.848V318h-8.838v-.918l5.238-5.13c.66-.648 1.104-1.206 1.332-1.674.24-.48.36-.96.36-1.44 0-.744-.258-1.32-.774-1.728-.504-.42-1.23-.63-2.178-.63-1.476 0-2.622.468-3.438 1.404l-.918-.792a4.846 4.846 0 0 1 1.872-1.332c.768-.312 1.632-.468 2.592-.468 1.284 0 2.298.306 3.042.918.756.6 1.134 1.428 1.134 2.484 0 .648-.144 1.272-.432 1.872-.288.6-.834 1.29-1.638 2.07l-4.284 4.212h6.93Zm5.55-11.556c1.669 0 2.947.552 3.835 1.656.888 1.092 1.332 2.64 1.332 4.644 0 1.404-.24 2.592-.72 3.564s-1.152 1.71-2.016 2.214c-.864.492-1.872.738-3.024.738-1.248 0-2.244-.228-2.988-.684l.522-1.044c.6.396 1.416.594 2.448.594 1.392 0 2.484-.438 3.276-1.314.792-.888 1.188-2.172 1.188-3.852 0-.312-.018-.654-.054-1.026a3.445 3.445 0 0 1-1.494 1.602c-.684.372-1.47.558-2.358.558-.828 0-1.566-.156-2.214-.468a3.62 3.62 0 0 1-1.494-1.314c-.36-.576-.54-1.242-.54-1.998 0-.768.186-1.446.558-2.034a3.635 3.635 0 0 1 1.53-1.35c.66-.324 1.398-.486 2.214-.486Zm.145 6.552c.636 0 1.194-.12 1.674-.36.492-.24.876-.57 1.152-.99.276-.42.414-.888.414-1.404 0-.48-.132-.924-.396-1.332-.252-.408-.63-.738-1.134-.99-.504-.252-1.104-.378-1.8-.378-.912 0-1.656.252-2.232.756-.564.492-.846 1.152-.846 1.98 0 .828.282 1.488.846 1.98.576.492 1.35.738 2.322.738ZM95.18 310.8c1.32.072 2.323.432 3.007 1.08.696.636 1.044 1.47 1.044 2.502 0 .72-.174 1.362-.522 1.926-.348.552-.864.99-1.548 1.314-.684.324-1.518.486-2.502.486a7.73 7.73 0 0 1-2.592-.432c-.804-.3-1.452-.696-1.944-1.188l.63-1.026c.42.432.978.786 1.674 1.062a6.24 6.24 0 0 0 2.232.396c1.032 0 1.83-.222 2.394-.666.564-.456.846-1.08.846-1.872 0-.78-.282-1.392-.846-1.836-.564-.444-1.416-.666-2.556-.666h-.9v-.954l3.492-4.374h-6.444V305.4h8.1v.918L95.18 310.8Zm10.899 7.308c-.972 0-1.842-.258-2.61-.774-.756-.516-1.35-1.254-1.782-2.214-.42-.972-.63-2.112-.63-3.42 0-1.308.21-2.442.63-3.402.432-.972 1.026-1.716 1.782-2.232.768-.516 1.638-.774 2.61-.774s1.836.258 2.592.774c.768.516 1.368 1.26 1.8 2.232.432.96.648 2.094.648 3.402 0 1.308-.216 2.448-.648 3.42-.432.96-1.032 1.698-1.8 2.214-.756.516-1.62.774-2.592.774Zm0-1.188c.732 0 1.374-.204 1.926-.612.564-.408 1.002-1.002 1.314-1.782.312-.78.468-1.722.468-2.826s-.156-2.046-.468-2.826c-.312-.78-.75-1.374-1.314-1.782-.552-.408-1.194-.612-1.926-.612s-1.38.204-1.944.612c-.552.408-.984 1.002-1.296 1.782-.312.78-.468 1.722-.468 2.826s.156 2.046.468 2.826c.312.78.744 1.374 1.296 1.782a3.231 3.231 0 0 0 1.944.612Z"/><rect width="358" height="324" x="20" y="364" fill="#fff" rx="16"/><path fill="#5FA9AE" d="M29 382c0-5.523 4.477-10 10-10h320c5.523 0 10 4.477 10 10v16H29v-16Z"/><path fill="#FDFDFD" d="M49.428 381.544v3.408h5.408v1.76h-5.408V391h-2.08v-11.2h8.176v1.744h-6.096Zm15.713 5.232c0 .139-.01.336-.032.592h-6.704c.117.629.421 1.131.912 1.504.501.363 1.12.544 1.856.544.938 0 1.712-.309 2.32-.928l1.072 1.232c-.384.459-.87.805-1.456 1.04-.587.235-1.248.352-1.984.352-.939 0-1.766-.187-2.48-.56A4.103 4.103 0 0 1 56.98 389c-.384-.672-.576-1.429-.576-2.272 0-.832.187-1.579.56-2.24a4.067 4.067 0 0 1 1.584-1.568c.672-.373 1.43-.56 2.272-.56.832 0 1.573.187 2.224.56a3.78 3.78 0 0 1 1.536 1.552c.373.661.56 1.429.56 2.304Zm-4.32-2.816c-.64 0-1.184.192-1.632.576-.438.373-.704.875-.8 1.504h4.848c-.086-.619-.347-1.12-.784-1.504-.438-.384-.982-.576-1.632-.576Zm10.977-1.6c.832 0 1.573.181 2.224.544a3.913 3.913 0 0 1 1.552 1.536c.373.661.56 1.424.56 2.288 0 .864-.187 1.632-.56 2.304a3.913 3.913 0 0 1-1.552 1.536c-.65.363-1.392.544-2.224.544a4.187 4.187 0 0 1-1.616-.304 3.113 3.113 0 0 1-1.216-.912V391h-1.904v-11.872h2v4.368a3.379 3.379 0 0 1 1.2-.848 4.02 4.02 0 0 1 1.536-.288Zm-.224 7.04c.736 0 1.339-.245 1.808-.736.48-.491.72-1.136.72-1.936s-.24-1.445-.72-1.936c-.47-.491-1.072-.736-1.808-.736-.48 0-.912.112-1.296.336a2.315 2.315 0 0 0-.912.928c-.224.405-.336.875-.336 1.408 0 .533.112 1.003.336 1.408.224.405.528.72.912.944.384.213.816.32 1.296.32Zm8.36-5.696c.577-.896 1.59-1.344 3.04-1.344v1.904a2.54 2.54 0 0 0-.463-.048c-.779 0-1.387.229-1.824.688-.438.448-.656 1.099-.656 1.952V391h-2v-8.544h1.904v1.248Zm12.691 3.072c0 .139-.01.336-.032.592H85.89c.118.629.422 1.131.912 1.504.502.363 1.12.544 1.856.544.939 0 1.712-.309 2.32-.928l1.072 1.232c-.384.459-.87.805-1.456 1.04s-1.248.352-1.984.352c-.938 0-1.765-.187-2.48-.56A4.103 4.103 0 0 1 84.465 389c-.384-.672-.576-1.429-.576-2.272 0-.832.187-1.579.56-2.24a4.067 4.067 0 0 1 1.584-1.568c.672-.373 1.43-.56 2.272-.56.832 0 1.574.187 2.224.56a3.78 3.78 0 0 1 1.536 1.552c.374.661.56 1.429.56 2.304Zm-4.32-2.816c-.64 0-1.184.192-1.632.576-.437.373-.704.875-.8 1.504h4.848c-.085-.619-.346-1.12-.784-1.504-.437-.384-.981-.576-1.632-.576Zm8.145-.256c.576-.896 1.59-1.344 3.04-1.344v1.904a2.54 2.54 0 0 0-.464-.048c-.778 0-1.386.229-1.824.688-.437.448-.656 1.099-.656 1.952V391h-2v-8.544h1.904v1.248Z"/><path fill="#CDE4E6" d="M29 398h340v272c0 5.523-4.477 10-10 10H39c-5.523 0-10-4.477-10-10V398Z"/><path fill="#0A0A0A" d="M50.715 413.8h2.08v9.44h5.856V425h-7.936v-11.2Zm55.436 11.2-.016-7.424-3.68 6.144h-.928l-3.68-6.048V425h-1.984v-11.2h1.712l4.448 7.424 4.368-7.424h1.712l.016 11.2h-1.968Zm46.862 0-3.04-4.256-3.008 4.256h-2.368l4.16-5.712-3.936-5.488h2.352l2.864 3.984 2.832-3.984h2.256l-3.92 5.408 4.208 5.792h-2.4Zm44.016.16a4.73 4.73 0 0 1-1.984-.416 3.958 3.958 0 0 1-1.472-1.2l1.184-1.424c.619.853 1.36 1.28 2.224 1.28 1.163 0 1.744-.688 1.744-2.064v-5.792h-3.984V413.8h6.064v7.424c0 1.312-.32 2.299-.96 2.96-.64.651-1.578.976-2.816.976Zm55.887-11.36-4.88 11.2h-2.048l-4.896-11.2h2.256l3.728 8.64 3.76-8.64h2.08Z"/><path fill="#E25B13" d="M295.945 425.16a8.633 8.633 0 0 1-2.512-.368c-.8-.245-1.435-.571-1.904-.976l.72-1.616c.458.363 1.018.661 1.68.896a6.342 6.342 0 0 0 2.016.336c.832 0 1.45-.133 1.856-.4.416-.267.624-.619.624-1.056a.99.99 0 0 0-.352-.784 2.273 2.273 0 0 0-.864-.496 19.44 19.44 0 0 0-1.44-.4c-.854-.203-1.547-.405-2.08-.608a3.52 3.52 0 0 1-1.36-.944c-.374-.437-.56-1.024-.56-1.76 0-.619.165-1.179.496-1.68.341-.512.848-.917 1.52-1.216.682-.299 1.514-.448 2.496-.448.682 0 1.354.085 2.016.256.661.171 1.232.416 1.712.736l-.656 1.616a6.47 6.47 0 0 0-1.536-.656 5.764 5.764 0 0 0-1.552-.224c-.822 0-1.435.139-1.84.416-.395.277-.592.645-.592 1.104 0 .32.112.581.336.784.234.203.528.363.88.48.352.117.832.251 1.44.4.832.192 1.514.395 2.048.608.533.203.986.517 1.36.944.384.427.576 1.003.576 1.728 0 .619-.171 1.179-.512 1.68-.331.501-.838.901-1.52 1.2-.683.299-1.515.448-2.496.448Zm42.95-11.36h4.896c1.194 0 2.256.235 3.184.704.928.459 1.648 1.115 2.16 1.968.512.843.768 1.819.768 2.928s-.256 2.091-.768 2.944c-.512.843-1.232 1.499-2.16 1.968-.928.459-1.99.688-3.184.688h-4.896v-11.2Zm4.8 9.44c.821 0 1.541-.155 2.16-.464a3.384 3.384 0 0 0 1.44-1.344c.341-.587.512-1.264.512-2.032s-.171-1.44-.512-2.016a3.257 3.257 0 0 0-1.44-1.344c-.619-.32-1.339-.48-2.16-.48h-2.72v7.68h2.72Z"/><path fill="#0A0A0A" d="M56.045 458.8V470h-1.152v-10.176h-2.64V458.8h3.792Zm50.888 10.176V470h-7.856v-.816l4.656-4.56c.587-.576.981-1.072 1.184-1.488.213-.427.32-.853.32-1.28 0-.661-.229-1.173-.688-1.536-.448-.373-1.093-.56-1.936-.56-1.312 0-2.331.416-3.056 1.248l-.816-.704a4.305 4.305 0 0 1 1.664-1.184c.683-.277 1.451-.416 2.304-.416 1.141 0 2.043.272 2.704.816.672.533 1.008 1.269 1.008 2.208a3.8 3.8 0 0 1-.384 1.664c-.256.533-.741 1.147-1.456 1.84l-3.808 3.744h6.16Zm44.191-5.376c1.174.064 2.064.384 2.672.96.619.565.928 1.307.928 2.224 0 .64-.154 1.211-.464 1.712-.309.491-.768.88-1.376 1.168-.608.288-1.349.432-2.224.432-.81 0-1.578-.128-2.304-.384-.714-.267-1.29-.619-1.728-1.056l.56-.912c.374.384.87.699 1.488.944.619.235 1.28.352 1.984.352.918 0 1.627-.197 2.128-.592.502-.405.752-.96.752-1.664 0-.693-.25-1.237-.752-1.632-.501-.395-1.258-.592-2.272-.592h-.8v-.848l3.104-3.888h-5.728V458.8h7.2v.816l-3.168 3.984Zm52.939 3.456h-2.24V470h-1.152v-2.944h-6.32v-.832l5.936-7.424h1.28l-5.728 7.232h4.864v-2.592h1.12v2.592h2.24v1.024Zm42.182-3.664c1.621 0 2.8.293 3.536.88.746.576 1.12 1.387 1.12 2.432 0 .651-.155 1.232-.464 1.744-.299.512-.752.917-1.36 1.216-.608.288-1.355.432-2.24.432-.8 0-1.563-.128-2.288-.384-.715-.267-1.291-.619-1.728-1.056l.56-.912c.373.384.864.699 1.472.944a5.412 5.412 0 0 0 1.968.352c.928 0 1.642-.208 2.144-.624.512-.416.768-.971.768-1.664 0-.768-.288-1.349-.864-1.744-.566-.395-1.526-.592-2.88-.592h-2.384l.576-5.616h6.128v1.024h-5.12l-.384 3.568h1.44Z"/><path fill="#E25B13" d="M295.597 463.296c.736 0 1.387.139 1.952.416a3.159 3.159 0 0 1 1.344 1.184c.32.501.48 1.088.48 1.76 0 .683-.165 1.285-.496 1.808a3.316 3.316 0 0 1-1.376 1.216c-.576.277-1.227.416-1.952.416-1.483 0-2.619-.485-3.408-1.456-.789-.981-1.184-2.363-1.184-4.144 0-1.248.213-2.304.64-3.168.427-.864 1.024-1.515 1.792-1.952.768-.448 1.664-.672 2.688-.672 1.109 0 1.995.203 2.656.608l-.464.928c-.533-.352-1.259-.528-2.176-.528-1.237 0-2.208.395-2.912 1.184-.704.779-1.056 1.915-1.056 3.408 0 .267.016.571.048.912a2.979 2.979 0 0 1 1.328-1.408c.608-.341 1.307-.512 2.096-.512Zm-.096 5.824c.811 0 1.467-.219 1.968-.656.512-.448.768-1.04.768-1.776s-.256-1.323-.768-1.76c-.501-.437-1.184-.656-2.048-.656-.565 0-1.067.107-1.504.32a2.529 2.529 0 0 0-1.008.88 2.225 2.225 0 0 0-.368 1.248c0 .427.112.821.336 1.184.235.363.576.656 1.024.88.448.224.981.336 1.6.336Zm51.524-10.32v.816L342.337 470h-1.248l4.608-10.176h-5.76v2.096h-1.136v-3.12h8.224Z"/><path fill="#0A0A0A" d="M57.146 512.128c.704.235 1.243.587 1.616 1.056.384.469.576 1.035.576 1.696 0 .651-.176 1.221-.528 1.712-.352.48-.858.853-1.52 1.12-.65.256-1.418.384-2.304.384-1.344 0-2.4-.288-3.168-.864-.768-.576-1.152-1.36-1.152-2.352 0-.672.182-1.237.544-1.696.374-.469.912-.821 1.616-1.056-.576-.224-1.013-.544-1.312-.96-.298-.427-.448-.928-.448-1.504 0-.907.352-1.627 1.056-2.16.715-.533 1.67-.8 2.864-.8.79 0 1.478.123 2.064.368.598.235 1.062.576 1.392 1.024.331.448.496.971.496 1.568 0 .576-.154 1.077-.464 1.504-.309.416-.752.736-1.328.96Zm-4.928-2.432c0 .619.246 1.109.736 1.472.491.363 1.168.544 2.032.544.864 0 1.542-.181 2.032-.544.502-.363.752-.848.752-1.456 0-.629-.256-1.125-.768-1.488-.5-.363-1.173-.544-2.016-.544-.853 0-1.53.181-2.032.544-.49.363-.736.853-.736 1.472Zm2.768 7.424c.992 0 1.766-.203 2.32-.608.566-.405.848-.955.848-1.648s-.282-1.237-.848-1.632c-.554-.405-1.328-.608-2.32-.608-.98 0-1.754.203-2.32.608-.554.395-.832.939-.832 1.632 0 .704.278 1.259.832 1.664.555.395 1.328.592 2.32.592Zm47.459-10.416c1.483 0 2.619.491 3.408 1.472.789.971 1.184 2.347 1.184 4.128 0 1.248-.213 2.304-.64 3.168-.427.864-1.024 1.52-1.792 1.968-.768.437-1.664.656-2.688.656-1.109 0-1.995-.203-2.656-.608l.464-.928c.533.352 1.259.528 2.176.528 1.237 0 2.208-.389 2.912-1.168.704-.789 1.056-1.931 1.056-3.424 0-.277-.016-.581-.048-.912a3.059 3.059 0 0 1-1.328 1.424c-.608.331-1.307.496-2.096.496-.736 0-1.392-.139-1.968-.416a3.219 3.219 0 0 1-1.328-1.168c-.32-.512-.48-1.104-.48-1.776 0-.683.165-1.285.496-1.808.33-.523.784-.923 1.36-1.2.587-.288 1.243-.432 1.968-.432Zm.128 5.824c.565 0 1.061-.107 1.488-.32a2.51 2.51 0 0 0 1.024-.88c.245-.373.368-.789.368-1.248 0-.427-.117-.821-.352-1.184-.224-.363-.56-.656-1.008-.88-.448-.224-.981-.336-1.6-.336-.811 0-1.472.224-1.984.672-.501.437-.752 1.024-.752 1.76s.251 1.323.752 1.76c.512.437 1.2.656 2.064.656Zm44.176-5.728V518h-1.152v-10.176h-2.64V506.8h3.792Zm7.141 11.296c-.864 0-1.638-.229-2.32-.688-.672-.459-1.2-1.115-1.584-1.968-.374-.864-.56-1.877-.56-3.04s.186-2.171.56-3.024c.384-.864.912-1.525 1.584-1.984.682-.459 1.456-.688 2.32-.688.864 0 1.632.229 2.304.688.682.459 1.216 1.12 1.6 1.984.384.853.576 1.861.576 3.024s-.192 2.176-.576 3.04c-.384.853-.918 1.509-1.6 1.968-.672.459-1.44.688-2.304.688Zm0-1.056c.65 0 1.221-.181 1.712-.544.501-.363.89-.891 1.168-1.584.277-.693.416-1.531.416-2.512 0-.981-.139-1.819-.416-2.512-.278-.693-.667-1.221-1.168-1.584-.491-.363-1.062-.544-1.712-.544-.651 0-1.227.181-1.728.544-.491.363-.875.891-1.152 1.584-.278.693-.416 1.531-.416 2.512 0 .981.138 1.819.416 2.512.277.693.661 1.221 1.152 1.584a2.869 2.869 0 0 0 1.728.544Zm43.265-10.24V518h-1.152v-10.176h-2.64V506.8h3.792Zm5.781 0V518h-1.152v-10.176h-2.64V506.8h3.792Zm40.563 0V518h-1.152v-10.176h-2.64V506.8h3.792Zm10.325 10.176V518h-7.856v-.816l4.656-4.56c.586-.576.981-1.072 1.184-1.488.213-.427.32-.853.32-1.28 0-.661-.23-1.173-.688-1.536-.448-.373-1.094-.56-1.936-.56-1.312 0-2.331.416-3.056 1.248l-.816-.704a4.302 4.302 0 0 1 1.664-1.184c.682-.277 1.45-.416 2.304-.416 1.141 0 2.042.272 2.704.816.672.533 1.008 1.269 1.008 2.208a3.8 3.8 0 0 1-.384 1.664c-.256.533-.742 1.147-1.456 1.84l-3.808 3.744h6.16Z"/><path fill="#E25B13" d="M291.53 506.8V518h-1.152v-10.176h-2.64V506.8h3.792Zm6.485 4.8c1.173.064 2.064.384 2.672.96.619.565.928 1.307.928 2.224 0 .64-.155 1.211-.464 1.712-.309.491-.768.88-1.376 1.168-.608.288-1.349.432-2.224.432a6.869 6.869 0 0 1-2.304-.384c-.715-.267-1.291-.619-1.728-1.056l.56-.912c.373.384.869.699 1.488.944.619.235 1.28.352 1.984.352.917 0 1.627-.197 2.128-.592.501-.405.752-.96.752-1.664 0-.693-.251-1.237-.752-1.632-.501-.395-1.259-.592-2.272-.592h-.8v-.848l3.104-3.888h-5.728V506.8h7.2v.816l-3.168 3.984Zm40.741-4.8V518h-1.152v-10.176h-2.64V506.8h3.792Zm12.198 8.256h-2.24V518h-1.152v-2.944h-6.32v-.832l5.936-7.424h1.28l-5.728 7.232h4.864v-2.592h1.12v2.592h2.24v1.024Z"/><path fill="#0A0A0A" d="M51.514 554.8V566h-1.152v-10.176h-2.64V554.8h3.792Zm5.621 4.592c1.622 0 2.8.293 3.536.88.747.576 1.12 1.387 1.12 2.432 0 .651-.154 1.232-.464 1.744-.298.512-.752.917-1.36 1.216-.608.288-1.354.432-2.24.432-.8 0-1.562-.128-2.288-.384-.714-.267-1.29-.619-1.728-1.056l.56-.912c.374.384.864.699 1.472.944a5.412 5.412 0 0 0 1.968.352c.928 0 1.643-.208 2.144-.624.512-.416.768-.971.768-1.664 0-.768-.288-1.349-.864-1.744-.565-.395-1.525-.592-2.88-.592h-2.384l.576-5.616H61.2v1.024h-5.12l-.384 3.568h1.44ZM99.17 554.8V566h-1.152v-10.176h-2.64V554.8h3.792Zm7.318 4.496c.736 0 1.386.139 1.952.416a3.159 3.159 0 0 1 1.344 1.184c.32.501.48 1.088.48 1.76 0 .683-.166 1.285-.496 1.808-.331.523-.79.928-1.376 1.216-.576.277-1.227.416-1.952.416-1.483 0-2.619-.485-3.408-1.456-.79-.981-1.184-2.363-1.184-4.144 0-1.248.213-2.304.64-3.168.426-.864 1.024-1.515 1.792-1.952.768-.448 1.664-.672 2.688-.672 1.109 0 1.994.203 2.656.608l-.464.928c-.534-.352-1.259-.528-2.176-.528-1.238 0-2.208.395-2.912 1.184-.704.779-1.056 1.915-1.056 3.408 0 .267.016.571.048.912a2.979 2.979 0 0 1 1.328-1.408c.608-.341 1.306-.512 2.096-.512Zm-.096 5.824c.81 0 1.466-.219 1.968-.656.512-.448.768-1.04.768-1.776s-.256-1.323-.768-1.76c-.502-.437-1.184-.656-2.048-.656-.566 0-1.067.107-1.504.32a2.529 2.529 0 0 0-1.008.88 2.217 2.217 0 0 0-.368 1.248c0 .427.112.821.336 1.184.234.363.576.656 1.024.88.448.224.981.336 1.6.336Zm40.942-10.32V566h-1.152v-10.176h-2.64V554.8h3.792Zm10.582 0v.816L153.228 566h-1.248l4.608-10.176h-5.76v2.096h-1.136v-3.12h8.224Zm37.028 0V566h-1.152v-10.176h-2.64V554.8h3.792Zm9.093 5.328c.704.235 1.243.587 1.616 1.056.384.469.576 1.035.576 1.696 0 .651-.176 1.221-.528 1.712-.352.48-.859.853-1.52 1.12-.651.256-1.419.384-2.304.384-1.344 0-2.4-.288-3.168-.864-.768-.576-1.152-1.36-1.152-2.352 0-.672.181-1.237.544-1.696.373-.469.912-.821 1.616-1.056-.576-.224-1.013-.544-1.312-.96-.299-.427-.448-.928-.448-1.504 0-.907.352-1.627 1.056-2.16.715-.533 1.669-.8 2.864-.8.789 0 1.477.123 2.064.368.597.235 1.061.576 1.392 1.024.331.448.496.971.496 1.568 0 .576-.155 1.077-.464 1.504-.309.416-.752.736-1.328.96Zm-4.928-2.432c0 .619.245 1.109.736 1.472s1.168.544 2.032.544c.864 0 1.541-.181 2.032-.544.501-.363.752-.848.752-1.456 0-.629-.256-1.125-.768-1.488-.501-.363-1.173-.544-2.016-.544-.853 0-1.531.181-2.032.544-.491.363-.736.853-.736 1.472Zm2.768 7.424c.992 0 1.765-.203 2.32-.608.565-.405.848-.955.848-1.648s-.283-1.237-.848-1.632c-.555-.405-1.328-.608-2.32-.608-.981 0-1.755.203-2.32.608-.555.395-.832.939-.832 1.632 0 .704.277 1.259.832 1.664.555.395 1.328.592 2.32.592Zm41.293-10.32V566h-1.152v-10.176h-2.64V554.8h3.792Zm6.166-.096c1.482 0 2.618.491 3.408 1.472.789.971 1.184 2.347 1.184 4.128 0 1.248-.214 2.304-.64 3.168-.427.864-1.024 1.52-1.792 1.968-.768.437-1.664.656-2.688.656-1.11 0-1.995-.203-2.656-.608l.464-.928c.533.352 1.258.528 2.176.528 1.237 0 2.208-.389 2.912-1.168.704-.789 1.056-1.931 1.056-3.424 0-.277-.016-.581-.048-.912a3.064 3.064 0 0 1-1.328 1.424c-.608.331-1.307.496-2.096.496-.736 0-1.392-.139-1.968-.416a3.214 3.214 0 0 1-1.328-1.168c-.32-.512-.48-1.104-.48-1.776 0-.683.165-1.285.496-1.808.33-.523.784-.923 1.36-1.2.586-.288 1.242-.432 1.968-.432Zm.128 5.824c.565 0 1.061-.107 1.488-.32a2.517 2.517 0 0 0 1.024-.88c.245-.373.368-.789.368-1.248 0-.427-.118-.821-.352-1.184-.224-.363-.56-.656-1.008-.88-.448-.224-.982-.336-1.6-.336-.811 0-1.472.224-1.984.672-.502.437-.752 1.024-.752 1.76s.25 1.323.752 1.76c.512.437 1.2.656 2.064.656Z"/><path fill="#E25B13" d="M293.668 564.976V566h-7.856v-.816l4.656-4.56c.586-.576.981-1.072 1.184-1.488.213-.427.32-.853.32-1.28 0-.661-.23-1.173-.688-1.536-.448-.373-1.094-.56-1.936-.56-1.312 0-2.331.416-3.056 1.248l-.816-.704a4.302 4.302 0 0 1 1.664-1.184c.682-.277 1.45-.416 2.304-.416 1.141 0 2.042.272 2.704.816.672.533 1.008 1.269 1.008 2.208a3.8 3.8 0 0 1-.384 1.664c-.256.533-.742 1.147-1.456 1.84l-3.808 3.744h6.16Zm5.847 1.12c-.864 0-1.638-.229-2.32-.688-.672-.459-1.2-1.115-1.584-1.968-.374-.864-.56-1.877-.56-3.04s.186-2.171.56-3.024c.384-.864.912-1.525 1.584-1.984.682-.459 1.456-.688 2.32-.688.864 0 1.632.229 2.304.688.682.459 1.216 1.12 1.6 1.984.384.853.576 1.861.576 3.024s-.192 2.176-.576 3.04c-.384.853-.918 1.509-1.6 1.968-.672.459-1.44.688-2.304.688Zm0-1.056c.65 0 1.221-.181 1.712-.544.501-.363.89-.891 1.168-1.584.277-.693.416-1.531.416-2.512 0-.981-.139-1.819-.416-2.512-.278-.693-.667-1.221-1.168-1.584-.491-.363-1.062-.544-1.712-.544-.651 0-1.227.181-1.728.544-.491.363-.875.891-1.152 1.584-.278.693-.416 1.531-.416 2.512 0 .981.138 1.819.416 2.512.277.693.661 1.221 1.152 1.584a2.869 2.869 0 0 0 1.728.544Zm44.528-.064V566h-7.856v-.816l4.656-4.56c.586-.576.981-1.072 1.184-1.488.213-.427.32-.853.32-1.28 0-.661-.23-1.173-.688-1.536-.448-.373-1.094-.56-1.936-.56-1.312 0-2.331.416-3.056 1.248l-.816-.704a4.302 4.302 0 0 1 1.664-1.184c.682-.277 1.45-.416 2.304-.416 1.141 0 2.042.272 2.704.816.672.533 1.008 1.269 1.008 2.208a3.8 3.8 0 0 1-.384 1.664c-.256.533-.742 1.147-1.456 1.84l-3.808 3.744h6.16Zm4.549-10.176V566h-1.152v-10.176h-2.64V554.8h3.792Z"/><path fill="#0A0A0A" d="M52.386 612.976V614H44.53v-.816l4.656-4.56c.587-.576.982-1.072 1.184-1.488a2.84 2.84 0 0 0 .32-1.28c0-.661-.23-1.173-.688-1.536-.448-.373-1.093-.56-1.936-.56-1.312 0-2.33.416-3.056 1.248l-.816-.704a4.304 4.304 0 0 1 1.664-1.184c.683-.277 1.45-.416 2.304-.416 1.142 0 2.043.272 2.704.816.672.533 1.008 1.269 1.008 2.208a3.8 3.8 0 0 1-.384 1.664c-.256.533-.741 1.147-1.456 1.84l-3.808 3.744h6.16Zm9.094 0V614h-7.856v-.816l4.656-4.56c.587-.576.981-1.072 1.184-1.488a2.84 2.84 0 0 0 .32-1.28c0-.661-.23-1.173-.688-1.536-.448-.373-1.093-.56-1.936-.56-1.312 0-2.33.416-3.056 1.248l-.816-.704a4.304 4.304 0 0 1 1.664-1.184c.683-.277 1.45-.416 2.304-.416 1.141 0 2.043.272 2.704.816.672.533 1.008 1.269 1.008 2.208a3.8 3.8 0 0 1-.384 1.664c-.256.533-.741 1.147-1.456 1.84l-3.808 3.744h6.16Zm38.938 0V614h-7.857v-.816l4.656-4.56c.587-.576.982-1.072 1.184-1.488a2.84 2.84 0 0 0 .32-1.28c0-.661-.229-1.173-.688-1.536-.448-.373-1.093-.56-1.936-.56-1.311 0-2.33.416-3.055 1.248l-.817-.704a4.304 4.304 0 0 1 1.665-1.184c.682-.277 1.45-.416 2.303-.416 1.142 0 2.043.272 2.704.816.672.533 1.008 1.269 1.008 2.208a3.8 3.8 0 0 1-.383 1.664c-.257.533-.742 1.147-1.457 1.84l-3.808 3.744h6.161Zm5.253-5.376c1.174.064 2.064.384 2.672.96.619.565.928 1.307.928 2.224 0 .64-.154 1.211-.464 1.712-.309.491-.768.88-1.376 1.168-.608.288-1.349.432-2.224.432-.81 0-1.578-.128-2.304-.384-.714-.267-1.29-.619-1.728-1.056l.56-.912c.374.384.87.699 1.488.944.619.235 1.28.352 1.984.352.918 0 1.627-.197 2.128-.592.502-.405.752-.96.752-1.664 0-.693-.25-1.237-.752-1.632-.501-.395-1.258-.592-2.272-.592h-.8v-.848l3.104-3.888h-5.728V602.8h7.2v.816l-3.168 3.984Zm42.161 5.376V614h-7.856v-.816l4.656-4.56c.586-.576.981-1.072 1.184-1.488.213-.427.32-.853.32-1.28 0-.661-.23-1.173-.688-1.536-.448-.373-1.094-.56-1.936-.56-1.312 0-2.331.416-3.056 1.248l-.816-.704a4.302 4.302 0 0 1 1.664-1.184c.682-.277 1.45-.416 2.304-.416 1.141 0 2.042.272 2.704.816.672.533 1.008 1.269 1.008 2.208a3.8 3.8 0 0 1-.384 1.664c-.256.533-.742 1.147-1.456 1.84l-3.808 3.744h6.16Zm10.59-1.92h-2.24V614h-1.152v-2.944h-6.32v-.832l5.936-7.424h1.28l-5.728 7.232h4.864v-2.592h1.12v2.592h2.24v1.024Zm37.98 1.92V614h-7.856v-.816l4.656-4.56c.587-.576.981-1.072 1.184-1.488.213-.427.32-.853.32-1.28 0-.661-.229-1.173-.688-1.536-.448-.373-1.093-.56-1.936-.56-1.312 0-2.331.416-3.056 1.248l-.816-.704a4.302 4.302 0 0 1 1.664-1.184c.683-.277 1.451-.416 2.304-.416 1.141 0 2.043.272 2.704.816.672.533 1.008 1.269 1.008 2.208a3.8 3.8 0 0 1-.384 1.664c-.256.533-.741 1.147-1.456 1.84l-3.808 3.744h6.16Zm4.39-5.584c1.621 0 2.8.293 3.536.88.746.576 1.12 1.387 1.12 2.432 0 .651-.155 1.232-.464 1.744-.299.512-.752.917-1.36 1.216-.608.288-1.355.432-2.24.432-.8 0-1.563-.128-2.288-.384-.715-.267-1.291-.619-1.728-1.056l.56-.912c.373.384.864.699 1.472.944a5.412 5.412 0 0 0 1.968.352c.928 0 1.642-.208 2.144-.624.512-.416.768-.971.768-1.664 0-.768-.288-1.349-.864-1.744-.566-.395-1.526-.592-2.88-.592h-2.384l.576-5.616h6.128v1.024h-5.12l-.384 3.568h1.44Zm43.297 5.584V614h-7.856v-.816l4.656-4.56c.587-.576.982-1.072 1.184-1.488.214-.427.32-.853.32-1.28 0-.661-.229-1.173-.688-1.536-.448-.373-1.093-.56-1.936-.56-1.312 0-2.33.416-3.056 1.248l-.816-.704a4.31 4.31 0 0 1 1.664-1.184c.683-.277 1.451-.416 2.304-.416 1.142 0 2.043.272 2.704.816.672.533 1.008 1.269 1.008 2.208a3.8 3.8 0 0 1-.384 1.664c-.256.533-.741 1.147-1.456 1.84l-3.808 3.744h6.16Zm6.024-5.68c.736 0 1.386.139 1.952.416a3.159 3.159 0 0 1 1.344 1.184c.32.501.48 1.088.48 1.76 0 .683-.166 1.285-.496 1.808-.331.523-.79.928-1.376 1.216-.576.277-1.227.416-1.952.416-1.483 0-2.619-.485-3.408-1.456-.79-.981-1.184-2.363-1.184-4.144 0-1.248.213-2.304.64-3.168.426-.864 1.024-1.515 1.792-1.952.768-.448 1.664-.672 2.688-.672 1.109 0 1.994.203 2.656.608l-.464.928c-.534-.352-1.259-.528-2.176-.528-1.238 0-2.208.395-2.912 1.184-.704.779-1.056 1.915-1.056 3.408 0 .267.016.571.048.912a2.979 2.979 0 0 1 1.328-1.408c.608-.341 1.306-.512 2.096-.512Zm-.096 5.824c.81 0 1.466-.219 1.968-.656.512-.448.768-1.04.768-1.776s-.256-1.323-.768-1.76c-.502-.437-1.184-.656-2.048-.656-.566 0-1.067.107-1.504.32a2.529 2.529 0 0 0-1.008.88 2.217 2.217 0 0 0-.368 1.248c0 .427.112.821.336 1.184.234.363.576.656 1.024.88.448.224.981.336 1.6.336Z"/><path fill="#E25B13" d="M292.253 612.976V614h-7.856v-.816l4.656-4.56c.587-.576.982-1.072 1.184-1.488.214-.427.32-.853.32-1.28 0-.661-.229-1.173-.688-1.536-.448-.373-1.093-.56-1.936-.56-1.312 0-2.33.416-3.056 1.248l-.816-.704a4.31 4.31 0 0 1 1.664-1.184c.683-.277 1.451-.416 2.304-.416 1.142 0 2.043.272 2.704.816.672.533 1.008 1.269 1.008 2.208a3.8 3.8 0 0 1-.384 1.664c-.256.533-.741 1.147-1.456 1.84l-3.808 3.744h6.16Zm9.288-10.176v.816L296.853 614h-1.248l4.608-10.176h-5.76v2.096h-1.136v-3.12h8.224Zm38.291 10.176V614h-7.856v-.816l4.656-4.56c.586-.576.981-1.072 1.184-1.488.213-.427.32-.853.32-1.28 0-.661-.23-1.173-.688-1.536-.448-.373-1.094-.56-1.936-.56-1.312 0-2.331.416-3.056 1.248l-.816-.704a4.302 4.302 0 0 1 1.664-1.184c.682-.277 1.45-.416 2.304-.416 1.141 0 2.042.272 2.704.816.672.533 1.008 1.269 1.008 2.208a3.8 3.8 0 0 1-.384 1.664c-.256.533-.742 1.147-1.456 1.84l-3.808 3.744h6.16Zm7.861-4.848c.704.235 1.243.587 1.616 1.056.384.469.576 1.035.576 1.696 0 .651-.176 1.221-.528 1.712-.352.48-.858.853-1.52 1.12-.65.256-1.418.384-2.304.384-1.344 0-2.4-.288-3.168-.864-.768-.576-1.152-1.36-1.152-2.352 0-.672.182-1.237.544-1.696.374-.469.912-.821 1.616-1.056-.576-.224-1.013-.544-1.312-.96-.298-.427-.448-.928-.448-1.504 0-.907.352-1.627 1.056-2.16.715-.533 1.67-.8 2.864-.8.79 0 1.478.123 2.064.368.598.235 1.062.576 1.392 1.024.331.448.496.971.496 1.568 0 .576-.154 1.077-.464 1.504-.309.416-.752.736-1.328.96Zm-4.928-2.432c0 .619.246 1.109.736 1.472.491.363 1.168.544 2.032.544.864 0 1.542-.181 2.032-.544.502-.363.752-.848.752-1.456 0-.629-.256-1.125-.768-1.488-.501-.363-1.173-.544-2.016-.544-.853 0-1.53.181-2.032.544-.49.363-.736.853-.736 1.472Zm2.768 7.424c.992 0 1.766-.203 2.32-.608.566-.405.848-.955.848-1.648s-.282-1.237-.848-1.632c-.554-.405-1.328-.608-2.32-.608-.981 0-1.754.203-2.32.608-.554.395-.832.939-.832 1.632 0 .704.278 1.259.832 1.664.555.395 1.328.592 2.32.592Z"/><path fill="#0A0A0A" d="M51.94 660.848V662h-8.838v-.918l5.238-5.13c.66-.648 1.104-1.206 1.332-1.674.24-.48.36-.96.36-1.44 0-.744-.258-1.32-.774-1.728-.504-.42-1.23-.63-2.178-.63-1.476 0-2.622.468-3.438 1.404l-.918-.792a4.846 4.846 0 0 1 1.872-1.332c.768-.312 1.632-.468 2.592-.468 1.284 0 2.298.306 3.042.918.756.6 1.134 1.428 1.134 2.484 0 .648-.144 1.272-.432 1.872-.288.6-.834 1.29-1.638 2.07l-4.284 4.212h6.93Zm5.55-11.556c1.669 0 2.947.552 3.835 1.656.888 1.092 1.332 2.64 1.332 4.644 0 1.404-.24 2.592-.72 3.564s-1.152 1.71-2.016 2.214c-.864.492-1.872.738-3.024.738-1.248 0-2.244-.228-2.988-.684l.522-1.044c.6.396 1.416.594 2.448.594 1.392 0 2.484-.438 3.276-1.314.792-.888 1.188-2.172 1.188-3.852 0-.312-.018-.654-.054-1.026a3.445 3.445 0 0 1-1.494 1.602c-.684.372-1.47.558-2.358.558-.828 0-1.566-.156-2.214-.468a3.62 3.62 0 0 1-1.494-1.314c-.36-.576-.54-1.242-.54-1.998 0-.768.186-1.446.558-2.034a3.635 3.635 0 0 1 1.53-1.35c.66-.324 1.398-.486 2.214-.486Zm.145 6.552c.636 0 1.194-.12 1.674-.36.492-.24.876-.57 1.152-.99.276-.42.414-.888.414-1.404 0-.48-.132-.924-.396-1.332-.252-.408-.63-.738-1.134-.99-.504-.252-1.104-.378-1.8-.378-.912 0-1.656.252-2.232.756-.564.492-.846 1.152-.846 1.98 0 .828.282 1.488.846 1.98.576.492 1.35.738 2.322.738ZM95.18 654.8c1.32.072 2.323.432 3.007 1.08.696.636 1.044 1.47 1.044 2.502 0 .72-.174 1.362-.522 1.926-.348.552-.864.99-1.548 1.314-.684.324-1.518.486-2.502.486a7.73 7.73 0 0 1-2.592-.432c-.804-.3-1.452-.696-1.944-1.188l.63-1.026c.42.432.978.786 1.674 1.062a6.24 6.24 0 0 0 2.232.396c1.032 0 1.83-.222 2.394-.666.564-.456.846-1.08.846-1.872 0-.78-.282-1.392-.846-1.836-.564-.444-1.416-.666-2.556-.666h-.9v-.954l3.492-4.374h-6.444V649.4h8.1v.918L95.18 654.8Zm10.899 7.308c-.972 0-1.842-.258-2.61-.774-.756-.516-1.35-1.254-1.782-2.214-.42-.972-.63-2.112-.63-3.42 0-1.308.21-2.442.63-3.402.432-.972 1.026-1.716 1.782-2.232.768-.516 1.638-.774 2.61-.774s1.836.258 2.592.774c.768.516 1.368 1.26 1.8 2.232.432.96.648 2.094.648 3.402 0 1.308-.216 2.448-.648 3.42-.432.96-1.032 1.698-1.8 2.214-.756.516-1.62.774-2.592.774Zm0-1.188c.732 0 1.374-.204 1.926-.612.564-.408 1.002-1.002 1.314-1.782.312-.78.468-1.722.468-2.826s-.156-2.046-.468-2.826c-.312-.78-.75-1.374-1.314-1.782-.552-.408-1.194-.612-1.926-.612s-1.38.204-1.944.612c-.552.408-.984 1.002-1.296 1.782-.312.78-.468 1.722-.468 2.826s.156 2.046.468 2.826c.312.78.744 1.374 1.296 1.782a3.231 3.231 0 0 0 1.944.612Z"/><rect width="397" height="707" x="0.5" y="0.5" stroke="#9747FF" stroke-dasharray="10 5" rx="4.5"/></svg>