<svg xmlns="http://www.w3.org/2000/svg" width="398" height="577" fill="none" viewBox="0 0 398 577"><g filter="url(#a)"><path fill="#F7F7F7" d="M4 31.5C4 16.312 16.312 4 31.5 4h335C381.688 4 394 16.312 394 31.5V573H4V31.5Z"/></g><path fill="#111" d="M65.296 115.096c-.864 0-1.637-.229-2.32-.688-.672-.459-1.2-1.115-1.584-1.968-.373-.864-.56-1.877-.56-3.04s.187-2.171.56-3.024c.384-.864.912-1.525 1.584-1.984.683-.459 1.456-.688 2.32-.688.864 0 1.632.229 2.304.688.683.459 1.216 1.12 1.6 1.984.384.853.576 1.861.576 3.024s-.192 2.176-.576 3.04c-.384.853-.917 1.509-1.6 1.968-.672.459-1.44.688-2.304.688Zm0-1.056c.65 0 1.221-.181 1.712-.544.501-.363.89-.891 1.168-1.584.277-.693.416-1.531.416-2.512 0-.981-.139-1.819-.416-2.512-.277-.693-.667-1.221-1.168-1.584-.49-.363-1.061-.544-1.712-.544a2.87 2.87 0 0 0-1.728.544c-.49.363-.875.891-1.152 1.584-.277.693-.416 1.531-.416 2.512 0 .981.139 1.819.416 2.512.277.693.661 1.221 1.152 1.584a2.87 2.87 0 0 0 1.728.544Zm9.618-10.336c1.482 0 2.618.491 3.408 1.472.79.971 1.184 2.347 1.184 4.128 0 1.248-.214 2.304-.64 3.168-.427.864-1.024 1.52-1.792 1.968-.768.437-1.664.656-2.688.656-1.11 0-1.995-.203-2.656-.608l.464-.928c.533.352 1.258.528 2.176.528 1.237 0 2.208-.389 2.912-1.168.704-.789 1.056-1.931 1.056-3.424 0-.277-.016-.581-.048-.912a3.06 3.06 0 0 1-1.328 1.424c-.608.331-1.307.496-2.096.496-.736 0-1.392-.139-1.968-.416a3.218 3.218 0 0 1-1.328-1.168c-.32-.512-.48-1.104-.48-1.776 0-.683.165-1.285.496-1.808.33-.523.784-.923 1.36-1.2.586-.288 1.242-.432 1.968-.432Zm.128 5.824c.565 0 1.061-.107 1.488-.32a2.51 2.51 0 0 0 1.024-.88c.245-.373.368-.789.368-1.248 0-.427-.118-.821-.352-1.184-.224-.363-.56-.656-1.008-.88-.448-.224-.982-.336-1.6-.336-.81 0-1.472.224-1.984.672-.502.437-.752 1.024-.752 1.76s.25 1.323.752 1.76c.512.437 1.2.656 2.064.656Zm6.998-1.264a.83.83 0 0 1-.608-.256.88.88 0 0 1-.24-.624c0-.245.08-.448.24-.608a.83.83 0 0 1 .608-.256.83.83 0 0 1 .608.256.8.8 0 0 1 .256.608.85.85 0 0 1-.256.624.83.83 0 0 1-.608.256Zm0 6.816a.83.83 0 0 1-.608-.256.88.88 0 0 1-.24-.624c0-.245.08-.448.24-.608a.83.83 0 0 1 .608-.256.83.83 0 0 1 .608.256.8.8 0 0 1 .256.608.85.85 0 0 1-.256.624.83.83 0 0 1-.608.256Zm6.99.016c-.864 0-1.637-.229-2.32-.688-.672-.459-1.2-1.115-1.584-1.968-.373-.864-.56-1.877-.56-3.04s.187-2.171.56-3.024c.384-.864.912-1.525 1.584-1.984.683-.459 1.456-.688 2.32-.688.864 0 1.632.229 2.304.688.683.459 1.216 1.12 1.6 1.984.384.853.576 1.861.576 3.024s-.192 2.176-.576 3.04c-.384.853-.917 1.509-1.6 1.968-.672.459-1.44.688-2.304.688Zm0-1.056c.651 0 1.222-.181 1.712-.544.502-.363.891-.891 1.168-1.584.278-.693.416-1.531.416-2.512 0-.981-.138-1.819-.416-2.512-.277-.693-.666-1.221-1.168-1.584-.49-.363-1.061-.544-1.712-.544a2.87 2.87 0 0 0-1.728.544c-.49.363-.874.891-1.152 1.584-.277.693-.416 1.531-.416 2.512 0 .981.139 1.819.416 2.512.278.693.662 1.221 1.152 1.584a2.87 2.87 0 0 0 1.728.544Zm10.594 1.056c-.864 0-1.637-.229-2.32-.688-.672-.459-1.2-1.115-1.584-1.968-.373-.864-.56-1.877-.56-3.04s.187-2.171.56-3.024c.384-.864.912-1.525 1.584-1.984.683-.459 1.456-.688 2.32-.688.864 0 1.632.229 2.304.688.683.459 1.216 1.12 1.6 1.984.384.853.576 1.861.576 3.024s-.192 2.176-.576 3.04c-.384.853-.917 1.509-1.6 1.968-.672.459-1.44.688-2.304.688Zm0-1.056c.651 0 1.221-.181 1.712-.544.501-.363.891-.891 1.168-1.584.277-.693.416-1.531.416-2.512 0-.981-.139-1.819-.416-2.512-.277-.693-.667-1.221-1.168-1.584-.491-.363-1.061-.544-1.712-.544a2.87 2.87 0 0 0-1.728.544c-.49.363-.874.891-1.152 1.584-.277.693-.416 1.531-.416 2.512 0 .981.139 1.819.416 2.512.278.693.662 1.221 1.152 1.584a2.87 2.87 0 0 0 1.728.544Zm15.357-7.52c1.056 0 1.894.309 2.512.928.63.608.944 1.499.944 2.672V115h-1.136v-4.768c0-.875-.218-1.541-.656-2-.437-.459-1.061-.688-1.872-.688-.906 0-1.626.272-2.16.816-.522.533-.784 1.275-.784 2.224V115h-1.136v-11.872h1.136v4.928c.31-.491.736-.869 1.28-1.136.544-.267 1.168-.4 1.872-.4Zm10.012 8.56c-.811 0-1.542-.181-2.192-.544a4.074 4.074 0 0 1-1.536-1.536c-.374-.651-.56-1.387-.56-2.208 0-.821.186-1.557.56-2.208a3.964 3.964 0 0 1 1.536-1.52c.65-.363 1.381-.544 2.192-.544.81 0 1.541.181 2.192.544.65.363 1.157.869 1.52 1.52.373.651.56 1.387.56 2.208 0 .821-.187 1.557-.56 2.208a3.97 3.97 0 0 1-1.52 1.536c-.651.363-1.382.544-2.192.544Zm0-1.008c.597 0 1.13-.133 1.6-.4.48-.277.853-.667 1.12-1.168.266-.501.4-1.072.4-1.712 0-.64-.134-1.211-.4-1.712a2.784 2.784 0 0 0-1.12-1.152 3.09 3.09 0 0 0-1.6-.416c-.598 0-1.136.139-1.616.416a2.91 2.91 0 0 0-1.12 1.152c-.267.501-.4 1.072-.4 1.712 0 .64.133 1.211.4 1.712.277.501.65.891 1.12 1.168.48.267 1.018.4 1.616.4Zm7.679-5.84a2.765 2.765 0 0 1 1.184-1.28c.533-.288 1.189-.432 1.968-.432v1.104l-.272-.016c-.885 0-1.579.272-2.08.816-.501.544-.752 1.307-.752 2.288V115h-1.136v-8.416h1.088v1.648Zm12.459 2.912h-7.04c.064.875.4 1.584 1.008 2.128.608.533 1.376.8 2.304.8.522 0 1.002-.091 1.44-.272a3.23 3.23 0 0 0 1.136-.832l.64.736a3.603 3.603 0 0 1-1.408 1.024 4.671 4.671 0 0 1-1.84.352c-.864 0-1.632-.181-2.304-.544a4.04 4.04 0 0 1-1.552-1.536c-.374-.651-.56-1.387-.56-2.208 0-.821.176-1.557.528-2.208a3.948 3.948 0 0 1 1.472-1.52c.629-.363 1.333-.544 2.112-.544.778 0 1.477.181 2.096.544a3.847 3.847 0 0 1 1.456 1.52c.352.64.528 1.376.528 2.208l-.016.352Zm-4.064-3.648c-.811 0-1.494.261-2.048.784-.544.512-.854 1.184-.928 2.016h5.968c-.075-.832-.39-1.504-.944-2.016-.544-.523-1.227-.784-2.048-.784Zm8.648 7.584a6.703 6.703 0 0 1-1.968-.288c-.619-.203-1.104-.453-1.456-.752l.512-.896c.352.277.795.507 1.328.688a5.415 5.415 0 0 0 1.664.256c.768 0 1.333-.117 1.696-.352.373-.245.56-.587.56-1.024 0-.309-.101-.549-.304-.72a1.886 1.886 0 0 0-.768-.4 9.613 9.613 0 0 0-1.232-.272 15.555 15.555 0 0 1-1.648-.384 2.55 2.55 0 0 1-1.072-.688c-.288-.32-.432-.763-.432-1.328 0-.704.293-1.28.88-1.728.587-.448 1.403-.672 2.448-.672.544 0 1.088.075 1.632.224.544.139.992.325 1.344.56l-.496.912c-.693-.48-1.52-.72-2.48-.72-.725 0-1.275.128-1.648.384-.363.256-.544.592-.544 1.008 0 .32.101.576.304.768.213.192.475.336.784.432.309.085.736.176 1.28.272.672.128 1.211.256 1.616.384s.752.347 1.04.656c.288.309.432.736.432 1.28 0 .736-.309 1.323-.928 1.76-.608.427-1.456.64-2.544.64Z"/><path fill="#C2D1D9" fill-rule="evenodd" d="M32 121c-6.627 0-12-5.373-12-12s5.373-12 12-12 12 5.373 12 12-5.373 12-12 12Zm0-2c5.523 0 10-4.477 10-10s-4.477-10-10-10-10 4.477-10 10 4.477 10 10 10Z" clip-rule="evenodd"/><mask id="b" width="24" height="24" x="20" y="97" maskUnits="userSpaceOnUse" style="mask-type:luminance"><path fill="#fff" fill-rule="evenodd" d="M32 121c-6.627 0-12-5.373-12-12s5.373-12 12-12 12 5.373 12 12-5.373 12-12 12Zm0-2c5.523 0 10-4.477 10-10s-4.477-10-10-10-10 4.477-10 10 4.477 10 10 10Z" clip-rule="evenodd"/></mask><g mask="url(#b)"><path fill="#000" d="M20 97h24v24H20z"/></g><path fill="#111" d="M63.936 159.8V171h-1.152v-10.176h-2.64V159.8h3.792Zm7.141 11.296c-.864 0-1.637-.229-2.32-.688-.672-.459-1.2-1.115-1.584-1.968-.373-.864-.56-1.877-.56-3.04s.187-2.171.56-3.024c.384-.864.912-1.525 1.584-1.984.683-.459 1.456-.688 2.32-.688.864 0 1.632.229 2.304.688.683.459 1.216 1.12 1.6 1.984.384.853.576 1.861.576 3.024s-.192 2.176-.576 3.04c-.384.853-.917 1.509-1.6 1.968-.672.459-1.44.688-2.304.688Zm0-1.056c.65 0 1.222-.181 1.712-.544.502-.363.89-.891 1.168-1.584.278-.693.416-1.531.416-2.512 0-.981-.138-1.819-.416-2.512-.277-.693-.666-1.221-1.168-1.584-.49-.363-1.061-.544-1.712-.544a2.87 2.87 0 0 0-1.728.544c-.49.363-.874.891-1.152 1.584-.277.693-.416 1.531-.416 2.512 0 .981.139 1.819.416 2.512.278.693.662 1.221 1.152 1.584a2.87 2.87 0 0 0 1.728.544Zm6.994-5.776a.83.83 0 0 1-.608-.256.88.88 0 0 1-.24-.624c0-.245.08-.448.24-.608a.83.83 0 0 1 .608-.256.83.83 0 0 1 .608.256.8.8 0 0 1 .256.608.85.85 0 0 1-.256.624.83.83 0 0 1-.608.256Zm0 6.816a.83.83 0 0 1-.608-.256.88.88 0 0 1-.24-.624c0-.245.08-.448.24-.608a.83.83 0 0 1 .608-.256.83.83 0 0 1 .608.256.8.8 0 0 1 .256.608.85.85 0 0 1-.256.624.83.83 0 0 1-.608.256Zm6.99.016c-.863 0-1.637-.229-2.32-.688-.671-.459-1.2-1.115-1.583-1.968-.374-.864-.56-1.877-.56-3.04s.186-2.171.56-3.024c.384-.864.912-1.525 1.584-1.984.682-.459 1.456-.688 2.32-.688.864 0 1.632.229 2.304.688.682.459 1.216 1.12 1.6 1.984.384.853.576 1.861.576 3.024s-.192 2.176-.576 3.04c-.384.853-.918 1.509-1.6 1.968-.672.459-1.44.688-2.304.688Zm0-1.056c.651 0 1.222-.181 1.713-.544.501-.363.89-.891 1.168-1.584.277-.693.416-1.531.416-2.512 0-.981-.139-1.819-.416-2.512-.278-.693-.667-1.221-1.168-1.584-.491-.363-1.062-.544-1.712-.544a2.87 2.87 0 0 0-1.728.544c-.491.363-.875.891-1.152 1.584-.278.693-.416 1.531-.416 2.512 0 .981.138 1.819.416 2.512.277.693.661 1.221 1.152 1.584a2.87 2.87 0 0 0 1.728.544Zm10.594 1.056c-.864 0-1.637-.229-2.32-.688-.672-.459-1.2-1.115-1.584-1.968-.373-.864-.56-1.877-.56-3.04s.187-2.171.56-3.024c.384-.864.912-1.525 1.584-1.984.683-.459 1.456-.688 2.32-.688.864 0 1.632.229 2.304.688.683.459 1.216 1.12 1.6 1.984.384.853.576 1.861.576 3.024s-.192 2.176-.576 3.04c-.384.853-.917 1.509-1.6 1.968-.672.459-1.44.688-2.304.688Zm0-1.056c.651 0 1.222-.181 1.712-.544.502-.363.891-.891 1.168-1.584.278-.693.416-1.531.416-2.512 0-.981-.138-1.819-.416-2.512-.277-.693-.666-1.221-1.168-1.584-.49-.363-1.061-.544-1.712-.544a2.87 2.87 0 0 0-1.728.544c-.49.363-.874.891-1.152 1.584-.277.693-.416 1.531-.416 2.512 0 .981.139 1.819.416 2.512.278.693.662 1.221 1.152 1.584a2.87 2.87 0 0 0 1.728.544Zm15.358-7.52c1.056 0 1.893.309 2.512.928.629.608.944 1.499.944 2.672V171h-1.136v-4.768c0-.875-.219-1.541-.656-2-.438-.459-1.062-.688-1.872-.688-.907 0-1.627.272-2.16.816-.523.533-.784 1.275-.784 2.224V171h-1.136v-11.872h1.136v4.928a3.078 3.078 0 0 1 1.28-1.136c.544-.267 1.168-.4 1.872-.4Zm10.011 8.56c-.811 0-1.541-.181-2.192-.544a4.074 4.074 0 0 1-1.536-1.536c-.373-.651-.56-1.387-.56-2.208 0-.821.187-1.557.56-2.208a3.964 3.964 0 0 1 1.536-1.52c.651-.363 1.381-.544 2.192-.544.811 0 1.541.181 2.192.544a3.858 3.858 0 0 1 1.52 1.52c.373.651.56 1.387.56 2.208 0 .821-.187 1.557-.56 2.208a3.964 3.964 0 0 1-1.52 1.536c-.651.363-1.381.544-2.192.544Zm0-1.008c.597 0 1.131-.133 1.6-.4.48-.277.853-.667 1.12-1.168.267-.501.4-1.072.4-1.712 0-.64-.133-1.211-.4-1.712a2.784 2.784 0 0 0-1.12-1.152 3.088 3.088 0 0 0-1.6-.416c-.597 0-1.136.139-1.616.416a2.917 2.917 0 0 0-1.12 1.152c-.267.501-.4 1.072-.4 1.712 0 .64.133 1.211.4 1.712.277.501.651.891 1.12 1.168.48.267 1.019.4 1.616.4Zm7.679-5.84a2.77 2.77 0 0 1 1.184-1.28c.534-.288 1.19-.432 1.968-.432v1.104l-.272-.016c-.885 0-1.578.272-2.08.816-.501.544-.752 1.307-.752 2.288V171h-1.136v-8.416h1.088v1.648Zm12.459 2.912h-7.04c.064.875.4 1.584 1.008 2.128.608.533 1.376.8 2.304.8.523 0 1.003-.091 1.44-.272a3.23 3.23 0 0 0 1.136-.832l.64.736a3.596 3.596 0 0 1-1.408 1.024 4.671 4.671 0 0 1-1.84.352c-.864 0-1.632-.181-2.304-.544a4.047 4.047 0 0 1-1.552-1.536c-.373-.651-.56-1.387-.56-2.208 0-.821.176-1.557.528-2.208a3.956 3.956 0 0 1 1.472-1.52c.629-.363 1.333-.544 2.112-.544.779 0 1.477.181 2.096.544a3.84 3.84 0 0 1 1.456 1.52c.352.64.528 1.376.528 2.208l-.016.352Zm-4.064-3.648c-.811 0-1.493.261-2.048.784-.544.512-.853 1.184-.928 2.016h5.968c-.075-.832-.389-1.504-.944-2.016-.544-.523-1.227-.784-2.048-.784Zm8.648 7.584a6.713 6.713 0 0 1-1.968-.288c-.618-.203-1.104-.453-1.456-.752l.512-.896c.352.277.795.507 1.328.688a5.42 5.42 0 0 0 1.664.256c.768 0 1.334-.117 1.696-.352.374-.245.56-.587.56-1.024 0-.309-.101-.549-.304-.72a1.873 1.873 0 0 0-.768-.4 9.613 9.613 0 0 0-1.232-.272 15.615 15.615 0 0 1-1.648-.384 2.55 2.55 0 0 1-1.072-.688c-.288-.32-.432-.763-.432-1.328 0-.704.294-1.28.88-1.728.587-.448 1.403-.672 2.448-.672.544 0 1.088.075 1.632.224.544.139.992.325 1.344.56l-.496.912c-.693-.48-1.52-.72-2.48-.72-.725 0-1.274.128-1.648.384-.362.256-.544.592-.544 1.008 0 .32.102.576.304.768.214.192.475.336.784.432.31.085.736.176 1.28.272.672.128 1.211.256 1.616.384.406.128.752.347 1.04.656.288.309.432.736.432 1.28 0 .736-.309 1.323-.928 1.76-.608.427-1.456.64-2.544.64Z"/><path fill="#C2D1D9" fill-rule="evenodd" d="M32 177c-6.627 0-12-5.373-12-12s5.373-12 12-12 12 5.373 12 12-5.373 12-12 12Zm0-2c5.523 0 10-4.477 10-10s-4.477-10-10-10-10 4.477-10 10 4.477 10 10 10Z" clip-rule="evenodd"/><mask id="c" width="24" height="24" x="20" y="153" maskUnits="userSpaceOnUse" style="mask-type:luminance"><path fill="#fff" fill-rule="evenodd" d="M32 177c-6.627 0-12-5.373-12-12s5.373-12 12-12 12 5.373 12 12-5.373 12-12 12Zm0-2c5.523 0 10-4.477 10-10s-4.477-10-10-10-10 4.477-10 10 4.477 10 10 10Z" clip-rule="evenodd"/></mask><g mask="url(#c)"><path fill="#000" d="M20 153h24v24H20z"/></g><circle cx="32" cy="165" r="7" fill="#000"/><path fill="#111" d="M63.936 215.8V227h-1.152v-10.176h-2.64V215.8h3.792Zm5.781 0V227h-1.152v-10.176h-2.64V215.8h3.792Zm3.541 4.464a.83.83 0 0 1-.608-.256.88.88 0 0 1-.24-.624c0-.245.08-.448.24-.608a.83.83 0 0 1 .608-.256.83.83 0 0 1 .609.256.8.8 0 0 1 .255.608.85.85 0 0 1-.255.624.83.83 0 0 1-.609.256Zm0 6.816a.83.83 0 0 1-.608-.256.88.88 0 0 1-.24-.624c0-.245.08-.448.24-.608a.83.83 0 0 1 .608-.256.83.83 0 0 1 .609.256.8.8 0 0 1 .255.608.85.85 0 0 1-.255.624.83.83 0 0 1-.609.256Zm6.991.016c-.864 0-1.637-.229-2.32-.688-.672-.459-1.2-1.115-1.584-1.968-.373-.864-.56-1.877-.56-3.04s.187-2.171.56-3.024c.384-.864.912-1.525 1.584-1.984.683-.459 1.456-.688 2.32-.688.864 0 1.632.229 2.304.688.683.459 1.216 1.12 1.6 1.984.384.853.576 1.861.576 3.024s-.192 2.176-.576 3.04c-.384.853-.917 1.509-1.6 1.968-.672.459-1.44.688-2.304.688Zm0-1.056c.65 0 1.222-.181 1.712-.544.502-.363.89-.891 1.168-1.584.277-.693.416-1.531.416-2.512 0-.981-.139-1.819-.416-2.512-.277-.693-.666-1.221-1.168-1.584-.49-.363-1.061-.544-1.712-.544a2.87 2.87 0 0 0-1.728.544c-.49.363-.874.891-1.152 1.584-.277.693-.416 1.531-.416 2.512 0 .981.139 1.819.416 2.512.278.693.662 1.221 1.152 1.584a2.87 2.87 0 0 0 1.728.544Zm10.594 1.056c-.864 0-1.638-.229-2.32-.688-.672-.459-1.2-1.115-1.584-1.968-.373-.864-.56-1.877-.56-3.04s.186-2.171.56-3.024c.384-.864.912-1.525 1.584-1.984.683-.459 1.456-.688 2.32-.688.864 0 1.632.229 2.304.688.682.459 1.216 1.12 1.6 1.984.384.853.576 1.861.576 3.024s-.192 2.176-.576 3.04c-.384.853-.918 1.509-1.6 1.968-.672.459-1.44.688-2.304.688Zm0-1.056c.65 0 1.221-.181 1.712-.544.501-.363.89-.891 1.168-1.584.277-.693.416-1.531.416-2.512 0-.981-.139-1.819-.416-2.512-.278-.693-.667-1.221-1.168-1.584-.49-.363-1.062-.544-1.712-.544a2.87 2.87 0 0 0-1.728.544c-.49.363-.875.891-1.152 1.584-.277.693-.416 1.531-.416 2.512 0 .981.139 1.819.416 2.512.277.693.661 1.221 1.152 1.584a2.87 2.87 0 0 0 1.728.544Zm15.357-7.52c1.056 0 1.893.309 2.512.928.629.608.944 1.499.944 2.672V227h-1.136v-4.768c0-.875-.219-1.541-.656-2-.437-.459-1.061-.688-1.872-.688-.907 0-1.627.272-2.16.816-.523.533-.784 1.275-.784 2.224V227h-1.136v-11.872h1.136v4.928a3.078 3.078 0 0 1 1.28-1.136c.544-.267 1.168-.4 1.872-.4Zm10.012 8.56c-.811 0-1.542-.181-2.192-.544a4.074 4.074 0 0 1-1.536-1.536c-.374-.651-.56-1.387-.56-2.208 0-.821.186-1.557.56-2.208a3.964 3.964 0 0 1 1.536-1.52c.65-.363 1.381-.544 2.192-.544.81 0 1.541.181 2.192.544.65.363 1.157.869 1.52 1.52.373.651.56 1.387.56 2.208 0 .821-.187 1.557-.56 2.208a3.97 3.97 0 0 1-1.52 1.536c-.651.363-1.382.544-2.192.544Zm0-1.008c.597 0 1.13-.133 1.6-.4.48-.277.853-.667 1.12-1.168.266-.501.4-1.072.4-1.712 0-.64-.134-1.211-.4-1.712a2.784 2.784 0 0 0-1.12-1.152 3.09 3.09 0 0 0-1.6-.416c-.598 0-1.136.139-1.616.416a2.91 2.91 0 0 0-1.12 1.152c-.267.501-.4 1.072-.4 1.712 0 .64.133 1.211.4 1.712.277.501.65.891 1.12 1.168.48.267 1.018.4 1.616.4Zm7.679-5.84a2.76 2.76 0 0 1 1.184-1.28c.533-.288 1.189-.432 1.968-.432v1.104l-.272-.016c-.886 0-1.579.272-2.08.816-.502.544-.752 1.307-.752 2.288V227h-1.136v-8.416h1.088v1.648Zm12.459 2.912h-7.04c.064.875.4 1.584 1.008 2.128.608.533 1.376.8 2.304.8.522 0 1.002-.091 1.44-.272a3.23 3.23 0 0 0 1.136-.832l.64.736a3.603 3.603 0 0 1-1.408 1.024 4.671 4.671 0 0 1-1.84.352c-.864 0-1.632-.181-2.304-.544a4.04 4.04 0 0 1-1.552-1.536c-.374-.651-.56-1.387-.56-2.208 0-.821.176-1.557.528-2.208a3.948 3.948 0 0 1 1.472-1.52c.629-.363 1.333-.544 2.112-.544.778 0 1.477.181 2.096.544a3.847 3.847 0 0 1 1.456 1.52c.352.64.528 1.376.528 2.208l-.016.352Zm-4.064-3.648c-.811 0-1.494.261-2.048.784-.544.512-.854 1.184-.928 2.016h5.968c-.075-.832-.39-1.504-.944-2.016-.544-.523-1.227-.784-2.048-.784Zm8.648 7.584a6.703 6.703 0 0 1-1.968-.288c-.619-.203-1.104-.453-1.456-.752l.512-.896c.352.277.794.507 1.328.688a5.415 5.415 0 0 0 1.664.256c.768 0 1.333-.117 1.696-.352.373-.245.56-.587.56-1.024 0-.309-.102-.549-.304-.72a1.886 1.886 0 0 0-.768-.4 9.653 9.653 0 0 0-1.232-.272 15.555 15.555 0 0 1-1.648-.384 2.544 2.544 0 0 1-1.072-.688c-.288-.32-.432-.763-.432-1.328 0-.704.293-1.28.88-1.728.586-.448 1.402-.672 2.448-.672.544 0 1.088.075 1.632.224.544.139.992.325 1.344.56l-.496.912c-.694-.48-1.52-.72-2.48-.72-.726 0-1.275.128-1.648.384-.363.256-.544.592-.544 1.008 0 .32.101.576.304.768.213.192.474.336.784.432.309.085.736.176 1.28.272.672.128 1.21.256 1.616.384.405.128.752.347 1.04.656.288.309.432.736.432 1.28 0 .736-.31 1.323-.928 1.76-.608.427-1.456.64-2.544.64Z"/><path fill="#C2D1D9" fill-rule="evenodd" d="M32 233c-6.627 0-12-5.373-12-12s5.373-12 12-12 12 5.373 12 12-5.373 12-12 12Zm0-2c5.523 0 10-4.477 10-10s-4.477-10-10-10-10 4.477-10 10 4.477 10 10 10Z" clip-rule="evenodd"/><mask id="d" width="24" height="24" x="20" y="209" maskUnits="userSpaceOnUse" style="mask-type:luminance"><path fill="#fff" fill-rule="evenodd" d="M32 233c-6.627 0-12-5.373-12-12s5.373-12 12-12 12 5.373 12 12-5.373 12-12 12Zm0-2c5.523 0 10-4.477 10-10s-4.477-10-10-10-10 4.477-10 10 4.477 10 10 10Z" clip-rule="evenodd"/></mask><g mask="url(#d)"><path fill="#000" d="M20 209h24v24H20z"/></g><path fill="#111" d="M63.936 271.8V283h-1.152v-10.176h-2.64V271.8h3.792Zm10.325 10.176V283h-7.856v-.816l4.656-4.56c.587-.576.982-1.072 1.184-1.488a2.84 2.84 0 0 0 .32-1.28c0-.661-.23-1.173-.688-1.536-.448-.373-1.093-.56-1.936-.56-1.312 0-2.33.416-3.056 1.248l-.816-.704a4.304 4.304 0 0 1 1.664-1.184c.683-.277 1.45-.416 2.304-.416 1.142 0 2.043.272 2.704.816.672.533 1.008 1.269 1.008 2.208a3.8 3.8 0 0 1-.384 1.664c-.256.533-.741 1.147-1.456 1.84l-3.808 3.744h6.16Zm2.31-5.712a.83.83 0 0 1-.608-.256.88.88 0 0 1-.24-.624c0-.245.08-.448.24-.608a.83.83 0 0 1 .608-.256.83.83 0 0 1 .608.256.8.8 0 0 1 .256.608.85.85 0 0 1-.256.624.83.83 0 0 1-.608.256Zm0 6.816a.83.83 0 0 1-.608-.256.88.88 0 0 1-.24-.624c0-.245.08-.448.24-.608a.83.83 0 0 1 .608-.256.83.83 0 0 1 .608.256.8.8 0 0 1 .256.608.85.85 0 0 1-.256.624.83.83 0 0 1-.608.256Zm6.99.016c-.863 0-1.637-.229-2.32-.688-.671-.459-1.2-1.115-1.583-1.968-.374-.864-.56-1.877-.56-3.04s.186-2.171.56-3.024c.384-.864.912-1.525 1.584-1.984.682-.459 1.456-.688 2.32-.688.864 0 1.632.229 2.304.688.682.459 1.216 1.12 1.6 1.984.384.853.576 1.861.576 3.024s-.192 2.176-.576 3.04c-.384.853-.918 1.509-1.6 1.968-.672.459-1.44.688-2.304.688Zm0-1.056c.651 0 1.222-.181 1.713-.544.501-.363.89-.891 1.168-1.584.277-.693.416-1.531.416-2.512 0-.981-.139-1.819-.416-2.512-.278-.693-.667-1.221-1.168-1.584-.491-.363-1.062-.544-1.712-.544a2.87 2.87 0 0 0-1.728.544c-.491.363-.875.891-1.152 1.584-.278.693-.416 1.531-.416 2.512 0 .981.138 1.819.416 2.512.277.693.661 1.221 1.152 1.584a2.87 2.87 0 0 0 1.728.544Zm10.594 1.056c-.864 0-1.637-.229-2.32-.688-.672-.459-1.2-1.115-1.584-1.968-.373-.864-.56-1.877-.56-3.04s.187-2.171.56-3.024c.384-.864.912-1.525 1.584-1.984.683-.459 1.456-.688 2.32-.688.864 0 1.632.229 2.304.688.683.459 1.216 1.12 1.6 1.984.384.853.576 1.861.576 3.024s-.192 2.176-.576 3.04c-.384.853-.917 1.509-1.6 1.968-.672.459-1.44.688-2.304.688Zm0-1.056c.651 0 1.222-.181 1.712-.544.502-.363.891-.891 1.168-1.584.278-.693.416-1.531.416-2.512 0-.981-.138-1.819-.416-2.512-.277-.693-.666-1.221-1.168-1.584-.49-.363-1.061-.544-1.712-.544a2.87 2.87 0 0 0-1.728.544c-.49.363-.874.891-1.152 1.584-.277.693-.416 1.531-.416 2.512 0 .981.139 1.819.416 2.512.278.693.662 1.221 1.152 1.584a2.87 2.87 0 0 0 1.728.544Zm15.358-7.52c1.056 0 1.893.309 2.512.928.629.608.944 1.499.944 2.672V283h-1.136v-4.768c0-.875-.219-1.541-.656-2-.438-.459-1.062-.688-1.872-.688-.907 0-1.627.272-2.16.816-.523.533-.784 1.275-.784 2.224V283h-1.136v-11.872h1.136v4.928a3.078 3.078 0 0 1 1.28-1.136c.544-.267 1.168-.4 1.872-.4Zm10.011 8.56c-.811 0-1.541-.181-2.192-.544a4.074 4.074 0 0 1-1.536-1.536c-.373-.651-.56-1.387-.56-2.208 0-.821.187-1.557.56-2.208a3.964 3.964 0 0 1 1.536-1.52c.651-.363 1.381-.544 2.192-.544.811 0 1.541.181 2.192.544a3.858 3.858 0 0 1 1.52 1.52c.373.651.56 1.387.56 2.208 0 .821-.187 1.557-.56 2.208a3.964 3.964 0 0 1-1.52 1.536c-.651.363-1.381.544-2.192.544Zm0-1.008c.597 0 1.131-.133 1.6-.4.48-.277.853-.667 1.12-1.168.267-.501.4-1.072.4-1.712 0-.64-.133-1.211-.4-1.712a2.784 2.784 0 0 0-1.12-1.152 3.088 3.088 0 0 0-1.6-.416c-.597 0-1.136.139-1.616.416a2.917 2.917 0 0 0-1.12 1.152c-.267.501-.4 1.072-.4 1.712 0 .64.133 1.211.4 1.712.277.501.651.891 1.12 1.168.48.267 1.019.4 1.616.4Zm7.679-5.84a2.77 2.77 0 0 1 1.184-1.28c.534-.288 1.19-.432 1.968-.432v1.104l-.272-.016c-.885 0-1.578.272-2.08.816-.501.544-.752 1.307-.752 2.288V283h-1.136v-8.416h1.088v1.648Zm12.459 2.912h-7.04c.064.875.4 1.584 1.008 2.128.608.533 1.376.8 2.304.8.523 0 1.003-.091 1.44-.272a3.23 3.23 0 0 0 1.136-.832l.64.736a3.596 3.596 0 0 1-1.408 1.024 4.671 4.671 0 0 1-1.84.352c-.864 0-1.632-.181-2.304-.544a4.047 4.047 0 0 1-1.552-1.536c-.373-.651-.56-1.387-.56-2.208 0-.821.176-1.557.528-2.208a3.956 3.956 0 0 1 1.472-1.52c.629-.363 1.333-.544 2.112-.544.779 0 1.477.181 2.096.544a3.84 3.84 0 0 1 1.456 1.52c.352.64.528 1.376.528 2.208l-.016.352Zm-4.064-3.648c-.811 0-1.493.261-2.048.784-.544.512-.853 1.184-.928 2.016h5.968c-.075-.832-.389-1.504-.944-2.016-.544-.523-1.227-.784-2.048-.784Zm8.648 7.584a6.713 6.713 0 0 1-1.968-.288c-.618-.203-1.104-.453-1.456-.752l.512-.896c.352.277.795.507 1.328.688a5.42 5.42 0 0 0 1.664.256c.768 0 1.334-.117 1.696-.352.374-.245.56-.587.56-1.024 0-.309-.101-.549-.304-.72a1.873 1.873 0 0 0-.768-.4 9.613 9.613 0 0 0-1.232-.272 15.615 15.615 0 0 1-1.648-.384 2.55 2.55 0 0 1-1.072-.688c-.288-.32-.432-.763-.432-1.328 0-.704.294-1.28.88-1.728.587-.448 1.403-.672 2.448-.672.544 0 1.088.075 1.632.224.544.139.992.325 1.344.56l-.496.912c-.693-.48-1.52-.72-2.48-.72-.725 0-1.274.128-1.648.384-.362.256-.544.592-.544 1.008 0 .32.102.576.304.768.214.192.475.336.784.432.31.085.736.176 1.28.272.672.128 1.211.256 1.616.384.406.128.752.347 1.04.656.288.309.432.736.432 1.28 0 .736-.309 1.323-.928 1.76-.608.427-1.456.64-2.544.64Z"/><path fill="#C2D1D9" fill-rule="evenodd" d="M32 289c-6.627 0-12-5.373-12-12s5.373-12 12-12 12 5.373 12 12-5.373 12-12 12Zm0-2c5.523 0 10-4.477 10-10s-4.477-10-10-10-10 4.477-10 10 4.477 10 10 10Z" clip-rule="evenodd"/><mask id="e" width="24" height="24" x="20" y="265" maskUnits="userSpaceOnUse" style="mask-type:luminance"><path fill="#fff" fill-rule="evenodd" d="M32 289c-6.627 0-12-5.373-12-12s5.373-12 12-12 12 5.373 12 12-5.373 12-12 12Zm0-2c5.523 0 10-4.477 10-10s-4.477-10-10-10-10 4.477-10 10 4.477 10 10 10Z" clip-rule="evenodd"/></mask><g mask="url(#e)"><path fill="#000" d="M20 265h24v24H20z"/></g><path fill="#000" d="M151.722 28.424c1.035.128 1.824.48 2.368 1.056.544.576.816 1.296.816 2.16a3.3 3.3 0 0 1-.496 1.776c-.331.533-.832.96-1.504 1.28-.661.31-1.472.464-2.432.464-.8 0-1.573-.112-2.32-.336-.736-.235-1.365-.555-1.888-.96l.896-1.616a4.67 4.67 0 0 0 1.472.816 5.777 5.777 0 0 0 1.808.288c.736 0 1.312-.15 1.728-.448.427-.31.64-.725.64-1.248s-.203-.928-.608-1.216c-.395-.299-1.003-.448-1.824-.448h-1.024v-1.424l2.544-3.024h-5.088V23.8h7.632v1.392l-2.72 3.232Zm18.054-1.968v7.248c0 3.008-1.536 4.512-4.608 4.512-.821 0-1.6-.107-2.336-.32-.736-.203-1.344-.501-1.824-.896l.896-1.504c.374.31.843.555 1.408.736a5.486 5.486 0 0 0 1.744.288c.939 0 1.627-.213 2.064-.64.438-.427.656-1.077.656-1.952v-.448a3.283 3.283 0 0 1-1.248.848 4.394 4.394 0 0 1-1.616.288c-.81 0-1.546-.17-2.208-.512a4.041 4.041 0 0 1-1.552-1.472c-.373-.63-.56-1.35-.56-2.16s.187-1.525.56-2.144a3.924 3.924 0 0 1 1.552-1.456c.662-.341 1.398-.512 2.208-.512.619 0 1.179.101 1.68.304.512.203.939.512 1.28.928v-1.136h1.904Zm-4.56 6.464c.758 0 1.376-.224 1.856-.672.491-.459.736-1.05.736-1.776 0-.715-.245-1.296-.736-1.744-.48-.448-1.098-.672-1.856-.672-.768 0-1.397.224-1.888.672-.48.448-.72 1.03-.72 1.744 0 .725.24 1.317.72 1.776.491.448 1.12.672 1.888.672Zm15.222-2.144c0 .139-.011.336-.032.592h-6.704c.117.63.421 1.13.912 1.504.501.363 1.12.544 1.856.544.938 0 1.712-.31 2.32-.928l1.072 1.232c-.384.459-.87.805-1.456 1.04-.587.235-1.248.352-1.984.352-.939 0-1.766-.187-2.48-.56A4.098 4.098 0 0 1 172.278 33c-.384-.672-.576-1.43-.576-2.272 0-.832.186-1.579.56-2.24a4.069 4.069 0 0 1 1.584-1.568c.672-.373 1.429-.56 2.272-.56.832 0 1.573.187 2.224.56.661.363 1.173.88 1.536 1.552.373.661.56 1.43.56 2.304Zm-4.32-2.816c-.64 0-1.184.192-1.632.576-.438.373-.704.875-.8 1.504h4.848c-.086-.619-.347-1.12-.784-1.504-.438-.384-.982-.576-1.632-.576Zm11.089-1.6c1.077 0 1.941.315 2.592.944.651.63.976 1.563.976 2.8V35h-2v-4.64c0-.747-.176-1.307-.528-1.68-.352-.384-.853-.576-1.504-.576-.736 0-1.317.224-1.744.672-.427.437-.64 1.072-.64 1.904V35h-2v-8.544h1.904v1.104a3.131 3.131 0 0 1 1.248-.896c.501-.203 1.067-.304 1.696-.304Zm14.215 4.416c0 .139-.011.336-.032.592h-6.704c.117.63.421 1.13.912 1.504.501.363 1.12.544 1.856.544.939 0 1.712-.31 2.32-.928l1.072 1.232a3.61 3.61 0 0 1-1.456 1.04c-.587.235-1.248.352-1.984.352-.939 0-1.765-.187-2.48-.56A4.104 4.104 0 0 1 193.262 33c-.384-.672-.576-1.43-.576-2.272 0-.832.187-1.579.56-2.24a4.069 4.069 0 0 1 1.584-1.568c.672-.373 1.429-.56 2.272-.56.832 0 1.573.187 2.224.56.661.363 1.173.88 1.536 1.552.373.661.56 1.43.56 2.304Zm-4.32-2.816c-.64 0-1.184.192-1.632.576-.437.373-.704.875-.8 1.504h4.848c-.085-.619-.347-1.12-.784-1.504-.437-.384-.981-.576-1.632-.576Zm8.145-.256c.576-.896 1.59-1.344 3.04-1.344v1.904a2.53 2.53 0 0 0-.464-.048c-.778 0-1.386.23-1.824.688-.437.448-.656 1.099-.656 1.952V35h-2v-8.544h1.904v1.248Zm16.741 5.536V35h-8.256v-1.392l4.448-4.224c.501-.48.837-.896 1.008-1.248a2.39 2.39 0 0 0 .272-1.072c0-.523-.176-.923-.528-1.2-.352-.277-.869-.416-1.552-.416-1.141 0-2.016.39-2.624 1.168l-1.456-1.12c.437-.587 1.024-1.04 1.76-1.36.747-.33 1.579-.496 2.496-.496 1.216 0 2.187.288 2.912.864.725.576 1.088 1.36 1.088 2.352 0 .608-.128 1.179-.384 1.712-.256.533-.747 1.141-1.472 1.824l-2.992 2.848h5.28Zm5.826 1.92c-.896 0-1.696-.224-2.4-.672-.704-.459-1.259-1.12-1.664-1.984-.406-.875-.608-1.91-.608-3.104 0-1.195.202-2.224.608-3.088.405-.875.96-1.536 1.664-1.984.704-.459 1.504-.688 2.4-.688.896 0 1.696.23 2.4.688.714.448 1.274 1.11 1.68 1.984.405.864.608 1.893.608 3.088s-.203 2.23-.608 3.104c-.406.864-.966 1.525-1.68 1.984-.704.448-1.504.672-2.4.672Zm0-1.808c.8 0 1.429-.33 1.888-.992.469-.661.704-1.648.704-2.96s-.235-2.299-.704-2.96c-.459-.661-1.088-.992-1.888-.992-.79 0-1.419.33-1.888.992-.459.661-.688 1.648-.688 2.96s.229 2.299.688 2.96c.469.661 1.098.992 1.888.992Zm14.127-.112V35h-8.256v-1.392l4.448-4.224c.501-.48.837-.896 1.008-1.248a2.39 2.39 0 0 0 .272-1.072c0-.523-.176-.923-.528-1.2-.352-.277-.869-.416-1.552-.416-1.141 0-2.016.39-2.624 1.168l-1.456-1.12c.437-.587 1.024-1.04 1.76-1.36.747-.33 1.579-.496 2.496-.496 1.216 0 2.187.288 2.912.864.725.576 1.088 1.36 1.088 2.352 0 .608-.128 1.179-.384 1.712-.256.533-.747 1.141-1.472 1.824l-2.992 2.848h5.28Zm5.969-4.816c1.034.128 1.824.48 2.368 1.056.544.576.816 1.296.816 2.16a3.31 3.31 0 0 1-.496 1.776c-.331.533-.832.96-1.504 1.28-.662.31-1.472.464-2.433.464a8.025 8.025 0 0 1-2.319-.336c-.736-.235-1.366-.555-1.888-.96l.896-1.616a4.67 4.67 0 0 0 1.472.816 5.772 5.772 0 0 0 1.808.288c.736 0 1.312-.15 1.728-.448.426-.31.64-.725.64-1.248s-.203-.928-.608-1.216c-.395-.299-1.003-.448-1.824-.448h-1.024v-1.424l2.544-3.024h-5.088V23.8h7.632v1.392l-2.72 3.232Z"/><rect width="98" height="43" x="150" y="417" fill="#EE7839" rx="21.5"/><path fill="#FDFDFD" d="m176.035 444-2.114-3.01a8.98 8.98 0 0 1-.616.028h-2.422V444h-1.4v-9.8h3.822c1.269 0 2.268.303 2.996.91.728.607 1.092 1.442 1.092 2.506 0 .756-.187 1.4-.56 1.932-.374.532-.906.919-1.596 1.162l2.324 3.29h-1.526Zm-2.772-4.172c.886 0 1.563-.191 2.03-.574.466-.383.7-.929.7-1.638 0-.709-.234-1.251-.7-1.624-.467-.383-1.144-.574-2.03-.574h-2.38v4.41h2.38Zm12.902.504c0 .103-.01.238-.028.406h-6.02c.084.653.368 1.181.854 1.582.494.392 1.106.588 1.834.588.886 0 1.6-.299 2.142-.896l.742.868a3.237 3.237 0 0 1-1.26.896 4.316 4.316 0 0 1-1.666.308c-.784 0-1.48-.159-2.086-.476a3.537 3.537 0 0 1-1.414-1.358c-.327-.579-.49-1.232-.49-1.96 0-.719.158-1.367.476-1.946a3.464 3.464 0 0 1 1.33-1.344c.569-.327 1.208-.49 1.918-.49.709 0 1.339.163 1.89.49.56.317.994.765 1.302 1.344.317.579.476 1.241.476 1.988Zm-3.668-2.688c-.644 0-1.186.196-1.624.588-.43.392-.682.905-.756 1.54h4.76c-.075-.625-.332-1.134-.77-1.526-.43-.401-.966-.602-1.61-.602Zm7.662 6.44c-.607 0-1.19-.079-1.75-.238-.56-.168-.999-.378-1.316-.63l.56-1.064c.327.233.723.42 1.19.56.467.14.938.21 1.414.21 1.176 0 1.764-.336 1.764-1.008a.652.652 0 0 0-.238-.532 1.437 1.437 0 0 0-.602-.28 10.731 10.731 0 0 0-1.008-.21 10.229 10.229 0 0 1-1.47-.322 2.264 2.264 0 0 1-.966-.616c-.271-.289-.406-.695-.406-1.218 0-.672.28-1.209.84-1.61.56-.411 1.311-.616 2.254-.616.495 0 .989.061 1.484.182s.901.285 1.218.49l-.574 1.064c-.607-.392-1.321-.588-2.142-.588-.569 0-1.003.093-1.302.28-.299.187-.448.434-.448.742 0 .243.084.434.252.574.168.14.373.243.616.308.252.065.602.14 1.05.224a10.26 10.26 0 0 1 1.442.336c.373.112.691.308.952.588.261.28.392.672.392 1.176 0 .672-.289 1.209-.868 1.61-.569.392-1.349.588-2.338.588Zm11.592-3.752c0 .103-.01.238-.028.406h-6.02c.084.653.368 1.181.854 1.582.494.392 1.106.588 1.834.588.886 0 1.6-.299 2.142-.896l.742.868a3.237 3.237 0 0 1-1.26.896 4.316 4.316 0 0 1-1.666.308c-.784 0-1.48-.159-2.086-.476a3.537 3.537 0 0 1-1.414-1.358c-.327-.579-.49-1.232-.49-1.96 0-.719.158-1.367.476-1.946a3.464 3.464 0 0 1 1.33-1.344c.569-.327 1.208-.49 1.918-.49.709 0 1.339.163 1.89.49.56.317.994.765 1.302 1.344.317.579.476 1.241.476 1.988Zm-3.668-2.688c-.644 0-1.186.196-1.624.588-.43.392-.682.905-.756 1.54h4.76c-.075-.625-.332-1.134-.77-1.526-.43-.401-.966-.602-1.61-.602Zm6.822.182a2.29 2.29 0 0 1 1.036-.98c.457-.224 1.012-.336 1.666-.336v1.302a2.712 2.712 0 0 0-.308-.014c-.728 0-1.302.219-1.722.658-.411.429-.616 1.045-.616 1.848V444h-1.344v-7.42h1.288v1.246Zm11.225-1.246-3.248 7.42h-1.372l-3.248-7.42h1.4l2.548 5.95 2.604-5.95h1.316Zm3.724-.07c1.027 0 1.811.252 2.352.756.551.504.826 1.255.826 2.254V444h-1.274v-.98a2.166 2.166 0 0 1-.966.798c-.411.177-.901.266-1.47.266-.831 0-1.498-.201-2.002-.602-.495-.401-.742-.929-.742-1.582s.238-1.176.714-1.568c.476-.401 1.232-.602 2.268-.602h2.128v-.266c0-.579-.168-1.022-.504-1.33-.336-.308-.831-.462-1.484-.462-.439 0-.868.075-1.288.224a3.21 3.21 0 0 0-1.064.574l-.56-1.008c.383-.308.84-.541 1.372-.7a5.595 5.595 0 0 1 1.694-.252Zm-.308 6.538c.513 0 .957-.112 1.33-.336a2 2 0 0 0 .812-.98v-1.036h-2.072c-1.139 0-1.708.383-1.708 1.148 0 .373.145.667.434.882.289.215.691.322 1.204.322Zm7.261-5.222a2.295 2.295 0 0 1 1.036-.98c.457-.224 1.013-.336 1.666-.336v1.302a2.7 2.7 0 0 0-.308-.014c-.728 0-1.302.219-1.722.658-.411.429-.616 1.045-.616 1.848V444h-1.344v-7.42h1.288v1.246Z"/><defs><filter id="a" width="398" height="577" x="0" y="0" color-interpolation-filters="sRGB" filterUnits="userSpaceOnUse"><feFlood flood-opacity="0" result="BackgroundImageFix"/><feColorMatrix in="SourceAlpha" result="hardAlpha" values="0 0 0 0 0 0 0 0 0 0 0 0 0 0 0 0 0 0 127 0"/><feOffset/><feGaussianBlur stdDeviation="2"/><feComposite in2="hardAlpha" operator="out"/><feColorMatrix values="0 0 0 0 0 0 0 0 0 0 0 0 0 0 0 0 0 0 0.15 0"/><feBlend in2="BackgroundImageFix" result="effect1_dropShadow_325_16134"/><feBlend in="SourceGraphic" in2="effect1_dropShadow_325_16134" result="shape"/></filter></defs></svg>