<svg xmlns="http://www.w3.org/2000/svg" width="413" height="462" fill="none" viewBox="0 0 413 462"><rect width="358" height="203" x="20" y="20" fill="#CDE4E6" rx="10"/><path fill="#5FA9AE" d="M20 30c0-5.523 4.477-10 10-10h338c5.523 0 10 4.477 10 10v37H20V30Z"/><path fill="#FDFDFD" d="M46.744 39.8 41.864 51h-2.048L34.92 39.8h2.256l3.728 8.64 3.76-8.64h2.08Zm4.19 11.312c-.865 0-1.643-.187-2.337-.56A4.155 4.155 0 0 1 46.965 49c-.384-.672-.576-1.43-.576-2.272 0-.843.192-1.595.576-2.256a4.155 4.155 0 0 1 1.632-1.552c.694-.373 1.472-.56 2.336-.56.875 0 1.659.187 2.352.56.694.373 1.232.89 1.616 1.552.395.661.592 1.413.592 2.256 0 .843-.197 1.6-.592 2.272a4.045 4.045 0 0 1-1.616 1.552c-.693.373-1.477.56-2.352.56Zm0-1.712c.735 0 1.343-.245 1.823-.736.48-.49.72-1.136.72-1.936s-.24-1.445-.72-1.936c-.48-.49-1.088-.736-1.824-.736s-1.344.245-1.824.736c-.47.49-.704 1.136-.704 1.936s.235 1.445.704 1.936c.48.49 1.088.736 1.824.736Zm6.472-10.272h2V51h-2V39.128Zm7.265 11.984a7.65 7.65 0 0 1-2.032-.272c-.662-.181-1.19-.41-1.584-.688l.768-1.52a5.11 5.11 0 0 0 1.376.624 6.03 6.03 0 0 0 1.6.224c1.194 0 1.792-.315 1.792-.944 0-.299-.155-.507-.464-.624-.299-.117-.784-.23-1.456-.336-.704-.107-1.28-.23-1.728-.368a2.736 2.736 0 0 1-1.152-.72c-.32-.352-.48-.837-.48-1.456 0-.81.336-1.456 1.008-1.936.682-.49 1.6-.736 2.752-.736.586 0 1.173.07 1.76.208.586.128 1.066.304 1.44.528l-.768 1.52c-.726-.427-1.542-.64-2.448-.64-.587 0-1.035.09-1.344.272-.299.17-.448.4-.448.688 0 .32.16.55.48.688.33.128.837.25 1.52.368.682.107 1.242.23 1.68.368.437.139.81.373 1.12.704.32.33.48.8.48 1.408 0 .8-.347 1.44-1.04 1.92-.694.48-1.638.72-2.832.72Zm13.936 0c-.885 0-1.68-.187-2.384-.56A4.13 4.13 0 0 1 74.575 49c-.395-.672-.592-1.43-.592-2.272 0-.843.197-1.595.592-2.256a4.157 4.157 0 0 1 1.632-1.552c.704-.373 1.504-.56 2.4-.56.843 0 1.579.17 2.208.512a3.31 3.31 0 0 1 1.44 1.472l-1.536.896a2.36 2.36 0 0 0-.928-.88 2.418 2.418 0 0 0-1.2-.304c-.747 0-1.365.245-1.856.736-.49.48-.736 1.125-.736 1.936 0 .81.24 1.461.72 1.952.49.48 1.115.72 1.872.72.437 0 .837-.096 1.2-.288.373-.203.683-.501.928-.896l1.536.896a3.499 3.499 0 0 1-1.456 1.488c-.63.341-1.36.512-2.192.512Zm8.64-8.752c1.26 0 2.22.304 2.88.912.673.597 1.009 1.504 1.009 2.72V51h-1.888v-1.04c-.246.373-.598.661-1.056.864-.448.192-.992.288-1.632.288-.64 0-1.2-.107-1.68-.32-.48-.224-.853-.528-1.12-.912a2.388 2.388 0 0 1-.384-1.328c0-.768.282-1.381.848-1.84.576-.47 1.477-.704 2.704-.704h2.208v-.128c0-.597-.181-1.056-.544-1.376-.352-.32-.88-.48-1.584-.48-.48 0-.955.075-1.424.224-.459.15-.848.357-1.168.624l-.784-1.456a4.848 4.848 0 0 1 1.616-.784 7.191 7.191 0 0 1 2-.272Zm-.271 7.296c.501 0 .944-.112 1.328-.336a1.9 1.9 0 0 0 .832-.992v-.992h-2.064c-1.152 0-1.728.379-1.728 1.136 0 .363.144.65.432.864.288.213.688.32 1.2.32ZM98.55 42.36c1.077 0 1.941.315 2.592.944.65.63.976 1.563.976 2.8V51h-2v-4.64c0-.747-.176-1.307-.528-1.68-.352-.384-.854-.576-1.504-.576-.736 0-1.318.224-1.744.672-.427.437-.64 1.072-.64 1.904V51h-2v-8.544h1.904v1.104c.33-.395.746-.693 1.248-.896.501-.203 1.066-.304 1.696-.304Zm10.103 8.752c-.885 0-1.68-.187-2.384-.56A4.131 4.131 0 0 1 104.622 49c-.395-.672-.592-1.43-.592-2.272 0-.843.197-1.595.592-2.256a4.16 4.16 0 0 1 1.632-1.552c.704-.373 1.504-.56 2.4-.56.843 0 1.579.17 2.208.512a3.31 3.31 0 0 1 1.44 1.472l-1.536.896a2.36 2.36 0 0 0-.928-.88 2.42 2.42 0 0 0-1.2-.304c-.747 0-1.365.245-1.856.736-.491.48-.736 1.125-.736 1.936 0 .81.24 1.461.72 1.952.491.48 1.115.72 1.872.72.437 0 .837-.096 1.2-.288.373-.203.683-.501.928-.896l1.536.896a3.5 3.5 0 0 1-1.456 1.488c-.629.341-1.36.512-2.192.512Zm13.284-4.336c0 .139-.011.336-.032.592h-6.704c.117.63.421 1.13.912 1.504.501.363 1.12.544 1.856.544.938 0 1.712-.31 2.32-.928l1.072 1.232c-.384.459-.87.805-1.456 1.04-.587.235-1.248.352-1.984.352-.939 0-1.766-.187-2.48-.56A4.098 4.098 0 0 1 113.778 49c-.384-.672-.576-1.43-.576-2.272 0-.832.186-1.579.56-2.24a4.069 4.069 0 0 1 1.584-1.568c.672-.373 1.429-.56 2.272-.56.832 0 1.573.187 2.224.56.661.363 1.173.88 1.536 1.552.373.661.56 1.43.56 2.304Zm-4.32-2.816c-.64 0-1.184.192-1.632.576-.438.373-.704.875-.8 1.504h4.848c-.086-.619-.347-1.12-.784-1.504-.438-.384-.982-.576-1.632-.576Zm6.241-4.832h2V51h-2V39.128Zm5.265 11.984c-.363 0-.672-.123-.928-.368a1.302 1.302 0 0 1-.384-.96c0-.395.123-.715.368-.96.256-.245.571-.368.944-.368s.683.123.928.368c.256.245.384.565.384.96 0 .384-.128.704-.384.96a1.292 1.292 0 0 1-.928.368Zm3.266-11.984h2V51h-2V39.128Zm7.889 3.232c1.259 0 2.219.304 2.88.912.672.597 1.008 1.504 1.008 2.72V51h-1.888v-1.04c-.245.373-.597.661-1.056.864-.448.192-.992.288-1.632.288-.64 0-1.2-.107-1.68-.32-.48-.224-.853-.528-1.12-.912a2.388 2.388 0 0 1-.384-1.328c0-.768.283-1.381.848-1.84.576-.47 1.477-.704 2.704-.704h2.208v-.128c0-.597-.181-1.056-.544-1.376-.352-.32-.88-.48-1.584-.48-.48 0-.955.075-1.424.224-.459.15-.848.357-1.168.624l-.784-1.456c.448-.341.987-.603 1.616-.784a7.19 7.19 0 0 1 2-.272Zm-.272 7.296c.501 0 .944-.112 1.328-.336.395-.235.672-.565.832-.992v-.992h-2.064c-1.152 0-1.728.379-1.728 1.136 0 .363.144.65.432.864.288.213.688.32 1.2.32Zm8.631-5.952c.576-.896 1.589-1.344 3.04-1.344v1.904a2.539 2.539 0 0 0-.464-.048c-.779 0-1.387.23-1.824.688-.437.448-.656 1.099-.656 1.952V51h-2v-8.544h1.904v1.248Zm9.237-4.576h2V51h-2V39.128Zm7.889 3.232c1.258 0 2.218.304 2.88.912.672.597 1.008 1.504 1.008 2.72V51h-1.888v-1.04c-.246.373-.598.661-1.056.864-.448.192-.992.288-1.632.288-.64 0-1.2-.107-1.68-.32-.48-.224-.854-.528-1.12-.912a2.388 2.388 0 0 1-.384-1.328c0-.768.282-1.381.848-1.84.576-.47 1.477-.704 2.704-.704h2.208v-.128c0-.597-.182-1.056-.544-1.376-.352-.32-.88-.48-1.584-.48-.48 0-.955.075-1.424.224-.459.15-.848.357-1.168.624l-.784-1.456a4.848 4.848 0 0 1 1.616-.784 7.19 7.19 0 0 1 2-.272Zm-.272 7.296c.501 0 .944-.112 1.328-.336.394-.235.672-.565.832-.992v-.992h-2.064c-1.152 0-1.728.379-1.728 1.136 0 .363.144.65.432.864.288.213.688.32 1.2.32Zm15.068 1.456c-.885 0-1.68-.187-2.384-.56A4.131 4.131 0 0 1 176.528 49c-.395-.672-.592-1.43-.592-2.272 0-.843.197-1.595.592-2.256a4.16 4.16 0 0 1 1.632-1.552c.704-.373 1.504-.56 2.4-.56.843 0 1.579.17 2.208.512a3.31 3.31 0 0 1 1.44 1.472l-1.536.896a2.36 2.36 0 0 0-.928-.88 2.42 2.42 0 0 0-1.2-.304c-.747 0-1.365.245-1.856.736-.491.48-.736 1.125-.736 1.936 0 .81.24 1.461.72 1.952.491.48 1.115.72 1.872.72.437 0 .837-.096 1.2-.288.373-.203.683-.501.928-.896l1.536.896a3.5 3.5 0 0 1-1.456 1.488c-.629.341-1.36.512-2.192.512Zm5.377-8.656h2V51h-2v-8.544Zm1.008-1.408a1.3 1.3 0 0 1-.912-.336 1.15 1.15 0 0 1-.368-.864 1.1 1.1 0 0 1 .368-.848c.245-.235.549-.352.912-.352a1.3 1.3 0 0 1 .912.336c.245.213.368.485.368.816 0 .352-.123.65-.368.896-.235.235-.539.352-.912.352Zm8.753 9.488a2.355 2.355 0 0 1-.864.432 3.774 3.774 0 0 1-1.056.144c-.939 0-1.664-.245-2.176-.736-.512-.49-.768-1.205-.768-2.144V44.12h-1.408v-1.6h1.408v-1.952h2v1.952h2.288v1.6h-2.288v4.064c0 .416.101.736.304.96.203.213.496.32.88.32.448 0 .821-.117 1.12-.352l.56 1.424Zm4.909-8.176c1.259 0 2.219.304 2.88.912.672.597 1.008 1.504 1.008 2.72V51h-1.888v-1.04c-.245.373-.597.661-1.056.864-.448.192-.992.288-1.632.288-.64 0-1.2-.107-1.68-.32-.48-.224-.853-.528-1.12-.912a2.388 2.388 0 0 1-.384-1.328c0-.768.283-1.381.848-1.84.576-.47 1.478-.704 2.704-.704h2.208v-.128c0-.597-.181-1.056-.544-1.376-.352-.32-.88-.48-1.584-.48-.48 0-.954.075-1.424.224-.458.15-.848.357-1.168.624l-.784-1.456c.448-.341.987-.603 1.616-.784a7.195 7.195 0 0 1 2-.272Zm-.272 7.296c.502 0 .944-.112 1.328-.336.395-.235.672-.565.832-.992v-.992h-2.064c-1.152 0-1.728.379-1.728 1.136 0 .363.144.65.432.864.288.213.688.32 1.2.32Zm8.248-2.368c0-.576.128-1.05.384-1.424.267-.384.651-.8 1.152-1.248.384-.341.667-.635.848-.88.192-.256.288-.544.288-.864 0-.448-.181-.81-.544-1.088-.362-.277-.848-.416-1.456-.416-1.152 0-2.021.41-2.608 1.232l-1.552-1.008a4.437 4.437 0 0 1 1.776-1.44c.726-.341 1.579-.512 2.56-.512 1.195 0 2.144.261 2.848.784.715.512 1.072 1.221 1.072 2.128 0 .437-.074.821-.224 1.152-.138.33-.309.613-.512.848-.202.224-.469.485-.8.784-.405.363-.709.683-.912.96a1.7 1.7 0 0 0-.288.992h-2.032Zm1.024 3.824c-.373 0-.682-.117-.928-.352a1.25 1.25 0 0 1-.352-.896c0-.352.118-.645.352-.88.246-.235.555-.352.928-.352.363 0 .662.117.896.352.246.235.368.528.368.88s-.122.65-.368.896c-.234.235-.533.352-.896.352Z"/><rect width="59" height="43" x="211" y="140" fill="#35B549" rx="21.5"/><path fill="#FDFDFD" d="M238.523 167.112a6.903 6.903 0 0 1-2.142-.336c-.681-.233-1.218-.532-1.61-.896l.518-1.092c.373.336.849.611 1.428.826a5.45 5.45 0 0 0 1.806.308c.812 0 1.419-.135 1.82-.406.401-.28.602-.649.602-1.106 0-.336-.112-.607-.336-.812a2.078 2.078 0 0 0-.812-.49c-.317-.112-.77-.238-1.358-.378a14.462 14.462 0 0 1-1.792-.532 3.051 3.051 0 0 1-1.162-.812c-.317-.373-.476-.873-.476-1.498 0-.523.135-.994.406-1.414.28-.42.7-.756 1.26-1.008s1.255-.378 2.086-.378c.579 0 1.148.075 1.708.224.56.149 1.041.364 1.442.644l-.462 1.12a4.92 4.92 0 0 0-1.316-.588 4.762 4.762 0 0 0-1.372-.21c-.793 0-1.391.145-1.792.434-.392.289-.588.663-.588 1.12 0 .336.112.611.336.826.224.205.499.369.826.49.336.112.789.233 1.358.364.737.177 1.33.355 1.778.532a2.93 2.93 0 0 1 1.148.812c.327.364.49.854.49 1.47 0 .513-.14.985-.42 1.414-.28.42-.705.756-1.274 1.008-.569.243-1.269.364-2.1.364Zm5.643-7.532h1.344V167h-1.344v-7.42Zm.672-1.428a.922.922 0 0 1-.658-.252.837.837 0 0 1-.252-.616c0-.243.084-.448.252-.616a.897.897 0 0 1 .658-.266c.262 0 .476.084.644.252a.77.77 0 0 1 .266.602.874.874 0 0 1-.266.644.871.871 0 0 1-.644.252Z"/><rect width="59" height="43" x="128" y="140" fill="#E3655D" rx="21.5"/><path fill="#FDFDFD" d="M157.274 157.2v9.8h-1.148l-5.88-7.308V167h-1.4v-9.8h1.148l5.88 7.308V157.2h1.4Zm5.915 9.884c-.737 0-1.4-.163-1.988-.49a3.624 3.624 0 0 1-1.386-1.344c-.327-.579-.49-1.232-.49-1.96s.163-1.377.49-1.946a3.486 3.486 0 0 1 1.386-1.344c.588-.327 1.251-.49 1.988-.49.737 0 1.395.163 1.974.49a3.394 3.394 0 0 1 1.372 1.344c.336.569.504 1.218.504 1.946s-.168 1.381-.504 1.96a3.525 3.525 0 0 1-1.372 1.344c-.579.327-1.237.49-1.974.49Zm0-1.176c.476 0 .901-.107 1.274-.322.383-.224.681-.532.896-.924a2.86 2.86 0 0 0 .322-1.372c0-.513-.107-.966-.322-1.358a2.255 2.255 0 0 0-.896-.924 2.505 2.505 0 0 0-1.274-.322c-.476 0-.905.107-1.288.322a2.379 2.379 0 0 0-.896.924c-.215.392-.322.845-.322 1.358 0 .513.107.971.322 1.372.224.392.523.7.896.924.383.215.812.322 1.288.322Z"/><rect width="358" height="203" x="20" y="237" fill="#CDE4E6" rx="10"/><path fill="#5FA9AE" d="M20 247c0-5.523 4.477-10 10-10h338c5.523 0 10 4.477 10 10v37H20v-37Z"/><path fill="#FDFDFD" d="M41.688 268.16c-1.13 0-2.155-.245-3.072-.736a5.61 5.61 0 0 1-2.144-2.064c-.512-.875-.768-1.861-.768-2.96s.261-2.085.784-2.96a5.5 5.5 0 0 1 2.144-2.048c.917-.501 1.941-.752 3.072-.752.917 0 1.755.16 2.512.48.757.32 1.397.784 1.92 1.392l-1.344 1.264c-.81-.875-1.808-1.312-2.992-1.312-.768 0-1.456.171-2.064.512a3.58 3.58 0 0 0-1.424 1.392c-.341.597-.512 1.275-.512 2.032 0 .757.17 1.435.512 2.032a3.686 3.686 0 0 0 1.424 1.408c.608.331 1.296.496 2.064.496 1.184 0 2.181-.443 2.992-1.328l1.344 1.28a5.097 5.097 0 0 1-1.936 1.392c-.757.32-1.595.48-2.512.48Zm6.249-8.704h2V268h-2v-8.544Zm1.008-1.408a1.3 1.3 0 0 1-.912-.336 1.15 1.15 0 0 1-.368-.864 1.1 1.1 0 0 1 .368-.848c.245-.235.55-.352.912-.352a1.3 1.3 0 0 1 .912.336c.245.213.368.485.368.816 0 .352-.123.651-.368.896-.235.235-.539.352-.912.352Zm8.753 9.488a2.35 2.35 0 0 1-.864.432 3.77 3.77 0 0 1-1.056.144c-.939 0-1.664-.245-2.176-.736-.512-.491-.768-1.205-.768-2.144v-4.112h-1.408v-1.6h1.408v-1.952h2v1.952h2.288v1.6h-2.288v4.064c0 .416.101.736.304.96.203.213.496.32.88.32.448 0 .821-.117 1.12-.352l.56 1.424Zm4.91-8.176c1.258 0 2.218.304 2.88.912.671.597 1.007 1.504 1.007 2.72V268h-1.888v-1.04c-.245.373-.597.661-1.056.864-.448.192-.992.288-1.632.288-.64 0-1.2-.107-1.68-.32-.48-.224-.853-.528-1.12-.912a2.388 2.388 0 0 1-.384-1.328c0-.768.283-1.381.848-1.84.576-.469 1.478-.704 2.704-.704h2.208v-.128c0-.597-.181-1.056-.544-1.376-.352-.32-.88-.48-1.584-.48-.48 0-.954.075-1.424.224a3.477 3.477 0 0 0-1.168.624l-.784-1.456a4.854 4.854 0 0 1 1.616-.784 7.202 7.202 0 0 1 2-.272Zm-.273 7.296c.502 0 .944-.112 1.328-.336a1.9 1.9 0 0 0 .832-.992v-.992h-2.064c-1.152 0-1.728.379-1.728 1.136 0 .363.144.651.432.864.288.213.688.32 1.2.32Zm15.069 1.456c-.885 0-1.68-.187-2.384-.56A4.129 4.129 0 0 1 73.372 266c-.395-.672-.592-1.429-.592-2.272 0-.843.197-1.595.592-2.256a4.155 4.155 0 0 1 1.632-1.552c.704-.373 1.504-.56 2.4-.56.843 0 1.579.171 2.208.512a3.31 3.31 0 0 1 1.44 1.472l-1.536.896a2.36 2.36 0 0 0-.928-.88 2.415 2.415 0 0 0-1.2-.304c-.747 0-1.366.245-1.856.736-.49.48-.736 1.125-.736 1.936 0 .811.24 1.461.72 1.952.49.48 1.114.72 1.872.72.437 0 .837-.096 1.2-.288.373-.203.683-.501.928-.896l1.536.896a3.499 3.499 0 0 1-1.456 1.488c-.63.341-1.36.512-2.192.512Zm8.64-8.752c1.26 0 2.22.304 2.88.912.673.597 1.009 1.504 1.009 2.72V268h-1.888v-1.04c-.246.373-.598.661-1.056.864-.448.192-.992.288-1.632.288-.64 0-1.2-.107-1.68-.32-.48-.224-.854-.528-1.12-.912a2.388 2.388 0 0 1-.384-1.328c0-.768.282-1.381.848-1.84.576-.469 1.477-.704 2.704-.704h2.208v-.128c0-.597-.182-1.056-.544-1.376-.352-.32-.88-.48-1.584-.48-.48 0-.955.075-1.424.224a3.477 3.477 0 0 0-1.168.624l-.784-1.456a4.854 4.854 0 0 1 1.616-.784 7.202 7.202 0 0 1 2-.272Zm-.271 7.296c.501 0 .944-.112 1.328-.336a1.9 1.9 0 0 0 .832-.992v-.992h-2.064c-1.152 0-1.728.379-1.728 1.136 0 .363.144.651.432.864.288.213.688.32 1.2.32Zm11.575-7.296c1.077 0 1.94.315 2.591.944.651.629.977 1.563.977 2.8V268h-2v-4.64c0-.747-.176-1.307-.528-1.68-.353-.384-.854-.576-1.505-.576-.736 0-1.317.224-1.743.672-.427.437-.64 1.072-.64 1.904V268h-2v-8.544h1.903v1.104a3.131 3.131 0 0 1 1.248-.896c.502-.203 1.067-.304 1.697-.304Zm10.103 8.752c-.886 0-1.68-.187-2.384-.56a4.125 4.125 0 0 1-1.648-1.552c-.395-.672-.592-1.429-.592-2.272 0-.843.197-1.595.592-2.256a4.147 4.147 0 0 1 1.632-1.552c.704-.373 1.504-.56 2.4-.56.842 0 1.578.171 2.208.512a3.31 3.31 0 0 1 1.44 1.472l-1.536.896a2.365 2.365 0 0 0-.928-.88 2.416 2.416 0 0 0-1.2-.304c-.747 0-1.366.245-1.856.736-.491.48-.736 1.125-.736 1.936 0 .811.24 1.461.72 1.952.49.48 1.114.72 1.872.72.437 0 .837-.096 1.2-.288.373-.203.682-.501.928-.896l1.536.896a3.5 3.5 0 0 1-1.456 1.488c-.63.341-1.36.512-2.192.512Zm13.284-4.336c0 .139-.011.336-.032.592h-6.704c.117.629.421 1.131.912 1.504.501.363 1.12.544 1.856.544.938 0 1.712-.309 2.32-.928l1.072 1.232c-.384.459-.87.805-1.456 1.04-.587.235-1.248.352-1.984.352-.939 0-1.766-.187-2.48-.56a4.098 4.098 0 0 1-1.664-1.552c-.384-.672-.576-1.429-.576-2.272 0-.832.186-1.579.56-2.24a4.067 4.067 0 0 1 1.584-1.568c.672-.373 1.429-.56 2.272-.56.832 0 1.573.187 2.224.56.661.363 1.173.88 1.536 1.552.373.661.56 1.429.56 2.304Zm-4.32-2.816c-.64 0-1.184.192-1.632.576-.438.373-.704.875-.8 1.504h4.848c-.086-.619-.347-1.12-.784-1.504-.438-.384-.982-.576-1.632-.576Zm6.241-4.832h2V268h-2v-11.872Zm5.265 11.984c-.363 0-.672-.123-.928-.368a1.302 1.302 0 0 1-.384-.96c0-.395.122-.715.368-.96.256-.245.57-.368.944-.368.373 0 .682.123.928.368.256.245.384.565.384.96 0 .384-.128.704-.384.96a1.295 1.295 0 0 1-.928.368Zm3.266-11.984h2V268h-2v-11.872Zm7.889 3.232c1.259 0 2.219.304 2.88.912.672.597 1.008 1.504 1.008 2.72V268h-1.888v-1.04c-.245.373-.597.661-1.056.864-.448.192-.992.288-1.632.288-.64 0-1.2-.107-1.68-.32-.48-.224-.853-.528-1.12-.912a2.388 2.388 0 0 1-.384-1.328c0-.768.283-1.381.848-1.84.576-.469 1.477-.704 2.704-.704h2.208v-.128c0-.597-.181-1.056-.544-1.376-.352-.32-.88-.48-1.584-.48-.48 0-.955.075-1.424.224a3.474 3.474 0 0 0-1.168.624l-.784-1.456c.448-.341.987-.603 1.616-.784a7.2 7.2 0 0 1 2-.272Zm-.272 7.296c.501 0 .944-.112 1.328-.336.395-.235.672-.565.832-.992v-.992H138.9c-1.152 0-1.728.379-1.728 1.136 0 .363.144.651.432.864.288.213.688.32 1.2.32Zm15.173-10.528V268h-1.92v-1.104a3.09 3.09 0 0 1-1.232.912 4.067 4.067 0 0 1-1.6.304c-.821 0-1.563-.181-2.224-.544a3.938 3.938 0 0 1-1.536-1.536c-.373-.672-.56-1.44-.56-2.304 0-.864.187-1.627.56-2.288a3.938 3.938 0 0 1 1.536-1.536c.661-.363 1.403-.544 2.224-.544.565 0 1.083.096 1.552.288.469.192.869.48 1.2.864v-4.384h2Zm-4.512 10.272c.48 0 .912-.107 1.296-.32a2.43 2.43 0 0 0 .912-.944c.224-.405.336-.875.336-1.408 0-.533-.112-1.003-.336-1.408a2.315 2.315 0 0 0-.912-.928 2.524 2.524 0 0 0-1.296-.336c-.48 0-.912.112-1.296.336a2.315 2.315 0 0 0-.912.928c-.224.405-.336.875-.336 1.408 0 .533.112 1.003.336 1.408.224.405.528.72.912.944.384.213.816.32 1.296.32Zm10.392-7.04c1.259 0 2.219.304 2.88.912.672.597 1.008 1.504 1.008 2.72V268h-1.888v-1.04c-.245.373-.597.661-1.056.864-.448.192-.992.288-1.632.288-.64 0-1.2-.107-1.68-.32-.48-.224-.853-.528-1.12-.912a2.388 2.388 0 0 1-.384-1.328c0-.768.283-1.381.848-1.84.576-.469 1.478-.704 2.704-.704h2.208v-.128c0-.597-.181-1.056-.544-1.376-.352-.32-.88-.48-1.584-.48-.48 0-.954.075-1.424.224a3.484 3.484 0 0 0-1.168.624l-.784-1.456c.448-.341.987-.603 1.616-.784a7.206 7.206 0 0 1 2-.272Zm-.272 7.296c.502 0 .944-.112 1.328-.336.395-.235.672-.565.832-.992v-.992h-2.064c-1.152 0-1.728.379-1.728 1.136 0 .363.144.651.432.864.288.213.688.32 1.2.32Zm14.413-7.296c1.259 0 2.219.304 2.88.912.672.597 1.008 1.504 1.008 2.72V268h-1.888v-1.04c-.245.373-.597.661-1.056.864-.448.192-.992.288-1.632.288-.64 0-1.2-.107-1.68-.32-.48-.224-.853-.528-1.12-.912a2.388 2.388 0 0 1-.384-1.328c0-.768.283-1.381.848-1.84.576-.469 1.477-.704 2.704-.704h2.208v-.128c0-.597-.181-1.056-.544-1.376-.352-.32-.88-.48-1.584-.48-.48 0-.955.075-1.424.224a3.474 3.474 0 0 0-1.168.624l-.784-1.456c.448-.341.987-.603 1.616-.784a7.2 7.2 0 0 1 2-.272Zm-.272 7.296c.501 0 .944-.112 1.328-.336.395-.235.672-.565.832-.992v-.992h-2.064c-1.152 0-1.728.379-1.728 1.136 0 .363.144.651.432.864.288.213.688.32 1.2.32Zm17.511-7.296c1.077 0 1.93.315 2.56.944.629.619.944 1.552.944 2.8V268h-2v-4.64c0-.747-.166-1.307-.496-1.68-.331-.384-.806-.576-1.424-.576-.672 0-1.211.224-1.616.672-.406.437-.608 1.067-.608 1.888V268h-2v-4.64c0-.747-.166-1.307-.496-1.68-.331-.384-.806-.576-1.424-.576-.683 0-1.227.219-1.632.656-.395.437-.592 1.072-.592 1.904V268h-2v-8.544h1.904v1.088c.32-.384.72-.677 1.2-.88a4.067 4.067 0 0 1 1.6-.304c.64 0 1.205.123 1.696.368a2.71 2.71 0 0 1 1.184 1.056 3.486 3.486 0 0 1 1.36-1.04 4.336 4.336 0 0 1 1.84-.384Zm10.795 0c.832 0 1.574.181 2.224.544a3.907 3.907 0 0 1 1.552 1.536c.374.661.56 1.424.56 2.288 0 .864-.186 1.632-.56 2.304a3.907 3.907 0 0 1-1.552 1.536c-.65.363-1.392.544-2.224.544a4.19 4.19 0 0 1-1.616-.304 3.115 3.115 0 0 1-1.216-.912V268h-1.904v-11.872h2v4.368a3.391 3.391 0 0 1 1.2-.848c.47-.192.982-.288 1.536-.288Zm-.224 7.04c.736 0 1.339-.245 1.808-.736.48-.491.72-1.136.72-1.936s-.24-1.445-.72-1.936c-.469-.491-1.072-.736-1.808-.736-.48 0-.912.112-1.296.336a2.315 2.315 0 0 0-.912.928c-.224.405-.336.875-.336 1.408 0 .533.112 1.003.336 1.408.224.405.528.72.912.944.384.213.816.32 1.296.32Zm18.911-2.624c0 .139-.011.336-.032.592h-6.704c.117.629.421 1.131.912 1.504.501.363 1.12.544 1.856.544.939 0 1.712-.309 2.32-.928l1.072 1.232a3.61 3.61 0 0 1-1.456 1.04c-.587.235-1.248.352-1.984.352-.939 0-1.765-.187-2.48-.56a4.104 4.104 0 0 1-1.664-1.552c-.384-.672-.576-1.429-.576-2.272 0-.832.187-1.579.56-2.24a4.067 4.067 0 0 1 1.584-1.568c.672-.373 1.429-.56 2.272-.56.832 0 1.573.187 2.224.56.661.363 1.173.88 1.536 1.552.373.661.56 1.429.56 2.304Zm-4.32-2.816c-.64 0-1.184.192-1.632.576-.437.373-.704.875-.8 1.504h4.848c-.085-.619-.347-1.12-.784-1.504-.437-.384-.981-.576-1.632-.576Zm-3.216-4.864h2.352l2.16 2.192h-1.728l-2.784-2.192ZM227.846 268l-2.192-2.96-2.208 2.96h-2.208l3.328-4.336-3.184-4.208h2.224l2.096 2.8 2.096-2.8h2.16l-3.2 4.176 3.344 4.368h-2.256Zm3.732-8.544h2V268h-2v-8.544Zm1.008-1.408a1.3 1.3 0 0 1-.912-.336 1.148 1.148 0 0 1-.368-.864c0-.341.122-.624.368-.848.245-.235.549-.352.912-.352.362 0 .666.112.912.336.245.213.368.485.368.816 0 .352-.123.651-.368.896-.235.235-.539.352-.912.352Zm8.753 9.488a2.355 2.355 0 0 1-.864.432 3.774 3.774 0 0 1-1.056.144c-.939 0-1.664-.245-2.176-.736-.512-.491-.768-1.205-.768-2.144v-4.112h-1.408v-1.6h1.408v-1.952h2v1.952h2.288v1.6h-2.288v4.064c0 .416.101.736.304.96.202.213.496.32.88.32.448 0 .821-.117 1.12-.352l.56 1.424Zm1.389-10.736h2.368l-.4 7.488h-1.584l-.384-7.488Zm1.184 11.312c-.373 0-.683-.117-.928-.352a1.22 1.22 0 0 1-.368-.896c0-.352.123-.645.368-.88s.555-.352.928-.352c.363 0 .661.117.896.352.245.235.368.528.368.88s-.123.651-.368.896c-.235.235-.533.352-.896.352Z"/><rect width="98" height="43" x="150" y="357" fill="#35B549" rx="21.5"/><path fill="#FDFDFD" d="M174.722 381.55h-5.208l-1.078 2.45h-1.442l4.438-9.8h1.386l4.452 9.8h-1.47l-1.078-2.45Zm-.49-1.12-2.114-4.802-2.114 4.802h4.228Zm7.469 3.654c-.756 0-1.432-.163-2.03-.49a3.624 3.624 0 0 1-1.386-1.344c-.336-.579-.504-1.232-.504-1.96s.168-1.377.504-1.946a3.486 3.486 0 0 1 1.386-1.344c.598-.327 1.274-.49 2.03-.49.672 0 1.27.135 1.792.406.532.271.943.663 1.232 1.176l-1.022.658a2.27 2.27 0 0 0-.868-.798 2.479 2.479 0 0 0-1.148-.266c-.485 0-.924.107-1.316.322a2.352 2.352 0 0 0-.91.924c-.214.392-.322.845-.322 1.358 0 .523.108.985.322 1.386.224.392.528.695.91.91.392.215.831.322 1.316.322.42 0 .803-.089 1.148-.266a2.27 2.27 0 0 0 .868-.798l1.022.644c-.289.513-.7.91-1.232 1.19-.522.271-1.12.406-1.792.406Zm7.889 0c-.756 0-1.433-.163-2.03-.49a3.624 3.624 0 0 1-1.386-1.344c-.336-.579-.504-1.232-.504-1.96s.168-1.377.504-1.946A3.486 3.486 0 0 1 187.56 377c.597-.327 1.274-.49 2.03-.49.672 0 1.269.135 1.792.406.532.271.943.663 1.232 1.176l-1.022.658a2.278 2.278 0 0 0-.868-.798 2.479 2.479 0 0 0-1.148-.266c-.485 0-.924.107-1.316.322a2.345 2.345 0 0 0-.91.924c-.215.392-.322.845-.322 1.358 0 .523.107.985.322 1.386.224.392.527.695.91.91.392.215.831.322 1.316.322.42 0 .803-.089 1.148-.266.345-.177.635-.443.868-.798l1.022.644c-.289.513-.7.91-1.232 1.19-.523.271-1.12.406-1.792.406Zm11.361-3.752c0 .103-.01.238-.028.406h-6.02c.084.653.368 1.181.854 1.582.494.392 1.106.588 1.834.588.886 0 1.6-.299 2.142-.896l.742.868a3.237 3.237 0 0 1-1.26.896 4.316 4.316 0 0 1-1.666.308c-.784 0-1.48-.159-2.086-.476a3.537 3.537 0 0 1-1.414-1.358c-.327-.579-.49-1.232-.49-1.96 0-.719.158-1.367.476-1.946a3.464 3.464 0 0 1 1.33-1.344c.569-.327 1.208-.49 1.918-.49.709 0 1.339.163 1.89.49.56.317.994.765 1.302 1.344.317.579.476 1.241.476 1.988Zm-3.668-2.688c-.644 0-1.186.196-1.624.588-.43.392-.682.905-.756 1.54h4.76c-.075-.625-.332-1.134-.77-1.526-.43-.401-.966-.602-1.61-.602Zm9.468-1.134c.719 0 1.363.159 1.932.476a3.376 3.376 0 0 1 1.33 1.33c.327.569.49 1.227.49 1.974 0 .747-.163 1.409-.49 1.988a3.376 3.376 0 0 1-1.33 1.33c-.569.317-1.213.476-1.932.476a3.49 3.49 0 0 1-1.47-.308 3.052 3.052 0 0 1-1.12-.896v3.836h-1.344V376.58h1.288v1.176a2.797 2.797 0 0 1 1.134-.924 3.507 3.507 0 0 1 1.512-.322Zm-.112 6.398c.476 0 .901-.107 1.274-.322.383-.224.681-.532.896-.924.224-.401.336-.859.336-1.372 0-.513-.112-.966-.336-1.358a2.255 2.255 0 0 0-.896-.924 2.505 2.505 0 0 0-1.274-.322c-.467 0-.891.112-1.274.336a2.403 2.403 0 0 0-.896.91c-.215.392-.322.845-.322 1.358 0 .513.107.971.322 1.372.215.392.513.7.896.924.383.215.807.322 1.274.322Zm9.893.658a2.086 2.086 0 0 1-.728.392 3.196 3.196 0 0 1-.896.126c-.747 0-1.325-.201-1.736-.602-.411-.401-.616-.975-.616-1.722v-4.074h-1.26v-1.106h1.26v-1.624h1.344v1.624h2.128v1.106H213.9v4.018c0 .401.098.709.294.924.205.215.495.322.868.322.411 0 .761-.117 1.05-.35l.42.966Zm4.327-7.056c1.026 0 1.81.252 2.352.756.55.504.826 1.255.826 2.254V384h-1.274v-.98a2.166 2.166 0 0 1-.966.798c-.411.177-.901.266-1.47.266-.831 0-1.498-.201-2.002-.602-.495-.401-.742-.929-.742-1.582s.238-1.176.714-1.568c.476-.401 1.232-.602 2.268-.602h2.128v-.266c0-.579-.168-1.022-.504-1.33-.336-.308-.831-.462-1.484-.462-.439 0-.868.075-1.288.224a3.21 3.21 0 0 0-1.064.574l-.56-1.008a3.97 3.97 0 0 1 1.372-.7 5.59 5.59 0 0 1 1.694-.252Zm-.308 6.538c.513 0 .956-.112 1.33-.336a2 2 0 0 0 .812-.98v-1.036h-2.072c-1.139 0-1.708.383-1.708 1.148 0 .373.144.667.434.882.289.215.69.322 1.204.322Zm7.261-5.222a2.295 2.295 0 0 1 1.036-.98c.457-.224 1.013-.336 1.666-.336v1.302a2.7 2.7 0 0 0-.308-.014c-.728 0-1.302.219-1.722.658-.411.429-.616 1.045-.616 1.848V384h-1.344v-7.42h1.288v1.246Z"/><rect width="412" height="461" x="0.5" y="0.5" stroke="#9747FF" stroke-dasharray="10 5" rx="4.5"/></svg>