<svg xmlns="http://www.w3.org/2000/svg" xml:space="preserve" id="Capa_1" x="0px" y="0px" style="enable-background:new 0 0 266.4 115" version="1.1" viewBox="0 0 266.4 115"><style>.st0{fill:#fc441e}</style><path d="M253.8 4.4c-3.7 2.9-7.1 7.1-9.9 12.5-2.8 5.3-5.1 11.7-6.6 18.6-1.5 7-2.3 14.5-2.3 22s.8 15 2.3 22c1.5 7 3.8 13.3 6.6 18.7 2.8 5.3 6.2 9.6 9.9 12.5 3.7 2.9 7.7 4.4 11.7 4.4V0c-4 0-8 1.5-11.7 4.4zM218 0c-5.2 0-10.5 1.5-15.3 4.4-4.8 2.9-9.3 7.1-13 12.5-3.7 5.3-6.7 11.7-8.7 18.6-2 7-3 14.5-3 22s1 15 3 22 5 13.3 8.7 18.7c3.7 5.3 8.1 9.6 13 12.5 4.9 2.9 10 4.4 15.3 4.4h17V0h-17z" class="st0"/><path d="M152 0c-6.7 0-13.3 1.5-19.5 4.4s-11.8 7.1-16.5 12.5c-4.7 5.3-8.5 11.7-11.1 18.6-1.3 3.5-2.2 7-2.9 10.7V0H61v.1c-7.4.3-14.7 1.8-21.5 4.3-7.8 2.9-14.8 7.1-20.8 12.5-5.9 5.3-10.6 11.6-13.8 18.6C1.7 42.5 0 50 0 57.5s1.7 15 4.9 22 7.9 13.3 13.9 18.7c5.9 5.3 13 9.6 20.8 12.5 6.8 2.5 14.1 4 21.5 4.3v.1h41V68.8c.6 3.7 1.6 7.2 2.9 10.7 2.6 7 6.3 13.3 11.1 18.7 4.7 5.3 10.4 9.6 16.5 12.5 6.2 2.9 12.8 4.4 19.5 4.4h26V0H152z" class="st0"/></svg>