<svg xmlns="http://www.w3.org/2000/svg" xml:space="preserve" x="0px" y="0px" style="enable-background:new 0 0 266 94.4" viewBox="0 0 266 94.4"><path d="M115.2 31.9H0v16.4c0 6 .7 12 2.2 17.6 1.5 5.6 3.6 10.7 6.2 15 2.7 4.3 5.8 7.7 9.3 10s7.2 3.5 11 3.5 7.5-1.2 11-3.5 6.7-5.7 9.3-10c2.7-4.3 4.8-9.4 6.2-15 1.4-5.6 2.2-11.6 2.2-17.6 0 6 .7 12 2.2 17.6 1.4 5.6 3.6 10.7 6.2 15 2.7 4.3 5.8 7.7 9.3 10s7.2 3.5 11 3.5 7.5-1.2 11-3.5 6.7-5.7 9.3-10c2.7-4.3 4.8-9.4 6.2-15 1.4-5.6 2.2-11.6 2.2-17.6h.2V31.9zM0 .4h266v28H0zm266 31.5c0 8.2-1.8 16.3-5.4 23.9-3.5 7.6-8.7 14.5-15.3 20.3-6.6 5.8-14.3 10.4-22.9 13.6-8.6 3.1-17.7 4.8-27 4.8s-18.4-1.6-27-4.8c-8.6-3.1-16.3-7.7-22.9-13.6-6.6-5.8-11.7-12.7-15.3-20.3-3.5-7.6-5.4-15.7-5.4-23.9h47.6c0 2.7.6 5.3 1.7 7.8s2.8 4.7 5 6.6c2.1 1.9 4.6 3.4 7.4 4.4 2.8 1 5.8 1.5 8.8 1.5s6-.5 8.8-1.5 5.3-2.5 7.4-4.4c2.1-1.9 3.8-4.1 5-6.6 1.1-2.5 1.7-5.1 1.7-7.8H266z" style="fill:#fc441e"/></svg>