<svg xmlns="http://www.w3.org/2000/svg" xml:space="preserve" x="0px" y="0px" style="enable-background:new 0 0 181 398" viewBox="0 0 181 398"><path d="M74.4.2C64.6.2 55 1.3 46 3.5c-9 2.2-17.2 5.3-24.1 9.3-6.9 4-12.3 8.7-16.1 14C2.1 32 .2 37.6.2 43.3c0 5.7 1.9 11.2 5.7 16.5 3.7 5.2 9.2 10 16.1 14 6.9 4 15.1 7.2 24.1 9.3 9 2.2 18.6 3.3 28.3 3.3-9.7 0-19.3 1.1-28.3 3.3-9 2.2-17.2 5.3-24.1 9.3-6.9 4-12.3 8.7-16.1 14-3.7 5.2-5.6 10.8-5.6 16.5 0 5.7 1.9 11.2 5.7 16.5 3.7 5.2 9.2 10 16.1 14 6.9 4 15.1 7.2 24.1 9.3 9 2.2 18.6 3.3 28.3 3.3v.3h26.3V.2H74.4zM117 0h61v398h-61zm-16.5 398c-13.2 0-26.3-2.7-38.5-8.1s-23.3-13.1-32.6-23-16.7-21.5-21.8-34.4S0 305.9 0 292s2.6-27.7 7.7-40.6c5.1-12.9 12.5-24.6 21.8-34.4s20.4-17.6 32.6-23 25.3-8.1 38.5-8.1v71.6c-4.3 0-8.5.9-12.5 2.6-4 1.7-7.6 4.3-10.6 7.5s-5.4 7-7.1 11.2c-1.6 4.2-2.5 8.6-2.5 13.2s.8 9 2.5 13.2c1.6 4.2 4 8 7.1 11.2 3 3.2 6.6 5.7 10.6 7.5 4 1.7 8.2 2.6 12.5 2.6V398z" style="fill:#fc441e"/></svg>