<svg xmlns="http://www.w3.org/2000/svg" xml:space="preserve" id="Capa_1" x="0px" y="0px" style="enable-background:new 0 0 164 118" version="1.1" viewBox="0 0 164 118"><style>.st0{fill:#fc441e}</style><path d="M.5 59C.5 26.4 26.4-.1 58.4-.1h105V59c0 32.6-25.9 59.1-57.9 59.1H.5V59z" class="st0"/><ellipse cx="82.5" cy="58.2" rx="88.3" ry="43.9" style="fill:#f5f4f2" transform="rotate(-28.228 82.466 58.214)"/><path d="M98.2 38.5H66.9c-1.8 0-3.5.7-4.8 1.9-1.3 1.2-2 2.9-2 4.7v17.7c0 1.8.7 3.4 2 4.7 1.3 1.3 3 1.9 4.8 1.9h13.4v4.4h-9c-.6 0-1.2.2-1.6.6-.4.4-.7 1-.7 1.6s.2 1.1.7 1.6c.4.4 1 .6 1.6.6h22.4c.6 0 1.2-.2 1.6-.6.4-.4.7-1 .7-1.6s-.2-1.1-.7-1.6c-.4-.4-1-.6-1.6-.6h-9v-4.4h13.4c1.8 0 3.5-.7 4.8-1.9 1.3-1.2 2-2.9 2-4.7V45.2c0-1.8-.7-3.4-2-4.7-1.2-1.3-2.9-2-4.7-2zm2.3 24.3c0 .6-.2 1.1-.7 1.6-.4.4-1 .6-1.6.6H66.9c-.6 0-1.2-.2-1.6-.6-.4-.4-.7-1-.7-1.6V45.2c0-.6.2-1.1.7-1.6.4-.4 1-.6 1.6-.6h31.3c.6 0 1.2.2 1.6.6s.7 1 .7 1.6v17.6z" class="st0"/></svg>