<svg xmlns="http://www.w3.org/2000/svg" xml:space="preserve" id="Capa_1" x="0px" y="0px" style="enable-background:new 0 0 164 118" version="1.1" viewBox="0 0 164 118"><style>.st0{fill:#fc441e}</style><path d="M.6 59C.6 26.6 26.9.3 59.3.3h104V59c0 32.4-26.3 58.7-58.7 58.7H.6V59z" class="st0"/><ellipse cx="81.8" cy="58.2" rx="88.7" ry="43.8" style="fill:#f5f4f2" transform="rotate(-27.748 81.822 58.218)"/><path d="M81.4 38.7c-3.5 0-7 1.5-9.5 4.1-2.5 2.6-3.9 6.1-3.9 9.8v11.9c0 3.7 1.4 7.2 3.9 9.8 2.5 2.6 5.9 4.1 9.5 4.1 3.5 0 7-1.5 9.5-4.1 2.5-2.6 3.9-6.1 3.9-9.8v-12c0-3.7-1.4-7.2-3.9-9.8-2.5-2.6-5.9-4-9.5-4zm-9.5 13.8c0-2.3.8-4.5 2.2-6.3 1.4-1.8 3.3-3 5.5-3.4v11.7H72c-.1 0-.1-2-.1-2zM91 64.3c0 2.6-1 5.1-2.8 7s-4.2 2.9-6.8 2.9c-2.5 0-5-1-6.8-2.9-1.8-1.8-2.8-4.4-2.8-7v-5.9H91v5.9zm0-9.8h-7.6V42.8c2.2.5 4.1 1.7 5.5 3.4 1.4 1.8 2.2 4 2.2 6.3-.1 0-.1 2-.1 2z" class="st0"/></svg>