<svg xmlns="http://www.w3.org/2000/svg" width="44" height="44" fill="none" viewBox="0 0 44 44"><circle cx="22" cy="22" r="22" fill="#FC441E"/><path fill="#F5F4F2" d="M12 18.876c0-2.407 0-3.61.518-4.53.455-.808 1.182-1.466 2.075-1.878C15.61 12 16.94 12 19.6 12h5.8c2.66 0 3.99 0 5.007.468.893.412 1.62 1.07 2.075 1.879.518.919.518 2.122.518 4.53v5.247c0 2.407 0 3.61-.518 4.53-.455.808-1.182 1.466-2.075 1.878C29.39 31 28.06 31 25.4 31h-5.8c-2.66 0-3.99 0-5.007-.468-.893-.412-1.62-1.07-2.075-1.878C12 27.733 12 26.53 12 24.123v-5.248Z"/><path fill="#FC441E" d="M20.842 23.918h-3.254l-.662 1.913a.166.166 0 0 1-.17.117h-1.648c-.094 0-.127-.048-.098-.144l2.817-7.498c.028-.079.057-.155.085-.256.037-.174.056-.351.056-.53-.008-.052.042-.098.099-.09h2.24c.065 0 .103.021.112.065l3.198 8.322c.028.088 0 .131-.084.131H21.7a.13.13 0 0 1-.14-.091l-.719-1.939Zm-2.747-1.612h2.226c-.366-1.13-.779-2.246-1.113-3.386-.38 1.182-.73 2.278-1.113 3.386Zm7.901.874c.13.97 1.03 1.434 2.028 1.414.563-.01 1.164-.089 1.69-.281.047-.035.07-.014.07.065v1.242a.164.164 0 0 1-.084.157c-.653.268-1.404.35-2.113.339-2.113 0-3.564-1.347-3.564-3.307-.005-1.858 1.327-3.425 3.395-3.425 1.754-.041 2.968 1.23 2.973 2.81 0 .288-.018.577-.056.863a.127.127 0 0 1-.127.105c-1.4 0-2.808.018-4.212.018Zm0-1.19c.78 0 1.565.024 2.345-.007.117-.011.204-.031.204-.142-.016-.586-.563-1.068-1.197-1.046-.767-.043-1.257.543-1.352 1.194Z"/></svg>