<svg xmlns="http://www.w3.org/2000/svg" width="64" height="248" fill="none" viewBox="0 0 64 248"><path fill="#2A2A2A" d="M35 22.5h-6a6.508 6.508 0 0 0-6.5 6.5v6c0 3.584 2.916 6.5 6.5 6.5h6c3.584 0 6.5-2.916 6.5-6.5v-6c0-3.584-2.916-6.5-6.5-6.5ZM40.5 35c0 3.033-2.467 5.5-5.5 5.5h-6a5.506 5.506 0 0 1-5.5-5.5v-6c0-3.033 2.467-5.5 5.5-5.5h6c3.033 0 5.5 2.467 5.5 5.5v6Zm-4-3a.5.5 0 0 1-.5.5h-3.5V36a.5.5 0 0 1-1 0v-3.5H28a.5.5 0 0 1 0-1h3.5V28a.5.5 0 0 1 1 0v3.5H36a.5.5 0 0 1 .5.5ZM35 68.5h-6c-3.58 0-6.5 2.92-6.5 6.5v6c0 3.58 2.92 6.5 6.5 6.5h6c3.58 0 6.5-2.92 6.5-6.5v-6c0-3.58-2.92-6.5-6.5-6.5ZM36 79h-3v3c0 .55-.45 1-1 1s-1-.45-1-1v-3h-3c-.55 0-1-.45-1-1s.45-1 1-1h3v-3c0-.55.45-1 1-1s1 .45 1 1v3h3c.55 0 1 .45 1 1s-.45 1-1 1Z"/><path fill="#A6A6A6" d="M35 114.5h-6c-3.58 0-6.5 2.92-6.5 6.5v6c0 3.58 2.92 6.5 6.5 6.5h6c3.58 0 6.5-2.92 6.5-6.5v-6c0-3.58-2.92-6.5-6.5-6.5Zm1 10.5h-3v3c0 .55-.45 1-1 1s-1-.45-1-1v-3h-3c-.55 0-1-.45-1-1s.45-1 1-1h3v-3c0-.55.45-1 1-1s1 .45 1 1v3h3c.55 0 1 .45 1 1s-.45 1-1 1Z"/><path fill="#EE7839" d="M35 160.5h-6c-3.58 0-6.5 2.92-6.5 6.5v6c0 3.58 2.92 6.5 6.5 6.5h6c3.58 0 6.5-2.92 6.5-6.5v-6c0-3.58-2.92-6.5-6.5-6.5Zm1 10.5h-3v3c0 .55-.45 1-1 1s-1-.45-1-1v-3h-3c-.55 0-1-.45-1-1s.45-1 1-1h3v-3c0-.55.45-1 1-1s1 .45 1 1v3h3c.55 0 1 .45 1 1s-.45 1-1 1Z"/><path fill="#83BCC0" d="M35 206.5h-6c-3.58 0-6.5 2.92-6.5 6.5v6c0 3.58 2.92 6.5 6.5 6.5h6c3.58 0 6.5-2.92 6.5-6.5v-6c0-3.58-2.92-6.5-6.5-6.5Zm1 10.5h-3v3c0 .55-.45 1-1 1s-1-.45-1-1v-3h-3c-.55 0-1-.45-1-1s.45-1 1-1h3v-3c0-.55.45-1 1-1s1 .45 1 1v3h3c.55 0 1 .45 1 1s-.45 1-1 1Z"/><rect width="63" height="247" x="0.5" y="0.5" stroke="#9747FF" stroke-dasharray="10 5" rx="4.5"/></svg>