<svg xmlns="http://www.w3.org/2000/svg" width="75" height="245" fill="none" viewBox="0 0 75 245"><path fill="#2A2A2A" d="M46.94 37.144a3.288 3.288 0 0 0-.075-.333c-.15-.533-.615-.938-1.186-1.033l-4.332-.72a1.503 1.503 0 0 0-1.433.548 3.97 3.97 0 0 0-.144.197c-.162.237-.432.326-.671.222a9.857 9.857 0 0 1-5.126-5.127c-.104-.239-.017-.507.218-.667a3.97 3.97 0 0 0 .26-.193 1.51 1.51 0 0 0 .54-1.41l-.67-4.256a1.489 1.489 0 0 0-1-1.19 3.589 3.589 0 0 0-.473-.12 4.035 4.035 0 0 0-3.35.93 4.283 4.283 0 0 0-1.496 3.375c.215 7.988 6.642 14.415 14.63 14.631l.116.001c1.244 0 2.42-.539 3.242-1.49a4.068 4.068 0 0 0 .95-3.365Zm-1.708 2.714c-.65.752-1.583 1.18-2.574 1.142C35.2 40.8 29.2 34.8 29 27.342a3.284 3.284 0 0 1 1.15-2.589 3.057 3.057 0 0 1 1.994-.75 2.923 2.923 0 0 1 .86.13.493.493 0 0 1 .328.397l.67 4.255a.514.514 0 0 1-.181.477 2.497 2.497 0 0 1-.194.144c-.634.431-.87 1.21-.572 1.892a10.854 10.854 0 0 0 5.645 5.646c.682.295 1.46.061 1.896-.576a2.75 2.75 0 0 1 .105-.143.501.501 0 0 1 .48-.18l4.333.72c.19.032.342.156.387.316a3.066 3.066 0 0 1-.669 2.777Zm1.708 42.286a3.288 3.288 0 0 0-.075-.333c-.15-.533-.615-.938-1.186-1.033l-4.332-.721a1.503 1.503 0 0 0-1.433.549 3.97 3.97 0 0 0-.144.197c-.162.237-.432.326-.671.222a9.857 9.857 0 0 1-5.126-5.127c-.104-.24-.017-.507.218-.667.089-.061.175-.125.26-.193.418-.338.625-.878.54-1.411l-.67-4.255a1.489 1.489 0 0 0-1-1.191 3.589 3.589 0 0 0-.473-.12 4.035 4.035 0 0 0-3.35.93 4.283 4.283 0 0 0-1.496 3.376c.215 7.988 6.642 14.415 14.63 14.63a4.274 4.274 0 0 0 3.358-1.489 4.068 4.068 0 0 0 .95-3.364Z"/><path fill="#A6A6A6" d="M46.94 127.143a3.288 3.288 0 0 0-.075-.333c-.15-.533-.615-.938-1.186-1.033l-4.332-.721a1.503 1.503 0 0 0-1.433.549 3.97 3.97 0 0 0-.144.197c-.162.237-.432.326-.671.222a9.857 9.857 0 0 1-5.126-5.127c-.104-.239-.017-.507.218-.667.089-.061.175-.125.26-.193.418-.338.625-.878.54-1.411l-.67-4.255a1.489 1.489 0 0 0-1-1.191 3.589 3.589 0 0 0-.473-.119 4.035 4.035 0 0 0-3.35.93 4.283 4.283 0 0 0-1.496 3.375c.215 7.988 6.642 14.415 14.63 14.631l.116.001c1.244 0 2.42-.539 3.242-1.49a4.068 4.068 0 0 0 .95-3.365Z"/><path fill="#EE7839" d="M46.94 172.142a3.288 3.288 0 0 0-.075-.333c-.15-.533-.615-.938-1.186-1.033l-4.332-.721a1.503 1.503 0 0 0-1.433.549 3.97 3.97 0 0 0-.144.197c-.162.237-.432.326-.671.222a9.857 9.857 0 0 1-5.126-5.127c-.104-.239-.017-.507.218-.667.089-.061.175-.125.26-.193.418-.338.625-.878.54-1.411l-.67-4.255a1.489 1.489 0 0 0-1-1.191 3.589 3.589 0 0 0-.473-.119 4.035 4.035 0 0 0-3.35.93 4.283 4.283 0 0 0-1.496 3.375c.215 7.988 6.642 14.415 14.63 14.631l.116.001c1.244 0 2.42-.539 3.242-1.49a4.068 4.068 0 0 0 .95-3.365Z"/><path fill="#83BCC0" d="M46.94 217.142a3.288 3.288 0 0 0-.075-.333c-.15-.533-.615-.938-1.186-1.033l-4.332-.721a1.503 1.503 0 0 0-1.433.549 3.97 3.97 0 0 0-.144.197c-.162.237-.432.326-.671.222a9.857 9.857 0 0 1-5.126-5.127c-.104-.239-.017-.507.218-.667.089-.061.175-.125.26-.193.418-.338.625-.878.54-1.411l-.67-4.255a1.489 1.489 0 0 0-1-1.191 3.589 3.589 0 0 0-.473-.119 4.035 4.035 0 0 0-3.35.93 4.283 4.283 0 0 0-1.496 3.375c.215 7.988 6.642 14.415 14.63 14.631l.116.001c1.244 0 2.42-.539 3.242-1.49a4.068 4.068 0 0 0 .95-3.365Z"/><rect width="73.998" height="243.997" x="0.5" y="0.5" stroke="#9747FF" stroke-dasharray="10 5" rx="4.5"/></svg>