<svg xmlns="http://www.w3.org/2000/svg" width="44" height="44" fill="none" viewBox="0 0 44 44"><circle cx="22" cy="22" r="22" fill="#FC441E"/><path fill="#F5F4F2" fill-rule="evenodd" d="M21.5 22c0-1.841 1.455-3.333 3.25-3.333S28 20.159 28 22c0 1.84-1.455 3.333-3.25 3.333S21.5 23.841 21.5 22ZM15 28.667c0-1.841 1.455-3.334 3.25-3.334h3.25v3.334c0 1.84-1.455 3.333-3.25 3.333S15 30.508 15 28.667ZM21.5 12v6.667h3.25c1.795 0 3.25-1.493 3.25-3.334C28 13.493 26.545 12 24.75 12H21.5ZM15 15.333c0 1.841 1.455 3.334 3.25 3.334h3.25V12h-3.25C16.455 12 15 13.492 15 15.333Z" clip-rule="evenodd"/><path fill="#F5F4F2" fill-rule="evenodd" d="M15 22c0 1.84 1.455 3.333 3.25 3.333h3.25v-6.666h-3.25C16.455 18.667 15 20.159 15 22Z" clip-rule="evenodd"/><path stroke="#FC441E" stroke-width="0.25" d="M21.375 12.125v6.417H18.25c-1.723 0-3.125-1.434-3.125-3.209 0-1.775 1.402-3.208 3.125-3.208h3.125Zm-3.125 6.667h3.125v6.416H18.25c-1.723 0-3.125-1.433-3.125-3.208 0-1.775 1.402-3.208 3.125-3.208ZM21.625 22c0-1.775 1.402-3.208 3.125-3.208s3.125 1.433 3.125 3.208c0 1.775-1.402 3.208-3.125 3.208S21.625 23.775 21.625 22Zm-3.375 3.458h3.125v3.209c0 1.775-1.402 3.208-3.125 3.208s-3.125-1.433-3.125-3.208c0-1.775 1.402-3.209 3.125-3.209Zm3.375-6.916v-6.417h3.125c1.723 0 3.125 1.433 3.125 3.208 0 1.775-1.402 3.209-3.125 3.209h-3.125Z"/></svg>