<svg xmlns="http://www.w3.org/2000/svg" width="44" height="44" fill="none" viewBox="0 0 44 44"><circle cx="22" cy="22" r="22" fill="#FC441E"/><path fill="#F5F4F2" d="M13 18.876c0-2.407 0-3.61.468-4.53a4.298 4.298 0 0 1 1.879-1.878C16.265 12 17.468 12 19.877 12h5.247c2.407 0 3.61 0 4.53.468a4.298 4.298 0 0 1 1.878 1.879c.468.919.468 2.122.468 4.53v5.247c0 2.407 0 3.61-.468 4.53a4.298 4.298 0 0 1-1.878 1.878c-.92.468-2.123.468-4.53.468h-5.248c-2.407 0-3.61 0-4.53-.468a4.298 4.298 0 0 1-1.878-1.878C13 27.733 13 26.53 13 24.123v-5.248Z"/><path fill="#FC441E" d="M17.071 25.922v-8.355c0-.057.024-.09.08-.09.818 0 1.635-.048 2.454-.048 1.328 0 2.765.454 3.27 1.843.118.34.181.69.181 1.055 0 .699-.158 1.275-.475 1.73-.884 1.27-2.417 1.25-3.792 1.25v2.607c.011.077-.055.113-.118.113h-1.505c-.063 0-.095-.032-.095-.105Zm1.726-6.878v2.729c.545.04 1.115.044 1.639-.13.578-.167.895-.667.895-1.267.016-.51-.263-1.001-.737-1.186-.517-.215-1.238-.227-1.797-.146Zm9.197 2.19a2.932 2.932 0 0 0-.758-.275c-.34-.08-1.676-.359-1.676.34.012.39.631.581.905.693.96.33 2.048.92 2.026 2.104.03 1.476-1.4 2.066-2.625 2.066-.638.007-1.303-.092-1.887-.366a.173.173 0 0 1-.089-.157v-1.412c-.006-.056.054-.106.102-.065.572.346 1.25.514 1.912.523.292 0 .87-.029.867-.458 0-.412-.693-.601-.97-.706a4.62 4.62 0 0 1-1.127-.588 1.835 1.835 0 0 1-.784-1.516c-.003-1.39 1.313-2.013 2.498-2.014.554-.004 1.15.037 1.665.262.074.022.09.1.09.17v1.32c.004.082-.087.11-.149.079Z"/></svg>