<svg xmlns="http://www.w3.org/2000/svg" xml:space="preserve" x="0px" y="0px" style="enable-background:new 0 0 44 44" viewBox="0 0 44 44"><path d="M1 43V1h42v42h-.1c-.1-.1-.1 0-.2 0H1zm28.1-27.3h-.2c-.2 0-.4.1-.6.2-.5.2-1.1.4-1.6.7-.7.4-1.3.8-1.8 1.4-.3.3-.6.7-.9 1.1v.1h-.1s-.1 0-.1-.1v-2.8c0-.2-.1-.2-.3-.3h-6.3c-.2 0-.3.1-.3.3v22.4c0 .2.1.2.3.3h6.5c.2 0 .3-.1.3-.3V27c0-.7.1-1.3.2-1.9.1-.6.3-1.1.6-1.6.1-.2.2-.3.3-.5l.3-.3.3-.3c.2-.2.4-.3.7-.4.4-.2.7-.3 1.1-.3h1.4c.2 0 .4.1.6.1.3.1.6.2.8.4.4.4.8.8 1 1.3.3.7.4 1.5.5 2.3v12.6c0 .2.1.4.4.4h6.5c.3 0 .4-.1.4-.4V25c0-.5 0-1.1-.1-1.6v-.1c0-.2 0-.4-.1-.5-.1-.5-.1-.9-.2-1.4v-.3c-.1-.2-.1-.4-.1-.5 0-.1-.1-.3-.1-.4-.1-.2-.2-.5-.3-.7-.1-.2-.1-.3-.2-.5l-.3-.6c-.3-.4-.5-.8-.9-1.1l-.5-.5c-.3-.3-.7-.5-1.1-.7-.2-.1-.3-.2-.4-.2-.3-.1-.6-.3-1-.3h-.1c-.1 0-.2 0-.3-.1-.2-.1-.5-.1-.7-.2h-.1c-.4-.1-.8-.1-1.2-.1h-2.3c.1.5 0 .5 0 .5zM8.5 12.9h1.1c1-.2 1.8-.7 2.5-1.5.8-1 1.1-2.1.9-3.3-.2-1.3-1-2.3-2.2-3-.5-.3-1-.4-1.6-.5h-.8c-.3.1-.7.2-1.2.4-1.7.8-2.7 2.5-2.4 4.4.2 1.2.8 2.2 1.8 2.9.6.4 1.2.6 1.9.6zM7 39.1h5.2c.2 0 .3-.1.3-.3V16.4c0-.4-.1-.4-.4-.4H5.8c-.2 0-.3.1-.3.3v22.4c0 .1.1.2.2.2h.1c.4.2.8.2 1.2.2z" style="fill:#f5f4f2"/></svg>