<svg xmlns="http://www.w3.org/2000/svg" width="44" height="44" fill="none" viewBox="0 0 44 44"><circle cx="22" cy="22" r="22" fill="#FC441E"/><path fill="#F5F4F2" d="M11 12h21v20H11V12Z"/><path fill="#FC441E" d="m23.75 28.634 1.546-.974c.121.362.889 1.223 1.858 1.223.97 0 1.42-.504 1.42-.838 0-.911-.99-1.232-1.466-1.386a2.814 2.814 0 0 1-.185-.064 2.784 2.784 0 0 0-.1-.038c-.528-.192-2.479-.902-2.479-2.959 0-2.266 2.296-2.527 2.816-2.527.34 0 1.973.04 2.786 1.496l-1.5.997c-.329-.634-.875-.844-1.211-.844-.831 0-1.004.58-1.004.844 0 .74.902 1.073 1.664 1.353.2.074.39.143.551.216.83.374 2.054.986 2.054 2.912 0 .965-.85 2.526-2.988 2.526-2.873 0-3.635-1.642-3.762-1.937Zm-7.5.194 1.611-.974c.127.362.617 1.03 1.33 1.03.711 0 1.076-.696 1.076-1.03v-6.568h1.982v6.568c.032.906-.496 2.717-2.824 2.717-2.14 0-3.03-1.211-3.175-1.744Z"/></svg>