<svg xmlns="http://www.w3.org/2000/svg" width="64" height="240" fill="none" viewBox="0 0 64 240"><path fill="#2A2A2A" d="M40.158 26.526c-2.926-.976-6.855-2.932-7.787-3.877a.502.502 0 0 0-.707-.005c-1.03 1.015-3.958 2.919-7.8 4.005a.5.5 0 0 0-.364.481c0 8.271 1.208 12.306 8.364 14.351a.492.492 0 0 0 .274 0C39.293 39.437 40.5 35.361 40.5 27a.5.5 0 0 0-.342-.474Zm-8.157 13.953c-6.351-1.86-7.466-5.386-7.5-12.974 3.492-1.047 6.245-2.744 7.523-3.837 1.359 1.059 4.725 2.729 7.475 3.689-.032 7.692-1.143 11.26-7.498 13.122Zm8.157 30.047c-2.926-.976-6.855-2.932-7.787-3.877a.502.502 0 0 0-.707-.005c-1.03 1.015-3.958 2.919-7.8 4.005a.5.5 0 0 0-.364.481c0 8.271 1.208 12.306 8.364 14.351a.492.492 0 0 0 .274 0C39.293 83.437 40.5 79.361 40.5 71a.5.5 0 0 0-.342-.474Z"/><path fill="#A6A6A6" d="M40.158 114.526c-2.926-.976-6.855-2.932-7.787-3.877a.502.502 0 0 0-.707-.005c-1.03 1.015-3.958 2.919-7.8 4.005a.5.5 0 0 0-.364.481c0 8.271 1.208 12.306 8.364 14.351a.492.492 0 0 0 .274 0c7.155-2.044 8.362-6.12 8.362-14.481a.5.5 0 0 0-.342-.474Z"/><path fill="#EE7839" d="M40.158 158.526c-2.926-.976-6.855-2.932-7.787-3.877a.502.502 0 0 0-.707-.005c-1.03 1.015-3.958 2.919-7.8 4.005a.5.5 0 0 0-.364.481c0 8.271 1.208 12.306 8.364 14.351a.492.492 0 0 0 .274 0c7.155-2.044 8.362-6.12 8.362-14.481a.5.5 0 0 0-.342-.474Z"/><path fill="#83BCC0" d="M40.158 202.526c-2.926-.976-6.855-2.932-7.787-3.877a.502.502 0 0 0-.707-.005c-1.03 1.015-3.958 2.919-7.8 4.005a.5.5 0 0 0-.364.481c0 8.271 1.208 12.306 8.364 14.351a.492.492 0 0 0 .274 0c7.155-2.044 8.362-6.12 8.362-14.481a.5.5 0 0 0-.342-.474Z"/><rect width="63" height="239" x="0.5" y="0.5" stroke="#9747FF" stroke-dasharray="10 5" rx="4.5"/></svg>