<svg xmlns="http://www.w3.org/2000/svg" xml:space="preserve" x="0px" y="0px" style="enable-background:new 0 0 44 44" viewBox="0 0 44 44"><path d="M22 1c-5 0-9.8 1.8-13.6 5.1-3.8 3.3-6.3 7.9-7.1 13S1.5 29.3 4 33.7s6.6 7.7 11.3 9.3c1 .2 1.4-.5 1.4-1v-4c-5.3 1-6.6-1.3-7.1-2.5s-1.2-2.2-2.2-3c-.7-.4-1.8-1.4 0-1.4.7.1 1.3.3 1.9.7.6.4 1 .9 1.4 1.5.3.5.7 1 1.1 1.4.5.4 1 .7 1.6.8.6.2 1.2.2 1.7.1.6-.1 1.2-.3 1.7-.6.1-1.1.6-2.1 1.3-2.9-4.7-.5-9.6-2.4-9.6-10.6 0-2.1.7-4.2 2.2-5.8-.6-1.9-.6-3.9.2-5.7 0 0 1.8-.6 5.8 2.2 3.4-1 7.1-1 10.5 0C31.2 9.4 33 10 33 10c.8 1.8.9 3.8.2 5.7 1.4 1.6 2.2 3.6 2.2 5.8 0 8.3-4.9 10.1-9.6 10.6.5.5.9 1.1 1.1 1.8.2.7.3 1.4.3 2.1v5.9c0 .6.4 1.2 1.4 1 4.7-1.6 8.7-4.9 11.3-9.3 2.6-4.4 3.5-9.5 2.7-14.6-.8-5-3.3-9.6-7.1-12.9C31.8 2.8 27 1 22 1z" style="fill:#f5f4f2"/></svg>