<svg xmlns="http://www.w3.org/2000/svg" width="76" height="243" fill="none" viewBox="0 0 76 243"><path fill="#2A2A2A" d="M42.001 37.138v.507c0 .812-.3 1.59-.844 2.19a.498.498 0 0 1-.707.035.501.501 0 0 1-.035-.707c.377-.416.585-.956.585-1.519v-.507c0-1.474-.993-2.75-2.416-3.104a1.154 1.154 0 0 0-.841.108 5.718 5.718 0 0 1-5.482.003 1.15 1.15 0 0 0-.845-.111A3.186 3.186 0 0 0 29 37.137v.507c0 .562.208 1.102.585 1.519a.499.499 0 1 1-.741.671 3.258 3.258 0 0 1-.844-2.19v-.507a4.184 4.184 0 0 1 3.174-4.074 2.164 2.164 0 0 1 1.573.208 4.713 4.713 0 0 0 4.51-.003 2.154 2.154 0 0 1 1.569-.204 4.185 4.185 0 0 1 3.175 4.074Zm1.826-4.074a.5.5 0 1 0-.241.971 3.187 3.187 0 0 1 2.416 3.104v.507c0 .563-.208 1.103-.585 1.519a.501.501 0 0 0 .742.672 3.256 3.256 0 0 0 .844-2.19v-.507a4.19 4.19 0 0 0-3.176-4.076ZM30.501 27.5c0-2.481 2.019-4.5 4.5-4.5s4.5 2.019 4.5 4.5-2.019 4.5-4.5 4.5a4.505 4.505 0 0 1-4.5-4.5Zm1 0c0 1.93 1.57 3.5 3.5 3.5s3.5-1.57 3.5-3.5-1.57-3.5-3.5-3.5-3.5 1.57-3.5 3.5Zm9.062-4.466a.5.5 0 1 0-.124.992 3.503 3.503 0 0 1 3.062 3.473 3.49 3.49 0 0 1-1.312 2.732.5.5 0 0 0 .626.78 4.484 4.484 0 0 0 1.687-3.513 4.506 4.506 0 0 0-3.939-4.464ZM47.5 81.64v.51c0 .74-.25 1.45-.71 2.02-.17.22-.45.33-.74.33h-2.68a4.7 4.7 0 0 0 .63-2.35v-.51c0-1.44-.53-2.77-1.43-3.78.07-.02.13-.06.19-.09a2.18 2.18 0 0 1 1.57-.21c1.86.47 3.17 2.14 3.17 4.08Zm-7-14.14c-.32 0-.63.03-.93.1A5.948 5.948 0 0 1 41.5 72c0 1.74-.74 3.31-1.93 4.4.3.07.61.1.93.1 2.48 0 4.5-2.02 4.5-4.5s-2.02-4.5-4.5-4.5Zm-5 0c-2.48 0-4.5 2.02-4.5 4.5s2.02 4.5 4.5 4.5S40 74.48 40 72s-2.02-4.5-4.5-4.5Zm3.83 10.06c-.18-.04-.35-.06-.53-.06-.37 0-.73.09-1.04.27-.7.38-1.48.57-2.26.57-.78 0-1.55-.19-2.24-.56-.33-.18-.7-.28-1.07-.28-.16 0-.31.02-.46.05-1.9.44-3.23 2.13-3.23 4.09v.51c0 .74.25 1.45.71 2.02.17.22.45.33.74.33h11.1c.29 0 .57-.11.74-.33.46-.57.71-1.28.71-2.02v-.51c0-1.94-1.31-3.61-3.17-4.08Z"/><path fill="#A6A6A6" d="M47.5 126.64v.51c0 .74-.25 1.45-.71 2.02-.17.22-.45.33-.74.33h-2.68a4.7 4.7 0 0 0 .63-2.35v-.51c0-1.44-.53-2.77-1.43-3.78.07-.02.13-.06.19-.09a2.18 2.18 0 0 1 1.57-.21c1.86.47 3.17 2.14 3.17 4.08Zm-7-14.14c-.32 0-.63.03-.93.1a5.948 5.948 0 0 1 1.93 4.4c0 1.74-.74 3.31-1.93 4.4.3.07.61.1.93.1 2.48 0 4.5-2.02 4.5-4.5s-2.02-4.5-4.5-4.5Zm-5 0c-2.48 0-4.5 2.02-4.5 4.5s2.02 4.5 4.5 4.5 4.5-2.02 4.5-4.5-2.02-4.5-4.5-4.5Zm3.83 10.06c-.18-.04-.35-.06-.53-.06-.37 0-.73.09-1.04.27-.7.38-1.48.57-2.26.57-.78 0-1.55-.19-2.24-.56-.33-.18-.7-.28-1.07-.28-.16 0-.31.02-.46.05-1.9.44-3.23 2.13-3.23 4.09v.51c0 .74.25 1.45.71 2.02.17.22.45.33.74.33h11.1c.29 0 .57-.11.74-.33.46-.57.71-1.28.71-2.02v-.51c0-1.94-1.31-3.61-3.17-4.08Z"/><path fill="#EE7839" d="M47.5 171.64v.51c0 .74-.25 1.45-.71 2.02-.17.22-.45.33-.74.33h-2.68a4.7 4.7 0 0 0 .63-2.35v-.51c0-1.44-.53-2.77-1.43-3.78.07-.02.13-.06.19-.09a2.18 2.18 0 0 1 1.57-.21c1.86.47 3.17 2.14 3.17 4.08Zm-7-14.14c-.32 0-.63.03-.93.1a5.948 5.948 0 0 1 1.93 4.4c0 1.74-.74 3.31-1.93 4.4.3.07.61.1.93.1 2.48 0 4.5-2.02 4.5-4.5s-2.02-4.5-4.5-4.5Zm-5 0c-2.48 0-4.5 2.02-4.5 4.5s2.02 4.5 4.5 4.5 4.5-2.02 4.5-4.5-2.02-4.5-4.5-4.5Zm3.83 10.06c-.18-.04-.35-.06-.53-.06-.37 0-.73.09-1.04.27-.7.38-1.48.57-2.26.57-.78 0-1.55-.19-2.24-.56-.33-.18-.7-.28-1.07-.28-.16 0-.31.02-.46.05-1.9.44-3.23 2.13-3.23 4.09v.51c0 .74.25 1.45.71 2.02.17.22.45.33.74.33h11.1c.29 0 .57-.11.74-.33.46-.57.71-1.28.71-2.02v-.51c0-1.94-1.31-3.61-3.17-4.08Z"/><path fill="#83BCC0" d="M47.5 216.64v.51c0 .74-.25 1.45-.71 2.02-.17.22-.45.33-.74.33h-2.68a4.7 4.7 0 0 0 .63-2.35v-.51c0-1.44-.53-2.77-1.43-3.78.07-.02.13-.06.19-.09a2.18 2.18 0 0 1 1.57-.21c1.86.47 3.17 2.14 3.17 4.08Zm-7-14.14c-.32 0-.63.03-.93.1a5.948 5.948 0 0 1 1.93 4.4c0 1.74-.74 3.31-1.93 4.4.3.07.61.1.93.1 2.48 0 4.5-2.02 4.5-4.5s-2.02-4.5-4.5-4.5Zm-5 0c-2.48 0-4.5 2.02-4.5 4.5s2.02 4.5 4.5 4.5 4.5-2.02 4.5-4.5-2.02-4.5-4.5-4.5Zm3.83 10.06c-.18-.04-.35-.06-.53-.06-.37 0-.73.09-1.04.27-.7.38-1.48.57-2.26.57-.78 0-1.55-.19-2.24-.56-.33-.18-.7-.28-1.07-.28-.16 0-.31.02-.46.05-1.9.44-3.23 2.13-3.23 4.09v.51c0 .74.25 1.45.71 2.02.17.22.45.33.74.33h11.1c.29 0 .57-.11.74-.33.46-.57.71-1.28.71-2.02v-.51c0-1.94-1.31-3.61-3.17-4.08Z"/><rect width="74.0039" height="242.001" x="0.5" y="0.5" stroke="#9747FF" stroke-dasharray="10 5" rx="4.5"/></svg>