<svg xmlns="http://www.w3.org/2000/svg" width="44" height="44" fill="none" viewBox="0 0 44 44"><circle cx="22" cy="22" r="22" fill="#FC441E"/><path fill="#F5F4F2" fill-rule="evenodd" d="m12.826 26.034-.76 5.28a1.42 1.42 0 0 0 1.41 1.61h.21l5.28-.76a3.31 3.31 0 0 0 1.89-.94l9.74-9.75a5 5 0 0 0-7.07-7.07l-9.76 9.74a3.31 3.31 0 0 0-.94 1.89Zm6.92 4.13a2 2 0 0 1-1 .52l-5.21.69.73-5.17a2 2 0 0 1 .52-1l9.75-9.74a3.49 3.49 0 0 1 5 0 3.49 3.49 0 0 1 0 4.95l-9.79 9.75Z" clip-rule="evenodd"/><path fill="#F5F4F2" d="M26.566 17.374a.75.75 0 0 1 1.06 1.06l-4.21 4.21a.75.75 0 0 1-1.06-1.06l4.21-4.21Z"/></svg>