<svg xmlns="http://www.w3.org/2000/svg" width="64" height="240" fill="none" viewBox="0 0 64 240"><path fill="#2A2A2A" d="M34 74c0 1.1-.9 2-2 2s-2-.9-2-2 .9-2 2-2 2 .9 2 2Zm5.5 0c0 6.08-4.67 9.89-6.67 11.24-.25.18-.54.26-.83.26-.29 0-.58-.08-.84-.26-2-1.35-6.66-5.15-6.66-11.24 0-4.28 3.22-7.5 7.5-7.5 4.27 0 7.5 3.22 7.5 7.5ZM36 74c0-2.21-1.79-4-4-4s-4 1.79-4 4 1.79 4 4 4 4-1.79 4-4Z"/><path fill="#A6A6A6" d="M34 118c0 1.1-.9 2-2 2s-2-.9-2-2 .9-2 2-2 2 .9 2 2Zm5.5 0c0 6.08-4.67 9.89-6.67 11.24-.25.18-.54.26-.83.26-.29 0-.58-.08-.84-.26-2-1.35-6.66-5.15-6.66-11.24 0-4.28 3.22-7.5 7.5-7.5 4.27 0 7.5 3.22 7.5 7.5Zm-3.5 0c0-2.21-1.79-4-4-4s-4 1.79-4 4 1.79 4 4 4 4-1.79 4-4Z"/><path fill="#EE7839" d="M34 162c0 1.1-.9 2-2 2s-2-.9-2-2 .9-2 2-2 2 .9 2 2Zm5.5 0c0 6.08-4.67 9.89-6.67 11.24-.25.18-.54.26-.83.26-.29 0-.58-.08-.84-.26-2-1.35-6.66-5.15-6.66-11.24 0-4.28 3.22-7.5 7.5-7.5 4.27 0 7.5 3.22 7.5 7.5Zm-3.5 0c0-2.21-1.79-4-4-4s-4 1.79-4 4 1.79 4 4 4 4-1.79 4-4Z"/><path fill="#83BCC0" d="M34 206c0 1.1-.9 2-2 2s-2-.9-2-2 .9-2 2-2 2 .9 2 2Zm5.5 0c0 6.08-4.67 9.89-6.67 11.24-.25.18-.54.26-.83.26-.29 0-.58-.08-.84-.26-2-1.35-6.66-5.15-6.66-11.24 0-4.28 3.22-7.5 7.5-7.5 4.27 0 7.5 3.22 7.5 7.5Zm-3.5 0c0-2.21-1.79-4-4-4s-4 1.79-4 4 1.79 4 4 4 4-1.79 4-4Z"/><path fill="#2A2A2A" d="M32 26.5c-1.93 0-3.5 1.57-3.5 3.5s1.57 3.5 3.5 3.5 3.5-1.57 3.5-3.5-1.571-3.5-3.5-3.5Zm0 6a2.503 2.503 0 0 1-2.5-2.5c0-1.378 1.122-2.5 2.5-2.5s2.5 1.122 2.5 2.5-1.122 2.5-2.5 2.5Zm-.004-10c-4.273 0-7.496 3.224-7.496 7.5 0 6.088 4.659 9.891 6.661 11.243a1.49 1.49 0 0 0 1.668.001c2.006-1.355 6.671-5.163 6.671-11.245 0-4.275-3.227-7.499-7.504-7.499Zm.274 17.915a.489.489 0 0 1-.549-.001c-1.459-.985-6.221-4.648-6.221-10.415 0-3.706 2.792-6.5 6.496-6.5 3.708 0 6.504 2.794 6.504 6.5 0 5.603-4.358 9.151-6.23 10.416Z"/><rect width="63" height="239" x="0.5" y="0.5" stroke="#9747FF" stroke-dasharray="10 5" rx="4.5"/></svg>