<svg xmlns="http://www.w3.org/2000/svg" width="64" height="248" fill="none" viewBox="0 0 64 248"><path fill="#2A2A2A" d="M39.915 25.255C38.717 23.8 37.052 23 35.225 23a6.503 6.503 0 0 0-3.227.844A6.503 6.503 0 0 0 28.77 23c-1.826 0-3.491.801-4.69 2.255-1.307 1.589-1.851 3.76-1.451 5.806.955 4.896 5.974 8.335 8.088 9.587a2.515 2.515 0 0 0 2.564 0c2.113-1.251 7.132-4.69 8.087-9.587.399-2.046-.144-4.217-1.453-5.806Zm.472 5.614c-.877 4.499-5.618 7.735-7.616 8.918a1.517 1.517 0 0 1-1.545 0c-1.998-1.183-6.738-4.419-7.616-8.918-.343-1.756.122-3.618 1.243-4.979 1.005-1.22 2.396-1.891 3.917-1.891 1.065 0 2.088.293 2.958.849a.503.503 0 0 0 .538 0 5.477 5.477 0 0 1 2.958-.849c1.52 0 2.913.671 3.917 1.891 1.12 1.361 1.586 3.222 1.243 4.979h.003Zm.98 47.192c-.954 4.896-5.973 8.335-8.086 9.587a2.518 2.518 0 0 1-2.564 0c-2.114-1.253-7.133-4.691-8.088-9.587-.4-2.047.143-4.217 1.452-5.807 1.198-1.454 2.864-2.255 4.69-2.255a6.5 6.5 0 0 1 3.227.844 6.503 6.503 0 0 1 3.229-.844c1.826 0 3.49.801 4.689 2.255 1.309 1.59 1.853 3.76 1.453 5.807h-.002Z"/><path fill="#A6A6A6" d="M41.367 125.061c-.954 4.896-5.973 8.335-8.086 9.587a2.518 2.518 0 0 1-2.564 0c-2.114-1.253-7.133-4.691-8.088-9.587-.4-2.047.143-4.217 1.452-5.807 1.198-1.454 2.864-2.255 4.69-2.255a6.5 6.5 0 0 1 3.227.844 6.503 6.503 0 0 1 3.229-.844c1.826 0 3.49.801 4.689 2.255 1.309 1.59 1.853 3.76 1.453 5.807h-.002Z"/><path fill="#EE7839" d="M41.367 172.061c-.954 4.896-5.973 8.335-8.086 9.587a2.518 2.518 0 0 1-2.564 0c-2.114-1.253-7.133-4.691-8.088-9.587-.4-2.047.143-4.217 1.452-5.807 1.198-1.454 2.864-2.255 4.69-2.255a6.5 6.5 0 0 1 3.227.844 6.503 6.503 0 0 1 3.229-.844c1.826 0 3.49.801 4.689 2.255 1.309 1.59 1.853 3.76 1.453 5.807h-.002Z"/><path fill="#83BCC0" d="M41.367 219.061c-.954 4.896-5.973 8.335-8.086 9.587a2.518 2.518 0 0 1-2.564 0c-2.114-1.253-7.133-4.691-8.088-9.587-.4-2.047.143-4.217 1.452-5.807 1.198-1.454 2.864-2.255 4.69-2.255a6.5 6.5 0 0 1 3.227.844 6.503 6.503 0 0 1 3.229-.844c1.826 0 3.49.801 4.689 2.255 1.309 1.59 1.853 3.76 1.453 5.807h-.002Z"/><rect width="63" height="247" x="0.5" y="0.5" stroke="#9747FF" stroke-dasharray="10 5" rx="4.5"/></svg>