<svg xmlns="http://www.w3.org/2000/svg" width="44" height="44" fill="none" viewBox="0 0 44 44"><circle cx="22" cy="22" r="22" fill="#FC441E"/><path fill="#F5F4F2" d="M26.251 13.718c0-.565-.668-.565-.964-.495.415-.31.902-.235 1.076-.14l4.012 1.863c.383.178.625.547.625.952v12.263c0 .41-.249.784-.64.958l-3.775 1.692c-.26.105-.823.367-1.298 0 .593.105.915-.295.964-.566V13.718Z"/><path fill="#F5F4F2" d="M25.335 13.213c.315-.059.916-.031.916.505v4.22l-12.165 8.72a.539.539 0 0 1-.693-.059l-1.254-1.285a.478.478 0 0 1 .03-.702l13.118-11.388.048-.01Z"/><path fill="#F5F4F2" d="m26.251 26.095-12.165-8.719a.538.538 0 0 0-.693.059l-1.254 1.285a.478.478 0 0 0 .03.702l13.118 11.389c.593.105.915-.295.964-.566v-4.15Z"/></svg>