<svg xmlns="http://www.w3.org/2000/svg" width="64" height="249" fill="none" viewBox="0 0 64 249"><path fill="#2A2A2A" d="M40.952 28.834a9.435 9.435 0 0 0-7.591-6.24 9.848 9.848 0 0 0-2.722 0 9.433 9.433 0 0 0-7.589 6.235A9.292 9.292 0 0 0 22.5 32a9.3 9.3 0 0 0 .548 3.167 9.435 9.435 0 0 0 8.951 6.335c.459 0 .917-.032 1.361-.095a9.433 9.433 0 0 0 7.589-6.236 9.292 9.292 0 0 0 .55-3.17 9.298 9.298 0 0 0-.547-3.166Zm-1.229-.332h-3.618a16.026 16.026 0 0 0-1.791-4.682 8.417 8.417 0 0 1 5.409 4.681ZM35.5 32c0 .838-.084 1.675-.222 2.5h-6.556A15.168 15.168 0 0 1 28.5 32c0-.838.084-1.673.222-2.5h6.557c.137.823.221 1.66.221 2.5Zm-2.504-8.431a15.08 15.08 0 0 1 2.082 4.931h-6.155a15.08 15.08 0 0 1 2.081-4.931c.326-.038.657-.07.996-.07.339 0 .67.032.996.07Zm-3.309.25a16.026 16.026 0 0 0-1.792 4.681h-3.618a8.412 8.412 0 0 1 5.41-4.681Zm-5.8 5.681h3.826a16.198 16.198 0 0 0-.212 2.5c0 .84.083 1.677.213 2.5h-3.825a8.332 8.332 0 0 1-.388-2.5 8.295 8.295 0 0 1 .386-2.5Zm.392 6h3.618a16.02 16.02 0 0 0 1.791 4.68 8.41 8.41 0 0 1-5.409-4.68Zm6.725 4.93a15.08 15.08 0 0 1-2.081-4.93h6.154a15.077 15.077 0 0 1-2.081 4.93 8.73 8.73 0 0 1-1.992 0Zm3.309-.25a16.023 16.023 0 0 0 1.791-4.678h3.618a8.416 8.416 0 0 1-5.409 4.678Zm5.799-5.68h-3.825c.13-.825.213-1.662.213-2.5 0-.84-.083-1.675-.212-2.5h3.825A8.32 8.32 0 0 1 40.5 32a8.31 8.31 0 0 1-.388 2.5Zm1.312 37.17a9.935 9.935 0 0 0-7.993-6.57 10.322 10.322 0 0 0-2.863 0 9.931 9.931 0 0 0-7.988 6.561 9.787 9.787 0 0 0-.58 3.34c0 1.152.195 2.275.576 3.331a9.935 9.935 0 0 0 7.993 6.569 10.257 10.257 0 0 0 2.863 0 9.931 9.931 0 0 0 7.988-6.56A9.787 9.787 0 0 0 42 75a9.795 9.795 0 0 0-.576-3.332ZM40 75c0 .683-.086 1.352-.257 2.001h-2.878c.08-.664.135-1.33.135-2 0-.67-.055-1.338-.135-2h2.879a7.84 7.84 0 0 1 .256 2Zm-10.846 2.001a14.715 14.715 0 0 1-.154-2c0-.669.062-1.336.154-2h5.693a14.7 14.7 0 0 1 .154 2c0 .668-.062 1.335-.154 2h-5.693Zm-4.898 0a7.853 7.853 0 0 1-.256-2c0-.683.086-1.352.256-2h2.879c-.08.663-.135 1.33-.135 2 0 .67.055 1.338.135 2h-2.879Zm14.653-6h-2.411a16.44 16.44 0 0 0-1.147-3.266 7.903 7.903 0 0 1 3.558 3.266Zm-6.207-3.952a14.535 14.535 0 0 1 1.743 3.952h-4.89a14.554 14.554 0 0 1 1.743-3.952c.234-.02.465-.049.702-.049.238 0 .469.03.702.05Zm-4.053.685a16.457 16.457 0 0 0-1.148 3.267h-2.412a7.916 7.916 0 0 1 3.56-3.267Zm-3.557 11.267h2.41c.268 1.13.651 2.22 1.147 3.264a7.906 7.906 0 0 1-3.557-3.264Zm6.205 3.95a14.578 14.578 0 0 1-1.742-3.95h4.889a14.557 14.557 0 0 1-1.742 3.95 8.45 8.45 0 0 1-1.405 0Zm4.055-.685a16.5 16.5 0 0 0 1.147-3.265h2.411a7.912 7.912 0 0 1-3.558 3.265Z"/><path fill="#A6A6A6" d="M41.424 121.669a9.935 9.935 0 0 0-7.993-6.569 10.322 10.322 0 0 0-2.863 0 9.931 9.931 0 0 0-7.988 6.561 9.787 9.787 0 0 0-.58 3.34c0 1.152.195 2.275.576 3.331A9.935 9.935 0 0 0 32 135.001c.483 0 .964-.033 1.432-.1a9.931 9.931 0 0 0 7.988-6.561A9.787 9.787 0 0 0 42 125a9.795 9.795 0 0 0-.576-3.331ZM40 125c0 .683-.086 1.352-.257 2.001h-2.878c.08-.664.135-1.331.135-2.001 0-.67-.055-1.337-.135-1.999h2.879c.17.646.256 1.315.256 1.999Zm-10.846 2.001A14.715 14.715 0 0 1 29 125c0-.668.062-1.335.154-1.999h5.693c.091.662.154 1.329.154 1.999 0 .669-.062 1.336-.154 2.001h-5.693Zm-4.898 0A7.853 7.853 0 0 1 24 125c0-.682.086-1.351.256-1.999h2.879c-.08.663-.135 1.33-.135 1.999 0 .671.055 1.339.135 2.001h-2.879Zm14.653-6h-2.411a16.44 16.44 0 0 0-1.147-3.266 7.903 7.903 0 0 1 3.558 3.266Zm-6.207-3.952a14.535 14.535 0 0 1 1.743 3.952h-4.89a14.555 14.555 0 0 1 1.743-3.952c.234-.02.465-.049.702-.049.238 0 .469.029.702.049Zm-4.053.685a16.456 16.456 0 0 0-1.148 3.267h-2.412a7.916 7.916 0 0 1 3.56-3.267Zm-3.557 11.267h2.41c.268 1.13.651 2.22 1.147 3.264a7.907 7.907 0 0 1-3.557-3.264Zm6.205 3.95a14.578 14.578 0 0 1-1.742-3.95h4.889a14.557 14.557 0 0 1-1.742 3.95 8.45 8.45 0 0 1-1.405 0Zm4.055-.685a16.499 16.499 0 0 0 1.147-3.265h2.411a7.912 7.912 0 0 1-3.558 3.265Z"/><path fill="#EE7839" d="M43.424 168.669a9.935 9.935 0 0 0-7.993-6.569 10.322 10.322 0 0 0-2.863 0 9.931 9.931 0 0 0-7.988 6.561 9.787 9.787 0 0 0-.58 3.34c0 1.152.195 2.275.576 3.331A9.935 9.935 0 0 0 34 182.001c.483 0 .964-.033 1.432-.1a9.931 9.931 0 0 0 7.988-6.561A9.787 9.787 0 0 0 44 172a9.795 9.795 0 0 0-.576-3.331ZM42 172c0 .683-.086 1.352-.257 2.001h-2.878c.08-.664.135-1.331.135-2.001 0-.67-.055-1.337-.135-1.999h2.879c.17.646.256 1.315.256 1.999Zm-10.846 2.001A14.715 14.715 0 0 1 31 172c0-.668.062-1.335.154-1.999h5.693c.091.662.154 1.329.154 1.999 0 .669-.062 1.336-.154 2.001h-5.693Zm-4.898 0A7.853 7.853 0 0 1 26 172c0-.682.086-1.351.256-1.999h2.879c-.08.663-.135 1.33-.135 1.999 0 .671.055 1.339.135 2.001h-2.879Zm14.653-6h-2.411a16.44 16.44 0 0 0-1.147-3.266 7.903 7.903 0 0 1 3.558 3.266Zm-6.207-3.952a14.535 14.535 0 0 1 1.743 3.952h-4.89a14.555 14.555 0 0 1 1.743-3.952c.234-.02.465-.049.702-.049.238 0 .469.029.702.049Zm-4.053.685a16.456 16.456 0 0 0-1.148 3.267h-2.412a7.916 7.916 0 0 1 3.56-3.267Zm-3.557 11.267h2.41c.268 1.13.651 2.22 1.147 3.264a7.907 7.907 0 0 1-3.557-3.264Zm6.205 3.95a14.578 14.578 0 0 1-1.742-3.95h4.889a14.557 14.557 0 0 1-1.742 3.95 8.45 8.45 0 0 1-1.405 0Zm4.055-.685a16.499 16.499 0 0 0 1.147-3.265h2.411a7.912 7.912 0 0 1-3.558 3.265Z"/><path fill="#83BCC0" d="M41.424 213.669a9.935 9.935 0 0 0-7.993-6.569 10.322 10.322 0 0 0-2.863 0 9.931 9.931 0 0 0-7.988 6.561 9.787 9.787 0 0 0-.58 3.34c0 1.152.195 2.275.576 3.331A9.935 9.935 0 0 0 32 227.001c.483 0 .964-.033 1.432-.1a9.931 9.931 0 0 0 7.988-6.561A9.787 9.787 0 0 0 42 217a9.795 9.795 0 0 0-.576-3.331ZM40 217c0 .683-.086 1.352-.257 2.001h-2.878c.08-.664.135-1.331.135-2.001 0-.67-.055-1.337-.135-1.999h2.879c.17.646.256 1.315.256 1.999Zm-10.846 2.001A14.715 14.715 0 0 1 29 217c0-.668.062-1.335.154-1.999h5.693c.091.662.154 1.329.154 1.999 0 .669-.062 1.336-.154 2.001h-5.693Zm-4.898 0A7.853 7.853 0 0 1 24 217c0-.682.086-1.351.256-1.999h2.879c-.08.663-.135 1.33-.135 1.999 0 .671.055 1.339.135 2.001h-2.879Zm14.653-6h-2.411a16.44 16.44 0 0 0-1.147-3.266 7.903 7.903 0 0 1 3.558 3.266Zm-6.207-3.952a14.535 14.535 0 0 1 1.743 3.952h-4.89a14.555 14.555 0 0 1 1.743-3.952c.234-.02.465-.049.702-.049.238 0 .469.029.702.049Zm-4.053.685a16.456 16.456 0 0 0-1.148 3.267h-2.412a7.916 7.916 0 0 1 3.56-3.267Zm-3.557 11.267h2.41c.268 1.13.651 2.22 1.147 3.264a7.907 7.907 0 0 1-3.557-3.264Zm6.205 3.95a14.578 14.578 0 0 1-1.742-3.95h4.889a14.557 14.557 0 0 1-1.742 3.95 8.45 8.45 0 0 1-1.405 0Zm4.055-.685a16.499 16.499 0 0 0 1.147-3.265h2.411a7.912 7.912 0 0 1-3.558 3.265Z"/><rect width="63" height="248" x="0.5" y="0.5" stroke="#9747FF" stroke-dasharray="10 5" rx="4.5"/></svg>