<svg xmlns="http://www.w3.org/2000/svg" width="75" height="247" fill="none" viewBox="0 0 75 247"><path fill="#2A2A2A" d="M37.5 26c-5.238 0-9.5 4.262-9.5 9.5s4.262 9.5 9.5 9.5 9.5-4.262 9.5-9.5-4.262-9.5-9.5-9.5Zm0 18c-4.687 0-8.5-3.813-8.5-8.5 0-4.687 3.813-8.5 8.5-8.5 4.687 0 8.5 3.813 8.5 8.5 0 4.687-3.813 8.5-8.5 8.5Zm4.5-8.5a.5.5 0 0 1-.5.5h-4a.5.5 0 0 1-.5-.5v-5a.5.5 0 0 1 1 0V35h3.5a.5.5 0 0 1 .5.5Zm-4 31c-5.24 0-9.5 4.26-9.5 9.5s4.26 9.5 9.5 9.5 9.5-4.26 9.5-9.5-4.26-9.5-9.5-9.5ZM42 77h-4c-.55 0-1-.45-1-1v-5c0-.55.45-1 1-1s1 .45 1 1v4h3c.55 0 1 .45 1 1s-.45 1-1 1Z"/><path fill="#A6A6A6" d="M38 113.5c-5.24 0-9.5 4.26-9.5 9.5s4.26 9.5 9.5 9.5 9.5-4.26 9.5-9.5-4.26-9.5-9.5-9.5Zm4 10.5h-4c-.55 0-1-.45-1-1v-5c0-.55.45-1 1-1s1 .45 1 1v4h3c.55 0 1 .45 1 1s-.45 1-1 1Z"/><path fill="#EE7839" d="M38 159.5c-5.24 0-9.5 4.26-9.5 9.5s4.26 9.5 9.5 9.5 9.5-4.26 9.5-9.5-4.26-9.5-9.5-9.5Zm4 10.5h-4c-.55 0-1-.45-1-1v-5c0-.55.45-1 1-1s1 .45 1 1v4h3c.55 0 1 .45 1 1s-.45 1-1 1Z"/><path fill="#83BCC0" d="M38 205.5c-5.24 0-9.5 4.26-9.5 9.5s4.26 9.5 9.5 9.5 9.5-4.26 9.5-9.5-4.26-9.5-9.5-9.5Zm4 10.5h-4c-.55 0-1-.45-1-1v-5c0-.55.45-1 1-1s1 .45 1 1v4h3c.55 0 1 .45 1 1s-.45 1-1 1Z"/><rect width="74" height="246" x="0.5" y="0.5" stroke="#9747FF" stroke-dasharray="10 5" rx="4.5"/></svg>