<svg xmlns="http://www.w3.org/2000/svg" width="44" height="44" fill="none" viewBox="0 0 44 44"><circle cx="22" cy="22" r="22" fill="#FC441E"/><path fill="#F5F4F2" d="M11 18.876c0-2.407 0-3.61.518-4.53.455-.808 1.182-1.466 2.075-1.878C14.61 12 15.94 12 18.6 12h5.8c2.66 0 3.99 0 5.007.468.893.412 1.62 1.07 2.075 1.879.518.919.518 2.122.518 4.53v5.247c0 2.407 0 3.61-.518 4.53-.455.808-1.182 1.466-2.075 1.878C28.39 31 27.06 31 24.4 31h-5.8c-2.66 0-3.99 0-5.007-.468-.893-.412-1.62-1.07-2.075-1.878C11 27.733 11 26.53 11 24.123v-5.248Z"/><path fill="#FC441E" d="M21.176 23.94h-3.254l-.662 1.909a.166.166 0 0 1-.17.118h-1.647c-.094 0-.127-.048-.099-.144l2.818-7.53c.028-.078.056-.168.084-.268.037-.174.056-.352.056-.53-.008-.052.043-.098.1-.091h2.239c.066 0 .103.022.113.065l3.198 8.367c.028.087 0 .13-.085.13h-1.831c-.065.007-.126-.033-.141-.09l-.719-1.936Zm-2.747-1.647h2.226c-.366-1.13-.778-2.246-1.113-3.386-.36 1.142-.755 2.279-1.113 3.386Zm7.424-3.503a1.093 1.093 0 0 1-.42-.067 1.029 1.029 0 0 1-.355-.22c-.1-.1-.177-.218-.228-.346a.967.967 0 0 1-.068-.4.898.898 0 0 1 .076-.394.958.958 0 0 1 .241-.332c.104-.092.227-.165.361-.213.134-.048.277-.071.421-.068.338 0 .604.094.796.281a1 1 0 0 1 .223.337c.05.124.072.256.066.389a.955.955 0 0 1-.07.401 1.016 1.016 0 0 1-.233.344 1.095 1.095 0 0 1-.372.223c-.14.05-.289.071-.438.065Zm-.972 7.046v-6.249c0-.078.038-.118.113-.118h1.733c.075 0 .112.04.112.118v6.249c0 .087-.037.13-.112.13h-1.72c-.084 0-.126-.043-.126-.13Z"/></svg>