<svg xmlns="http://www.w3.org/2000/svg" width="64" height="249" fill="none" viewBox="0 0 64 249"><path fill="#2A2A2A" d="M40.306 23.695A4.052 4.052 0 0 0 37.42 22.5a4.054 4.054 0 0 0-2.885 1.195L24.003 34.228c-.371.371-.613.84-.7 1.357l-.79 4.738a1.01 1.01 0 0 0 1.163 1.162l4.739-.79a2.482 2.482 0 0 0 1.356-.698l10.533-10.533a4.052 4.052 0 0 0 1.195-2.885 4.05 4.05 0 0 0-1.193-2.884ZM29.065 39.291a1.493 1.493 0 0 1-.813.419l-4.75.778.79-4.738c.052-.311.196-.592.419-.814l8.26-8.26 4.355 4.356-8.261 8.259Zm10.534-10.533-1.567 1.567-4.355-4.356 1.567-1.567a3.06 3.06 0 0 1 2.178-.902c.823 0 1.597.32 2.178.902.582.582.902 1.355.902 2.178a3.06 3.06 0 0 1-.903 2.178ZM31.912 73.33l5.76 5.76-7.9 7.909c-.37.37-.84.61-1.35.7l-4.74.79c-.06.01-.11.01-.17.01a1.028 1.028 0 0 1-1-1.18l.79-4.74c.09-.51.33-.98.7-1.35l7.91-7.9Zm8.39-2.631c-.77-.78-1.79-1.2-2.88-1.2-1.09 0-2.11.42-2.88 1.2l-1.21 1.21 5.76 5.76 1.21-1.21c.78-.77 1.2-1.79 1.2-2.88 0-1.09-.42-2.11-1.2-2.88Z"/><path fill="#A6A6A6" d="m31.912 120.329 5.76 5.76-7.9 7.91c-.37.37-.84.61-1.35.7l-4.74.79c-.06.01-.11.01-.17.01a1.028 1.028 0 0 1-1-1.18l.79-4.74c.09-.51.33-.98.7-1.35l7.91-7.9Zm8.39-2.63c-.77-.78-1.79-1.2-2.88-1.2-1.09 0-2.11.42-2.88 1.2l-1.21 1.21 5.76 5.76 1.21-1.21c.78-.77 1.2-1.79 1.2-2.88 0-1.09-.42-2.11-1.2-2.88Z"/><path fill="#EE7839" d="m31.912 167.329 5.76 5.76-7.9 7.91c-.37.37-.84.61-1.35.7l-4.74.79c-.06.01-.11.01-.17.01a1.028 1.028 0 0 1-1-1.18l.79-4.74c.09-.51.33-.98.7-1.35l7.91-7.9Zm8.39-2.63c-.77-.78-1.79-1.2-2.88-1.2-1.09 0-2.11.42-2.88 1.2l-1.21 1.21 5.76 5.76 1.21-1.21c.78-.77 1.2-1.79 1.2-2.88 0-1.09-.42-2.11-1.2-2.88Z"/><path fill="#83BCC0" d="m31.912 214.329 5.76 5.76-7.9 7.91c-.37.37-.84.61-1.35.7l-4.74.79c-.06.01-.11.01-.17.01a1.028 1.028 0 0 1-1-1.18l.79-4.74c.09-.51.33-.98.7-1.35l7.91-7.9Zm8.39-2.63c-.77-.78-1.79-1.2-2.88-1.2-1.09 0-2.11.42-2.88 1.2l-1.21 1.21 5.76 5.76 1.21-1.21c.78-.77 1.2-1.79 1.2-2.88 0-1.09-.42-2.11-1.2-2.88Z"/><rect width="63" height="248" x="0.5" y="0.5" stroke="#9747FF" stroke-dasharray="10 5" rx="4.5"/></svg>