<svg xmlns="http://www.w3.org/2000/svg" width="44" height="44" fill="none" viewBox="0 0 44 44"><circle cx="22" cy="22" r="22" fill="#FC441E"/><path fill="#F5F4F2" fill-rule="evenodd" d="M22.35 17.12a5 5 0 0 0-5.11 5 5.1 5.1 0 0 0 .95 3 8 8 0 0 1 1.59 4.62 2.52 2.52 0 0 0 5 0 7 7 0 0 1 1.41-4.44 5 5 0 0 0 1.09-3 5.1 5.1 0 0 0-4.93-5.18Zm-1.26 12.31a.76.76 0 0 1 0-1.5h2.3a.76.76 0 0 1 0 1.5h-2.3Zm3.84-7.47a.75.75 0 0 0 .73.76l.04.01a.74.74 0 0 0 .73-.73 4 4 0 0 0-3.94-4.07.75.75 0 0 0 0 1.5 2.55 2.55 0 0 1 2.44 2.53Z" clip-rule="evenodd"/><path fill="#F5F4F2" d="M22.28 16.21a.76.76 0 0 0 .75-.75v-2.71a.75.75 0 1 0-1.5 0v2.71a.76.76 0 0 0 .75.75Zm7.31-1.34a.75.75 0 0 0-1.06 0l-1.87 1.86a.75.75 0 0 0 1.06 1.06l1.87-1.86a.75.75 0 0 0 0-1.06Zm2.04 6.16H29a.75.75 0 0 0 0 1.5h2.63a.75.75 0 0 0 0-1.5Zm-16.25 0h-2.63a.75.75 0 0 0 0 1.5h2.63a.75.75 0 0 0 0-1.5Zm2.41-3.24a.74.74 0 0 0 0-1.06l-1.86-1.86a.75.75 0 1 0-1.06 1.06l1.86 1.86c.14.142.33.22.53.22a.73.73 0 0 0 .53-.22Z"/></svg>