<svg xmlns="http://www.w3.org/2000/svg" width="75" height="243" fill="none" viewBox="0 0 75 243"><path fill="#2A2A2A" d="M42.5 24.31h-10a4.505 4.505 0 0 0-4.5 4.5v6c0 2.48 2.019 4.5 4.5 4.5h10c2.481 0 4.5-2.02 4.5-4.5v-6c0-2.483-2.019-4.5-4.5-4.5Zm-10 1h10c1.93 0 3.5 1.57 3.5 3.5v.5H29v-.5c0-1.93 1.57-3.5 3.5-3.5Zm10 13h-10c-1.93 0-3.5-1.57-3.5-3.5v-4.5h17v4.5c0 1.928-1.57 3.5-3.5 3.5Zm-6.5-3.5a.5.5 0 0 1-.5.5h-3a.5.5 0 0 1 0-1h3a.5.5 0 0 1 .5.5Zm7 33.69H33c-2.48 0-4.5 2.02-4.5 4.5h19c0-2.48-2.02-4.5-4.5-4.5ZM28.5 75v4c0 2.48 2.02 4.5 4.5 4.5h10c2.48 0 4.5-2.02 4.5-4.5v-4h-19Zm7.5 5h-3c-.55 0-1-.45-1-1s.45-1 1-1h3c.55 0 1 .45 1 1s-.45 1-1 1Z"/><path fill="#A6A6A6" d="M43 113.5H33c-2.48 0-4.5 2.02-4.5 4.5h19c0-2.48-2.02-4.5-4.5-4.5ZM28.5 120v4c0 2.48 2.02 4.5 4.5 4.5h10c2.48 0 4.5-2.02 4.5-4.5v-4h-19Zm7.5 5h-3c-.55 0-1-.45-1-1s.45-1 1-1h3c.55 0 1 .45 1 1s-.45 1-1 1Z"/><path fill="#EE7839" d="M43 157.5H33c-2.48 0-4.5 2.02-4.5 4.5h19c0-2.48-2.02-4.5-4.5-4.5ZM28.5 164v4c0 2.48 2.02 4.5 4.5 4.5h10c2.48 0 4.5-2.02 4.5-4.5v-4h-19Zm7.5 5h-3c-.55 0-1-.45-1-1s.45-1 1-1h3c.55 0 1 .45 1 1s-.45 1-1 1Z"/><path fill="#83BCC0" d="M43 202.5H33c-2.48 0-4.5 2.02-4.5 4.5h19c0-2.48-2.02-4.5-4.5-4.5ZM28.5 209v4c0 2.48 2.02 4.5 4.5 4.5h10c2.48 0 4.5-2.02 4.5-4.5v-4h-19Zm7.5 5h-3c-.55 0-1-.45-1-1s.45-1 1-1h3c.55 0 1 .45 1 1s-.45 1-1 1Z"/><rect width="74" height="242" x="0.5" y="0.5" stroke="#9747FF" stroke-dasharray="10 5" rx="4.5"/></svg>