<svg xmlns="http://www.w3.org/2000/svg" width="45" height="44" fill="none" viewBox="0 0 45 44"><ellipse cx="22.5" cy="22" fill="#FC441E" rx="22.5" ry="22"/><path fill="#F5F4F2" d="M14 18.876c0-2.407 0-3.61.42-4.53.368-.808.956-1.466 1.68-1.878C16.921 12 17.998 12 20.151 12h4.696c2.153 0 3.23 0 4.053.468.723.412 1.311 1.07 1.68 1.879.419.919.419 2.122.419 4.53v5.247c0 2.407 0 3.61-.42 4.53-.368.808-.956 1.466-1.68 1.878C28.077 31 27 31 24.847 31h-4.696c-2.153 0-3.23 0-4.053-.468-.723-.412-1.311-1.07-1.68-1.878C14 27.733 14 26.53 14 24.123v-5.248Z"/><path fill="#FC441E" d="M19.824 17.561v8.328c0 .087-.034.13-.103.13h-1.38c-.06 0-.091-.043-.091-.13V17.56c0-.07.034-.104.103-.104h1.38c.052-.009.098.044.09.104Zm4.083 8.589a3.155 3.155 0 0 1-1.523-.366c-1.014-.538-1.454-1.728-1.454-2.954-.009-1.224.571-2.39 1.517-2.968.653-.415 1.42-.52 2.155-.444v-2.576c0-.06.023-.091.069-.091h1.437c.039-.007.073.033.068.078v7.726c0 .319.028.637.046.954a.141.141 0 0 1-.069.131c-.37.177-.757.309-1.152.392a5.416 5.416 0 0 1-1.095.118Zm.695-1.621V20.96c-1.037-.322-2.053.563-2.053 1.791-.025 1.286 1.001 2.13 2.053 1.778Z"/></svg>