<svg xmlns="http://www.w3.org/2000/svg" width="44" height="44" fill="none" viewBox="0 0 44 44"><circle cx="22" cy="22" r="22" fill="#FC441E"/><path fill="#F5F4F2" d="M21.5 12c-2.493 0-4.905.867-6.804 2.444a10.197 10.197 0 0 0-3.56 6.167c-.4 2.403.09 4.866 1.38 6.95a10.458 10.458 0 0 0 5.663 4.42c.525.09.722-.219.722-.488 0-.243-.013-1.05-.013-1.91-2.638.475-3.32-.627-3.53-1.204a3.734 3.734 0 0 0-1.077-1.448c-.367-.192-.892-.667-.013-.68.336.036.658.15.939.333.281.183.513.43.675.718.144.252.337.474.569.653a2.295 2.295 0 0 0 2.49.193 2.136 2.136 0 0 1 .669-1.37c-2.336-.257-4.777-1.142-4.777-5.063a3.938 3.938 0 0 1 1.076-2.756 3.605 3.605 0 0 1 .105-2.717s.88-.269 2.887 1.051a10.13 10.13 0 0 1 5.25 0c2.008-1.333 2.888-1.05 2.888-1.05.388.859.426 1.83.105 2.716a3.915 3.915 0 0 1 1.076 2.756c0 3.934-2.454 4.806-4.79 5.062.25.248.443.546.565.873.122.327.171.677.143 1.024 0 1.371-.013 2.473-.013 2.82 0 .268.197.589.722.486a10.462 10.462 0 0 0 5.648-4.43 10.056 10.056 0 0 0 1.367-6.948 10.202 10.202 0 0 0-3.563-6.16A10.657 10.657 0 0 0 21.5 12Z"/></svg>