<svg xmlns="http://www.w3.org/2000/svg" width="44" height="44" fill="none" viewBox="0 0 44 44"><circle cx="22" cy="22" r="22" fill="#FC441E"/><path fill="#F5F4F2" d="M22.1 32.8c-.5 0-1.1-.2-1.5-.6-6.5-5.7-6.6-5.8-6.6-5.9l-.1-.1C12.7 25 12 23.3 12 21.6v-.2c.1-3.6 3-6.4 6.6-6.4 1.1 0 2.6.6 3.5 1.8.9-1.2 2.5-1.8 3.6-1.8 3.6 0 6.4 2.8 6.6 6.4v.2c0 1.8-.7 3.4-1.9 4.7l-.1.1c-.1.1-.9.8-6.6 5.9-.5.3-1 .5-1.6.5ZM15.5 26c.4.4 2.4 1.8 6.1 5 .3.3.7.3 1 0 3.8-3.4 6-5.3 6.5-5.7l.1-.1c1-1 1.5-2.3 1.5-3.6v-.2c-.1-2.8-2.3-4.9-5.1-4.9-.7 0-2.1.5-2.6 1.6-.2.4-.6.6-1 .6s-.8-.2-1-.6c-.5-1-1.8-1.6-2.6-1.6-2.7 0-5 2.2-5.1 4.9v.3c0 1.3.6 2.6 1.5 3.5l.7.8Z"/></svg>