<svg xmlns="http://www.w3.org/2000/svg" width="42" height="44" fill="none" viewBox="0 0 42 44"><ellipse cx="21" cy="22" fill="#FC441E" rx="21" ry="22"/><path fill="#F5F4F2" d="M11 18.876c0-2.407 0-3.61.493-4.53a4.417 4.417 0 0 1 1.977-1.878C14.438 12 15.704 12 18.238 12h5.524c2.534 0 3.8 0 4.768.468a4.417 4.417 0 0 1 1.977 1.879c.493.919.493 2.122.493 4.53v5.247c0 2.407 0 3.61-.493 4.53a4.417 4.417 0 0 1-1.977 1.878c-.968.468-2.235.468-4.768.468h-5.524c-2.534 0-3.8 0-4.768-.468a4.417 4.417 0 0 1-1.977-1.878C11 27.733 11 26.53 11 24.123v-5.248Z"/><path fill="#FC441E" d="m21.462 17.587-2.496 4.014 2.67 4.261c.056.097 0 .118-.08.118H19.65c-.135 0-.229-.004-.282-.092l-.537-1.013a36.93 36.93 0 0 0-.57-1.026 58.68 58.68 0 0 1-.597-1.059c-.18.349-.378.697-.57 1.046-.193.349-.383.695-.57 1.04-.188.344-.38.686-.577 1.025-.036.079-.099.087-.188.087h-1.838c-.073 0-.081-.052-.04-.113l2.589-4.144-2.523-4.157c-.045-.06-.006-.122.067-.118h1.892a.22.22 0 0 1 .201.092c.162.349.34.697.537 1.046.197.348.396.693.597 1.033.201.34.4.684.57 1.032.18-.357.36-.706.544-1.046.183-.34.37-.681.563-1.026.193-.344.378-.686.557-1.026.024-.075.08-.112.161-.105h1.758c.067 0 .095.088.067.131Zm3.85 8.563c-1.183.018-2.422-.445-3.045-1.47-.305-.493-.457-1.11-.456-1.85-.006-.6.152-1.191.456-1.713.784-1.332 2.363-1.83 3.864-1.7v-2.575c0-.06.026-.091.08-.091h1.69c.047-.007.088.033.081.078v7.726c0 .319.033.637.054.954a.137.137 0 0 1-.08.131 7.117 7.117 0 0 1-2.644.51Zm.819-1.621V20.96c-1.226-.323-2.416.563-2.415 1.791-.03 1.27 1.122 2.146 2.415 1.778Z"/></svg>