<svg xmlns="http://www.w3.org/2000/svg" width="65" height="248" fill="none" viewBox="0 0 65 248"><path fill="#2A2A2A" d="m39.821 27.507-5-4.022a4.532 4.532 0 0 0-5.643 0l-5 4.022a4.474 4.474 0 0 0-1.678 3.502v5.994A4.503 4.503 0 0 0 27 41.5h2.5v-4.497a2.502 2.502 0 0 1 2.5-2.496c1.378 0 2.5 1.12 2.5 2.496V41.5H37c2.481 0 4.5-2.017 4.5-4.497V31.01a4.472 4.472 0 0 0-1.679-3.502Zm.679 9.496A3.502 3.502 0 0 1 37 40.5h-1.5v-3.497a3.502 3.502 0 0 0-3.5-3.497c-1.93 0-3.5 1.569-3.5 3.497V40.5H27c-1.93 0-3.5-1.569-3.5-3.497V31.01a3.48 3.48 0 0 1 1.305-2.723l5-4.021a3.526 3.526 0 0 1 4.39 0l5 4.021A3.477 3.477 0 0 1 40.5 31.01v5.994Zm1 40.006v5.994a4.502 4.502 0 0 1-4.5 4.496h-2.5v-4.497a2.5 2.5 0 0 0-5 0v4.497H27a4.503 4.503 0 0 1-4.5-4.496v-5.994a4.48 4.48 0 0 1 1.678-3.504l5.001-4.02a4.53 4.53 0 0 1 5.643 0l5 4.021a4.477 4.477 0 0 1 1.679 3.504l-.001-.001Z"/><path fill="#A6A6A6" d="M41.5 123.007v5.994a4.503 4.503 0 0 1-4.5 4.496h-2.5V129a2.501 2.501 0 0 0-2.5-2.496c-1.378 0-2.5 1.12-2.5 2.496v4.497H27a4.503 4.503 0 0 1-4.5-4.496v-5.994c0-1.367.612-2.645 1.678-3.503l5.001-4.02a4.532 4.532 0 0 1 5.643 0l5 4.021a4.477 4.477 0 0 1 1.679 3.503l-.001-.001Z"/><path fill="#EE7839" d="M41.5 169.006V175a4.503 4.503 0 0 1-4.5 4.496h-2.5v-4.497a2.5 2.5 0 0 0-5 0v4.497H27A4.503 4.503 0 0 1 22.5 175v-5.994a4.48 4.48 0 0 1 1.678-3.504l5.001-4.019a4.529 4.529 0 0 1 5.643 0l5 4.02a4.478 4.478 0 0 1 1.679 3.504l-.001-.001Z"/><path fill="#83BCC0" d="M41.5 215.004v5.994a4.503 4.503 0 0 1-4.5 4.496h-2.5v-4.497a2.5 2.5 0 0 0-5 0v4.497H27a4.503 4.503 0 0 1-4.5-4.496v-5.994c0-1.367.612-2.645 1.678-3.503l5.001-4.02a4.532 4.532 0 0 1 5.643 0l5 4.021a4.477 4.477 0 0 1 1.679 3.503l-.001-.001Z"/><rect width="63.002" height="246.994" x="0.5" y="0.5" stroke="#9747FF" stroke-dasharray="10 5" rx="4.5"/></svg>