<svg xmlns="http://www.w3.org/2000/svg" width="44" height="44" fill="none" viewBox="0 0 44 44"><circle cx="22" cy="22" r="22" fill="#FC441E"/><path fill="#F5F4F2" fill-rule="evenodd" d="m24.794 14.61 4.55 4.55a2.14 2.14 0 0 1 0 3.02l-2.79 2.79a2.42 2.42 0 0 0-.4.55l-1.54 3.09a2.15 2.15 0 0 1-3.43.56l-2.67-2.67-3.23 3.23a.74.74 0 0 1-.53.22.71.71 0 0 1-.53-.22.74.74 0 0 1 0-1.06l3.23-3.23-2.67-2.67a2.14 2.14 0 0 1 .56-3.43l3.09-1.54a2.42 2.42 0 0 0 .55-.4l2.81-2.79a2.15 2.15 0 0 1 3 0Zm.63 9.22 2.78-2.78a.54.54 0 0 0 .03-.76l-4.54-4.54a.53.53 0 0 0-.76 0l-2.78 2.78c-.293.287-.63.523-1 .7l-3.09 1.55a.51.51 0 0 0-.29.39.5.5 0 0 0 .15.46l6.4 6.4a.49.49 0 0 0 .37.16.52.52 0 0 0 .48-.3l1.55-3.06c.176-.37.412-.708.7-1Z" clip-rule="evenodd"/></svg>