<svg xmlns="http://www.w3.org/2000/svg" id="Capa_1" data-name="Capa 1" viewBox="0 0 470 330"><defs><style>.cls-1{fill:#fc441e}</style></defs><path d="M2.5 0c20.42 0 40.64 4.25 59.51 12.52 18.87 8.27 36.01 20.38 50.45 35.66 14.44 15.28 25.89 33.41 33.71 53.37s11.84 41.35 11.84 62.95-4.02 42.99-11.84 62.95c-7.81 19.96-19.27 38.09-33.71 53.37-14.44 15.27-31.58 27.39-50.45 35.66S22.92 329 2.5 329V0Z" class="cls-1"/><path d="M158 1c20.49 0 40.77 4.25 59.7 12.52s36.12 20.38 50.61 35.66c14.49 15.28 25.98 33.41 33.82 53.37s11.88 41.35 11.88 62.95-4.04 42.99-11.88 62.95c-7.84 19.96-19.33 38.09-33.82 53.37-14.49 15.27-31.68 27.39-50.61 35.66C198.77 325.75 178.49 330 158 330V1Z" class="cls-1"/><path d="M314 0c20.49 0 40.77 4.25 59.7 12.52s36.12 20.38 50.61 35.66c14.49 15.28 25.98 33.41 33.82 53.37s11.88 41.35 11.88 62.95-4.03 42.99-11.88 62.95c-7.84 19.96-19.33 38.09-33.82 53.37-14.49 15.27-31.68 27.39-50.61 35.66C354.77 324.75 334.49 329 314 329V0Z" class="cls-1"/></svg>