<svg xmlns="http://www.w3.org/2000/svg" xml:space="preserve" id="Capa_1" x="0px" y="0px" style="enable-background:new 0 0 164 118" version="1.1" viewBox="0 0 164 118"><style>.st0{fill:#fc441e}</style><path d="M.5 59C.5 26.8 26.6.6 58.9.6h104.6V59c0 32.2-26.1 58.4-58.4 58.4H.5V59z" class="st0"/><ellipse cx="81.8" cy="58.2" rx="88.6" ry="43.6" style="fill:#f5f4f2" transform="rotate(-27.489 81.818 58.22)"/><path d="m83.3 66.9-.3-.2c-.1-.1-.2-.1-.3-.2l-.3-.2c-.3-.1-.6-.1-.9 0-.3.1-.6.3-.8.5-.2.2-.3.4-.4.6-.1.4-.2.8-.1 1.1.1.4.3.7.5 1 .3.3.6.5 1 .5s.8 0 1.1-.1c.2-.1.4-.3.6-.4.3-.3.4-.6.5-1 .1-.4 0-.8-.1-1.1-.2-.2-.3-.4-.5-.5zm6.3-28.1H74.4c-1.5 0-3 .6-4 1.7-1.1 1.1-1.7 2.6-1.7 4.2v27.5c0 1.6.6 3.1 1.7 4.2s2.5 1.7 4 1.7h15.2c1.5 0 3-.6 4-1.7 1.1-1.1 1.7-2.6 1.7-4.2V44.7c0-1.6-.6-3.1-1.7-4.2-1-1.1-2.5-1.7-4-1.7zm1.9 33.4c0 .5-.2 1-.6 1.4-.4.4-.8.6-1.3.6H74.4c-.5 0-1-.2-1.3-.6s-.6-.9-.6-1.4V44.7c0-.5.2-1 .6-1.4.4-.4.8-.6 1.3-.6h15.2c.5 0 1 .2 1.3.6.4.4.6.9.6 1.4v27.5z" class="st0"/></svg>