<svg xmlns="http://www.w3.org/2000/svg" xml:space="preserve" id="Capa_1" x="0px" y="0px" style="enable-background:new 0 0 266 167" version="1.1" viewBox="0 0 266 167"><style>.st0{fill:#fc441e}</style><path d="M0 0h266v167H0z" class="st0"/><ellipse cx="133.3" cy="82.3" rx="140.4" ry="63.3" style="fill:#f5f4f2" transform="rotate(-22.527 133.349 82.353)"/><path d="M82.9 79.6v3.7h6.5v2.6h-6.5V91h-3.2V77h10.6v2.6h-7.4zM95 81.7c.4-.5.9-.9 1.5-1.2.6-.3 1.4-.4 2.2-.4V83H98c-.9 0-1.6.3-2.1.8s-.8 1.2-.8 2.2v5H92V80.2h3v1.5zm10.6 9.5c-1.1 0-2.2-.2-3.1-.7-.9-.5-1.6-1.1-2.1-2-.5-.8-.8-1.8-.8-2.9 0-1.1.3-2 .8-2.9.5-.8 1.2-1.5 2.1-2 .9-.5 1.9-.7 3.1-.7 1.1 0 2.1.2 3 .7.9.5 1.6 1.1 2.1 2 .5.8.8 1.8.8 2.9 0 1.1-.3 2-.8 2.9-.5.8-1.2 1.5-2.1 2-.9.4-1.9.7-3 .7zm0-2.6c.8 0 1.5-.3 2-.8s.8-1.3.8-2.2c0-.9-.3-1.6-.8-2.2-.5-.5-1.2-.8-2-.8s-1.5.3-2 .8-.8 1.3-.8 2.2c0 .9.3 1.6.8 2.2.5.5 1.2.8 2 .8zm14.5-8.5c1.3 0 2.4.4 3.2 1.2.8.8 1.2 2 1.2 3.6V91h-3.1v-5.7c0-.9-.2-1.5-.6-1.9-.4-.4-.9-.6-1.6-.6-.8 0-1.4.2-1.9.7-.5.5-.7 1.2-.7 2.2V91h-3.1V80.2h3v1.3c.4-.5.9-.8 1.5-1 .7-.3 1.4-.4 2.1-.4zm14.2 10.4c-.3.2-.7.4-1.1.5-.4.1-.9.2-1.4.2-1.3 0-2.3-.3-3-1-.7-.7-1-1.6-1-2.9v-4.4h-1.7v-2.4h1.7v-2.6h3.1v2.6h2.7v2.4h-2.7v4.4c0 .5.1.8.3 1.1.2.2.6.4 1 .4.5 0 .9-.1 1.3-.4l.8 2.1zm1.2-6.4h5.7v2.5h-5.7v-2.5zm18.8 1.6s0 .3-.1.8h-8.1c.1.7.5 1.2 1 1.6.5.4 1.2.6 2 .6.6 0 1.1-.1 1.5-.2.4-.2.8-.4 1.2-.8l1.7 1.8c-1 1.2-2.5 1.7-4.4 1.7-1.2 0-2.3-.2-3.2-.7-.9-.5-1.7-1.1-2.2-2-.5-.8-.8-1.8-.8-2.9 0-1.1.2-2 .7-2.8.5-.9 1.2-1.5 2.1-2 .9-.5 1.9-.7 2.9-.7 1.1 0 2 .2 2.9.7.9.5 1.5 1.1 2 2 .6.8.8 1.7.8 2.9zm-5.5-3.3c-.7 0-1.3.2-1.8.6-.5.4-.8.9-.9 1.6h5.3c-.1-.7-.4-1.2-.9-1.6-.5-.4-1.1-.6-1.7-.6zm14.2-2.3c1.3 0 2.4.4 3.2 1.2.8.8 1.2 2 1.2 3.6V91h-3.1v-5.7c0-.9-.2-1.5-.6-1.9-.4-.4-.9-.6-1.6-.6-.8 0-1.4.2-1.9.7-.5.5-.7 1.2-.7 2.2V91h-3.1V80.2h3v1.3c.4-.5.9-.8 1.5-1 .6-.3 1.3-.4 2.1-.4zm18.3-3.9V91h-3v-1.2c-.8.9-1.9 1.4-3.4 1.4-1 0-1.9-.2-2.8-.7-.8-.5-1.5-1.1-1.9-1.9-.5-.8-.7-1.8-.7-2.9 0-1.1.2-2.1.7-2.9.5-.8 1.1-1.5 1.9-1.9.8-.5 1.7-.7 2.8-.7 1.4 0 2.4.4 3.2 1.3v-5.2h3.2zm-5.8 12.4c.8 0 1.4-.3 2-.8.5-.5.8-1.3.8-2.2 0-.9-.3-1.6-.8-2.2-.5-.5-1.2-.8-2-.8s-1.5.3-2 .8-.8 1.3-.8 2.2c0 .9.3 1.6.8 2.2.6.5 1.2.8 2 .8z" class="st0"/></svg>