<svg xmlns="http://www.w3.org/2000/svg" xml:space="preserve" x="0px" y="0px" style="enable-background:new 0 0 266 121.5" viewBox="0 0 266 121.5"><path d="M266 0c0 16-3.4 31.8-10.1 46.5-6.7 14.7-16.5 28.1-28.8 39.4-12.3 11.3-27 20.2-43.1 26.3-16.1 6.1-33.4 9.2-50.9 9.2s-34.8-3.1-50.9-9.2C66 106.1 51.3 97.2 39 85.9 26.6 74.6 16.8 61.2 10.1 46.5 3.4 31.8 0 16 0 0h266z" style="fill:#fc441e"/><path d="M110.7 62.7c-2 0-3.6-.6-4.7-1.7s-1.7-2.7-1.7-4.7v-7.8h3.2v7.7c0 2.5 1 3.8 3.1 3.8 1 0 1.8-.3 2.3-.9.5-.6.8-1.6.8-2.9v-7.7h3.2v7.8c0 2.1-.6 3.6-1.7 4.7-.9 1.2-2.5 1.7-4.5 1.7zm18.2-.2-3.4-4.9-3.3 4.9h-3.7l5.2-7.1-4.9-6.9h3.7l3.2 4.5 3.2-4.5h3.5l-4.9 6.8 5.2 7.2h-3.8zm10-16.8h2.8l-6.6 18.8h-2.8l6.6-18.8zm9.8 17c-2 0-3.6-.6-4.7-1.7s-1.7-2.7-1.7-4.7v-7.8h3.2v7.7c0 2.5 1 3.8 3.1 3.8 1 0 1.8-.3 2.3-.9.5-.6.8-1.6.8-2.9v-7.7h3.2v7.8c0 2.1-.6 3.6-1.7 4.7-1 1.2-2.5 1.7-4.5 1.7zm9.5-14.2h3.2v14h-3.2v-14z" style="fill:#f5f4f2"/></svg>