<svg xmlns="http://www.w3.org/2000/svg" xml:space="preserve" x="0px" y="0px" style="enable-background:new 0 0 321 187" viewBox="0 0 321 187"><path d="M221 187H0v-87C0 44.8 44.8 0 100 0h221v87c0 55.2-44.8 100-100 100z" style="fill:#fc441e"/><path d="M76.8 91.9h3.6v6.9c-.9.7-2 1.2-3.2 1.6s-2.4.6-3.6.6c-1.8 0-3.3-.4-4.7-1.1-1.4-.8-2.5-1.8-3.3-3.1-.8-1.3-1.2-2.8-1.2-4.5s.4-3.2 1.2-4.5c.8-1.3 1.9-2.4 3.3-3.1 1.4-.8 3-1.1 4.8-1.1 1.5 0 2.8.2 4 .7s2.2 1.2 3 2.2l-2.5 2.3c-1.2-1.3-2.7-1.9-4.4-1.9-1.1 0-2 .2-2.9.7-.8.5-1.5 1.1-2 1.9s-.7 1.8-.7 2.8.2 2 .7 2.8 1.1 1.5 1.9 1.9c.8.5 1.8.7 2.8.7 1.1 0 2.1-.2 3-.7v-5.1h.2zm10.5-2.6c.5-.6 1.1-1.1 1.8-1.4.8-.3 1.7-.5 2.7-.5v3.5H91c-1.1 0-1.9.3-2.5.9s-.9 1.5-.9 2.7v6.1h-3.8v-13h3.6l-.1 1.7zm11.9-1.9c2 0 3.6.5 4.6 1.4 1.1.9 1.6 2.4 1.6 4.3v7.4h-3.5v-1.6c-.7 1.2-2 1.8-4 1.8-1 0-1.9-.2-2.6-.5s-1.3-.8-1.7-1.4c-.4-.6-.6-1.3-.6-2 0-1.2.5-2.2 1.4-2.8.9-.7 2.3-1 4.2-1h3c0-.8-.2-1.4-.7-1.9s-1.2-.7-2.2-.7c-.7 0-1.4.1-2.1.3-.7.2-1.2.5-1.7.9L93.5 89c.7-.5 1.6-.9 2.5-1.2 1.1-.3 2.1-.4 3.2-.4zm-.3 10.8c.6 0 1.2-.1 1.7-.4s.9-.7 1.1-1.3v-1.3h-2.6c-1.5 0-2.3.5-2.3 1.5 0 .5.2.9.6 1.2.3.2.8.3 1.5.3zm17.6-10.8c1.2 0 2.3.3 3.3.8s1.8 1.3 2.3 2.3c.6 1 .8 2.2.8 3.5s-.3 2.5-.8 3.5c-.6 1-1.3 1.8-2.3 2.3s-2.1.8-3.3.8c-1.7 0-3-.5-3.9-1.6v6.1h-3.8V87.6h3.6v1.5c1-1.1 2.3-1.7 4.1-1.7zm-.6 10.3c1 0 1.8-.3 2.4-1s.9-1.5.9-2.6-.3-2-.9-2.6c-.6-.7-1.4-1-2.4-1s-1.8.3-2.4 1c-.6.6-.9 1.5-.9 2.6s.3 2 .9 2.6 1.4 1 2.4 1zm17.5-10.3c1.6 0 2.9.5 3.9 1.4 1 1 1.5 2.4 1.5 4.3v7.4H135v-6.9c0-1-.2-1.8-.7-2.3s-1.1-.8-2-.8-1.7.3-2.3.9-.8 1.4-.8 2.6v6.4h-3.8V82.7h3.8V89c.5-.5 1.1-.9 1.8-1.1.8-.4 1.6-.5 2.4-.5zm8.8.2h3.8v13h-3.8v-13zm1.9-1.8c-.7 0-1.3-.2-1.7-.6s-.7-.9-.7-1.5.2-1.1.7-1.5c.4-.4 1-.6 1.7-.6s1.3.2 1.7.6.7.9.7 1.4c0 .6-.2 1.2-.7 1.6s-1 .6-1.7.6zm11.6 15c-1.4 0-2.6-.3-3.7-.8-1.1-.6-2-1.4-2.6-2.4s-.9-2.2-.9-3.5.3-2.4.9-3.5c.6-1 1.5-1.8 2.6-2.4s2.4-.9 3.7-.9c1.4 0 2.6.3 3.6.9s1.8 1.4 2.2 2.4l-2.9 1.6c-.7-1.2-1.6-1.8-2.9-1.8-1 0-1.8.3-2.4 1-.6.6-1 1.5-1 2.6s.3 2 1 2.6c.6.6 1.5 1 2.4 1 1.3 0 2.3-.6 2.9-1.8l2.9 1.6c-.5 1-1.2 1.8-2.2 2.4-1 .7-2.2 1-3.6 1zm15.1-17.1h7.7c1.8 0 3.5.4 4.9 1.1s2.5 1.7 3.3 2.9c.8 1.3 1.2 2.8 1.2 4.4s-.4 3.2-1.2 4.4c-.8 1.3-1.9 2.3-3.3 3-1.4.7-3 1-4.9 1h-7.7V83.7zm7.5 13.7c1.7 0 3-.5 4-1.4s1.5-2.2 1.5-3.8-.5-2.9-1.5-3.8-2.3-1.4-4-1.4h-3.6v10.5l3.6-.1zm24.9-3.3s0 .4-.1 1h-9.8c.2.8.6 1.4 1.3 1.9s1.5.7 2.5.7c.7 0 1.3-.1 1.8-.3.5-.2 1-.5 1.5-1l2 2.2c-1.2 1.4-3 2.1-5.4 2.1-1.5 0-2.8-.3-3.9-.8-1.1-.6-2-1.4-2.6-2.4s-.9-2.2-.9-3.5.3-2.4.9-3.4c.6-1 1.4-1.8 2.5-2.4s2.2-.9 3.5-.9 2.4.3 3.5.8c1 .5 1.8 1.3 2.4 2.4.5 1.1.8 2.3.8 3.6zm-6.7-3.9c-.9 0-1.6.2-2.1.7-.6.5-.9 1.1-1.1 2h6.4c-.1-.8-.5-1.5-1.1-2-.6-.4-1.3-.7-2.1-.7zm13.6 10.6c-1.1 0-2.1-.1-3.2-.4-1-.3-1.8-.6-2.5-1l1.3-2.7c.6.4 1.3.7 2.1.9.8.2 1.6.3 2.4.3 1.6 0 2.4-.4 2.4-1.2 0-.4-.2-.6-.7-.8-.4-.2-1.1-.3-2-.4-1.1-.2-1.9-.3-2.6-.6-.7-.2-1.3-.6-1.8-1.1s-.7-1.3-.7-2.3c0-.8.2-1.5.7-2.2.5-.6 1.2-1.1 2.1-1.5.9-.4 2-.5 3.2-.5.9 0 1.8.1 2.7.3.9.2 1.7.5 2.3.8l-1.3 2.7c-1.1-.6-2.4-1-3.7-1-.8 0-1.4.1-1.8.3-.4.2-.6.5-.6.9s.2.7.7.8 1.1.3 2.1.5c1.1.2 1.9.4 2.6.6.7.2 1.3.6 1.8 1.1s.7 1.3.7 2.2c0 .8-.2 1.5-.7 2.1s-1.2 1.1-2.1 1.5c-1.1.5-2.1.7-3.4.7zm8.4-13.2h3.8v13h-3.8v-13zm1.9-1.8c-.7 0-1.3-.2-1.7-.6s-.7-.9-.7-1.5.2-1.1.7-1.5c.4-.4 1-.6 1.7-.6s1.3.2 1.7.6.7.9.7 1.4c0 .6-.2 1.2-.7 1.6-.4.4-1 .6-1.7.6zm18.8 1.8v10.8c0 2.4-.6 4.2-1.9 5.3-1.2 1.2-3 1.7-5.4 1.7-1.3 0-2.4-.2-3.6-.5-1.1-.3-2.1-.7-2.8-1.3l1.5-2.7c.5.5 1.2.8 2.1 1.1.8.3 1.7.4 2.5.4 1.3 0 2.3-.3 2.9-.9.6-.6.9-1.5.9-2.7v-.5c-1 1.1-2.3 1.6-4.1 1.6-1.2 0-2.3-.3-3.3-.8s-1.8-1.3-2.3-2.2c-.6-.9-.9-2-.9-3.3s.3-2.3.9-3.3 1.4-1.7 2.3-2.2c1-.5 2.1-.8 3.3-.8 1.9 0 3.3.6 4.3 1.9v-1.7h3.6v.1zm-7.1 9.3c1 0 1.8-.3 2.4-.9.6-.6 1-1.4 1-2.3s-.3-1.7-1-2.3c-.6-.6-1.4-.9-2.4-.9s-1.8.3-2.5.9c-.6.6-1 1.3-1 2.3s.3 1.7 1 2.3c.6.6 1.5.9 2.5.9zm18.5-9.5c1.6 0 2.9.5 3.9 1.4 1 1 1.5 2.4 1.5 4.3v7.4h-3.8v-6.9c0-1-.2-1.8-.7-2.3s-1.1-.8-2-.8-1.7.3-2.3.9-.8 1.4-.8 2.6v6.4h-3.8v-13h3.6v1.5c.5-.5 1.1-1 1.9-1.3.8-.1 1.6-.2 2.5-.2z" style="fill:#f5f4f2"/></svg>